<svg width="250" height="250" viewBox="0 0 250 250" fill="none" xmlns="http://www.w3.org/2000/svg">
<path d="M152 174.75C95.6669 207.917 67.2502 190.833 66.7502 123.5C66.2502 56.1668 94.4169 39.5835 151.25 73.7502C208.084 107.917 208.334 141.583 152 174.75Z" fill="url(#paint0_linear)"/>
<path d="M120.871 136.762L124.656 132.855H140.204L145.128 136.762V145.407C145.128 152.105 139.698 157.535 133 157.535C126.301 157.535 120.871 152.105 120.871 145.407V136.762H120.871Z" fill="#365E7D"/>
<path d="M139.42 132.855V145.407C139.42 151.121 135.466 155.91 130.146 157.194C131.061 157.415 132.016 157.535 133 157.535C139.698 157.535 145.129 152.105 145.129 145.407V136.762L139.42 132.855Z" fill="#2B4D66"/>
<path d="M160.248 97.6196C160.248 82.6835 148.231 70.5544 133.338 70.3731C118.396 70.1915 106.004 82.2136 105.755 97.1542C105.596 106.683 110.33 115.115 117.609 120.106C119.656 121.51 120.871 123.839 120.871 126.321V136.762H145.128V126.322C145.128 123.857 146.315 121.524 148.351 120.133C155.533 115.227 160.248 106.974 160.248 97.6196Z" fill="#FFE07D"/>
<path d="M133.338 70.3736C132.263 70.3605 131.202 70.4126 130.157 70.5224C143.858 71.955 154.539 83.5392 154.539 97.62C154.539 106.975 149.824 115.227 142.642 120.134C140.606 121.524 139.419 123.857 139.419 126.323V136.762H145.128V126.323C145.128 123.858 146.315 121.524 148.351 120.134C155.533 115.227 160.248 106.975 160.248 97.62C160.248 82.6839 148.231 70.5546 133.338 70.3736Z" fill="#FFD064"/>
<path d="M132.234 103.451H126.11C123.761 103.451 121.855 101.546 121.855 99.1964V95.3247C121.855 92.9749 123.76 91.0698 126.11 91.0698H132.234V103.451Z" fill="#FFC250"/>
<path d="M128.251 91.0698H132.234V103.451H128.251V91.0698Z" fill="#EBB044"/>
<path d="M132.234 103.451L144.144 107.471V87.0498L132.234 91.0699V103.451Z" fill="#E27D47"/>
<path d="M139.508 88.6147V105.907L144.144 107.471V87.0498L139.508 88.6147Z" fill="#DD544F"/>
<path d="M144.144 110.329C144.953 110.329 145.609 109.674 145.609 108.865V85.6563C145.609 84.8471 144.953 84.1914 144.144 84.1914C143.335 84.1914 142.679 84.8471 142.679 85.6563V85.9979L131.993 89.6049H126.11C122.957 89.6049 120.391 92.1707 120.391 95.3244V99.1961C120.391 102.003 122.423 104.342 125.093 104.823L127.733 111.194C128.041 111.939 128.897 112.298 129.647 111.987C130.394 111.678 130.749 110.821 130.439 110.073L128.303 104.916H131.993L142.679 108.523V108.864C142.679 109.674 143.335 110.329 144.144 110.329ZM123.321 99.1963V95.3246C123.321 93.7863 124.572 92.5348 126.111 92.5348H130.769V101.987H126.123C126.121 101.987 126.12 101.987 126.118 101.987H126.111C124.572 101.986 123.321 100.735 123.321 99.1963ZM133.699 102.4V92.1213L142.679 89.09V105.431L133.699 102.4Z" fill="black"/>
<path d="M133 65.1055C133.809 65.1055 134.465 64.4498 134.465 63.6406V60.4648C134.465 59.6557 133.809 59 133 59C132.191 59 131.535 59.6557 131.535 60.4648V63.6406C131.535 64.4496 132.191 65.1055 133 65.1055Z" fill="black"/>
<path d="M157.313 75.1763C157.688 75.1763 158.063 75.0333 158.349 74.7474L160.595 72.5021C161.167 71.9298 161.167 71.0024 160.595 70.4304C160.022 69.8585 159.095 69.8585 158.523 70.4304L156.278 72.6757C155.706 73.248 155.706 74.1753 156.278 74.7474C156.564 75.0333 156.939 75.1763 157.313 75.1763Z" fill="black"/>
<path d="M107.651 74.7474C107.937 75.0333 108.312 75.1763 108.686 75.1763C109.061 75.1763 109.436 75.0333 109.722 74.7472C110.294 74.1751 110.294 73.2476 109.722 72.6757L107.477 70.4304C106.905 69.8585 105.977 69.8583 105.405 70.4306C104.833 71.0027 104.833 71.9302 105.405 72.5021L107.651 74.7474Z" fill="black"/>
<path d="M98.6153 96.5601H95.4399C94.631 96.5601 93.9751 97.2157 93.9751 98.0249C93.9751 98.8341 94.631 99.4897 95.4399 99.4897H98.6155C99.4245 99.4897 100.08 98.8341 100.08 98.0249C100.08 97.2157 99.4243 96.5601 98.6153 96.5601Z" fill="black"/>
<path d="M170.559 96.5601H167.384C166.575 96.5601 165.919 97.2157 165.919 98.0249C165.919 98.8341 166.575 99.4897 167.384 99.4897H170.559C171.369 99.4897 172.024 98.8341 172.024 98.0249C172.024 97.2157 171.369 96.5601 170.559 96.5601Z" fill="black"/>
<path d="M133.356 68.9087C130.229 68.8675 127.148 69.3376 124.192 70.2972C123.422 70.5468 123.001 71.3732 123.251 72.1427C123.501 72.9121 124.327 73.3332 125.096 73.0837C127.749 72.223 130.514 71.8046 133.32 71.8378C140.139 71.9209 146.538 74.6394 151.336 79.4929C156.138 84.3505 158.783 90.788 158.783 97.6195C158.783 106.144 154.574 114.108 147.524 118.924C145.107 120.575 143.663 123.341 143.663 126.322V135.297H134.464V127.657C134.464 126.847 133.808 126.192 132.999 126.192C132.19 126.192 131.535 126.847 131.535 127.657V135.297H122.335V126.321C122.335 123.347 120.878 120.572 118.437 118.898C111.268 113.982 107.074 105.863 107.219 97.1785C107.294 92.6925 108.552 88.2876 110.858 84.4404C113.096 80.7062 116.266 77.5673 120.025 75.3628C120.723 74.9535 120.957 74.0562 120.548 73.3582C120.138 72.6603 119.241 72.4263 118.543 72.8355C114.361 75.2878 110.835 78.7798 108.345 82.9341C105.776 87.2216 104.374 92.1302 104.29 97.1294C104.129 106.8 108.798 115.841 116.78 121.314C118.424 122.441 119.406 124.313 119.406 126.321V135.296H118.538C117.729 135.296 117.074 135.952 117.074 136.761C117.074 137.57 117.729 138.226 118.538 138.226H119.406V141.561H118.538C117.729 141.561 117.074 142.216 117.074 143.026C117.074 143.835 117.729 144.49 118.538 144.49H119.406C119.424 145.062 119.324 146.154 119.626 147.825H118.538C117.729 147.825 117.074 148.481 117.074 149.29C117.074 150.099 117.729 150.755 118.538 150.755H120.504C122.586 155.599 127.402 159 133 159C134.41 159 135.805 158.783 137.145 158.354C137.916 158.107 138.34 157.283 138.094 156.512C137.847 155.742 137.023 155.317 136.252 155.563C135.201 155.9 134.107 156.07 133 156.07C129.068 156.07 125.629 153.93 123.78 150.755H142.225C141.794 151.495 141.272 152.188 140.662 152.818C140.1 153.4 140.115 154.327 140.696 154.89C141.278 155.452 142.205 155.437 142.768 154.855C143.936 153.648 144.852 152.258 145.496 150.755H147.46C148.27 150.755 148.925 150.099 148.925 149.29C148.925 148.481 148.27 147.825 147.46 147.825H146.375C146.665 146.208 146.576 145.073 146.593 144.491H147.46C148.27 144.491 148.925 143.835 148.925 143.026C148.925 142.217 148.27 141.561 147.46 141.561H146.593V138.227H147.46C148.27 138.227 148.925 137.571 148.925 136.762C148.925 135.953 148.27 135.297 147.46 135.297H146.593V126.322C146.593 124.31 147.559 122.448 149.177 121.343C157.026 115.981 161.713 107.112 161.713 97.6197C161.713 90.0121 158.768 82.8431 153.419 77.4334C148.076 72.0285 140.951 69.0011 133.356 68.9087ZM143.385 147.826H122.616C122.238 146.204 122.36 145.102 122.336 144.491H143.663C143.642 145.058 143.764 146.192 143.385 147.826ZM122.336 141.561V138.227H143.663V141.561H122.336Z" fill="black"/>
<defs>
<linearGradient id="paint0_linear" x1="130.404" y1="56.4985" x2="130.404" y2="191.168" gradientUnits="userSpaceOnUse">
<stop stop-color="#1DCDDB"/>
<stop offset="1" stop-color="#31B8FF"/>
</linearGradient>
</defs>
</svg>
