<svg width="250" height="250" viewBox="0 0 250 250" fill="none" xmlns="http://www.w3.org/2000/svg">
<path d="M152 174.75C95.6664 207.917 67.2497 190.833 66.7497 123.5C66.2497 56.1668 94.4164 39.5835 151.25 73.7502C208.083 107.917 208.333 141.583 152 174.75Z" fill="url(#paint0_linear)"/>
<path d="M178.234 149.297C178.09 149.742 177.912 150.175 177.703 150.594L180.844 154.625L176.625 158.844L172.594 155.703C172.175 155.912 171.742 156.09 171.297 156.234L170.656 161.312H164.719L164.078 156.234C163.633 156.09 163.2 155.912 162.781 155.703L158.75 158.844L154.531 154.625L157.672 150.594C157.463 150.175 157.285 149.742 157.141 149.297L152.062 148.656V142.719L157.141 142.078C157.285 141.633 157.463 141.2 157.672 140.781L154.531 136.75L158.75 132.531L162.781 135.672C163.2 135.463 163.633 135.285 164.078 135.141L164.719 130.062H170.656L171.297 135.141C171.742 135.285 172.175 135.463 172.594 135.672L176.625 132.531L180.844 136.75L177.703 140.781C177.912 141.2 178.09 141.633 178.234 142.078L183.312 142.719V148.656L178.234 149.297Z" fill="#C0AB91"/>
<path d="M178.234 149.297C178.09 149.742 177.912 150.175 177.703 150.594L180.844 154.625L176.625 158.844L172.594 155.703C172.175 155.912 171.742 156.09 171.297 156.234L170.656 161.312H164.719L164.078 156.234C163.633 156.09 163.2 155.912 162.781 155.703L158.75 158.844L156.609 156.703C162.833 154.661 168.317 150.829 172.375 145.687C175.045 142.214 176.99 138.24 178.094 134L180.844 136.75L177.703 140.781C177.912 141.2 178.09 141.633 178.234 142.078L183.312 142.719V148.656L178.234 149.297Z" fill="#B39A7C"/>
<path d="M138 161.312C143.178 161.312 147.375 157.115 147.375 151.938C147.375 146.76 143.178 142.562 138 142.562C132.822 142.562 128.625 146.76 128.625 151.938C128.625 157.115 132.822 161.312 138 161.312Z" fill="#46F8FF"/>
<path d="M147.375 151.937C147.372 153.98 146.702 155.966 145.467 157.593C144.232 159.22 142.499 160.399 140.533 160.951C138.566 161.503 136.473 161.397 134.571 160.65C132.67 159.903 131.065 158.556 130 156.812C131.465 157.716 133.154 158.192 134.875 158.187C137.361 158.187 139.746 157.2 141.504 155.442C143.262 153.683 144.25 151.299 144.25 148.812C144.255 147.091 143.779 145.403 142.875 143.938C144.25 144.771 145.387 145.945 146.176 147.347C146.964 148.748 147.377 150.329 147.375 151.937Z" fill="#00E7F0"/>
<path d="M167.688 151.938C171.139 151.938 173.938 149.139 173.938 145.688C173.938 142.236 171.139 139.438 167.688 139.438C164.236 139.438 161.438 142.236 161.438 145.688C161.438 149.139 164.236 151.938 167.688 151.938Z" fill="#FFDE55"/>
<path d="M114.562 151.938H119.25V161.312H114.562V151.938Z" fill="#FFDE55"/>
<path d="M103.625 148.812H108.312V161.312H103.625V148.812Z" fill="#57A4FF"/>
<path d="M92.6875 139.438H97.375V161.312H92.6875V139.438Z" fill="#00E7F0"/>
<path d="M138 94.125C140.589 94.125 142.688 92.0263 142.688 89.4375C142.688 86.8487 140.589 84.75 138 84.75C135.411 84.75 133.312 86.8487 133.312 89.4375C133.312 92.0263 135.411 94.125 138 94.125Z" fill="#57A4FF"/>
<path d="M152.062 97.25C152.15 103.15 151.006 109.004 148.703 114.438C147.93 116.202 146.943 117.866 145.765 119.391C145.422 112.234 142.062 106.625 138 106.625C133.937 106.625 130.578 112.234 130.234 119.391C129.056 117.866 128.07 116.202 127.297 114.438C124.993 109.004 123.849 103.15 123.937 97.25C123.937 82.5781 138 70.6875 138 70.6875C138 70.6875 152.062 82.5781 152.062 97.25ZM142.687 89.4375C142.687 88.5104 142.412 87.6041 141.897 86.8333C141.382 86.0624 140.65 85.4616 139.794 85.1068C138.937 84.752 137.995 84.6592 137.085 84.8401C136.176 85.0209 135.341 85.4674 134.685 86.1229C134.03 86.7785 133.583 87.6137 133.402 88.523C133.222 89.4323 133.314 90.3748 133.669 91.2313C134.024 92.0879 134.625 92.8199 135.396 93.335C136.166 93.8501 137.073 94.125 138 94.125C139.243 94.125 140.435 93.6311 141.314 92.7521C142.193 91.873 142.687 90.6807 142.687 89.4375Z" fill="#FF3051"/>
<path d="M138 70.6875C136.905 71.647 135.862 72.664 134.875 73.7344C139 78.1719 145.812 87.0469 145.812 97.25C145.845 101.96 145.144 106.646 143.734 111.141C144.983 113.718 145.675 116.529 145.766 119.391C146.944 117.866 147.93 116.202 148.703 114.438C151.006 109.004 152.151 103.15 152.062 97.25C152.062 82.5781 138 70.6875 138 70.6875Z" fill="#CD2A00"/>
<path d="M161.438 101.938L164.563 125.375H158.313L153.625 114.438H148.703C151.006 109.004 152.151 103.15 152.063 97.25L161.438 101.938Z" fill="#FFDE55"/>
<path d="M164.562 125.375H158.312L155.187 101.938L151.953 100.328C152.031 99.3281 152.062 98.2969 152.062 97.25L161.437 101.938L164.562 125.375Z" fill="#FFCD00"/>
<path d="M145.766 119.391C145.797 119.812 145.812 120.25 145.812 120.688C145.812 128.453 138 134.75 138 134.75C138 134.75 130.188 128.453 130.188 120.688C130.188 120.25 130.203 119.812 130.234 119.391C130.578 112.234 133.938 106.625 138 106.625C142.062 106.625 145.422 112.234 145.766 119.391Z" fill="#FF7956"/>
<path d="M145.812 120.688C145.812 128.453 138 134.75 138 134.75C137.454 134.293 136.933 133.808 136.438 133.297C138.719 131.016 142.688 126.219 142.688 120.688C142.688 120.25 142.672 119.813 142.641 119.391C142.344 113.172 139.766 108.125 136.438 106.906C136.937 106.72 137.467 106.624 138 106.625C142.062 106.625 145.422 112.234 145.766 119.391C145.797 119.813 145.812 120.25 145.812 120.688Z" fill="#FF5023"/>
<path d="M127.297 114.438H122.375L117.688 125.375H111.438L114.562 101.938L123.938 97.25C123.849 103.15 124.994 109.004 127.297 114.438Z" fill="#FFDE55"/>
<path d="M173.937 145.687C173.939 147.117 173.45 148.503 172.553 149.615C171.655 150.728 170.403 151.498 169.005 151.798C167.608 152.098 166.15 151.909 164.875 151.264C163.6 150.618 162.585 149.554 162 148.25C162.804 148.62 163.678 148.812 164.562 148.812C166.22 148.812 167.81 148.154 168.982 146.982C170.154 145.81 170.812 144.22 170.812 142.562C170.812 141.678 170.62 140.804 170.25 140C171.348 140.491 172.28 141.289 172.935 142.298C173.589 143.308 173.937 144.485 173.937 145.687Z" fill="#FFCD00"/>
<path d="M138 141C135.837 141 133.722 141.641 131.923 142.843C130.125 144.045 128.723 145.753 127.895 147.752C127.067 149.75 126.851 151.95 127.273 154.071C127.695 156.193 128.736 158.142 130.266 159.671C131.796 161.201 133.745 162.243 135.866 162.665C137.988 163.087 140.187 162.87 142.186 162.042C144.184 161.215 145.892 159.813 147.094 158.014C148.296 156.215 148.938 154.101 148.938 151.937C148.934 149.038 147.78 146.258 145.73 144.208C143.68 142.157 140.9 141.004 138 141ZM138 159.75C136.063 159.752 134.194 159.034 132.756 157.735C131.318 156.437 130.414 154.65 130.219 152.723C130.024 150.795 130.553 148.864 131.702 147.304C132.851 145.744 134.539 144.667 136.438 144.281V151.937H139.563V144.281C141.461 144.667 143.149 145.744 144.298 147.304C145.447 148.864 145.976 150.795 145.781 152.723C145.586 154.65 144.682 156.437 143.244 157.735C141.806 159.034 139.937 159.752 138 159.75Z" fill="black"/>
<path d="M97.375 137.875H92.6875C92.2731 137.875 91.8757 138.04 91.5826 138.333C91.2896 138.626 91.125 139.023 91.125 139.438V161.312C91.125 161.727 91.2896 162.124 91.5826 162.417C91.8757 162.71 92.2731 162.875 92.6875 162.875H97.375C97.7894 162.875 98.1868 162.71 98.4799 162.417C98.7729 162.124 98.9375 161.727 98.9375 161.312V139.438C98.9375 139.023 98.7729 138.626 98.4799 138.333C98.1868 138.04 97.7894 137.875 97.375 137.875ZM95.8125 159.75H94.25V141H95.8125V159.75Z" fill="black"/>
<path d="M108.312 147.25H103.625C103.211 147.25 102.813 147.415 102.52 147.708C102.227 148.001 102.062 148.398 102.062 148.812V161.312C102.062 161.727 102.227 162.124 102.52 162.417C102.813 162.71 103.211 162.875 103.625 162.875H108.312C108.727 162.875 109.124 162.71 109.417 162.417C109.71 162.124 109.875 161.727 109.875 161.312V148.812C109.875 148.398 109.71 148.001 109.417 147.708C109.124 147.415 108.727 147.25 108.312 147.25ZM106.75 159.75H105.188V150.375H106.75V159.75Z" fill="black"/>
<path d="M119.25 150.375H114.562C114.148 150.375 113.751 150.54 113.458 150.833C113.165 151.126 113 151.523 113 151.938V161.312C113 161.727 113.165 162.124 113.458 162.417C113.751 162.71 114.148 162.875 114.562 162.875H119.25C119.664 162.875 120.062 162.71 120.355 162.417C120.648 162.124 120.812 161.727 120.812 161.312V151.938C120.812 151.523 120.648 151.126 120.355 150.833C120.062 150.54 119.664 150.375 119.25 150.375ZM117.688 159.75H116.125V153.5H117.688V159.75Z" fill="black"/>
<path d="M177.062 87.875V81.625H173.938V86.3125H159.875V89.4375H175.5C175.914 89.4375 176.312 89.2729 176.605 88.9799C176.898 88.6868 177.062 88.2894 177.062 87.875Z" fill="black"/>
<path d="M166.125 75.375H184.875V78.5H166.125V75.375Z" fill="black"/>
<path d="M166.125 69.125H169.25V72.25H166.125V69.125Z" fill="black"/>
<path d="M172.375 69.125H184.875V72.25H172.375V69.125Z" fill="black"/>
<path d="M172.375 112.875H184.875V116H172.375V112.875Z" fill="black"/>
<path d="M172.375 100.375H184.875V103.5H172.375V100.375Z" fill="black"/>
<path d="M172.375 106.625H175.5V109.75H172.375V106.625Z" fill="black"/>
<path d="M178.625 106.625H184.875V109.75H178.625V106.625Z" fill="black"/>
<path d="M172.375 94.125H175.5V97.25H172.375V94.125Z" fill="black"/>
<path d="M178.625 94.125H184.875V97.25H178.625V94.125Z" fill="black"/>
<path d="M91.125 123.812H103.625V126.938H91.125V123.812Z" fill="black"/>
<path d="M91.125 111.312H103.625V114.438H91.125V111.312Z" fill="black"/>
<path d="M91.125 117.562H94.25V120.688H91.125V117.562Z" fill="black"/>
<path d="M97.375 117.562H103.625V120.688H97.375V117.562Z" fill="black"/>
<path d="M91.125 105.062H94.25V108.188H91.125V105.062Z" fill="black"/>
<path d="M97.375 105.062H103.625V108.188H97.375V105.062Z" fill="black"/>
<path d="M102.062 78.5H116.125V75.375H100.5C100.086 75.375 99.6882 75.5396 99.3951 75.8326C99.1021 76.1257 98.9375 76.5231 98.9375 76.9375V83.1875H102.062V78.5Z" fill="black"/>
<path d="M91.125 86.3125H109.875V89.4375H91.125V86.3125Z" fill="black"/>
<path d="M106.75 92.5625H109.875V95.6875H106.75V92.5625Z" fill="black"/>
<path d="M91.125 92.5625H103.625V95.6875H91.125V92.5625Z" fill="black"/>
<path d="M162.984 101.734C162.953 101.482 162.859 101.241 162.712 101.034C162.565 100.827 162.368 100.66 162.14 100.547L153.562 96.2501C152.984 81.5157 139.593 69.9845 139.015 69.5001C138.732 69.258 138.372 69.125 138 69.125C137.627 69.125 137.267 69.258 136.984 69.5001C136.406 69.9845 123.015 81.5157 122.437 96.2501L113.859 100.547C113.631 100.66 113.435 100.827 113.287 101.034C113.14 101.241 113.046 101.482 113.015 101.734L109.89 125.172C109.861 125.393 109.88 125.617 109.944 125.83C110.009 126.043 110.118 126.239 110.265 126.406C110.41 126.575 110.59 126.709 110.793 126.801C110.995 126.893 111.215 126.939 111.437 126.938H117.687C117.994 126.937 118.294 126.847 118.549 126.677C118.805 126.508 119.005 126.267 119.125 125.984L123.406 116H126.297C126.962 117.352 127.752 118.639 128.656 119.844C128.64 120.125 128.625 120.406 128.625 120.688C128.625 129.109 136.672 135.688 137.015 135.969C137.295 136.191 137.642 136.313 138 136.313C138.357 136.313 138.704 136.191 138.984 135.969C139.328 135.688 147.375 129.109 147.375 120.688C147.375 120.406 147.359 120.125 147.343 119.844C148.248 118.639 149.038 117.352 149.703 116H152.593L156.875 125.984C156.994 126.267 157.194 126.508 157.45 126.677C157.706 126.847 158.005 126.937 158.312 126.938H164.562C164.784 126.939 165.004 126.893 165.207 126.801C165.409 126.709 165.589 126.575 165.734 126.406C165.881 126.239 165.99 126.043 166.055 125.83C166.12 125.617 166.138 125.393 166.109 125.172L162.984 101.734ZM122.375 112.875C122.068 112.875 121.768 112.966 121.512 113.135C121.257 113.305 121.057 113.546 120.937 113.828L116.656 123.813H113.218L116 102.969L122.453 99.7345C122.637 104.216 123.49 108.645 124.984 112.875H122.375ZM138 132.641C136.015 130.75 131.75 126.031 131.75 120.688C131.75 113.328 135.047 108.188 138 108.188C140.953 108.188 144.25 113.328 144.25 120.688C144.25 126.031 139.984 130.75 138 132.641ZM146.734 114.922C145.375 109.094 142.031 105.063 138 105.063C133.968 105.063 130.625 109.094 129.265 114.922C126.669 109.399 125.381 103.352 125.5 97.2501C125.5 85.7345 134.859 75.8126 138 72.8126C141.14 75.797 150.5 85.7189 150.5 97.2501C150.618 103.352 149.33 109.399 146.734 114.922ZM159.343 123.813L155.062 113.828C154.943 113.546 154.742 113.305 154.487 113.135C154.231 112.966 153.931 112.875 153.625 112.875H151.015C152.509 108.645 153.362 104.216 153.547 99.7345L160 102.969L162.781 123.813H159.343Z" fill="black"/>
<path d="M138 95.6875C139.236 95.6875 140.445 95.3209 141.472 94.6342C142.5 93.9474 143.301 92.9713 143.774 91.8293C144.247 90.6872 144.371 89.4306 144.13 88.2182C143.889 87.0058 143.294 85.8922 142.419 85.0181C141.545 84.144 140.432 83.5488 139.219 83.3076C138.007 83.0664 136.75 83.1902 135.608 83.6633C134.466 84.1363 133.49 84.9374 132.803 85.9652C132.117 86.993 131.75 88.2014 131.75 89.4375C131.75 91.0951 132.408 92.6848 133.581 93.8569C134.753 95.029 136.342 95.6875 138 95.6875ZM138 86.3125C138.618 86.3125 139.222 86.4958 139.736 86.8392C140.25 87.1825 140.651 87.6706 140.887 88.2416C141.124 88.8126 141.186 89.441 141.065 90.0472C140.944 90.6534 140.647 91.2102 140.21 91.6472C139.773 92.0843 139.216 92.3819 138.61 92.5025C138.003 92.623 137.375 92.5612 136.804 92.3246C136.233 92.0881 135.745 91.6876 135.402 91.1737C135.058 90.6598 134.875 90.0556 134.875 89.4375C134.875 88.6087 135.204 87.8138 135.79 87.2278C136.376 86.6417 137.171 86.3125 138 86.3125Z" fill="black"/>
<path d="M136.438 111.312H139.562V114.438H136.438V111.312Z" fill="black"/>
<path d="M136.438 117.562H139.562V128.5H136.438V117.562Z" fill="black"/>
<path d="M183.5 141.156L179.75 140.687L182.078 137.703C182.312 137.402 182.427 137.025 182.401 136.645C182.375 136.265 182.21 135.907 181.937 135.641L177.734 131.438C177.467 131.167 177.109 131.003 176.73 130.977C176.35 130.951 175.974 131.065 175.672 131.297L172.688 133.625L172.219 129.875C172.169 129.496 171.983 129.147 171.695 128.895C171.408 128.642 171.039 128.502 170.656 128.5H164.719C164.336 128.502 163.967 128.642 163.68 128.895C163.392 129.147 163.206 129.496 163.156 129.875L162.687 133.625L159.703 131.297C159.401 131.065 159.025 130.951 158.645 130.977C158.266 131.003 157.908 131.167 157.641 131.438L153.438 135.641C153.165 135.907 153 136.265 152.974 136.645C152.948 137.025 153.063 137.402 153.297 137.703L155.625 140.687L151.875 141.156C151.496 141.206 151.147 141.392 150.895 141.68C150.642 141.967 150.502 142.336 150.5 142.719V148.656C150.502 149.039 150.642 149.408 150.895 149.695C151.147 149.983 151.496 150.169 151.875 150.219L155.625 150.688L153.297 153.672C153.063 153.973 152.948 154.35 152.974 154.73C153 155.11 153.165 155.468 153.438 155.734L157.641 159.937C157.908 160.208 158.266 160.372 158.645 160.398C159.025 160.424 159.401 160.31 159.703 160.078L162.687 157.75L163.156 161.5C163.206 161.879 163.392 162.228 163.68 162.48C163.967 162.733 164.336 162.873 164.719 162.875H170.656C171.039 162.873 171.408 162.733 171.695 162.48C171.983 162.228 172.169 161.879 172.219 161.5L172.688 157.75L175.672 160.078C175.974 160.31 176.35 160.424 176.73 160.398C177.109 160.372 177.467 160.208 177.734 159.937L181.937 155.734C182.21 155.468 182.375 155.11 182.401 154.73C182.427 154.35 182.312 153.973 182.078 153.672L179.75 150.688L183.5 150.219C183.879 150.169 184.228 149.983 184.48 149.695C184.733 149.408 184.873 149.039 184.875 148.656V142.719C184.873 142.336 184.733 141.967 184.48 141.68C184.228 141.392 183.879 141.206 183.5 141.156ZM181.75 147.281L178.047 147.75C177.756 147.784 177.48 147.901 177.253 148.086C177.026 148.272 176.857 148.518 176.766 148.797C176.625 149.172 176.469 149.547 176.297 149.906C176.166 150.168 176.112 150.461 176.143 150.752C176.173 151.042 176.286 151.318 176.469 151.547L178.766 154.5L176.5 156.766L173.547 154.469C173.318 154.286 173.042 154.173 172.752 154.143C172.461 154.112 172.168 154.166 171.906 154.297C171.539 154.472 171.164 154.628 170.781 154.766C170.506 154.86 170.263 155.031 170.081 155.258C169.899 155.484 169.784 155.758 169.75 156.047L169.281 159.75H166.094L165.625 156.047C165.591 155.758 165.476 155.484 165.294 155.258C165.112 155.031 164.869 154.86 164.594 154.766C164.211 154.628 163.836 154.472 163.469 154.297C163.207 154.166 162.914 154.112 162.623 154.143C162.333 154.173 162.057 154.286 161.828 154.469L158.875 156.766L156.609 154.5L158.906 151.547C159.089 151.318 159.202 151.042 159.232 150.752C159.263 150.461 159.209 150.168 159.078 149.906C158.906 149.547 158.75 149.172 158.609 148.797C158.518 148.518 158.349 148.272 158.122 148.086C157.895 147.901 157.619 147.784 157.328 147.75L153.625 147.281V144.094L157.328 143.625C157.619 143.591 157.895 143.474 158.122 143.289C158.349 143.103 158.518 142.857 158.609 142.578C158.75 142.203 158.906 141.828 159.078 141.469C159.209 141.207 159.263 140.914 159.232 140.623C159.202 140.333 159.089 140.057 158.906 139.828L156.609 136.875L158.875 134.609L161.828 136.906C162.057 137.089 162.333 137.202 162.623 137.232C162.914 137.263 163.207 137.209 163.469 137.078C163.828 136.906 164.203 136.75 164.578 136.609C164.857 136.518 165.103 136.349 165.289 136.122C165.474 135.895 165.591 135.619 165.625 135.328L166.094 131.625H169.281L169.75 135.328C169.784 135.619 169.901 135.895 170.086 136.122C170.272 136.349 170.518 136.518 170.797 136.609C171.172 136.75 171.547 136.906 171.906 137.078C172.168 137.209 172.461 137.263 172.752 137.232C173.042 137.202 173.318 137.089 173.547 136.906L176.5 134.609L178.766 136.875L176.469 139.828C176.286 140.057 176.173 140.333 176.143 140.623C176.112 140.914 176.166 141.207 176.297 141.469C176.469 141.828 176.625 142.203 176.766 142.578C176.857 142.857 177.026 143.103 177.253 143.289C177.48 143.474 177.756 143.591 178.047 143.625L181.75 144.094V147.281Z" fill="black"/>
<path d="M167.688 137.875C166.142 137.875 164.632 138.333 163.347 139.192C162.062 140.05 161.061 141.27 160.47 142.698C159.878 144.125 159.724 145.696 160.025 147.212C160.327 148.727 161.071 150.119 162.163 151.212C163.256 152.304 164.648 153.048 166.163 153.35C167.679 153.651 169.25 153.497 170.677 152.905C172.105 152.314 173.325 151.313 174.183 150.028C175.042 148.743 175.5 147.233 175.5 145.688C175.498 143.616 174.674 141.631 173.209 140.166C171.744 138.701 169.759 137.877 167.688 137.875ZM167.688 150.375C166.76 150.375 165.854 150.1 165.083 149.585C164.312 149.07 163.712 148.338 163.357 147.481C163.002 146.625 162.909 145.682 163.09 144.773C163.271 143.864 163.717 143.029 164.373 142.373C165.029 141.717 165.864 141.271 166.773 141.09C167.682 140.909 168.625 141.002 169.481 141.357C170.338 141.712 171.07 142.312 171.585 143.083C172.1 143.854 172.375 144.76 172.375 145.688C172.375 146.931 171.881 148.123 171.002 149.002C170.123 149.881 168.931 150.375 167.688 150.375Z" fill="black"/>
<defs>
<linearGradient id="paint0_linear" x1="130.403" y1="56.4985" x2="130.403" y2="191.168" gradientUnits="userSpaceOnUse">
<stop stop-color="#1DCDDB"/>
<stop offset="1" stop-color="#31B8FF"/>
</linearGradient>
</defs>
</svg>
