<svg width="250" height="250" viewBox="0 0 250 250" fill="none" xmlns="http://www.w3.org/2000/svg">
<path d="M152 174.75C95.6664 207.917 67.2497 190.833 66.7497 123.5C66.2497 56.1668 94.4164 39.5835 151.25 73.7502C208.083 107.917 208.333 141.583 152 174.75Z" fill="url(#paint0_linear)"/>
<g clip-path="url(#clip0)">
<path d="M132.092 167.043C156.469 167.043 176.23 147.281 176.23 122.904C176.23 98.5271 156.469 78.7656 132.092 78.7656C107.715 78.7656 87.9531 98.5271 87.9531 122.904C87.9531 147.281 107.715 167.043 132.092 167.043Z" fill="#FF7B79"/>
<path d="M132.091 154.543C149.565 154.543 163.73 140.378 163.73 122.904C163.73 105.43 149.565 91.2651 132.091 91.2651C114.617 91.2651 100.452 105.43 100.452 122.904C100.452 140.378 114.617 154.543 132.091 154.543Z" fill="white"/>
<path d="M132.092 142.044C142.662 142.044 151.232 133.475 151.232 122.904C151.232 112.334 142.662 103.765 132.092 103.765C121.521 103.765 112.952 112.334 112.952 122.904C112.952 133.475 121.521 142.044 132.092 142.044Z" fill="#FF7B79"/>
<path d="M132.091 129.544C135.759 129.544 138.732 126.571 138.732 122.904C138.732 119.237 135.759 116.264 132.091 116.264C128.424 116.264 125.451 119.237 125.451 122.904C125.451 126.571 128.424 129.544 132.091 129.544Z" fill="white"/>
<path d="M143.807 104.489L162.312 85.9839L169.013 92.6856L150.508 111.19L143.807 104.489Z" fill="#66E0F7"/>
<path d="M143.513 118.194L136.822 118.182L136.811 111.491L143.816 104.486L150.519 111.189L143.513 118.194Z" fill="#C193DC"/>
<path d="M176.497 94.1468L163.58 91.4239L174.612 80.3924C176.771 78.2331 180.272 78.2331 182.431 80.3924C184.591 82.5519 184.591 86.0529 182.431 88.2122L176.497 94.1468Z" fill="#CCF5FC"/>
<path d="M160.857 78.5074L163.58 91.424L174.612 80.3925C176.771 78.2332 176.771 74.732 174.612 72.5727C172.453 70.4133 168.951 70.4133 166.792 72.5727L160.857 78.5074Z" fill="#CCF5FC"/>
<path d="M176.094 96.0584C176.227 96.0867 176.362 96.1004 176.496 96.1004C177.009 96.1004 177.507 95.8984 177.877 95.5283L183.812 89.5937C186.729 86.6762 186.729 81.9292 183.812 79.0119C182.399 77.5987 180.52 76.8202 178.521 76.8202C178.406 76.8202 178.291 76.8228 178.176 76.8281C178.181 76.7136 178.184 76.5984 178.184 76.4829C178.184 74.4842 177.405 72.6054 175.992 71.192C173.075 68.2745 168.328 68.2745 165.41 71.192L159.475 77.1267C159.009 77.5936 158.809 78.2647 158.945 78.9106L160.283 85.256L159.61 85.9292C151.698 80.0402 141.993 76.8126 132.092 76.8126C119.78 76.8126 108.205 81.6069 99.5 90.3126C90.7943 99.018 86 110.593 86 122.904C86 135.216 90.7943 146.79 99.5 155.496C108.205 164.201 119.78 168.996 132.092 168.996C144.403 168.996 155.978 164.201 164.683 155.496C173.389 146.79 178.183 135.216 178.183 122.904C178.183 113.005 174.959 103.306 169.074 95.395L169.748 94.7208L176.094 96.0584ZM150.518 108.427L146.578 104.486L161.245 89.8183L161.669 91.8272C161.828 92.5843 162.42 93.1757 163.177 93.3353L165.186 93.7587L150.518 108.427ZM149.278 122.904C149.278 132.381 141.568 140.091 132.092 140.091C122.615 140.091 114.905 132.381 114.905 122.904C114.905 113.428 122.615 105.718 132.092 105.718C134.321 105.718 136.517 106.151 138.56 106.98L135.429 110.11C135.062 110.477 134.856 110.975 134.857 111.495L134.863 114.772C133.993 114.475 133.061 114.311 132.092 114.311C127.353 114.311 123.498 118.166 123.498 122.904C123.498 127.643 127.353 131.498 132.092 131.498C136.83 131.498 140.685 127.643 140.685 122.904C140.685 121.938 140.522 121.009 140.227 120.141L143.51 120.147H143.513C144.031 120.147 144.528 119.941 144.894 119.575L148.021 116.448C148.847 118.487 149.278 120.68 149.278 122.904ZM142.706 116.239L138.772 116.233L138.765 112.299L143.815 107.248L147.756 111.189L142.706 116.239ZM136.779 122.904C136.779 125.489 134.676 127.591 132.092 127.591C129.507 127.591 127.404 125.489 127.404 122.904C127.404 120.32 129.507 118.217 132.092 118.217C132.668 118.217 133.219 118.322 133.729 118.513L131.48 120.763C130.717 121.525 130.717 122.762 131.48 123.524C131.861 123.906 132.361 124.097 132.861 124.097C133.361 124.097 133.86 123.906 134.242 123.524L136.488 121.278C136.676 121.785 136.779 122.333 136.779 122.904ZM178.521 80.7263C179.476 80.7263 180.374 81.0984 181.05 81.7737C182.444 83.1682 182.444 85.437 181.05 86.8313L175.864 92.0176L167.509 90.2565L175.991 81.7745C175.991 81.7741 175.992 81.7739 175.992 81.7735C176.668 81.0984 177.566 80.7263 178.521 80.7263ZM168.173 73.9542C169.567 72.5595 171.836 72.5597 173.23 73.9542C173.906 74.6295 174.278 75.5277 174.278 76.4829C174.278 77.4382 173.906 78.3364 173.23 79.0117C173.23 79.0121 173.23 79.0123 173.229 79.0127L164.747 87.4945L162.986 79.1402L168.173 73.9542ZM174.277 122.904C174.277 146.165 155.353 165.09 132.092 165.09C108.83 165.09 89.9061 146.165 89.9061 122.904C89.9061 99.643 108.83 80.7187 132.092 80.7187C141.1 80.7187 149.603 83.4799 156.818 88.7216L150.643 94.8963C145.139 91.2387 138.76 89.312 132.092 89.312C113.569 89.312 98.4994 104.381 98.4994 122.904C98.4994 128.611 99.957 134.249 102.714 139.207C103.071 139.85 103.737 140.212 104.423 140.212C104.744 140.212 105.07 140.132 105.37 139.965C106.313 139.441 106.652 138.252 106.128 137.309C103.693 132.93 102.405 127.949 102.405 122.904C102.405 106.535 115.722 93.2181 132.092 93.2181C137.717 93.2181 143.11 94.7692 147.818 97.7212L141.51 104.029C138.599 102.575 135.373 101.811 132.092 101.811C120.461 101.811 110.999 111.274 110.999 122.904C110.999 134.535 120.461 143.997 132.092 143.997C143.722 143.997 153.184 134.535 153.184 122.904C153.184 119.628 152.423 116.404 150.973 113.496L157.282 107.188C160.23 111.893 161.778 117.281 161.778 122.904C161.778 139.273 148.461 152.59 132.092 152.59C127.046 152.59 122.063 151.302 117.683 148.865C116.74 148.341 115.551 148.68 115.026 149.623C114.502 150.565 114.841 151.754 115.784 152.279C120.743 155.038 126.383 156.496 132.092 156.496C150.614 156.496 165.684 141.427 165.684 122.904C165.684 116.239 163.76 109.864 160.106 104.363L166.279 98.1899C171.45 105.343 174.277 114.035 174.277 122.904Z" fill="black"/>
<path d="M109.72 143.323C109.204 143.323 108.702 143.532 108.339 143.896C107.976 144.259 107.767 144.763 107.767 145.276C107.767 145.792 107.976 146.294 108.339 146.657C108.702 147.021 109.204 147.229 109.72 147.229C110.233 147.229 110.737 147.021 111.101 146.657C111.464 146.294 111.673 145.79 111.673 145.276C111.673 144.763 111.464 144.259 111.101 143.896C110.737 143.532 110.233 143.323 109.72 143.323Z" fill="black"/>
</g>
<defs>
<linearGradient id="paint0_linear" x1="130.403" y1="56.4985" x2="130.403" y2="191.168" gradientUnits="userSpaceOnUse">
<stop stop-color="#1DCDDB"/>
<stop offset="1" stop-color="#31B8FF"/>
</linearGradient>
<clipPath id="clip0">
<rect width="100" height="100" fill="white" transform="translate(86 69)"/>
</clipPath>
</defs>
</svg>
