<svg width="250" height="250" viewBox="0 0 250 250" fill="none" xmlns="http://www.w3.org/2000/svg">
<path d="M152 174.75C95.6669 207.917 67.2502 190.833 66.7502 123.5C66.2502 56.1668 94.4169 39.5835 151.25 73.7502C208.084 107.917 208.334 141.583 152 174.75Z" fill="url(#paint0_linear)"/>
<path d="M181.254 108.521H96.8789C95.153 108.521 93.7539 109.92 93.7539 111.646V158.521C93.7539 160.247 95.153 161.646 96.8789 161.646H181.254C182.98 161.646 184.379 160.247 184.379 158.521V111.646C184.379 109.92 182.98 108.521 181.254 108.521Z" fill="#898890"/>
<path d="M184.379 111.646V158.521C184.376 159.349 184.046 160.142 183.461 160.728C182.875 161.313 182.082 161.644 181.254 161.646H173.441C174.269 161.644 175.063 161.313 175.648 160.728C176.234 160.142 176.564 159.349 176.566 158.521V111.646C176.564 110.818 176.234 110.025 175.648 109.439C175.063 108.854 174.269 108.523 173.441 108.521H181.254C182.082 108.523 182.875 108.854 183.461 109.439C184.046 110.025 184.376 110.818 184.379 111.646Z" fill="#787680"/>
<path d="M165.629 71.021H184.379V96.021H165.629V71.021Z" fill="#FEE9AB"/>
<path d="M178.129 71.021H184.379V96.021H178.129V71.021Z" fill="#FFDE55"/>
<path d="M100.004 114.771H178.129V155.396H100.004V114.771Z" fill="#46F8FF"/>
<path d="M171.879 114.771H178.129V155.396H171.879V114.771Z" fill="#00E7F0"/>
<path d="M160.941 108.521C160.939 110.636 160.639 112.74 160.051 114.771C158.706 119.521 155.861 123.709 151.941 126.709C150.835 127.573 149.943 128.681 149.336 129.947C148.729 131.213 148.423 132.602 148.441 134.006V136.646H129.691V134.006C129.701 132.585 129.382 131.181 128.759 129.904C128.135 128.627 127.224 127.512 126.098 126.646C122.223 123.649 119.413 119.486 118.082 114.771C116.668 109.918 116.944 104.729 118.863 100.052C120.821 95.3924 124.331 91.5535 128.798 89.1871C133.264 86.8208 138.412 86.0728 143.367 87.0701C148.323 88.0674 152.78 90.7486 155.984 94.6586C159.187 98.5686 160.939 103.467 160.941 108.521Z" fill="#FFD422"/>
<path d="M160.941 108.521C160.939 110.636 160.639 112.74 160.051 114.771C158.706 119.521 155.862 123.709 151.941 126.709C150.835 127.573 149.943 128.681 149.336 129.947C148.729 131.213 148.423 132.602 148.441 134.006V136.646H142.191V134.006C142.173 132.602 142.479 131.213 143.086 129.947C143.693 128.681 144.585 127.573 145.691 126.709C149.612 123.709 152.456 119.521 153.801 114.771C154.389 112.74 154.689 110.636 154.691 108.521C154.693 103.26 152.798 98.1747 149.354 94.1972C145.91 90.2197 141.149 87.6166 135.941 86.865C139.046 86.419 142.21 86.6454 145.22 87.5291C148.23 88.4127 151.014 89.9328 153.385 91.9865C155.756 94.0402 157.657 96.5794 158.961 99.4322C160.265 102.285 160.94 105.385 160.941 108.521Z" fill="#EBBF00"/>
<path d="M151.16 102.911C152.218 103.418 153.111 104.214 153.736 105.206C154.361 106.199 154.692 107.348 154.692 108.521C154.692 109.694 154.361 110.843 153.736 111.835C153.111 112.828 152.218 113.623 151.16 114.13C151.431 114.833 151.569 115.58 151.567 116.333C151.567 117.991 150.908 119.581 149.736 120.753C148.564 121.925 146.974 122.583 145.317 122.583C143.659 122.583 142.069 121.925 140.897 120.753C139.725 119.581 139.067 117.991 139.067 116.333V100.708C139.062 100.181 139.13 99.6547 139.27 99.1457C139.654 97.677 140.559 96.3982 141.817 95.548C143.074 94.6979 144.599 94.3346 146.104 94.5259C147.61 94.7173 148.995 95.4502 150 96.5879C151.006 97.7256 151.562 99.1902 151.567 100.708C151.569 101.461 151.431 102.209 151.16 102.911Z" fill="#FFEB99"/>
<path d="M151.16 114.131C151.431 114.833 151.569 115.58 151.566 116.334C151.568 117.431 151.28 118.51 150.732 119.461C150.184 120.412 149.394 121.201 148.443 121.75C147.492 122.298 146.414 122.586 145.316 122.584C144.218 122.582 143.141 122.291 142.191 121.74C143.143 121.194 143.933 120.407 144.482 119.457C145.03 118.508 145.318 117.43 145.316 116.334C145.319 115.58 145.181 114.833 144.91 114.131C145.968 113.624 146.861 112.828 147.486 111.836C148.111 110.843 148.442 109.694 148.442 108.521C148.442 107.348 148.111 106.199 147.486 105.207C146.861 104.214 145.968 103.419 144.91 102.912C145.181 102.209 145.319 101.462 145.316 100.709C145.317 99.6104 145.027 98.5315 144.476 97.5818C143.924 96.6321 143.13 95.8457 142.176 95.3024C143.126 94.7503 144.205 94.4583 145.304 94.4561C146.402 94.4538 147.482 94.7413 148.435 95.2895C149.387 95.8378 150.178 96.6274 150.728 97.5789C151.278 98.5303 151.567 99.6098 151.566 100.709C151.569 101.462 151.431 102.209 151.16 102.912C152.218 103.419 153.111 104.214 153.736 105.207C154.361 106.199 154.692 107.348 154.692 108.521C154.692 109.694 154.361 110.843 153.736 111.836C153.111 112.828 152.218 113.624 151.16 114.131Z" fill="#FFDE55"/>
<path d="M148.441 136.646C149.269 136.648 150.063 136.979 150.648 137.564C151.234 138.15 151.564 138.943 151.566 139.771C151.56 140.598 151.229 141.389 150.644 141.974C150.06 142.559 149.268 142.89 148.441 142.896H129.691C128.863 142.894 128.07 142.563 127.484 141.978C126.899 141.392 126.569 140.599 126.566 139.771C126.573 138.944 126.904 138.153 127.488 137.568C128.073 136.983 128.864 136.652 129.691 136.646H148.441Z" fill="#C0AB91"/>
<path d="M129.691 142.896H148.441C148.442 143.717 148.281 144.53 147.968 145.289C147.654 146.048 147.194 146.737 146.613 147.318C146.033 147.898 145.343 148.359 144.584 148.672C143.826 148.986 143.012 149.147 142.191 149.146H135.941C134.284 149.146 132.694 148.488 131.522 147.315C130.35 146.143 129.691 144.554 129.691 142.896Z" fill="#A78966"/>
<path d="M151.566 139.771C151.56 140.598 151.229 141.389 150.644 141.974C150.06 142.559 149.268 142.89 148.441 142.896H142.191C143.018 142.89 143.81 142.559 144.394 141.974C144.979 141.389 145.31 140.598 145.316 139.771C145.314 138.943 144.984 138.15 144.398 137.564C143.813 136.979 143.019 136.648 142.191 136.646H148.441C149.269 136.648 150.063 136.979 150.648 137.564C151.234 138.15 151.564 138.943 151.566 139.771Z" fill="#A78966"/>
<path d="M148.441 142.896C148.442 143.717 148.281 144.53 147.968 145.289C147.654 146.048 147.194 146.737 146.613 147.318C146.033 147.898 145.343 148.359 144.584 148.672C143.826 148.986 143.012 149.147 142.191 149.146H135.941C136.762 149.147 137.576 148.986 138.334 148.672C139.093 148.359 139.783 147.898 140.363 147.318C140.944 146.737 141.404 146.048 141.718 145.289C142.031 144.53 142.192 143.717 142.191 142.896H148.441Z" fill="#957856"/>
<path d="M126.973 114.13C125.915 113.623 125.022 112.828 124.397 111.835C123.773 110.843 123.441 109.694 123.441 108.521C123.441 107.348 123.773 106.199 124.397 105.206C125.022 104.214 125.915 103.418 126.973 102.911C126.702 102.209 126.564 101.461 126.567 100.708C126.571 99.1902 127.128 97.7256 128.133 96.5879C129.138 95.4502 130.523 94.7173 132.029 94.5259C133.535 94.3346 135.059 94.6979 136.317 95.548C137.574 96.3982 138.48 97.677 138.864 99.1457C139.003 99.6547 139.071 100.181 139.067 100.708V116.333C139.067 117.991 138.408 119.581 137.236 120.753C136.064 121.925 134.474 122.583 132.817 122.583C131.159 122.583 129.569 121.925 128.397 120.753C127.225 119.581 126.567 117.991 126.567 116.333C126.564 115.58 126.702 114.833 126.973 114.13Z" fill="#FFEB99"/>
<path d="M93.7539 71.021H115.629V92.896H93.7539V71.021Z" fill="#BDFDFF"/>
<path d="M110.941 71.021H115.629V92.896H110.941V71.021Z" fill="#00E7F0"/>
<path d="M109.379 81.9585L100.004 86.646V77.271L109.379 81.9585Z" fill="#FF3051"/>
<path d="M181.254 106.958H162.426C162.074 101.69 159.954 96.6956 156.409 92.7832C152.864 88.8708 148.101 86.2699 142.894 85.4019C137.686 84.534 132.337 85.4498 127.715 88.001C123.093 90.5522 119.467 94.5893 117.426 99.4583C116.448 101.849 115.862 104.381 115.691 106.958H96.8789C95.6368 106.962 94.4467 107.457 93.5684 108.335C92.6902 109.214 92.1951 110.404 92.1914 111.646V158.521C92.1951 159.763 92.6902 160.953 93.5684 161.831C94.4467 162.71 95.6368 163.205 96.8789 163.208H181.254C182.496 163.205 183.686 162.71 184.564 161.831C185.443 160.953 185.938 159.763 185.941 158.521V111.646C185.938 110.404 185.443 109.214 184.564 108.335C183.686 107.457 182.496 106.962 181.254 106.958ZM120.316 100.646C121.635 97.464 123.748 94.674 126.454 92.5428C129.16 90.4116 132.367 89.0106 135.77 88.4739C138.677 87.9995 141.652 88.1624 144.49 88.9512C147.328 89.74 149.961 91.1359 152.206 93.0424C154.451 94.9489 156.256 97.3205 157.494 99.993C158.733 102.666 159.376 105.575 159.379 108.521C159.362 111.795 158.599 115.022 157.148 117.957C155.697 120.892 153.595 123.457 151.004 125.458C149.705 126.469 148.657 127.767 147.941 129.249C147.226 130.732 146.862 132.359 146.879 134.005V135.083H131.254V134.005C131.258 132.344 130.882 130.705 130.153 129.212C129.424 127.719 128.363 126.414 127.051 125.396C123.402 122.554 120.774 118.605 119.559 114.143C118.345 109.68 118.611 104.945 120.316 100.646ZM129.691 141.333C129.277 141.333 128.88 141.169 128.587 140.876C128.294 140.583 128.129 140.185 128.129 139.771C128.129 139.356 128.294 138.959 128.587 138.666C128.88 138.373 129.277 138.208 129.691 138.208H148.441C148.856 138.208 149.253 138.373 149.546 138.666C149.839 138.959 150.004 139.356 150.004 139.771C150.004 140.185 149.839 140.583 149.546 140.876C149.253 141.169 148.856 141.333 148.441 141.333H129.691ZM146.613 144.458C146.287 145.371 145.688 146.161 144.896 146.72C144.105 147.279 143.16 147.581 142.191 147.583H135.941C134.972 147.581 134.028 147.279 133.236 146.72C132.445 146.161 131.846 145.371 131.52 144.458H146.613ZM125.16 127.88C126.09 128.606 126.842 129.536 127.356 130.598C127.871 131.659 128.135 132.825 128.129 134.005V135.365C127.204 135.687 126.404 136.292 125.843 137.095C125.282 137.898 124.988 138.858 125.004 139.837C125.019 140.817 125.343 141.766 125.93 142.551C126.516 143.336 127.335 143.916 128.27 144.208C128.575 146.023 129.513 147.672 130.917 148.861C132.321 150.051 134.101 150.705 135.941 150.708H142.191C144.032 150.705 145.812 150.051 147.216 148.861C148.62 147.672 149.558 146.023 149.863 144.208C150.798 143.916 151.617 143.336 152.203 142.551C152.79 141.766 153.113 140.817 153.129 139.837C153.145 138.858 152.851 137.898 152.29 137.095C151.729 136.292 150.929 135.687 150.004 135.365V134.005C149.986 132.844 150.236 131.694 150.735 130.646C151.233 129.597 151.967 128.677 152.879 127.958C156.759 125.01 159.656 120.958 161.191 116.333H176.566V153.833H101.566V116.333H116.895C118.43 120.924 121.31 124.947 125.16 127.88ZM182.816 158.521C182.816 158.935 182.652 159.333 182.359 159.626C182.066 159.919 181.668 160.083 181.254 160.083H96.8789C96.4645 160.083 96.0671 159.919 95.7741 159.626C95.481 159.333 95.3164 158.935 95.3164 158.521V111.646C95.3164 111.231 95.481 110.834 95.7741 110.541C96.0671 110.248 96.4645 110.083 96.8789 110.083H115.691C115.746 111.132 115.871 112.176 116.066 113.208H100.004C99.5895 113.208 99.1921 113.373 98.8991 113.666C98.606 113.959 98.4414 114.356 98.4414 114.771V155.396C98.4414 155.81 98.606 156.208 98.8991 156.501C99.1921 156.794 99.5895 156.958 100.004 156.958H178.129C178.543 156.958 178.941 156.794 179.234 156.501C179.527 156.208 179.691 155.81 179.691 155.396V114.771C179.691 114.356 179.527 113.959 179.234 113.666C178.941 113.373 178.543 113.208 178.129 113.208H162.02C162.213 112.176 162.344 111.132 162.41 110.083H181.254C181.668 110.083 182.066 110.248 182.359 110.541C182.652 110.834 182.816 111.231 182.816 111.646V158.521Z" fill="black"/>
<path d="M156.254 108.521C156.249 107.283 155.951 106.064 155.383 104.964C154.815 103.863 153.995 102.914 152.988 102.193C153.328 100.456 153.067 98.655 152.248 97.0862C151.429 95.5173 150.1 94.2737 148.481 93.5595C146.862 92.8452 145.048 92.7029 143.337 93.1559C141.626 93.6088 140.12 94.6301 139.067 96.052C138.089 94.7326 136.721 93.7554 135.156 93.2596C133.591 92.7637 131.909 92.7746 130.35 93.2907C128.792 93.8068 127.436 94.8017 126.476 96.1336C125.516 97.4655 125.001 99.0665 125.004 100.708C125.001 101.207 125.054 101.705 125.16 102.193C124.148 102.908 123.321 103.855 122.75 104.955C122.179 106.056 121.88 107.277 121.879 108.517C121.877 109.756 122.173 110.978 122.741 112.08C123.31 113.182 124.134 114.131 125.145 114.849C124.804 116.586 125.064 118.388 125.884 119.958C126.704 121.527 128.033 122.771 129.654 123.484C131.275 124.197 133.09 124.337 134.801 123.881C136.512 123.425 138.016 122.399 139.067 120.974C140.04 122.297 141.408 123.279 142.973 123.778C144.538 124.277 146.221 124.269 147.781 123.754C149.341 123.239 150.699 122.244 151.659 120.911C152.62 119.579 153.134 117.976 153.129 116.333C153.132 115.834 153.08 115.336 152.973 114.849C153.985 114.132 154.811 113.184 155.381 112.083C155.952 110.982 156.251 109.761 156.254 108.521ZM137.504 116.333C137.504 117.576 137.01 118.769 136.131 119.648C135.252 120.527 134.06 121.021 132.817 121.021C131.573 121.021 130.381 120.527 129.502 119.648C128.623 118.769 128.129 117.576 128.129 116.333C128.129 116.271 128.145 116.224 128.145 116.177C128.654 116.277 129.172 116.329 129.692 116.333C131.063 116.331 132.409 115.97 133.598 115.286L132.035 112.568C131.376 112.96 130.627 113.18 129.86 113.208C129.093 113.235 128.331 113.069 127.645 112.724C126.851 112.342 126.182 111.742 125.714 110.995C125.247 110.248 125 109.384 125.004 108.503C125.007 107.622 125.26 106.76 125.733 106.016C126.206 105.273 126.879 104.678 127.676 104.302C128.36 103.968 129.117 103.809 129.877 103.839C130.638 103.869 131.38 104.087 132.035 104.474L133.598 101.755C131.943 100.823 130.009 100.512 128.145 100.88C128.145 100.818 128.129 100.771 128.129 100.708C128.129 99.5644 128.547 98.4599 129.304 97.6028C130.062 96.7458 131.107 96.1953 132.242 96.0551C133.377 95.9148 134.525 96.1945 135.468 96.8415C136.411 97.4885 137.085 98.4581 137.363 99.5676C137.461 99.9398 137.508 100.323 137.504 100.708V116.333ZM150.457 112.74C149.773 113.074 149.017 113.233 148.256 113.203C147.495 113.173 146.754 112.955 146.098 112.568L144.535 115.286C145.724 115.97 147.071 116.331 148.442 116.333C148.961 116.329 149.479 116.277 149.988 116.177C149.988 116.224 150.004 116.271 150.004 116.333C150.004 117.576 149.51 118.769 148.631 119.648C147.752 120.527 146.56 121.021 145.317 121.021C144.073 121.021 142.881 120.527 142.002 119.648C141.123 118.769 140.629 117.576 140.629 116.333V100.708C140.624 100.312 140.677 99.9174 140.785 99.5364C141.076 98.4382 141.756 97.483 142.698 96.8484C143.64 96.2138 144.781 95.9429 145.908 96.0862C147.035 96.2294 148.071 96.7771 148.825 97.6272C149.578 98.4774 149.997 99.5723 150.004 100.708C150.004 100.771 149.988 100.818 149.988 100.88C148.125 100.504 146.188 100.815 144.535 101.755L146.098 104.474C146.758 104.081 147.506 103.861 148.273 103.834C149.041 103.806 149.802 103.973 150.488 104.318C151.282 104.7 151.952 105.299 152.419 106.046C152.886 106.793 153.133 107.657 153.13 108.538C153.126 109.42 152.874 110.282 152.401 111.025C151.928 111.769 151.254 112.363 150.457 112.74Z" fill="black"/>
<path d="M93.7539 94.4585H115.629C116.043 94.4585 116.441 94.2939 116.734 94.0009C117.027 93.7078 117.191 93.3104 117.191 92.896V71.021C117.191 70.6066 117.027 70.2092 116.734 69.9161C116.441 69.6231 116.043 69.4585 115.629 69.4585H93.7539C93.3395 69.4585 92.9421 69.6231 92.6491 69.9161C92.356 70.2092 92.1914 70.6066 92.1914 71.021V92.896C92.1914 93.3104 92.356 93.7078 92.6491 94.0009C92.9421 94.2939 93.3395 94.4585 93.7539 94.4585ZM95.3164 72.5835H114.066V91.3335H95.3164V72.5835Z" fill="black"/>
<path d="M184.379 69.4585H165.629C165.215 69.4585 164.817 69.6231 164.524 69.9161C164.231 70.2092 164.066 70.6066 164.066 71.021V96.021C164.066 96.4354 164.231 96.8328 164.524 97.1258C164.817 97.4189 165.215 97.5835 165.629 97.5835H184.379C184.793 97.5835 185.191 97.4189 185.484 97.1258C185.777 96.8328 185.941 96.4354 185.941 96.021V71.021C185.941 70.6066 185.777 70.2092 185.484 69.9161C185.191 69.6231 184.793 69.4585 184.379 69.4585ZM182.816 94.4585H167.191V72.5835H182.816V94.4585Z" fill="black"/>
<path d="M110.077 80.5598L100.702 75.8723C100.464 75.7532 100.199 75.6971 99.9332 75.7091C99.6671 75.7212 99.4085 75.801 99.182 75.9412C98.9554 76.0813 98.7685 76.277 98.6389 76.5097C98.5093 76.7424 98.4413 77.0044 98.4414 77.2707V86.6457C98.4413 86.9121 98.5093 87.1741 98.6389 87.4068C98.7685 87.6395 98.9554 87.8352 99.182 87.9753C99.4085 88.1154 99.6671 88.1953 99.9332 88.2074C100.199 88.2194 100.464 88.1633 100.702 88.0442L110.077 83.3567C110.337 83.2271 110.556 83.0276 110.709 82.7806C110.862 82.5335 110.943 82.2488 110.943 81.9582C110.943 81.6677 110.862 81.383 110.709 81.1359C110.556 80.8889 110.337 80.6894 110.077 80.5598ZM101.566 84.1176V79.7989L105.885 81.9582L101.566 84.1176Z" fill="black"/>
<path d="M170.316 81.9585H179.691V85.0835H170.316V81.9585Z" fill="black"/>
<path d="M170.316 75.7085H179.691V78.8335H170.316V75.7085Z" fill="black"/>
<path d="M170.316 88.2085H179.691V91.3335H170.316V88.2085Z" fill="black"/>
<path d="M173.441 149.146V142.896H170.316V147.583H165.629V150.708H171.879C172.293 150.708 172.691 150.544 172.984 150.251C173.277 149.958 173.441 149.56 173.441 149.146Z" fill="black"/>
<path d="M106.254 150.708H112.504V147.583H107.816V142.896H104.691V149.146C104.691 149.56 104.856 149.958 105.149 150.251C105.442 150.544 105.84 150.708 106.254 150.708Z" fill="black"/>
<path d="M170.316 127.271H173.441V121.021C173.441 120.607 173.277 120.209 172.984 119.916C172.691 119.623 172.293 119.458 171.879 119.458H165.629V122.583H170.316V127.271Z" fill="black"/>
<path d="M107.816 122.583H112.504V119.458H106.254C105.84 119.458 105.442 119.623 105.149 119.916C104.856 120.209 104.691 120.607 104.691 121.021V127.271H107.816V122.583Z" fill="black"/>
<path d="M137.504 72.5835H140.629V78.8335H137.504V72.5835Z" fill="white"/>
<path d="M119.742 78.1758L122.448 76.6133L125.574 82.0271L122.868 83.5896L119.742 78.1758Z" fill="white"/>
<path d="M152.56 82.0342L155.686 76.6203L158.392 78.1828L155.266 83.5967L152.56 82.0342Z" fill="white"/>
<defs>
<linearGradient id="paint0_linear" x1="130.404" y1="56.4985" x2="130.404" y2="191.168" gradientUnits="userSpaceOnUse">
<stop stop-color="#1DCDDB"/>
<stop offset="1" stop-color="#31B8FF"/>
</linearGradient>
</defs>
</svg>
