<svg width="150" height="150" viewBox="0 0 150 150" fill="none" xmlns="http://www.w3.org/2000/svg">
<path d="M129.955 74.7715V82.248C129.955 85.2224 128.774 88.0749 126.67 90.1781C124.567 92.2813 121.715 93.4629 118.74 93.4629C115.766 93.4629 112.913 92.2813 110.81 90.1781C108.707 88.0749 107.525 85.2224 107.525 82.248V74.7715C107.525 71.7971 108.707 68.9446 110.81 66.8414C112.913 64.7382 115.766 63.5566 118.74 63.5566C121.715 63.5566 124.567 64.7382 126.67 66.8414C128.774 68.9446 129.955 71.7971 129.955 74.7715Z" fill="#FFD8B7"/>
<path d="M87.3369 68.9238V77.1475C87.3369 80.4194 86.0372 83.5574 83.7235 85.871C81.4099 88.1846 78.272 89.4844 75 89.4844C71.7281 89.4844 68.5901 88.1846 66.2765 85.871C63.9629 83.5574 62.6631 80.4194 62.6631 77.1475V68.9238C62.6631 65.6519 63.9629 62.5139 66.2765 60.2003C68.5901 57.8867 71.7281 56.5869 75 56.5869C78.272 56.5869 81.4099 57.8867 83.7235 60.2003C86.0372 62.5139 87.3369 65.6519 87.3369 68.9238Z" fill="#FFD8B7"/>
<path d="M42.4746 74.7715V82.248C42.4746 85.2224 41.2931 88.0749 39.1899 90.1781C37.0867 92.2813 34.2341 93.4629 31.2598 93.4629C28.2854 93.4629 25.4329 92.2813 23.3297 90.1781C21.2265 88.0749 20.0449 85.2224 20.0449 82.248V74.7715C20.0449 71.7971 21.2265 68.9446 23.3297 66.8414C25.4329 64.7382 28.2854 63.5566 31.2598 63.5566C34.2341 63.5566 37.0867 64.7382 39.1899 66.8414C41.2931 68.9446 42.4746 71.7971 42.4746 74.7715Z" fill="#FFD8B7"/>
<path d="M46.2129 99.6035C47.1385 99.6027 48.0616 99.6999 48.9668 99.8936V99.8965C47.4525 101.245 46.2411 102.899 45.4124 104.75C44.5837 106.601 44.1566 108.606 44.1592 110.634V133.251H3.22266V112.688C3.22312 109.218 4.60176 105.89 7.05538 103.436C9.509 100.983 12.8367 99.604 16.3066 99.6035H21.1025C21.5431 99.6036 21.9793 99.5169 22.3863 99.3483C22.7934 99.1798 23.1632 98.9327 23.4747 98.6212C23.7862 98.3097 24.0333 97.9398 24.2018 97.5328C24.3704 97.1258 24.4571 96.6896 24.457 96.249L24.498 96.208L26.2969 101.423C26.6524 102.456 27.32 103.354 28.2075 103.991C29.0951 104.629 30.1588 104.975 31.2516 104.982C32.3444 104.989 33.4125 104.657 34.3082 104.031C35.2039 103.405 35.8831 102.516 36.252 101.487L38.1328 96.249C38.1333 97.1269 38.4777 97.9697 39.0921 98.5968C39.7066 99.2238 40.5422 99.5852 41.4199 99.6035H46.2129Z" fill="#E04A5D"/>
<path d="M101.147 99.8701C102.016 99.6918 102.9 99.6025 103.787 99.6035H108.58C109.021 99.6038 109.457 99.5173 109.864 99.3488C110.271 99.1803 110.641 98.9332 110.953 98.6217C111.264 98.3101 111.511 97.9402 111.68 97.5331C111.848 97.126 111.935 96.6896 111.935 96.249L111.979 96.208L113.774 101.423C114.13 102.456 114.798 103.354 115.686 103.991C116.574 104.629 117.638 104.975 118.731 104.982C119.824 104.989 120.892 104.657 121.788 104.031C122.684 103.405 123.363 102.516 123.732 101.487L125.61 96.249C125.611 97.1269 125.955 97.9697 126.57 98.5968C127.184 99.2238 128.02 99.5852 128.897 99.6035H133.693C137.163 99.604 140.491 100.983 142.945 103.436C145.398 105.89 146.777 109.218 146.777 112.688V133.251H105.841V110.634C105.843 108.617 105.421 106.623 104.602 104.781C103.783 102.939 102.585 101.289 101.086 99.9404L101.147 99.8701Z" fill="#F0B640"/>
<path d="M86.25 96.24H91.4502C93.3404 96.2395 95.2121 96.6115 96.9585 97.3348C98.7048 98.058 100.292 99.1182 101.628 100.455C102.964 101.792 104.024 103.379 104.747 105.125C105.47 106.872 105.842 108.743 105.841 110.634V133.251H44.1592V110.634C44.159 106.817 45.675 103.156 48.3737 100.457C51.0725 97.7574 54.7329 96.2406 58.5498 96.24H63.8262C64.8047 96.2392 65.7429 95.85 66.4345 95.1578C67.1261 94.4656 67.5147 93.5271 67.5147 92.5486L67.5615 92.5017L69.5391 98.241C69.9308 99.3775 70.6657 100.365 71.6423 101.066C72.6189 101.767 73.789 102.147 74.9912 102.155C76.1934 102.163 77.3683 101.797 78.3539 101.109C79.3394 100.42 80.0869 99.4427 80.4932 98.3113L82.5586 92.5486C82.5586 93.5276 82.9475 94.4665 83.6398 95.1588C84.3321 95.8511 85.271 96.24 86.25 96.24Z" fill="#3090FC"/>
<path d="M133.474 35.3323L126.563 42.0354L128.168 51.5276L119.657 47.0276L111.126 51.4866L112.775 42.0032L105.899 35.2678L115.43 33.9055L119.71 25.2834L123.949 33.926L133.474 35.3323Z" fill="url(#paint0_linear)"/>
<path d="M90.3897 28.0576L82.6172 35.5957L84.4219 46.2744L74.8477 41.2119L65.25 46.2275L67.1074 35.5605L59.3701 27.9814L70.0898 26.4492L74.9062 16.749L79.6758 26.4727L90.3897 28.0576Z" fill="url(#paint1_linear)"/>
<path d="M43.8604 35.3323L36.9521 42.0354L38.5547 51.5276L30.0439 47.0276L21.5127 51.4866L23.165 42.0032L16.2861 35.2678L25.8164 33.9055L30.0967 25.2834L34.3359 33.926L43.8604 35.3323Z" fill="url(#paint2_linear)"/>
<path d="M25.0957 99.6035H25.6693L24.4975 96.208L24.4564 96.249C24.4565 96.6896 24.3698 97.1258 24.2013 97.5328C24.0327 97.9398 23.7856 98.3097 23.4741 98.6212C23.1626 98.9327 22.7928 99.1798 22.3858 99.3483C21.9787 99.5169 21.5425 99.6036 21.102 99.6035H16.3066C12.8367 99.604 9.509 100.983 7.05538 103.436C4.60176 105.89 3.22312 109.218 3.22266 112.688V133.251H12.0117V112.688C12.0122 109.218 13.3908 105.89 15.8444 103.436C18.2981 100.983 21.6258 99.604 25.0957 99.6035Z" fill="#FF5A5A"/>
<path d="M57.7559 99.8962C60.3896 97.5368 63.8028 96.2345 67.3389 96.24H68.8497L67.5606 92.5017L67.5138 92.5486C67.5138 93.5271 67.1253 94.4656 66.4336 95.1578C65.742 95.85 64.8038 96.2392 63.8253 96.24H58.5498C54.7329 96.2406 51.0725 97.7574 48.3737 100.457C45.675 103.156 44.159 106.817 44.1592 110.634V133.251H52.9482V110.634C52.9457 108.606 53.3728 106.6 54.2015 104.75C55.0301 102.899 56.2415 101.245 57.7559 99.8962Z" fill="#49BDFF"/>
<path d="M65.217 36.1682L63.5178 45.9273C63.4617 46.2504 63.497 46.5828 63.6199 46.8868C63.7428 47.1909 63.9483 47.4545 64.2131 47.6479C64.478 47.8413 64.7916 47.9567 65.1187 47.9811C65.4457 48.0056 65.7731 47.9381 66.0637 47.7862L74.8425 43.198L83.5991 47.8287C83.8889 47.9819 84.2158 48.051 84.5429 48.0282C84.87 48.0054 85.1842 47.8915 85.4499 47.6995C85.7157 47.5076 85.9225 47.2451 86.0469 46.9417C86.1713 46.6384 86.2084 46.3063 86.154 45.983L84.5032 36.216L91.6129 29.3189C91.8483 29.0905 92.0152 28.8009 92.0945 28.4826C92.1739 28.1644 92.1627 27.8303 92.0621 27.5181C91.9615 27.206 91.7756 26.9281 91.5254 26.7161C91.2751 26.5041 90.9706 26.3663 90.6461 26.3183L80.8481 24.8693L76.4858 15.9759C76.3413 15.6815 76.1174 15.4334 75.8392 15.2596C75.5611 15.0858 75.2399 14.9932 74.9119 14.9924H74.9076C74.5803 14.9924 74.2595 15.0838 73.9813 15.2563C73.7032 15.4288 73.4787 15.6755 73.3331 15.9686L68.9281 24.8403L59.1215 26.241C58.7968 26.2874 58.4916 26.4237 58.2403 26.6345C57.989 26.8453 57.8018 27.1222 57.6997 27.4339C57.5975 27.7456 57.5847 28.0796 57.6625 28.3982C57.7403 28.7169 57.9058 29.0074 58.1401 29.2369L65.217 36.1682ZM70.3399 28.1901C70.6221 28.1498 70.8902 28.0415 71.1212 27.8745C71.3522 27.7075 71.5391 27.4868 71.6659 27.2315L74.8982 20.722L78.0989 27.2461C78.2244 27.502 78.4102 27.7235 78.6403 27.8915C78.8704 28.0596 79.138 28.1692 79.4199 28.2109L86.6099 29.2732L81.393 34.336C81.1884 34.5344 81.0352 34.7797 80.9465 35.0505C80.8578 35.3214 80.8363 35.6098 80.8838 35.8908L82.0953 43.0571L75.6702 39.6586C75.4182 39.5254 75.1376 39.4555 74.8527 39.4548C74.5677 39.4542 74.2868 39.5228 74.0342 39.6548L67.593 43.021L68.839 35.8606C68.8878 35.5799 68.8676 35.2915 68.7802 35.0202C68.6928 34.749 68.5407 34.5031 68.3371 34.3038L63.1452 29.2178L70.3399 28.1901Z" fill="#284268"/>
<path d="M110.887 42.6119L109.395 51.1856C109.339 51.5087 109.374 51.8411 109.497 52.1452C109.62 52.4493 109.825 52.713 110.09 52.9064C110.355 53.0998 110.668 53.2153 110.996 53.2398C111.323 53.2642 111.65 53.1967 111.941 53.0448L119.653 49.0138L127.346 53.082C127.636 53.2352 127.963 53.3043 128.29 53.2815C128.617 53.2587 128.931 53.1449 129.197 52.9529C129.463 52.7609 129.67 52.4984 129.794 52.195C129.918 51.8917 129.956 51.5596 129.901 51.2363L128.451 42.6558L134.697 36.5963C134.932 36.368 135.099 36.0783 135.179 35.7601C135.258 35.4418 135.247 35.1077 135.146 34.7956C135.046 34.4834 134.86 34.2056 134.609 33.9936C134.359 33.7815 134.055 33.6437 133.73 33.5957L125.122 32.3237L121.289 24.5096C121.145 24.2151 120.921 23.967 120.643 23.7932C120.364 23.6194 120.043 23.5269 119.715 23.5261H119.711C119.384 23.5261 119.063 23.6175 118.785 23.79C118.507 23.9624 118.282 24.2091 118.137 24.5023L114.267 32.2953L105.652 33.5257C105.327 33.5721 105.022 33.7084 104.771 33.9192C104.519 34.1299 104.332 34.4068 104.23 34.7184C104.128 35.0301 104.115 35.3641 104.193 35.6827C104.27 36.0013 104.436 36.2918 104.67 36.5213L110.887 42.6119ZM115.678 35.6459C115.96 35.6056 116.228 35.4973 116.459 35.3303C116.69 35.1633 116.877 34.9427 117.004 34.6874L119.701 29.2557L122.372 34.7005C122.498 34.9564 122.683 35.1779 122.914 35.3459C123.144 35.514 123.411 35.6236 123.693 35.6653L129.693 36.5518L125.34 40.7747C125.135 40.9731 124.982 41.2183 124.893 41.4891C124.804 41.7599 124.783 42.0482 124.83 42.3291L125.841 48.3092L120.48 45.4742C120.228 45.3408 119.947 45.2707 119.662 45.27C119.377 45.2693 119.096 45.3379 118.844 45.4701L113.469 48.279L114.509 42.3025C114.558 42.0217 114.537 41.7333 114.45 41.4621C114.363 41.1909 114.211 40.945 114.007 40.7457L109.675 36.504L115.678 35.6459Z" fill="#284268"/>
<path d="M21.2736 42.6119L19.7818 51.1856C19.7256 51.5088 19.7609 51.8412 19.8837 52.1454C20.0066 52.4495 20.2121 52.7132 20.477 52.9066C20.7419 53.1001 21.0557 53.2155 21.3828 53.2399C21.7099 53.2644 22.0373 53.1968 22.328 53.0448L30.0404 49.0138L37.7341 53.082C38.0239 53.2353 38.3509 53.3045 38.678 53.2817C39.0051 53.2589 39.3194 53.1451 39.5852 52.9531C39.851 52.7611 40.0578 52.4986 40.1822 52.1952C40.3067 51.8918 40.3438 51.5596 40.2893 51.2363L38.8388 42.6558L45.0849 36.5963C45.3203 36.368 45.4872 36.0783 45.5665 35.7601C45.6459 35.4418 45.6347 35.1077 45.5341 34.7956C45.4335 34.4834 45.2476 34.2056 44.9974 33.9936C44.7471 33.7815 44.4426 33.6437 44.1181 33.5958L35.5075 32.3225L31.6758 24.5096C31.5313 24.2152 31.3073 23.967 31.0292 23.7932C30.7511 23.6194 30.4299 23.5269 30.1019 23.5261H30.0975C29.7702 23.5261 29.4495 23.6175 29.1713 23.79C28.8931 23.9624 28.6687 24.2091 28.5231 24.5023L24.653 32.2953L16.0383 33.5257C15.7136 33.5722 15.4084 33.7085 15.1572 33.9193C14.906 34.1301 14.7188 34.4069 14.6167 34.7186C14.5146 35.0302 14.5017 35.3642 14.5795 35.6828C14.6572 36.0013 14.8226 36.2918 15.0568 36.5213L21.2736 42.6119ZM26.0651 35.6459C26.3475 35.6059 26.6158 35.4977 26.847 35.3307C27.0783 35.1638 27.2654 34.9431 27.3923 34.6876L30.0896 29.256L32.7603 34.7008C32.8859 34.9567 33.0717 35.1782 33.3019 35.3463C33.5321 35.5144 33.7997 35.6239 34.0816 35.6656L40.081 36.5521L35.7281 40.7749C35.5235 40.9734 35.3703 41.2185 35.2815 41.4893C35.1928 41.7601 35.1712 42.0484 35.2186 42.3294L36.2294 48.3095L30.868 45.4745C30.6162 45.3411 30.3356 45.271 30.0506 45.2703C29.7656 45.2696 29.4846 45.3382 29.2321 45.4704L23.8561 48.2791L24.8956 42.3025C24.9444 42.0218 24.9243 41.7334 24.8369 41.4622C24.7495 41.191 24.5975 40.9451 24.394 40.7457L20.0616 36.5041L26.0651 35.6459Z" fill="#284268"/>
<path d="M74.9997 54.8279C71.2629 54.8321 67.6803 56.3185 65.038 58.9609C62.3957 61.6032 60.9095 65.1858 60.9053 68.9226V77.1471C60.9053 80.8852 62.3902 84.4702 65.0334 87.1134C67.6767 89.7566 71.2616 91.2416 74.9997 91.2416C78.7378 91.2416 82.3227 89.7566 84.966 87.1134C87.6092 84.4702 89.0941 80.8852 89.0941 77.1471V68.9226C89.0899 65.1858 87.6037 61.6032 84.9614 58.9609C82.3191 56.3185 78.7365 54.8321 74.9997 54.8279ZM85.5785 77.1471C85.5785 79.9528 84.464 82.6436 82.48 84.6275C80.4961 86.6114 77.8054 87.7259 74.9997 87.7259C72.194 87.7259 69.5033 86.6114 67.5194 84.6275C65.5354 82.6436 64.4209 79.9528 64.4209 77.1471V68.9226C64.4209 66.1169 65.5354 63.4262 67.5194 61.4423C69.5033 59.4584 72.194 58.3438 74.9997 58.3438C77.8054 58.3438 80.4961 59.4584 82.48 61.4423C84.464 63.4262 85.5785 66.1169 85.5785 68.9226V77.1471Z" fill="#284268"/>
<path d="M118.741 61.7976C115.301 61.8015 112.004 63.1695 109.572 65.6016C107.139 68.0336 105.771 71.3311 105.768 74.7706V82.2471C105.768 85.6878 107.134 88.9875 109.567 91.4204C112 93.8533 115.3 95.2201 118.741 95.2201C122.181 95.2201 125.481 93.8533 127.914 91.4204C130.347 88.9875 131.713 85.6878 131.713 82.2471V74.7706C131.71 71.3311 130.342 68.0336 127.91 65.6016C125.477 63.1695 122.18 61.8015 118.741 61.7976ZM128.198 82.2468C128.198 84.7551 127.201 87.1606 125.428 88.9342C123.654 90.7078 121.249 91.7042 118.741 91.7042C116.232 91.7042 113.827 90.7078 112.053 88.9342C110.28 87.1606 109.283 84.7551 109.283 82.2468V74.7703C109.283 72.262 110.28 69.8565 112.053 68.0829C113.827 66.3093 116.232 65.3129 118.741 65.3129C121.249 65.3129 123.654 66.3093 125.428 68.0829C127.201 69.8565 128.198 72.262 128.198 74.7703V82.2468Z" fill="#284268"/>
<path d="M133.693 97.8462H128.967C128.543 97.8458 128.137 97.6774 127.838 97.378C127.538 97.0786 127.37 96.6727 127.369 96.2493C127.369 95.8354 127.223 95.4348 126.957 95.1181C126.69 94.8014 126.321 94.5889 125.913 94.518C125.505 94.447 125.085 94.5222 124.728 94.7304C124.37 94.9385 124.097 95.2662 123.957 95.6557L122.077 100.893C121.831 101.579 121.378 102.172 120.781 102.589C120.183 103.007 119.471 103.228 118.742 103.224C118.013 103.219 117.304 102.988 116.712 102.563C116.12 102.138 115.674 101.539 115.437 100.85L113.639 95.6352C113.542 95.3534 113.375 95.1009 113.153 94.9015C112.932 94.7021 112.663 94.5623 112.373 94.4953C112.082 94.4283 111.779 94.4363 111.493 94.5185C111.206 94.6007 110.945 94.7544 110.735 94.9652L110.692 95.0074C110.363 95.337 110.177 95.784 110.177 96.2502C110.177 96.6736 110.008 97.0795 109.709 97.3789C109.409 97.6783 109.004 97.8467 108.58 97.8471H103.786C103.027 97.8472 102.269 97.905 101.519 98.02C98.6634 95.728 95.1107 94.4799 91.449 94.4824H86.25C85.7372 94.4824 85.2454 94.2787 84.8827 93.916C84.5201 93.5534 84.3164 93.0616 84.3164 92.5488C84.3163 92.1349 84.1701 91.7343 83.9037 91.4176C83.6373 91.1009 83.2676 90.8884 82.8598 90.8175C82.4521 90.7465 82.0324 90.8218 81.6746 91.0299C81.3169 91.238 81.0441 91.5657 80.9042 91.9552L78.8379 97.7165C78.5547 98.5053 78.0336 99.1868 77.3466 99.6669C76.6596 100.147 75.8404 100.402 75.0023 100.397C74.1642 100.391 73.3484 100.126 72.6675 99.6369C71.9867 99.1481 71.4744 98.46 71.2014 97.6675L69.2241 91.9297C69.1269 91.6478 68.9595 91.3951 68.7377 91.1957C68.516 90.9962 68.2471 90.8565 67.9564 90.7896C67.6657 90.7227 67.3628 90.7309 67.0761 90.8134C66.7895 90.8959 66.5285 91.05 66.3179 91.2612L66.2713 91.3078C65.9426 91.6373 65.758 92.0837 65.758 92.5491C65.758 93.0619 65.5543 93.5537 65.1917 93.9163C64.8291 94.279 64.3372 94.4827 63.8244 94.4827H58.551C54.8886 94.4801 51.3352 95.7286 48.4793 98.0214C47.7298 97.906 46.9727 97.8477 46.2144 97.8471H41.4879C41.0645 97.8467 40.6585 97.6783 40.3591 97.3789C40.0596 97.0795 39.8912 96.6736 39.8906 96.2502C39.8905 95.8363 39.7444 95.4357 39.4779 95.119C39.2115 94.8023 38.8418 94.5898 38.4341 94.5188C38.0263 94.4479 37.6066 94.5231 37.2489 94.7313C36.8911 94.9394 36.6183 95.2671 36.4784 95.6566L34.5996 100.893C34.3533 101.579 33.9002 102.171 33.3027 102.589C32.7052 103.006 31.9928 103.228 31.264 103.223C30.5351 103.219 29.8257 102.988 29.2336 102.563C28.6415 102.138 28.196 101.539 27.9586 100.85L26.1612 95.6352C26.0641 95.3533 25.8968 95.1007 25.6751 94.9013C25.4535 94.7018 25.1847 94.562 24.8942 94.495C24.6036 94.4281 24.3008 94.4361 24.0142 94.5184C23.7276 94.6007 23.4666 94.7545 23.2559 94.9655L23.2137 95.0077C22.8843 95.3373 22.6992 95.7842 22.6992 96.2502C22.6988 96.6736 22.5304 97.0795 22.231 97.3789C21.9316 97.6783 21.5256 97.8467 21.1022 97.8471H16.3072C12.3723 97.8516 8.59984 99.4167 5.81735 102.199C3.03487 104.981 1.46957 108.754 1.46484 112.689V133.25C1.46484 133.716 1.65004 134.163 1.9797 134.493C2.30935 134.822 2.75646 135.008 3.22266 135.008H146.777C147.244 135.008 147.691 134.822 148.02 134.493C148.35 134.163 148.535 133.716 148.535 133.25V112.689C148.531 108.754 146.966 104.981 144.183 102.198C141.401 99.4159 137.628 97.8507 133.693 97.8462ZM42.4005 110.633V131.492H4.98047V112.689C4.98388 109.686 6.17833 106.807 8.30177 104.683C10.4252 102.56 13.3042 101.365 16.3072 101.362H21.1017C22.1723 101.363 23.2162 101.027 24.0844 100.4L24.6343 101.997C25.109 103.374 25.9995 104.57 27.183 105.42C28.3664 106.269 29.7844 106.73 31.2412 106.74C32.6979 106.749 34.1217 106.306 35.3158 105.471C36.5099 104.637 37.4156 103.452 37.9078 102.081L38.5099 100.404C39.3313 100.995 40.3106 101.329 41.3224 101.36C41.3543 101.36 41.3868 101.363 41.4193 101.363H45.3375C43.4239 104.075 42.3979 107.313 42.4005 110.633ZM104.084 131.492H45.9161V110.633C45.92 107.283 47.2524 104.071 49.6211 101.703C51.9897 99.3342 55.2012 98.0018 58.551 97.998H63.8244C65.0471 97.9994 66.2344 97.5876 67.1936 96.8293L67.8771 98.8136C68.3873 100.294 69.3446 101.58 70.6168 102.493C71.8891 103.407 73.4134 103.903 74.9796 103.913C76.5457 103.923 78.0762 103.446 79.36 102.549C80.6437 101.652 81.6173 100.379 82.1464 98.9044L82.8891 96.8349C83.7999 97.5526 84.9169 97.9592 86.076 97.9951C86.1088 97.9971 86.1419 97.998 86.175 97.998H91.4484C94.7983 98.0018 98.0099 99.3342 100.379 101.703C102.747 104.072 104.08 107.283 104.083 110.633L104.084 131.492ZM145.02 131.492H107.6V110.633C107.602 107.313 106.576 104.074 104.662 101.362H108.58C109.651 101.363 110.694 101.027 111.562 100.4L112.112 101.997C112.587 103.374 113.478 104.57 114.661 105.42C115.845 106.269 117.263 106.73 118.719 106.74C120.176 106.749 121.6 106.306 122.794 105.471C123.988 104.637 124.894 103.452 125.386 102.081L125.988 100.404C126.809 100.995 127.789 101.329 128.8 101.36C128.832 101.36 128.865 101.363 128.897 101.363H133.692C136.695 101.366 139.574 102.56 141.698 104.683C143.821 106.807 145.016 109.686 145.02 112.689V131.492Z" fill="#284268"/>
<path d="M18.2881 74.7706V82.2471C18.2881 83.9508 18.6236 85.6377 19.2756 87.2117C19.9275 88.7856 20.8831 90.2157 22.0878 91.4204C23.2924 92.625 24.7226 93.5806 26.2965 94.2326C27.8705 94.8845 29.5574 95.2201 31.261 95.2201C32.9647 95.2201 34.6516 94.8845 36.2256 94.2326C37.7995 93.5806 39.2296 92.625 40.4343 91.4204C41.6389 90.2157 42.5945 88.7856 43.2465 87.2117C43.8984 85.6377 44.234 83.9508 44.234 82.2471V74.7706C44.234 71.3299 42.8672 68.0302 40.4343 65.5973C38.0014 63.1644 34.7017 61.7976 31.261 61.7976C27.8204 61.7976 24.5207 63.1644 22.0878 65.5973C19.6549 68.0302 18.2881 71.3299 18.2881 74.7706ZM40.7184 74.7706V82.2471C40.7184 84.7554 39.722 87.1609 37.9484 88.9345C36.1748 90.7081 33.7693 91.7045 31.261 91.7045C28.7528 91.7045 26.3473 90.7081 24.5737 88.9345C22.8001 87.1609 21.8037 84.7554 21.8037 82.2471V74.7706C21.8037 72.2623 22.8001 69.8568 24.5737 68.0832C26.3473 66.3096 28.7528 65.3132 31.261 65.3132C33.7693 65.3132 36.1748 66.3096 37.9484 68.0832C39.722 69.8568 40.7184 72.2623 40.7184 74.7706Z" fill="#284268"/>
<defs>
<linearGradient id="paint0_linear" x1="119.687" y1="25.2834" x2="119.687" y2="51.5276" gradientUnits="userSpaceOnUse">
<stop stop-color="#1DCDDB"/>
<stop offset="1" stop-color="#31B8FF"/>
</linearGradient>
<linearGradient id="paint1_linear" x1="74.8799" y1="16.749" x2="74.8799" y2="46.2744" gradientUnits="userSpaceOnUse">
<stop stop-color="#1DCDDB"/>
<stop offset="1" stop-color="#31B8FF"/>
</linearGradient>
<linearGradient id="paint2_linear" x1="30.0732" y1="25.2834" x2="30.0732" y2="51.5276" gradientUnits="userSpaceOnUse">
<stop stop-color="#1DCDDB"/>
<stop offset="1" stop-color="#31B8FF"/>
</linearGradient>
</defs>
</svg>
