<svg width="150" height="150" viewBox="0 0 150 150" fill="none" xmlns="http://www.w3.org/2000/svg">
<path fill-rule="evenodd" clip-rule="evenodd" d="M75.7334 13.4088C71.9647 12.2621 71.87 15.8897 68.43 16.2093C66.4759 16.3906 64.552 17.9577 63.1056 19.5031C58.7316 24.1772 59.926 25.2131 63.4267 29.2048C64.9501 30.9421 63.6783 34.9473 67.4661 34.533C68.8126 34.3857 69.3115 33.5826 71.754 34.1809C74.4101 34.8313 74.457 29.5233 74.5504 29.073C75.2913 25.5143 77.8249 26.322 76.4992 22.0681C76.0721 20.697 77.5475 13.9608 75.7334 13.4088Z" fill="url(#paint0_linear)"/>
<path fill-rule="evenodd" clip-rule="evenodd" d="M64.2726 47.2233C57.2734 47.2233 62.4199 51.3149 51.3593 42.7216C47.0586 39.3803 40.487 33.0634 40.487 45.3984C40.487 49.7973 46.4216 49.2855 46.2854 53.8344C46.1697 57.6989 42.4388 60.0793 39.3278 58.4832C36.1758 56.8663 31.8656 52.8316 28.7587 53.2625C18.746 54.6521 25.2991 48.4022 19.3569 46.9597L2.92969 69.6039C5.13924 72.1814 3.47109 77.5995 5.52009 77.5995C7.89663 77.5995 7.10152 85.4469 7.10152 87.8126C8.2104 92.7543 2.88457 91.2948 5.52009 102.286C10.2157 121.868 21.2105 114.079 35.7246 120.231C39.2982 121.746 58.3462 124.711 62.1867 123.063C64.1095 122.237 73.4788 123.843 74.4011 124.38C78.5348 126.791 84.6487 119.031 89.7331 123.635C94.7581 128.185 99.7807 125.999 98.4925 131.258C96.822 138.078 104.539 138.304 107.005 133.68C110.009 128.046 117.096 121.558 121.18 120.713C122.261 111.347 121.535 115.423 124.607 116.059C125.796 121.807 135.622 113.503 131.241 109.884C125.929 105.495 124.57 102.913 125.706 101.254C127.034 99.3147 129.708 100.933 131.332 97.5282C135.867 88.0185 135.468 100.283 139.994 100.821C141.483 100.997 144.374 97.8962 146.573 96.3144C150.297 93.6353 131.921 82.9382 128.869 82.5187C121.23 81.4687 114.127 75.5317 111.698 75.5317C111.698 78.237 107.226 84.1446 104.602 81.0427C100.582 76.2885 88.2311 80.0036 90.7614 81.8185C95.2945 85.0695 91.4616 88.0478 93.5288 89.2209C104.17 95.2607 94.9207 98.6383 95.3736 100.486C95.9786 102.955 95.0168 107.77 92.4932 108.538C85.7254 110.598 82.8001 101.558 82.5443 100.047C81.8989 96.2359 71.6284 102.297 69.7851 93.3924C63.559 92.1045 67.9731 78.6738 73.2772 77.8365C80.616 78.1892 82.5566 73.1625 80.4379 70.0372C76.6012 64.3774 77.5718 59.4927 81.2324 58.0039C84.2236 56.7872 86.4223 56.0261 88.1022 58.9844C90.9153 63.9385 84.3546 68.0561 97.311 68.3116C101.796 68.4001 104.862 65.8902 102.228 61.7902C96.6615 53.1225 103.485 56.0993 103.783 54.086C104.613 48.481 96.8282 47.4756 92.9997 47.2333C91.9591 47.1674 71.9935 38.7478 70.0485 47.1779C69.6231 47.3256 65.1117 47.2233 64.2726 47.2233Z" fill="url(#paint1_linear)"/>
<path d="M34.4219 51.957C37.6159 51.4425 39.788 48.4362 39.2734 45.2422C38.7589 42.0482 35.7526 39.8761 32.5586 40.3906C29.3646 40.9052 27.1925 43.9115 27.707 47.1055C28.2216 50.2994 31.2279 52.4716 34.4219 51.957Z" fill="white"/>
<path fill-rule="evenodd" clip-rule="evenodd" d="M39.367 46.179C39.367 49.4151 36.7437 52.0383 33.5076 52.0383C30.2715 52.0383 27.6483 49.4151 27.6483 46.179C27.6483 42.9429 30.2715 40.3196 33.5076 40.3196C36.7437 40.3196 39.367 42.9429 39.367 46.179ZM51.0856 46.3184C51.0856 44.87 50.9034 43.4529 50.5609 42.0915C48.6411 34.4615 41.6831 28.5694 33.5076 28.6007C23.8732 28.5638 15.9297 36.7531 15.9297 46.3184C15.9297 47.7862 16.1468 49.3102 16.5344 50.8521C19.1965 61.4439 29.9012 72.8848 33.5076 72.8848C37.6388 72.8848 51.0856 57.8706 51.0856 46.3184Z" fill="#FF5A58"/>
<path d="M149.863 94.3143C149.61 93.2953 148.937 90.5883 140.168 85.0026C137.277 83.1616 131.729 79.9551 129.268 79.6168C125.178 79.0546 121.147 76.8453 117.909 75.0699C115.197 73.584 113.407 72.6023 111.698 72.6023C110.08 72.6023 108.769 73.8978 108.769 75.5155C108.71 76.4053 107.435 78.2521 106.56 78.8378C103.24 75.3061 97.2348 75.3277 93.0088 76.4542C89.7366 77.3269 87.9 78.7411 87.5496 80.6577C87.3003 82.0211 87.8625 83.345 89.0537 84.1993C90.3059 85.0973 90.2563 85.4137 90.0729 86.5893C89.9145 87.6042 89.4938 90.2998 92.0824 91.7693C95.5365 93.7295 95.738 94.8466 95.7395 94.8574C95.7875 95.1829 94.7554 96.2657 94.4162 96.6214C93.4066 97.6796 92.0241 99.1295 92.528 101.184C92.8998 102.701 92.1811 105.274 91.5765 105.755C90.61 106.036 89.8283 105.947 89.0505 105.47C86.8922 104.149 85.5891 100.436 85.4327 99.5584C85.1168 97.6951 83.8082 96.3621 81.8412 95.901C80.7408 95.6429 79.5651 95.6675 78.3197 95.693C74.3483 95.7776 73.1972 95.4246 72.6538 92.7993C72.4168 91.6553 71.5226 90.7612 70.3783 90.5242C69.7575 90.3959 69.6512 89.3626 69.6711 88.5182C69.7537 85.0419 72.0954 81.2855 73.5488 80.7784C78.0306 80.8865 81.5409 79.2547 83.2231 76.2579C84.6121 73.7838 84.4741 70.7707 82.8628 68.3935C81.262 66.0319 80.5885 63.6914 81.061 62.1326C81.2693 61.4447 81.6868 60.9821 82.3366 60.7178C83.0312 60.4354 84.6481 59.7777 85.1277 59.8586C85.171 59.8925 85.3292 60.034 85.5548 60.431C86.028 61.2642 86.0092 62.0713 85.9395 63.3191C85.8557 64.8173 85.7412 66.8698 87.3446 68.5989C88.9858 70.369 91.8565 71.1342 97.2538 71.2409C100.994 71.3191 104.037 69.9181 105.385 67.5058C106.08 66.2634 106.914 63.6633 104.694 60.2072C103.978 59.0933 103.561 58.3038 103.318 57.7656C104.465 57.4805 106.348 56.7651 106.682 54.5151C107.003 52.3446 106.483 50.3445 105.178 48.7308C103.107 46.1715 99.268 44.7298 93.4453 44.327C93.1957 44.2487 92.7258 44.0888 92.3018 43.9444C84.4999 41.2872 75.838 38.9525 70.7477 41.7861C69.6131 42.4174 68.7119 43.2787 68.0747 44.3281C67.0775 44.3249 65.8807 44.3126 65.276 44.3047C64.8199 44.2985 64.4592 44.2939 64.2729 44.2939C61.8507 44.2939 60.4992 44.709 59.4586 45.1312C58.4139 44.4922 55.9509 42.5788 53.1569 40.4083C53.1423 40.3968 53.1267 40.3877 53.1121 40.3769C52.1134 37.1288 50.3145 34.1101 47.8563 31.6612C43.9762 27.7964 38.907 25.6709 33.5956 25.6709C33.5443 25.6709 33.4933 25.6709 33.4421 25.6709C28.1089 25.6709 23.0388 27.7967 19.1591 31.6612C15.2451 35.5605 13.0001 40.9028 13.0001 46.3183C13.0001 47.6193 13.1416 48.9195 13.3862 50.2021L0.558391 67.8841C-0.23789 68.9815 -0.176953 70.4818 0.70546 71.511C1.17596 72.06 1.28319 73.62 1.3617 74.7594C1.42996 75.7522 1.49442 76.6903 1.75604 77.5569C2.20427 79.0408 3.13561 79.8781 4.12056 80.2639C4.39917 81.7498 4.26939 84.9543 4.22252 86.1103C4.19556 86.7801 4.17213 87.3584 4.17213 87.8134C4.17213 88.029 4.19615 88.2443 4.24332 88.4547C4.42613 89.2694 4.36402 89.3708 3.77018 90.3414C2.20779 92.8954 0.948036 95.7829 2.67155 102.97C6.3181 118.178 14.1549 119.133 22.4517 120.144L22.5261 120.153C22.6466 120.167 22.7658 120.174 22.8841 120.174C24.3437 120.174 25.6076 119.085 25.7886 117.599C25.9843 115.993 24.8409 114.532 23.2348 114.336L23.1604 114.327C15.3625 113.377 11.0671 112.854 8.36915 101.603C7.06839 96.1775 7.93264 94.7649 8.76818 93.3988C9.53633 92.1431 10.5769 90.4418 10.035 87.5342C10.042 87.2154 10.0587 86.805 10.0771 86.3468C10.2679 81.6324 10.2638 77.8695 8.37267 75.9002C8.04367 75.5577 7.66809 75.2817 7.26087 75.0784C7.24036 74.837 7.22278 74.5795 7.20725 74.3566C7.11614 73.0306 7.00218 71.3724 6.39837 69.8115L15.6464 57.064C17.2654 60.6068 19.3082 63.6571 20.8214 65.6851C22.0835 67.3763 28.626 75.8138 33.5077 75.8138C38.3894 75.8138 44.9319 67.3763 46.194 65.6851C48.8556 62.1176 53.159 55.3897 53.9025 48.3746C55.135 49.2986 55.9773 49.8851 56.6699 50.2835C58.6603 51.4296 59.9906 51.2662 61.4921 50.6307C62.0218 50.4066 62.6217 50.1529 64.2729 50.1529C64.4446 50.1529 64.7771 50.1576 65.1975 50.1631C69.9611 50.2267 70.3853 50.162 71.0076 49.9463C71.9606 49.6165 72.6769 48.8193 72.9037 47.8367C73.0089 47.3808 73.1966 47.1286 73.5977 46.9057C75.1947 46.0159 79.409 45.7432 90.4131 49.4905C91.8381 49.9759 92.2681 50.1224 92.8151 50.157C98.5379 50.5191 100.199 51.918 100.598 52.3865C99.512 52.7105 98.1527 53.3758 97.4744 54.9851C96.6026 57.054 97.2661 59.4838 99.764 63.3733C100.26 64.1452 100.289 64.5768 100.271 64.6456C100.17 64.8472 99.256 65.4179 97.3693 65.3824C93.5018 65.306 92.1665 64.8665 91.759 64.6702C91.7472 64.4074 91.7713 63.9785 91.7897 63.6454C91.8729 62.1586 91.9983 59.9119 90.6501 57.5374C87.6393 52.2341 82.7538 54.2222 80.1291 55.2895C77.8372 56.222 76.1767 58.048 75.4539 60.4316C74.4441 63.7617 75.3529 67.7569 78.013 71.6806C78.376 72.2161 78.4141 72.8548 78.1141 73.3886C77.5161 74.4541 75.761 75.0239 73.4178 74.9097C73.2177 74.8997 73.0179 74.9111 72.8202 74.9419C67.4173 75.795 63.9331 83.3424 63.8135 88.3779C63.7327 91.7877 65.0305 94.3664 67.3619 95.6089C69.5129 101.735 75.4633 101.613 78.4413 101.55C78.8761 101.541 79.4494 101.528 79.8982 101.544C80.5384 103.767 82.3653 108.225 85.9553 110.444C88.1851 111.823 90.7409 112.132 93.3463 111.34C97.2468 110.152 98.8271 104.707 98.4143 100.919C98.4966 100.831 98.581 100.743 98.6563 100.664C99.9075 99.3518 102.001 97.156 101.536 94.0014C101.171 91.529 99.374 89.3579 95.9036 87.221C96.0852 86.0043 96.2739 84.0458 94.9781 81.9997C97.4255 81.4665 101.028 81.3529 102.365 82.9337C103.869 84.7126 106.072 85.2974 108.258 84.4973C110.458 83.6919 112.391 81.5732 113.535 79.3633C114.049 79.6358 114.593 79.9337 115.092 80.2071C118.552 82.104 123.289 84.7003 128.437 85.416C129.245 85.5977 132.721 87.2192 136.879 89.8539C140.652 92.2448 142.632 93.9689 143.551 94.9576C143.2 95.2468 142.85 95.5444 142.505 95.838C141.85 96.3946 140.852 97.243 140.191 97.6863C139.749 97.1352 139.191 95.9596 138.896 95.3361C137.98 93.4037 136.839 90.9988 134.184 90.9961C134.182 90.9961 134.181 90.9961 134.179 90.9961C131.562 90.9961 129.993 93.5291 128.687 96.2669C128.361 96.9504 128.259 96.9738 127.283 97.1965C126.242 97.4344 124.498 97.8316 123.288 99.5988C120.001 104.398 126.569 109.825 129.374 112.142C129.4 112.164 129.418 112.181 129.43 112.193C129.433 112.373 129.282 112.901 128.763 113.562C128.265 114.194 127.704 114.617 127.278 114.858C126.898 114.012 126.132 113.383 125.2 113.19C125.038 113.157 124.917 113.057 124.638 112.802C123.488 111.752 122.296 111.449 121.097 111.898C119.319 112.565 119.026 114.36 118.9 115.127C118.784 115.837 118.667 116.871 118.49 118.436C118.487 118.469 118.483 118.503 118.479 118.538C113.336 120.788 107.175 127.136 104.419 132.302C103.716 133.621 102.18 134.09 101.473 133.819C101.046 133.655 101.187 132.57 101.337 131.955C101.557 131.061 102.223 128.339 100.326 126.226C99.2732 125.053 97.843 124.544 96.4599 124.052C94.991 123.529 93.326 122.936 91.6989 121.463C87.4776 117.641 82.7523 119.584 79.6258 120.87C78.282 121.422 76.4409 122.179 75.8764 121.85C74.6275 121.122 70.6944 120.529 69.0617 120.307C63.0685 119.496 61.6403 120.109 61.0365 120.368C60.1983 120.695 56.3089 120.841 49.029 119.901C47.423 119.696 45.9555 120.827 45.7484 122.432C45.5413 124.037 46.6744 125.505 48.279 125.713C55.8797 126.693 60.9053 126.724 63.2215 125.804C64.8433 125.49 71.585 126.514 73.1044 127.012C76.1178 128.647 79.2933 127.342 81.8541 126.289C85.2334 124.899 86.49 124.651 87.7658 125.806C90.2596 128.064 92.7076 128.936 94.495 129.572C94.9013 129.717 95.4166 129.9 95.7468 130.049C95.7301 130.174 95.6997 130.341 95.646 130.561C94.4387 135.49 96.9035 138.345 99.3814 139.292C100.192 139.602 101.048 139.748 101.912 139.748C104.932 139.748 108.045 137.956 109.589 135.059C112.354 129.874 118.797 124.198 121.773 123.582C123.011 123.326 123.945 122.305 124.09 121.049C124.12 120.79 124.148 120.541 124.175 120.302C124.768 120.648 125.445 120.865 126.186 120.935C129.661 121.262 133.405 118.084 134.719 114.907C135.868 112.131 135.265 109.409 133.106 107.626C130.048 105.1 128.916 103.636 128.499 102.93C128.529 102.923 128.558 102.916 128.586 102.91C129.929 102.603 132.429 102.033 133.975 98.7896C133.989 98.7615 134.002 98.7342 134.015 98.707C135.053 100.803 136.627 103.372 139.647 103.73C141.946 104 143.963 102.288 146.299 100.303C147.02 99.6902 147.701 99.1113 148.283 98.6926C149.701 97.6734 150.291 96.0369 149.863 94.3143ZM41.8859 61.6536C38.1881 66.7582 34.6924 69.4927 33.5074 69.9219C32.322 69.4927 28.8264 66.7582 25.1289 61.6538C21.1442 56.1534 18.8591 50.5639 18.8591 46.3185C18.8591 42.4496 20.4757 38.6203 23.294 35.8125C26.0675 33.0495 29.6695 31.5302 33.4646 31.5302H33.5727C37.3452 31.5302 40.9475 33.0501 43.7211 35.8125C46.5394 38.6203 48.156 42.4496 48.156 46.3185C48.1557 50.5639 45.8703 56.1534 41.8859 61.6536Z" fill="black"/>
<path d="M60.8949 30.7613L61.1858 31.0923C61.2822 31.2904 61.3976 31.8382 61.4752 32.2059C61.6879 33.2129 61.9522 34.4659 62.7886 35.5569C63.4894 36.471 64.7615 37.4922 66.9493 37.4922C67.2142 37.492 67.4931 37.477 67.7855 37.4451C68.5112 37.3657 69.0722 37.1823 69.4821 37.0484C70.0153 36.8744 70.1951 36.8155 71.0576 37.0264C72.3713 37.3478 73.6782 37.1058 74.7379 36.3426C76.748 34.8954 77.2281 32.1702 77.4323 29.6955C77.4364 29.6454 77.44 29.6005 77.4435 29.5616C77.5964 28.9065 77.8246 28.6238 78.2222 28.131C79.3853 26.6902 80.4271 24.9801 79.3492 21.3672C79.3322 20.9908 79.3988 20.0729 79.4483 19.3894C79.6979 15.9403 80.0084 11.6471 76.5868 10.6062C72.891 9.48151 70.8699 11.297 69.6622 12.3813C68.8982 13.0677 68.6506 13.247 68.1602 13.2924C65.7959 13.5119 63.3757 14.9281 60.9675 17.5015C58.6416 19.9865 57.1416 22.1706 57.3816 24.7507C57.5907 27.0037 59.0489 28.6619 60.8949 30.7613ZM65.2454 21.5049C67.2025 19.4137 68.3858 19.1556 68.7019 19.1263C71.1766 18.8966 72.6212 17.5991 73.5775 16.7404C73.6252 16.6976 73.6774 16.6505 73.7319 16.6021C73.7158 17.4262 73.6469 18.3775 73.6041 18.9661C73.4632 20.9155 73.4034 21.9775 73.7032 22.9393C73.917 23.6257 73.9466 23.9615 73.9481 24.0842C73.8836 24.1765 73.7588 24.3312 73.663 24.4499C73.0501 25.2089 72.1243 26.3559 71.6831 28.475C71.6345 28.7085 71.6178 28.9088 71.5929 29.2127C71.5179 30.122 71.4206 30.722 71.3292 31.1167C69.6945 30.8884 68.6219 31.165 67.6607 31.4788C67.5247 31.5233 67.4216 31.557 67.3375 31.5804C67.2904 31.3847 67.245 31.1688 67.2083 30.9954C66.9827 29.9269 66.674 28.463 65.6301 27.2729L65.2949 26.8918C64.424 25.9009 63.3435 24.6725 63.2196 24.2187C63.2527 24.0576 63.4944 23.3761 65.2454 21.5049Z" fill="black"/>
<path d="M33.5078 37.3896C28.6615 37.3896 24.7188 41.3324 24.7188 46.1787C24.7188 51.025 28.6615 54.9678 33.5078 54.9678C38.3541 54.9678 42.2969 51.025 42.2969 46.1787C42.2969 41.3324 38.3541 37.3896 33.5078 37.3896ZM33.5078 49.1084C31.8924 49.1084 30.5781 47.7941 30.5781 46.1787C30.5781 44.5633 31.8924 43.249 33.5078 43.249C35.1232 43.249 36.4375 44.5633 36.4375 46.1787C36.4375 47.7941 35.1232 49.1084 33.5078 49.1084Z" fill="black"/>
<path d="M35.7245 117.302H35.7225C34.1044 117.302 32.7939 118.613 32.7939 120.231C32.7939 121.849 34.1064 123.161 35.7245 123.161C37.3426 123.161 38.6542 121.849 38.6542 120.231C38.6542 118.613 37.3426 117.302 35.7245 117.302Z" fill="black"/>
<defs>
<linearGradient id="paint0_linear" x1="68.5815" y1="13.1855" x2="68.5815" y2="34.5629" gradientUnits="userSpaceOnUse">
<stop stop-color="#1DCDDB"/>
<stop offset="1" stop-color="#31B8FF"/>
</linearGradient>
<linearGradient id="paint1_linear" x1="74.9992" y1="38.106" x2="74.9992" y2="136.818" gradientUnits="userSpaceOnUse">
<stop stop-color="#1DCDDB"/>
<stop offset="1" stop-color="#31B8FF"/>
</linearGradient>
</defs>
</svg>
