<svg width="150" height="150" viewBox="0 0 150 150" fill="none" xmlns="http://www.w3.org/2000/svg">
<g clip-path="url(#clip0)">
<path d="M145.312 54.9375H4.6875V132.813C4.6875 139.719 10.2812 145.313 17.1875 145.313H132.812C139.719 145.313 145.312 139.719 145.312 132.813V54.9375Z" fill="#ECEFF1"/>
<path d="M126.562 17.1875H23.4375C13.0813 17.1875 4.6875 25.5813 4.6875 35.9375V54.9375H145.312V35.9375C145.312 25.5813 136.919 17.1875 126.562 17.1875Z" fill="url(#paint0_linear)"/>
<path d="M132.812 150H17.1875C7.70625 150 0 142.294 0 132.812V29.6875C0 20.2063 7.70625 12.5 17.1875 12.5H132.812C142.294 12.5 150 20.2063 150 29.6875V132.812C150 142.294 142.294 150 132.812 150ZM17.1875 21.875C12.8813 21.875 9.375 25.3813 9.375 29.6875V132.812C9.375 137.119 12.8813 140.625 17.1875 140.625H132.812C137.119 140.625 140.625 137.119 140.625 132.812V29.6875C140.625 25.3813 137.119 21.875 132.812 21.875H17.1875Z" fill="black"/>
<path d="M145.312 59.375H4.6875C2.1 59.375 0 57.275 0 54.6875C0 52.1 2.1 50 4.6875 50H145.312C147.9 50 150 52.1 150 54.6875C150 57.275 147.9 59.375 145.312 59.375Z" fill="black"/>
<path d="M35.9375 37.5C33.35 37.5 31.25 35.4 31.25 32.8125V4.6875C31.25 2.1 33.35 0 35.9375 0C38.525 0 40.625 2.1 40.625 4.6875V32.8125C40.625 35.4 38.525 37.5 35.9375 37.5Z" fill="black"/>
<path d="M114.062 37.5C111.475 37.5 109.375 35.4 109.375 32.8125V4.6875C109.375 2.1 111.475 0 114.062 0C116.65 0 118.75 2.1 118.75 4.6875V32.8125C118.75 35.4 116.65 37.5 114.062 37.5Z" fill="black"/>
<path d="M48.4378 125C47.119 125 45.8065 124.444 44.8815 123.363C43.194 121.4 43.4253 118.438 45.3878 116.75L67.2628 98C68.8565 96.6313 71.1565 96.4875 72.9128 97.6563L79.0878 101.775L98.244 82.6188C100.075 80.7875 103.044 80.7875 104.875 82.6188C106.707 84.45 106.707 87.4188 104.875 89.25L83.0003 111.125C81.4253 112.706 78.944 112.95 77.0878 111.713L70.669 107.431L51.494 123.869C50.6065 124.625 49.519 125 48.4378 125Z" fill="black"/>
<path d="M101.562 106.25C98.975 106.25 96.875 104.15 96.875 101.562V90.625H85.9375C83.35 90.625 81.25 88.525 81.25 85.9375C81.25 83.35 83.35 81.25 85.9375 81.25H101.562C104.15 81.25 106.25 83.35 106.25 85.9375V101.562C106.25 104.15 104.15 106.25 101.562 106.25Z" fill="black"/>
</g>
<defs>
<linearGradient id="paint0_linear" x1="75" y1="17.1875" x2="75" y2="54.9375" gradientUnits="userSpaceOnUse">
<stop stop-color="#1DCDDB"/>
<stop offset="1" stop-color="#31B8FF"/>
</linearGradient>
<clipPath id="clip0">
<rect width="150" height="150" fill="white"/>
</clipPath>
</defs>
</svg>
