<svg width="150" height="150" viewBox="0 0 150 150" fill="none" xmlns="http://www.w3.org/2000/svg">
<path d="M42.1875 21.0938H107.812V35.1562H42.1875V21.0938Z" fill="#EE8700"/>
<path d="M107.812 35.1562V67.9688C107.809 69.2108 107.314 70.4009 106.435 71.2792C105.557 72.1575 104.367 72.6525 103.125 72.6562H46.875C45.6329 72.6525 44.4428 72.1575 43.5645 71.2792C42.6863 70.4009 42.1912 69.2108 42.1875 67.9688V35.1562H107.812Z" fill="url(#paint0_linear)"/>
<path d="M124.219 73.5938V51.5625C124.219 49.6977 124.96 47.9093 126.278 46.5907C127.597 45.272 129.385 44.5313 131.25 44.5312C133.115 44.5313 134.903 45.272 136.222 46.5907C137.54 47.9093 138.281 49.6977 138.281 51.5625V107.812L128.906 119.531V124.219H100.781V105.469L117.187 77.0625C117.802 75.9901 118.689 75.0996 119.76 74.4821C120.83 73.8645 122.045 73.5418 123.281 73.5469C123.586 73.5469 123.914 73.5703 124.219 73.5938Z" fill="#FFC477"/>
<path d="M133.594 124.219V142.969H96.0938V124.219H100.781H128.906H133.594Z" fill="#3D9AE2"/>
<path d="M98.4375 7.03125L107.812 21.0938H82.0312H67.9688H42.1875L51.5625 7.03125H98.4375Z" fill="url(#paint1_linear)"/>
<path d="M89.0625 100.781H82.0312V119.531H67.9688V100.781H60.9375L75 86.7188L89.0625 100.781Z" fill="#FF5023"/>
<path d="M82.0312 35.1562V44.5312L75 39.8438L67.9688 44.5312V35.1562V21.0938H82.0312V35.1562Z" fill="#E6E7E8"/>
<path d="M56.25 124.219V142.969H18.75V124.219H23.4375H51.5625H56.25Z" fill="#3D9AE2"/>
<path d="M28.125 73.5938C28.4297 73.5703 28.7578 73.5469 29.0625 73.5469C30.2984 73.5418 31.5135 73.8645 32.584 74.4821C33.6545 75.0996 34.5421 75.9901 35.1562 77.0625L51.5625 105.469V124.219H23.4375V119.531L14.0625 107.812V51.5625C14.0625 49.6977 14.8033 47.9093 16.1219 46.5907C17.4405 45.272 19.2289 44.5313 21.0938 44.5312C22.9586 44.5313 24.747 45.272 26.0656 46.5907C27.3842 47.9093 28.125 49.6977 28.125 51.5625V73.5938Z" fill="#FFC477"/>
<path d="M109.758 19.8047L100.383 5.74219C100.17 5.41978 99.8818 5.15481 99.5425 4.97081C99.2031 4.78682 98.8235 4.6895 98.4375 4.6875H51.5625C51.1765 4.6895 50.7969 4.78682 50.4575 4.97081C50.1182 5.15481 49.8295 5.41978 49.6172 5.74219L40.2422 19.8047C39.9816 20.184 39.8426 20.6336 39.8438 21.0938V67.9688C39.8493 69.8318 40.5919 71.617 41.9093 72.9344C43.2267 74.2519 45.0119 74.9944 46.875 75H103.125C104.988 74.9944 106.773 74.2519 108.091 72.9344C109.408 71.617 110.151 69.8318 110.156 67.9688V21.0938C110.157 20.6336 110.018 20.184 109.758 19.8047ZM52.8281 9.375H97.1719L103.43 18.75H46.5703L52.8281 9.375ZM79.6875 23.4375V40.1484L76.2891 37.8984C75.9107 37.6352 75.4609 37.4941 75 37.4941C74.5391 37.4941 74.0893 37.6352 73.7109 37.8984L70.3125 40.1484V23.4375H79.6875ZM44.5313 23.4375H65.625V32.8125H44.5313V23.4375ZM105.469 67.9688C105.469 68.5904 105.222 69.1865 104.782 69.626C104.343 70.0656 103.747 70.3125 103.125 70.3125H46.875C46.2534 70.3125 45.6573 70.0656 45.2177 69.626C44.7782 69.1865 44.5313 68.5904 44.5313 67.9688V37.5H65.625V44.5312C65.622 44.9561 65.7364 45.3735 65.9556 45.7375C66.1748 46.1014 66.4902 46.3977 66.8672 46.5937C67.2366 46.8003 67.6566 46.8989 68.0793 46.8781C68.502 46.8574 68.9104 46.7183 69.2578 46.4766L75 42.6562L80.7422 46.4766C81.0947 46.7087 81.5033 46.8414 81.925 46.8605C82.3466 46.8796 82.7656 46.7846 83.1377 46.5853C83.5098 46.3861 83.8211 46.0901 84.0389 45.7285C84.2567 45.367 84.3728 44.9533 84.375 44.5312V37.5H105.469V67.9688ZM105.469 32.8125H84.375V23.4375H105.469V32.8125Z" fill="black"/>
<path d="M76.657 85.0615C76.2175 84.6221 75.6215 84.3752 75 84.3752C74.3785 84.3752 73.7825 84.6221 73.343 85.0615L59.2805 99.124C58.9528 99.4517 58.7296 99.8693 58.6392 100.324C58.5489 100.778 58.5953 101.25 58.7726 101.678C58.95 102.106 59.2503 102.472 59.6356 102.73C60.021 102.987 60.474 103.125 60.9375 103.125H65.625V119.531H70.3125V100.781C70.3125 100.159 70.0656 99.5633 69.626 99.1237C69.1865 98.6842 68.5903 98.4372 67.9687 98.4372H66.5953L75 90.0326L83.4047 98.4372H82.0312C81.4096 98.4372 80.8135 98.6842 80.374 99.1237C79.9344 99.5633 79.6875 100.159 79.6875 100.781V128.906H84.375V103.125H89.0625C89.526 103.125 89.979 102.987 90.3643 102.73C90.7497 102.472 91.05 102.106 91.2274 101.678C91.4047 101.25 91.4511 100.778 91.3607 100.324C91.2703 99.8693 91.0472 99.4517 90.7195 99.124L76.657 85.0615Z" fill="black"/>
<path d="M119.531 9.375H124.219V23.4375H119.531V9.375Z" fill="black"/>
<path d="M119.531 28.125H124.219V32.8125H119.531V28.125Z" fill="black"/>
<path d="M133.594 16.4062H138.281V25.7812H133.594V16.4062Z" fill="black"/>
<path d="M133.594 30.4688H138.281V35.1562H133.594V30.4688Z" fill="black"/>
<path d="M25.7812 9.375H30.4688V23.4375H25.7812V9.375Z" fill="black"/>
<path d="M25.7812 28.125H30.4688V32.8125H25.7812V28.125Z" fill="black"/>
<path d="M11.7188 16.4062H16.4062V25.7812H11.7188V16.4062Z" fill="black"/>
<path d="M11.7188 30.4688H16.4062V35.1562H11.7188V30.4688Z" fill="black"/>
<path d="M103.125 131.25H107.812V135.938H103.125V131.25Z" fill="black"/>
<path d="M131.25 42.1875C128.764 42.1875 126.379 43.1752 124.621 44.9334C122.863 46.6915 121.875 49.0761 121.875 51.5625V71.3438C121.528 71.3755 121.183 71.4303 120.844 71.5078C119.653 71.8279 118.537 72.3798 117.559 73.1318C116.582 73.8839 115.763 74.8214 115.148 75.8906L98.7422 104.297C98.5458 104.657 98.4412 105.059 98.4375 105.469V121.875H96.0938C95.4721 121.875 94.876 122.122 94.4365 122.561C93.9969 123.001 93.75 123.597 93.75 124.219V142.969C93.75 143.59 93.9969 144.186 94.4365 144.626C94.876 145.066 95.4721 145.312 96.0938 145.312H133.594C134.215 145.312 134.812 145.066 135.251 144.626C135.691 144.186 135.938 143.59 135.938 142.969V124.219C135.938 123.597 135.691 123.001 135.251 122.561C134.812 122.122 134.215 121.875 133.594 121.875H131.25V120.352L140.109 109.266C140.444 108.855 140.626 108.342 140.625 107.812V51.5625C140.625 49.0761 139.637 46.6915 137.879 44.9334C136.121 43.1752 133.736 42.1875 131.25 42.1875ZM131.25 140.625H98.4375V126.562H131.25V140.625ZM135.938 106.992L127.078 118.078C126.743 118.488 126.561 119.002 126.563 119.531V121.875H103.125V106.102L119.227 78.2344C119.52 77.6742 119.923 77.1791 120.412 76.7788C120.902 76.3786 121.467 76.0814 122.074 75.9053C122.681 75.7291 123.318 75.6776 123.945 75.7539C124.573 75.8301 125.179 76.0325 125.726 76.3489C126.273 76.6652 126.751 77.0891 127.13 77.5948C127.51 78.1006 127.783 78.6779 127.933 79.2919C128.083 79.906 128.108 80.5441 128.005 81.1679C127.903 81.7917 127.675 82.3884 127.336 82.9219L115.617 103.219L119.672 105.563L131.391 85.2656C132.634 83.1111 132.972 80.5514 132.33 78.148C131.689 75.7445 130.12 73.6937 127.969 72.4453C127.516 72.201 127.046 71.9895 126.563 71.8125V51.5625C126.563 50.3193 127.056 49.127 127.935 48.2479C128.815 47.3689 130.007 46.875 131.25 46.875C132.493 46.875 133.686 47.3689 134.565 48.2479C135.444 49.127 135.938 50.3193 135.938 51.5625V106.992Z" fill="black"/>
<path d="M56.25 121.875H53.9063V105.469C53.9026 105.059 53.798 104.657 53.6016 104.297L37.1953 75.8906C36.4874 74.6764 35.5151 73.6371 34.3507 72.85C33.1862 72.0628 31.8594 71.548 30.4688 71.3438V51.5625C30.4688 49.0761 29.481 46.6915 27.7229 44.9334C25.9647 43.1752 23.5802 42.1875 21.0938 42.1875C18.6074 42.1875 16.2228 43.1752 14.4646 44.9334C12.7065 46.6915 11.7188 49.0761 11.7188 51.5625V107.812C11.7175 108.342 11.8997 108.855 12.2344 109.266L21.0938 120.352V121.875H18.75C18.1284 121.875 17.5323 122.122 17.0927 122.561C16.6532 123.001 16.4063 123.597 16.4063 124.219V142.969C16.4063 143.59 16.6532 144.186 17.0927 144.626C17.5323 145.066 18.1284 145.312 18.75 145.312H56.25C56.8716 145.312 57.4678 145.066 57.9073 144.626C58.3468 144.186 58.5938 143.59 58.5938 142.969V124.219C58.5938 123.597 58.3468 123.001 57.9073 122.561C57.4678 122.122 56.8716 121.875 56.25 121.875ZM16.4063 106.992V51.5625C16.4063 50.3193 16.9001 49.127 17.7792 48.2479C18.6583 47.3689 19.8506 46.875 21.0938 46.875C22.337 46.875 23.5292 47.3689 24.4083 48.2479C25.2874 49.127 25.7813 50.3193 25.7813 51.5625V71.8125C25.2998 71.994 24.8301 72.2053 24.375 72.4453C23.3078 73.0617 22.3726 73.8824 21.6228 74.8606C20.8731 75.8388 20.3236 76.9552 20.0058 78.146C19.688 79.3367 19.6081 80.5784 19.7706 81.8001C19.9332 83.0218 20.335 84.1994 20.9531 85.2656L32.6719 105.563L36.7266 103.219L25.0078 82.9219C24.6687 82.3884 24.4409 81.7917 24.3383 81.1679C24.2357 80.5441 24.2604 79.906 24.4108 79.2919C24.5612 78.6779 24.8342 78.1006 25.2135 77.5948C25.5928 77.0891 26.0705 76.6652 26.6178 76.3489C27.1652 76.0325 27.7709 75.8301 28.3984 75.7539C29.026 75.6776 29.6625 75.7291 30.2697 75.9053C30.8769 76.0814 31.4421 76.3786 31.9315 76.7788C32.4208 77.1791 32.8242 77.6742 33.1172 78.2344L49.2188 106.102V121.875H25.7813V119.531C25.7825 119.002 25.6003 118.488 25.2656 118.078L16.4063 106.992ZM53.9063 140.625H21.0938V126.562H53.9063V140.625Z" fill="black"/>
<path d="M44.5312 131.25H49.2188V135.938H44.5312V131.25Z" fill="black"/>
<path d="M79.6875 133.594H84.375V138.281H79.6875V133.594Z" fill="black"/>
<path d="M65.625 124.219H70.3125V128.906H65.625V124.219Z" fill="black"/>
<defs>
<linearGradient id="paint0_linear" x1="75" y1="35.1562" x2="75" y2="72.6562" gradientUnits="userSpaceOnUse">
<stop stop-color="#1DCDDB"/>
<stop offset="1" stop-color="#31B8FF"/>
</linearGradient>
<linearGradient id="paint1_linear" x1="75" y1="7.03125" x2="75" y2="21.0938" gradientUnits="userSpaceOnUse">
<stop stop-color="#1DCDDB"/>
<stop offset="1" stop-color="#31B8FF"/>
</linearGradient>
</defs>
</svg>
