<svg width="250" height="250" viewBox="0 0 250 250" fill="none" xmlns="http://www.w3.org/2000/svg">
<path d="M229.67 118.555C230.795 103.625 227.32 88.055 222.67 74.135C215.76 53.49 202.34 32.32 179.745 27.435C166.715 24.615 153.46 27.635 142.29 34.695C131.545 41.485 123.165 50.255 109.965 51.955C96.6052 53.675 82.8952 52.955 69.4652 52.955C34.9652 52.955 6.92016 89.23 13.9252 127.01C20.9302 164.79 53.9552 191.01 81.9752 191.01C107.155 191.01 127.87 175.9 151.785 171.845C163.645 169.845 175.555 172.215 187.285 169.2C200.925 165.7 213.755 157.34 221.31 145.235C226.46 137 228.965 127.905 229.67 118.555Z" fill="url(#paint0_linear)"/>
<path opacity="0.7" d="M229.67 118.555C230.795 103.625 227.32 88.055 222.67 74.135C215.76 53.49 202.34 32.32 179.745 27.435C166.715 24.615 153.46 27.635 142.29 34.695C131.545 41.485 123.165 50.255 109.965 51.955C96.6052 53.675 82.8952 52.955 69.4652 52.955C34.9652 52.955 6.92016 89.23 13.9252 127.01C20.9302 164.79 53.9552 191.01 81.9752 191.01C107.155 191.01 127.87 175.9 151.785 171.845C163.645 169.845 175.555 172.215 187.285 169.2C200.925 165.7 213.755 157.34 221.31 145.235C226.46 137 228.965 127.905 229.67 118.555Z" fill="white"/>
<path d="M122.955 62.9199H86.1504V113.945H122.955V62.9199Z" stroke="#263238" stroke-width="1.25474" stroke-miterlimit="10"/>
<path d="M118.431 69.1949H90.6758V107.675H118.431V69.1949Z" stroke="#263238" stroke-width="1.25474" stroke-miterlimit="10"/>
<path d="M190.425 89.27H164.78V124.82H190.425V89.27Z" stroke="#263238" stroke-width="1.25474" stroke-miterlimit="10"/>
<path d="M187.276 93.6399H167.936V120.45H187.276V93.6399Z" stroke="#263238" stroke-width="1.25474" stroke-miterlimit="10"/>
<path d="M223.33 156.59C223.33 156.59 223.83 154.81 223.83 154.695C224.02 153.345 223.59 150.625 222.215 149.96C221.984 149.856 221.734 149.803 221.48 149.802C221.227 149.802 220.976 149.855 220.745 149.957C220.513 150.06 220.306 150.211 220.136 150.399C219.967 150.587 219.839 150.809 219.761 151.05C219.391 152.05 219.856 153.305 220.411 154.16C221.061 155.16 223.325 156.59 223.33 156.59Z" fill="#263238"/>
<path d="M196.23 156C197.325 156.5 200.005 156.42 200.01 156.42C200.015 156.42 199.43 154.665 199.38 154.56C198.795 153.33 196.935 151.3 195.42 151.505C195.17 151.546 194.932 151.638 194.72 151.778C194.509 151.917 194.329 152.099 194.193 152.312C194.056 152.525 193.966 152.765 193.929 153.015C193.892 153.266 193.907 153.521 193.975 153.765C194.225 154.815 195.3 155.595 196.23 156Z" fill="#263238"/>
<path d="M200.39 150.57H200.415C200.355 151 200.295 151.46 200.24 151.97C200.15 152.905 200.055 153.97 200.025 155.12C199.982 156.369 200.012 157.619 200.115 158.865C200.225 160.259 200.457 161.642 200.81 162.995V163.04C200.57 162.665 199.86 161.63 199.81 161.54C198.915 160.51 196.59 159.04 195.185 159.635C194.954 159.74 194.748 159.893 194.58 160.084C194.412 160.274 194.286 160.498 194.21 160.741C194.135 160.984 194.112 161.239 194.142 161.492C194.172 161.744 194.255 161.987 194.385 162.205C194.885 163.145 196.145 163.615 197.15 163.76C198.285 163.925 200.68 163.26 200.87 163.175C201.262 164.54 201.746 165.876 202.32 167.175C202.645 167.935 203 168.675 203.37 169.445C203.15 169.125 202.95 168.845 202.92 168.805C202.03 167.775 199.7 166.305 198.295 166.905C198.061 167.01 197.852 167.165 197.682 167.357C197.512 167.55 197.385 167.777 197.31 168.022C197.235 168.268 197.213 168.527 197.246 168.782C197.279 169.037 197.365 169.281 197.5 169.5C198 170.445 199.26 170.91 200.27 171.06C201.28 171.21 203.34 170.655 203.88 170.505C204.025 170.79 204.165 171.08 204.31 171.37C205 172.745 205.7 174.12 206.34 175.485C206.565 175.985 206.77 176.45 206.98 176.935C206.785 176.65 206.62 176.435 206.59 176.38C205.7 175.35 203.37 173.88 201.965 174.48C201.735 174.585 201.529 174.738 201.362 174.928C201.194 175.119 201.069 175.342 200.993 175.584C200.918 175.826 200.894 176.081 200.924 176.333C200.953 176.585 201.036 176.827 201.165 177.045C201.665 177.99 202.925 178.455 203.935 178.6C204.945 178.745 206.805 178.255 207.435 178.075C207.63 178.575 207.83 179.075 208 179.575C208.105 179.915 208.235 180.235 208.32 180.575C208.405 180.915 208.51 181.255 208.605 181.575C208.76 182.23 208.93 182.9 209.065 183.54C209.165 183.985 209.25 184.41 209.335 184.84C209.115 184.34 208.665 183.42 208.62 183.34C207.895 182.19 205.815 180.385 204.335 180.76C204.092 180.83 203.866 180.95 203.672 181.113C203.478 181.276 203.32 181.477 203.209 181.705C203.097 181.933 203.035 182.181 203.026 182.434C203.017 182.688 203.061 182.94 203.155 183.175C203.525 184.175 204.68 184.84 205.655 185.135C206.725 185.465 209.1 185.165 209.395 185.135C209.54 185.845 209.67 186.535 209.785 187.19C210.145 189.245 210.38 191 210.54 192.3H211.565C211.38 190.975 211.1 189.165 210.675 187.025C210.53 186.305 210.365 185.525 210.175 184.75C210.889 184.458 211.586 184.124 212.26 183.75C213.04 184.595 215.045 185.585 215.3 185.71C215.03 186.38 214.76 187.03 214.495 187.635C213.67 189.535 212.905 191.11 212.32 192.28H213.5C214.03 191.14 214.685 189.69 215.38 187.99C215.66 187.31 215.945 186.58 216.23 185.825C216.52 185.885 218.865 186.36 219.96 186.115C220.96 185.89 222.155 185.33 222.6 184.345C222.714 184.117 222.777 183.868 222.788 183.614C222.798 183.36 222.754 183.107 222.66 182.871C222.566 182.635 222.422 182.422 222.24 182.245C222.057 182.068 221.839 181.932 221.6 181.845C220.155 181.345 217.945 183.005 217.135 184.1C217.09 184.165 216.635 184.925 216.38 185.41C216.495 185.1 216.61 184.8 216.725 184.48C216.955 183.855 217.165 183.22 217.395 182.535C217.495 182.205 217.6 181.865 217.7 181.535C217.8 181.205 217.88 180.835 217.97 180.48C218.17 179.655 218.325 178.805 218.47 177.95C219.02 178.15 220.97 178.835 222.01 178.765C223.05 178.695 224.3 178.32 224.885 177.415C225.031 177.208 225.131 176.972 225.179 176.724C225.227 176.475 225.223 176.219 225.165 175.973C225.108 175.726 225 175.494 224.848 175.292C224.695 175.09 224.502 174.922 224.28 174.8C222.925 174.1 220.49 175.39 219.525 176.35C219.465 176.41 218.85 177.175 218.525 177.605C218.605 177.105 218.69 176.575 218.755 176.05C218.94 174.55 219.085 173 219.255 171.465C219.3 170.995 219.35 170.53 219.4 170.06C219.595 170.135 221.9 171 223.06 170.92C224.06 170.85 225.35 170.475 225.94 169.575C226.086 169.367 226.187 169.131 226.235 168.882C226.283 168.633 226.279 168.376 226.221 168.129C226.163 167.881 226.054 167.649 225.901 167.447C225.747 167.245 225.553 167.077 225.33 166.955C223.975 166.255 221.545 167.545 220.575 168.505C220.505 168.58 219.62 169.685 219.41 169.975C219.52 168.945 219.635 167.92 219.795 166.91C219.999 165.549 220.293 164.202 220.675 162.88C220.765 162.915 223.175 163.83 224.355 163.745C225.355 163.675 226.645 163.305 227.23 162.4C227.376 162.192 227.476 161.956 227.524 161.707C227.572 161.459 227.568 161.202 227.511 160.955C227.454 160.708 227.345 160.476 227.193 160.274C227.04 160.071 226.847 159.903 226.625 159.78C225.27 159.08 222.835 160.37 221.87 161.335C221.805 161.395 221.135 162.235 220.82 162.645L220.745 162.605C221.165 161.285 221.7 160.005 222.345 158.78C222.69 158.1 223.06 157.47 223.435 156.865C223.87 157.08 225.86 158.05 226.935 158.09C228.01 158.13 229.26 157.9 229.935 157.065C230.103 156.875 230.229 156.652 230.304 156.41C230.38 156.169 230.404 155.914 230.374 155.662C230.344 155.41 230.262 155.168 230.132 154.951C230.002 154.733 229.828 154.545 229.62 154.4C228.345 153.555 225.79 154.57 224.72 155.4C224.665 155.445 224.125 155.98 223.72 156.375C223.895 156.105 224.065 155.82 224.22 155.565C224.855 154.605 225.5 153.765 226.075 153.025C226.41 152.605 226.715 152.235 227.005 151.89C227.545 151.89 229.7 151.815 230.645 151.39C231.59 150.965 232.645 150.15 232.845 149.095C232.906 148.85 232.914 148.594 232.87 148.345C232.826 148.096 232.73 147.859 232.589 147.65C232.448 147.44 232.264 147.263 232.05 147.128C231.836 146.994 231.596 146.906 231.345 146.87C229.845 146.71 228.025 148.79 227.47 150.035C227.42 150.14 226.865 151.91 226.895 151.91H226.925C226.64 152.235 226.335 152.59 226.01 152.98C225.415 153.71 224.75 154.54 224.09 155.48C223.362 156.496 222.694 157.555 222.09 158.65C221.412 159.874 220.843 161.156 220.39 162.48V162.525C220.39 162.08 220.39 160.83 220.365 160.735C220.19 159.38 219.06 156.875 217.56 156.595C217.31 156.555 217.053 156.569 216.808 156.635C216.563 156.701 216.335 156.818 216.138 156.979C215.941 157.139 215.78 157.339 215.666 157.566C215.552 157.793 215.487 158.041 215.475 158.295C215.385 159.37 216.165 160.445 216.925 161.12C217.78 161.885 220.16 162.62 220.345 162.685C219.92 164.043 219.586 165.428 219.345 166.83C219.195 167.645 219.075 168.475 218.965 169.305C218.965 168.92 218.965 168.57 218.965 168.525C218.79 167.17 217.655 164.665 216.155 164.385C215.905 164.346 215.649 164.36 215.405 164.427C215.16 164.493 214.932 164.611 214.736 164.771C214.54 164.931 214.38 165.131 214.266 165.358C214.152 165.584 214.087 165.832 214.075 166.085C213.985 167.16 214.765 168.235 215.525 168.91C216.285 169.585 218.305 170.27 218.84 170.445L218.72 171.4C218.54 172.93 218.36 174.46 218.145 175.955C218.065 176.48 217.97 176.995 217.88 177.515C217.88 177.17 217.88 176.88 217.88 176.835C217.705 175.485 216.57 172.975 215.07 172.7C214.82 172.66 214.564 172.674 214.319 172.74C214.074 172.806 213.846 172.924 213.65 173.084C213.453 173.245 213.293 173.445 213.179 173.672C213.066 173.898 213.001 174.147 212.99 174.4C212.9 175.47 213.68 176.545 214.44 177.225C215.2 177.905 217.025 178.52 217.66 178.725C217.55 179.25 217.44 179.78 217.31 180.285C217.21 180.625 217.14 180.96 217.02 181.285C216.9 181.61 216.805 181.96 216.7 182.285C216.47 182.915 216.235 183.565 215.995 184.175C215.835 184.6 215.67 185 215.495 185.405C215.575 184.905 215.715 183.855 215.715 183.77C215.7 182.57 215.376 181.394 214.775 180.355C214.782 180.223 214.774 180.09 214.75 179.96C214.72 179.708 214.637 179.466 214.506 179.248C214.375 179.031 214.2 178.843 213.992 178.698C213.784 178.554 213.547 178.454 213.298 178.407C213.049 178.36 212.792 178.366 212.545 178.425C211.07 178.82 210.135 181.425 210.045 182.77C210.045 182.85 210.09 183.725 210.135 184.27C210.06 183.95 209.99 183.64 209.91 183.31C209.755 182.655 209.585 182.01 209.41 181.31C209.31 180.975 209.205 180.64 209.105 180.31C209.005 179.98 208.865 179.625 208.745 179.28C208.455 178.48 208.12 177.685 207.745 176.895C208.315 176.755 210.34 176.24 211.15 175.62C211.96 175 212.815 173.985 212.805 172.91C212.813 172.656 212.766 172.404 212.669 172.17C212.573 171.936 212.427 171.724 212.243 171.55C212.059 171.375 211.841 171.241 211.602 171.157C211.362 171.073 211.108 171.04 210.855 171.06C209.355 171.225 208.02 173.64 207.745 174.975C207.745 175.06 207.64 176.04 207.6 176.58C207.38 176.105 207.17 175.63 206.935 175.155C206.255 173.79 205.525 172.43 204.805 171.07L204.15 169.815C204.355 169.77 206.77 169.21 207.68 168.51C208.485 167.89 209.34 166.88 209.335 165.8C209.342 165.547 209.295 165.295 209.198 165.061C209.101 164.827 208.956 164.616 208.772 164.441C208.588 164.267 208.37 164.133 208.131 164.049C207.892 163.964 207.638 163.93 207.385 163.95C205.885 164.115 204.55 166.535 204.275 167.87C204.275 167.97 204.125 169.37 204.11 169.74C203.635 168.82 203.165 167.9 202.74 166.97C202.16 165.721 201.659 164.437 201.24 163.125C201.335 163.125 203.86 162.53 204.79 161.815C205.6 161.195 206.455 160.18 206.445 159.105C206.453 158.851 206.406 158.599 206.309 158.365C206.213 158.131 206.067 157.919 205.883 157.745C205.699 157.57 205.481 157.436 205.242 157.352C205.002 157.268 204.748 157.235 204.495 157.255C202.995 157.42 201.66 159.835 201.385 161.17C201.385 161.26 201.27 162.335 201.235 162.845H201.15C200.769 161.513 200.509 160.149 200.375 158.77C200.285 158.01 200.25 157.27 200.225 156.57C200.725 156.515 202.9 156.22 203.81 155.67C204.72 155.12 205.645 154.23 205.755 153.17C205.79 152.919 205.771 152.663 205.701 152.42C205.63 152.176 205.509 151.95 205.345 151.756C205.182 151.563 204.979 151.405 204.751 151.295C204.523 151.184 204.274 151.123 204.02 151.115C202.49 151.115 200.92 153.37 200.52 154.67C200.495 154.74 200.34 155.48 200.24 156.025C200.24 155.705 200.24 155.37 200.24 155.065C200.24 153.91 200.315 152.855 200.385 151.92C200.43 151.385 200.48 150.92 200.535 150.46C200.975 150.155 202.74 148.91 203.285 148.02C203.83 147.13 204.25 145.895 203.855 144.89C203.768 144.652 203.631 144.434 203.454 144.252C203.277 144.07 203.064 143.927 202.828 143.833C202.593 143.738 202.34 143.695 202.086 143.705C201.832 143.714 201.583 143.778 201.355 143.89C200 144.59 199.645 147.32 199.855 148.665C199.855 148.8 200.365 150.585 200.39 150.57Z" fill="#263238"/>
<path d="M130.42 194.11H109.075L93.6553 202.435H116.93L130.42 194.11Z" fill="white" stroke="#263238" stroke-width="1.25474" stroke-linecap="round" stroke-linejoin="round"/>
<path d="M108.855 196.125H124.99" stroke="#263238" stroke-width="1.25474" stroke-linecap="round" stroke-linejoin="round"/>
<path d="M106.375 197.42H122.51" stroke="#263238" stroke-width="1.25474" stroke-linecap="round" stroke-linejoin="round"/>
<path d="M103.9 198.715H120.035" stroke="#263238" stroke-width="1.25474" stroke-linecap="round" stroke-linejoin="round"/>
<path d="M101.425 200.015H117.56" stroke="#263238" stroke-width="1.25474" stroke-linecap="round" stroke-linejoin="round"/>
<path d="M93.6553 202.435V203.87H117.415L116.93 202.435H93.6553Z" fill="white" stroke="#263238" stroke-width="1.25474" stroke-linecap="round" stroke-linejoin="round"/>
<path d="M117.416 203.87L131.046 195.335L130.421 194.11L116.931 202.435L117.416 203.87Z" fill="white" stroke="#263238" stroke-width="1.25474" stroke-linecap="round" stroke-linejoin="round"/>
<path d="M94.0404 202C94.004 201.856 93.9855 201.708 93.9854 201.56C93.9855 201.233 94.0826 200.913 94.2644 200.641C94.4463 200.369 94.7047 200.157 95.0071 200.031C95.3094 199.906 95.6421 199.873 95.9631 199.937C96.284 200.001 96.5789 200.159 96.8103 200.39" stroke="#263238" stroke-width="1.25474" stroke-linecap="round" stroke-linejoin="round"/>
<path d="M96.2054 201C96.1693 200.858 96.1508 200.712 96.1504 200.565C96.1505 200.238 96.2476 199.918 96.4295 199.646C96.6113 199.374 96.8698 199.162 97.1721 199.037C97.4745 198.911 97.8072 198.879 98.1281 198.942C98.4491 199.006 98.7439 199.164 98.9754 199.395" stroke="#263238" stroke-width="1.25474" stroke-linecap="round" stroke-linejoin="round"/>
<path d="M98.2006 200C98.1628 199.858 98.1427 199.712 98.1406 199.565C98.1421 199.238 98.2403 198.918 98.4228 198.647C98.6053 198.375 98.864 198.164 99.1664 198.039C99.4688 197.914 99.8014 197.881 100.122 197.944C100.443 198.008 100.739 198.164 100.971 198.395" stroke="#263238" stroke-width="1.25474" stroke-linecap="round" stroke-linejoin="round"/>
<path d="M100.111 198.955C100.071 198.813 100.05 198.667 100.051 198.52C100.052 198.193 100.15 197.873 100.333 197.602C100.515 197.33 100.774 197.119 101.077 196.993C101.379 196.868 101.712 196.836 102.033 196.899C102.354 196.962 102.649 197.119 102.881 197.35" stroke="#263238" stroke-width="1.25474" stroke-linecap="round" stroke-linejoin="round"/>
<path d="M102.231 197.725C102.195 197.583 102.176 197.437 102.176 197.29C102.176 196.963 102.273 196.643 102.455 196.371C102.637 196.099 102.895 195.887 103.198 195.761C103.5 195.636 103.833 195.603 104.154 195.667C104.474 195.731 104.769 195.889 105.001 196.12" stroke="#263238" stroke-width="1.25474" stroke-linecap="round" stroke-linejoin="round"/>
<path d="M104.5 196.45C104.46 196.309 104.44 196.162 104.44 196.015C104.441 195.688 104.538 195.368 104.72 195.096C104.901 194.824 105.16 194.612 105.462 194.486C105.765 194.361 106.097 194.328 106.418 194.392C106.739 194.456 107.034 194.614 107.265 194.845" stroke="#263238" stroke-width="1.25474" stroke-linecap="round" stroke-linejoin="round"/>
<path d="M105.72 195.685C105.68 195.544 105.66 195.397 105.66 195.25C105.659 194.922 105.756 194.602 105.937 194.329C106.119 194.056 106.377 193.843 106.68 193.717C106.982 193.592 107.315 193.558 107.637 193.622C107.958 193.686 108.253 193.843 108.485 194.075" stroke="#263238" stroke-width="1.25474" stroke-linecap="round" stroke-linejoin="round"/>
<path d="M133.28 199.085C133.28 199.085 134.905 202.665 132.21 203.695L148.21 213.965C148.21 213.965 149.765 214.86 151.745 213.08C153.725 211.3 152.075 207.395 151.185 206.9C150.295 206.405 133.28 199.085 133.28 199.085Z" fill="white" stroke="#263238" stroke-width="1.25474" stroke-linecap="round" stroke-linejoin="round"/>
<path d="M153.33 190.94L132.63 198.885L149.19 207.885C150.058 208.482 150.781 209.266 151.305 210.18C151.401 210.411 151.476 210.651 151.53 210.895C151.629 211.351 151.592 211.825 151.424 212.26C151.257 212.695 150.965 213.071 150.587 213.343C150.208 213.614 149.758 213.769 149.292 213.788C148.826 213.807 148.365 213.69 147.965 213.45L132.21 203.715C132.21 203.715 130.745 203.715 132.42 204.97C133.81 206 144.5 212.5 147.895 214.5C148.239 214.704 148.624 214.828 149.022 214.863C149.421 214.897 149.822 214.842 150.195 214.7L172.78 205.555C173.111 205.337 173.393 205.052 173.608 204.719C173.823 204.386 173.967 204.012 174.03 203.62C174.162 202.84 174.032 202.038 173.661 201.34C173.289 200.641 172.696 200.086 171.975 199.76L153.33 190.94Z" fill="#263238" stroke="#263238" stroke-width="1.25474" stroke-linecap="round" stroke-linejoin="round"/>
<path d="M38.8306 89.9801L35.7656 81.2251L38.8306 84.9451L36.4206 71.8151L40.1456 81.2251L41.4556 62.8401L43.6456 80.3501L46.0556 76.8451V81.2251L48.9006 75.3151L47.3656 85.6051L49.9956 83.8551L45.8356 89.5451L38.8306 89.9801Z" fill="url(#paint1_linear)"/>
<path d="M48.4601 87.7952H37.0801L39.1251 110.775H46.4151L48.4601 87.7952Z" fill="#263238" stroke="#263238" stroke-width="1.25474" stroke-linecap="round" stroke-linejoin="round"/>
<path d="M69.8053 110.51H31.0303V192.645H69.8053V110.51Z" fill="white" stroke="#263238" stroke-width="1.25474" stroke-linecap="round" stroke-linejoin="round"/>
<path d="M71.9349 110.51H50.4199V192.645H71.9349V110.51Z" fill="white" stroke="#263238" stroke-width="1.25474" stroke-linecap="round" stroke-linejoin="round"/>
<path d="M69.5099 110.51H50.4199V192.645H69.5099V110.51Z" fill="#263238" stroke="#263238" stroke-width="1.25474" stroke-linecap="round" stroke-linejoin="round"/>
<path d="M67.3649 173.555H50.4199V190.375H67.3649V173.555Z" fill="url(#paint2_linear)" stroke="#263238" stroke-width="1.25474" stroke-linecap="round" stroke-linejoin="round"/>
<path d="M67.3649 174.465H50.4199V176.62H67.3649V174.465Z" fill="white" stroke="#263238" stroke-width="1.25474" stroke-linecap="round" stroke-linejoin="round"/>
<path d="M67.3649 186.845H50.4199V189H67.3649V186.845Z" fill="white" stroke="#263238" stroke-width="1.25474" stroke-linecap="round" stroke-linejoin="round"/>
<path d="M53.6357 173.9V195.17" stroke="#263238" stroke-width="1.25474" stroke-linecap="round" stroke-linejoin="round"/>
<path d="M59.5449 173.9V195.17" stroke="#263238" stroke-width="1.25474" stroke-linecap="round" stroke-linejoin="round"/>
<path d="M64.7305 173.9V195.17" stroke="#263238" stroke-width="1.25474" stroke-linecap="round" stroke-linejoin="round"/>
<path d="M67.3649 113.565H50.4199V138.295H67.3649V113.565Z" fill="url(#paint3_linear)" stroke="#263238" stroke-width="1.25474" stroke-linecap="round" stroke-linejoin="round"/>
<path d="M67.3649 114.6H50.4199V117.05H67.3649V114.6Z" fill="white" stroke="#263238" stroke-width="1.25474" stroke-linecap="round" stroke-linejoin="round"/>
<path d="M67.3649 130.45H50.4199V132.9H67.3649V130.45Z" fill="white" stroke="#263238" stroke-width="1.25474" stroke-linecap="round" stroke-linejoin="round"/>
<path d="M53.6357 113.96V138.125" stroke="#263238" stroke-width="1.25474" stroke-linecap="round" stroke-linejoin="round"/>
<path d="M59.5449 113.96V138.125" stroke="#263238" stroke-width="1.25474" stroke-linecap="round" stroke-linejoin="round"/>
<path d="M64.7305 113.96V138.125" stroke="#263238" stroke-width="1.25474" stroke-linecap="round" stroke-linejoin="round"/>
<path d="M67.3649 143.37H50.4199V168.1H67.3649V143.37Z" fill="url(#paint4_linear)" stroke="#263238" stroke-width="1.25474" stroke-linecap="round" stroke-linejoin="round"/>
<path d="M67.3649 144.405H50.4199V146.855H67.3649V144.405Z" fill="white" stroke="#263238" stroke-width="1.25474" stroke-linecap="round" stroke-linejoin="round"/>
<path d="M67.3649 160.26H50.4199V162.71H67.3649V160.26Z" fill="white" stroke="#263238" stroke-width="1.25474" stroke-linecap="round" stroke-linejoin="round"/>
<path d="M53.6357 143.765V167.93" stroke="#263238" stroke-width="1.25474" stroke-linecap="round" stroke-linejoin="round"/>
<path d="M59.5449 143.765V167.93" stroke="#263238" stroke-width="1.25474" stroke-linecap="round" stroke-linejoin="round"/>
<path d="M64.7305 143.765V167.93" stroke="#263238" stroke-width="1.25474" stroke-linecap="round" stroke-linejoin="round"/>
<path d="M69.8099 137.955H50.4199V140.765H69.8099V137.955Z" fill="white" stroke="#263238" stroke-width="1.25474" stroke-linecap="round" stroke-linejoin="round"/>
<path d="M69.8099 167.95H50.4199V170.76H69.8099V167.95Z" fill="white" stroke="#263238" stroke-width="1.25474" stroke-linecap="round" stroke-linejoin="round"/>
<path d="M69.8105 110.51V192.645" stroke="#263238" stroke-width="1.25474" stroke-linecap="round" stroke-linejoin="round"/>
<path d="M47.6904 110.51V192.645H50.4204V113.565H69.4754V110.48L47.6904 110.51Z" fill="white" stroke="#263238" stroke-width="1.25474" stroke-linecap="round" stroke-linejoin="round"/>
<path d="M50.4199 113.565V110.51" stroke="#263238" stroke-width="1.25474" stroke-linecap="round" stroke-linejoin="round"/>
<path d="M236.725 192.185H15.0947" stroke="#263238" stroke-width="1.25474" stroke-linecap="round" stroke-linejoin="round"/>
<path d="M130 158.725H95.35C91.05 158.395 90.79 160.105 90.79 160.105L84.29 192.2H127.07C127.295 190.595 130.67 166.86 131.305 163.025C131.97 159.055 130 158.725 130 158.725Z" fill="white" stroke="#263238" stroke-width="1.25474" stroke-linecap="round" stroke-linejoin="round"/>
<path d="M130 158.725H129.935C129.685 158.725 128.75 158.975 128.18 161.535C127.61 164.095 124.355 186.095 123.455 192.2H127.085C127.31 190.595 130.685 166.86 131.32 163.025C131.97 159.055 130 158.725 130 158.725Z" fill="#263238" stroke="#263238" stroke-width="1.25474" stroke-linecap="round" stroke-linejoin="round"/>
<path d="M73.8143 192.2H114.139C113.929 185.895 113.139 163.16 112.539 160.34C111.849 157.06 110.124 156.545 107.709 156.37C105.294 156.195 103.499 156.82 98.6693 156.82C93.8393 156.82 89.1693 156.32 89.1693 156.32C89.1693 156.32 87.2743 156.145 86.2393 156.145C85.2043 156.145 84.5143 156.835 83.1343 156.835C80.6563 156.866 78.1786 156.751 75.7143 156.49C73.1243 156.145 70.0193 157.525 69.5043 160.115C69.0543 162.365 68.0043 186.245 67.7393 192.4H73.8043L73.8143 192.2Z" fill="url(#paint5_linear)" stroke="#263238" stroke-width="1.25474" stroke-linecap="round" stroke-linejoin="round"/>
<path d="M85.46 159.845C85.46 159.845 86.885 166.685 90.87 168.39" stroke="#263238" stroke-width="1.25474" stroke-linecap="round" stroke-linejoin="round"/>
<path d="M81.7542 158.705C81.7542 158.705 79.7542 162.98 82.6092 169.245" stroke="#263238" stroke-width="1.25474" stroke-linecap="round" stroke-linejoin="round"/>
<path d="M105.4 167.54C105.4 167.54 100.845 179.215 90.8701 184.63" stroke="#263238" stroke-width="1.25474" stroke-linecap="round" stroke-linejoin="round"/>
<path d="M86.5947 152.335C86.5947 152.335 86.9397 157.165 87.4547 159.925C87.9697 162.685 90.9047 164.425 94.1847 163.375C97.4647 162.325 98.8397 160.1 99.0147 158.545C99.1897 156.99 99.1847 151.13 99.1847 151.13C99.1847 151.13 93.9997 154.58 86.5947 152.335Z" fill="white" stroke="#263238" stroke-width="1.25474" stroke-linecap="round" stroke-linejoin="round"/>
<path d="M104.295 124.855C104.295 124.855 104.765 124.23 103.515 122.355C102.265 120.48 99.2951 119.23 99.2951 119.23L101.17 121.73C101.17 121.73 95.8601 118.92 93.6701 118.92C91.4801 118.92 86.0001 119.7 86.0001 119.7L88.6551 120.325C88.6551 120.325 82.0951 122.355 81.3151 123.29C80.5351 124.225 76.7851 127.355 77.5651 127.355C78.3451 127.355 82.2501 126.73 82.2501 126.73C82.2501 126.73 78.3451 130.48 78.3451 132.04C78.3451 133.6 81.7801 141.1 81.7801 141.1C81.7801 141.1 84.1251 145.32 84.9051 143.285C85.6851 141.25 84.4351 136.415 84.5951 135.945C84.7551 135.475 93.8101 134.695 95.8401 134.695C97.8701 134.695 97.5601 139.54 98.3401 140.32C99.1201 141.1 102.89 142.5 103.5 142.5C104.11 142.5 105.22 142.035 105.22 141.41C105.259 140.072 105.522 138.75 106 137.5C106.625 135.935 107.405 134.53 107.56 132.655C107.715 130.78 106.625 126.565 106.625 126.565H108.03C108.03 126.565 106.64 124.23 104.295 124.855Z" fill="#263238" stroke="#263238" stroke-width="1.25474" stroke-linecap="round" stroke-linejoin="round"/>
<path d="M82.5845 140C82.5845 140 81.7995 137.035 80.3945 139.065C79.4895 140.375 81.7995 145.625 83.0495 145.94C84.2995 146.255 82.5845 140 82.5845 140Z" fill="white" stroke="#263238" stroke-width="1.25474" stroke-linecap="round" stroke-linejoin="round"/>
<path d="M82.585 134.07C82.585 134.07 82.585 145.475 83.365 148.285C84.145 151.095 87.27 155.315 91.8 155.315C96.33 155.315 99.455 152.97 100.705 151.255C101.955 149.54 102.575 146.1 102.575 146.1C102.575 146.1 103.985 147.195 105.7 145.16C107.415 143.125 107.665 139.515 106.95 139.07C105.7 138.29 104.295 139.225 103.67 139.85L102.42 141.1C102.42 141.1 100.39 139.695 100.39 137.82C100.39 135.945 100.705 132.51 100.705 132.51L99.295 133.445L99.455 132.195C99.455 132.195 99.14 132.51 97.265 132.51C95.39 132.51 90.86 132.82 90.86 132.82L93.205 129.695C93.205 129.695 88.675 131.73 87.115 132.665C85.555 133.6 82.585 134.07 82.585 134.07Z" fill="white" stroke="#263238" stroke-width="1.25474" stroke-linecap="round" stroke-linejoin="round"/>
<path d="M88.4551 140.915C88.4551 141.76 88.1201 142.45 87.7051 142.45C87.2901 142.45 86.9551 141.76 86.9551 140.915C86.9551 140.07 87.2901 139.38 87.7051 139.38C88.1201 139.38 88.4551 140.07 88.4551 140.915Z" fill="#263238"/>
<path d="M95.6846 141.125C95.6846 141.97 95.3496 142.655 94.9346 142.655C94.5196 142.655 94.1846 141.97 94.1846 141.125C94.1846 140.28 94.5196 139.59 94.9346 139.59C95.3496 139.59 95.6846 140.275 95.6846 141.125Z" fill="#263238"/>
<path d="M89.7051 144.54C89.7051 144.54 89.7051 146.735 92.4251 146.21" stroke="#263238" stroke-width="1.25474" stroke-linecap="round" stroke-linejoin="round"/>
<path d="M88.8701 148.5C88.8701 148.5 91.0651 149.855 94.1001 148.395" stroke="#263238" stroke-width="1.25474" stroke-linecap="round" stroke-linejoin="round"/>
<path d="M85 137.95C85.2674 137.463 85.6941 137.083 86.2085 136.874C86.7229 136.665 87.2937 136.638 87.825 136.8" stroke="#263238" stroke-width="1.25474" stroke-linecap="round" stroke-linejoin="round"/>
<path d="M93.4697 136.8C93.4697 136.8 95.9697 136.07 96.9197 137.745" stroke="#263238" stroke-width="1.25474" stroke-linecap="round" stroke-linejoin="round"/>
<path d="M69.8144 159.12L62.8844 178.205C62.8844 178.205 58.4444 181.43 57.9694 182.265C56.7744 184.35 58.3294 187.31 59.7644 188.855C62.0244 191.28 66.6194 191.625 69.3694 189.825C71.1744 188.645 72.2344 186.245 72.9144 184.27L73.6444 167.5" fill="url(#paint6_linear)"/>
<path d="M69.8144 159.12L62.8844 178.205C62.8844 178.205 58.4444 181.43 57.9694 182.265C56.7744 184.35 58.3294 187.31 59.7644 188.855C62.0244 191.28 66.6194 191.625 69.3694 189.825C71.1744 188.645 72.2344 186.245 72.9144 184.27L73.6444 167.5" stroke="#263238" stroke-width="1.25474" stroke-linecap="round" stroke-linejoin="round"/>
<path d="M59.8848 179.88C59.8848 179.88 63.4398 176.955 69.2948 180.3" stroke="#263238" stroke-width="1.25474" stroke-linecap="round" stroke-linejoin="round"/>
<path d="M62.9548 181.31L67.6498 182.31C67.6498 182.31 72.1498 180.475 72.5448 182.515C72.9398 184.555 69.8948 185.17 69.0748 185.17C68.2548 185.17 66.2198 184.965 65.4048 185.17C64.5898 185.375 63.5698 186.39 61.7348 186.595C61.7348 186.595 56.6348 188.635 54.5948 187.41C52.5548 186.185 54.1848 181.91 56.8398 180.475C59.4948 179.04 62.9548 181.31 62.9548 181.31Z" fill="white" stroke="#263238" stroke-width="1.25474" stroke-linecap="round" stroke-linejoin="round"/>
<path d="M52.4997 182.82C52.4997 182.82 50.4997 181.63 49.8697 183.145C49.2397 184.66 47.4047 188.175 48.5497 187.86C49.6947 187.545 52.4997 182.82 52.4997 182.82Z" fill="white" stroke="#263238" stroke-width="1.25474" stroke-linecap="round" stroke-linejoin="round"/>
<path d="M55.6151 180.7C55.6151 180.7 52.3251 180.345 51.9401 181.31C51.2301 183.105 50.3101 188.045 51.7401 188.45C53.1701 188.855 53.5751 185.8 54.3901 183.95C54.8655 182.893 55.2746 181.808 55.6151 180.7Z" fill="white" stroke="#263238" stroke-width="1.25474" stroke-linecap="round" stroke-linejoin="round"/>
<path d="M57.4498 178.66C57.4498 178.66 54.9998 178.455 54.1848 180.09C53.3698 181.725 52.8948 188.26 53.6848 188.26C54.4748 188.26 54.2748 188.905 55.4998 186.26C56.0998 184.965 56.9998 180.705 56.9998 180.705L57.4498 178.66Z" fill="white" stroke="#263238" stroke-width="1.25474" stroke-linecap="round" stroke-linejoin="round"/>
<path d="M63.5443 181.865C63.5443 181.865 60.2943 179.095 59.4393 178.62C58.5843 178.145 58.0043 177.95 57.0493 178.81C56.0943 179.67 55.9043 182.725 55.1443 184.635C54.3843 186.545 53.6143 188.545 54.5693 188.545C55.5243 188.545 56.3843 188.07 57.1443 187.045C57.9043 186.02 59.3443 182.27 59.3443 182.27" fill="white"/>
<path d="M63.5443 181.865C63.5443 181.865 60.2943 179.095 59.4393 178.62C58.5843 178.145 58.0043 177.95 57.0493 178.81C56.0943 179.67 55.9043 182.725 55.1443 184.635C54.3843 186.545 53.6143 188.545 54.5693 188.545C55.5243 188.545 56.3843 188.07 57.1443 187.045C57.9043 186.02 59.3443 182.27 59.3443 182.27" stroke="#263238" stroke-width="1.25474" stroke-linecap="round" stroke-linejoin="round"/>
<path d="M58.8643 184.155C58.8643 184.155 60.0093 184.655 61.6343 183.58L58.8643 184.155Z" fill="white"/>
<path d="M58.8643 184.155C58.8643 184.155 60.0093 184.655 61.6343 183.58" stroke="#263238" stroke-width="1.25474" stroke-linecap="round" stroke-linejoin="round"/>
<path d="M106.91 156.235C106.91 156.235 110.815 155.485 112.71 157.385C114.605 159.285 120.06 173.535 121.96 178.385C123.86 183.235 125.755 186.665 125.235 189.08C124.715 191.495 120.735 192.355 117.82 192.53C114.505 192.725 112.32 190.63 112.32 189.94C112.32 189.25 111.11 187.7 113.355 182.35L111.8 170.965" fill="url(#paint7_linear)"/>
<path d="M106.91 156.235C106.91 156.235 110.815 155.485 112.71 157.385C114.605 159.285 120.06 173.535 121.96 178.385C123.86 183.235 125.755 186.665 125.235 189.08C124.715 191.495 120.735 192.355 117.82 192.53C114.505 192.725 112.32 190.63 112.32 189.94C112.32 189.25 111.11 187.7 113.355 182.35L111.8 170.965" stroke="#263238" stroke-width="1.25474" stroke-linecap="round" stroke-linejoin="round"/>
<path d="M117.099 183.12C117.099 183.12 113.819 181.695 113.269 181.695C112.809 182.252 112.54 182.943 112.504 183.665C112.504 184.76 112.614 189.245 113.159 189.465C113.704 189.685 115.349 188.7 116.444 187.17C117.539 185.64 117.754 183.445 117.099 183.12Z" fill="white" stroke="#263238" stroke-width="1.25474" stroke-linecap="round" stroke-linejoin="round"/>
<path d="M114.695 177L112.835 192.085L113.5 194.5L114.595 192.42L116.565 177.21C116.592 176.965 116.521 176.719 116.367 176.526C116.213 176.333 115.99 176.209 115.745 176.18C115.622 176.163 115.497 176.171 115.377 176.204C115.257 176.236 115.145 176.292 115.047 176.368C114.949 176.445 114.868 176.54 114.807 176.649C114.747 176.757 114.709 176.877 114.695 177Z" fill="white" stroke="#263238" stroke-width="1.25474" stroke-linecap="round" stroke-linejoin="round"/>
<path d="M114.585 192.42L112.835 192.09L113.49 194.5L114.585 192.42Z" fill="white" stroke="#263238" stroke-width="1.25474" stroke-linecap="round" stroke-linejoin="round"/>
<path d="M115.735 176.18C115.612 176.165 115.488 176.174 115.369 176.207C115.25 176.241 115.139 176.297 115.042 176.374C114.945 176.451 114.865 176.546 114.805 176.655C114.745 176.763 114.708 176.882 114.695 177.005L114.455 178.955L116.28 179.32L116.555 177.21C116.582 176.965 116.511 176.719 116.357 176.526C116.204 176.333 115.98 176.209 115.735 176.18Z" fill="white" stroke="#263238" stroke-width="1.25474" stroke-linecap="round" stroke-linejoin="round"/>
<path d="M113.27 181.695C112.725 181.695 111.63 183.12 110.975 183.885C110.32 184.65 110.535 186.29 111.08 187.605C111.625 188.92 111.85 191.325 112.505 191.435C113.16 191.545 113.71 190.89 113.71 189.685C113.71 188.48 113.49 185.965 113.49 185.965" fill="white"/>
<path d="M113.27 181.695C112.725 181.695 111.63 183.12 110.975 183.885C110.32 184.65 110.535 186.29 111.08 187.605C111.625 188.92 111.85 191.325 112.505 191.435C113.16 191.545 113.71 190.89 113.71 189.685C113.71 188.48 113.49 185.965 113.49 185.965" stroke="#263238" stroke-width="1.25474" stroke-linecap="round" stroke-linejoin="round"/>
<path d="M120.6 189.465C120.6 189.465 121.37 191.545 120.495 192.64C119.62 193.735 116.77 193.295 116.225 192.86C115.68 192.425 118.635 191.655 120.6 189.465Z" fill="white" stroke="#263238" stroke-width="1.25474" stroke-linecap="round" stroke-linejoin="round"/>
<path d="M120.275 187.5C120.565 187.821 120.76 188.217 120.837 188.643C120.914 189.069 120.87 189.508 120.71 189.91C120.165 191.33 118.21 192.535 116.77 192.755C115.33 192.975 114.145 192.205 114.805 191.755C115.465 191.305 118.74 189.14 120.275 187.5Z" fill="white" stroke="#263238" stroke-width="1.25474" stroke-linecap="round" stroke-linejoin="round"/>
<path d="M118.96 185.09C118.96 185.09 120.275 186.29 120.275 187.495C120.275 188.7 117.1 191.545 115.57 192.09C114.04 192.635 113.27 192.09 113.71 191.09C114.15 190.09 118.525 185.185 118.525 185.185C118.525 185.185 118.305 184.87 118.96 185.09Z" fill="white" stroke="#263238" stroke-width="1.25474" stroke-linecap="round" stroke-linejoin="round"/>
<path d="M115.24 185.09C115.24 185.09 112.835 189.245 112.505 190.56C112.175 191.875 113.38 191.875 114.145 191.325C114.91 190.775 118.525 186.4 118.96 185.09C119.395 183.78 118.635 182.355 117.21 182.59C115.785 182.825 115.24 185.09 115.24 185.09Z" fill="white" stroke="#263238" stroke-width="1.25474" stroke-linecap="round" stroke-linejoin="round"/>
<path d="M201.915 192.175C202.625 186.995 205.47 166.235 206.05 162.77C206.71 158.8 204.725 158.47 204.725 158.47H170.09C165.79 158.14 165.53 159.85 165.53 159.85L159.2 192.175H201.915Z" fill="white" stroke="#263238" stroke-width="1.25474" stroke-linecap="round" stroke-linejoin="round"/>
<path d="M201.915 192.175C202.625 186.995 205.47 166.235 206.05 162.77C206.71 158.8 204.725 158.47 204.725 158.47H204.66C204.41 158.47 203.475 158.72 202.91 161.28C202.37 163.705 199.375 184.78 198.295 192.175H201.915Z" fill="#263238" stroke="#263238" stroke-width="1.25474" stroke-linecap="round" stroke-linejoin="round"/>
<path d="M131.316 192.175C133.956 189.285 142.371 180.085 144.496 177.955C147.031 175.42 148.961 173.01 148.961 173.01L149.686 192.175H189.846C189.801 191.915 187.536 177.505 185.626 167.585C183.696 157.585 181.766 148.045 177.426 142.015C173.086 135.985 160.176 129.835 160.176 129.835L149.081 138.5C149.081 138.5 145.826 142.36 144.861 146.1C143.896 149.84 141.481 159.365 140.396 163.1C139.396 166.525 127.076 188.5 125.016 192.155L131.316 192.175Z" fill="url(#paint8_linear)" stroke="#263238" stroke-width="1.25474" stroke-linecap="round" stroke-linejoin="round"/>
<path d="M176.65 159.135C178.79 169.365 180.675 178.775 182.65 188.75" stroke="#263238" stroke-width="1.25474" stroke-linecap="round" stroke-linejoin="round"/>
<path d="M167.725 162.11C169.38 170.61 170.635 180.03 172.275 188.79" stroke="#263238" stroke-width="1.25474" stroke-linecap="round" stroke-linejoin="round"/>
<path d="M158 143.715C159.36 158.715 160.61 173.755 162.33 188.715" stroke="#263238" stroke-width="1.25474" stroke-linecap="round" stroke-linejoin="round"/>
<path d="M149.056 147.775C150.556 161.835 151.816 175.01 153.586 188.8" stroke="#263238" stroke-width="1.25474" stroke-linecap="round" stroke-linejoin="round"/>
<path d="M145.811 150.75C145.811 150.75 141.756 168.875 139.591 173.75" stroke="#263238" stroke-width="1.25474" stroke-linecap="round" stroke-linejoin="round"/>
<path d="M146.89 164.545C146.89 164.545 144.46 174.545 142.565 178.34" stroke="#263238" stroke-width="1.25474" stroke-linecap="round" stroke-linejoin="round"/>
<path d="M160.42 135.06L166.64 139.385" stroke="#263238" stroke-width="1.25474" stroke-linecap="round" stroke-linejoin="round"/>
<path d="M148.961 173.01L146.911 156.61" stroke="#263238" stroke-width="1.25474" stroke-linecap="round" stroke-linejoin="round"/>
<path d="M131.315 192.175C133.815 189.43 141.52 181.01 144.08 178.38C141.94 176.98 138.29 174.6 135.715 172.965C132.01 180.155 126.385 189.845 125.025 192.175H131.315Z" fill="white" stroke="#263238" stroke-width="1.25474" stroke-linecap="round" stroke-linejoin="round"/>
<path d="M134 176.145C134 176.145 141 181.21 141.6 181.21C142.2 181.21 145.7 177.71 145.94 176.99C146.18 176.27 137.5 170.355 137 170.355C136.5 170.355 134 174.46 134 176.145Z" fill="white" stroke="#263238" stroke-width="1.25474" stroke-linecap="round" stroke-linejoin="round"/>
<path d="M150.771 142.375L151.975 155.04L154.145 154.56L153.905 151.785" stroke="#263238" stroke-width="1.25474" stroke-linecap="round" stroke-linejoin="round"/>
<path d="M145.706 140.565L145.101 145.51L149.566 140.93L145.706 140.565Z" fill="white" stroke="#263238" stroke-width="1.25474" stroke-linecap="round" stroke-linejoin="round"/>
<path d="M148.235 136.465L145.705 140.565L152.58 143.22L154.505 138.155L148.235 136.465Z" fill="white" stroke="#263238" stroke-width="1.25474" stroke-linecap="round" stroke-linejoin="round"/>
<path d="M130.025 108.725C130.025 108.725 129.06 114.88 129.42 116.085C129.78 117.29 131.35 118.74 131.47 119.825C131.59 120.91 128.7 124.645 129.54 125.61C130.38 126.575 132.195 127.3 132.195 127.3C132.195 127.3 135.815 136.83 137.5 137.19C139.185 137.55 144.62 134.66 144.62 134.66C144.62 134.66 151.37 140.81 151.735 141.16C152.1 141.51 158.85 127.895 158.85 127.895C158.85 127.895 155.85 121.985 155.85 121.62C155.85 121.255 160.555 108.355 160.31 103.17C160.065 97.9849 145.235 92.9199 142.22 93.3999C139.205 93.8799 132.815 97.3999 132.815 97.3999C132.815 97.3999 135.105 95.4699 133.175 95.5899C131.245 95.7099 125.455 100.055 125.7 103.79C125.945 107.525 130.025 108.725 130.025 108.725Z" fill="white" stroke="#263238" stroke-width="1.25474" stroke-linecap="round" stroke-linejoin="round"/>
<path d="M150.65 128.385C151.855 125.01 149.2 118.615 149.44 117.17C149.68 115.725 150.89 112.225 153.06 112.225C155.23 112.225 154.87 116.565 154.63 118.375C154.401 119.651 153.951 120.878 153.3 122C153.3 122 154.72 121.745 155.845 121.57C156.12 120.485 160.53 108.21 160.295 103.185C160.055 97.9999 145.22 92.9349 142.205 93.4149C139.19 93.8949 132.8 97.4149 132.8 97.4149C132.8 97.4149 135.09 95.4849 133.16 95.6049C131.23 95.7249 125.44 100.07 125.685 103.805C125.93 107.54 130.025 108.75 130.025 108.75C130.025 108.75 137.745 104.895 140.525 104.53C143.305 104.165 139.685 107.185 139.44 108.875C139.195 110.565 143.44 111.875 144.99 113.335C146.54 114.795 147.52 124.07 146.56 126.24C145.6 128.41 141.01 127.325 138.84 126.48C136.67 125.635 132.205 127.325 132.205 127.325C132.205 127.325 135.825 136.855 137.51 137.215C138.435 137.415 140.475 136.635 142.135 135.895L144.635 134.685C144.635 134.685 149.44 131.765 150.65 128.385Z" fill="#263238" stroke="#263238" stroke-width="1.25474" stroke-linecap="round" stroke-linejoin="round"/>
<path d="M135.195 119.575C135.385 120.35 135.305 121.035 135.015 121.11C134.725 121.185 134.33 120.61 134.14 119.83C133.95 119.05 134.03 118.37 134.32 118.295C134.61 118.22 135 118.795 135.195 119.575Z" fill="#263238"/>
<path d="M134 129.47C134 129.47 136.41 129.47 137.74 127.54" stroke="#7D7D7D" stroke-width="1.25474" stroke-linecap="round" stroke-linejoin="round"/>
<path d="M132.075 116.565C132.075 116.565 132.435 114.88 135.45 116.065" stroke="#263238" stroke-width="2.50947" stroke-linecap="round" stroke-linejoin="round"/>
<path d="M158.365 125.855L150.045 142.135L154.505 147.685L162.105 129.715L158.365 125.855Z" fill="white" stroke="#263238" stroke-width="1.25474" stroke-linecap="round" stroke-linejoin="round"/>
<path d="M168.136 140.445C168.136 140.445 164.396 139.945 162.951 141.05C161.506 142.155 154.146 159.5 154.146 159.5C156.344 160.137 158.312 161.394 159.816 163.12C162.106 165.895 163.816 170.84 163.816 170.84C163.816 170.84 173.586 158.9 175.391 156.245" fill="url(#paint9_linear)"/>
<path d="M168.136 140.445C168.136 140.445 164.396 139.945 162.951 141.05C161.506 142.155 154.146 159.5 154.146 159.5C156.344 160.137 158.312 161.394 159.816 163.12C162.106 165.895 163.816 170.84 163.816 170.84C163.816 170.84 173.586 158.9 175.391 156.245" stroke="#263238" stroke-width="1.25474" stroke-linecap="round" stroke-linejoin="round"/>
<path d="M168.805 142.905C168.805 142.905 165.56 143.175 164.475 145.07C163.39 146.965 155 164.275 155 164.275L158.5 167.25C158.5 167.25 165.805 151.83 167.97 149.125C169.389 147.45 171.271 146.233 173.38 145.625" stroke="#263238" stroke-width="1.25474" stroke-linecap="round" stroke-linejoin="round"/>
<path d="M173.945 151.02L162.04 167.52" stroke="#263238" stroke-width="1.25474" stroke-linecap="round" stroke-linejoin="round"/>
<path d="M152.335 158.66C152.335 158.66 149.08 160.71 149.08 163C149.08 165.29 151.975 170.5 155.11 173C158.245 175.5 161.02 174.81 162.61 173.725C164.2 172.64 168.035 172.035 168.275 167.695C168.515 163.355 162.61 157.08 160.075 156.235C157.54 155.39 152.335 158.66 152.335 158.66Z" fill="white" stroke="#263238" stroke-width="1.25474" stroke-linecap="round" stroke-linejoin="round"/>
<path d="M99.2706 173C99.2706 173 97.9456 174.205 96.6156 175.17C95.2856 176.135 93.8456 176.86 95.0506 177.465C96.2556 178.07 97.5806 177.585 98.9106 177.34C100.241 177.095 101.806 176.74 101.911 175.775C102.016 174.81 101.806 171.925 99.2706 173Z" fill="white" stroke="#263238" stroke-width="1.25474" stroke-linecap="round" stroke-linejoin="round"/>
<path d="M160.66 172.53C160.66 172.53 162.59 169.15 160.78 165.775C158.97 162.4 155.47 160.83 153.28 160.83C151.09 160.83 114.085 171.2 114.085 171.2C114.085 171.2 102.87 168.065 101.54 168.55C100.21 169.035 92.2554 173.37 90.4454 174.215C88.6354 175.06 88.6354 176.145 89.4804 176.265C90.3254 176.385 92.4804 175.665 93.5804 175.3C94.6804 174.935 98.2854 173.615 98.2854 173.615C97.9819 174.48 97.7396 175.366 97.5604 176.265C97.5604 176.765 100.94 178.56 101.56 178.56C102.18 178.56 104.215 178.92 105.66 178.44C107.105 177.96 105.06 175.905 105.06 175.905L107.59 174.82C107.59 174.82 110.125 176.145 112.295 176.025C113.469 175.999 114.623 175.71 115.67 175.18C115.67 175.18 154.87 174.095 160.66 172.53Z" fill="white" stroke="#263238" stroke-width="1.25474" stroke-linecap="round" stroke-linejoin="round"/>
<path d="M100.5 172.53C100.5 172.53 98.935 175.53 99.295 176.145C99.655 176.76 102.795 178.44 102.795 178.44" stroke="#263238" stroke-width="1.25474" stroke-linecap="round" stroke-linejoin="round"/>
<path d="M103 172.65C103 172.65 101.43 175.65 101.915 176.265C102.4 176.88 105.65 178.44 105.65 178.44" stroke="#263238" stroke-width="1.25474" stroke-linecap="round" stroke-linejoin="round"/>
<path d="M98.3057 173.615L98.5457 172.53" stroke="#263238" stroke-width="1.25474" stroke-linecap="round" stroke-linejoin="round"/>
<path d="M95.6347 191.835H55.2247L39.8047 200.165H82.1397L95.6347 191.835Z" fill="white" stroke="#263238" stroke-width="1.25474" stroke-linecap="round" stroke-linejoin="round"/>
<path d="M57.8691 194.015H87.7041" stroke="#263238" stroke-width="1.25474" stroke-linecap="round" stroke-linejoin="round"/>
<path d="M55.6943 195.565H85.5293" stroke="#263238" stroke-width="1.25474" stroke-linecap="round" stroke-linejoin="round"/>
<path d="M53.5146 197.12H83.3547" stroke="#263238" stroke-width="1.25474" stroke-linecap="round" stroke-linejoin="round"/>
<path d="M87.8595 194.015L79.3145 198.21" stroke="#263238" stroke-width="1.25474" stroke-linecap="round" stroke-linejoin="round"/>
<path d="M83.1993 194.015L74.6543 198.21" stroke="#263238" stroke-width="1.25474" stroke-linecap="round" stroke-linejoin="round"/>
<path d="M32.5742 171.1H74.9142L82.1392 200.165H39.8042L32.5742 171.1Z" fill="#263238" stroke="#263238" stroke-width="1.25474" stroke-linecap="round" stroke-linejoin="round"/>
<path d="M39.7987 202.23H82.1387V200.165H39.7987V202.23Z" fill="white" stroke="#263238" stroke-width="1.25474" stroke-linecap="round" stroke-linejoin="round"/>
<path d="M32.1045 171.1H74.4445L81.6745 200.165H39.3345L32.1045 171.1Z" fill="white" stroke="#263238" stroke-width="1.25474" stroke-linecap="round" stroke-linejoin="round"/>
<path d="M82.1387 200.165L95.6337 191.835V193.545L82.1387 202.23V200.165Z" fill="#263238" stroke="#263238" stroke-width="1.25474" stroke-linecap="round" stroke-linejoin="round"/>
<path d="M58.7302 184.75C58.7969 185.184 58.7363 185.627 58.5558 186.027C58.3753 186.426 58.0827 186.765 57.7134 187.002C57.3441 187.238 56.9141 187.363 56.4756 187.359C56.0371 187.356 55.6089 187.226 55.243 186.984C54.8771 186.743 54.5892 186.4 54.4144 185.998C54.2395 185.595 54.1852 185.151 54.258 184.719C54.3307 184.286 54.5275 183.884 54.8243 183.561C55.1212 183.239 55.5054 183.009 55.9302 182.9C56.5467 182.776 57.1872 182.901 57.7118 183.248C58.2364 183.594 58.6026 184.134 58.7302 184.75V184.75Z" stroke="#263238" stroke-width="1.25474" stroke-linecap="round" stroke-linejoin="round"/>
<defs>
<linearGradient id="paint0_linear" x1="121.364" y1="26.3868" x2="121.364" y2="191.01" gradientUnits="userSpaceOnUse">
<stop stop-color="#1DCDDB"/>
<stop offset="1" stop-color="#31B8FF"/>
</linearGradient>
<linearGradient id="paint1_linear" x1="42.8806" y1="62.8401" x2="42.8806" y2="89.9801" gradientUnits="userSpaceOnUse">
<stop stop-color="#1DCDDB"/>
<stop offset="1" stop-color="#31B8FF"/>
</linearGradient>
<linearGradient id="paint2_linear" x1="58.8924" y1="173.555" x2="58.8924" y2="190.375" gradientUnits="userSpaceOnUse">
<stop stop-color="#1DCDDB"/>
<stop offset="1" stop-color="#31B8FF"/>
</linearGradient>
<linearGradient id="paint3_linear" x1="58.8924" y1="113.565" x2="58.8924" y2="138.295" gradientUnits="userSpaceOnUse">
<stop stop-color="#1DCDDB"/>
<stop offset="1" stop-color="#31B8FF"/>
</linearGradient>
<linearGradient id="paint4_linear" x1="58.8924" y1="143.37" x2="58.8924" y2="168.1" gradientUnits="userSpaceOnUse">
<stop stop-color="#1DCDDB"/>
<stop offset="1" stop-color="#31B8FF"/>
</linearGradient>
<linearGradient id="paint5_linear" x1="90.9393" y1="156.145" x2="90.9393" y2="192.4" gradientUnits="userSpaceOnUse">
<stop stop-color="#1DCDDB"/>
<stop offset="1" stop-color="#31B8FF"/>
</linearGradient>
<linearGradient id="paint6_linear" x1="65.5942" y1="159.12" x2="65.5942" y2="190.963" gradientUnits="userSpaceOnUse">
<stop stop-color="#1DCDDB"/>
<stop offset="1" stop-color="#31B8FF"/>
</linearGradient>
<linearGradient id="paint7_linear" x1="116.116" y1="156.089" x2="116.116" y2="192.543" gradientUnits="userSpaceOnUse">
<stop stop-color="#1DCDDB"/>
<stop offset="1" stop-color="#31B8FF"/>
</linearGradient>
<linearGradient id="paint8_linear" x1="157.431" y1="129.835" x2="157.431" y2="192.175" gradientUnits="userSpaceOnUse">
<stop stop-color="#1DCDDB"/>
<stop offset="1" stop-color="#31B8FF"/>
</linearGradient>
<linearGradient id="paint9_linear" x1="164.768" y1="140.332" x2="164.768" y2="170.84" gradientUnits="userSpaceOnUse">
<stop stop-color="#1DCDDB"/>
<stop offset="1" stop-color="#31B8FF"/>
</linearGradient>
</defs>
</svg>
