<svg width="200" height="200" viewBox="0 0 200 200" fill="none" xmlns="http://www.w3.org/2000/svg">
<path d="M100 171.024C142.833 171.024 177.556 168.997 177.556 166.496C177.556 163.996 142.833 161.968 100 161.968C57.167 161.968 22.444 163.996 22.444 166.496C22.444 168.997 57.167 171.024 100 171.024Z" fill="#F5F5F5"/>
<path opacity="0.7" d="M140.148 139.112H90.852C89.2149 139.122 87.5932 138.795 86.0876 138.152C84.582 137.509 83.2245 136.564 82.0994 135.374C80.9743 134.185 80.1054 132.777 79.5468 131.238C78.9882 129.699 78.7517 128.062 78.852 126.428L83.068 45.9641C83.416 38.9881 89.42 33.2801 96.4 33.2801H145.696C147.335 33.2677 148.959 33.5925 150.467 34.2342C151.975 34.876 153.335 35.821 154.462 37.0106C155.589 38.2001 156.46 39.6088 157.02 41.1491C157.579 42.6894 157.816 44.3284 157.716 45.9641L153.496 126.428C153.132 133.404 147.124 139.112 140.148 139.112Z" fill="url(#paint0_linear)"/>
<path d="M111.036 28.644H107.968V29.044H111.036V28.644Z" fill="url(#paint1_linear)"/>
<path d="M105.348 28.644H94.6801V29.044H105.348V28.644Z" fill="url(#paint2_linear)"/>
<path d="M77.7392 56.0815L77.5787 59.1133L77.9782 59.1344L78.1387 56.1027L77.7392 56.0815Z" fill="url(#paint3_linear)"/>
<path opacity="0.6" d="M137.312 136.28H88.0001C86.3633 136.29 84.742 135.963 83.2367 135.32C81.7314 134.678 80.3741 133.732 79.249 132.544C78.1239 131.355 77.255 129.948 76.6962 128.409C76.1373 126.871 75.9004 125.234 76.0001 123.6L80.2201 43.1321C80.5841 36.1561 86.5921 30.4481 93.5681 30.4481H142.86C144.499 30.4357 146.123 30.7605 147.631 31.4022C149.139 32.044 150.499 32.989 151.626 34.1785C152.753 35.3681 153.624 36.7768 154.184 38.3171C154.743 39.8574 154.981 41.4963 154.88 43.1321L150.664 123.6C150.296 130.572 144.288 136.28 137.312 136.28Z" fill="url(#paint4_linear)"/>
<path d="M97.236 124.892C85.516 124.892 74.732 120.328 66.868 112.044C59.004 103.76 54.988 92.7 55.604 80.956C56.0331 73.1621 58.4498 65.6078 62.624 59.012C66.7112 52.5469 72.2918 47.1583 78.896 43.3C78.9204 43.29 78.9477 43.29 78.972 43.3C78.9985 43.3076 79.0213 43.3246 79.036 43.348L83.072 51.048C83.216 50.968 83.36 50.888 83.508 50.812L83.664 50.724C83.6887 50.716 83.7153 50.716 83.74 50.724C83.7532 50.7279 83.7653 50.7345 83.7757 50.7435C83.786 50.7525 83.7943 50.7635 83.8 50.776L84.904 52.876C84.9156 52.8989 84.9179 52.9254 84.9104 52.95C84.903 52.9746 84.8864 52.9953 84.864 53.008C74.596 58.748 67.84 69.464 67.24 80.98C66.784 89.612 69.724 97.728 75.516 103.828C78.3899 106.849 81.8545 109.246 85.6942 110.87C89.534 112.495 93.6669 113.313 97.836 113.272C97.8497 113.272 97.8632 113.274 97.8756 113.28C97.8881 113.285 97.8992 113.294 97.908 113.304C97.9179 113.313 97.9255 113.324 97.9304 113.337C97.9352 113.349 97.9372 113.363 97.936 113.376L97.336 124.816C97.3313 124.839 97.3186 124.859 97.3002 124.873C97.2818 124.887 97.2591 124.893 97.236 124.892ZM78.904 43.528C65.452 51.408 56.6 65.744 55.8 80.964C55.188 92.656 59.172 103.644 67 111.904C74.828 120.164 85.5 124.668 97.132 124.704L97.72 113.468C93.5417 113.494 89.4023 112.664 85.5568 111.029C81.7113 109.395 78.2411 106.99 75.36 103.964C69.532 97.82 66.56 89.652 67.028 80.968C67.632 69.416 74.388 58.66 84.668 52.876L83.66 50.952L83.588 50.992C83.416 51.084 83.24 51.176 83.072 51.276C83.0464 51.2862 83.0177 51.2862 82.992 51.276C82.9666 51.2682 82.9452 51.2511 82.932 51.228L78.904 43.528Z" fill="url(#paint5_linear)"/>
<path d="M100.084 129.064C100.055 129.064 100.028 129.052 100.008 129.032C99.9992 129.022 99.9926 129.009 99.9885 128.996C99.9844 128.983 99.9828 128.97 99.984 128.956L100.624 116.72C100.626 116.695 100.637 116.671 100.656 116.654C100.675 116.637 100.699 116.628 100.724 116.628C119.784 116.628 136.104 101.12 137.104 82.0559C137.106 82.0308 137.118 82.0074 137.136 81.9904C137.155 81.9733 137.179 81.9639 137.204 81.964H140.116C140.129 81.9634 140.142 81.9655 140.154 81.9701C140.166 81.9747 140.177 81.9816 140.187 81.9906C140.196 81.9996 140.203 82.0103 140.208 82.0223C140.213 82.0342 140.216 82.047 140.216 82.0599C140.24 83.0519 140.216 84.06 140.18 85.04H149.176C149.19 85.0396 149.203 85.0423 149.216 85.0479C149.228 85.0534 149.239 85.0616 149.248 85.0719C149.267 85.0945 149.276 85.1228 149.276 85.152C147.858 96.6679 142.467 107.328 134.032 115.296C124.82 124.044 112.448 129.064 100.084 129.064ZM100.82 116.828L100.188 128.864C112.468 128.836 124.748 123.84 133.892 115.148C142.267 107.242 147.631 96.668 149.064 85.24H140.076C140.061 85.24 140.046 85.2363 140.033 85.2294C140.02 85.2224 140.009 85.2123 140 85.2C139.99 85.1911 139.982 85.1799 139.977 85.1674C139.972 85.1548 139.971 85.1413 139.972 85.128C140.024 84.144 140.036 83.1279 140.016 82.1559H137.296C136.248 101.252 119.912 116.776 100.82 116.828Z" fill="url(#paint6_linear)"/>
<path d="M140.116 82.1638C140.09 82.1628 140.065 82.152 140.046 82.1334C140.028 82.1149 140.017 82.09 140.016 82.0638C139.508 61.8518 123.216 46.0198 102.908 46.0198C96.2207 46.0357 89.6417 47.7096 83.76 50.8918C83.7486 50.8988 83.7359 50.9032 83.7227 50.9049C83.7094 50.9066 83.696 50.9056 83.6832 50.9018C83.6704 50.8981 83.6585 50.8917 83.6484 50.8831C83.6382 50.8745 83.6299 50.8638 83.624 50.8518C83.6123 50.8283 83.6098 50.8012 83.6173 50.776C83.6247 50.7507 83.6414 50.7292 83.664 50.7158C89.5752 47.5179 96.1872 45.8357 102.908 45.8198C112.653 45.7074 122.046 49.4555 129.036 56.2457C136.026 63.0358 140.045 72.3161 140.216 82.0598C140.217 82.073 140.214 82.0861 140.21 82.0984C140.205 82.1108 140.199 82.1221 140.19 82.1317C140.181 82.1414 140.17 82.1492 140.158 82.1547C140.146 82.1602 140.133 82.1633 140.12 82.1638H140.116Z" fill="url(#paint7_linear)"/>
<path d="M153.92 85.24H149.176C149.149 85.24 149.124 85.2295 149.105 85.2108C149.087 85.192 149.076 85.1666 149.076 85.14C149.076 85.1135 149.087 85.0881 149.105 85.0693C149.124 85.0506 149.149 85.04 149.176 85.04H153.824C154.314 75.8958 152.343 66.7874 148.116 58.664C141.92 46.876 131.348 38.264 118.344 34.408C104.512 30.304 89.788 32.008 76.872 39.208L79.036 43.328C79.0474 43.352 79.0492 43.3795 79.041 43.4048C79.0329 43.4301 79.0153 43.4513 78.992 43.464C78.9802 43.4702 78.9673 43.474 78.954 43.4751C78.9408 43.4763 78.9274 43.4747 78.9147 43.4706C78.9021 43.4665 78.8903 43.46 78.8803 43.4513C78.8702 43.4426 78.8619 43.432 78.856 43.42L76.652 39.216C76.6457 39.2048 76.6418 39.1924 76.6404 39.1796C76.6391 39.1668 76.6403 39.1539 76.644 39.1416C76.6478 39.1293 76.6539 39.1178 76.6622 39.1079C76.6704 39.0981 76.6805 39.0899 76.692 39.084C83.1357 35.4551 90.2483 33.1704 97.6 32.368C104.587 31.5892 111.66 32.2175 118.4 34.216C131.456 38.088 142.072 46.736 148.292 58.572C152.552 66.7547 154.53 75.9331 154.02 85.144C154.019 85.1699 154.008 85.1943 153.989 85.2122C153.971 85.2301 153.946 85.2401 153.92 85.24Z" fill="url(#paint8_linear)"/>
<path d="M83.032 51.2761H83.004C82.9787 51.2684 82.9572 51.2512 82.944 51.2281L78.856 43.4361C78.8438 43.4123 78.8416 43.3845 78.8499 43.359C78.8581 43.3335 78.8762 43.3123 78.9 43.3001C78.9239 43.2879 78.9517 43.2857 78.9772 43.294C79.0027 43.3022 79.0238 43.3203 79.036 43.3441L83.072 51.0441C83.216 50.9641 83.36 50.8841 83.508 50.8081L83.664 50.7201C83.6758 50.714 83.6887 50.7102 83.702 50.709C83.7153 50.7079 83.7286 50.7094 83.7413 50.7135C83.754 50.7176 83.7657 50.7242 83.7758 50.7329C83.7859 50.7416 83.7941 50.7522 83.8 50.7641C83.8063 50.7754 83.8102 50.7878 83.8116 50.8006C83.813 50.8134 83.8117 50.8263 83.808 50.8386C83.8043 50.8509 83.7981 50.8624 83.7899 50.8722C83.7816 50.8821 83.7715 50.8903 83.76 50.8961L83.6 50.9841C83.428 51.0761 83.2521 51.1681 83.0841 51.2681C83.0676 51.2749 83.0498 51.2776 83.032 51.2761Z" fill="url(#paint9_linear)"/>
<g opacity="0.3">
<path opacity="0.3" d="M97.236 124.892C85.516 124.892 74.732 120.328 66.868 112.044C59.004 103.76 54.988 92.7 55.604 80.956C56.0331 73.1621 58.4498 65.6078 62.624 59.012C66.7112 52.5469 72.2918 47.1583 78.896 43.3C78.9204 43.29 78.9477 43.29 78.972 43.3C78.9985 43.3076 79.0213 43.3246 79.036 43.348L83.072 51.048C83.216 50.968 83.36 50.888 83.508 50.812L83.664 50.724C83.6887 50.716 83.7153 50.716 83.74 50.724C83.7532 50.7279 83.7653 50.7345 83.7757 50.7435C83.786 50.7525 83.7943 50.7635 83.8 50.776L84.904 52.876C84.9156 52.8989 84.9179 52.9254 84.9104 52.95C84.903 52.9746 84.8864 52.9953 84.864 53.008C74.596 58.748 67.84 69.464 67.24 80.98C66.784 89.612 69.724 97.728 75.516 103.828C78.3899 106.849 81.8545 109.246 85.6942 110.87C89.534 112.495 93.6669 113.313 97.836 113.272C97.8497 113.272 97.8632 113.274 97.8756 113.28C97.8881 113.285 97.8992 113.294 97.908 113.304C97.9179 113.313 97.9255 113.324 97.9304 113.337C97.9352 113.349 97.9372 113.363 97.936 113.376L97.336 124.816C97.3313 124.839 97.3186 124.859 97.3002 124.873C97.2818 124.887 97.2591 124.893 97.236 124.892ZM78.904 43.528C65.452 51.408 56.6 65.744 55.8 80.964C55.188 92.656 59.172 103.644 67 111.904C74.828 120.164 85.5 124.668 97.132 124.704L97.72 113.468C93.5417 113.494 89.4023 112.664 85.5568 111.029C81.7113 109.395 78.2411 106.99 75.36 103.964C69.532 97.82 66.56 89.652 67.028 80.968C67.632 69.416 74.388 58.66 84.668 52.876L83.66 50.952L83.588 50.992C83.416 51.084 83.24 51.176 83.072 51.276C83.0464 51.2862 83.0177 51.2862 82.992 51.276C82.9666 51.2682 82.9452 51.2511 82.932 51.228L78.904 43.528Z" fill="white"/>
<path opacity="0.3" d="M100.084 129.064C100.055 129.064 100.028 129.052 100.008 129.032C99.9992 129.022 99.9926 129.009 99.9885 128.996C99.9844 128.983 99.9828 128.97 99.984 128.956L100.624 116.72C100.626 116.695 100.637 116.671 100.656 116.654C100.675 116.637 100.699 116.628 100.724 116.628C119.784 116.628 136.104 101.12 137.104 82.0559C137.106 82.0308 137.118 82.0074 137.136 81.9904C137.155 81.9733 137.179 81.9639 137.204 81.964H140.116C140.129 81.9634 140.142 81.9655 140.154 81.9701C140.166 81.9747 140.177 81.9816 140.187 81.9906C140.196 81.9996 140.203 82.0103 140.208 82.0223C140.213 82.0342 140.216 82.047 140.216 82.0599C140.24 83.0519 140.216 84.06 140.18 85.04H149.176C149.19 85.0396 149.203 85.0423 149.216 85.0479C149.228 85.0534 149.239 85.0616 149.248 85.0719C149.267 85.0945 149.276 85.1228 149.276 85.152C147.858 96.6679 142.467 107.328 134.032 115.296C124.82 124.044 112.448 129.064 100.084 129.064ZM100.82 116.828L100.188 128.864C112.468 128.836 124.748 123.84 133.892 115.148C142.267 107.242 147.631 96.668 149.064 85.24H140.076C140.061 85.24 140.046 85.2363 140.033 85.2294C140.02 85.2224 140.009 85.2123 140 85.2C139.99 85.1911 139.982 85.1799 139.977 85.1674C139.972 85.1548 139.971 85.1413 139.972 85.128C140.024 84.144 140.036 83.1279 140.016 82.1559H137.296C136.248 101.252 119.912 116.776 100.82 116.828Z" fill="white"/>
<path opacity="0.3" d="M140.116 82.1638C140.09 82.1628 140.065 82.152 140.046 82.1334C140.028 82.1149 140.017 82.09 140.016 82.0638C139.508 61.8518 123.216 46.0198 102.908 46.0198C96.2207 46.0357 89.6417 47.7096 83.76 50.8918C83.7486 50.8988 83.7359 50.9032 83.7227 50.9049C83.7094 50.9066 83.696 50.9056 83.6832 50.9018C83.6704 50.8981 83.6585 50.8917 83.6484 50.8831C83.6382 50.8745 83.6299 50.8638 83.624 50.8518C83.6123 50.8283 83.6098 50.8012 83.6173 50.776C83.6247 50.7507 83.6414 50.7292 83.664 50.7158C89.5752 47.5179 96.1872 45.8357 102.908 45.8198C112.653 45.7074 122.046 49.4555 129.036 56.2457C136.026 63.0358 140.045 72.3161 140.216 82.0598C140.217 82.073 140.214 82.0861 140.21 82.0984C140.205 82.1108 140.199 82.1221 140.19 82.1317C140.181 82.1414 140.17 82.1492 140.158 82.1547C140.146 82.1602 140.133 82.1633 140.12 82.1638H140.116Z" fill="white"/>
<path opacity="0.3" d="M153.92 85.24H149.176C149.149 85.24 149.124 85.2295 149.105 85.2108C149.087 85.192 149.076 85.1666 149.076 85.14C149.076 85.1135 149.087 85.0881 149.105 85.0693C149.124 85.0506 149.149 85.04 149.176 85.04H153.824C154.314 75.8958 152.343 66.7874 148.116 58.664C141.92 46.876 131.348 38.264 118.344 34.408C104.512 30.304 89.788 32.008 76.872 39.208L79.036 43.328C79.0474 43.352 79.0492 43.3795 79.041 43.4048C79.0329 43.4301 79.0153 43.4513 78.992 43.464C78.9802 43.4702 78.9673 43.474 78.954 43.4751C78.9408 43.4763 78.9274 43.4747 78.9147 43.4706C78.9021 43.4665 78.8903 43.46 78.8803 43.4513C78.8702 43.4426 78.8619 43.432 78.856 43.42L76.652 39.216C76.6457 39.2048 76.6418 39.1924 76.6404 39.1796C76.6391 39.1668 76.6403 39.1539 76.644 39.1416C76.6478 39.1293 76.6539 39.1178 76.6622 39.1079C76.6704 39.0981 76.6805 39.0899 76.692 39.084C83.1357 35.4551 90.2483 33.1704 97.6 32.368C104.587 31.5892 111.66 32.2175 118.4 34.216C131.456 38.088 142.072 46.736 148.292 58.572C152.552 66.7547 154.53 75.9331 154.02 85.144C154.019 85.1699 154.008 85.1943 153.989 85.2122C153.971 85.2301 153.946 85.2401 153.92 85.24Z" fill="white"/>
<path opacity="0.3" d="M83.032 51.2761H83.004C82.9787 51.2684 82.9572 51.2512 82.944 51.2281L78.856 43.4361C78.8438 43.4123 78.8416 43.3845 78.8499 43.359C78.8581 43.3335 78.8762 43.3123 78.9 43.3001C78.9239 43.2879 78.9517 43.2857 78.9772 43.294C79.0027 43.3022 79.0238 43.3203 79.036 43.3441L83.072 51.0441C83.216 50.9641 83.36 50.8841 83.508 50.8081L83.664 50.7201C83.6758 50.714 83.6887 50.7102 83.702 50.709C83.7153 50.7079 83.7286 50.7094 83.7413 50.7135C83.754 50.7176 83.7657 50.7242 83.7758 50.7329C83.7859 50.7416 83.7941 50.7522 83.8 50.7641C83.8063 50.7754 83.8102 50.7878 83.8116 50.8006C83.813 50.8134 83.8117 50.8263 83.808 50.8386C83.8043 50.8509 83.7981 50.8624 83.7899 50.8722C83.7816 50.8821 83.7715 50.8903 83.76 50.8961L83.6 50.9841C83.428 51.0761 83.2521 51.1681 83.0841 51.2681C83.0676 51.2749 83.0498 51.2776 83.032 51.2761Z" fill="white"/>
</g>
<path d="M100.332 108.276L99.9321 115.624C84.3761 115.624 72.4201 103.008 73.2361 87.4562C73.7841 77.0322 79.9281 67.9242 88.6041 63.0562L91.9481 69.4202C88.6901 71.227 85.9409 73.827 83.9551 76.979C81.9694 80.1311 80.8112 83.7334 80.5881 87.4522C80.0001 98.9522 88.8361 108.276 100.332 108.276Z" fill="url(#paint10_linear)"/>
<path opacity="0.6" d="M100.332 108.276L99.9321 115.624C84.3761 115.624 72.4201 103.008 73.2361 87.4562C73.7841 77.0322 79.9281 67.9242 88.6041 63.0562L91.9481 69.4202C88.6901 71.227 85.9409 73.827 83.9551 76.979C81.9694 80.1311 80.8112 83.7334 80.5881 87.4522C80.0001 98.9522 88.8361 108.276 100.332 108.276Z" fill="black"/>
<path d="M133.496 88.1641C132.992 96.2651 129.442 103.875 123.558 109.466C117.674 115.057 109.892 118.215 101.776 118.304L102.176 110.44C114.476 110.44 124.976 100.464 125.62 88.1641H133.496Z" fill="url(#paint11_linear)"/>
<path opacity="0.3" d="M133.496 88.1641C132.992 96.2651 129.442 103.875 123.558 109.466C117.674 115.057 109.892 118.215 101.776 118.304L102.176 110.44C114.476 110.44 124.976 100.464 125.62 88.1641H133.496Z" fill="black"/>
<path d="M136.372 90.1439H127.476C128.204 76.2119 117.508 64.944 103.592 64.944C99.1081 64.9424 94.7005 66.1043 90.8 68.3159L86.756 60.608C103.448 51.256 124.172 56.896 132.684 73.096C135.421 78.3445 136.695 84.2332 136.372 90.1439Z" fill="#FAFAFA"/>
<path d="M135.4 112.336H127.208L126.324 129.208H134.516L135.4 112.336Z" fill="#FAFAFA"/>
<path d="M147.092 106.76H138.9L137.724 129.208H145.916L147.092 106.76Z" fill="url(#paint12_linear)"/>
<path opacity="0.6" d="M147.092 106.76H138.9L137.724 129.208H145.916L147.092 106.76Z" fill="black"/>
<path d="M158.196 112.336H150.004L149.12 129.208H157.312L158.196 112.336Z" fill="url(#paint13_linear)"/>
<path opacity="0.3" d="M158.196 112.336H150.004L149.12 129.208H157.312L158.196 112.336Z" fill="black"/>
<path d="M157.236 130.644H126.248L126.268 130.26H157.256L157.236 130.644Z" fill="#263238"/>
<path opacity="0.8" d="M161.424 59.2601H125.704L126.76 39.0801H162.484L161.424 59.2601Z" fill="#FAFAFA"/>
<path d="M126.348 46.9438L125.704 59.2598H161.424L162.224 43.9678C156.296 43.9678 152.78 50.7158 145.448 50.7158C138.116 50.7158 136.104 46.9438 126.348 46.9438Z" fill="url(#paint14_linear)"/>
<path opacity="0.1" d="M126.348 46.9438L125.704 59.2598H161.424L162.224 43.9678C156.296 43.9678 152.78 50.7158 145.448 50.7158C138.116 50.7158 136.104 46.9438 126.348 46.9438Z" fill="black"/>
<path d="M126.04 52.8321C134.068 52.8321 136.952 48.4321 141.46 48.4321C145.968 48.4321 147.94 53.0601 153.556 53.0601C159.412 53.0601 161.956 49.4201 161.956 49.4201L161.44 59.2681H125.72L126.04 52.8321Z" fill="url(#paint15_linear)"/>
<path opacity="0.5" d="M126.04 52.8321C134.068 52.8321 136.952 48.4321 141.46 48.4321C145.968 48.4321 147.94 53.0601 153.556 53.0601C159.412 53.0601 161.956 49.4201 161.956 49.4201L161.44 59.2681H125.72L126.04 52.8321Z" fill="black"/>
<path d="M55.396 68.3193C54.868 69.0273 54.28 69.8153 53.748 70.5873C53.216 71.3593 52.68 72.1473 52.176 72.9393C51.1677 74.4807 50.2849 76.1006 49.536 77.7833L49.404 78.0873L49.34 78.2393C49.3114 78.3021 49.2964 78.3703 49.296 78.4393C49.2857 78.7655 49.3221 79.0915 49.404 79.4073C49.6175 80.2496 49.908 81.0704 50.272 81.8593C51.0644 83.5876 51.9428 85.275 52.904 86.9153L51.172 88.2833C49.7106 86.8247 48.4074 85.2158 47.284 83.4833C46.6795 82.551 46.1779 81.5558 45.788 80.5153C45.5569 79.8914 45.4128 79.2386 45.36 78.5753C45.3304 78.152 45.36 77.7265 45.448 77.3113C45.472 77.1953 45.508 77.0713 45.544 76.9553L45.608 76.7593L45.736 76.3593C45.9 75.8353 46.1 75.3433 46.292 74.8433C46.484 74.3433 46.692 73.8633 46.944 73.3953C47.384 72.4393 47.892 71.5313 48.408 70.6353C48.924 69.7393 49.484 68.8753 50.068 68.0313C50.36 67.6073 50.66 67.1913 50.964 66.7753C51.268 66.3593 51.572 65.9753 51.932 65.5273L55.396 68.3193Z" fill="#E58A7B"/>
<path d="M52.2759 86.2876L54.4239 86.6556L52.5159 89.8876C52.5159 89.8876 51.0199 89.1676 50.7479 87.7716L52.2759 86.2876Z" fill="#E58A7B"/>
<path d="M56.744 87.8118L55.044 90.4118L52.516 89.8878L54.424 86.6558L56.744 87.8118Z" fill="#E58A7B"/>
<path d="M66.4719 52.6394C66.4719 52.8754 66.5959 53.0674 66.7519 53.0674C66.9079 53.0674 67.0319 52.8754 67.0319 52.6394C67.0319 52.4034 66.9079 52.2114 66.7519 52.2114C66.5959 52.2114 66.4719 52.3994 66.4719 52.6394Z" fill="#263238"/>
<path d="M66.5759 53.0679C66.8591 53.7923 67.2399 54.4746 67.7079 55.0959C67.5461 55.2116 67.361 55.2906 67.1654 55.3272C66.9699 55.3638 66.7687 55.3572 66.5759 55.3079V53.0679Z" fill="#DF5753"/>
<path d="M65.632 51.3275C65.6097 51.3281 65.5877 51.3229 65.568 51.3124C65.5484 51.3019 65.5318 51.2864 65.52 51.2675C65.5087 51.2531 65.5005 51.2365 65.496 51.2188C65.4915 51.201 65.4907 51.1825 65.4937 51.1645C65.4967 51.1464 65.5035 51.1292 65.5135 51.1139C65.5235 51.0986 65.5366 51.0855 65.552 51.0755C65.7276 50.941 65.9333 50.851 66.1514 50.8134C66.3695 50.7758 66.5934 50.7916 66.804 50.8595C66.8376 50.8737 66.8644 50.9005 66.8786 50.9341C66.8928 50.9677 66.8933 51.0055 66.88 51.0395C66.8742 51.0567 66.865 51.0726 66.8529 51.0861C66.8407 51.0995 66.8259 51.1104 66.8094 51.1179C66.7929 51.1254 66.775 51.1294 66.7569 51.1297C66.7387 51.13 66.7207 51.1265 66.704 51.1195C66.5363 51.0683 66.3587 51.0579 66.1861 51.0892C66.0136 51.1205 65.851 51.1926 65.712 51.2995C65.6894 51.318 65.6611 51.3279 65.632 51.3275Z" fill="#263238"/>
<path d="M58.8199 55.3716C59.2439 57.5236 59.6639 61.4596 58.1599 62.8956C58.1599 62.8956 58.7479 65.0756 62.7439 65.0756C67.1439 65.0756 64.8399 62.8956 64.8399 62.8956C62.4399 62.3236 62.5039 60.5436 62.9239 58.8756L58.8199 55.3716Z" fill="#E58A7B"/>
<path d="M57.6 63.6436C57.284 62.9556 56.94 62.1636 57.656 61.9156C58.456 61.6436 62.764 61.3676 64.252 61.8756C64.4482 61.93 64.6318 62.0228 64.792 62.1486C64.9521 62.2745 65.0858 62.4308 65.1851 62.6086C65.2844 62.7865 65.3475 62.9822 65.3706 63.1846C65.3938 63.387 65.3766 63.5919 65.32 63.7876L57.6 63.6436Z" fill="url(#paint16_linear)"/>
<path d="M48.332 164C48.0738 163.999 47.8164 163.97 47.564 163.916C47.551 163.914 47.5391 163.907 47.5298 163.898C47.5205 163.889 47.5143 163.877 47.512 163.864C47.5093 163.851 47.5106 163.837 47.5155 163.824C47.5205 163.811 47.529 163.8 47.54 163.792C47.576 163.768 48.388 163.216 48.816 163.312C48.8619 163.322 48.9051 163.341 48.9425 163.37C48.9798 163.398 49.0104 163.434 49.032 163.476C49.0663 163.525 49.0846 163.583 49.0846 163.642C49.0846 163.701 49.0663 163.759 49.032 163.808C48.9339 163.885 48.8214 163.941 48.7013 163.974C48.5811 164.007 48.4556 164.016 48.332 164ZM47.76 163.816C48.2 163.888 48.8 163.888 48.924 163.72C48.924 163.72 48.976 163.656 48.924 163.544C48.911 163.52 48.8928 163.498 48.8707 163.482C48.8486 163.465 48.8231 163.454 48.796 163.448C48.4209 163.467 48.0602 163.598 47.76 163.824V163.816Z" fill="url(#paint17_linear)"/>
<path d="M47.5999 163.928C47.5882 163.932 47.5756 163.932 47.5639 163.928C47.5528 163.921 47.5438 163.912 47.5381 163.901C47.5324 163.889 47.5303 163.876 47.5319 163.864C47.5319 163.828 47.6039 162.98 47.9319 162.7C47.973 162.666 48.0203 162.641 48.0711 162.626C48.1219 162.611 48.1752 162.606 48.2279 162.612C48.2808 162.612 48.3321 162.63 48.3729 162.663C48.4138 162.697 48.4417 162.744 48.4519 162.796C48.5119 163.124 47.9239 163.764 47.6199 163.932L47.5999 163.928ZM48.1919 162.728C48.1333 162.729 48.0768 162.75 48.0319 162.788C47.8274 163.053 47.7062 163.373 47.6839 163.708C47.9879 163.48 48.3639 162.996 48.3279 162.8C48.3279 162.8 48.3279 162.74 48.2239 162.728H48.1919Z" fill="url(#paint18_linear)"/>
<path d="M65.976 164C65.674 164 65.3727 163.972 65.076 163.916C65.0617 163.914 65.0484 163.908 65.0383 163.898C65.0281 163.887 65.0217 163.874 65.02 163.86C65.0177 163.846 65.0196 163.832 65.0252 163.819C65.0309 163.806 65.0402 163.795 65.052 163.788C65.096 163.764 66.124 163.18 66.612 163.312C66.6581 163.322 66.7016 163.342 66.7395 163.37C66.7774 163.399 66.8089 163.435 66.832 163.476C66.8639 163.52 66.881 163.573 66.881 163.628C66.881 163.682 66.8639 163.736 66.832 163.78C66.716 163.956 66.352 164 65.976 164ZM65.3 163.816C65.852 163.892 66.592 163.88 66.728 163.696C66.728 163.672 66.76 163.632 66.728 163.544C66.7133 163.519 66.6936 163.498 66.6702 163.481C66.6468 163.465 66.6201 163.453 66.592 163.448C66.256 163.368 65.6 163.664 65.3 163.824V163.816Z" fill="url(#paint19_linear)"/>
<path d="M65.088 163.928C65.0749 163.932 65.061 163.932 65.048 163.928C65.0379 163.921 65.03 163.911 65.0251 163.9C65.0202 163.889 65.0184 163.876 65.02 163.864C65.0459 163.447 65.2059 163.05 65.476 162.732C65.5296 162.684 65.5933 162.648 65.6625 162.627C65.7316 162.606 65.8046 162.601 65.8759 162.612C66.0679 162.632 66.1239 162.728 66.1359 162.808C66.1879 163.14 65.488 163.776 65.132 163.932L65.088 163.928ZM65.8039 162.728C65.7151 162.727 65.6293 162.76 65.564 162.82C65.3385 163.072 65.1985 163.388 65.164 163.724C65.524 163.508 66.0039 163.008 65.9639 162.808C65.9639 162.808 65.9639 162.744 65.828 162.728H65.8039Z" fill="url(#paint20_linear)"/>
<path d="M61.856 163.856H64.796L65.088 157.052H62.148L61.856 163.856Z" fill="#E58A7B"/>
<path d="M44.2119 163.856H47.1519L48.6279 157.052H45.6919L44.2119 163.856Z" fill="#E58A7B"/>
<path d="M47.3599 163.516H44.06C44.001 163.516 43.944 163.536 43.8983 163.574C43.8525 163.611 43.8206 163.662 43.8079 163.72L43.2279 166.332C43.2147 166.395 43.216 166.461 43.2317 166.524C43.2474 166.587 43.2771 166.646 43.3186 166.696C43.3601 166.746 43.4124 166.786 43.4715 166.813C43.5306 166.84 43.595 166.853 43.66 166.852C44.8119 166.832 45.3719 166.764 46.8239 166.764C47.7159 166.764 49.5559 166.86 50.7919 166.86C52.0279 166.86 52.1839 165.66 51.6799 165.528C49.4159 165.032 48.5639 164.348 47.8359 163.7C47.7063 163.58 47.5362 163.514 47.3599 163.516Z" fill="#263238"/>
<path d="M64.776 163.516H61.576C61.5171 163.516 61.4601 163.536 61.4143 163.574C61.3685 163.611 61.3367 163.662 61.324 163.72L60.744 166.332C60.7301 166.395 60.7307 166.46 60.7456 166.523C60.7606 166.586 60.7895 166.644 60.8303 166.694C60.8711 166.744 60.9226 166.784 60.9811 166.812C61.0396 166.839 61.1035 166.853 61.168 166.852C62.324 166.832 63.996 166.764 65.452 166.764C67.152 166.764 68.624 166.86 70.616 166.86C71.816 166.86 72.16 165.66 71.656 165.528C69.356 165.024 67.48 164.972 65.492 163.748C65.2803 163.604 65.0319 163.523 64.776 163.516Z" fill="#263238"/>
<path d="M68.66 64.5718C70.38 65.4198 72.168 66.2878 73.932 67.0998C75.696 67.9118 77.48 68.6998 79.252 69.3758L79.912 69.6118L80.08 69.6718H80.12C80.12 69.6718 80.12 69.6718 80.14 69.6918C80.3793 69.7166 80.6211 69.6879 80.848 69.6078C81.6435 69.3424 82.4038 68.981 83.112 68.5318C84.7287 67.5163 86.2822 66.4036 87.764 65.1998L89.384 66.6958C88.1497 68.4034 86.714 69.956 85.108 71.3198C84.2267 72.0808 83.2406 72.7113 82.18 73.1918C81.4849 73.5065 80.731 73.6701 79.968 73.6718C79.7262 73.6672 79.4853 73.6418 79.248 73.5958L79.056 73.5518L78.924 73.5158L78.732 73.4638L77.964 73.2518C75.9841 72.659 74.0396 71.9538 72.14 71.1398C70.252 70.3398 68.436 69.4838 66.6 68.5118L68.66 64.5718Z" fill="#E58A7B"/>
<path d="M52.8999 63.5597C50.1439 64.1917 46.9839 71.6997 46.9839 71.6997L52.5159 75.4917C53.893 73.5184 55.1153 71.4416 56.1719 69.2797C57.8039 65.8437 55.7159 62.9157 52.8999 63.5597Z" fill="#263238"/>
<path d="M54.872 68.3477L52.256 75.3117L52.516 75.4917C52.516 75.4917 53.648 73.8917 54.872 71.7597V68.3477Z" fill="url(#paint21_linear)"/>
<path opacity="0.8" d="M54.872 68.3477L52.256 75.3117L52.516 75.4917C52.516 75.4917 53.648 73.8917 54.872 71.7597V68.3477Z" fill="black"/>
<path d="M69.36 63.7119C69.36 63.7119 72.488 67.2439 69.536 89.1119H53.816C53.708 86.7119 55.224 74.9279 52.9 63.5599C54.6372 63.2254 56.3942 63.0036 58.16 62.8959C60.3848 62.7678 62.6152 62.7678 64.84 62.8959C66.3657 63.0496 67.8769 63.3224 69.36 63.7119Z" fill="#263238"/>
<path d="M70.7359 70.4396L66.9559 69.6396C67.0119 69.7076 69.3559 72.6476 70.7919 74.4756C70.8199 72.9156 70.7999 71.5996 70.7359 70.4396Z" fill="url(#paint22_linear)"/>
<path opacity="0.8" d="M70.7359 70.4396L66.9559 69.6396C67.0119 69.7076 69.3559 72.6476 70.7919 74.4756C70.8199 72.9156 70.7999 71.5996 70.7359 70.4396Z" fill="black"/>
<path d="M64.4319 67.6236C65.2959 70.2956 74.0319 73.2236 74.0319 73.2236L76.6319 67.0596C74.4397 65.7303 72.1119 64.6388 69.6879 63.8036C66.1439 62.6756 63.4799 64.6916 64.4319 67.6236Z" fill="#263238"/>
<path d="M87.516 65.5996L88.376 62.6196L91.796 64.1676C91.796 64.1676 91.04 66.4796 88.972 67.0316L87.516 65.5996Z" fill="#E58A7B"/>
<path d="M90.424 60.1357L92.748 62.4277L91.796 64.1517L88.376 62.6037L90.424 60.1357Z" fill="#E58A7B"/>
<path d="M65.088 157.056L64.936 160.56H61.996L62.148 157.056H65.088Z" fill="#CF6F64"/>
<path d="M45.688 157.056H48.628L47.868 160.56H44.928L45.688 157.056Z" fill="#CF6F64"/>
<path d="M58.5679 52.1357C58.7439 55.0477 58.6999 56.7597 60.1679 58.2557C62.3799 60.5037 65.9719 59.1677 66.6679 56.2557C67.2919 53.6397 66.8959 49.3197 64.0439 48.1597C63.4166 47.902 62.7338 47.8089 62.0604 47.8895C61.387 47.97 60.7454 48.2215 60.1966 48.62C59.6478 49.0184 59.2101 49.5506 58.925 50.166C58.6399 50.7814 58.517 51.4594 58.5679 52.1357Z" fill="#E58A7B"/>
<path d="M64.2239 50.1997C66.4199 50.8477 68.2599 47.7317 67.9199 49.9357C67.5799 52.1397 69.9759 51.8997 69.9759 51.8997C69.9759 51.8997 68.0959 51.1877 70.3319 49.3317C73.0639 47.0637 69.1839 45.6717 67.4839 46.9037C65.1959 48.5677 64.7479 45.6317 61.7999 44.8437C59.7999 44.3157 57.3399 45.5717 57.2959 47.0157C57.2399 48.7797 55.7239 47.3597 55.6119 49.9837C55.5359 51.6957 57.5759 57.3397 59.7759 57.5317C63.0879 57.8237 64.1999 53.6237 64.2239 50.1997Z" fill="#263238"/>
<path d="M62.4959 52.9835C62.6528 53.6943 63.0411 54.333 63.5999 54.7995C64.3399 55.3995 64.9319 54.8635 64.9159 53.9995C64.8959 53.2195 64.4919 51.9675 63.6599 51.7035C62.8279 51.4395 62.3079 52.1315 62.4959 52.9835Z" fill="#E58A7B"/>
<path d="M57.936 48.6555C57.5772 48.1112 57.3597 47.486 57.3031 46.8366C57.2465 46.1871 57.3527 45.5337 57.612 44.9355C57.612 44.9355 54.484 47.2915 57.936 48.6555Z" fill="#263238"/>
<path d="M55.4319 48.368C55.7419 48.2367 56.0801 48.1859 56.415 48.2201C56.75 48.2544 57.0708 48.3727 57.3479 48.564C57.3479 48.564 56.4599 46.752 55.4319 48.368Z" fill="#263238"/>
<path d="M63.9599 89.1117C63.9599 89.1117 60.6239 111.568 58.7999 120C56.7999 129.2 49.2439 159.904 49.2439 159.904H43.8519C43.8519 159.904 48.8359 129.936 49.9999 120.8C51.2399 110.9 53.8359 89.0957 53.8359 89.0957L63.9599 89.1117Z" fill="url(#paint23_linear)"/>
<path d="M50.0959 157.9C50.1199 157.9 49.5399 159.968 49.5399 159.968H43.4839L43.5959 158.124L50.0959 157.9Z" fill="url(#paint24_linear)"/>
<path opacity="0.2" d="M50.0959 157.9C50.1199 157.9 49.5399 159.968 49.5399 159.968H43.4839L43.5959 158.124L50.0959 157.9Z" fill="black"/>
<path d="M61.852 97.1114C57.996 97.8674 58.404 112.247 58.868 119.643C60 114.399 61.6 104.355 62.72 97.1994C62.4491 97.0723 62.1429 97.0412 61.852 97.1114Z" fill="url(#paint25_linear)"/>
<path opacity="0.2" d="M61.852 97.1114C57.996 97.8674 58.404 112.247 58.868 119.643C60 114.399 61.6 104.355 62.72 97.1994C62.4491 97.0723 62.1429 97.0412 61.852 97.1114Z" fill="black"/>
<path d="M69.5359 89.1118C69.5359 89.1118 69.9359 111.08 69.6199 120.044C69.2879 129.364 66.0199 159.884 66.0199 159.884H61.0559C61.0559 159.884 60.8719 129.908 60.6559 120.756C60.4159 110.776 59.2119 89.1118 59.2119 89.1118H69.5359Z" fill="url(#paint26_linear)"/>
<path d="M64.9959 156.307C64.9825 156.306 64.9702 156.299 64.9614 156.288C64.9525 156.278 64.9477 156.265 64.9479 156.251C65.8279 147.803 67.8959 127.367 68.1479 120.039C68.4159 112.531 68.1719 95.7635 68.0919 90.7995C68.0919 90.7932 68.0931 90.7869 68.0955 90.7811C68.0979 90.7753 68.1015 90.77 68.1059 90.7655C68.1104 90.7611 68.1157 90.7575 68.1215 90.7551C68.1273 90.7527 68.1336 90.7515 68.1399 90.7515C68.153 90.7514 68.1657 90.7564 68.1753 90.7653C68.185 90.7742 68.1909 90.7864 68.1919 90.7995C68.2719 95.7595 68.5159 112.531 68.2479 120.043C67.9879 127.375 65.9199 147.815 65.0479 156.263C65.0474 156.27 65.0456 156.276 65.0427 156.282C65.0398 156.287 65.0359 156.292 65.031 156.296C65.0262 156.3 65.0206 156.303 65.0146 156.305C65.0085 156.307 65.0022 156.308 64.9959 156.307Z" fill="url(#paint27_linear)"/>
<path opacity="0.2" d="M64.9959 156.307C64.9825 156.306 64.9702 156.299 64.9614 156.288C64.9525 156.278 64.9477 156.265 64.9479 156.251C65.8279 147.803 67.8959 127.367 68.1479 120.039C68.4159 112.531 68.1719 95.7635 68.0919 90.7995C68.0919 90.7932 68.0931 90.7869 68.0955 90.7811C68.0979 90.7753 68.1015 90.77 68.1059 90.7655C68.1104 90.7611 68.1157 90.7575 68.1215 90.7551C68.1273 90.7527 68.1336 90.7515 68.1399 90.7515C68.153 90.7514 68.1657 90.7564 68.1753 90.7653C68.185 90.7742 68.1909 90.7864 68.1919 90.7995C68.2719 95.7595 68.5159 112.531 68.2479 120.043C67.9879 127.375 65.9199 147.815 65.0479 156.263C65.0474 156.27 65.0456 156.276 65.0427 156.282C65.0398 156.287 65.0359 156.292 65.031 156.296C65.0262 156.3 65.0206 156.303 65.0146 156.305C65.0085 156.307 65.0022 156.308 64.9959 156.307Z" fill="black"/>
<path d="M66.9879 157.9C67.0119 157.9 66.7079 159.968 66.7079 159.968H60.6519L60.4879 158.124L66.9879 157.9Z" fill="url(#paint28_linear)"/>
<path opacity="0.2" d="M66.9879 157.9C67.0119 157.9 66.7079 159.968 66.7079 159.968H60.6519L60.4879 158.124L66.9879 157.9Z" fill="black"/>
<defs>
<linearGradient id="paint0_linear" x1="118.284" y1="33.2798" x2="118.284" y2="139.112" gradientUnits="userSpaceOnUse">
<stop stop-color="#31ADEE"/>
<stop offset="1" stop-color="#2F5061" stop-opacity="0.9"/>
</linearGradient>
<linearGradient id="paint1_linear" x1="109.502" y1="28.644" x2="109.502" y2="29.044" gradientUnits="userSpaceOnUse">
<stop stop-color="#31ADEE"/>
<stop offset="1" stop-color="#2F5061" stop-opacity="0.9"/>
</linearGradient>
<linearGradient id="paint2_linear" x1="100.014" y1="28.644" x2="100.014" y2="29.044" gradientUnits="userSpaceOnUse">
<stop stop-color="#31ADEE"/>
<stop offset="1" stop-color="#2F5061" stop-opacity="0.9"/>
</linearGradient>
<linearGradient id="paint3_linear" x1="77.659" y1="57.5974" x2="78.0584" y2="57.6186" gradientUnits="userSpaceOnUse">
<stop stop-color="#31ADEE"/>
<stop offset="1" stop-color="#2F5061" stop-opacity="0.9"/>
</linearGradient>
<linearGradient id="paint4_linear" x1="115.44" y1="30.4478" x2="115.44" y2="136.28" gradientUnits="userSpaceOnUse">
<stop stop-color="#31ADEE"/>
<stop offset="1" stop-color="#2F5061" stop-opacity="0.9"/>
</linearGradient>
<linearGradient id="paint5_linear" x1="76.7394" y1="43.2925" x2="76.7394" y2="124.892" gradientUnits="userSpaceOnUse">
<stop stop-color="#31ADEE"/>
<stop offset="1" stop-color="#2F5061" stop-opacity="0.9"/>
</linearGradient>
<linearGradient id="paint6_linear" x1="124.63" y1="81.9639" x2="124.63" y2="129.064" gradientUnits="userSpaceOnUse">
<stop stop-color="#31ADEE"/>
<stop offset="1" stop-color="#2F5061" stop-opacity="0.9"/>
</linearGradient>
<linearGradient id="paint7_linear" x1="111.915" y1="45.8174" x2="111.915" y2="82.1638" gradientUnits="userSpaceOnUse">
<stop stop-color="#31ADEE"/>
<stop offset="1" stop-color="#2F5061" stop-opacity="0.9"/>
</linearGradient>
<linearGradient id="paint8_linear" x1="115.369" y1="32.0439" x2="115.369" y2="85.24" gradientUnits="userSpaceOnUse">
<stop stop-color="#31ADEE"/>
<stop offset="1" stop-color="#2F5061" stop-opacity="0.9"/>
</linearGradient>
<linearGradient id="paint9_linear" x1="81.3286" y1="43.2891" x2="81.3286" y2="51.2765" gradientUnits="userSpaceOnUse">
<stop stop-color="#31ADEE"/>
<stop offset="1" stop-color="#2F5061" stop-opacity="0.9"/>
</linearGradient>
<linearGradient id="paint10_linear" x1="86.7644" y1="63.0562" x2="86.7644" y2="115.624" gradientUnits="userSpaceOnUse">
<stop stop-color="#31ADEE"/>
<stop offset="1" stop-color="#2F5061" stop-opacity="0.9"/>
</linearGradient>
<linearGradient id="paint11_linear" x1="117.636" y1="88.1641" x2="117.636" y2="118.304" gradientUnits="userSpaceOnUse">
<stop stop-color="#31ADEE"/>
<stop offset="1" stop-color="#2F5061" stop-opacity="0.9"/>
</linearGradient>
<linearGradient id="paint12_linear" x1="142.408" y1="106.76" x2="142.408" y2="129.208" gradientUnits="userSpaceOnUse">
<stop stop-color="#31ADEE"/>
<stop offset="1" stop-color="#2F5061" stop-opacity="0.9"/>
</linearGradient>
<linearGradient id="paint13_linear" x1="153.658" y1="112.336" x2="153.658" y2="129.208" gradientUnits="userSpaceOnUse">
<stop stop-color="#31ADEE"/>
<stop offset="1" stop-color="#2F5061" stop-opacity="0.9"/>
</linearGradient>
<linearGradient id="paint14_linear" x1="143.964" y1="43.9678" x2="143.964" y2="59.2598" gradientUnits="userSpaceOnUse">
<stop stop-color="#31ADEE"/>
<stop offset="1" stop-color="#2F5061" stop-opacity="0.9"/>
</linearGradient>
<linearGradient id="paint15_linear" x1="143.838" y1="48.4321" x2="143.838" y2="59.2681" gradientUnits="userSpaceOnUse">
<stop stop-color="#31ADEE"/>
<stop offset="1" stop-color="#2F5061" stop-opacity="0.9"/>
</linearGradient>
<linearGradient id="paint16_linear" x1="61.3072" y1="61.5918" x2="61.3072" y2="63.7876" gradientUnits="userSpaceOnUse">
<stop stop-color="#31ADEE"/>
<stop offset="1" stop-color="#2F5061" stop-opacity="0.9"/>
</linearGradient>
<linearGradient id="paint17_linear" x1="48.2976" y1="163.301" x2="48.2976" y2="164.008" gradientUnits="userSpaceOnUse">
<stop stop-color="#31ADEE"/>
<stop offset="1" stop-color="#2F5061" stop-opacity="0.9"/>
</linearGradient>
<linearGradient id="paint18_linear" x1="47.9938" y1="162.609" x2="47.9938" y2="163.932" gradientUnits="userSpaceOnUse">
<stop stop-color="#31ADEE"/>
<stop offset="1" stop-color="#2F5061" stop-opacity="0.9"/>
</linearGradient>
<linearGradient id="paint19_linear" x1="65.95" y1="163.292" x2="65.95" y2="164" gradientUnits="userSpaceOnUse">
<stop stop-color="#31ADEE"/>
<stop offset="1" stop-color="#2F5061" stop-opacity="0.9"/>
</linearGradient>
<linearGradient id="paint20_linear" x1="65.579" y1="162.606" x2="65.579" y2="163.932" gradientUnits="userSpaceOnUse">
<stop stop-color="#31ADEE"/>
<stop offset="1" stop-color="#2F5061" stop-opacity="0.9"/>
</linearGradient>
<linearGradient id="paint21_linear" x1="53.564" y1="68.3477" x2="53.564" y2="75.4917" gradientUnits="userSpaceOnUse">
<stop stop-color="#31ADEE"/>
<stop offset="1" stop-color="#2F5061" stop-opacity="0.9"/>
</linearGradient>
<linearGradient id="paint22_linear" x1="68.8801" y1="69.6396" x2="68.8801" y2="74.4756" gradientUnits="userSpaceOnUse">
<stop stop-color="#31ADEE"/>
<stop offset="1" stop-color="#2F5061" stop-opacity="0.9"/>
</linearGradient>
<linearGradient id="paint23_linear" x1="53.9059" y1="89.0957" x2="53.9059" y2="159.904" gradientUnits="userSpaceOnUse">
<stop stop-color="#31ADEE"/>
<stop offset="1" stop-color="#2F5061" stop-opacity="0.9"/>
</linearGradient>
<linearGradient id="paint24_linear" x1="46.7903" y1="157.9" x2="46.7903" y2="159.968" gradientUnits="userSpaceOnUse">
<stop stop-color="#31ADEE"/>
<stop offset="1" stop-color="#2F5061" stop-opacity="0.9"/>
</linearGradient>
<linearGradient id="paint25_linear" x1="60.6488" y1="97.0747" x2="60.6488" y2="119.643" gradientUnits="userSpaceOnUse">
<stop stop-color="#31ADEE"/>
<stop offset="1" stop-color="#2F5061" stop-opacity="0.9"/>
</linearGradient>
<linearGradient id="paint26_linear" x1="64.4767" y1="89.1118" x2="64.4767" y2="159.884" gradientUnits="userSpaceOnUse">
<stop stop-color="#31ADEE"/>
<stop offset="1" stop-color="#2F5061" stop-opacity="0.9"/>
</linearGradient>
<linearGradient id="paint27_linear" x1="66.6591" y1="90.7515" x2="66.6591" y2="156.308" gradientUnits="userSpaceOnUse">
<stop stop-color="#31ADEE"/>
<stop offset="1" stop-color="#2F5061" stop-opacity="0.9"/>
</linearGradient>
<linearGradient id="paint28_linear" x1="63.7386" y1="157.9" x2="63.7386" y2="159.968" gradientUnits="userSpaceOnUse">
<stop stop-color="#31ADEE"/>
<stop offset="1" stop-color="#2F5061" stop-opacity="0.9"/>
</linearGradient>
</defs>
</svg>
