<svg width="800" height="800" viewBox="0 0 800 800" fill="none" xmlns="http://www.w3.org/2000/svg">
<g id="Setup-rafiki 1">
<g id="background">
<path id="Vector" d="M800 611.84H0V612.24H800V611.84Z" fill="#E0E0E0"/>
<path id="Vector_2" d="M712.928 622.128H660.528V622.528H712.928V622.128Z" fill="#E0E0E0"/>
<path id="Vector_3" d="M528.432 630.816H462.96V631.216H528.432V630.816Z" fill="#E0E0E0"/>
<path id="Vector_4" d="M553.408 630.816H538.24V631.216H553.408V630.816Z" fill="#E0E0E0"/>
<path id="Vector_5" d="M210.672 626.224H149.072V626.624H210.672V626.224Z" fill="#E0E0E0"/>
<path id="Vector_6" d="M333.6 626.224H278.672V626.624H333.6V626.224Z" fill="#E0E0E0"/>
<path id="Vector_7" d="M645.04 622.128H589.168V622.528H645.04V622.128Z" fill="#E0E0E0"/>
<path id="Vector_8" d="M136.001 626.224H82.6406V626.624H136.001V626.224Z" fill="#E0E0E0"/>
<path id="Vector_9" d="M379.2 540.48H70.2557C67.8355 540.476 65.5158 539.511 63.806 537.798C62.0961 536.086 61.1357 533.764 61.1357 531.344V97.056C61.1568 94.6496 62.1265 92.3488 63.8341 90.6531C65.5417 88.9575 67.8493 88.0041 70.2557 88H379.2C381.623 88 383.947 88.9625 385.66 90.6759C387.373 92.3892 388.336 94.713 388.336 97.136V531.344C388.336 533.767 387.373 536.091 385.66 537.804C383.947 539.517 381.623 540.48 379.2 540.48ZM70.2557 88.32C67.9416 88.3242 65.7237 89.2465 64.0888 90.8844C62.4539 92.5222 61.5357 94.7418 61.5357 97.056V531.344C61.5357 533.658 62.4539 535.878 64.0888 537.516C65.7237 539.154 67.9416 540.076 70.2557 540.08H379.2C381.515 540.076 383.735 539.154 385.372 537.517C387.01 535.879 387.932 533.66 387.936 531.344V97.056C387.932 94.7404 387.01 92.5208 385.372 90.8834C383.735 89.246 381.515 88.3242 379.2 88.32H70.2557Z" fill="#E0E0E0"/>
<path id="Vector_10" d="M725.296 540.48H416.336C413.914 540.476 411.593 539.512 409.881 537.799C408.168 536.087 407.204 533.766 407.2 531.344V97.056C407.225 94.6482 408.199 92.3473 409.909 90.6521C411.619 88.957 413.928 88.0041 416.336 88H725.296C727.7 88.0083 730.003 88.9636 731.708 90.6588C733.412 92.3539 734.379 94.6524 734.4 97.056V531.344C734.4 533.761 733.442 536.08 731.736 537.793C730.029 539.505 727.714 540.472 725.296 540.48ZM416.336 88.32C414.021 88.3242 411.801 89.246 410.164 90.8834C408.526 92.5208 407.604 94.7404 407.6 97.056V531.344C407.604 533.66 408.526 535.879 410.164 537.517C411.801 539.154 414.021 540.076 416.336 540.08H725.296C727.612 540.076 729.831 539.154 731.469 537.517C733.106 535.879 734.028 533.66 734.032 531.344V97.056C734.028 94.7404 733.106 92.5208 731.469 90.8834C729.831 89.246 727.612 88.3242 725.296 88.32H416.336Z" fill="#E0E0E0"/>
<path id="Vector_11" d="M243.84 229.264L276.128 197.408L269.392 184.32C269.984 183.024 270.544 181.712 270.992 180.368L285.072 176.08L285.392 130.704L271.36 126.208C270.848 124.88 270.32 123.552 269.76 122.24L276.8 109.216L244.96 76.9121L231.856 83.6641C230.544 83.0561 229.232 82.5121 227.888 82.0641L223.6 67.9841L178.24 67.6641L173.68 81.6001C172.336 82.0961 171.008 82.6241 169.696 83.2001L156.688 76.2721L124.384 108.16L131.2 121.264C130.608 122.56 130.048 123.888 129.6 125.216L115.376 129.6L115.056 174.96L129.088 179.456C129.584 180.8 130.112 182.128 130.688 183.44L123.76 196.432L155.616 228.736L168.72 222C170.016 222.592 171.344 223.152 172.672 223.6L176.976 237.696L222.336 238L226.832 223.968C228.176 223.472 229.504 222.944 230.816 222.368L243.84 229.264ZM224 176.816C219.245 181.504 213.207 184.677 206.649 185.933C200.092 187.189 193.309 186.473 187.158 183.874C181.007 181.276 175.766 176.912 172.095 171.334C168.425 165.756 166.491 159.215 166.538 152.538C166.585 145.862 168.611 139.349 172.359 133.823C176.108 128.298 181.41 124.008 187.597 121.496C193.784 118.984 200.576 118.363 207.115 119.712C213.655 121.06 219.648 124.318 224.336 129.072C227.451 132.228 229.913 135.967 231.582 140.075C233.251 144.183 234.094 148.58 234.063 153.014C234.032 157.448 233.127 161.832 231.4 165.916C229.673 170.001 227.159 173.704 224 176.816Z" fill="#F0F0F0"/>
<path id="Vector_12" d="M121.168 313.6L142.4 292.8L137.984 284.208C138.368 283.344 138.736 282.48 139.072 281.6L148.336 278.784L148.544 248.992L139.328 246.048C138.992 245.168 138.64 244.288 138.256 243.424L142.8 234.896L121.856 213.6L113.264 218.032C112.4 217.632 111.536 217.28 110.656 216.928L107.84 207.68L78.0484 207.472L75.0884 216.688C74.2084 217.008 73.3444 217.36 72.4804 217.744L64.0004 213.2L42.7364 234.112L47.1524 242.72C46.7684 243.568 46.4004 244.448 46.0644 245.312L36.8004 248.144L36.6084 277.936L45.8084 280.88C46.1444 281.76 46.4964 282.64 46.8804 283.504L42.3364 292.032L63.2484 313.248L71.8404 308.8C72.7044 309.2 73.5684 309.552 74.4484 309.904L77.2644 319.152L107.056 319.36L110.016 310.144C110.896 309.808 111.76 309.456 112.624 309.088L121.168 313.6ZM108.128 279.2C105.007 282.283 101.042 284.371 96.7342 285.201C92.4262 286.03 87.9692 285.562 83.9268 283.858C79.8845 282.153 76.4387 279.288 74.0251 275.624C71.6116 271.961 70.3389 267.664 70.368 263.277C70.3971 258.89 71.7267 254.61 74.1887 250.979C76.6506 247.348 80.1342 244.529 84.1988 242.878C88.2634 241.227 92.7263 240.819 97.0228 241.705C101.319 242.591 105.257 244.732 108.336 247.856C110.381 249.928 111.998 252.382 113.094 255.078C114.191 257.775 114.745 260.661 114.726 263.571C114.706 266.482 114.114 269.36 112.982 272.042C111.85 274.724 110.201 277.156 108.128 279.2Z" fill="#E0E0E0"/>
<path id="Vector_13" d="M737.152 578.736L752.56 563.536L749.36 557.296C749.648 556.672 749.904 556.048 750.16 555.408L756.88 553.36L757.024 531.728L750.4 529.6C750.16 528.96 749.904 528.336 749.632 527.696L752.928 521.504L737.6 506.08L731.344 509.28C730.72 508.992 730.096 508.736 729.456 508.496L727.408 501.776L705.776 501.616L703.632 508.304C702.992 508.544 702.368 508.8 701.744 509.072L695.536 505.76L680.144 520.944L683.344 527.2C683.056 527.824 682.784 528.448 682.544 529.088L675.824 531.136L675.68 552.768L682.368 554.912C682.608 555.552 682.848 556.176 683.136 556.8L679.824 562.992L695.024 578.4L701.264 575.2C701.888 575.488 702.512 575.744 703.152 575.984L705.2 582.704L726.832 582.864L728.976 576.16C729.616 575.936 730.256 575.68 730.88 575.392L737.152 578.736ZM727.68 553.728C725.413 555.963 722.534 557.475 719.407 558.073C716.281 558.672 713.047 558.33 710.115 557.091C707.183 555.852 704.684 553.771 702.935 551.112C701.185 548.452 700.263 545.334 700.286 542.151C700.308 538.968 701.274 535.863 703.06 533.229C704.847 530.594 707.375 528.549 710.324 527.351C713.274 526.153 716.512 525.857 719.629 526.499C722.747 527.142 725.604 528.694 727.84 530.96C729.325 532.465 730.498 534.248 731.294 536.207C732.09 538.166 732.492 540.263 732.477 542.377C732.462 544.492 732.031 546.582 731.207 548.53C730.384 550.478 729.186 552.244 727.68 553.728Z" fill="#F0F0F0"/>
<path id="Vector_14" d="M548.143 555.008H77.8393C75.149 555.008 72.5688 553.939 70.6664 552.037C68.764 550.135 67.6953 547.555 67.6953 544.864V191.76C67.6995 189.071 68.7696 186.493 70.6711 184.592C72.5725 182.691 75.1503 181.62 77.8393 181.616H548.143C550.832 181.62 553.41 182.691 555.311 184.592C557.213 186.493 558.283 189.071 558.287 191.76V544.864C558.287 547.555 557.219 550.135 555.316 552.037C553.414 553.939 550.834 555.008 548.143 555.008ZM77.8393 182.4C75.3624 182.404 72.9882 183.39 71.2368 185.142C69.4854 186.893 68.4995 189.267 68.4953 191.744V544.864C68.4995 547.341 69.4854 549.715 71.2368 551.467C72.9882 553.218 75.3624 554.204 77.8393 554.208H548.143C550.62 554.204 552.994 553.218 554.746 551.467C556.497 549.715 557.483 547.341 557.487 544.864V191.76C557.483 189.283 556.497 186.909 554.746 185.158C552.994 183.406 550.62 182.42 548.143 182.416L77.8393 182.4Z" fill="#E0E0E0"/>
<path id="Vector_15" d="M89.4717 200.272C88.3673 200.272 87.2877 199.945 86.3694 199.331C85.4511 198.717 84.7354 197.845 84.3128 196.825C83.8901 195.805 83.7795 194.682 83.995 193.599C84.2105 192.515 84.7423 191.52 85.5232 190.74C86.3041 189.959 87.2991 189.427 88.3823 189.211C89.4655 188.996 90.5882 189.106 91.6086 189.529C92.6289 189.952 93.501 190.667 94.1146 191.586C94.7282 192.504 95.0557 193.584 95.0557 194.688C95.0557 196.169 94.4674 197.589 93.4202 198.636C92.373 199.684 90.9527 200.272 89.4717 200.272ZM89.4717 189.904C88.5223 189.904 87.5943 190.186 86.805 190.713C86.0156 191.24 85.4004 191.99 85.0371 192.867C84.6738 193.744 84.5787 194.709 84.7639 195.64C84.9491 196.572 85.4063 197.427 86.0776 198.098C86.7489 198.769 87.6041 199.227 88.5353 199.412C89.4664 199.597 90.4315 199.502 91.3086 199.139C92.1857 198.775 92.9353 198.16 93.4627 197.371C93.9902 196.581 94.2717 195.653 94.2717 194.704C94.2717 193.431 93.766 192.21 92.8658 191.31C91.9656 190.41 90.7447 189.904 89.4717 189.904Z" fill="#E0E0E0"/>
<path id="Vector_16" d="M107.84 200.272C106.735 200.272 105.656 199.945 104.738 199.331C103.819 198.717 103.104 197.845 102.681 196.825C102.258 195.805 102.148 194.682 102.363 193.599C102.579 192.515 103.11 191.52 103.891 190.74C104.672 189.959 105.667 189.427 106.75 189.211C107.834 188.996 108.956 189.106 109.977 189.529C110.997 189.952 111.869 190.667 112.483 191.586C113.096 192.504 113.424 193.584 113.424 194.688C113.424 196.169 112.836 197.589 111.788 198.636C110.741 199.684 109.321 200.272 107.84 200.272ZM107.84 189.904C106.891 189.904 105.962 190.186 105.173 190.713C104.384 191.24 103.769 191.99 103.405 192.867C103.042 193.744 102.947 194.709 103.132 195.64C103.317 196.572 103.774 197.427 104.446 198.098C105.117 198.769 105.972 199.227 106.903 199.412C107.835 199.597 108.8 199.502 109.677 199.139C110.554 198.775 111.303 198.16 111.831 197.371C112.358 196.581 112.64 195.653 112.64 194.704C112.64 193.431 112.134 192.21 111.234 191.31C110.334 190.41 109.113 189.904 107.84 189.904Z" fill="#E0E0E0"/>
<path id="Vector_17" d="M126.208 200.272C125.104 200.272 124.024 199.945 123.106 199.331C122.187 198.717 121.472 197.845 121.049 196.825C120.626 195.805 120.516 194.682 120.731 193.599C120.947 192.515 121.479 191.52 122.26 190.74C123.04 189.959 124.035 189.427 125.119 189.211C126.202 188.996 127.325 189.106 128.345 189.529C129.365 189.952 130.237 190.667 130.851 191.586C131.465 192.504 131.792 193.584 131.792 194.688C131.792 196.169 131.204 197.589 130.157 198.636C129.109 199.684 127.689 200.272 126.208 200.272ZM126.208 189.904C125.259 189.904 124.331 190.186 123.541 190.713C122.752 191.24 122.137 191.99 121.773 192.867C121.41 193.744 121.315 194.709 121.5 195.64C121.685 196.572 122.143 197.427 122.814 198.098C123.485 198.769 124.34 199.227 125.272 199.412C126.203 199.597 127.168 199.502 128.045 199.139C128.922 198.775 129.672 198.16 130.199 197.371C130.727 196.581 131.008 195.653 131.008 194.704C131.008 193.431 130.502 192.21 129.602 191.31C128.702 190.41 127.481 189.904 126.208 189.904Z" fill="#E0E0E0"/>
<path id="Vector_18" d="M734.928 114.448H264.624C259.242 114.448 254.88 118.811 254.88 124.192V477.296C254.88 482.678 259.242 487.04 264.624 487.04H734.928C740.309 487.04 744.672 482.678 744.672 477.296V124.192C744.672 118.811 740.309 114.448 734.928 114.448Z" fill="#E0E0E0"/>
<path id="Vector_19" d="M734.928 488.64H264.624C261.617 488.636 258.734 487.439 256.608 485.313C254.481 483.186 253.285 480.303 253.28 477.296V124.192C253.285 121.185 254.481 118.302 256.608 116.175C258.734 114.049 261.617 112.852 264.624 112.848H734.928C737.935 112.852 740.818 114.049 742.945 116.175C745.071 118.302 746.268 121.185 746.272 124.192V477.296C746.268 480.303 745.071 483.186 742.945 485.313C740.818 487.439 737.935 488.636 734.928 488.64ZM264.624 116.048C262.466 116.052 260.397 116.912 258.87 118.438C257.344 119.965 256.485 122.034 256.48 124.192V477.296C256.485 479.455 257.344 481.524 258.87 483.05C260.397 484.577 262.466 485.436 264.624 485.44H734.928C737.087 485.436 739.156 484.577 740.682 483.05C742.209 481.524 743.068 479.455 743.072 477.296V124.192C743.072 122.032 742.214 119.961 740.687 118.433C739.16 116.906 737.088 116.048 734.928 116.048H264.624Z" fill="#E0E0E0"/>
<path id="Vector_20" d="M254.88 139.648V477.248C254.888 479.83 255.918 482.304 257.743 484.129C259.569 485.955 262.042 486.984 264.624 486.992H734.928C737.509 486.984 739.983 485.955 741.809 484.129C743.634 482.304 744.663 479.83 744.672 477.248V139.648H254.88Z" fill="#F0F0F0"/>
<path id="Vector_21" d="M742.879 152.608H256.688V474.08H742.879V152.608Z" fill="white"/>
<path id="Vector_22" d="M725.68 444.656H273.888C273.866 444.658 273.844 444.656 273.823 444.649C273.803 444.642 273.784 444.63 273.769 444.615C273.753 444.599 273.742 444.581 273.735 444.56C273.727 444.539 273.725 444.517 273.728 444.496V173.44C273.728 173.397 273.744 173.357 273.774 173.327C273.804 173.297 273.845 173.28 273.888 173.28H725.68C725.721 173.283 725.759 173.301 725.789 173.331C725.818 173.36 725.836 173.399 725.84 173.44V444.496C725.84 444.517 725.835 444.538 725.827 444.557C725.819 444.576 725.808 444.594 725.793 444.609C725.778 444.624 725.76 444.636 725.741 444.644C725.721 444.652 725.701 444.656 725.68 444.656ZM274.048 444.336H725.52V173.616H274.048V444.336Z" fill="#E6E6E6"/>
<path id="Vector_23" d="M276.256 132.944C275.105 132.941 273.981 132.596 273.025 131.955C272.069 131.313 271.325 130.402 270.887 129.338C270.449 128.273 270.336 127.103 270.562 125.974C270.789 124.845 271.345 123.809 272.16 122.996C272.975 122.183 274.013 121.63 275.142 121.407C276.271 121.183 277.441 121.299 278.505 121.741C279.568 122.182 280.477 122.928 281.116 123.886C281.755 124.843 282.096 125.969 282.096 127.12C282.096 127.886 281.945 128.645 281.651 129.352C281.358 130.06 280.927 130.703 280.385 131.244C279.842 131.785 279.198 132.213 278.49 132.505C277.781 132.797 277.022 132.946 276.256 132.944ZM276.256 122.592C275.361 122.595 274.488 122.863 273.745 123.363C273.002 123.862 272.425 124.57 272.084 125.398C271.744 126.226 271.657 127.136 271.833 128.013C272.01 128.89 272.442 129.696 273.076 130.327C273.71 130.959 274.517 131.389 275.395 131.562C276.273 131.735 277.182 131.645 278.009 131.302C278.835 130.958 279.541 130.378 280.038 129.634C280.535 128.89 280.8 128.015 280.8 127.12C280.8 126.524 280.683 125.934 280.454 125.383C280.225 124.833 279.891 124.333 279.468 123.912C279.046 123.492 278.545 123.159 277.994 122.932C277.443 122.705 276.852 122.59 276.256 122.592Z" fill="white"/>
<path id="Vector_24" d="M294.623 132.944C293.472 132.941 292.348 132.596 291.392 131.955C290.437 131.313 289.693 130.402 289.254 129.338C288.816 128.273 288.703 127.103 288.929 125.974C289.156 124.845 289.712 123.809 290.527 122.996C291.342 122.183 292.38 121.63 293.509 121.407C294.638 121.183 295.809 121.299 296.872 121.741C297.935 122.182 298.844 122.928 299.483 123.886C300.122 124.843 300.463 125.969 300.463 127.12C300.463 127.886 300.312 128.645 300.019 129.352C299.725 130.06 299.294 130.703 298.752 131.244C298.209 131.785 297.566 132.213 296.857 132.505C296.149 132.797 295.39 132.946 294.623 132.944ZM294.623 122.592C293.73 122.601 292.859 122.875 292.121 123.378C291.383 123.881 290.81 124.592 290.474 125.42C290.139 126.248 290.056 127.157 290.236 128.032C290.416 128.907 290.851 129.71 291.487 130.338C292.122 130.967 292.929 131.393 293.806 131.564C294.683 131.735 295.591 131.642 296.415 131.298C297.24 130.954 297.944 130.374 298.44 129.63C298.935 128.887 299.199 128.013 299.199 127.12C299.199 126.521 299.081 125.928 298.85 125.376C298.62 124.823 298.282 124.322 297.856 123.901C297.431 123.48 296.926 123.147 296.371 122.923C295.816 122.698 295.222 122.586 294.623 122.592Z" fill="white"/>
<path id="Vector_25" d="M312.993 132.944C311.841 132.941 310.717 132.596 309.761 131.955C308.806 131.313 308.062 130.402 307.623 129.338C307.185 128.273 307.072 127.103 307.298 125.974C307.525 124.845 308.081 123.809 308.896 122.996C309.711 122.183 310.749 121.63 311.878 121.407C313.008 121.183 314.178 121.299 315.241 121.741C316.304 122.182 317.213 122.928 317.852 123.886C318.491 124.843 318.833 125.969 318.833 127.12C318.833 127.886 318.681 128.645 318.388 129.352C318.094 130.06 317.664 130.703 317.121 131.244C316.579 131.785 315.935 132.213 315.226 132.505C314.518 132.797 313.759 132.946 312.993 132.944ZM312.993 122.592C312.098 122.595 311.224 122.863 310.481 123.363C309.739 123.862 309.161 124.57 308.821 125.398C308.48 126.226 308.393 127.136 308.57 128.013C308.746 128.89 309.179 129.696 309.812 130.327C310.446 130.959 311.253 131.389 312.131 131.562C313.009 131.735 313.919 131.645 314.745 131.302C315.571 130.958 316.278 130.378 316.775 129.634C317.271 128.89 317.537 128.015 317.537 127.12C317.537 126.524 317.419 125.934 317.19 125.383C316.962 124.833 316.627 124.333 316.205 123.912C315.783 123.492 315.281 123.159 314.73 122.932C314.179 122.705 313.589 122.59 312.993 122.592Z" fill="white"/>
<path id="Vector_26" d="M744.672 138.992H254.88V140.288H744.672V138.992Z" fill="#E0E0E0"/>
<path id="Vector_27" d="M476.992 412.912H701.056V184.544L476.992 184.544V412.912Z" fill="#F0F0F0"/>
<path id="Vector_28" d="M284.959 258.832H432.896V184.544H284.959V258.832Z" fill="#F0F0F0"/>
<path id="Vector_29" d="M284.959 474.08H432.896V286.608H284.959V474.08Z" fill="#F0F0F0"/>
</g>
<g id="floor">
<path id="Vector_30" d="M400 684.096C571.332 684.096 710.224 675.987 710.224 665.984C710.224 655.981 571.332 647.872 400 647.872C228.668 647.872 89.7764 655.981 89.7764 665.984C89.7764 675.987 228.668 684.096 400 684.096Z" fill="#F5F5F5"/>
</g>
<g id="window">
<path id="Vector_31" d="M687.024 154.864H112.992C108.916 154.876 105.011 156.5 102.127 159.38C99.2441 162.261 97.6165 166.164 97.5996 170.24V553.376C97.6123 557.453 99.2385 561.359 102.123 564.24C105.007 567.121 108.915 568.743 112.992 568.752H687.024C691.098 568.739 695.001 567.115 697.882 564.234C700.763 561.353 702.387 557.45 702.4 553.376V170.24C702.383 166.167 700.757 162.266 697.878 159.386C694.998 156.506 691.096 154.881 687.024 154.864Z" fill="url(#paint0_linear)"/>
<path id="Vector_32" opacity="0.3" d="M687.024 154.864H112.992C108.916 154.876 105.011 156.5 102.127 159.38C99.2441 162.261 97.6165 166.164 97.5996 170.24V553.376C97.6123 557.453 99.2385 561.359 102.123 564.24C105.007 567.121 108.915 568.743 112.992 568.752H687.024C691.098 568.739 695.001 567.115 697.882 564.234C700.763 561.353 702.387 557.45 702.4 553.376V170.24C702.383 166.167 700.757 162.266 697.878 159.386C694.998 156.506 691.096 154.881 687.024 154.864Z" fill="white"/>
<path id="Vector_33" d="M211.904 180.528H130.656C129.17 180.528 127.746 179.938 126.696 178.887C125.646 177.837 125.056 176.413 125.056 174.928C125.056 173.442 125.646 172.018 126.696 170.968C127.746 169.918 129.17 169.328 130.656 169.328H211.904C213.389 169.328 214.813 169.918 215.863 170.968C216.914 172.018 217.504 173.442 217.504 174.928C217.504 176.413 216.914 177.837 215.863 178.887C214.813 179.938 213.389 180.528 211.904 180.528ZM130.656 170.928C129.595 170.928 128.577 171.349 127.827 172.099C127.077 172.849 126.656 173.867 126.656 174.928C126.656 175.989 127.077 177.006 127.827 177.756C128.577 178.506 129.595 178.928 130.656 178.928H211.904C212.965 178.928 213.982 178.506 214.732 177.756C215.482 177.006 215.904 175.989 215.904 174.928C215.904 173.867 215.482 172.849 214.732 172.099C213.982 171.349 212.965 170.928 211.904 170.928H130.656Z" fill="#FAFAFA"/>
<path id="Vector_34" d="M238.272 180.528H232.848C231.363 180.528 229.938 179.938 228.888 178.887C227.838 177.837 227.248 176.413 227.248 174.928C227.248 173.442 227.838 172.018 228.888 170.968C229.938 169.918 231.363 169.328 232.848 169.328H238.272C239.757 169.328 241.182 169.918 242.232 170.968C243.282 172.018 243.872 173.442 243.872 174.928C243.872 176.413 243.282 177.837 242.232 178.887C241.182 179.938 239.757 180.528 238.272 180.528ZM232.848 170.928C231.787 170.928 230.77 171.349 230.02 172.099C229.269 172.849 228.848 173.867 228.848 174.928C228.848 175.989 229.269 177.006 230.02 177.756C230.77 178.506 231.787 178.928 232.848 178.928H238.272C239.333 178.928 240.35 178.506 241.1 177.756C241.851 177.006 242.272 175.989 242.272 174.928C242.272 173.867 241.851 172.849 241.1 172.099C240.35 171.349 239.333 170.928 238.272 170.928H232.848Z" fill="#FAFAFA"/>
<path id="Vector_35" d="M260.944 180.528H255.52C254.035 180.528 252.61 179.938 251.56 178.887C250.51 177.837 249.92 176.413 249.92 174.928C249.92 173.442 250.51 172.018 251.56 170.968C252.61 169.918 254.035 169.328 255.52 169.328H260.944C262.429 169.328 263.854 169.918 264.904 170.968C265.954 172.018 266.544 173.442 266.544 174.928C266.544 176.413 265.954 177.837 264.904 178.887C263.854 179.938 262.429 180.528 260.944 180.528ZM255.52 170.928C254.459 170.928 253.442 171.349 252.691 172.099C251.941 172.849 251.52 173.867 251.52 174.928C251.52 175.989 251.941 177.006 252.691 177.756C253.442 178.506 254.459 178.928 255.52 178.928H260.944C262.005 178.928 263.022 178.506 263.772 177.756C264.522 177.006 264.944 175.989 264.944 174.928C264.944 173.867 264.522 172.849 263.772 172.099C263.022 171.349 262.005 170.928 260.944 170.928H255.52Z" fill="#FAFAFA"/>
<path id="Vector_36" d="M97.5996 194.64V553.376C97.6123 557.452 99.2385 561.358 102.123 564.24C105.007 567.121 108.915 568.743 112.992 568.752H687.024C691.098 568.739 695.001 567.115 697.882 564.234C700.763 561.353 702.387 557.45 702.4 553.376V194.64H97.5996Z" fill="url(#paint1_linear)"/>
<path id="Vector_37" opacity="0.6" d="M97.5996 194.64V553.376C97.6123 557.452 99.2385 561.358 102.123 564.24C105.007 567.121 108.915 568.743 112.992 568.752H687.024C691.098 568.739 695.001 567.115 697.882 564.234C700.763 561.353 702.387 557.45 702.4 553.376V194.64H97.5996Z" fill="white"/>
<path id="Vector_38" d="M100.447 194.64V539.568C100.445 540.714 100.669 541.85 101.106 542.91C101.544 543.969 102.186 544.933 102.996 545.744C103.806 546.555 104.768 547.199 105.827 547.638C106.886 548.078 108.021 548.304 109.167 548.304H690.831C691.978 548.304 693.113 548.078 694.172 547.638C695.231 547.199 696.193 546.555 697.003 545.744C697.813 544.933 698.455 543.969 698.892 542.91C699.329 541.85 699.553 540.714 699.551 539.568V194.64H100.447Z" fill="#FAFAFA"/>
<path id="Vector_39" d="M128 214.944V278.944H539.2V214.944H128Z" fill="url(#paint2_linear)"/>
<path id="Vector_40" opacity="0.9" d="M128 214.944V278.944H539.2V214.944H128Z" fill="white"/>
<path id="Vector_41" d="M537.6 297.504V467.424H129.6V297.504H537.6ZM539.2 295.904H128V469.024H539.2V295.904Z" fill="url(#paint3_linear)"/>
<path id="Vector_42" opacity="0.9" d="M537.6 297.504V467.424H129.6V297.504H537.6ZM539.2 295.904H128V469.024H539.2V295.904Z" fill="white"/>
</g>
<g id="boy">
<path id="Vector_43" d="M585.312 651.103H573.248L570.032 623.151H582.112L585.312 651.103Z" fill="#FF8B7B"/>
<path id="Vector_44" d="M658.529 651.103H646.465L637.057 623.151H649.121L658.529 651.103Z" fill="#FF8B7B"/>
<path id="Vector_45" d="M644.8 649.696H659.52C659.76 649.698 659.992 649.781 660.178 649.932C660.364 650.083 660.493 650.293 660.544 650.528L662.928 661.248C662.986 661.51 662.984 661.781 662.922 662.042C662.86 662.303 662.74 662.546 662.571 662.754C662.402 662.962 662.188 663.129 661.945 663.242C661.702 663.355 661.436 663.412 661.168 663.408C656.368 663.328 652.976 663.04 647.008 663.04C643.344 663.04 635.808 663.424 630.72 663.424C625.632 663.424 624.992 658.416 627.056 657.968C636.368 655.92 639.856 653.168 642.848 650.448C643.383 649.964 644.079 649.696 644.8 649.696Z" fill="#263238"/>
<path id="Vector_46" d="M573.328 649.696H586.512C586.754 649.697 586.988 649.78 587.177 649.931C587.366 650.082 587.498 650.292 587.552 650.528L589.936 661.248C589.994 661.508 589.992 661.778 589.931 662.038C589.87 662.298 589.751 662.54 589.584 662.748C589.416 662.955 589.204 663.122 588.963 663.236C588.722 663.351 588.459 663.409 588.192 663.408C583.392 663.328 576.56 663.04 570.592 663.04C563.6 663.04 557.568 663.424 549.376 663.424C544.416 663.424 542.976 658.416 545.12 657.968C554.56 655.888 562.272 655.68 570.432 650.64C571.291 650.062 572.294 649.735 573.328 649.696Z" fill="#263238"/>
<path id="Vector_47" d="M592.241 351.6C591.041 360.944 589.729 370.336 588.337 379.68L584.161 408.096C583.513 411.551 582.127 414.826 580.097 417.696C578.259 420.276 576.036 422.559 573.505 424.464C569.042 427.717 564.082 430.224 558.817 431.888C553.982 433.473 549.019 434.64 543.985 435.376C541.505 435.76 539.041 436.016 536.561 436.224C534.081 436.432 531.681 436.56 529.041 436.56L528.225 427.536C532.529 426.544 537.089 425.392 541.361 423.968C545.593 422.651 549.73 421.048 553.745 419.168C557.399 417.514 560.79 415.331 563.809 412.688C564.989 411.616 565.998 410.37 566.801 408.992C567.406 407.912 567.782 406.719 567.905 405.488L568.369 398.752C568.529 396.352 568.753 393.952 568.961 391.584C569.377 386.816 569.851 382.059 570.385 377.312C571.425 367.824 572.657 358.4 574.129 348.944L592.241 351.6Z" fill="#FF8B7B"/>
<path id="Vector_48" d="M596.224 345.6C600.288 356.4 590.544 392.608 590.544 392.608L563.729 379.2C563.729 379.2 564.993 361.152 571.121 347.2C577.249 333.248 591.761 333.696 596.224 345.6Z" fill="url(#paint4_linear)"/>
<path id="Vector_49" opacity="0.3" d="M596.224 345.6C600.288 356.4 590.544 392.608 590.544 392.608L563.729 379.2C563.729 379.2 564.993 361.152 571.121 347.2C577.249 333.248 591.761 333.696 596.224 345.6Z" fill="black"/>
<path id="Vector_50" d="M534.641 426.432L521.473 427.312L527.633 441.44C530.105 441.37 532.491 440.511 534.44 438.988C536.389 437.465 537.799 435.358 538.465 432.976L534.641 426.432Z" fill="#FF8B7B"/>
<path id="Vector_51" d="M509.584 432.864L516.896 442.752L527.616 441.44L521.472 427.312L509.584 432.864Z" fill="#FF8B7B"/>
<path id="Vector_52" d="M570.049 623.151L571.905 639.375L583.905 638.655L582.113 623.151H570.049Z" fill="#EA7063"/>
<path id="Vector_53" d="M649.137 623.151H637.057L643.361 641.872L654.593 639.359L649.137 623.151Z" fill="#EA7063"/>
<path id="Vector_54" d="M581.889 337.28C581.889 337.28 567.649 373.728 581.169 441.616H645.729C646.177 431.696 639.953 383.36 649.505 336.656C642.372 335.279 635.156 334.37 627.905 333.936C618.76 333.4 609.593 333.4 600.449 333.936C594.184 334.564 587.978 335.682 581.889 337.28Z" fill="url(#paint5_linear)"/>
<path id="Vector_55" opacity="0.3" d="M581.889 337.28C581.889 337.28 567.649 373.728 581.169 441.616H645.729C646.177 431.696 639.953 383.36 649.505 336.656C642.372 335.279 635.156 334.37 627.905 333.936C618.76 333.4 609.593 333.4 600.449 333.936C594.184 334.564 587.978 335.682 581.889 337.28Z" fill="black"/>
<path id="Vector_56" d="M605.473 371.391C604.609 379.487 600.161 385.663 595.521 385.167C590.881 384.671 587.825 377.711 588.673 369.599C589.521 361.487 594.001 355.328 598.625 355.807C603.249 356.287 606.401 363.279 605.473 371.391Z" fill="url(#paint6_linear)"/>
<path id="Vector_57" opacity="0.1" d="M605.473 371.391C604.609 379.487 600.161 385.663 595.521 385.167C590.881 384.671 587.825 377.711 588.673 369.599C589.521 361.487 594.001 355.328 598.625 355.807C603.249 356.287 606.401 363.279 605.473 371.391Z" fill="white"/>
<path id="Vector_58" d="M636.353 358.976C638.465 348.32 642.561 350.16 646.465 355.408C644.796 369.537 644.027 383.757 644.161 397.984C641.505 393.472 632.833 376.832 636.353 358.976Z" fill="url(#paint7_linear)"/>
<path id="Vector_59" opacity="0.4" d="M636.353 358.976C638.465 348.32 642.561 350.16 646.465 355.408C644.796 369.537 644.027 383.757 644.161 397.984C641.505 393.472 632.833 376.832 636.353 358.976Z" fill="black"/>
<path id="Vector_60" d="M625.184 303.024C623.456 311.856 621.728 328.032 627.904 333.936C627.904 333.936 625.488 342.88 609.072 342.88C591.04 342.88 600.448 333.936 600.448 333.936C610.304 331.584 610.048 324.336 608.336 317.408L625.184 303.024Z" fill="#FF8B7B"/>
<path id="Vector_61" d="M618.304 308.896L608.336 317.408C608.76 318.979 609.044 320.586 609.184 322.208C612.944 321.664 618.112 317.536 618.512 313.6C618.737 312.032 618.667 310.437 618.304 308.896Z" fill="#EA7063"/>
<path id="Vector_62" d="M600 269.968C593.36 275.136 593.408 295.76 603.472 296.192C613.537 296.624 612.624 260.208 600 269.968Z" fill="#263238"/>
<path id="Vector_63" d="M627.744 292.592C624.24 304.048 622.768 310.928 615.456 315.488C604.48 322.352 591.456 313.584 591.456 301.312C591.456 290.256 597.2 273.392 609.696 271.488C612.445 271.065 615.255 271.351 617.862 272.319C620.469 273.286 622.786 274.903 624.594 277.017C626.401 279.13 627.639 281.67 628.19 284.395C628.742 287.121 628.588 289.942 627.744 292.592Z" fill="#FF8B7B"/>
<path id="Vector_64" d="M624.192 303.792C617.456 304.848 613.776 270.192 629.84 277.856C652.672 288.784 635.104 302.096 624.192 303.792Z" fill="#263238"/>
<path id="Vector_65" d="M624.832 281.04C616.528 280.32 604.512 280.672 601.904 270.416C598.272 256.112 615.376 254 619.6 264.944C629.776 261.6 657.808 279.072 639.136 287.936L624.832 281.04Z" fill="#263238"/>
<path id="Vector_66" d="M629.92 306.672C627.753 308.761 624.85 309.911 621.84 309.872C617.856 309.792 617.04 305.952 619.056 302.784C620.928 299.92 625.248 296.528 628.784 298.144C632.32 299.76 632.528 304 629.92 306.672Z" fill="#FF8B7B"/>
<path id="Vector_67" d="M581.168 441.6C581.168 441.6 534.096 506.832 535.424 543.632C536.784 581.92 567.168 634.832 567.168 634.832L586.8 630.336C586.8 630.336 567.264 584.24 568.176 546.64C569.168 505.648 623.616 473.296 623.616 441.68L581.168 441.6Z" fill="#263238"/>
<path id="Vector_68" d="M604.08 441.6C604.08 441.6 580.08 508.8 587.616 543.376C595.84 581.216 637.216 637.136 637.216 637.136L656.976 631.696C656.976 631.696 630.224 583.584 625.536 546.112C620.432 505.456 645.792 471.84 645.792 441.6H604.08Z" fill="#263238"/>
<path id="Vector_69" d="M634.209 639.888L662.625 634.608L661.201 626.976L629.345 632.368L634.209 639.888Z" fill="url(#paint8_linear)"/>
<path id="Vector_70" opacity="0.4" d="M634.209 639.888L662.625 634.608L661.201 626.976L629.345 632.368L634.209 639.888Z" fill="white"/>
<path id="Vector_71" d="M563.072 636.48L591.824 633.648L591.056 625.808L558.864 628.576L563.072 636.48Z" fill="url(#paint9_linear)"/>
<path id="Vector_72" opacity="0.4" d="M563.072 636.48L591.824 633.648L591.056 625.808L558.864 628.576L563.072 636.48Z" fill="white"/>
<path id="Vector_73" d="M609.329 291.616C609.105 292.56 608.417 293.216 607.729 293.056C607.041 292.896 606.785 292.016 607.025 291.072C607.265 290.128 607.937 289.472 608.545 289.632C609.153 289.792 609.601 290.672 609.329 291.616Z" fill="#263238"/>
<path id="Vector_74" d="M598.625 289.04C598.401 289.984 597.713 290.64 597.025 290.496C596.337 290.352 596.097 289.456 596.321 288.512C596.545 287.568 597.233 286.912 597.921 287.056C598.609 287.2 598.849 288.096 598.625 289.04Z" fill="#263238"/>
<path id="Vector_75" d="M601.905 290.336C600.104 292.955 597.95 295.313 595.505 297.344C596.041 297.962 596.705 298.455 597.451 298.789C598.197 299.124 599.007 299.291 599.825 299.28L601.905 290.336Z" fill="#FF5652"/>
<path id="Vector_76" d="M604.032 302.816C603.31 302.811 602.591 302.725 601.888 302.56C601.816 302.537 601.755 302.489 601.716 302.424C601.678 302.359 601.665 302.282 601.68 302.208C601.689 302.171 601.706 302.136 601.729 302.106C601.752 302.075 601.78 302.05 601.813 302.03C601.846 302.011 601.882 301.998 601.919 301.993C601.957 301.988 601.995 301.99 602.032 302C603.204 302.309 604.432 302.338 605.617 302.082C606.801 301.826 607.909 301.293 608.848 300.528C608.902 300.476 608.973 300.447 609.048 300.447C609.123 300.447 609.194 300.476 609.248 300.528C609.276 300.553 609.298 300.584 609.313 300.618C609.328 300.653 609.336 300.69 609.336 300.728C609.336 300.765 609.328 300.802 609.313 300.837C609.298 300.871 609.276 300.902 609.248 300.928C607.79 302.159 605.94 302.828 604.032 302.816Z" fill="#263238"/>
<path id="Vector_77" d="M613.505 288.944C613.396 288.944 613.29 288.912 613.199 288.852C613.108 288.792 613.036 288.708 612.993 288.608C612.723 287.943 612.3 287.351 611.757 286.881C611.215 286.411 610.569 286.076 609.873 285.904C609.722 285.878 609.588 285.794 609.499 285.67C609.411 285.545 609.375 285.39 609.401 285.24C609.426 285.089 609.51 284.955 609.635 284.866C609.759 284.778 609.914 284.742 610.065 284.768C610.949 284.971 611.77 285.383 612.461 285.971C613.152 286.559 613.691 287.304 614.033 288.144C614.064 288.212 614.082 288.286 614.085 288.361C614.088 288.436 614.075 288.511 614.048 288.581C614.021 288.651 613.981 288.715 613.928 288.769C613.876 288.823 613.814 288.866 613.745 288.896C613.671 288.935 613.588 288.951 613.505 288.944Z" fill="#263238"/>
<path id="Vector_78" d="M594.96 284.256C594.826 284.26 594.695 284.214 594.592 284.128C594.533 284.081 594.484 284.023 594.448 283.957C594.412 283.892 594.39 283.819 594.383 283.745C594.375 283.67 594.383 283.595 594.405 283.523C594.427 283.451 594.464 283.385 594.512 283.328C595.077 282.604 595.808 282.028 596.644 281.649C597.48 281.27 598.396 281.1 599.312 281.152C599.462 281.172 599.598 281.25 599.691 281.37C599.784 281.49 599.826 281.641 599.808 281.792C599.788 281.939 599.712 282.073 599.596 282.165C599.479 282.258 599.332 282.301 599.184 282.288C598.466 282.269 597.753 282.418 597.103 282.724C596.453 283.03 595.884 283.483 595.44 284.048C595.384 284.12 595.31 284.177 595.227 284.213C595.143 284.25 595.051 284.264 594.96 284.256Z" fill="#263238"/>
<g id="boy-card">
<path id="Vector_79" d="M437.574 515.669L394.264 520.826L394.453 522.414L437.763 517.258L437.574 515.669Z" fill="url(#paint10_linear)"/>
<path id="Vector_80" d="M470.862 511.665L453.022 513.808L453.213 515.396L471.053 513.253L470.862 511.665Z" fill="url(#paint11_linear)"/>
<path id="Vector_81" d="M717.98 409.325L333.854 455.129L341.949 523.016L726.075 477.212L717.98 409.325Z" fill="url(#paint12_linear)"/>
<path id="Vector_82" d="M661.266 434.695L484.804 455.737L488.523 486.924L664.984 465.882L661.266 434.695Z" fill="url(#paint13_linear)"/>
<path id="Vector_83" opacity="0.2" d="M661.266 434.695L484.804 455.737L488.523 486.924L664.984 465.882L661.266 434.695Z" fill="white"/>
<path id="Vector_84" d="M391.839 499.615C400.42 492.745 401.807 480.219 394.937 471.637C388.067 463.056 375.541 461.669 366.96 468.539C358.378 475.409 356.991 487.935 363.861 496.516C370.731 505.097 383.257 506.485 391.839 499.615Z" fill="url(#paint14_linear)"/>
<path id="Vector_85" opacity="0.2" d="M391.839 499.615C400.42 492.745 401.807 480.219 394.937 471.637C388.067 463.056 375.541 461.669 366.96 468.539C358.378 475.409 356.991 487.935 363.861 496.516C370.731 505.097 383.257 506.485 391.839 499.615Z" fill="white"/>
<path id="Vector_86" d="M451.471 489.592C458.17 480.876 456.536 468.38 447.821 461.681C439.106 454.981 426.609 456.615 419.91 465.331C413.21 474.046 414.844 486.542 423.56 493.241C432.275 499.941 444.771 498.307 451.471 489.592Z" fill="url(#paint15_linear)"/>
<path id="Vector_87" opacity="0.2" d="M451.471 489.592C458.17 480.876 456.536 468.38 447.821 461.681C439.106 454.981 426.609 456.615 419.91 465.331C413.21 474.046 414.844 486.542 423.56 493.241C432.275 499.941 444.771 498.307 451.471 489.592Z" fill="white"/>
</g>
<path id="Vector_88" d="M654.113 346.048C655.169 348.288 656.033 350.272 656.865 352.448C657.697 354.624 658.465 356.656 659.297 358.848C660.897 363.088 662.225 367.392 663.425 371.792C664.669 376.212 665.689 380.693 666.481 385.216L667.057 388.656L667.473 392.16C667.633 393.328 667.697 394.528 667.777 395.712L667.905 397.504V397.952V398.688C667.905 399.264 667.905 399.76 667.905 400.288C667.59 403.434 666.678 406.492 665.217 409.296C664.089 411.553 662.806 413.729 661.377 415.808C658.732 419.609 655.84 423.233 652.721 426.656C646.698 433.273 640.172 439.414 633.201 445.024L626.801 438.624C632.017 431.952 637.233 425.056 641.953 418.208C644.27 414.88 646.406 411.429 648.353 407.872C649.245 406.277 650.02 404.619 650.673 402.912C651.131 401.818 651.401 400.655 651.473 399.472C651.473 399.472 651.473 399.392 651.473 399.472C651.473 399.552 651.473 399.568 651.473 399.472V399.104L651.249 397.664C651.105 396.688 650.977 395.744 650.753 394.752L650.177 391.84L649.489 388.896C648.513 384.976 647.409 381.04 646.145 377.12C644.881 373.2 643.505 369.28 642.049 365.376C641.329 363.424 640.593 361.488 639.825 359.552L637.473 353.6L654.113 346.048Z" fill="#FF8B7B"/>
<path id="Vector_89" d="M652.032 337.456C662.8 341.6 670.528 380.992 670.528 380.992L644.928 391.088C644.928 391.088 636.336 371.296 633.44 356.656C630.4 341.248 639.808 332.8 652.032 337.456Z" fill="url(#paint16_linear)"/>
<path id="Vector_90" opacity="0.3" d="M652.032 337.456C662.8 341.6 670.528 380.992 670.528 380.992L644.928 391.088C644.928 391.088 636.336 371.296 633.44 356.656C630.4 341.248 639.808 332.8 652.032 337.456Z" fill="black"/>
<path id="Vector_91" d="M640.865 651.808C640.04 651.868 639.219 651.655 638.528 651.2C638.314 651.013 638.149 650.777 638.046 650.512C637.943 650.248 637.905 649.962 637.937 649.68C637.935 649.513 637.981 649.349 638.069 649.208C638.156 649.066 638.283 648.952 638.433 648.879C639.777 648.191 643.665 650.576 644.097 650.864C644.147 650.89 644.187 650.933 644.21 650.986C644.233 651.038 644.238 651.096 644.225 651.152C644.216 651.206 644.192 651.256 644.155 651.296C644.118 651.336 644.07 651.363 644.017 651.376C642.986 651.64 641.928 651.785 640.865 651.808ZM639.073 649.312C638.939 649.3 638.806 649.328 638.689 649.392C638.609 649.392 638.529 649.504 638.513 649.728C638.485 649.917 638.506 650.11 638.573 650.289C638.64 650.468 638.752 650.627 638.897 650.752C640.244 651.375 641.779 651.455 643.185 650.976C641.933 650.163 640.537 649.598 639.073 649.312Z" fill="url(#paint17_linear)"/>
<path id="Vector_92" d="M643.953 651.392C643.906 651.405 643.856 651.405 643.809 651.392C642.561 650.72 640.145 648.08 640.401 646.736C640.442 646.524 640.555 646.333 640.721 646.196C640.888 646.058 641.097 645.983 641.313 645.984C641.53 645.959 641.75 645.978 641.959 646.042C642.168 646.105 642.362 646.211 642.529 646.352C643.937 647.488 644.225 650.976 644.241 651.152C644.242 651.204 644.231 651.256 644.209 651.303C644.187 651.35 644.154 651.391 644.113 651.424C644.057 651.428 644.002 651.417 643.953 651.392ZM641.601 646.496H641.457C641.089 646.496 641.057 646.72 641.041 646.784C640.897 647.584 642.433 649.584 643.681 650.528C643.593 649.15 643.098 647.83 642.257 646.736C642.071 646.585 641.84 646.5 641.601 646.496Z" fill="url(#paint18_linear)"/>
<path id="Vector_93" d="M568.321 651.808C567.284 651.902 566.247 651.643 565.377 651.072C565.182 650.9 565.033 650.684 564.941 650.441C564.849 650.199 564.817 649.937 564.849 649.68C564.855 649.523 564.901 649.37 564.982 649.236C565.063 649.102 565.177 648.99 565.313 648.912C566.785 648.096 571.633 650.512 572.193 650.848C572.243 650.876 572.283 650.919 572.309 650.97C572.334 651.021 572.344 651.079 572.337 651.136C572.331 651.195 572.305 651.25 572.265 651.293C572.225 651.337 572.171 651.366 572.113 651.376C570.865 651.64 569.596 651.784 568.321 651.808ZM566.129 649.312C565.946 649.3 565.763 649.339 565.601 649.424C565.544 649.453 565.497 649.496 565.463 649.55C565.429 649.603 565.41 649.665 565.409 649.728C565.392 649.897 565.415 650.067 565.476 650.226C565.538 650.384 565.635 650.526 565.761 650.64C566.497 651.296 568.497 651.424 571.153 650.976C569.585 650.138 567.886 649.575 566.129 649.312Z" fill="url(#paint19_linear)"/>
<path id="Vector_94" d="M572.049 651.392H571.937C570.481 650.736 567.601 648.192 567.809 646.768C567.809 646.448 568.097 646.048 568.881 645.968C569.166 645.931 569.456 645.955 569.732 646.038C570.007 646.12 570.263 646.26 570.481 646.448C572.081 647.712 572.337 650.96 572.353 651.104C572.361 651.153 572.354 651.203 572.335 651.249C572.315 651.294 572.282 651.333 572.241 651.36C572.181 651.389 572.114 651.401 572.049 651.392ZM569.105 646.496H568.945C568.417 646.496 568.385 646.752 568.385 646.816C568.241 647.648 570.209 649.696 571.697 650.592C571.558 649.215 570.999 647.913 570.097 646.864C569.823 646.623 569.469 646.492 569.105 646.496Z" fill="url(#paint20_linear)"/>
<path id="Vector_95" d="M629.6 436.8L617.76 440L627.568 451.888C627.568 451.888 637.056 446.976 635.008 441.648L629.6 436.8Z" fill="#FF8B7B"/>
<path id="Vector_96" d="M609.185 449.872L617.761 459.184L627.569 451.872L617.761 439.984L609.185 449.872Z" fill="#FF8B7B"/>
</g>
<g id="girl">
<path id="Vector_97" d="M226.609 308.8C223.937 311.52 221.073 314.544 218.433 317.552C215.793 320.56 213.153 323.648 210.673 326.816C208.193 329.984 205.873 333.216 203.585 336.416L201.985 338.896L200.385 341.408C199.857 342.256 199.393 343.104 198.929 343.968L197.665 346.288C197.144 347.616 196.852 349.023 196.801 350.448C196.672 352.28 196.672 354.12 196.801 355.952C197.08 359.909 197.587 363.846 198.321 367.744C199.009 371.728 199.921 375.744 200.833 379.712C201.745 383.68 202.801 387.712 203.841 391.664L197.985 393.856C194.419 386.091 191.445 378.069 189.089 369.856C187.871 365.657 186.941 361.381 186.305 357.056C185.973 354.74 185.807 352.403 185.809 350.064C185.764 347.304 186.231 344.559 187.185 341.968C187.537 341.088 187.745 340.736 187.985 340.208L188.705 338.704C189.185 337.696 189.681 336.704 190.209 335.744L191.809 332.832L193.409 330C195.646 326.272 198.081 322.667 200.705 319.2C203.297 315.744 205.985 312.352 208.817 309.12C211.649 305.888 214.513 302.72 217.793 299.648L226.609 308.8Z" fill="#B55B52"/>
<path id="Vector_98" d="M227.28 289.744C218.72 290.128 210.576 304.352 210.576 304.352L220.704 325.024C220.704 325.024 237.232 314.688 237.44 302.128C237.568 293.968 235.712 289.36 227.28 289.744Z" fill="url(#paint21_linear)"/>
<path id="Vector_99" opacity="0.5" d="M227.28 289.744C218.72 290.128 210.576 304.352 210.576 304.352L220.704 325.024C220.704 325.024 237.232 314.688 237.44 302.128C237.568 293.968 235.712 289.36 227.28 289.744Z" fill="black"/>
<path id="Vector_100" d="M202.224 389.264L212.656 392.368L205.712 399.392C205.712 399.392 198.208 397.072 197.152 391.968L202.224 389.264Z" fill="#B55B52"/>
<path id="Vector_101" d="M218.961 400.384L217.217 407.104L205.713 399.392L212.657 392.368L218.961 400.384Z" fill="#B55B52"/>
<path id="Vector_102" d="M458.091 330.828L205.075 336.879L207.357 432.276L460.372 426.225L458.091 330.828Z" fill="url(#paint22_linear)"/>
<path id="Vector_103" opacity="0.6" d="M458.091 330.828L205.075 336.879L207.357 432.276L460.372 426.225L458.091 330.828Z" fill="white"/>
<path id="Vector_104" d="M445.374 338.732L351.049 340.988L351.899 376.546L446.224 374.29L445.374 338.732Z" fill="url(#paint23_linear)"/>
<path id="Vector_105" opacity="0.7" d="M445.374 338.732L351.049 340.988L351.899 376.546L446.224 374.29L445.374 338.732Z" fill="white"/>
<path id="Vector_106" d="M394.799 383L300.474 385.256L301.324 420.814L395.649 418.558L394.799 383Z" fill="url(#paint24_linear)"/>
<path id="Vector_107" opacity="0.7" d="M394.799 383L300.474 385.256L301.324 420.814L395.649 418.558L394.799 383Z" fill="white"/>
<path id="Vector_108" d="M286.401 258.224C286.241 259.2 286.625 260.096 287.265 260.208C287.905 260.32 288.561 259.648 288.737 258.608C288.913 257.568 288.497 256.736 287.857 256.608C287.217 256.48 286.481 257.232 286.401 258.224Z" fill="#263238"/>
<path id="Vector_109" d="M287.488 256.672L289.952 256.448C289.952 256.448 288.448 258.048 287.488 256.672Z" fill="#263238"/>
<path id="Vector_110" d="M286.992 259.328C287.505 261.738 288.339 264.068 289.472 266.256C288.905 266.516 288.288 266.651 287.664 266.651C287.04 266.651 286.424 266.516 285.856 266.256L286.992 259.328Z" fill="#A02724"/>
<path id="Vector_111" d="M288.72 251.952C288.624 251.95 288.53 251.922 288.448 251.872C287.801 251.497 287.074 251.278 286.327 251.234C285.579 251.189 284.832 251.32 284.144 251.616C284.076 251.652 284.002 251.673 283.925 251.68C283.849 251.686 283.771 251.677 283.698 251.653C283.625 251.63 283.558 251.591 283.5 251.541C283.442 251.491 283.394 251.429 283.36 251.36C283.322 251.294 283.297 251.22 283.289 251.143C283.28 251.067 283.287 250.989 283.31 250.916C283.332 250.842 283.37 250.774 283.42 250.716C283.47 250.657 283.531 250.61 283.6 250.576C284.457 250.192 285.392 250.016 286.329 250.064C287.266 250.111 288.179 250.38 288.992 250.848C289.06 250.884 289.12 250.932 289.169 250.991C289.217 251.049 289.254 251.117 289.276 251.19C289.299 251.263 289.306 251.34 289.299 251.415C289.291 251.491 289.269 251.565 289.232 251.632C289.187 251.729 289.114 251.81 289.023 251.867C288.932 251.924 288.827 251.953 288.72 251.952Z" fill="#263238"/>
<path id="Vector_112" d="M255.056 266.288C255.296 273.76 254.528 287.232 248.656 291.04C248.656 291.04 249.424 298.736 262.88 301.328C277.664 304.192 271.152 295.408 271.152 295.408C263.392 291.92 264.592 286.016 266.928 280.688L255.056 266.288Z" fill="#B55B52"/>
<path id="Vector_113" d="M295.344 309.888C296.272 313.616 297.44 317.696 298.72 321.536C300 325.376 301.44 329.216 303.056 332.912C304.634 336.55 306.474 340.069 308.56 343.44C310.467 346.641 312.786 349.578 315.456 352.176C316.692 353.335 318.056 354.349 319.52 355.2C320.202 355.606 320.913 355.959 321.648 356.256L322.32 356.512C322.498 356.564 322.68 356.596 322.864 356.608C324.147 356.637 325.419 356.362 326.576 355.808C328.199 355.08 329.748 354.195 331.2 353.168C337.709 348.282 343.617 342.643 348.8 336.368L354.016 339.84C352.912 341.856 351.776 343.696 350.576 345.568C349.376 347.44 348.096 349.232 346.736 351.008C344.011 354.684 340.917 358.072 337.504 361.12C335.629 362.771 333.579 364.214 331.392 365.424C328.77 366.911 325.829 367.745 322.816 367.856C321.932 367.86 321.048 367.785 320.176 367.632C319.36 367.477 318.558 367.258 317.776 366.976C316.511 366.538 315.28 366.003 314.096 365.376C311.802 364.179 309.654 362.718 307.696 361.024C300.096 354.416 295.456 346.256 291.696 338.096C289.807 334.025 288.156 329.847 286.752 325.584C285.294 321.32 284.076 316.977 283.104 312.576L295.344 309.888Z" fill="#B55B52"/>
<path id="Vector_114" d="M348.097 336.992L351.729 330.336L361.809 333.008C361.809 333.008 355.761 342.208 350.609 342.224L348.097 336.992Z" fill="#B55B52"/>
<path id="Vector_115" d="M359.937 327.936L367.601 333.008H361.809L351.713 330.336L359.937 327.936Z" fill="#B55B52"/>
<path id="Vector_116" d="M222.88 650.24L235.232 651.136L238.896 622.784L226.544 621.872L222.88 650.24Z" fill="#B55B52"/>
<path id="Vector_117" d="M125.696 589.248L134.224 598.416L157.376 581.84L148.832 572.672L125.696 589.248Z" fill="#B55B52"/>
<path id="Vector_118" d="M137.968 596.992L130.832 584.832C130.72 584.621 130.534 584.46 130.31 584.377C130.085 584.295 129.839 584.297 129.616 584.384L119.472 588.48C119.218 588.597 118.992 588.766 118.808 588.977C118.625 589.188 118.488 589.436 118.408 589.704C118.328 589.972 118.305 590.254 118.343 590.531C118.38 590.809 118.476 591.075 118.624 591.312C121.168 595.504 122.608 597.408 125.744 602.752C127.664 605.952 130.16 611.04 132.816 615.552C135.472 620.064 139.984 617.776 139.216 615.648C136.016 606.128 137.616 603.36 138.32 599.136C138.448 598.402 138.324 597.647 137.968 596.992Z" fill="#263238"/>
<path id="Vector_119" d="M236.001 649.392H222.129C221.888 649.385 221.654 649.466 221.468 649.619C221.283 649.772 221.159 649.987 221.121 650.224L219.201 661.216C219.164 661.49 219.187 661.768 219.266 662.032C219.346 662.296 219.481 662.54 219.663 662.748C219.845 662.955 220.069 663.122 220.321 663.236C220.572 663.349 220.845 663.408 221.121 663.408C225.921 663.328 228.305 663.04 234.417 663.04C238.177 663.04 245.937 663.44 251.121 663.44C256.305 663.44 256.705 658.304 254.561 657.84C244.961 655.76 241.201 652.88 238.001 650.144C237.44 649.672 236.734 649.406 236.001 649.392Z" fill="#263238"/>
<path id="Vector_120" d="M238.896 622.784L236.864 638.56L224.656 636.512L226.544 621.888L238.896 622.784Z" fill="#9E4541"/>
<path id="Vector_121" d="M148.832 572.672L157.376 581.84L147.792 588.704L138.944 579.744L148.832 572.672Z" fill="#9E4541"/>
<path id="Vector_122" d="M223.809 364.976L273.409 374.576C296.753 305.6 291.201 303.44 291.201 303.44C287.575 301.474 283.835 299.727 280.001 298.208L279.329 297.968C276.129 296.8 275.489 296.64 271.249 295.392C263.953 293.68 257.153 292.192 248.753 291.056L247.153 290.832C245.633 290.64 244.129 290.48 242.673 290.336C241.681 290.224 240.705 290.16 239.761 290.096L236.561 289.92C231.153 289.664 227.281 289.744 227.281 289.744C230.017 332.8 227.953 345.104 223.809 364.976Z" fill="url(#paint25_linear)"/>
<path id="Vector_123" opacity="0.5" d="M223.809 364.976L273.409 374.576C296.753 305.6 291.201 303.44 291.201 303.44C287.575 301.474 283.835 299.727 280.001 298.208L279.329 297.968C276.129 296.8 275.489 296.64 271.249 295.392C263.953 293.68 257.153 292.192 248.753 291.056L247.153 290.832C245.633 290.64 244.129 290.48 242.673 290.336C241.681 290.224 240.705 290.16 239.761 290.096L236.561 289.92C231.153 289.664 227.281 289.744 227.281 289.744C230.017 332.8 227.953 345.104 223.809 364.976Z" fill="black"/>
<path id="Vector_124" d="M281.136 324.4C279.715 331.608 280.217 339.064 282.592 346.016C286.704 332.544 288.992 323.328 290.304 317.024C286.512 316.528 282.464 317.76 281.136 324.4Z" fill="url(#paint26_linear)"/>
<path id="Vector_125" opacity="0.6" d="M281.136 324.4C279.715 331.608 280.217 339.064 282.592 346.016C286.704 332.544 288.992 323.328 290.304 317.024C286.512 316.528 282.464 317.76 281.136 324.4Z" fill="black"/>
<path id="Vector_126" d="M290.736 303.2C299.008 308.592 304.272 320.608 305.664 327.472L286.464 343.104C286.464 343.104 276.016 319.776 279.44 313.824C283.04 307.616 287.616 301.168 290.736 303.2Z" fill="url(#paint27_linear)"/>
<path id="Vector_127" opacity="0.5" d="M290.736 303.2C299.008 308.592 304.272 320.608 305.664 327.472L286.464 343.104C286.464 343.104 276.016 319.776 279.44 313.824C283.04 307.616 287.616 301.168 290.736 303.2Z" fill="black"/>
<path id="Vector_128" d="M253.841 249.152C252.609 261.312 251.809 266.432 256.897 273.776C264.545 284.832 279.809 284.144 284.673 272.704C289.057 262.416 290.353 244.256 279.313 237.184C276.964 235.587 274.24 234.629 271.408 234.405C268.577 234.181 265.736 234.699 263.165 235.907C260.594 237.115 258.383 238.971 256.748 241.294C255.113 243.616 254.111 246.325 253.841 249.152Z" fill="#B55B52"/>
<path id="Vector_129" d="M277.473 255.488C277.536 257.76 278.301 259.957 279.665 261.776C281.553 264.352 283.777 263.68 284.321 261.312C284.817 259.184 284.433 255.28 282.017 253.488C279.601 251.696 277.489 252.944 277.473 255.488Z" fill="#B55B52"/>
<path id="Vector_130" d="M254.017 224.336C246.545 229.872 251.329 231.2 248.145 236.784C244.737 242.768 241.153 235.952 234.369 242.528C229.969 246.8 237.569 251.328 232.017 258.848C227.761 264.688 223.153 259.632 224.945 271.648C226.177 279.824 221.169 278.8 217.793 283.424C212.993 290.048 217.297 294.8 229.649 297.296C242.001 299.792 233.201 312.208 244.817 312.576C257.489 312.992 254.545 296.48 260.721 300.496C266.897 304.512 278.145 300.848 277.457 290.976C276.849 281.92 266.785 282.24 274.929 276.048C281.329 271.248 283.265 271.248 278.753 260.944C274.929 252.176 288.977 253.52 288.721 245.92C288.241 232.208 278.753 236.32 275.761 229.296C273.825 224.688 263.585 217.232 254.017 224.336Z" fill="#263238"/>
<path id="Vector_131" d="M260.273 372.048C260.273 372.048 236.145 452.864 224.353 499.408C211.905 548.528 152.545 588.544 152.545 588.544L139.889 576C139.889 576 179.569 542.512 191.617 496.672C216.081 403.648 204.305 383.936 223.809 365.024L260.273 372.048Z" fill="url(#paint28_linear)"/>
<path id="Vector_132" opacity="0.8" d="M260.273 372.048C260.273 372.048 236.145 452.864 224.353 499.408C211.905 548.528 152.545 588.544 152.545 588.544L139.889 576C139.889 576 179.569 542.512 191.617 496.672C216.081 403.648 204.305 383.936 223.809 365.024L260.273 372.048Z" fill="white"/>
<path id="Vector_133" d="M153.649 590.384L137.825 574.656L142.129 569.888L161.377 586.272L153.649 590.384Z" fill="url(#paint29_linear)"/>
<path id="Vector_134" d="M248.944 389.264C233.104 401.472 232.048 448 232.416 469.024C240.416 439.632 250.016 406.944 255.552 388.032C254.032 386.752 251.856 387.008 248.944 389.264Z" fill="url(#paint30_linear)"/>
<path id="Vector_135" opacity="0.6" d="M248.944 389.264C233.104 401.472 232.048 448 232.416 469.024C240.416 439.632 250.016 406.944 255.552 388.032C254.032 386.752 251.856 387.008 248.944 389.264Z" fill="white"/>
<path id="Vector_136" d="M140.529 603.584C140.38 603.609 140.229 603.609 140.081 603.584C138.577 603.12 137.505 600.384 136.993 598.784C136.977 598.73 136.978 598.672 136.995 598.618C137.012 598.564 137.045 598.516 137.089 598.48C137.135 598.446 137.191 598.428 137.249 598.428C137.306 598.428 137.362 598.446 137.409 598.48C137.873 598.704 141.873 600.8 142.033 602.368C142.047 602.543 142.017 602.719 141.944 602.879C141.871 603.038 141.758 603.177 141.617 603.28C141.299 603.502 140.915 603.609 140.529 603.584ZM137.793 599.216C138.529 601.328 139.393 602.704 140.241 602.96C140.42 603.006 140.609 603.005 140.788 602.957C140.967 602.91 141.131 602.817 141.265 602.688C141.328 602.648 141.379 602.591 141.41 602.523C141.442 602.454 141.452 602.378 141.441 602.304C141.361 601.472 139.361 600.096 137.793 599.216Z" fill="url(#paint31_linear)"/>
<path id="Vector_137" d="M272.608 374.576C272.608 374.576 275.696 472.368 268.784 509.2C261.6 547.504 239.712 634.656 239.712 634.656L221.904 632.352C221.904 632.352 233.104 544.352 237.904 506.256C243.104 464.752 236.304 367.552 236.304 367.552L272.608 374.576Z" fill="url(#paint32_linear)"/>
<path id="Vector_138" opacity="0.8" d="M272.608 374.576C272.608 374.576 275.696 472.368 268.784 509.2C261.6 547.504 239.712 634.656 239.712 634.656L221.904 632.352C221.904 632.352 233.104 544.352 237.904 506.256C243.104 464.752 236.304 367.552 236.304 367.552L272.608 374.576Z" fill="white"/>
<path id="Vector_139" d="M243.504 635.664L218.112 632.4L218.416 626.368L246.048 627.568L243.504 635.664Z" fill="url(#paint33_linear)"/>
<path id="Vector_140" d="M140.929 599.728C139.612 599.719 138.312 599.424 137.121 598.864C137.08 598.834 137.045 598.796 137.021 598.752C136.996 598.708 136.981 598.659 136.977 598.608C136.98 598.556 136.997 598.505 137.024 598.46C137.052 598.416 137.091 598.378 137.137 598.352C137.265 598.272 140.337 596.528 141.937 597.088C142.157 597.157 142.359 597.273 142.531 597.428C142.702 597.582 142.838 597.772 142.929 597.984C143.047 598.189 143.091 598.428 143.053 598.661C143.015 598.895 142.898 599.108 142.721 599.264C142.192 599.615 141.561 599.779 140.929 599.728ZM137.921 598.592C139.313 599.152 141.729 599.392 142.369 598.816C142.481 598.736 142.577 598.576 142.369 598.224C142.317 598.086 142.233 597.962 142.125 597.862C142.017 597.762 141.886 597.689 141.745 597.648C140.403 597.565 139.069 597.894 137.921 598.592Z" fill="url(#paint34_linear)"/>
<path id="Vector_141" d="M240.592 651.552C239.29 651.524 237.994 651.374 236.72 651.104C236.661 651.093 236.606 651.063 236.563 651.021C236.521 650.978 236.492 650.923 236.48 650.864C236.47 650.803 236.481 650.74 236.51 650.686C236.539 650.631 236.584 650.587 236.64 650.56C237.2 650.272 242.208 647.744 243.696 648.592C243.834 648.67 243.95 648.781 244.034 648.915C244.118 649.049 244.167 649.202 244.176 649.36C244.207 649.627 244.171 649.897 244.07 650.146C243.969 650.395 243.808 650.614 243.6 650.784C242.715 651.378 241.653 651.649 240.592 651.552ZM237.696 650.688C240.416 651.136 242.496 651.024 243.216 650.352C243.35 650.237 243.454 650.091 243.519 649.926C243.583 649.762 243.605 649.584 243.584 649.408C243.585 649.344 243.569 649.281 243.538 649.225C243.508 649.169 243.463 649.121 243.408 649.088C242.592 648.64 239.76 649.712 237.696 650.688Z" fill="url(#paint35_linear)"/>
<path id="Vector_142" d="M236.801 651.104C236.748 651.118 236.693 651.118 236.641 651.104C236.598 651.074 236.563 651.033 236.541 650.985C236.518 650.937 236.509 650.885 236.513 650.832C236.513 650.608 237.169 645.248 240.113 645.568C240.913 645.648 241.153 646.064 241.201 646.384C241.425 647.776 238.433 650.464 236.929 651.184L236.801 651.104ZM239.889 646.096C238.097 646.096 237.393 649.04 237.185 650.288C238.785 649.376 240.753 647.264 240.625 646.432C240.625 646.432 240.625 646.16 240.049 646.112L239.889 646.096Z" fill="url(#paint36_linear)"/>
<path id="Vector_143" d="M223.552 361.952L220.592 365.92C220.352 366.24 220.704 366.656 221.28 366.768L273.232 376.832C273.68 376.928 274.096 376.832 274.16 376.496L275.344 372.176C275.344 371.872 275.072 371.552 274.592 371.456L224.416 361.728C224.265 361.685 224.105 361.683 223.953 361.723C223.802 361.762 223.663 361.841 223.552 361.952Z" fill="url(#paint37_linear)"/>
<path id="Vector_144" d="M229.361 368.832L228.017 368.576C227.761 368.576 227.569 368.336 227.617 368.176L229.217 362.576C229.217 362.416 229.521 362.32 229.777 362.368L231.121 362.624C231.393 362.624 231.569 362.864 231.521 363.024L229.921 368.624C229.889 368.784 229.633 368.88 229.361 368.832Z" fill="url(#paint38_linear)"/>
<path id="Vector_145" opacity="0.8" d="M229.361 368.832L228.017 368.576C227.761 368.576 227.569 368.336 227.617 368.176L229.217 362.576C229.217 362.416 229.521 362.32 229.777 362.368L231.121 362.624C231.393 362.624 231.569 362.864 231.521 363.024L229.921 368.624C229.889 368.784 229.633 368.88 229.361 368.832Z" fill="white"/>
<path id="Vector_146" d="M263.296 375.488L261.952 375.216C261.68 375.216 261.504 374.992 261.552 374.832L263.152 369.216C263.152 369.056 263.456 368.96 263.728 369.024L265.072 369.28C265.344 369.28 265.52 369.504 265.472 369.68L263.872 375.28C263.824 375.44 263.568 375.536 263.296 375.488Z" fill="url(#paint39_linear)"/>
<path id="Vector_147" opacity="0.8" d="M263.296 375.488L261.952 375.216C261.68 375.216 261.504 374.992 261.552 374.832L263.152 369.216C263.152 369.056 263.456 368.96 263.728 369.024L265.072 369.28C265.344 369.28 265.52 369.504 265.472 369.68L263.872 375.28C263.824 375.44 263.568 375.536 263.296 375.488Z" fill="white"/>
</g>
</g>
<defs>
<linearGradient id="paint0_linear" x1="400" y1="154.864" x2="400" y2="568.752" gradientUnits="userSpaceOnUse">
<stop stop-color="#1DCDDB"/>
<stop offset="1" stop-color="#31B8FF"/>
</linearGradient>
<linearGradient id="paint1_linear" x1="400" y1="194.64" x2="400" y2="568.752" gradientUnits="userSpaceOnUse">
<stop stop-color="#1DCDDB"/>
<stop offset="1" stop-color="#31B8FF"/>
</linearGradient>
<linearGradient id="paint2_linear" x1="333.6" y1="214.944" x2="333.6" y2="278.944" gradientUnits="userSpaceOnUse">
<stop stop-color="#1DCDDB"/>
<stop offset="1" stop-color="#31B8FF"/>
</linearGradient>
<linearGradient id="paint3_linear" x1="333.6" y1="295.904" x2="333.6" y2="469.024" gradientUnits="userSpaceOnUse">
<stop stop-color="#1DCDDB"/>
<stop offset="1" stop-color="#31B8FF"/>
</linearGradient>
<linearGradient id="paint4_linear" x1="580.472" y1="336.699" x2="580.472" y2="392.608" gradientUnits="userSpaceOnUse">
<stop stop-color="#1DCDDB"/>
<stop offset="1" stop-color="#31B8FF"/>
</linearGradient>
<linearGradient id="paint5_linear" x1="612.423" y1="333.534" x2="612.423" y2="441.616" gradientUnits="userSpaceOnUse">
<stop stop-color="#1DCDDB"/>
<stop offset="1" stop-color="#31B8FF"/>
</linearGradient>
<linearGradient id="paint6_linear" x1="597.083" y1="355.781" x2="597.083" y2="385.195" gradientUnits="userSpaceOnUse">
<stop stop-color="#1DCDDB"/>
<stop offset="1" stop-color="#31B8FF"/>
</linearGradient>
<linearGradient id="paint7_linear" x1="640.995" y1="351.21" x2="640.995" y2="397.984" gradientUnits="userSpaceOnUse">
<stop stop-color="#1DCDDB"/>
<stop offset="1" stop-color="#31B8FF"/>
</linearGradient>
<linearGradient id="paint8_linear" x1="645.985" y1="626.976" x2="645.985" y2="639.888" gradientUnits="userSpaceOnUse">
<stop stop-color="#1DCDDB"/>
<stop offset="1" stop-color="#31B8FF"/>
</linearGradient>
<linearGradient id="paint9_linear" x1="575.344" y1="625.808" x2="575.344" y2="636.48" gradientUnits="userSpaceOnUse">
<stop stop-color="#1DCDDB"/>
<stop offset="1" stop-color="#31B8FF"/>
</linearGradient>
<linearGradient id="paint10_linear" x1="415.919" y1="518.247" x2="416.108" y2="519.836" gradientUnits="userSpaceOnUse">
<stop stop-color="#1DCDDB"/>
<stop offset="1" stop-color="#31B8FF"/>
</linearGradient>
<linearGradient id="paint11_linear" x1="461.942" y1="512.736" x2="462.133" y2="514.325" gradientUnits="userSpaceOnUse">
<stop stop-color="#1DCDDB"/>
<stop offset="1" stop-color="#31B8FF"/>
</linearGradient>
<linearGradient id="paint12_linear" x1="525.917" y1="432.227" x2="534.012" y2="500.114" gradientUnits="userSpaceOnUse">
<stop stop-color="#1DCDDB"/>
<stop offset="1" stop-color="#31B8FF"/>
</linearGradient>
<linearGradient id="paint13_linear" x1="573.035" y1="445.216" x2="576.753" y2="476.403" gradientUnits="userSpaceOnUse">
<stop stop-color="#1DCDDB"/>
<stop offset="1" stop-color="#31B8FF"/>
</linearGradient>
<linearGradient id="paint14_linear" x1="366.96" y1="468.539" x2="391.839" y2="499.615" gradientUnits="userSpaceOnUse">
<stop stop-color="#1DCDDB"/>
<stop offset="1" stop-color="#31B8FF"/>
</linearGradient>
<linearGradient id="paint15_linear" x1="419.91" y1="465.331" x2="451.47" y2="489.592" gradientUnits="userSpaceOnUse">
<stop stop-color="#1DCDDB"/>
<stop offset="1" stop-color="#31B8FF"/>
</linearGradient>
<linearGradient id="paint16_linear" x1="651.696" y1="336.178" x2="651.696" y2="391.088" gradientUnits="userSpaceOnUse">
<stop stop-color="#1DCDDB"/>
<stop offset="1" stop-color="#31B8FF"/>
</linearGradient>
<linearGradient id="paint17_linear" x1="641.079" y1="648.755" x2="641.079" y2="651.818" gradientUnits="userSpaceOnUse">
<stop stop-color="#1DCDDB"/>
<stop offset="1" stop-color="#31B8FF"/>
</linearGradient>
<linearGradient id="paint18_linear" x1="642.311" y1="645.973" x2="642.311" y2="651.425" gradientUnits="userSpaceOnUse">
<stop stop-color="#1DCDDB"/>
<stop offset="1" stop-color="#31B8FF"/>
</linearGradient>
<linearGradient id="paint19_linear" x1="568.588" y1="648.745" x2="568.588" y2="651.827" gradientUnits="userSpaceOnUse">
<stop stop-color="#1DCDDB"/>
<stop offset="1" stop-color="#31B8FF"/>
</linearGradient>
<linearGradient id="paint20_linear" x1="570.077" y1="645.951" x2="570.077" y2="651.395" gradientUnits="userSpaceOnUse">
<stop stop-color="#1DCDDB"/>
<stop offset="1" stop-color="#31B8FF"/>
</linearGradient>
<linearGradient id="paint21_linear" x1="224.011" y1="289.722" x2="224.011" y2="325.024" gradientUnits="userSpaceOnUse">
<stop stop-color="#1DCDDB"/>
<stop offset="1" stop-color="#31B8FF"/>
</linearGradient>
<linearGradient id="paint22_linear" x1="331.583" y1="333.853" x2="333.864" y2="429.25" gradientUnits="userSpaceOnUse">
<stop stop-color="#1DCDDB"/>
<stop offset="1" stop-color="#31B8FF"/>
</linearGradient>
<linearGradient id="paint23_linear" x1="398.211" y1="339.86" x2="399.062" y2="375.418" gradientUnits="userSpaceOnUse">
<stop stop-color="#1DCDDB"/>
<stop offset="1" stop-color="#31B8FF"/>
</linearGradient>
<linearGradient id="paint24_linear" x1="347.636" y1="384.128" x2="348.487" y2="419.686" gradientUnits="userSpaceOnUse">
<stop stop-color="#1DCDDB"/>
<stop offset="1" stop-color="#31B8FF"/>
</linearGradient>
<linearGradient id="paint25_linear" x1="257.793" y1="289.732" x2="257.793" y2="374.576" gradientUnits="userSpaceOnUse">
<stop stop-color="#1DCDDB"/>
<stop offset="1" stop-color="#31B8FF"/>
</linearGradient>
<linearGradient id="paint26_linear" x1="285.325" y1="316.926" x2="285.325" y2="346.016" gradientUnits="userSpaceOnUse">
<stop stop-color="#1DCDDB"/>
<stop offset="1" stop-color="#31B8FF"/>
</linearGradient>
<linearGradient id="paint27_linear" x1="292.208" y1="302.818" x2="292.208" y2="343.104" gradientUnits="userSpaceOnUse">
<stop stop-color="#1DCDDB"/>
<stop offset="1" stop-color="#31B8FF"/>
</linearGradient>
<linearGradient id="paint28_linear" x1="200.081" y1="365.024" x2="200.081" y2="588.544" gradientUnits="userSpaceOnUse">
<stop stop-color="#1DCDDB"/>
<stop offset="1" stop-color="#31B8FF"/>
</linearGradient>
<linearGradient id="paint29_linear" x1="149.601" y1="569.888" x2="149.601" y2="590.384" gradientUnits="userSpaceOnUse">
<stop stop-color="#1DCDDB"/>
<stop offset="1" stop-color="#31B8FF"/>
</linearGradient>
<linearGradient id="paint30_linear" x1="243.957" y1="387.263" x2="243.957" y2="469.024" gradientUnits="userSpaceOnUse">
<stop stop-color="#1DCDDB"/>
<stop offset="1" stop-color="#31B8FF"/>
</linearGradient>
<linearGradient id="paint31_linear" x1="139.509" y1="598.428" x2="139.509" y2="603.603" gradientUnits="userSpaceOnUse">
<stop stop-color="#1DCDDB"/>
<stop offset="1" stop-color="#31B8FF"/>
</linearGradient>
<linearGradient id="paint32_linear" x1="247.6" y1="367.552" x2="247.6" y2="634.656" gradientUnits="userSpaceOnUse">
<stop stop-color="#1DCDDB"/>
<stop offset="1" stop-color="#31B8FF"/>
</linearGradient>
<linearGradient id="paint33_linear" x1="232.08" y1="626.368" x2="232.08" y2="635.664" gradientUnits="userSpaceOnUse">
<stop stop-color="#1DCDDB"/>
<stop offset="1" stop-color="#31B8FF"/>
</linearGradient>
<linearGradient id="paint34_linear" x1="140.021" y1="596.978" x2="140.021" y2="599.737" gradientUnits="userSpaceOnUse">
<stop stop-color="#1DCDDB"/>
<stop offset="1" stop-color="#31B8FF"/>
</linearGradient>
<linearGradient id="paint35_linear" x1="240.332" y1="648.419" x2="240.332" y2="651.571" gradientUnits="userSpaceOnUse">
<stop stop-color="#1DCDDB"/>
<stop offset="1" stop-color="#31B8FF"/>
</linearGradient>
<linearGradient id="paint36_linear" x1="238.862" y1="645.554" x2="238.862" y2="651.184" gradientUnits="userSpaceOnUse">
<stop stop-color="#1DCDDB"/>
<stop offset="1" stop-color="#31B8FF"/>
</linearGradient>
<linearGradient id="paint37_linear" x1="247.93" y1="361.694" x2="247.93" y2="376.867" gradientUnits="userSpaceOnUse">
<stop stop-color="#1DCDDB"/>
<stop offset="1" stop-color="#31B8FF"/>
</linearGradient>
<linearGradient id="paint38_linear" x1="229.569" y1="362.355" x2="229.569" y2="368.844" gradientUnits="userSpaceOnUse">
<stop stop-color="#1DCDDB"/>
<stop offset="1" stop-color="#31B8FF"/>
</linearGradient>
<linearGradient id="paint39_linear" x1="263.512" y1="369.004" x2="263.512" y2="375.5" gradientUnits="userSpaceOnUse">
<stop stop-color="#1DCDDB"/>
<stop offset="1" stop-color="#31B8FF"/>
</linearGradient>
</defs>
</svg>
