<svg width="600" height="455" viewBox="0 0 600 455" fill="none" xmlns="http://www.w3.org/2000/svg">
<g clip-path="url(#clip0)">
<path d="M457.074 437.701C456.992 437.568 455.076 434.367 454.411 427.721C453.801 421.623 454.193 411.344 459.524 397.007C469.622 369.845 457.197 347.93 457.07 347.711L457.683 347.356C460.075 351.934 461.804 356.83 462.815 361.896C465.318 373.692 464.407 385.957 460.188 397.254C450.107 424.369 457.602 437.205 457.679 437.332L457.074 437.701Z" fill="#E6E6E6"/>
<path d="M453.125 346.116C455.669 346.116 457.73 344.054 457.73 341.511C457.73 338.967 455.669 336.906 453.125 336.906C450.582 336.906 448.52 338.967 448.52 341.511C448.52 344.054 450.582 346.116 453.125 346.116Z" fill="url(#paint0_linear)"/>
<path d="M467.65 363.121C470.193 363.121 472.255 361.059 472.255 358.516C472.255 355.972 470.193 353.91 467.65 353.91C465.106 353.91 463.044 355.972 463.044 358.516C463.044 361.059 465.106 363.121 467.65 363.121Z" fill="url(#paint1_linear)"/>
<path d="M457.73 374.457C460.274 374.457 462.336 372.395 462.336 369.852C462.336 367.308 460.274 365.247 457.73 365.247C455.187 365.247 453.125 367.308 453.125 369.852C453.125 372.395 455.187 374.457 457.73 374.457Z" fill="#E6E6E6"/>
<path d="M469.775 384.022C472.319 384.022 474.381 381.96 474.381 379.417C474.381 376.873 472.319 374.812 469.775 374.812C467.232 374.812 465.17 376.873 465.17 379.417C465.17 381.96 467.232 384.022 469.775 384.022Z" fill="#E6E6E6"/>
<path d="M454.188 398.902C456.731 398.902 458.793 396.84 458.793 394.296C458.793 391.753 456.731 389.691 454.188 389.691C451.644 389.691 449.582 391.753 449.582 394.296C449.582 396.84 451.644 398.902 454.188 398.902Z" fill="url(#paint2_linear)"/>
<path d="M459.856 437.87C459.856 437.87 455.251 426.534 469.067 418.032L459.856 437.87Z" fill="#E6E6E6"/>
<path d="M454.192 437.665C454.192 437.665 452.096 425.609 435.874 425.713L454.192 437.665Z" fill="#E6E6E6"/>
<path d="M486.014 454.026C548.685 454.026 599.491 448.909 599.491 442.597C599.491 436.285 548.685 431.169 486.014 431.169C423.342 431.169 372.536 436.285 372.536 442.597C372.536 448.909 423.342 454.026 486.014 454.026Z" fill="url(#paint3_linear)"/>
<path d="M476.303 0H0V305.046H476.303V0Z" fill="url(#paint4_linear)"/>
<path d="M14.8337 13.8256C16.905 13.8256 18.5842 12.1464 18.5842 10.0751C18.5842 8.00383 16.905 6.32471 14.8337 6.32471C12.7624 6.32471 11.0833 8.00383 11.0833 10.0751C11.0833 12.1464 12.7624 13.8256 14.8337 13.8256Z" fill="#1DCDDB"/>
<path d="M29.0694 13.8256C31.1407 13.8256 32.8198 12.1464 32.8198 10.0751C32.8198 8.00383 31.1407 6.32471 29.0694 6.32471C26.9981 6.32471 25.319 8.00383 25.319 10.0751C25.319 12.1464 26.9981 13.8256 29.0694 13.8256Z" fill="#1DCDDB"/>
<path d="M43.3051 13.8256C45.3764 13.8256 47.0555 12.1464 47.0555 10.0751C47.0555 8.00383 45.3764 6.32471 43.3051 6.32471C41.2337 6.32471 39.5546 8.00383 39.5546 10.0751C39.5546 12.1464 41.2337 13.8256 43.3051 13.8256Z" fill="#1DCDDB"/>
<path d="M368.759 125.114H287.182V129.797H368.759V125.114Z" fill="#E6E6E6"/>
<path d="M413.155 142.196H287.182V146.879H413.155V142.196Z" fill="#1DCDDB"/>
<path d="M389.847 158.289H287.182V162.972H389.847V158.289Z" fill="#E6E6E6"/>
<path d="M347.116 174.322H287.182V179.005H347.116V174.322Z" fill="#E6E6E6"/>
<path d="M377.638 190.354H287.182V195.037H377.638V190.354Z" fill="#E6E6E6"/>
<path d="M259.99 123.449H250.001V133.438H259.99V123.449Z" fill="#E6E6E6"/>
<path d="M259.99 139.543H250.001V149.532H259.99V139.543Z" fill="#1DCDDB"/>
<path d="M259.99 155.636H250.001V165.625H259.99V155.636Z" fill="#E6E6E6"/>
<path d="M259.99 171.73H250.001V181.719H259.99V171.73Z" fill="#E6E6E6"/>
<path d="M259.99 187.823H250.001V197.812H259.99V187.823Z" fill="#E6E6E6"/>
<path d="M380.711 187.582H358.166C356.628 178.688 356.628 169.596 358.166 160.702H380.711C378.172 169.482 378.172 178.802 380.711 187.582Z" fill="#FF6584"/>
<path d="M124.602 209.662C158.054 209.662 185.172 182.544 185.172 149.093C185.172 115.641 158.054 88.5237 124.602 88.5237C91.1511 88.5237 64.0334 115.641 64.0334 149.093C64.0334 182.544 91.1511 209.662 124.602 209.662Z" fill="#1DCDDB"/>
<path d="M127.987 91.9419H121.218V85.1721H127.987V91.9419ZM122.572 90.5879H126.633V86.5261H122.572V90.5879Z" fill="white"/>
<path d="M162.672 87.8799H126.793V89.2338H162.672V87.8799Z" fill="white"/>
<path d="M162.672 89.9669C163.451 89.9669 164.082 89.3357 164.082 88.557C164.082 87.7782 163.451 87.147 162.672 87.147C161.894 87.147 161.262 87.7782 161.262 88.557C161.262 89.3357 161.894 89.9669 162.672 89.9669Z" fill="white"/>
<path d="M122.054 87.8799H86.8513V89.2338H122.054V87.8799Z" fill="white"/>
<path d="M86.8511 89.9669C87.6298 89.9669 88.261 89.3357 88.261 88.557C88.261 87.7782 87.6298 87.147 86.8511 87.147C86.0724 87.147 85.4411 87.7782 85.4411 88.557C85.4411 89.3357 86.0724 89.9669 86.8511 89.9669Z" fill="white"/>
<path d="M188.398 152.318H181.628V145.549H188.398V152.318ZM182.982 150.964H187.044V146.903H182.982V150.964Z" fill="white"/>
<path d="M185.69 151.801H184.336V187.003H185.69V151.801Z" fill="white"/>
<path d="M185.013 188.413C185.791 188.413 186.423 187.782 186.423 187.003C186.423 186.225 185.791 185.594 185.013 185.594C184.234 185.594 183.603 186.225 183.603 187.003C183.603 187.782 184.234 188.413 185.013 188.413Z" fill="white"/>
<path d="M185.69 111.182H184.336V146.385H185.69V111.182Z" fill="white"/>
<path d="M185.013 112.592C185.791 112.592 186.423 111.961 186.423 111.182C186.423 110.403 185.791 109.772 185.013 109.772C184.234 109.772 183.603 110.403 183.603 111.182C183.603 111.961 184.234 112.592 185.013 112.592Z" fill="white"/>
<path d="M67.219 152.318H60.4492V145.549H67.219V152.318ZM61.8032 150.964H65.865V146.903H61.8032V150.964Z" fill="white"/>
<path d="M64.5111 151.801H63.1571V187.003H64.5111V151.801Z" fill="white"/>
<path d="M63.8339 188.413C64.6126 188.413 65.2439 187.782 65.2439 187.003C65.2439 186.225 64.6126 185.594 63.8339 185.594C63.0552 185.594 62.424 186.225 62.424 187.003C62.424 187.782 63.0552 188.413 63.8339 188.413Z" fill="white"/>
<path d="M64.5111 109.828H63.1571V146.385H64.5111V109.828Z" fill="white"/>
<path d="M63.8339 112.592C64.6126 112.592 65.2439 111.961 65.2439 111.182C65.2439 110.403 64.6126 109.772 63.8339 109.772C63.0552 109.772 62.424 110.403 62.424 111.182C62.424 111.961 63.0552 112.592 63.8339 112.592Z" fill="white"/>
<path d="M127.987 213.12H121.218V206.351H127.987V213.12ZM122.572 211.766H126.633V207.705H122.572V211.766Z" fill="white"/>
<path d="M163.35 209.059H127.47V210.413H163.35V209.059Z" fill="white"/>
<path d="M162.672 211.146C163.451 211.146 164.082 210.514 164.082 209.736C164.082 208.957 163.451 208.326 162.672 208.326C161.894 208.326 161.262 208.957 161.262 209.736C161.262 210.514 161.894 211.146 162.672 211.146Z" fill="white"/>
<path d="M122.054 209.059H86.8513V210.413H122.054V209.059Z" fill="white"/>
<path d="M86.8511 211.146C87.6298 211.146 88.261 210.514 88.261 209.736C88.261 208.957 87.6298 208.326 86.8511 208.326C86.0724 208.326 85.4411 208.957 85.4411 209.736C85.4411 210.514 86.0724 211.146 86.8511 211.146Z" fill="white"/>
<path d="M158.251 240.772H132.006C130.215 230.418 130.215 219.834 132.006 209.48H158.251C155.295 219.701 155.295 230.551 158.251 240.772Z" fill="#E6E6E6"/>
<path d="M505.625 234.312L499.48 257.138C499.48 257.138 496.407 275.574 501.674 276.013C506.942 276.452 505.625 257.577 505.625 257.577L515.721 241.774L505.625 234.312Z" fill="#FBBEBE"/>
<path d="M551.276 246.248V239.097L509.583 236.288L502.991 278.428C502.991 278.428 502.113 320.441 505.186 341.894C508.259 363.348 514.404 413.406 514.404 413.406H542.497L535.474 309.267L567.078 413.406L600 409.383L561.811 286.473C561.811 286.473 562.25 263.679 551.276 246.248Z" fill="#2F2E41"/>
<path d="M517.916 408.577L516.16 422.185L513.526 431.841C513.526 431.841 501.235 434.475 508.698 438.865C516.16 443.254 523.183 438.865 523.183 438.865L528.89 430.964V444.571H537.669V425.257L531.084 410.772L517.916 408.577Z" fill="#2F2E41"/>
<path d="M572.346 408.577L570.59 422.185L567.956 431.841C567.956 431.841 555.666 434.475 563.128 438.865C570.59 443.254 577.613 438.865 577.613 438.865L583.32 430.964V444.571H592.099V425.257L585.515 410.772L572.346 408.577Z" fill="#2F2E41"/>
<path d="M533.937 162.982C542.18 162.982 548.862 156.3 548.862 148.058C548.862 139.815 542.18 133.133 533.937 133.133C525.695 133.133 519.013 139.815 519.013 148.058C519.013 156.3 525.695 162.982 533.937 162.982Z" fill="#FBBEBE"/>
<path d="M543.814 154.423L556.105 169.347L541.18 175.054L534.157 161.007L543.814 154.423Z" fill="#FBBEBE"/>
<path d="M536.352 170.225L538.474 169.642C538.474 169.642 549.52 162.763 552.593 163.202C555.666 163.641 565.323 173.298 563.567 186.466C561.811 199.635 565.323 248.798 558.299 247.042C551.276 245.286 549.081 243.969 549.081 243.969L540.741 240.019L532.84 242.213C532.84 242.213 528.012 239.141 524.061 240.019C520.11 240.897 507.381 236.507 507.381 236.507L536.352 170.225Z" fill="#E6E6E6"/>
<path d="M539.47 171.632C539.47 171.632 529.548 166.933 525.158 173.956C520.769 180.979 508.478 218.29 508.478 218.29L502.772 235.41L516.818 243.75L544.472 192.831C544.472 192.831 548.514 177.649 539.47 171.632Z" fill="#E6E6E6"/>
<path d="M532.379 150.385C531.441 148.941 531.915 146.978 531.257 145.387C530.224 142.888 527.014 142.303 524.319 142.075C522.535 141.846 520.728 141.851 518.944 142.089C518.156 142.22 517.409 142.533 516.762 143.002C516.115 143.471 515.586 144.084 515.216 144.792C514.817 145.592 514.918 143.087 515.173 139.872C515.432 136.591 516.725 133.477 518.867 130.978C521.009 128.479 523.889 126.725 527.092 125.968C527.131 125.959 527.168 125.95 527.206 125.942C530.486 125.185 533.868 124.628 537.211 125.021C540.555 125.414 543.887 126.857 545.974 129.498C546.927 130.706 547.602 132.13 548.666 133.24C550.536 135.192 553.309 135.902 555.856 136.808C558.776 137.75 561.464 139.3 563.74 141.357C566.024 143.444 567.394 146.347 567.551 149.437C567.605 153.003 565.337 156.683 561.682 157.386C561.046 157.497 560.446 157.756 559.929 158.142C556.439 160.848 560.42 163.681 560.393 166.727C560.37 169.269 557.54 170.926 555.001 171.044C552.627 171.087 550.312 170.303 548.453 168.826C546.594 167.349 545.306 165.271 544.811 162.949C544.428 160.863 544.724 158.721 544.973 156.614C545.258 154.203 540.066 148.526 543.495 152.688C544.165 153.478 544.617 154.43 544.807 155.449C545.377 158.773 542.352 159.891 540.445 161.733C539.397 162.775 538.663 164.089 538.325 165.527C537.986 166.966 538.058 168.47 538.531 169.869C536.958 168.444 535.932 166.515 535.63 164.414C535.327 162.313 535.768 160.172 536.875 158.361C537.49 157.419 538.281 156.599 538.864 155.636C539.773 154.135 540.024 150.868 537.479 150.958C535.662 151.022 533.775 152.535 532.379 150.385Z" fill="#2F2E41"/>
<path opacity="0.2" d="M539.205 207.756L519.013 239.709L538.124 204.521L539.205 207.756Z" fill="black"/>
<path d="M407.368 408.818H374.19V441.996H407.368V408.818Z" fill="#1DCDDB"/>
<path d="M412.99 427.773H396.433V444.33H412.99V427.773Z" fill="#E6E6E6"/>
<path d="M462.231 288.934H14.0731V21.5283H462.231V288.934ZM15.427 287.58H460.877V22.8823H15.427V287.58Z" fill="#E6E6E6"/>
</g>
<defs>
<linearGradient id="paint0_linear" x1="453.125" y1="336.906" x2="453.125" y2="346.116" gradientUnits="userSpaceOnUse">
<stop stop-color="#31B4F9"/>
<stop offset="1" stop-color="#2F373B"/>
</linearGradient>
<linearGradient id="paint1_linear" x1="467.65" y1="353.91" x2="467.65" y2="363.121" gradientUnits="userSpaceOnUse">
<stop stop-color="#31B4F9"/>
<stop offset="1" stop-color="#2F373B"/>
</linearGradient>
<linearGradient id="paint2_linear" x1="454.188" y1="389.691" x2="454.188" y2="398.902" gradientUnits="userSpaceOnUse">
<stop stop-color="#31B4F9"/>
<stop offset="1" stop-color="#2F373B"/>
</linearGradient>
<linearGradient id="paint3_linear" x1="486.014" y1="431.169" x2="486.014" y2="454.026" gradientUnits="userSpaceOnUse">
<stop stop-color="#31B4F9"/>
<stop offset="1" stop-color="#2F373B"/>
</linearGradient>
<linearGradient id="paint4_linear" x1="238.152" y1="0" x2="238.152" y2="305.046" gradientUnits="userSpaceOnUse">
<stop stop-color="#31B4F9"/>
<stop offset="1" stop-color="#2F373B"/>
</linearGradient>
<clipPath id="clip0">
<rect width="600" height="454.026" fill="white"/>
</clipPath>
</defs>
</svg>
