<svg width="500" height="334" viewBox="0 0 500 334" fill="none" xmlns="http://www.w3.org/2000/svg">
<path d="M426.1 69.2467L424.22 66.1867C408.38 40.4067 379.733 24.8534 349.553 26.7467C345.67 26.9928 341.809 27.5163 338 28.3134C310.547 34.12 286.667 54.6267 276.747 80.8867C270.92 96.3334 269.293 114.113 258.24 126.373C243.86 142.327 219.433 142.827 197.967 142.167C176.5 141.507 152.053 142.067 137.74 158.087C128.773 168.12 125.927 182.38 126.647 195.82C128.56 231.387 153.66 263.153 185.58 278.993C217.5 294.833 255.047 296.22 290 289.267C338.94 279.52 385.473 252.773 413.447 211.453C441.42 170.133 448.48 113.84 426.1 69.2467Z" fill="#E0E0E0"/>
<path d="M485 315.44C485 315.533 379.78 315.613 250.013 315.613C120.247 315.613 15 315.533 15 315.44C15 315.347 120.2 315.267 250.013 315.267C379.827 315.267 485 315.333 485 315.44Z" fill="#263238"/>
<path d="M54.3267 270C44.3267 264.587 33.0733 254.747 28.7 243.567C39.52 249.173 48.6667 258.573 54.3267 270Z" fill="url(#paint0_linear)"/>
<path d="M53.6733 253.253C43.6733 247.847 32.42 238 28.0467 226.82C38.8667 232.4 48 241.8 53.6733 253.253Z" fill="url(#paint1_linear)"/>
<path d="M52.18 236.86C42.18 231.453 30.9267 221.607 26.5533 210.427C37.3667 216.007 46.4867 225.407 52.18 236.86Z" fill="url(#paint2_linear)"/>
<path d="M50 219.64C40.7133 212.873 30.7267 201.54 27.7133 189.84C37.78 196.887 45.7133 207.487 50 219.64Z" fill="url(#paint3_linear)"/>
<path d="M47.1667 206.353C40.8867 196.3 35.5267 181.727 36.7533 169.647C43.7571 180.593 47.3792 193.36 47.1667 206.353Z" fill="url(#paint4_linear)"/>
<path d="M48.5934 212.667C51.26 200.133 57.6734 184.667 66.94 175.953C64.2233 189.614 57.887 202.293 48.5934 212.667Z" fill="url(#paint5_linear)"/>
<path d="M50.6667 226.853C54.4534 214.033 62.4267 198.48 72.7934 190.187C68.8561 204.179 61.2112 216.848 50.6667 226.853Z" fill="url(#paint6_linear)"/>
<path d="M52.9267 244.127C56.7133 231.3 64.6867 215.753 75.0533 207.46C71.1121 221.451 63.4678 234.119 52.9267 244.127Z" fill="url(#paint7_linear)"/>
<path d="M54.0733 265.173C57.86 252.347 65.8333 236.8 76.2 228.507C72.2588 242.498 64.6144 255.165 54.0733 265.173Z" fill="url(#paint8_linear)"/>
<path d="M46.92 203.82C46.9471 203.887 46.9672 203.956 46.98 204.027C47.02 204.187 47.0667 204.387 47.12 204.627C47.2467 205.193 47.4133 205.96 47.6333 206.96C48.0733 208.96 48.6533 211.92 49.3067 215.567C49.96 219.213 50.64 223.567 51.3533 228.407C52.0667 233.247 52.6867 238.6 53.18 244.227C53.6733 249.853 54.0334 255.227 54.2667 260.113C54.5 265 54.5867 269.413 54.5934 273.12C54.6 276.827 54.5933 279.787 54.52 281.887C54.52 282.893 54.4667 283.687 54.4467 284.267C54.4467 284.52 54.4467 284.72 54.4467 284.887C54.4556 284.955 54.4556 285.025 54.4467 285.093C54.4377 285.025 54.4377 284.955 54.4467 284.887C54.4467 284.72 54.4467 284.52 54.4467 284.267V281.88C54.4467 279.813 54.4467 276.82 54.3933 273.12C54.34 269.42 54.2067 265.02 53.9734 260.133C53.74 255.247 53.3667 249.887 52.86 244.26C52.3534 238.633 51.7067 233.307 51.0667 228.46C50.4267 223.613 49.7334 219.26 49.1067 215.613C48.48 211.967 47.9533 209.02 47.56 206.987C47.38 205.993 47.2334 205.213 47.1267 204.647L47.0267 204.033C46.9812 203.968 46.9453 203.896 46.92 203.82Z" fill="#263238"/>
<g opacity="0.5">
<path opacity="0.5" d="M54.3267 270C44.3267 264.587 33.0733 254.747 28.7 243.567C39.52 249.173 48.6667 258.573 54.3267 270Z" fill="black"/>
<path opacity="0.5" d="M53.6733 253.253C43.6733 247.847 32.42 238 28.0467 226.82C38.8667 232.4 48 241.8 53.6733 253.253Z" fill="black"/>
<path opacity="0.5" d="M52.18 236.86C42.18 231.453 30.9267 221.607 26.5533 210.427C37.3667 216.007 46.4867 225.407 52.18 236.86Z" fill="black"/>
<path opacity="0.5" d="M50 219.64C40.7133 212.873 30.7267 201.54 27.7133 189.84C37.78 196.887 45.7133 207.487 50 219.64Z" fill="black"/>
<path opacity="0.5" d="M47.1667 206.353C40.8867 196.3 35.5267 181.727 36.7533 169.647C43.7571 180.593 47.3792 193.36 47.1667 206.353Z" fill="black"/>
<path opacity="0.5" d="M48.5934 212.667C51.26 200.133 57.6734 184.667 66.94 175.953C64.2233 189.614 57.887 202.293 48.5934 212.667Z" fill="black"/>
<path opacity="0.5" d="M50.6667 226.853C54.4534 214.033 62.4267 198.48 72.7934 190.187C68.8561 204.179 61.2112 216.848 50.6667 226.853Z" fill="black"/>
<path opacity="0.5" d="M52.9267 244.127C56.7133 231.3 64.6867 215.753 75.0533 207.46C71.1121 221.451 63.4678 234.119 52.9267 244.127Z" fill="black"/>
<path opacity="0.5" d="M54.0733 265.173C57.86 252.347 65.8333 236.8 76.2 228.507C72.2588 242.498 64.6144 255.165 54.0733 265.173Z" fill="black"/>
</g>
<path d="M58.72 274.353C54.0533 264.6 50.6733 250.887 52.96 240.187C58.1658 250.772 60.1677 262.647 58.72 274.353Z" fill="url(#paint9_linear)"/>
<path d="M66.4667 261.727C61.8 251.973 58.42 238.26 60.7067 227.553C65.9119 238.141 67.9138 250.018 66.4667 261.727Z" fill="url(#paint10_linear)"/>
<path d="M73.4133 248.887C68.7467 239.133 65.3667 225.42 67.6533 214.713C72.8597 225.301 74.8616 237.178 73.4133 248.887Z" fill="url(#paint11_linear)"/>
<path d="M80.26 235.033C76.7934 224.713 75.06 210.64 78.5934 200.367C82.4981 211.516 83.0771 223.561 80.26 235.033Z" fill="url(#paint12_linear)"/>
<path d="M84.7133 223.693C85.0533 212.713 88.2867 198.953 95.1067 190.847C94.9548 202.581 91.339 214.008 84.7133 223.693Z" fill="url(#paint13_linear)"/>
<path d="M82.6667 229.14C90.7467 221.52 103.027 213.947 114.067 212.96C105.431 221.341 94.5035 226.972 82.6667 229.14Z" fill="url(#paint14_linear)"/>
<path d="M77.2067 240.667C86.26 233.493 99.7067 226.76 111.333 226.733C101.591 234.659 89.7121 239.509 77.2067 240.667Z" fill="url(#paint15_linear)"/>
<path d="M70.4 254.627C79.4533 247.453 92.9 240.72 104.527 240.693C94.7842 248.619 82.9054 253.469 70.4 254.627Z" fill="url(#paint16_linear)"/>
<path d="M60.9133 270.667C69.9667 263.493 83.42 256.76 95.0467 256.733C85.3009 264.658 73.4204 269.507 60.9133 270.667Z" fill="url(#paint17_linear)"/>
<path d="M85.7733 221.7C85.7641 221.764 85.7462 221.827 85.72 221.887C85.6667 222.02 85.6067 222.193 85.5333 222.4L84.7733 224.4C84.1067 226.113 83.1067 228.573 81.8133 231.593C79.2267 237.633 75.4 245.867 70.6467 254.693C68.26 259.107 65.8733 263.24 63.6333 266.967C61.3933 270.693 59.2867 273.953 57.4667 276.667C55.6467 279.38 54.1333 281.593 53.0667 283.087L51.8333 284.8L51.5 285.24C51.4649 285.291 51.4247 285.338 51.38 285.38C51.38 285.38 51.38 285.32 51.4667 285.213L51.7667 284.753C52.0533 284.32 52.4333 283.733 52.94 282.993C53.9733 281.48 55.44 279.267 57.22 276.513C59 273.76 61.08 270.44 63.3133 266.727C65.5467 263.013 67.9 258.86 70.2867 254.453C75.0333 245.64 78.9 237.433 81.5467 231.433C82.88 228.433 83.92 225.993 84.6267 224.293L85.4533 222.353L85.68 221.847C85.7046 221.794 85.736 221.745 85.7733 221.7Z" fill="#263238"/>
<path d="M71.9933 315.44H43.3867L38.06 276.02H77.4733L71.9933 315.44Z" fill="#263238"/>
<path d="M76.0733 281.793C76.0733 281.893 67.8 281.967 57.5933 281.967C47.3867 281.967 39.1067 281.893 39.1067 281.793C39.1067 281.693 47.3867 281.62 57.5933 281.62C67.8 281.62 76.0733 281.7 76.0733 281.793Z" fill="#455A64"/>
<path d="M341.72 30.0734H158.273C154.021 30.0734 150.573 33.5208 150.573 37.7734V307.74C150.573 311.993 154.021 315.44 158.273 315.44H341.72C345.973 315.44 349.42 311.993 349.42 307.74V37.7734C349.42 33.5208 345.973 30.0734 341.72 30.0734Z" fill="#263238"/>
<path d="M343.06 50.4333H156.753V288.747H343.06V50.4333Z" fill="white"/>
<path d="M257.627 301.1C257.625 302.608 257.177 304.082 256.338 305.335C255.499 306.589 254.308 307.565 252.914 308.141C251.52 308.718 249.987 308.868 248.508 308.573C247.029 308.278 245.671 307.551 244.605 306.484C243.539 305.417 242.813 304.058 242.519 302.579C242.226 301.1 242.377 299.567 242.955 298.173C243.532 296.78 244.51 295.589 245.764 294.752C247.018 293.914 248.492 293.467 250 293.467C251.002 293.467 251.994 293.664 252.92 294.048C253.846 294.432 254.687 294.994 255.395 295.703C256.104 296.412 256.665 297.253 257.048 298.179C257.431 299.106 257.628 300.098 257.627 301.1Z" fill="#455A64"/>
<path d="M279.133 38.2933H220.867C220.417 38.2933 220.053 38.6575 220.053 39.1067V40.6333C220.053 41.0825 220.417 41.4467 220.867 41.4467H279.133C279.583 41.4467 279.947 41.0825 279.947 40.6333V39.1067C279.947 38.6575 279.583 38.2933 279.133 38.2933Z" fill="#455A64"/>
<path d="M215.713 88.74H173.893C172.2 88.74 170.827 90.113 170.827 91.8067V133.627C170.827 135.32 172.2 136.693 173.893 136.693H215.713C217.407 136.693 218.78 135.32 218.78 133.627V91.8067C218.78 90.113 217.407 88.74 215.713 88.74Z" fill="url(#paint18_linear)"/>
<path d="M202.867 105.08H186.653C185.718 105.08 184.96 105.838 184.96 106.773V113.84C184.96 114.775 185.718 115.533 186.653 115.533H202.867C203.802 115.533 204.56 114.775 204.56 113.84V106.773C204.56 105.838 203.802 105.08 202.867 105.08Z" fill="#FAFAFA"/>
<path d="M208.22 109.613H181.38C180.997 109.613 180.687 109.924 180.687 110.307V118.947C180.687 119.33 180.997 119.64 181.38 119.64H208.22C208.603 119.64 208.913 119.33 208.913 118.947V110.307C208.913 109.924 208.603 109.613 208.22 109.613Z" fill="#FAFAFA"/>
<path d="M204.56 109.613C204.724 110.768 204.793 111.934 204.767 113.1V113.3H204.56C202.16 113.36 198.66 113.4 194.76 113.4C190.86 113.4 187.36 113.36 184.96 113.3H184.753V113.1C184.727 111.934 184.796 110.768 184.96 109.613C185.128 110.768 185.197 111.934 185.167 113.1L184.96 112.893C187.36 112.833 190.86 112.793 194.76 112.793C198.66 112.793 202.16 112.833 204.56 112.893L204.353 113.1C204.323 111.934 204.392 110.768 204.56 109.613Z" fill="#263238"/>
<path d="M184.867 119.553C184.693 119.553 184.56 117.38 184.56 114.7C184.56 112.02 184.693 109.853 184.867 109.853C185.04 109.853 185.167 112.02 185.167 114.7C185.167 117.38 185.033 119.553 184.867 119.553Z" fill="#263238"/>
<path d="M204.58 119.64C204.407 119.64 204.273 117.547 204.273 114.973C204.273 112.4 204.407 110.307 204.58 110.307C204.753 110.307 204.88 112.4 204.88 114.973C204.88 117.547 204.747 119.64 204.58 119.64Z" fill="#263238"/>
<path d="M269.96 88.74H228.14C226.446 88.74 225.073 90.113 225.073 91.8067V133.627C225.073 135.32 226.446 136.693 228.14 136.693H269.96C271.654 136.693 273.027 135.32 273.027 133.627V91.8067C273.027 90.113 271.654 88.74 269.96 88.74Z" fill="#E0E0E0"/>
<path d="M257.12 105.08H240.907C239.971 105.08 239.213 105.838 239.213 106.773V113.84C239.213 114.775 239.971 115.533 240.907 115.533H257.12C258.055 115.533 258.813 114.775 258.813 113.84V106.773C258.813 105.838 258.055 105.08 257.12 105.08Z" fill="url(#paint19_linear)"/>
<path d="M262.473 109.613H235.633C235.25 109.613 234.94 109.924 234.94 110.307V118.947C234.94 119.33 235.25 119.64 235.633 119.64H262.473C262.856 119.64 263.167 119.33 263.167 118.947V110.307C263.167 109.924 262.856 109.613 262.473 109.613Z" fill="url(#paint20_linear)"/>
<path d="M258.813 109.613C258.972 110.768 259.039 111.934 259.013 113.1V113.3H258.807C256.407 113.36 252.9 113.4 249.007 113.4C245.113 113.4 241.6 113.36 239.207 113.3H238.993V113.1C238.963 111.934 239.032 110.768 239.2 109.613C239.368 110.768 239.437 111.934 239.407 113.1L239.2 112.893C241.593 112.833 245.1 112.793 249 112.793C252.9 112.793 256.4 112.833 258.8 112.893L258.593 113.1C258.567 111.934 258.641 110.767 258.813 109.613Z" fill="#263238"/>
<path d="M239.113 119.553C238.947 119.553 238.807 117.38 238.807 114.7C238.807 112.02 238.947 109.853 239.113 109.853C239.28 109.853 239.42 112.02 239.42 114.7C239.42 117.38 239.287 119.553 239.113 119.553Z" fill="#263238"/>
<path d="M258.827 119.64C258.66 119.64 258.527 117.547 258.527 114.973C258.527 112.4 258.66 110.307 258.827 110.307C258.993 110.307 259.133 112.4 259.133 114.973C259.133 117.547 259 119.64 258.827 119.64Z" fill="#263238"/>
<path d="M324.213 88.74H282.393C280.7 88.74 279.327 90.113 279.327 91.8067V133.627C279.327 135.32 280.7 136.693 282.393 136.693H324.213C325.907 136.693 327.28 135.32 327.28 133.627V91.8067C327.28 90.113 325.907 88.74 324.213 88.74Z" fill="#E0E0E0"/>
<path d="M311.373 105.08H295.16C294.225 105.08 293.467 105.838 293.467 106.773V113.84C293.467 114.775 294.225 115.533 295.16 115.533H311.373C312.309 115.533 313.067 114.775 313.067 113.84V106.773C313.067 105.838 312.309 105.08 311.373 105.08Z" fill="#455A64"/>
<path d="M316.727 109.613H289.887C289.504 109.613 289.193 109.924 289.193 110.307V118.947C289.193 119.33 289.504 119.64 289.887 119.64H316.727C317.11 119.64 317.42 119.33 317.42 118.947V110.307C317.42 109.924 317.11 109.613 316.727 109.613Z" fill="#455A64"/>
<path d="M313.06 109.613C313.228 110.768 313.297 111.934 313.267 113.1V113.3H313.053C310.66 113.36 307.153 113.4 303.26 113.4C299.367 113.4 295.853 113.36 293.46 113.3H293.247V113.1C293.216 111.934 293.285 110.768 293.453 109.613C293.617 110.768 293.686 111.934 293.66 113.1L293.453 112.893C295.847 112.833 299.353 112.793 303.253 112.793C307.153 112.793 310.653 112.833 313.047 112.893L312.84 113.1C312.818 111.934 312.892 110.768 313.06 109.613Z" fill="#263238"/>
<path d="M293.367 119.553C293.2 119.553 293.06 117.38 293.06 114.7C293.06 112.02 293.2 109.853 293.367 109.853C293.533 109.853 293.673 112.02 293.673 114.7C293.673 117.38 293.533 119.553 293.367 119.553Z" fill="#263238"/>
<path d="M313.08 119.64C312.913 119.64 312.773 117.547 312.773 114.973C312.773 112.4 312.913 110.307 313.08 110.307C313.247 110.307 313.387 112.4 313.387 114.973C313.387 117.547 313.253 119.64 313.08 119.64Z" fill="#263238"/>
<path d="M215.713 149.073H173.893C172.2 149.073 170.827 150.446 170.827 152.14V193.96C170.827 195.654 172.2 197.027 173.893 197.027H215.713C217.407 197.027 218.78 195.654 218.78 193.96V152.14C218.78 150.446 217.407 149.073 215.713 149.073Z" fill="#E0E0E0"/>
<path d="M184.8 172.213L187.033 180L202.367 180.06L204.813 172.607C203.965 172.327 203.07 172.223 202.18 172.3L201.913 164C201.909 163.814 201.859 163.632 201.768 163.47C201.677 163.308 201.547 163.17 201.39 163.07C201.234 162.97 201.054 162.91 200.869 162.895C200.683 162.881 200.497 162.912 200.327 162.987L198.833 163.653H190.167L189.173 163.153C189.002 163.066 188.811 163.025 188.619 163.033C188.427 163.041 188.241 163.099 188.077 163.2C187.914 163.301 187.779 163.442 187.686 163.611C187.593 163.779 187.545 163.968 187.547 164.16V172.353C186.651 172.114 185.715 172.066 184.8 172.213Z" fill="url(#paint21_linear)"/>
<path d="M187.824 180.005L187.018 180.002L186.988 187.088L187.795 187.092L187.824 180.005Z" fill="#263238"/>
<path d="M190.658 180.037L189.851 180.034L189.836 183.654L190.642 183.657L190.658 180.037Z" fill="#263238"/>
<path d="M198.777 180.071L197.971 180.068L197.956 183.688L198.762 183.691L198.777 180.071Z" fill="#263238"/>
<path d="M202.371 180.066L201.564 180.063L201.534 187.149L202.341 187.153L202.371 180.066Z" fill="#263238"/>
<path d="M190.28 175.513C190.22 175.513 190.18 172.847 190.193 169.587C190.207 166.327 190.273 163.66 190.333 163.66C190.393 163.66 190.433 166.327 190.42 169.587C190.407 172.847 190.34 175.513 190.28 175.513Z" fill="#263238"/>
<path d="M198.933 175.553C198.873 175.553 198.833 172.887 198.847 169.627C198.86 166.367 198.927 163.7 198.987 163.7C199.047 163.7 199.087 166.367 199.073 169.627C199.06 172.887 199 175.553 198.933 175.553Z" fill="#263238"/>
<path d="M202.167 172.307C202.04 172.361 201.908 172.401 201.773 172.427L201.553 172.48L201.307 172.573L201.013 172.68L200.707 172.847C200.197 173.137 199.778 173.561 199.493 174.073C199.143 174.736 198.995 175.487 199.067 176.233V176.347H194.867L190.273 176.313H190.18V176.22C190.171 175.519 189.988 174.832 189.647 174.22C189.394 173.759 189.063 173.346 188.667 173C188.299 172.704 187.899 172.451 187.473 172.247C187.597 172.273 187.718 172.313 187.833 172.367C188.159 172.507 188.464 172.691 188.74 172.913C189.172 173.258 189.536 173.681 189.813 174.16C190.181 174.781 190.383 175.486 190.4 176.207L190.3 176.113H194.893H198.987L198.887 176.227C198.817 175.457 198.972 174.684 199.333 174C199.649 173.466 200.112 173.033 200.667 172.753L200.987 172.6L201.287 172.5L201.547 172.413L201.767 172.373C201.898 172.34 202.032 172.317 202.167 172.307Z" fill="#263238"/>
<path d="M190.113 176.26C190.113 176.293 189.827 176.347 189.4 176.54C188.85 176.789 188.369 177.169 188 177.647C187.649 178.137 187.421 178.704 187.333 179.3C187.32 179.555 187.294 179.808 187.253 180.06C187.165 179.81 187.14 179.542 187.18 179.28C187.233 178.64 187.464 178.029 187.847 177.513C188.239 177.003 188.769 176.615 189.373 176.393C189.605 176.288 189.859 176.242 190.113 176.26Z" fill="#263238"/>
<path d="M202.2 180.233C202.167 180.233 202.16 179.907 202.033 179.4C201.872 178.747 201.562 178.14 201.127 177.627C200.687 177.121 200.137 176.722 199.52 176.46C199.04 176.26 198.72 176.207 198.727 176.173C199.017 176.152 199.307 176.203 199.573 176.32C200.242 176.546 200.838 176.949 201.298 177.485C201.758 178.021 202.065 178.671 202.187 179.367C202.262 179.65 202.266 179.948 202.2 180.233Z" fill="#263238"/>
<path d="M269.96 149.073H228.14C226.446 149.073 225.073 150.446 225.073 152.14V193.96C225.073 195.654 226.446 197.027 228.14 197.027H269.96C271.654 197.027 273.027 195.654 273.027 193.96V152.14C273.027 150.446 271.654 149.073 269.96 149.073Z" fill="#E0E0E0"/>
<path d="M324.213 149.073H282.393C280.7 149.073 279.327 150.446 279.327 152.14V193.96C279.327 195.654 280.7 197.027 282.393 197.027H324.213C325.907 197.027 327.28 195.654 327.28 193.96V152.14C327.28 150.446 325.907 149.073 324.213 149.073Z" fill="url(#paint22_linear)"/>
<path d="M215.713 209.407H173.893C172.2 209.407 170.827 210.78 170.827 212.473V254.293C170.827 255.987 172.2 257.36 173.893 257.36H215.713C217.407 257.36 218.78 255.987 218.78 254.293V212.473C218.78 210.78 217.407 209.407 215.713 209.407Z" fill="url(#paint23_linear)"/>
<path d="M269.96 209.407H228.14C226.446 209.407 225.073 210.78 225.073 212.473V254.293C225.073 255.987 226.446 257.36 228.14 257.36H269.96C271.654 257.36 273.027 255.987 273.027 254.293V212.473C273.027 210.78 271.654 209.407 269.96 209.407Z" fill="#E0E0E0"/>
<path d="M324.213 209.407H282.393C280.7 209.407 279.327 210.78 279.327 212.473V254.293C279.327 255.987 280.7 257.36 282.393 257.36H324.213C325.907 257.36 327.28 255.987 327.28 254.293V212.473C327.28 210.78 325.907 209.407 324.213 209.407Z" fill="#E0E0E0"/>
<path d="M243.06 273.187C244.01 273.187 244.78 272.417 244.78 271.467C244.78 270.517 244.01 269.747 243.06 269.747C242.11 269.747 241.34 270.517 241.34 271.467C241.34 272.417 242.11 273.187 243.06 273.187Z" fill="#263238"/>
<path d="M251.72 271.467C251.719 271.807 251.617 272.138 251.427 272.42C251.237 272.702 250.968 272.922 250.654 273.051C250.339 273.18 249.994 273.213 249.66 273.146C249.327 273.079 249.021 272.915 248.781 272.674C248.542 272.433 248.378 272.127 248.313 271.793C248.247 271.46 248.281 271.114 248.412 270.8C248.542 270.486 248.762 270.218 249.045 270.029C249.328 269.841 249.66 269.74 250 269.74C250.226 269.74 250.451 269.785 250.66 269.872C250.869 269.958 251.059 270.086 251.219 270.246C251.378 270.407 251.505 270.597 251.591 270.806C251.677 271.016 251.721 271.24 251.72 271.467Z" fill="#263238"/>
<path d="M258.667 271.467C258.667 271.808 258.565 272.143 258.375 272.427C258.185 272.711 257.915 272.932 257.599 273.063C257.283 273.193 256.936 273.227 256.601 273.16C256.266 273.092 255.958 272.927 255.717 272.685C255.475 272.443 255.312 272.135 255.246 271.799C255.18 271.464 255.215 271.117 255.347 270.801C255.478 270.486 255.701 270.217 255.986 270.028C256.27 269.839 256.605 269.739 256.947 269.74C257.403 269.742 257.841 269.924 258.163 270.248C258.486 270.572 258.667 271.01 258.667 271.467Z" fill="#263238"/>
<path d="M181.833 70.4001H173.06C172.972 70.4001 172.887 70.3649 172.824 70.3024C172.762 70.2399 172.727 70.1551 172.727 70.0667C172.727 69.9783 172.762 69.8935 172.824 69.831C172.887 69.7685 172.972 69.7334 173.06 69.7334H181.833C181.922 69.7334 182.007 69.7685 182.069 69.831C182.132 69.8935 182.167 69.9783 182.167 70.0667C182.167 70.1551 182.132 70.2399 182.069 70.3024C182.007 70.3649 181.922 70.4001 181.833 70.4001Z" fill="#263238"/>
<path d="M176.467 73.2067C176.398 73.2064 176.33 73.1855 176.273 73.1467L172.333 70.34C172.288 70.3102 172.251 70.2696 172.226 70.2219C172.2 70.1742 172.187 70.1208 172.187 70.0667C172.19 70.0132 172.204 69.961 172.23 69.9138C172.255 69.8665 172.29 69.8254 172.333 69.7934L176.393 67.0267C176.429 66.9957 176.47 66.9726 176.516 66.9589C176.561 66.9452 176.608 66.9412 176.655 66.9471C176.702 66.9531 176.746 66.9689 176.787 66.9935C176.827 67.0181 176.861 67.0509 176.888 67.0898C176.914 67.1287 176.932 67.1728 176.941 67.2192C176.949 67.2655 176.947 67.3131 176.936 67.3588C176.924 67.4045 176.903 67.4473 176.874 67.4842C176.845 67.5212 176.808 67.5516 176.767 67.5734L173.107 70.0734L176.667 72.6C176.725 72.6408 176.769 72.6991 176.792 72.7665C176.814 72.8339 176.815 72.9068 176.794 72.9746C176.772 73.0424 176.729 73.1015 176.672 73.1432C176.614 73.185 176.545 73.2072 176.473 73.2067H176.467Z" fill="#263238"/>
<path d="M323.54 70.4334H314.767C314.678 70.4334 314.593 70.3983 314.531 70.3358C314.468 70.2732 314.433 70.1885 314.433 70.1001C314.433 70.0117 314.468 69.9269 314.531 69.8644C314.593 69.8018 314.678 69.7667 314.767 69.7667H323.54C323.628 69.7667 323.713 69.8018 323.776 69.8644C323.838 69.9269 323.873 70.0117 323.873 70.1001C323.873 70.1885 323.838 70.2732 323.776 70.3358C323.713 70.3983 323.628 70.4334 323.54 70.4334Z" fill="#263238"/>
<path d="M320 73.2067C319.945 73.2062 319.891 73.1927 319.842 73.1672C319.794 73.1417 319.752 73.105 319.72 73.0601C319.673 72.9869 319.655 72.8984 319.672 72.8128C319.688 72.7272 319.736 72.6511 319.807 72.6001L323.473 70.0934L319.92 67.5734C319.849 67.5213 319.8 67.4434 319.785 67.3563C319.771 67.2692 319.79 67.1797 319.84 67.1068C319.865 67.0707 319.897 67.04 319.935 67.0165C319.972 66.9929 320.013 66.977 320.057 66.9695C320.1 66.9621 320.145 66.9633 320.187 66.9731C320.23 66.983 320.271 67.0012 320.307 67.0268L324.247 69.8334C324.292 69.8621 324.33 69.9027 324.354 69.9508C324.379 69.9989 324.39 70.0528 324.387 70.1068C324.386 70.16 324.373 70.2124 324.349 70.2598C324.324 70.3072 324.289 70.3483 324.247 70.3801L320.187 73.1468C320.132 73.1846 320.067 73.2055 320 73.2067Z" fill="#263238"/>
<path d="M204.392 228.456L187.799 228.485C186.919 228.487 186.206 229.201 186.208 230.081L186.225 240.108C186.227 240.988 186.942 241.7 187.822 241.699L204.415 241.67C205.295 241.668 206.007 240.953 206.005 240.073L205.988 230.047C205.986 229.167 205.272 228.455 204.392 228.456Z" fill="#E0E0E0"/>
<path d="M200.593 230.92C200.585 230.836 200.585 230.751 200.593 230.667C200.593 230.471 200.607 230.231 200.633 229.947C200.707 229.059 200.707 228.167 200.633 227.28C200.525 225.981 199.993 224.754 199.12 223.787C198.588 223.243 197.909 222.865 197.167 222.7C196.357 222.539 195.532 222.469 194.707 222.493C193.027 222.493 191.373 222.84 190.227 223.773C189.693 224.212 189.273 224.772 189 225.407C188.763 225.961 188.608 226.547 188.54 227.147C188.45 228.033 188.45 228.927 188.54 229.813C188.567 230.107 188.587 230.347 188.6 230.533C188.6 230.7 188.6 230.787 188.6 230.787C188.572 230.707 188.554 230.624 188.547 230.54C188.547 230.38 188.487 230.133 188.447 229.827C188.321 228.944 188.294 228.049 188.367 227.16C188.429 226.541 188.582 225.935 188.82 225.36C189.094 224.693 189.527 224.102 190.08 223.64C190.701 223.143 191.422 222.786 192.193 222.593C193.014 222.392 193.855 222.291 194.7 222.293C195.543 222.269 196.386 222.341 197.213 222.507C197.996 222.685 198.71 223.088 199.267 223.667C200.165 224.672 200.703 225.948 200.793 227.293C200.862 228.182 200.844 229.075 200.74 229.96C200.74 230.273 200.68 230.513 200.66 230.673C200.644 230.757 200.622 230.84 200.593 230.92Z" fill="#263238"/>
<path d="M201.892 228.394L185.298 228.423C184.418 228.425 183.706 229.139 183.708 230.019L183.725 240.046C183.727 240.926 184.441 241.638 185.321 241.636L201.915 241.607C202.795 241.606 203.507 240.891 203.505 240.011L203.488 229.985C203.486 229.105 202.772 228.393 201.892 228.394Z" fill="#FAFAFA"/>
<path d="M201.9 241.62C202.113 241.601 202.322 241.549 202.52 241.467C202.754 241.364 202.958 241.203 203.113 241C203.33 240.727 203.447 240.389 203.447 240.04C203.447 238.427 203.447 236.113 203.4 233.26C203.4 232.547 203.4 231.793 203.4 231.013C203.4 230.627 203.4 230.213 203.4 229.833C203.356 229.441 203.159 229.082 202.853 228.833C202.528 228.58 202.117 228.463 201.707 228.507H200.373H197.607H185.3C185.046 228.508 184.797 228.574 184.577 228.699C184.356 228.824 184.171 229.003 184.04 229.22C183.907 229.432 183.833 229.676 183.827 229.927C183.827 230.193 183.827 230.453 183.827 230.72C183.827 231.787 183.827 232.833 183.827 233.86V239.8C183.813 240.025 183.838 240.25 183.9 240.467C183.968 240.671 184.077 240.859 184.22 241.02C184.364 241.179 184.54 241.304 184.737 241.388C184.933 241.473 185.146 241.513 185.36 241.507H192.667H199.44H201.287H201.767H201.927H201.767H201.287H199.447L192.667 241.56H188H185.333C185.09 241.568 184.848 241.523 184.624 241.429C184.399 241.334 184.198 241.193 184.033 241.013C183.865 240.833 183.739 240.616 183.667 240.38C183.596 240.145 183.566 239.899 183.58 239.653C183.58 237.76 183.58 235.773 183.58 233.713C183.58 232.687 183.58 231.64 183.58 230.573C183.58 230.307 183.58 230.047 183.58 229.767C183.59 229.479 183.675 229.198 183.827 228.953C183.98 228.703 184.194 228.496 184.45 228.353C184.705 228.209 184.993 228.134 185.287 228.133H197.593H201.68C202.135 228.092 202.589 228.228 202.947 228.513C203.117 228.652 203.259 228.823 203.363 229.016C203.467 229.209 203.532 229.421 203.553 229.64C203.553 230.06 203.553 230.447 203.553 230.84C203.553 231.62 203.553 232.373 203.553 233.087C203.553 235.94 203.553 238.253 203.553 239.867C203.547 240.234 203.418 240.588 203.187 240.873C203.017 241.079 202.8 241.239 202.553 241.34C202.367 241.494 202.14 241.591 201.9 241.62Z" fill="#263238"/>
<path d="M258.205 228.456L241.612 228.485C240.732 228.486 240.02 229.201 240.021 230.081L240.039 240.107C240.04 240.987 240.755 241.699 241.635 241.698L258.228 241.669C259.108 241.667 259.82 240.953 259.819 240.073L259.801 230.046C259.8 229.166 259.085 228.454 258.205 228.456Z" fill="url(#paint24_linear)"/>
<path d="M254.407 230.92C254.398 230.836 254.398 230.751 254.407 230.667C254.407 230.471 254.42 230.231 254.447 229.947C254.52 229.059 254.52 228.167 254.447 227.28C254.338 225.981 253.807 224.754 252.933 223.787C252.401 223.243 251.723 222.865 250.98 222.7C250.17 222.539 249.345 222.469 248.52 222.493C246.84 222.493 245.187 222.84 244.04 223.773C243.507 224.212 243.086 224.772 242.813 225.407C242.576 225.961 242.421 226.547 242.353 227.147C242.263 228.033 242.263 228.927 242.353 229.813C242.38 230.107 242.4 230.347 242.413 230.533C242.413 230.7 242.413 230.787 242.413 230.787C242.385 230.707 242.368 230.624 242.36 230.54C242.36 230.38 242.3 230.133 242.26 229.827C242.134 228.944 242.107 228.049 242.18 227.16C242.242 226.541 242.395 225.935 242.633 225.36C242.907 224.693 243.34 224.102 243.893 223.64C244.514 223.143 245.235 222.786 246.007 222.593C246.827 222.392 247.669 222.291 248.513 222.293C249.356 222.269 250.2 222.341 251.027 222.507C251.81 222.685 252.523 223.088 253.08 223.667C253.979 224.672 254.516 225.948 254.607 227.293C254.676 228.182 254.658 229.075 254.553 229.96C254.553 230.273 254.493 230.513 254.473 230.673C254.462 230.758 254.439 230.841 254.407 230.92Z" fill="#263238"/>
<path d="M255.705 228.393L239.112 228.422C238.232 228.424 237.52 229.139 237.521 230.018L237.539 240.045C237.54 240.925 238.255 241.637 239.135 241.636L255.728 241.607C256.608 241.605 257.32 240.891 257.319 240.011L257.301 229.984C257.3 229.104 256.585 228.392 255.705 228.393Z" fill="url(#paint25_linear)"/>
<path d="M255.713 241.62C255.927 241.601 256.136 241.549 256.333 241.467C256.567 241.364 256.771 241.203 256.927 241C257.143 240.727 257.261 240.389 257.26 240.04C257.26 238.427 257.26 236.113 257.213 233.26C257.213 232.547 257.213 231.793 257.213 231.013C257.213 230.627 257.213 230.213 257.213 229.833C257.169 229.441 256.973 229.082 256.667 228.833C256.341 228.58 255.93 228.463 255.52 228.507H254.187H251.42H239.113C238.86 228.508 238.611 228.574 238.39 228.699C238.17 228.824 237.985 229.003 237.853 229.22C237.72 229.432 237.646 229.676 237.64 229.927C237.64 230.193 237.64 230.453 237.64 230.72C237.64 231.787 237.64 232.833 237.64 233.86V239.8C237.627 240.025 237.652 240.25 237.713 240.467C237.781 240.671 237.89 240.859 238.033 241.02C238.178 241.179 238.355 241.305 238.553 241.389C238.751 241.473 238.965 241.513 239.18 241.507H246.467H253.247H255.087H255.567H255.727H255.567H255.087H253.247L246.467 241.56H241.8H239.193C238.95 241.568 238.708 241.523 238.484 241.429C238.259 241.334 238.058 241.193 237.893 241.013C237.725 240.833 237.599 240.616 237.527 240.38C237.458 240.144 237.431 239.898 237.447 239.653C237.447 237.76 237.447 235.773 237.447 233.713C237.447 232.687 237.447 231.64 237.447 230.573C237.447 230.307 237.447 230.047 237.447 229.767C237.457 229.479 237.542 229.198 237.693 228.953C237.846 228.703 238.061 228.496 238.316 228.353C238.572 228.209 238.86 228.134 239.153 228.133H251.46H255.547C256.002 228.092 256.456 228.228 256.813 228.513C257.158 228.794 257.378 229.199 257.427 229.64C257.427 230.06 257.427 230.447 257.427 230.84C257.427 231.62 257.427 232.373 257.427 233.087C257.427 235.94 257.427 238.253 257.427 239.867C257.424 240.184 257.327 240.492 257.149 240.755C256.972 241.017 256.72 241.22 256.427 241.34C256.224 241.505 255.974 241.603 255.713 241.62Z" fill="#263238"/>
<path d="M314.152 228.451L297.558 228.48C296.678 228.482 295.966 229.197 295.968 230.076L295.985 240.103C295.987 240.983 296.701 241.695 297.581 241.694L314.175 241.665C315.055 241.663 315.767 240.949 315.765 240.069L315.748 230.042C315.746 229.162 315.032 228.45 314.152 228.451Z" fill="#455A64"/>
<path d="M310.353 230.92C310.345 230.836 310.345 230.751 310.353 230.667C310.353 230.471 310.367 230.231 310.393 229.947C310.467 229.059 310.467 228.167 310.393 227.28C310.281 225.982 309.75 224.756 308.88 223.787C308.348 223.243 307.669 222.865 306.927 222.7C306.117 222.539 305.292 222.47 304.467 222.493C302.78 222.493 301.133 222.84 299.98 223.773C299.451 224.214 299.033 224.774 298.76 225.407C298.523 225.961 298.368 226.547 298.3 227.147C298.21 228.033 298.21 228.927 298.3 229.813C298.327 230.107 298.347 230.347 298.36 230.533C298.37 230.617 298.37 230.703 298.36 230.787C298.332 230.707 298.314 230.624 298.307 230.54C298.307 230.38 298.247 230.133 298.207 229.827C298.081 228.944 298.054 228.049 298.127 227.16C298.186 226.541 298.339 225.934 298.58 225.36C298.852 224.692 299.285 224.101 299.84 223.64C300.461 223.143 301.182 222.786 301.953 222.593C302.773 222.391 303.615 222.29 304.46 222.293C305.303 222.269 306.146 222.341 306.973 222.507C307.756 222.686 308.469 223.089 309.027 223.667C309.926 224.671 310.462 225.948 310.547 227.293C310.621 228.182 310.605 229.075 310.5 229.96C310.5 230.273 310.44 230.513 310.42 230.673C310.404 230.757 310.382 230.84 310.353 230.92Z" fill="#263238"/>
<path d="M311.652 228.389L295.058 228.418C294.178 228.42 293.466 229.134 293.468 230.014L293.485 240.041C293.487 240.921 294.201 241.633 295.081 241.631L311.675 241.602C312.555 241.601 313.267 240.886 313.265 240.006L313.248 229.98C313.246 229.1 312.532 228.388 311.652 228.389Z" fill="#455A64"/>
<path d="M311.66 241.62C311.873 241.601 312.082 241.549 312.28 241.467C312.514 241.364 312.718 241.203 312.873 241C313.09 240.727 313.207 240.389 313.207 240.04C313.207 238.427 313.207 236.113 313.16 233.26C313.16 232.547 313.16 231.793 313.16 231.013C313.16 230.627 313.16 230.213 313.16 229.833C313.115 229.44 312.916 229.08 312.607 228.833C312.284 228.579 311.875 228.462 311.467 228.507H310.133H307.367H295.06C294.806 228.508 294.557 228.574 294.337 228.699C294.116 228.824 293.931 229.003 293.8 229.22C293.667 229.432 293.593 229.676 293.587 229.927C293.587 230.193 293.587 230.453 293.587 230.72C293.587 231.787 293.587 232.833 293.587 233.86V239.8C293.573 240.025 293.598 240.25 293.66 240.467C293.725 240.672 293.834 240.861 293.98 241.02C294.123 241.179 294.299 241.305 294.496 241.389C294.693 241.473 294.906 241.513 295.12 241.507H302.4H309.173H311.02H311.5H311.66H311.5H311.02H309.173L302.4 241.56H297.733H295.12C294.878 241.567 294.637 241.522 294.414 241.428C294.191 241.333 293.99 241.192 293.827 241.013C293.658 240.831 293.531 240.615 293.453 240.38C293.388 240.144 293.361 239.898 293.373 239.653C293.373 237.76 293.373 235.773 293.373 233.713C293.373 232.687 293.373 231.64 293.373 230.573C293.373 230.307 293.373 230.047 293.373 229.767C293.384 229.479 293.469 229.198 293.62 228.953C293.772 228.704 293.985 228.497 294.24 228.354C294.494 228.21 294.781 228.134 295.073 228.133H307.387H311.473C311.929 228.092 312.383 228.228 312.74 228.513C312.911 228.652 313.052 228.823 313.156 229.016C313.26 229.209 313.325 229.421 313.347 229.64C313.347 230.06 313.347 230.447 313.347 230.84C313.347 231.62 313.347 232.373 313.347 233.087C313.347 235.94 313.347 238.253 313.347 239.867C313.341 240.234 313.211 240.588 312.98 240.873C312.811 241.079 312.593 241.239 312.347 241.34C312.151 241.5 311.912 241.598 311.66 241.62Z" fill="#263238"/>
<path d="M240 173.52L242.233 181.333L257.567 181.4L260 173.92C259.152 173.641 258.256 173.538 257.367 173.62L257.113 165.333C257.108 165.148 257.057 164.967 256.965 164.805C256.873 164.644 256.744 164.508 256.587 164.408C256.431 164.308 256.253 164.248 256.068 164.233C255.883 164.217 255.697 164.247 255.527 164.32L254.033 164.987L245.367 164.947L244.373 164.447C244.202 164.36 244.011 164.318 243.819 164.327C243.627 164.335 243.441 164.392 243.277 164.493C243.114 164.594 242.979 164.736 242.886 164.904C242.793 165.072 242.745 165.261 242.747 165.453V173.653C241.851 173.413 240.915 173.367 240 173.52Z" fill="#455A64"/>
<path d="M243.025 181.316L242.218 181.313L242.189 188.4L242.995 188.403L243.025 181.316Z" fill="#263238"/>
<path d="M245.872 181.322L245.065 181.318L245.05 184.938L245.856 184.942L245.872 181.322Z" fill="#263238"/>
<path d="M253.978 181.376L253.172 181.372L253.156 184.992L253.963 184.996L253.978 181.376Z" fill="#263238"/>
<path d="M257.558 181.397L256.751 181.394L256.722 188.481L257.528 188.484L257.558 181.397Z" fill="#263238"/>
<path d="M245.48 176.827C245.42 176.827 245.38 174.16 245.393 170.9C245.407 167.64 245.467 164.973 245.533 164.973C245.6 164.973 245.627 167.64 245.613 170.9C245.6 174.16 245.54 176.827 245.48 176.827Z" fill="#263238"/>
<path d="M254.133 176.86C254.073 176.86 254.033 174.193 254.047 170.933C254.06 167.673 254.12 165.007 254.187 165.007C254.253 165.007 254.287 167.673 254.267 170.933C254.247 174.193 254.193 176.86 254.133 176.86Z" fill="#263238"/>
<path d="M257.367 173.62C257.236 173.666 257.102 173.704 256.967 173.733L256.753 173.787L256.5 173.887L256.213 173.993L255.907 174.16C255.396 174.445 254.976 174.868 254.693 175.38C254.343 176.045 254.195 176.798 254.267 177.547V177.653H250.067H245.473H245.38V177.56C245.376 176.86 245.194 176.172 244.853 175.56C244.595 175.091 244.254 174.674 243.847 174.327C243.479 174.03 243.079 173.777 242.653 173.573C242.775 173.599 242.893 173.637 243.007 173.687C243.334 173.828 243.641 174.012 243.92 174.233C244.352 174.581 244.716 175.006 244.993 175.487C245.358 176.109 245.559 176.813 245.58 177.533L245.48 177.433H250.073H254.167L254.067 177.547C254 176.76 254.167 175.972 254.547 175.28C254.853 174.75 255.304 174.317 255.847 174.033L256.173 173.873L256.473 173.773L256.733 173.693L256.953 173.653C257.089 173.626 257.228 173.615 257.367 173.62Z" fill="#263238"/>
<path d="M245.333 177.567C245.333 177.607 245.047 177.66 244.62 177.853C244.066 178.099 243.583 178.481 243.217 178.963C242.851 179.446 242.614 180.014 242.527 180.613C242.513 180.868 242.486 181.122 242.447 181.373C242.361 181.123 242.335 180.855 242.373 180.593C242.421 179.953 242.652 179.339 243.04 178.827C243.432 178.318 243.958 177.93 244.56 177.707C244.802 177.597 245.068 177.549 245.333 177.567Z" fill="#263238"/>
<path d="M257.4 181.54C257.367 181.54 257.36 181.213 257.233 180.713C257.074 180.06 256.763 179.452 256.327 178.94C255.886 178.432 255.334 178.033 254.713 177.773C254.24 177.573 253.913 177.513 253.92 177.48C254.212 177.459 254.505 177.509 254.773 177.627C255.442 177.856 256.037 178.26 256.496 178.797C256.956 179.334 257.263 179.984 257.387 180.68C257.462 180.961 257.467 181.257 257.4 181.54Z" fill="#263238"/>
<path d="M294.427 171.473L296.667 179.267L312 179.333L314.447 171.873C313.599 171.594 312.703 171.49 311.813 171.567L311.567 163.287C311.561 163.1 311.51 162.918 311.418 162.756C311.326 162.594 311.196 162.457 311.039 162.357C310.882 162.257 310.702 162.197 310.517 162.183C310.331 162.168 310.144 162.199 309.973 162.273L308.48 162.94L299.847 162.907L298.853 162.407C298.682 162.318 298.49 162.276 298.297 162.283C298.104 162.29 297.917 162.347 297.752 162.449C297.588 162.55 297.453 162.692 297.359 162.861C297.266 163.03 297.218 163.22 297.22 163.413V171.607C296.309 171.362 295.357 171.317 294.427 171.473Z" fill="#FAFAFA"/>
<path d="M297.453 179.264L296.646 179.261L296.617 186.348L297.423 186.351L297.453 179.264Z" fill="#263238"/>
<path d="M300.3 179.276L299.493 179.273L299.478 182.893L300.285 182.896L300.3 179.276Z" fill="#263238"/>
<path d="M308.42 179.31L307.613 179.307L307.598 182.927L308.404 182.93L308.42 179.31Z" fill="#263238"/>
<path d="M311.979 179.352L311.173 179.349L311.143 186.435L311.95 186.439L311.979 179.352Z" fill="#263238"/>
<path d="M299.907 174.773C299.847 174.773 299.813 172.107 299.827 168.847C299.84 165.587 299.9 162.927 299.96 162.927C300.02 162.927 300.06 165.593 300.047 168.853C300.033 172.113 300 174.773 299.907 174.773Z" fill="#263238"/>
<path d="M308.567 174.813C308.5 174.813 308.467 172.147 308.48 168.887C308.493 165.627 308.553 162.96 308.613 162.96C308.673 162.96 308.713 165.627 308.7 168.887C308.687 172.147 308.627 174.813 308.567 174.813Z" fill="#263238"/>
<path d="M311.793 171.567C311.667 171.622 311.535 171.662 311.4 171.687L311.18 171.74L310.933 171.833L310.64 171.94L310.333 172.107C309.824 172.397 309.404 172.821 309.12 173.333C308.77 173.996 308.622 174.747 308.693 175.493V175.607H304.487H299.893H299.8V175.513C299.794 174.812 299.611 174.124 299.267 173.513C299.008 173.043 298.667 172.623 298.26 172.273C297.895 171.975 297.494 171.724 297.067 171.527C297.193 171.542 297.315 171.58 297.427 171.64C297.752 171.781 298.057 171.964 298.333 172.187C298.764 172.533 299.128 172.956 299.407 173.433C299.772 174.055 299.974 174.759 299.993 175.48L299.893 175.387H304.487H308.58L308.48 175.5C308.411 174.711 308.581 173.919 308.967 173.227C309.27 172.695 309.722 172.264 310.267 171.987L310.587 171.827L310.887 171.727L311.147 171.647L311.373 171.607C311.512 171.584 311.653 171.57 311.793 171.567Z" fill="#263238"/>
<path d="M299.74 175.52C299.74 175.553 299.453 175.607 299.033 175.8C298.479 176.045 297.996 176.427 297.63 176.909C297.264 177.392 297.026 177.96 296.94 178.56C296.867 179.02 296.893 179.32 296.86 179.32C296.764 179.074 296.736 178.807 296.78 178.547C296.83 177.904 297.061 177.289 297.447 176.773C297.834 176.262 298.362 175.875 298.967 175.66C299.207 175.545 299.474 175.497 299.74 175.52Z" fill="#263238"/>
<path d="M311.827 179.493C311.793 179.493 311.787 179.167 311.66 178.66C311.504 178.007 311.194 177.4 310.757 176.89C310.32 176.38 309.768 175.981 309.147 175.727C308.667 175.52 308.347 175.467 308.353 175.433C308.643 175.412 308.934 175.463 309.2 175.58C309.869 175.808 310.466 176.211 310.927 176.747C311.383 177.284 311.689 177.933 311.813 178.627C311.889 178.91 311.893 179.208 311.827 179.493Z" fill="#263238"/>
<path d="M226.667 69.6868C226.66 69.324 226.729 68.9638 226.869 68.6291C227.009 68.2943 227.217 67.9921 227.479 67.7415C227.742 67.491 228.053 67.2975 228.394 67.1734C228.735 67.0492 229.098 66.997 229.46 67.0201C229.873 67.0002 230.285 67.0765 230.663 67.2432C231.042 67.4098 231.376 67.662 231.64 67.9801L230.727 68.8068C230.587 68.6222 230.407 68.4726 230.2 68.3696C229.993 68.2666 229.765 68.2132 229.533 68.2134C229.166 68.2384 228.821 68.402 228.57 68.6712C228.318 68.9403 228.178 69.295 228.178 69.6634C228.178 70.0318 228.318 70.3865 228.57 70.6557C228.821 70.9249 229.166 71.0885 229.533 71.1134C229.764 71.1122 229.992 71.058 230.199 70.9552C230.406 70.8523 230.586 70.7035 230.727 70.5201L231.64 71.3468C231.375 71.6636 231.041 71.9146 230.662 72.08C230.284 72.2455 229.872 72.3208 229.46 72.3001C229.102 72.3228 228.744 72.2722 228.407 72.1512C228.069 72.0303 227.761 71.8416 227.499 71.5968C227.237 71.352 227.028 71.0563 226.885 70.7278C226.742 70.3993 226.668 70.0451 226.667 69.6868Z" fill="#263238"/>
<path d="M235.613 71.2401H233.467L233.067 72.2267H231.6L233.847 67.1467H235.26L237.507 72.2267H236L235.613 71.2401ZM235.193 70.1801L234.527 68.5601L233.86 70.1801H235.193Z" fill="#263238"/>
<path d="M238.74 68.2867H237.18V67.1467H241.727V68.2867H240.173V72.2267H238.74V68.2867Z" fill="#263238"/>
<path d="M245.413 71.2401H243.267L242.867 72.2267H241.4L243.64 67.1467H245.053L247.307 72.2267H245.813L245.413 71.2401ZM244.993 70.1801L244.327 68.5601L243.66 70.1801H244.993Z" fill="#263238"/>
<path d="M247.713 67.1467H249.147V71.0867H251.567V72.2267H247.713V67.1467Z" fill="#263238"/>
<path d="M251.793 69.6867C251.761 69.1217 251.9 68.56 252.19 68.0745C252.481 67.5889 252.911 67.2018 253.424 66.9633C253.938 66.7248 254.511 66.6459 255.069 66.7367C255.628 66.8276 256.146 67.0841 256.558 67.4729C256.969 67.8618 257.254 68.3652 257.376 68.9178C257.498 69.4705 257.451 70.0471 257.241 70.5729C257.032 71.0986 256.669 71.5494 256.201 71.8669C255.732 72.1844 255.179 72.3538 254.613 72.3534C254.25 72.3743 253.887 72.3208 253.546 72.1962C253.204 72.0716 252.892 71.8784 252.628 71.6287C252.364 71.379 252.153 71.0779 252.01 70.7439C251.866 70.41 251.793 70.0502 251.793 69.6867ZM255.987 69.6867C255.971 69.4191 255.877 69.1619 255.717 68.9468C255.557 68.7317 255.338 68.5682 255.086 68.4764C254.834 68.3846 254.561 68.3686 254.3 68.4303C254.039 68.4919 253.802 68.6286 253.617 68.8235C253.433 69.0184 253.31 69.2629 253.263 69.5269C253.217 69.7909 253.248 70.0628 253.354 70.3091C253.46 70.5554 253.636 70.7654 253.859 70.913C254.083 71.0607 254.345 71.1396 254.613 71.1401C254.803 71.1485 254.993 71.1161 255.17 71.0451C255.346 70.9741 255.506 70.8661 255.637 70.7285C255.768 70.5908 255.869 70.4266 255.931 70.2469C255.994 70.0672 256.017 69.8762 256 69.6867H255.987Z" fill="#263238"/>
<path d="M261.593 69.5801H262.86V71.6801C262.234 72.1146 261.489 72.3472 260.727 72.3468C260.348 72.3982 259.963 72.3677 259.597 72.2574C259.232 72.1471 258.894 71.9596 258.607 71.7074C258.32 71.4553 258.091 71.1445 257.935 70.796C257.778 70.4475 257.699 70.0695 257.701 69.6876C257.703 69.3056 257.788 68.9287 257.949 68.5822C258.109 68.2357 258.343 67.9278 258.633 67.6793C258.923 67.4308 259.263 67.2475 259.63 67.1418C259.997 67.0361 260.382 67.0105 260.76 67.0668C261.176 67.0456 261.591 67.1178 261.975 67.2782C262.359 67.4386 262.703 67.683 262.98 67.9934L262.067 68.8201C261.914 68.6426 261.725 68.5005 261.512 68.4038C261.299 68.307 261.067 68.258 260.833 68.2601C260.466 68.285 260.121 68.4486 259.87 68.7178C259.618 68.987 259.478 69.3417 259.478 69.7101C259.478 70.0785 259.618 70.4332 259.87 70.7024C260.121 70.9715 260.466 71.1352 260.833 71.1601C261.102 71.1614 261.368 71.1045 261.613 70.9934L261.593 69.5801Z" fill="#263238"/>
<path d="M263.733 70.0001V67.1801H265.167V69.9534C265.167 70.8267 265.527 71.1734 266.133 71.1734C266.74 71.1734 267.087 70.8267 267.087 69.9534V67.1801H268.507V70.0001C268.507 70.633 268.255 71.2401 267.808 71.6877C267.36 72.1353 266.753 72.3867 266.12 72.3867C265.487 72.3867 264.88 72.1353 264.432 71.6877C263.985 71.2401 263.733 70.633 263.733 70.0001Z" fill="#263238"/>
<path d="M273.553 71.1201V72.2267H269.473V67.1467H273.473V68.2601H270.907V69.1134H273.167V70.1867H270.907V71.1201H273.553Z" fill="#263238"/>
<path d="M277.467 76.2201C277.467 76.3134 265.233 76.3934 250.133 76.3934C235.033 76.3934 222.8 76.3134 222.8 76.2201C222.8 76.1268 235.033 76.0468 250.133 76.0468C265.233 76.0468 277.467 76.1201 277.467 76.2201Z" fill="#E0E0E0"/>
<path d="M259.113 78.4333C259.113 78.5267 255.113 78.6067 250.14 78.6067C245.167 78.6067 241.167 78.5267 241.167 78.4333C241.167 78.34 245.167 78.26 250.14 78.26C255.113 78.26 259.113 78.3333 259.113 78.4333Z" fill="#E0E0E0"/>
<path d="M90.5867 290L91.3867 315.067L122.627 314.54C122.393 311.56 104.833 305.967 104.833 305.967L104.707 289.113L90.5867 290Z" fill="url(#paint26_linear)"/>
<g opacity="0.3">
<path opacity="0.3" d="M90.5867 290L91.3867 315.067L122.627 314.54C122.393 311.56 104.833 305.967 104.833 305.967L104.707 289.113L90.5867 290Z" fill="black"/>
</g>
<path d="M96.44 304.667C96.1415 304.762 95.8891 304.965 95.7315 305.236C95.5738 305.507 95.5223 305.827 95.5867 306.133C95.6727 306.436 95.8711 306.694 96.1413 306.855C96.4114 307.016 96.7329 307.068 97.04 307C97.3581 306.898 97.6263 306.681 97.7917 306.391C97.9571 306.1 98.0077 305.759 97.9333 305.433C97.8124 305.127 97.5771 304.88 97.2772 304.745C96.9773 304.609 96.6364 304.595 96.3267 304.707" fill="#263238"/>
<path d="M91.3867 315.047L91.3067 312.513L121.367 312.953C121.367 312.953 122.767 313.54 122.627 314.52L91.3867 315.047Z" fill="#263238"/>
<path d="M105.333 306.22C105.333 306.373 104.567 306.46 103.827 306.96C103.087 307.46 102.7 308.113 102.553 308.053C102.407 307.993 102.627 307.113 103.533 306.52C104.44 305.927 105.333 306.08 105.333 306.22Z" fill="#263238"/>
<path d="M109.427 307.573C109.46 307.72 108.807 307.993 108.3 308.647C107.793 309.3 107.633 309.98 107.5 309.98C107.367 309.98 107.24 309.113 107.887 308.313C108.533 307.513 109.42 307.427 109.427 307.573Z" fill="#263238"/>
<path d="M111.287 311.333C111.147 311.373 110.92 310.613 111.287 309.767C111.653 308.92 112.367 308.58 112.433 308.707C112.5 308.833 112.067 309.287 111.767 309.987C111.467 310.687 111.433 311.333 111.287 311.333Z" fill="#263238"/>
<path d="M104.993 302.04C104.927 302.18 104.227 301.987 103.367 302.04C102.507 302.093 101.833 302.4 101.753 302.273C101.673 302.147 102.307 301.607 103.327 301.513C104.347 301.42 105.06 301.92 104.993 302.04Z" fill="#263238"/>
<path d="M105.48 298.28C104.968 298.423 104.426 298.423 103.913 298.28C103.347 298.191 102.794 298.032 102.267 297.807C101.955 297.672 101.653 297.518 101.36 297.347C101.185 297.248 101.024 297.127 100.88 296.987C100.778 296.879 100.715 296.741 100.701 296.594C100.686 296.447 100.721 296.299 100.8 296.173C100.874 296.065 100.974 295.975 101.09 295.913C101.206 295.85 101.335 295.816 101.467 295.813C101.665 295.807 101.863 295.832 102.053 295.887C102.389 295.959 102.718 296.064 103.033 296.2C103.566 296.43 104.059 296.743 104.493 297.127C105.233 297.793 105.487 298.347 105.433 298.38C105.38 298.413 105.007 297.96 104.26 297.42C103.574 296.912 102.784 296.561 101.947 296.393C101.613 296.313 101.333 296.313 101.28 296.46C101.227 296.607 101.247 296.54 101.28 296.64C101.385 296.742 101.504 296.83 101.633 296.9C101.903 297.067 102.181 297.221 102.467 297.36C102.958 297.59 103.469 297.775 103.993 297.913C104.497 298.002 104.993 298.124 105.48 298.28Z" fill="#263238"/>
<path d="M121.627 80.6667C121.505 77.7462 120.287 74.9787 118.217 72.9155C116.146 70.8523 113.374 69.6448 110.453 69.5333H109.847C103.347 69.6667 99.8467 75.2667 100.133 81.76L99.68 109.567C105.12 113.12 110.347 115.767 114.64 114.087L115.307 102.52C115.307 102.52 121.587 101.787 121.9 95.5533C122.06 92.4867 121.867 86.26 121.627 80.6667Z" fill="#FFBE9D"/>
<path d="M115.333 102.46C112.453 102.402 109.655 101.491 107.293 99.84C107.293 99.84 108.987 104.447 115.233 104.127L115.333 102.46Z" fill="#EB996E"/>
<path d="M119.793 85.28C119.786 85.5123 119.689 85.7327 119.522 85.8945C119.356 86.0564 119.132 86.1468 118.9 86.1467C118.787 86.153 118.675 86.1369 118.568 86.0993C118.462 86.0617 118.364 86.0034 118.28 85.9278C118.197 85.8522 118.129 85.7607 118.081 85.6586C118.033 85.5566 118.005 85.4461 118 85.3334C118.005 85.1005 118.102 84.8791 118.269 84.7169C118.436 84.5548 118.66 84.4649 118.893 84.4667C119.006 84.4595 119.119 84.475 119.226 84.5122C119.333 84.5494 119.431 84.6077 119.515 84.6835C119.599 84.7593 119.667 84.8511 119.714 84.9536C119.762 85.056 119.789 85.167 119.793 85.28Z" fill="#263238"/>
<path d="M120.173 83.6267C120.053 83.7401 119.4 83.2134 118.44 83.1801C117.48 83.1467 116.76 83.6001 116.66 83.4801C116.56 83.3601 116.733 83.2201 117.047 83.0067C117.473 82.7336 117.974 82.6007 118.48 82.6267C118.977 82.6457 119.455 82.8207 119.847 83.1267C120.133 83.3667 120.227 83.5801 120.173 83.6267Z" fill="#263238"/>
<path d="M110.847 85.2733C110.838 85.505 110.74 85.7245 110.574 85.886C110.408 86.0474 110.185 86.1384 109.953 86.14C109.842 86.1454 109.731 86.1288 109.626 86.0911C109.521 86.0535 109.425 85.9955 109.343 85.9206C109.26 85.8457 109.194 85.7552 109.146 85.6544C109.099 85.5537 109.072 85.4445 109.067 85.3333C109.074 85.1022 109.17 84.8827 109.335 84.7211C109.501 84.5595 109.722 84.4683 109.953 84.4667C110.178 84.4575 110.398 84.5369 110.565 84.6877C110.732 84.8385 110.833 85.0487 110.847 85.2733Z" fill="#263238"/>
<path d="M110.74 83.4467C110.627 83.56 109.973 83.0334 109.013 83C108.053 82.9667 107.333 83.42 107.233 83.3C107.133 83.18 107.307 83.04 107.62 82.8267C108.044 82.5545 108.543 82.4217 109.047 82.4467C109.546 82.4615 110.028 82.6369 110.42 82.9467C110.707 83.18 110.8 83.4 110.74 83.4467Z" fill="#263238"/>
<path d="M113.947 90.6667C114.46 90.5299 114.989 90.456 115.52 90.4467C115.76 90.4467 115.993 90.3933 116.047 90.2267C116.071 89.9739 116.022 89.7194 115.907 89.4933C115.7 88.8933 115.487 88.26 115.24 87.6C114.34 84.9333 113.693 82.7 113.8 82.6666C113.907 82.6333 114.733 84.78 115.633 87.4733L116.26 89.3733C116.4 89.6757 116.431 90.0175 116.347 90.34C116.308 90.4249 116.251 90.5001 116.179 90.5601C116.108 90.6201 116.024 90.6633 115.933 90.6867C115.795 90.7148 115.654 90.7282 115.513 90.7267C114.991 90.7708 114.464 90.7507 113.947 90.6667Z" fill="#263238"/>
<path d="M106.367 81.2467C106.467 80.9867 107.42 81.1134 108.547 80.98C109.673 80.8467 110.587 80.5467 110.733 80.78C110.8 80.8933 110.64 81.1334 110.273 81.3867C109.786 81.7022 109.231 81.8965 108.653 81.9534C108.076 82.0177 107.492 81.9469 106.947 81.7467C106.533 81.58 106.327 81.3734 106.367 81.2467Z" fill="#263238"/>
<path d="M120 80.3C119.787 80.5067 118.98 80.2534 118 80.2067C117.02 80.16 116.187 80.28 116 80.0467C115.92 79.9334 116.06 79.72 116.433 79.5267C116.943 79.2891 117.506 79.188 118.067 79.2334C118.629 79.2542 119.175 79.427 119.647 79.7334C120 80 120.1 80.2 120 80.3Z" fill="#263238"/>
<path d="M100.467 86.34C100.367 86.2867 96.2333 84.9067 96.2067 89.18C96.18 93.4534 100.467 92.5934 100.48 92.4667C100.493 92.34 100.467 86.34 100.467 86.34Z" fill="#FFBE9D"/>
<path d="M99.1867 90.8466C99.1867 90.8466 99.1067 90.8933 98.98 90.9533C98.8025 91.0248 98.6042 91.0248 98.4267 90.9533C98.1528 90.7768 97.9307 90.5307 97.7831 90.2402C97.6356 89.9497 97.5678 89.6252 97.5867 89.3C97.578 88.933 97.6508 88.5687 97.8 88.2333C97.8408 88.0997 97.9139 87.9781 98.0127 87.8793C98.1115 87.7805 98.233 87.7075 98.3667 87.6666C98.4517 87.6432 98.5423 87.6512 98.6219 87.6892C98.7014 87.7271 98.7647 87.7925 98.8 87.8733C98.86 87.9933 98.8333 88.08 98.8533 88.0866C98.8733 88.0933 98.9467 88.0133 98.9133 87.84C98.8888 87.7332 98.8303 87.6373 98.7467 87.5666C98.6277 87.4792 98.4797 87.441 98.3333 87.46C98.157 87.4948 97.9926 87.5744 97.856 87.6911C97.7194 87.8079 97.6152 87.9579 97.5533 88.1266C97.3694 88.497 97.2779 88.9065 97.2867 89.32C97.2644 89.6992 97.3543 90.0765 97.5452 90.405C97.7361 90.7334 98.0195 90.9983 98.36 91.1666C98.4721 91.199 98.59 91.2062 98.7052 91.1878C98.8205 91.1693 98.9302 91.1257 99.0267 91.06C99.1733 90.9466 99.2 90.8533 99.1867 90.8466Z" fill="#EB996E"/>
<path d="M107.4 87.4C107.371 87.4019 107.342 87.3926 107.32 87.3739C107.298 87.3553 107.283 87.3289 107.28 87.3C107.277 87.2859 107.277 87.2715 107.28 87.2574C107.283 87.2434 107.288 87.2301 107.296 87.2182C107.305 87.2064 107.315 87.1964 107.327 87.1886C107.339 87.1809 107.353 87.1757 107.367 87.1733C107.381 87.1704 107.395 87.1706 107.409 87.1739C107.424 87.1772 107.437 87.1835 107.448 87.1923C107.46 87.2012 107.469 87.2124 107.476 87.2253C107.482 87.2381 107.486 87.2522 107.487 87.2666C107.491 87.2811 107.491 87.2963 107.489 87.3111C107.487 87.3259 107.481 87.3401 107.473 87.3527C107.465 87.3653 107.454 87.376 107.442 87.3841C107.429 87.3923 107.415 87.3977 107.4 87.4Z" fill="#EB996E"/>
<path d="M109.247 87.0534C109.193 87.0534 109.133 87.0134 109.127 86.9401C109.12 86.8667 109.127 86.8001 109.207 86.7934C109.222 86.7925 109.238 86.7947 109.253 86.7999C109.268 86.8052 109.282 86.8133 109.294 86.8238C109.305 86.8343 109.315 86.8471 109.322 86.8613C109.329 86.8755 109.332 86.891 109.333 86.9067C109.337 86.9221 109.338 86.938 109.336 86.9537C109.334 86.9694 109.329 86.9845 109.321 86.9981C109.312 87.0118 109.302 87.0237 109.289 87.0331C109.276 87.0426 109.262 87.0495 109.247 87.0534Z" fill="#EB996E"/>
<path d="M110.487 87.0734C110.427 87.0734 110.373 87.0067 110.36 86.9067C110.347 86.8067 110.393 86.7334 110.453 86.7267C110.513 86.7201 110.567 86.7934 110.573 86.8867C110.58 86.9801 110.54 87.0667 110.487 87.0734Z" fill="#EB996E"/>
<path d="M108.26 88.5867C108.2 88.5867 108.153 88.5467 108.153 88.5133C108.153 88.48 108.207 88.4467 108.267 88.4467C108.327 88.4467 108.367 88.48 108.367 88.52C108.367 88.56 108.32 88.5867 108.26 88.5867Z" fill="#EB996E"/>
<path d="M109.953 88.26C109.924 88.2584 109.896 88.246 109.875 88.225C109.854 88.2041 109.842 88.1762 109.84 88.1467C109.838 88.1318 109.839 88.1167 109.843 88.1022C109.847 88.0877 109.854 88.0742 109.864 88.0624C109.873 88.0507 109.884 88.0408 109.898 88.0335C109.911 88.0263 109.925 88.0217 109.94 88.02C109.97 88.02 109.999 88.032 110.02 88.0532C110.041 88.0745 110.053 88.1033 110.053 88.1334C110.055 88.1631 110.046 88.1926 110.028 88.216C110.009 88.2394 109.983 88.2551 109.953 88.26Z" fill="#EB996E"/>
<path d="M118.733 87.5467C118.718 87.5486 118.703 87.5474 118.689 87.5434C118.674 87.5394 118.661 87.5325 118.649 87.5232C118.637 87.5139 118.627 87.5023 118.62 87.4892C118.613 87.4761 118.608 87.4616 118.607 87.4467C118.601 87.4175 118.606 87.3872 118.623 87.3623C118.639 87.3373 118.664 87.3198 118.693 87.3134C118.722 87.3132 118.749 87.3232 118.771 87.3414C118.793 87.3597 118.807 87.3851 118.812 87.4131C118.817 87.4411 118.812 87.4699 118.797 87.4943C118.783 87.5188 118.76 87.5374 118.733 87.5467Z" fill="#EB996E"/>
<path d="M120 87.48C119.984 87.4802 119.968 87.4769 119.953 87.4703C119.939 87.4638 119.925 87.4543 119.915 87.4423C119.904 87.4303 119.896 87.4162 119.891 87.4009C119.886 87.3855 119.885 87.3693 119.887 87.3534C119.882 87.3227 119.89 87.2914 119.907 87.2656C119.924 87.2398 119.95 87.2212 119.98 87.2134C119.996 87.2142 120.011 87.2182 120.025 87.225C120.04 87.2318 120.052 87.2414 120.063 87.2532C120.073 87.265 120.082 87.2787 120.087 87.2936C120.092 87.3085 120.094 87.3243 120.093 87.34C120.087 87.4134 120.047 87.48 120 87.48Z" fill="#EB996E"/>
<path d="M117.627 87.54C117.601 87.5439 117.575 87.5378 117.554 87.5229C117.533 87.508 117.518 87.4854 117.513 87.46C117.511 87.4473 117.512 87.4342 117.516 87.4218C117.519 87.4093 117.525 87.3977 117.533 87.3877C117.541 87.3776 117.552 87.3694 117.563 87.3635C117.575 87.3576 117.587 87.3542 117.6 87.3534C117.626 87.3473 117.653 87.3517 117.675 87.3654C117.698 87.3791 117.714 87.4011 117.72 87.4267C117.722 87.454 117.713 87.4809 117.696 87.502C117.679 87.5231 117.654 87.5367 117.627 87.54Z" fill="#EB996E"/>
<path d="M118.507 88.82C118.478 88.8284 118.448 88.8254 118.422 88.8117C118.396 88.798 118.376 88.7747 118.367 88.7467C118.359 88.7333 118.354 88.7185 118.353 88.7031C118.351 88.6878 118.353 88.6723 118.358 88.6577C118.363 88.6431 118.371 88.6298 118.382 88.6187C118.393 88.6076 118.406 88.5989 118.42 88.5933C118.448 88.5849 118.479 88.5879 118.505 88.6016C118.531 88.6153 118.551 88.6386 118.56 88.6667C118.567 88.6802 118.571 88.6949 118.572 88.71C118.573 88.7251 118.571 88.7403 118.566 88.7546C118.561 88.7689 118.553 88.782 118.543 88.7933C118.533 88.8045 118.52 88.8136 118.507 88.82Z" fill="#EB996E"/>
<path d="M119.58 88.6667C119.569 88.6632 119.559 88.6576 119.55 88.6501C119.541 88.6427 119.534 88.6336 119.529 88.6234C119.524 88.6132 119.52 88.6021 119.519 88.5906C119.519 88.5792 119.52 88.5676 119.523 88.5567C119.527 88.5457 119.532 88.5356 119.54 88.5268C119.547 88.5181 119.556 88.5108 119.567 88.5056C119.577 88.5003 119.588 88.4971 119.599 88.4962C119.611 88.4952 119.622 88.4965 119.633 88.5C119.646 88.5014 119.659 88.5056 119.67 88.5123C119.681 88.5191 119.69 88.5283 119.697 88.5391C119.704 88.55 119.709 88.5623 119.71 88.5752C119.712 88.588 119.711 88.6011 119.707 88.6134C119.702 88.6255 119.695 88.6366 119.687 88.646C119.678 88.6554 119.667 88.6628 119.655 88.6678C119.643 88.6728 119.63 88.6753 119.617 88.6751C119.604 88.6749 119.592 88.6721 119.58 88.6667Z" fill="#EB996E"/>
<path d="M115.367 94.0001C115.32 94.0867 114.547 93.6934 113.513 93.5134C112.48 93.3334 111.62 93.4201 111.607 93.3201C112.239 93.1033 112.915 93.0508 113.573 93.1674C114.231 93.2841 114.848 93.566 115.367 93.9867V94.0001Z" fill="#263238"/>
<path d="M125.533 72.22C125.272 72.1419 125.024 72.0226 124.8 71.8667C124.66 71.6937 124.558 71.4936 124.499 71.279C124.441 71.0644 124.427 70.84 124.46 70.62C124.488 70.3996 124.461 70.1755 124.381 69.9683C124.3 69.761 124.17 69.5771 124 69.4334C123.473 69.14 122.787 69.64 122.227 69.4334C121.667 69.2267 121.607 68.44 121.313 67.9067C121.109 67.5716 120.793 67.3203 120.42 67.1981C120.047 67.0758 119.643 67.0907 119.28 67.24C118.787 67.46 118.253 67.94 117.787 67.66C117.32 67.38 117.44 66.8067 117.26 66.3667C117.194 66.2226 117.098 66.0937 116.98 65.988C116.862 65.8822 116.723 65.8019 116.572 65.7519C116.422 65.7019 116.262 65.6833 116.104 65.6973C115.946 65.7114 115.793 65.7576 115.653 65.8334C115.24 66.08 114.853 66.62 114.413 66.42C113.973 66.22 114.06 65.6133 113.713 65.3533C113.562 65.2667 113.386 65.234 113.214 65.2606C113.042 65.2873 112.884 65.3717 112.767 65.5C112.532 65.7583 112.324 66.0398 112.147 66.34C112.056 66.4882 111.93 66.6118 111.78 66.7002C111.63 66.7885 111.46 66.8388 111.287 66.8467C110.907 66.8467 110.62 66.4733 110.347 66.2267C109.353 65.3867 107.793 65.56 106.72 66.3067C106.05 66.8011 105.486 67.4244 105.06 68.14C103.91 67.8852 102.716 67.9149 101.58 68.2267C99.0333 68.9733 97.0067 71.4733 97.16 74.12C97.24 75.36 97.7467 76.5267 97.9533 77.7533C98.0946 79.2224 98.1191 80.7004 98.0267 82.1733C98.0267 83.6467 98.12 85 99.0867 86.1133L100.36 86.44C100.448 86.5926 100.548 86.7376 100.66 86.8733C100.841 87.1353 101.11 87.3237 101.419 87.4044C101.727 87.4851 102.054 87.4528 102.34 87.3133C102.622 87.0604 102.81 86.7198 102.873 86.3467C103.653 83.68 104.433 80.8 104.073 78.08C103.961 77.3504 104.072 76.6037 104.392 75.9385C104.712 75.2732 105.226 74.7206 105.867 74.3533C106.269 74.1153 106.699 73.9272 107.147 73.7934C107.587 73.71 108.039 73.71 108.48 73.7934C109.421 73.9751 110.254 74.5183 110.8 75.3067C111.18 75.8533 111.467 76.5667 112.133 76.7333C112.8 76.9 113.5 76.36 114.213 76.36C114.927 76.36 115.547 76.9533 116.093 77.4733C116.64 77.9933 117.36 78.5 118.093 78.28C118.827 78.06 119.107 77.3733 119.74 77.16C120.211 77.0495 120.706 77.1135 121.133 77.34C121.556 77.5668 122.003 77.7436 122.467 77.8667C122.699 77.9277 122.944 77.9192 123.172 77.8422C123.399 77.7651 123.599 77.623 123.747 77.4333C124.033 76.9733 123.853 76.3067 124.193 75.88C124.533 75.4533 125.047 75.4867 125.527 75.3C125.823 75.1731 126.077 74.9628 126.256 74.6947C126.435 74.4266 126.533 74.1122 126.537 73.7897C126.542 73.4671 126.452 73.1503 126.28 72.8776C126.108 72.6049 125.86 72.388 125.567 72.2533L125.533 72.22Z" fill="#263238"/>
<path d="M97.94 80.1666C97.94 80.1133 98.3733 80.1666 99.0467 80.0733C99.9204 79.9824 100.764 79.7028 101.519 79.2539C102.274 78.805 102.923 78.1975 103.42 77.4733C103.607 77.1533 103.812 76.8439 104.033 76.5466C103.99 76.9288 103.85 77.2937 103.627 77.6066C103.157 78.4086 102.492 79.0782 101.694 79.5528C100.895 80.0274 99.9887 80.2914 99.06 80.32C98.6797 80.3637 98.2945 80.311 97.94 80.1666Z" fill="#455A64"/>
<path d="M97.6933 81.7666C98.8251 81.7962 99.9533 81.627 101.027 81.2666C102.053 80.8051 102.993 80.1715 103.807 79.3933C103.84 79.3933 103.653 79.7666 103.213 80.2266C102.628 80.8104 101.926 81.2646 101.153 81.56C100.366 81.886 99.5177 82.0362 98.6667 82C98.3284 82 97.9949 81.92 97.6933 81.7666Z" fill="#455A64"/>
<path d="M93.12 166.747L85.3667 191.18L90.3067 301.82L105.42 299.987L107.4 247.36L115.553 188.493L116.373 167.66L93.12 166.747Z" fill="#263238"/>
<path d="M98.0934 275.293L83.2867 295.547L108.227 314.36C109.88 311.867 99.4867 296.647 99.4867 296.647L109.76 283.313L98.0934 275.293Z" fill="url(#paint27_linear)"/>
<path d="M93.6867 290.447C93.3916 290.339 93.067 290.344 92.7753 290.461C92.4836 290.577 92.2455 290.798 92.1067 291.08C91.9875 291.37 91.984 291.695 92.0968 291.987C92.2096 292.28 92.4302 292.518 92.7133 292.653C93.0251 292.772 93.3698 292.769 93.6796 292.645C93.9893 292.522 94.2416 292.287 94.3867 291.987C94.4778 291.67 94.4434 291.331 94.2907 291.039C94.1379 290.747 93.8786 290.526 93.5667 290.42" fill="#263238"/>
<path d="M83.2867 295.547L84.7867 293.5L108.2 312.353C108.2 312.353 108.94 313.687 108.2 314.353L83.2867 295.547Z" fill="#263238"/>
<path d="M99.6867 297.16C99.5933 297.28 98.94 296.873 98.0467 296.813C97.1534 296.753 96.4467 297.027 96.3733 296.893C96.3 296.76 97.0067 296.227 98.0933 296.28C99.18 296.333 99.8 297.067 99.6867 297.16Z" fill="#263238"/>
<path d="M102.1 300.76C102.04 300.893 101.36 300.707 100.553 300.907C99.7467 301.107 99.22 301.573 99.1067 301.473C98.9933 301.373 99.4333 300.627 100.44 300.393C101.447 300.16 102.187 300.667 102.1 300.76Z" fill="#263238"/>
<path d="M101.267 304.853C101.133 304.793 101.42 304.06 102.24 303.627C103.06 303.193 103.827 303.36 103.8 303.5C103.773 303.64 103.133 303.733 102.467 304.093C101.8 304.453 101.393 304.933 101.267 304.853Z" fill="#263238"/>
<path d="M102 293.667C101.867 293.74 101.433 293.153 100.713 292.68C99.9933 292.207 99.3333 292 99.3333 291.867C99.3333 291.733 100.193 291.667 101.04 292.24C101.887 292.813 102.147 293.62 102 293.667Z" fill="#263238"/>
<path d="M104.713 291.007C104.713 291.06 104.14 290.773 103.473 290.06C103.081 289.639 102.743 289.171 102.467 288.667C102.3 288.369 102.155 288.059 102.033 287.74C101.957 287.557 101.905 287.364 101.88 287.167C101.871 287.024 101.908 286.882 101.986 286.762C102.064 286.642 102.179 286.55 102.313 286.5C102.439 286.462 102.572 286.453 102.702 286.475C102.831 286.497 102.954 286.549 103.06 286.627C103.217 286.744 103.357 286.883 103.473 287.04C103.691 287.307 103.885 287.593 104.053 287.893C104.331 288.402 104.526 288.951 104.633 289.52C104.79 290.031 104.79 290.576 104.633 291.087C104.547 291.087 104.553 290.493 104.293 289.607C104.138 289.09 103.914 288.597 103.627 288.14C103.464 287.871 103.281 287.615 103.08 287.373C102.867 287.107 102.64 286.933 102.487 287C102.333 287.067 102.413 287.047 102.407 287.167C102.428 287.311 102.468 287.453 102.527 287.587C102.631 287.886 102.756 288.178 102.9 288.46C103.142 288.946 103.43 289.409 103.76 289.84C104.32 290.553 104.767 290.947 104.713 291.007Z" fill="#263238"/>
<path d="M116.373 167.66L125.147 168.007C125.147 168.007 144.667 237.813 142.7 243.933C140.733 250.053 104.607 290.667 104.607 290.667L93.7933 279.333C93.7933 279.333 105.367 259.647 110.56 254.053C114.28 250.053 123.893 242.367 123.893 242.367L111.54 217.46L116.373 167.66Z" fill="#263238"/>
<path d="M117.227 194.8C117.128 195.175 117.004 195.543 116.853 195.9C116.593 196.567 116.22 197.613 115.78 198.867C114.9 201.387 113.78 204.9 112.833 208.867C111.887 212.833 111.28 216.46 110.927 219.107C110.747 220.44 110.613 221.5 110.533 222.24C110.505 222.626 110.449 223.009 110.367 223.387C110.333 223.001 110.333 222.613 110.367 222.227C110.407 221.48 110.5 220.407 110.647 219.073C111.044 215.611 111.65 212.176 112.46 208.787C113.278 205.396 114.298 202.056 115.513 198.787C115.987 197.533 116.393 196.533 116.693 195.847C116.841 195.483 117.02 195.133 117.227 194.8Z" fill="#455A64"/>
<path d="M104.607 290.667L104.393 290.473L103.807 289.887L101.587 287.613L93.6867 279.407L93.6133 279.333L93.6733 279.233C96.48 274.527 99.8267 268.84 103.74 262.927C106.76 258.227 110.268 253.861 114.207 249.9C115.844 248.307 117.571 246.809 119.38 245.413C120.213 244.8 120.993 244.213 121.74 243.687L123.847 242.26H123.887L128.087 243.2L129.2 243.46C129.33 243.481 129.458 243.516 129.58 243.567C129.45 243.556 129.321 243.536 129.193 243.507L128.067 243.3L123.847 242.453H123.92L121.84 243.907C121.1 244.433 120.327 245.033 119.5 245.647C117.715 247.054 116.008 248.559 114.387 250.153C110.484 254.116 107.003 258.473 104 263.153C100.087 269.053 96.7267 274.727 93.8867 279.42V279.24L101.693 287.533L103.853 289.853L104.413 290.473C104.485 290.53 104.55 290.595 104.607 290.667Z" fill="#455A64"/>
<path d="M127.133 153.567C127.167 153.747 130.307 152.627 130.647 151.393C130.987 150.16 130.893 146.6 130.893 146.6L122.893 141.76L122.933 148.427C124.024 148.838 124.987 149.53 125.724 150.432C126.462 151.335 126.948 152.416 127.133 153.567Z" fill="#FFBE9D"/>
<path d="M118.267 101.413L121.807 103.673C121.807 103.673 122.913 106.413 124.327 107.673C125.74 108.933 128.173 111.48 128.173 111.48L129.247 115.333L136.973 113.367L133.64 102.2L132.667 99.2466C132.667 99.2466 130.973 96.6533 128.787 98.0333C128.787 98.0333 129.06 97.0666 128.12 97.0066C127.347 97.0065 126.576 97.087 125.82 97.2466C125.249 96.8321 124.571 96.5893 123.867 96.5466C123.367 96.5498 122.869 96.6012 122.38 96.7C122.38 96.7 122.12 95.6 121.533 95.74C120.947 95.88 120.2 96.9266 119.993 97.5466C119.86 98.3174 119.84 99.1034 119.933 99.88L118.267 101.413Z" fill="#FFBE9D"/>
<path d="M129.167 98C128.618 98.3109 128.171 98.774 127.88 99.3333C127.578 99.9364 127.434 100.606 127.46 101.28C127.464 101.682 127.5 102.083 127.567 102.48C127.6 102.687 127.633 102.9 127.673 103.113C127.695 103.32 127.74 103.523 127.807 103.72C127.85 103.795 127.91 103.86 127.981 103.91C128.053 103.959 128.134 103.993 128.22 104.007C128.401 104.057 128.592 104.057 128.773 104.007C128.946 103.963 129.103 103.872 129.227 103.745C129.352 103.618 129.439 103.46 129.48 103.287C129.667 102.62 129.433 101.867 129.533 101.247C129.56 100.957 129.674 100.683 129.86 100.46C129.998 100.29 130.184 100.165 130.393 100.1C130.747 100 130.933 100.153 130.92 100.16C130.757 100.153 130.595 100.175 130.44 100.227C130.243 100.322 130.076 100.47 129.958 100.655C129.84 100.84 129.776 101.054 129.773 101.273C129.7 101.827 129.973 102.527 129.773 103.373C129.707 103.605 129.579 103.814 129.403 103.978C129.228 104.143 129.011 104.257 128.776 104.308C128.541 104.359 128.296 104.346 128.068 104.269C127.84 104.193 127.637 104.056 127.48 103.873C127.397 103.648 127.343 103.413 127.32 103.173C127.28 102.953 127.247 102.74 127.213 102.507C127.152 102.094 127.123 101.677 127.127 101.26C127.116 100.537 127.295 99.8247 127.647 99.1933C127.886 98.7687 128.234 98.4147 128.653 98.1667C128.967 98 129.16 98 129.167 98Z" fill="#EB996E"/>
<path d="M131.78 102.153C131.78 102.247 131.353 102.287 130.847 102.313C130.34 102.34 129.913 102.353 129.893 102.26C129.873 102.167 130.287 102 130.827 101.967C131.367 101.933 131.787 102.06 131.78 102.153Z" fill="#EB996E"/>
<path d="M127.527 103.733C127.527 103.733 127.613 103.893 127.633 104.213C127.655 104.448 127.625 104.684 127.547 104.906C127.469 105.128 127.343 105.331 127.18 105.5C127.059 105.621 126.916 105.717 126.758 105.782C126.6 105.847 126.431 105.881 126.26 105.88C126.06 105.869 125.865 105.808 125.694 105.703C125.523 105.599 125.381 105.453 125.28 105.28C125.073 104.927 124.935 104.538 124.873 104.133C124.798 103.733 124.738 103.32 124.693 102.893C124.606 102.088 124.578 101.277 124.607 100.467C124.601 99.7894 124.698 99.1151 124.893 98.4667C125.038 98.0251 125.324 97.6433 125.707 97.38C125.841 97.276 126.004 97.2155 126.173 97.2067C126.173 97.2067 126.02 97.2933 125.787 97.4867C125.466 97.768 125.235 98.1362 125.12 98.5467C124.972 99.1711 124.905 99.8118 124.92 100.453C124.91 101.248 124.948 102.043 125.033 102.833C125.065 103.612 125.239 104.378 125.547 105.093C125.618 105.227 125.721 105.34 125.846 105.424C125.972 105.508 126.116 105.559 126.267 105.573C126.539 105.579 126.803 105.481 127.007 105.3C127.307 105.009 127.481 104.612 127.493 104.193C127.49 104.039 127.501 103.885 127.527 103.733Z" fill="#EB996E"/>
<path d="M124.44 103.127C124.513 103.127 124.307 103.793 123.327 104.12C123.019 104.128 122.719 104.029 122.476 103.841C122.233 103.653 122.062 103.386 121.993 103.087C121.813 102.436 121.732 101.762 121.753 101.087C121.74 99.8677 121.966 98.658 122.42 97.5266C122.577 97.1719 122.856 96.8856 123.207 96.72C123.46 96.6133 123.613 96.6466 123.613 96.6666C123.613 96.6866 123.473 96.7133 123.267 96.84C122.981 97.0291 122.764 97.3048 122.647 97.6266C122.274 98.742 122.085 99.9106 122.087 101.087C122.064 101.724 122.129 102.361 122.28 102.98C122.33 103.212 122.45 103.423 122.624 103.584C122.799 103.745 123.018 103.848 123.253 103.88C123.586 103.803 123.894 103.643 124.147 103.413C124.367 103.247 124.413 103.12 124.44 103.127Z" fill="#EB996E"/>
<path d="M122.433 96.7C122.475 96.9869 122.46 97.2793 122.387 97.56C122.332 98.2849 122.07 98.9789 121.633 99.56C121.489 99.7421 121.291 99.873 121.067 99.9333C120.953 99.962 120.835 99.9661 120.72 99.9454C120.605 99.9247 120.496 99.8797 120.4 99.8133C120.253 99.7178 120.129 99.5903 120.038 99.4402C119.946 99.2901 119.89 99.1214 119.873 98.9467C119.811 98.6511 119.851 98.3432 119.987 98.0733C120.047 98.0733 119.987 98.42 120.113 98.9C120.136 99.0365 120.188 99.1665 120.265 99.2815C120.342 99.3965 120.442 99.4937 120.56 99.5667C120.694 99.6393 120.85 99.6583 120.997 99.6199C121.145 99.5816 121.272 99.4886 121.353 99.36C121.741 98.8243 122.005 98.2096 122.127 97.56C122.28 97.0067 122.387 96.6667 122.433 96.7Z" fill="#EB996E"/>
<path d="M132.033 106.327C131.558 105.899 131.06 105.498 130.54 105.127C129.964 104.846 129.372 104.599 128.767 104.387C129.104 104.325 129.45 104.332 129.785 104.408C130.119 104.484 130.435 104.626 130.713 104.827C131.022 104.976 131.298 105.186 131.525 105.443C131.752 105.701 131.924 106.001 132.033 106.327Z" fill="#EB996E"/>
<path d="M133.373 108.173C132.904 108.954 132.201 109.568 131.363 109.927C130.525 110.286 129.596 110.372 128.707 110.173C129.562 110.073 130.403 109.876 131.213 109.587C131.985 109.2 132.71 108.726 133.373 108.173Z" fill="#EB996E"/>
<path d="M121.847 95.1333C121.813 96.417 121.451 97.6706 120.793 98.7738C120.136 99.877 119.206 100.793 118.093 101.433C119 100.585 119.806 99.6341 120.493 98.6C121.075 97.4995 121.529 96.3365 121.847 95.1333Z" fill="#EB996E"/>
<path d="M122.513 115.893C122.513 115.893 124.8 116.947 125.927 120.247C126.693 122.5 131.027 130.38 131.027 130.38L129.247 115.333L136.893 112.667C136.893 112.667 143.353 126.727 144.893 135.333C146.433 143.767 142.227 149.333 137.74 149.173C133.253 149.013 122.407 141.46 122.407 141.46L122.513 115.893Z" fill="url(#paint28_linear)"/>
<path d="M129.247 115.333C129.329 115.623 129.387 115.92 129.42 116.22C129.507 116.887 129.627 117.68 129.767 118.66C130.04 120.72 130.4 123.573 130.773 126.72C130.913 127.947 131.053 129.127 131.18 130.213C131.373 131.347 131.553 132.407 131.72 133.367C131.864 134.19 132.072 135.002 132.34 135.793C132.813 137.127 133.2 137.86 133.153 137.88C133.032 137.722 132.927 137.553 132.84 137.373C132.593 136.88 132.37 136.375 132.173 135.86C131.868 135.069 131.631 134.252 131.467 133.42C131.287 132.46 131.093 131.42 130.88 130.273C130.747 129.187 130.6 128.007 130.453 126.78C130.08 123.633 129.787 120.78 129.547 118.707C129.453 117.727 129.373 116.907 129.313 116.26C129.254 115.955 129.232 115.644 129.247 115.333Z" fill="#263238"/>
<g opacity="0.3">
<path opacity="0.3" d="M145.213 139.9C145.213 138.373 139.88 140.267 137.82 141.66C135.714 143.189 134.105 145.303 133.193 147.74C133.193 147.74 136.84 149.84 139.64 148.887C143.613 147.54 145.167 142.52 145.213 139.9Z" fill="black"/>
</g>
<path d="M97.46 105.933C97.46 105.933 83.0067 112.92 81.46 117.2C79.9133 121.48 82.4867 132.48 82.4867 132.48L88.1933 162.167L89.38 173.26L86.2933 177.74L87.6267 182.34C103.207 184.413 117.773 184.847 130.193 181.773L129.333 171.547L123.6 147.847L122.853 127.933L122.507 115.893L114.74 109.527C114.74 109.527 113.473 112.993 110.267 112.267C107.06 111.54 99.54 103.92 99.54 103.92L97.46 105.933Z" fill="url(#paint29_linear)"/>
<path d="M83.0133 135.247C83.4533 135.7 92.5733 159.913 99.0133 162.9C105.453 165.887 109.247 164.847 112.047 164.08C114.847 163.313 127.093 154.667 127.093 154.667C127.093 154.667 126.233 148.853 122.673 148.667C120.422 148.572 118.168 148.751 115.96 149.2L111.64 146.34C111.64 146.34 109.133 141.44 107.687 141.233L99.2933 122.567C99.2933 122.567 91.4867 107.333 83.7267 114.367C76.1733 121.2 83.0133 135.247 83.0133 135.247Z" fill="url(#paint30_linear)"/>
<path d="M116.127 111.333C116.007 111.601 115.85 111.85 115.66 112.073C115.195 112.708 114.635 113.268 114 113.733C113.542 114.056 113.036 114.304 112.5 114.467C111.88 114.638 111.235 114.703 110.593 114.66C109.146 114.528 107.732 114.156 106.407 113.56C105.056 113.008 103.796 112.257 102.667 111.333C101.766 110.575 100.928 109.745 100.16 108.853C99.4933 108.1 99.0067 107.46 98.6733 107.013C98.4815 106.793 98.3159 106.552 98.18 106.293C98.3994 106.495 98.5982 106.719 98.7733 106.96C99.1467 107.38 99.6667 107.993 100.347 108.72C101.129 109.578 101.972 110.38 102.867 111.12C103.975 112.004 105.202 112.727 106.513 113.267C107.802 113.846 109.175 114.217 110.58 114.367C111.722 114.475 112.868 114.191 113.827 113.56C114.468 113.118 115.045 112.589 115.54 111.987C115.72 111.756 115.916 111.538 116.127 111.333Z" fill="#263238"/>
<path d="M121.74 122.607C121.833 122.607 122.193 128.373 122.54 135.493C122.887 142.613 123.093 148.387 122.993 148.393C122.893 148.4 122.54 142.627 122.193 135.507C121.847 128.387 121.64 122.613 121.74 122.607Z" fill="#263238"/>
<path d="M85.6667 114.667L85.8267 114.593L86.32 114.393C86.9642 114.152 87.6361 113.993 88.32 113.92C89.4461 113.797 90.5853 113.929 91.6533 114.307C93.0702 114.833 94.3571 115.659 95.4267 116.727C96.7472 118.035 97.8701 119.528 98.76 121.16C99.26 122.04 99.66 123.02 100.093 124C100.527 124.98 101 126 101.473 127.06L107.827 141.133L107.707 141.047C108.238 141.228 108.703 141.565 109.04 142.013C109.4 142.437 109.734 142.883 110.04 143.347C110.665 144.284 111.24 145.254 111.76 146.253L111.727 146.213L113.42 147.907L113.313 147.86L121.54 148.413L122.6 148.48C122.977 148.509 123.347 148.592 123.7 148.727C124.394 149.018 124.996 149.493 125.44 150.1C126.299 151.325 126.884 152.721 127.153 154.193C127.153 154.34 127.213 154.487 127.233 154.627V154.733L127.147 154.793C123.547 157.313 120 159.733 116.48 161.913C115.593 162.447 114.713 162.987 113.813 163.46C113.593 163.587 113.367 163.693 113.147 163.807C112.917 163.922 112.681 164.025 112.44 164.113C111.962 164.283 111.475 164.423 110.98 164.533C109.074 165.038 107.09 165.176 105.133 164.94C103.28 164.686 101.471 164.175 99.76 163.42C99.3388 163.254 98.929 163.06 98.5334 162.84C98.3343 162.734 98.1447 162.612 97.9667 162.473C97.7847 162.344 97.6111 162.204 97.4467 162.053C96.7952 161.48 96.1951 160.851 95.6533 160.173C93.7456 157.665 92.072 154.987 90.6533 152.173C87.9867 147.073 86.1734 142.787 84.9134 139.833C84.3067 138.36 83.8267 137.213 83.5 136.42C83.1733 135.627 82.9933 135.233 82.9933 135.233C83.2193 135.601 83.4091 135.989 83.56 136.393L85.04 139.78C86.3333 142.713 88.1867 146.987 90.8667 152.06C92.3044 154.85 93.9865 157.507 95.8933 160C96.9094 161.399 98.2943 162.489 99.8933 163.147C101.58 163.886 103.362 164.386 105.187 164.633C107.105 164.86 109.048 164.72 110.913 164.22C111.397 164.114 111.874 163.976 112.34 163.807C112.568 163.72 112.791 163.62 113.007 163.507C113.235 163.405 113.457 163.292 113.673 163.167C114.567 162.7 115.44 162.167 116.34 161.627C119.853 159.453 123.4 157.033 127.007 154.52L126.933 154.687L126.853 154.267C126.595 152.848 126.034 151.501 125.207 150.32C124.799 149.763 124.248 149.325 123.613 149.053C122.947 148.855 122.255 148.756 121.56 148.76L113.333 148.18H113.273L113.227 148.133L111.54 146.44C111.025 145.454 110.46 144.495 109.847 143.567C109.548 143.121 109.223 142.694 108.873 142.287C108.577 141.894 108.174 141.593 107.713 141.42H107.62V141.353L101.313 127.253L99.9467 124.187C99.4933 123.193 99.1067 122.233 98.6133 121.36C97.7464 119.741 96.6482 118.256 95.3533 116.953C94.3116 115.892 93.0544 115.067 91.6667 114.533C90.6284 114.157 89.5204 114.011 88.42 114.107C87.7391 114.167 87.0678 114.308 86.42 114.527L85.92 114.707L85.6667 114.667Z" fill="#263238"/>
<path d="M116.873 148.273C116.873 148.48 115.053 148.407 112.84 148.227L110 148C109.604 147.996 109.21 147.944 108.827 147.847C108.827 147.733 110.647 147.713 112.867 147.9C113.98 147.987 114.987 148.093 115.713 148.173L116.873 148.273Z" fill="#263238"/>
<path d="M101.267 141.6C102.316 141.355 103.389 141.224 104.467 141.207C105.538 141.078 106.619 141.063 107.693 141.16C106.642 141.405 105.567 141.537 104.487 141.553C103.418 141.682 102.339 141.698 101.267 141.6Z" fill="#263238"/>
<g opacity="0.3">
<path opacity="0.3" d="M115.907 162.073C114.907 160.329 113.549 158.817 111.922 157.637C110.294 156.457 108.435 155.635 106.467 155.227C102.467 154.453 97.7133 155.8 94.4667 158.28C95.5271 160.004 96.9568 161.471 98.6526 162.575C100.348 163.679 102.268 164.394 104.273 164.667C108.34 165.318 112.502 164.39 115.907 162.073Z" fill="black"/>
</g>
<g opacity="0.3">
<path opacity="0.3" d="M99.0133 107.187C100.12 109.933 101.68 112.58 104.013 114.413C106.347 116.247 109.533 117.153 112.347 116.24C113.8 115.773 115.2 114.653 115.34 113.14C112.484 114.24 109.334 114.309 106.433 113.335C103.532 112.362 101.061 110.406 99.4467 107.807" fill="black"/>
</g>
<g opacity="0.3">
<path opacity="0.3" d="M122.887 141.76C123.763 136.208 123.743 130.552 122.827 125.007C122.76 124.62 122.527 124.12 122.16 124.213C121.793 124.307 121.793 124.68 121.78 124.987C121.698 130.651 121.969 136.316 122.593 141.947" fill="black"/>
</g>
<path d="M121.807 178.127C121.704 178.18 121.594 178.218 121.48 178.24L120.547 178.5C120.14 178.607 119.64 178.733 119.053 178.853C118.467 178.973 117.8 179.14 117.053 179.26C115.573 179.533 113.787 179.773 111.8 179.927C109.64 180.095 107.472 180.146 105.307 180.08C103.142 179.995 100.983 179.794 98.84 179.48C96.84 179.173 95.1 178.813 93.64 178.433C92.9067 178.267 92.2533 178.06 91.64 177.893C91.0267 177.727 90.5733 177.573 90.1733 177.433L89.26 177.113C89.1523 177.077 89.0475 177.032 88.9467 176.98C89.0604 176.986 89.1726 177.009 89.28 177.047L90.2133 177.307C90.62 177.427 91.1133 177.567 91.6933 177.707C92.2733 177.847 92.9267 178.04 93.6933 178.193C95.1533 178.54 96.9133 178.86 98.88 179.167C100.847 179.473 103.02 179.647 105.313 179.733C107.607 179.82 109.787 179.733 111.767 179.607C113.747 179.48 115.527 179.247 117.007 179C117.753 178.9 118.42 178.76 119.007 178.653C119.593 178.547 120.1 178.447 120.507 178.353L121.46 178.16C121.573 178.133 121.69 178.122 121.807 178.127Z" fill="#263238"/>
<g opacity="0.3">
<path opacity="0.3" d="M92 177.527C92.3205 177.101 92.7354 176.755 93.212 176.517C93.6885 176.279 94.2139 176.154 94.7467 176.153C95.8103 176.155 96.8688 176.301 97.8933 176.587C105.086 178.171 112.547 178.069 119.693 176.287C119.718 176.728 119.616 177.168 119.4 177.554C119.184 177.94 118.862 178.256 118.473 178.467C117.676 178.851 116.815 179.089 115.933 179.167C107.933 180.667 99.6533 179.693 91.9333 177.833" fill="black"/>
</g>
<path d="M462.42 177.113H372.587V241.7H462.42V177.113Z" fill="url(#paint31_linear)"/>
<path d="M396.667 177.113C396.793 177.113 396.667 190.753 396.667 190.753H390V177.113H396.667Z" fill="#263238"/>
<g opacity="0.4">
<path opacity="0.4" d="M417.5 241.7H462.42V177.113H417.5V241.7Z" fill="black"/>
</g>
<path d="M387.347 229.053H375.32V237.567H387.347V229.053Z" fill="#FAFAFA"/>
<path d="M387.367 237.58H375.333V229.04H387.393L387.367 237.58ZM375.367 237.547H387.367V229.073H375.333L375.367 237.547Z" fill="#263238"/>
<path d="M395.58 229.053H389.567V237.567H395.58V229.053Z" fill="#FAFAFA"/>
<path d="M395.6 237.58H389.553V229.04H395.6V237.58ZM389.6 237.547H395.6V229.073H389.6V237.547Z" fill="#263238"/>
<path d="M458.413 241.753H356.22V315.22H458.413V241.753Z" fill="url(#paint32_linear)"/>
<path d="M383.633 241.753C383.773 241.753 383.633 257.26 383.633 257.26H376.067V241.753H383.633Z" fill="#263238"/>
<g opacity="0.4">
<path opacity="0.4" d="M407.32 315.213H458.413V241.747H407.32V315.213Z" fill="black"/>
</g>
<path d="M373.013 300.833H359.333V310.513H373.013V300.833Z" fill="#FAFAFA"/>
<path d="M373.033 310.533H359.333V300.82H373.047L373.033 310.533ZM359.333 310.5H373V300.853H359.333V310.5Z" fill="#263238"/>
<path d="M382.38 300.833H375.54V310.513H382.38V300.833Z" fill="#FAFAFA"/>
<path d="M382.4 310.533H375.527V300.82H382.4V310.533ZM375.56 310.5H382.367V300.853H375.56V310.5Z" fill="#263238"/>
<path d="M462.42 241.7C462.42 241.793 442.307 241.873 417.5 241.873C392.693 241.873 372.587 241.793 372.587 241.7C372.587 241.607 392.693 241.527 417.5 241.527C442.307 241.527 462.42 241.607 462.42 241.7Z" fill="#263238"/>
<path d="M64.26 49.7C64.3969 49.766 64.5126 49.8691 64.5939 49.9976C64.6752 50.126 64.7189 50.2747 64.72 50.4267V54.4267C64.7195 54.552 64.6901 54.6755 64.634 54.7876C64.578 54.8997 64.4967 54.9973 64.3967 55.0728C64.2967 55.1483 64.1805 55.1997 64.0574 55.2229C63.9342 55.2461 63.8073 55.2406 63.6867 55.2067C63.3507 55.1154 62.9995 55.095 62.6552 55.1466C62.3109 55.1983 61.9811 55.3209 61.6867 55.5067C61.4249 55.6694 61.1994 55.8842 61.0239 56.1376C60.8485 56.391 60.7269 56.6777 60.6667 56.98C60.6139 57.2861 60.6233 57.5997 60.6943 57.902C60.7653 58.2044 60.8965 58.4894 61.08 58.74C61.2703 59.0239 61.515 59.2673 61.7999 59.4561C62.0848 59.645 62.4044 59.7754 62.74 59.84C63.4233 59.9074 64.1092 59.741 64.6856 59.368C65.262 58.995 65.6948 58.4375 65.9133 57.7867C65.9788 57.5825 66.1226 57.4126 66.3133 57.3144C66.504 57.2163 66.7258 57.1979 66.93 57.2633C67.1342 57.3288 67.3041 57.4726 67.4022 57.6633C67.5004 57.8539 67.5188 58.0758 67.4533 58.28C67.1144 59.2971 66.4356 60.1664 65.5311 60.7419C64.6266 61.3174 63.5516 61.5639 62.4867 61.44C61.9337 61.3429 61.406 61.1351 60.9352 60.8293C60.4644 60.5234 60.0602 60.1257 59.7467 59.66C59.4286 59.2335 59.2048 58.7443 59.0902 58.2248C58.9756 57.7053 58.9727 57.1673 59.0817 56.6466C59.1908 56.1259 59.4093 55.6343 59.7228 55.2045C60.0363 54.7746 60.4375 54.4163 60.9 54.1533C61.5709 53.7454 62.3415 53.5308 63.1267 53.5333V50.4267C63.1267 50.2127 63.2117 50.0075 63.3629 49.8563C63.5142 49.705 63.7194 49.62 63.9333 49.62C64.0467 49.6228 64.1582 49.6501 64.26 49.7Z" fill="url(#paint33_linear)"/>
<path d="M63.14 47.9999C63.14 47.8681 63.1791 47.7392 63.2524 47.6295C63.3256 47.5199 63.4297 47.4345 63.5516 47.384C63.6734 47.3335 63.8074 47.3203 63.9367 47.3461C64.0661 47.3718 64.1848 47.4353 64.2781 47.5285C64.3713 47.6217 64.4348 47.7405 64.4605 47.8699C64.4863 47.9992 64.4731 48.1332 64.4226 48.255C64.3721 48.3769 64.2867 48.481 64.1771 48.5542C64.0674 48.6275 63.9385 48.6666 63.8067 48.6666C63.6299 48.6666 63.4603 48.5963 63.3353 48.4713C63.2103 48.3463 63.14 48.1767 63.14 47.9999Z" fill="url(#paint34_linear)"/>
<path d="M82.8867 69.5867C82.8867 69.5867 82.6867 69.5867 82.36 69.7533C81.8955 69.9512 81.5024 70.2861 81.2333 70.7134C81.0471 71.0032 80.9287 71.3314 80.8867 71.6734C80.8427 72.0647 80.9121 72.4604 81.0867 72.8134C81.2852 73.2188 81.5949 73.5595 81.9797 73.7956C82.3646 74.0317 82.8086 74.1535 83.26 74.1467C83.7089 74.1029 84.1358 73.9315 84.4902 73.6527C84.8447 73.3738 85.1118 72.9993 85.26 72.5734C85.3952 72.2038 85.4184 71.8026 85.3267 71.42C85.2427 71.0866 85.0881 70.7751 84.8733 70.5067C84.5554 70.1126 84.1254 69.8243 83.64 69.68C83.3 69.5867 83.0933 69.6 83.0933 69.58C83.1418 69.5705 83.1916 69.5705 83.24 69.58C83.2999 69.5743 83.3602 69.5743 83.42 69.58C83.4998 69.572 83.5802 69.572 83.66 69.58C84.1805 69.7005 84.6481 69.9857 84.9933 70.3933C85.2323 70.6702 85.4035 70.9988 85.4934 71.3533C85.595 71.7632 85.5764 72.1937 85.44 72.5933C85.2907 73.0345 85.0204 73.4249 84.66 73.72C84.286 74.044 83.8195 74.2423 83.3267 74.2867C82.8253 74.3043 82.3311 74.1644 81.9134 73.8867C81.5217 73.6324 81.2079 73.2748 81.0067 72.8533C80.8187 72.4761 80.749 72.0509 80.8067 71.6333C80.8537 71.2698 80.9862 70.9225 81.1933 70.62C81.4791 70.1788 81.9001 69.842 82.3933 69.66C82.4691 69.6312 82.5471 69.6089 82.6267 69.5934C82.6842 69.5851 82.7425 69.5851 82.8 69.5934C82.84 69.58 82.8867 69.58 82.8867 69.5867Z" fill="#263238"/>
<path d="M88.7733 75.4399C88.7733 75.4399 88.6533 75.4399 88.4467 75.5533C88.1698 75.6858 87.938 75.8968 87.78 76.1599C87.6506 76.3555 87.5751 76.5818 87.561 76.8159C87.547 77.05 87.5949 77.2836 87.7 77.4933C87.8137 77.7485 88.0025 77.963 88.2413 78.1081C88.4801 78.2533 88.7575 78.3221 89.0364 78.3054C89.3154 78.2888 89.5826 78.1874 89.8024 78.0149C90.0222 77.8424 90.1842 77.6069 90.2667 77.3399C90.3472 77.1133 90.365 76.8691 90.318 76.6332C90.2711 76.3973 90.1612 76.1785 90 75.9999C89.8068 75.7549 89.5443 75.5737 89.2467 75.4799C89.0267 75.4199 88.9 75.4199 88.9 75.4066C89.0177 75.3736 89.1423 75.3736 89.26 75.4066C89.5886 75.4812 89.8837 75.6615 90.1 75.9199C90.2519 76.0949 90.3614 76.3025 90.42 76.5266C90.5019 76.787 90.5019 77.0662 90.42 77.3266C90.3227 77.6211 90.1415 77.8808 89.8988 78.0738C89.656 78.2668 89.3622 78.3848 89.0533 78.4133C88.7422 78.4203 88.4357 78.3372 88.1707 78.1739C87.9058 78.0107 87.6937 77.7743 87.56 77.4933C87.4414 77.2492 87.3973 76.9756 87.4333 76.7066C87.4635 76.4674 87.5503 76.2388 87.6867 76.0399C87.8676 75.7595 88.1377 75.5482 88.4533 75.4399C88.5587 75.4162 88.668 75.4162 88.7733 75.4399Z" fill="#263238"/>
<path d="M81.9133 57.5867C81.9133 57.5867 81.9133 57.4867 81.9133 57.2867C81.9133 57.0867 81.9133 56.78 81.9133 56.3933C81.9133 56.2 81.9133 55.98 81.9133 55.7267C81.9133 55.4733 81.9133 55.22 81.86 54.94C81.8067 54.66 81.8133 54.3467 81.7867 54.02C81.7772 53.8497 81.7549 53.6803 81.72 53.5133C81.6867 53.34 81.6533 53.1667 81.62 52.98C81.339 51.2083 80.7929 49.4891 80 47.88C78.9406 45.7367 77.4758 43.8191 75.6867 42.2333L74.9333 41.5667C74.6667 41.36 74.38 41.1667 74.1 40.96L73.6733 40.66C73.5347 40.5507 73.3875 40.4526 73.2333 40.3667L72.3067 39.8267L71.8333 39.56L71.3333 39.3333L70.32 38.8667C69.9733 38.72 69.6067 38.62 69.2467 38.4867L68.7 38.3L68.4267 38.2133L68.14 38.1467C67.3756 37.9432 66.5982 37.7917 65.8133 37.6933C65.4133 37.6467 65.0133 37.5733 64.6067 37.5467H63.3733C63.1667 37.5467 62.96 37.5467 62.7467 37.5467L62.12 37.5933C61.7067 37.6333 61.28 37.6467 60.86 37.7C60.0049 37.8226 59.1587 38.0008 58.3267 38.2333L57.66 38.4133L57.3333 38.4667L57.0267 38.5867L55.78 39.0733C55.3733 39.2533 54.9733 39.4733 54.5733 39.6733C54.3733 39.78 54.16 39.8667 53.9667 39.9933L53.3867 40.36C52.6089 40.8566 51.865 41.4045 51.16 42L50.1333 42.9467L49.8733 43.1933L49.64 43.46L49.1667 43.9933L48.7 44.5333L48.2733 45.1133L47.8533 45.7L47.6467 45.9933C47.58 46.0933 47.52 46.2 47.46 46.3067L46.7267 47.5667L46.1133 48.9C44.5414 52.6008 44.2207 56.7136 45.2 60.6133L45.6 62C45.7733 62.46 45.9533 62.9067 46.1267 63.3333L46.26 63.6733L46.42 63.9933L46.7467 64.66L47.0733 65.3267L47.4533 65.9333L47.84 66.5333L48.0267 66.8333L48.2467 67.1133L49.1067 68.2267C49.7325 68.9183 50.4005 69.5706 51.1067 70.18L51.62 70.6333C51.7933 70.78 51.9867 70.9 52.1667 71.04C52.54 71.3 52.8933 71.5733 53.2733 71.82L54.4267 72.4867L54.6667 72.6667L54.9667 72.8067L55.5667 73.08C56.3566 73.4399 57.1695 73.7473 58 74C58.4133 74.1133 58.8267 74.2 59.24 74.3L59.8467 74.44C60.0533 74.4867 60.26 74.5 60.4667 74.5267L61.6933 74.6867C62.1 74.7267 62.5067 74.6867 62.9067 74.7333C63.6939 74.7646 64.4824 74.7423 65.2667 74.6667H65.56L65.8467 74.62L66.4133 74.52C66.7867 74.4467 67.1667 74.4 67.5267 74.3133L68.6067 74.0133L69.1333 73.8667L69.6467 73.6667L70.6467 73.28C70.8121 73.219 70.9725 73.1455 71.1267 73.06L71.5933 72.8267C71.9 72.6667 72.2133 72.52 72.5067 72.36L73.36 71.82C75.3713 70.5305 77.1144 68.8644 78.4933 66.9133L78.9467 66.2867L79.32 65.62L79.6867 65C79.7467 64.8933 79.8067 64.8 79.86 64.6933L80 64.3867C80.1956 63.9733 80.3756 63.58 80.54 63.2066C80.7067 62.8267 80.8133 62.4533 80.94 62.1067C81 61.9267 81.06 61.76 81.12 61.5933C81.178 61.4346 81.2248 61.272 81.26 61.1067C81.34 60.7867 81.4067 60.4867 81.4733 60.2066C81.54 59.9267 81.6067 59.6733 81.6533 59.44C81.7 59.2067 81.7133 58.98 81.74 58.7733C81.7933 58.3911 81.8333 58.0978 81.86 57.8933C81.86 57.6933 81.9133 57.5933 81.9133 57.5933C81.9133 57.5933 81.9133 57.6933 81.88 57.8933C81.8467 58.0933 81.82 58.3933 81.7733 58.78C81.7733 58.9733 81.7267 59.1933 81.6933 59.4467C81.66 59.7 81.5867 59.94 81.5267 60.22C81.4667 60.5 81.3933 60.8 81.32 61.12C81.2849 61.2875 81.2381 61.4523 81.18 61.6133C81.12 61.78 81.0667 61.9467 81.0067 62.1267C80.88 62.4733 80.7733 62.8533 80.6133 63.2333L80.0733 64.42L79.9333 64.7333C79.88 64.84 79.82 64.9333 79.76 65.04L79.4 65.6667C79.28 65.88 79.1533 66.0933 79.02 66.3333C78.8867 66.5733 78.7267 66.7533 78.5733 67C77.1907 68.9676 75.4408 70.6496 73.42 71.9533L72.5667 72.4933C72.2733 72.66 71.96 72.8067 71.6467 72.9667L71.18 73.2066C71.0229 73.2907 70.8603 73.3642 70.6933 73.4267L69.6867 73.82C69.52 73.8867 69.3533 73.96 69.18 74.02L68.6467 74.1667L67.56 74.4733C67.1933 74.5667 66.8133 74.6133 66.4333 74.6867L65.8667 74.7867L65.5733 74.8333H65.2867C64.492 74.9204 63.6925 74.9538 62.8933 74.9333C62.4933 74.9333 62.08 74.9333 61.6733 74.8867L60.44 74.6667C60.2333 74.6667 60.02 74.62 59.8133 74.58L59.2 74.4333C58.7867 74.3333 58.3667 74.2533 57.9533 74.1333C57.1205 73.881 56.3054 73.5737 55.5133 73.2133L54.9067 72.9333C54.8067 72.8867 54.7067 72.8467 54.6067 72.7933L54.3133 72.6267L53.1467 71.96C52.7733 71.72 52.4133 71.44 52.04 71.1733C51.8486 71.0475 51.6639 70.9118 51.4867 70.7667L50.9667 70.3133C50.2565 69.6916 49.5884 69.0235 48.9667 68.3133L48.0933 67.1933L47.8733 66.9067L47.68 66.6067L47.3333 66L46.9467 65.3867L46.6133 64.72L46.2867 64.0533L46.12 63.7267L45.9867 63.3867C45.8133 62.9333 45.6333 62.4733 45.4533 62.02L45.0333 60.6667C44.0406 56.7314 44.3662 52.5791 45.96 48.8466C46.1667 48.3933 46.3667 47.9466 46.5733 47.5133L47.3333 46.2133C47.4 46.1067 47.4533 46 47.52 45.9L47.7333 45.6L48.16 45.0133L48.5867 44.4267L49.06 43.88L49.5333 43.34L49.7733 43.0733L50.0333 42.8267L51.0667 41.8533C51.7854 41.2595 52.5426 40.7139 53.3333 40.22L53.92 39.8467C54.1133 39.7267 54.3267 39.6333 54.5267 39.5267C54.9333 39.3267 55.3333 39.1067 55.7467 38.9267L57.0067 38.44L57.3133 38.3133L57.6333 38.2267L58.3 38.0467C59.1404 37.8116 59.9957 37.6334 60.86 37.5133C61.2867 37.46 61.7133 37.44 62.1333 37.4067L62.8 37.36C63.0067 37.36 63.22 37.36 63.4267 37.36H64.6733C65.08 37.36 65.4867 37.46 65.8867 37.5C66.6785 37.6028 67.4625 37.7587 68.2333 37.9667L68.52 38.0333L68.7933 38.1267L69.3467 38.3133C69.7067 38.4467 70.0733 38.5533 70.42 38.7L71.4467 39.1667L71.9467 39.4C72.1133 39.4867 72.2667 39.58 72.4267 39.6733L73.36 40.22C73.5146 40.3053 73.6618 40.4034 73.8 40.5133L74.2267 40.82C74.5067 41.0267 74.7933 41.22 75.06 41.4267L75.82 42.0933C77.6165 43.6922 79.0839 45.626 80.14 47.7867C80.9539 49.4041 81.5117 51.1381 81.7933 52.9267C81.8267 53.1133 81.86 53.2933 81.8867 53.4667C81.9216 53.6336 81.9438 53.803 81.9533 53.9733C81.9533 54.2978 81.9733 54.6044 82.0133 54.8933C82.0133 55.18 82.06 55.44 82.06 55.6867C82.06 55.9333 82.06 56.1467 82.06 56.3533C82.06 56.74 82.06 57.02 82.06 57.2467C82.06 57.4733 81.9133 57.5867 81.9133 57.5867Z" fill="#263238"/>
<defs>
<linearGradient id="paint0_linear" x1="41.5133" y1="243.567" x2="41.5133" y2="270" gradientUnits="userSpaceOnUse">
<stop stop-color="#1DCDDB"/>
<stop offset="1" stop-color="#31B8FF" stop-opacity="0.78"/>
</linearGradient>
<linearGradient id="paint1_linear" x1="40.86" y1="226.82" x2="40.86" y2="253.253" gradientUnits="userSpaceOnUse">
<stop stop-color="#1DCDDB"/>
<stop offset="1" stop-color="#31B8FF" stop-opacity="0.78"/>
</linearGradient>
<linearGradient id="paint2_linear" x1="39.3667" y1="210.427" x2="39.3667" y2="236.86" gradientUnits="userSpaceOnUse">
<stop stop-color="#1DCDDB"/>
<stop offset="1" stop-color="#31B8FF" stop-opacity="0.78"/>
</linearGradient>
<linearGradient id="paint3_linear" x1="38.8567" y1="189.84" x2="38.8567" y2="219.64" gradientUnits="userSpaceOnUse">
<stop stop-color="#1DCDDB"/>
<stop offset="1" stop-color="#31B8FF" stop-opacity="0.78"/>
</linearGradient>
<linearGradient id="paint4_linear" x1="41.8763" y1="169.647" x2="41.8763" y2="206.353" gradientUnits="userSpaceOnUse">
<stop stop-color="#1DCDDB"/>
<stop offset="1" stop-color="#31B8FF" stop-opacity="0.78"/>
</linearGradient>
<linearGradient id="paint5_linear" x1="57.7667" y1="175.953" x2="57.7667" y2="212.667" gradientUnits="userSpaceOnUse">
<stop stop-color="#1DCDDB"/>
<stop offset="1" stop-color="#31B8FF" stop-opacity="0.78"/>
</linearGradient>
<linearGradient id="paint6_linear" x1="61.73" y1="190.187" x2="61.73" y2="226.853" gradientUnits="userSpaceOnUse">
<stop stop-color="#1DCDDB"/>
<stop offset="1" stop-color="#31B8FF" stop-opacity="0.78"/>
</linearGradient>
<linearGradient id="paint7_linear" x1="63.99" y1="207.46" x2="63.99" y2="244.127" gradientUnits="userSpaceOnUse">
<stop stop-color="#1DCDDB"/>
<stop offset="1" stop-color="#31B8FF" stop-opacity="0.78"/>
</linearGradient>
<linearGradient id="paint8_linear" x1="65.1367" y1="228.507" x2="65.1367" y2="265.173" gradientUnits="userSpaceOnUse">
<stop stop-color="#1DCDDB"/>
<stop offset="1" stop-color="#31B8FF" stop-opacity="0.78"/>
</linearGradient>
<linearGradient id="paint9_linear" x1="55.7025" y1="240.187" x2="55.7025" y2="274.353" gradientUnits="userSpaceOnUse">
<stop stop-color="#1DCDDB"/>
<stop offset="1" stop-color="#31B8FF" stop-opacity="0.78"/>
</linearGradient>
<linearGradient id="paint10_linear" x1="63.449" y1="227.553" x2="63.449" y2="261.727" gradientUnits="userSpaceOnUse">
<stop stop-color="#1DCDDB"/>
<stop offset="1" stop-color="#31B8FF" stop-opacity="0.78"/>
</linearGradient>
<linearGradient id="paint11_linear" x1="70.3959" y1="214.713" x2="70.3959" y2="248.887" gradientUnits="userSpaceOnUse">
<stop stop-color="#1DCDDB"/>
<stop offset="1" stop-color="#31B8FF" stop-opacity="0.78"/>
</linearGradient>
<linearGradient id="paint12_linear" x1="79.3352" y1="200.367" x2="79.3352" y2="235.033" gradientUnits="userSpaceOnUse">
<stop stop-color="#1DCDDB"/>
<stop offset="1" stop-color="#31B8FF" stop-opacity="0.78"/>
</linearGradient>
<linearGradient id="paint13_linear" x1="89.91" y1="190.847" x2="89.91" y2="223.693" gradientUnits="userSpaceOnUse">
<stop stop-color="#1DCDDB"/>
<stop offset="1" stop-color="#31B8FF" stop-opacity="0.78"/>
</linearGradient>
<linearGradient id="paint14_linear" x1="98.3667" y1="212.96" x2="98.3667" y2="229.14" gradientUnits="userSpaceOnUse">
<stop stop-color="#1DCDDB"/>
<stop offset="1" stop-color="#31B8FF" stop-opacity="0.78"/>
</linearGradient>
<linearGradient id="paint15_linear" x1="94.27" y1="226.733" x2="94.27" y2="240.667" gradientUnits="userSpaceOnUse">
<stop stop-color="#1DCDDB"/>
<stop offset="1" stop-color="#31B8FF" stop-opacity="0.78"/>
</linearGradient>
<linearGradient id="paint16_linear" x1="87.4633" y1="240.693" x2="87.4633" y2="254.627" gradientUnits="userSpaceOnUse">
<stop stop-color="#1DCDDB"/>
<stop offset="1" stop-color="#31B8FF" stop-opacity="0.78"/>
</linearGradient>
<linearGradient id="paint17_linear" x1="77.98" y1="256.733" x2="77.98" y2="270.667" gradientUnits="userSpaceOnUse">
<stop stop-color="#1DCDDB"/>
<stop offset="1" stop-color="#31B8FF" stop-opacity="0.78"/>
</linearGradient>
<linearGradient id="paint18_linear" x1="194.803" y1="88.74" x2="194.803" y2="136.693" gradientUnits="userSpaceOnUse">
<stop stop-color="#1DCDDB"/>
<stop offset="1" stop-color="#31B8FF" stop-opacity="0.78"/>
</linearGradient>
<linearGradient id="paint19_linear" x1="249.013" y1="105.08" x2="249.013" y2="115.533" gradientUnits="userSpaceOnUse">
<stop stop-color="#1DCDDB"/>
<stop offset="1" stop-color="#31B8FF" stop-opacity="0.78"/>
</linearGradient>
<linearGradient id="paint20_linear" x1="249.053" y1="109.613" x2="249.053" y2="119.64" gradientUnits="userSpaceOnUse">
<stop stop-color="#1DCDDB"/>
<stop offset="1" stop-color="#31B8FF" stop-opacity="0.78"/>
</linearGradient>
<linearGradient id="paint21_linear" x1="194.807" y1="162.892" x2="194.807" y2="180.06" gradientUnits="userSpaceOnUse">
<stop stop-color="#1DCDDB"/>
<stop offset="1" stop-color="#31B8FF" stop-opacity="0.78"/>
</linearGradient>
<linearGradient id="paint22_linear" x1="303.303" y1="149.073" x2="303.303" y2="197.027" gradientUnits="userSpaceOnUse">
<stop stop-color="#1DCDDB"/>
<stop offset="1" stop-color="#31B8FF" stop-opacity="0.78"/>
</linearGradient>
<linearGradient id="paint23_linear" x1="194.803" y1="209.407" x2="194.803" y2="257.36" gradientUnits="userSpaceOnUse">
<stop stop-color="#1DCDDB"/>
<stop offset="1" stop-color="#31B8FF" stop-opacity="0.78"/>
</linearGradient>
<linearGradient id="paint24_linear" x1="249.908" y1="228.47" x2="249.931" y2="241.683" gradientUnits="userSpaceOnUse">
<stop stop-color="#1DCDDB"/>
<stop offset="1" stop-color="#31B8FF" stop-opacity="0.78"/>
</linearGradient>
<linearGradient id="paint25_linear" x1="247.408" y1="228.408" x2="247.431" y2="241.621" gradientUnits="userSpaceOnUse">
<stop stop-color="#1DCDDB"/>
<stop offset="1" stop-color="#31B8FF" stop-opacity="0.78"/>
</linearGradient>
<linearGradient id="paint26_linear" x1="106.607" y1="289.113" x2="106.607" y2="315.067" gradientUnits="userSpaceOnUse">
<stop stop-color="#1DCDDB"/>
<stop offset="1" stop-color="#31B8FF" stop-opacity="0.78"/>
</linearGradient>
<linearGradient id="paint27_linear" x1="96.5234" y1="275.293" x2="96.5234" y2="314.36" gradientUnits="userSpaceOnUse">
<stop stop-color="#1DCDDB"/>
<stop offset="1" stop-color="#31B8FF" stop-opacity="0.78"/>
</linearGradient>
<linearGradient id="paint28_linear" x1="133.812" y1="112.667" x2="133.812" y2="149.177" gradientUnits="userSpaceOnUse">
<stop stop-color="#1DCDDB"/>
<stop offset="1" stop-color="#31B8FF" stop-opacity="0.78"/>
</linearGradient>
<linearGradient id="paint29_linear" x1="105.579" y1="103.92" x2="105.579" y2="183.987" gradientUnits="userSpaceOnUse">
<stop stop-color="#1DCDDB"/>
<stop offset="1" stop-color="#31B8FF" stop-opacity="0.78"/>
</linearGradient>
<linearGradient id="paint30_linear" x1="103.634" y1="112.512" x2="103.634" y2="164.898" gradientUnits="userSpaceOnUse">
<stop stop-color="#1DCDDB"/>
<stop offset="1" stop-color="#31B8FF" stop-opacity="0.78"/>
</linearGradient>
<linearGradient id="paint31_linear" x1="417.503" y1="177.113" x2="417.503" y2="241.7" gradientUnits="userSpaceOnUse">
<stop stop-color="#1DCDDB"/>
<stop offset="1" stop-color="#31B8FF" stop-opacity="0.78"/>
</linearGradient>
<linearGradient id="paint32_linear" x1="407.317" y1="241.753" x2="407.317" y2="315.22" gradientUnits="userSpaceOnUse">
<stop stop-color="#1DCDDB"/>
<stop offset="1" stop-color="#31B8FF" stop-opacity="0.78"/>
</linearGradient>
<linearGradient id="paint33_linear" x1="63.247" y1="49.62" x2="63.247" y2="61.4713" gradientUnits="userSpaceOnUse">
<stop stop-color="#1DCDDB"/>
<stop offset="1" stop-color="#31B8FF" stop-opacity="0.78"/>
</linearGradient>
<linearGradient id="paint34_linear" x1="63.8067" y1="47.3333" x2="63.8067" y2="48.6666" gradientUnits="userSpaceOnUse">
<stop stop-color="#1DCDDB"/>
<stop offset="1" stop-color="#31B8FF" stop-opacity="0.78"/>
</linearGradient>
</defs>
</svg>
