<svg width="800" height="800" viewBox="0 0 800 800" fill="none" xmlns="http://www.w3.org/2000/svg">
<path d="M800 611.84H0V612.24H800V611.84Z" fill="#EBEBEB"/>
<path d="M719.84 637.584H685.152V637.984H719.84V637.584Z" fill="#EBEBEB"/>
<path d="M551.472 629.296H496.896V629.696H551.472V629.296Z" fill="#EBEBEB"/>
<path d="M705.792 622.736H634.544V623.136H705.792V622.736Z" fill="#EBEBEB"/>
<path d="M276.832 630.8H259.008V631.2H276.832V630.8Z" fill="#EBEBEB"/>
<path d="M244.752 630.8H183.328V631.2H244.752V630.8Z" fill="#EBEBEB"/>
<path d="M150.416 624.048H106.096V624.448H150.416V624.048Z" fill="#EBEBEB"/>
<path d="M379.2 540.48H70.2557C67.8355 540.476 65.5158 539.511 63.806 537.798C62.0961 536.086 61.1357 533.764 61.1357 531.344V97.056C61.1568 94.6496 62.1265 92.3488 63.8341 90.6531C65.5417 88.9575 67.8493 88.0041 70.2557 88H379.2C381.623 88 383.947 88.9625 385.66 90.6759C387.373 92.3892 388.336 94.713 388.336 97.136V531.344C388.336 533.767 387.373 536.091 385.66 537.804C383.947 539.517 381.623 540.48 379.2 540.48V540.48ZM70.2557 88.32C67.9416 88.3242 65.7237 89.2465 64.0888 90.8844C62.4539 92.5222 61.5357 94.7418 61.5357 97.056V531.344C61.5357 533.658 62.4539 535.878 64.0888 537.516C65.7237 539.153 67.9416 540.076 70.2557 540.08H379.2C381.515 540.076 383.735 539.154 385.372 537.517C387.01 535.879 387.932 533.66 387.936 531.344V97.056C387.932 94.7404 387.01 92.5208 385.372 90.8834C383.735 89.246 381.515 88.3242 379.2 88.32H70.2557Z" fill="#EBEBEB"/>
<path d="M725.296 540.48H416.336C413.914 540.476 411.593 539.512 409.881 537.799C408.168 536.087 407.204 533.766 407.2 531.344V97.056C407.225 94.6482 408.199 92.3473 409.909 90.6521C411.619 88.957 413.928 88.0041 416.336 88H725.296C727.7 88.0083 730.003 88.9636 731.708 90.6588C733.412 92.3539 734.379 94.6524 734.4 97.056V531.344C734.4 533.761 733.442 536.08 731.736 537.793C730.029 539.505 727.714 540.472 725.296 540.48V540.48ZM416.336 88.32C414.021 88.3242 411.801 89.246 410.164 90.8834C408.526 92.5208 407.604 94.7404 407.6 97.056V531.344C407.604 533.66 408.526 535.879 410.164 537.517C411.801 539.154 414.021 540.076 416.336 540.08H725.296C727.612 540.076 729.831 539.154 731.469 537.517C733.106 535.879 734.028 533.66 734.032 531.344V97.056C734.028 94.7404 733.106 92.5208 731.469 90.8834C729.831 89.246 727.612 88.3242 725.296 88.32H416.336Z" fill="#EBEBEB"/>
<path d="M345.712 321.408L346.432 300.384L333.536 296.16C332.982 289.035 331.826 281.97 330.08 275.04L341.024 267.04L333.6 247.296L320.064 248.384C316.855 242.023 313.108 235.947 308.864 230.224L315.872 218.528L301.472 203.152L289.376 209.344C283.937 204.695 278.126 200.499 272 196.8L273.952 183.36L254.752 174.656L245.952 184.96C239.164 182.788 232.206 181.183 225.152 180.16L221.952 166.992L200.864 166.272L196.704 179.184C189.587 179.744 182.528 180.894 175.6 182.624L167.472 171.744L147.728 179.12L148.816 192.656C142.459 195.914 136.384 199.698 130.656 203.968L118.88 196.8L103.44 211.2L109.632 223.36C104.982 228.772 100.806 234.575 97.1525 240.704L83.7285 238.688L74.9605 257.888L85.3285 266.672C83.1414 273.457 81.5356 280.415 80.5285 287.472L67.2005 290.816L66.4805 311.84L79.4405 316.064C79.9765 323.185 81.1275 330.246 82.8805 337.168L71.9365 345.168L79.3765 364.928L92.9125 363.84C96.1136 370.206 99.861 376.282 104.112 382L97.0885 393.696L111.488 409.072L123.584 402.88C129.009 407.528 134.811 411.719 140.928 415.408L138.912 428.832L158.112 437.552L166.96 427.248C173.749 429.439 180.706 431.071 187.76 432.128L190.96 445.296L212.048 446.016L216.208 433.104C223.331 432.538 230.395 431.387 237.328 429.664L245.328 440.544L265.072 433.168L264.048 419.632C270.395 416.353 276.467 412.57 282.208 408.32L293.84 415.328L309.28 400.928L303.088 388.768C307.74 383.357 311.916 377.554 315.568 371.424L328.992 373.44L337.76 354.24L327.392 345.44C329.616 338.66 331.249 331.701 332.272 324.64L345.712 321.408ZM203.648 389.52C187.149 388.963 171.186 383.524 157.778 373.893C144.37 364.262 134.119 350.87 128.323 335.413C122.527 319.955 121.445 303.125 125.216 287.053C128.986 270.98 137.438 256.387 149.503 245.119C161.568 233.851 176.704 226.414 192.996 223.75C209.289 221.085 226.005 223.313 241.031 230.15C256.057 236.987 268.718 248.128 277.412 262.162C286.106 276.196 290.442 292.493 289.872 308.992C289.113 331.103 279.603 352.008 263.434 367.109C247.265 382.21 225.76 390.271 203.648 389.52V389.52Z" fill="#EBEBEB"/>
<path d="M705.6 251.872L710.896 246.928L708.8 242.752C710.399 240.881 711.838 238.88 713.104 236.768L717.744 237.456L720.736 230.832L717.184 227.808C717.949 225.466 718.511 223.063 718.864 220.624L723.424 219.488L723.648 212.224L719.2 210.784C719.004 208.324 718.608 205.884 718.016 203.488L721.776 200.688L719.216 193.888L714.56 194.256C713.437 192.063 712.136 189.966 710.672 187.984L713.088 183.984L708.112 178.672L703.952 180.8C702.078 179.205 700.076 177.766 697.968 176.496L698.64 171.856L692.032 168.832L688.992 172.4C686.645 171.67 684.242 171.135 681.808 170.8L680.672 166.256L673.408 165.984L671.952 170.464C669.501 170.652 667.071 171.048 664.688 171.648L661.904 167.888L655.088 170.432L655.472 175.104C653.272 176.216 651.174 177.517 649.2 178.992L645.168 176.576L639.856 181.52L641.92 185.6C640.309 187.466 638.864 189.468 637.6 191.584L632.976 190.896L629.968 197.52L633.536 200.56C632.796 202.899 632.261 205.297 631.936 207.728L627.36 208.864L627.136 216.128L631.6 217.568C631.782 220.029 632.173 222.47 632.768 224.864L628.992 227.648L631.552 234.448L636.224 234.096C637.347 236.29 638.647 238.387 640.112 240.368L637.696 244.368L642.672 249.68L646.832 247.552C648.702 249.153 650.704 250.593 652.816 251.856L652.128 256.48L658.752 259.504L661.792 255.952C664.14 256.676 666.542 257.211 668.976 257.552L670.112 262.096L677.376 262.368L678.832 257.888C681.282 257.702 683.713 257.306 686.096 256.704L688.88 260.464L695.696 257.92L695.328 253.248C697.521 252.135 699.614 250.834 701.584 249.36L705.6 251.872ZM667.808 221.264C666.411 219.767 665.489 217.889 665.159 215.868C664.829 213.847 665.106 211.774 665.955 209.91C666.804 208.046 668.187 206.476 669.928 205.399C671.67 204.321 673.692 203.784 675.738 203.856C677.785 203.927 679.764 204.604 681.426 205.801C683.088 206.998 684.357 208.661 685.074 210.579C685.79 212.498 685.922 214.585 685.451 216.579C684.981 218.572 683.93 220.381 682.432 221.776C681.437 222.714 680.267 223.445 678.988 223.927C677.709 224.41 676.347 224.634 674.981 224.586C673.615 224.538 672.272 224.22 671.03 223.65C669.787 223.08 668.67 222.269 667.744 221.264H667.808Z" fill="#EBEBEB"/>
<path d="M512 467.744L495.456 456.304C493.834 450.347 491.603 444.572 488.8 439.072L493.039 422.432L469.04 396.736L452.144 399.824C446.843 396.648 441.229 394.026 435.392 392V392L425.12 374.704L389.92 373.504L378.496 390.048C372.546 391.669 366.777 393.893 361.28 396.688L344.64 392.448L318.944 416.448L322.032 433.312C318.859 438.623 316.242 444.248 314.224 450.096L296.928 460.368L295.728 495.568L312.288 506.992C313.882 512.981 316.108 518.784 318.928 524.304V524.304L314.64 540.8L338.64 566.496L355.424 563.424C360.764 566.603 366.415 569.23 372.288 571.264V571.264L382.544 588.528L417.744 589.744L429.152 573.2C435.155 571.579 440.977 569.348 446.527 566.544L463.072 570.768L488.783 546.768L485.696 529.904C488.878 524.592 491.495 518.961 493.504 513.104V513.104L510.8 502.832L512 467.744ZM402.48 521.168C394.665 520.901 387.106 518.323 380.756 513.759C374.407 509.196 369.554 502.853 366.809 495.531C364.065 488.21 363.553 480.239 365.339 472.627C367.124 465.014 371.127 458.102 376.84 452.765C382.554 447.427 389.722 443.903 397.438 442.639C405.154 441.375 413.071 442.427 420.19 445.662C427.308 448.898 433.307 454.171 437.428 460.816C441.549 467.46 443.608 475.177 443.344 482.992C442.976 493.472 438.465 503.379 430.801 510.537C423.136 517.694 412.945 521.518 402.464 521.168H402.48Z" fill="#EBEBEB"/>
<path d="M549.68 368H549.568L521.856 367.056C521.295 367.046 520.745 366.894 520.258 366.614C519.771 366.334 519.363 365.936 519.072 365.456L511.6 352.896C507.573 351.423 503.676 349.614 499.952 347.488L488 349.552C487.443 349.654 486.87 349.614 486.332 349.435C485.795 349.256 485.312 348.944 484.928 348.528L466 328.272C465.603 327.852 465.32 327.338 465.18 326.777C465.04 326.216 465.047 325.629 465.2 325.072L468.224 313.216C466.35 309.374 464.819 305.375 463.648 301.264L451.6 292.944C451.133 292.623 450.754 292.19 450.5 291.683C450.245 291.177 450.123 290.614 450.144 290.048L451.088 262.336C451.107 261.777 451.262 261.23 451.541 260.745C451.82 260.259 452.214 259.85 452.688 259.552L465.28 252.08C466.732 248.062 468.536 244.18 470.672 240.48L468.464 228.432C468.361 227.873 468.4 227.296 468.579 226.757C468.758 226.217 469.071 225.731 469.488 225.344L489.744 206.432C490.163 206.033 490.677 205.749 491.237 205.606C491.798 205.463 492.385 205.467 492.944 205.616L504.848 208.656C508.68 206.782 512.669 205.245 516.768 204.064L525.088 192.016C525.397 191.537 525.829 191.15 526.338 190.894C526.847 190.638 527.415 190.523 527.984 190.56L555.68 191.52C556.243 191.532 556.794 191.685 557.283 191.964C557.772 192.244 558.184 192.641 558.48 193.12L565.952 205.696C569.951 207.164 573.816 208.973 577.504 211.104L589.6 208.88C590.157 208.777 590.731 208.816 591.268 208.995C591.806 209.175 592.289 209.487 592.672 209.904L611.6 230.16C611.995 230.581 612.275 231.096 612.415 231.656C612.555 232.216 612.55 232.803 612.4 233.36L609.36 245.248C611.234 249.082 612.776 253.07 613.968 257.168L626 265.488C626.467 265.809 626.846 266.243 627.1 266.749C627.355 267.255 627.477 267.818 627.456 268.384L626.512 296.08C626.493 296.642 626.337 297.19 626.059 297.678C625.78 298.166 625.386 298.579 624.912 298.88L612.32 306.352C610.858 310.361 609.054 314.236 606.928 317.936L609.136 330C609.239 330.557 609.2 331.131 609.021 331.668C608.842 332.206 608.529 332.689 608.112 333.072L587.728 352C587.308 352.397 586.793 352.68 586.233 352.82C585.672 352.96 585.085 352.953 584.528 352.8L572.688 349.776C568.83 351.642 564.821 353.178 560.704 354.368L552.464 366.4C552.167 366.875 551.758 367.269 551.272 367.548C550.787 367.828 550.24 367.983 549.68 368V368ZM523.936 360.368L547.936 361.184L555.936 349.68C556.379 349.009 557.059 348.529 557.84 348.336C562.342 347.105 566.711 345.427 570.88 343.328V343.328C571.607 342.978 572.433 342.893 573.216 343.088L584.416 345.952L602.016 329.552L600 317.984C599.844 317.176 599.993 316.338 600.416 315.632C602.792 311.67 604.75 307.471 606.256 303.104C606.51 302.312 607.045 301.641 607.76 301.216L619.808 294.08L620.624 270.08L609.104 262.08C608.497 261.666 608.042 261.065 607.808 260.368C607.808 260.288 607.808 260.192 607.808 260.096C606.575 255.673 604.903 251.385 602.816 247.296C602.446 246.564 602.355 245.722 602.56 244.928L605.44 233.6L589.04 216L577.536 218.112C576.733 218.258 575.904 218.11 575.2 217.696C571.23 215.315 567.027 213.347 562.656 211.824C562.405 211.744 562.164 211.636 561.936 211.504C561.475 211.216 561.091 210.821 560.816 210.352L553.6 198.272L529.6 197.44L521.6 208.976C521.123 209.652 520.419 210.135 519.616 210.336C515.16 211.554 510.839 213.221 506.72 215.312C505.994 215.683 505.157 215.774 504.368 215.568L493.04 212.688L475.44 229.088L477.552 240.56C477.677 241.284 477.571 242.028 477.248 242.688L477.088 242.96C474.708 246.937 472.751 251.152 471.248 255.536C470.983 256.288 470.462 256.922 469.776 257.328L457.728 264.48L456.912 288.48L468.448 296.48C469.106 296.93 469.582 297.599 469.792 298.368C470.991 302.861 472.659 307.215 474.768 311.36C474.882 311.596 474.973 311.842 475.04 312.096C475.161 312.623 475.161 313.17 475.04 313.696L472.16 324.896L488.56 342.496L499.984 340.4C500.782 340.254 501.606 340.402 502.304 340.816C506.304 343.193 510.533 345.16 514.928 346.688C515.721 346.923 516.392 347.457 516.8 348.176L523.936 360.368ZM538.768 330.016C538.176 330.016 537.584 330.016 536.992 330.016C523.691 329.782 511.021 324.304 501.74 314.774C492.459 305.244 487.317 292.434 487.434 279.132C487.551 265.83 492.917 253.112 502.365 243.747C511.813 234.382 524.577 229.128 537.88 229.128C551.183 229.128 563.947 234.382 573.395 243.747C582.842 253.112 588.209 265.83 588.326 279.132C588.443 292.434 583.301 305.244 574.02 314.774C564.738 324.304 552.069 329.782 538.768 330.016ZM538.768 235.472C527.145 235.672 516.071 240.456 507.958 248.782C499.845 257.108 495.349 268.301 495.45 279.925C495.55 291.55 500.238 302.664 508.493 310.849C516.749 319.033 527.903 323.625 539.528 323.625C551.153 323.625 562.307 319.033 570.563 310.849C578.818 302.664 583.506 291.55 583.606 279.925C583.707 268.301 579.211 257.108 571.098 248.782C562.985 240.456 551.911 235.672 540.288 235.472H538.768Z" fill="#EBEBEB"/>
<path d="M613.504 168.512L602.016 165.44L598.944 153.952L603.44 149.472L608.176 159.28L618 164.032L613.504 168.512Z" fill="#E0E0E0"/>
<path d="M614.209 160.832C614.706 160.335 615.1 159.745 615.369 159.096C615.638 158.447 615.776 157.751 615.776 157.048C615.776 156.345 615.638 155.649 615.369 155C615.1 154.351 614.706 153.761 614.209 153.264C613.712 152.767 613.122 152.373 612.472 152.104C611.823 151.835 611.127 151.697 610.425 151.697C609.722 151.697 609.026 151.835 608.377 152.104C607.727 152.373 607.138 152.767 606.641 153.264L612.353 144.688L620.001 148.56L621.681 156.56L614.209 160.832Z" fill="#E0E0E0"/>
<path d="M602.528 150.4L610.944 141.984L622.4 145.04L625.488 156.512L617.072 164.928L605.6 161.84L602.528 150.4ZM617.808 157.28C618.557 156.531 619.067 155.575 619.274 154.536C619.48 153.496 619.374 152.419 618.968 151.44C618.562 150.461 617.875 149.624 616.994 149.035C616.112 148.446 615.076 148.132 614.016 148.132C612.957 148.132 611.92 148.446 611.039 149.035C610.158 149.624 609.471 150.461 609.065 151.44C608.659 152.419 608.553 153.496 608.759 154.536C608.965 155.575 609.475 156.531 610.224 157.28C611.238 158.275 612.603 158.829 614.023 158.823C615.443 158.817 616.803 158.251 617.808 157.248V157.28Z" fill="#F0F0F0"/>
<path d="M144.353 474.736L150.513 473.072L152.161 466.912L149.761 464.512L147.217 469.776L141.937 472.32L144.353 474.736Z" fill="#E0E0E0"/>
<path d="M144 470.608C143.519 470.058 143.264 469.346 143.289 468.616C143.313 467.885 143.614 467.191 144.131 466.674C144.647 466.158 145.341 465.857 146.072 465.833C146.802 465.808 147.514 466.063 148.064 466.544L145.008 461.952L140.8 464L139.904 468.32L144 470.608Z" fill="#E0E0E0"/>
<path d="M150.241 464.992L145.729 460.48L139.569 462.08L137.969 468.24L142.401 472.8L148.561 471.2L150.241 464.992ZM142.049 468.688C141.752 468.428 141.512 468.11 141.343 467.754C141.174 467.398 141.081 467.011 141.067 466.617C141.054 466.222 141.122 465.83 141.267 465.463C141.412 465.097 141.631 464.764 141.909 464.485C142.188 464.206 142.521 463.987 142.888 463.843C143.255 463.698 143.647 463.63 144.041 463.643C144.435 463.656 144.823 463.75 145.179 463.918C145.535 464.087 145.853 464.327 146.113 464.624C146.594 465.174 146.849 465.886 146.824 466.617C146.8 467.347 146.499 468.041 145.982 468.558C145.466 469.074 144.772 469.375 144.041 469.4C143.311 469.424 142.599 469.169 142.049 468.688V468.688Z" fill="#F0F0F0"/>
<path d="M122.176 137.056L127.296 142.176C127.936 142.805 128.798 143.158 129.696 143.158C130.594 143.158 131.456 142.805 132.096 142.176V142.176C132.722 141.534 133.072 140.672 133.072 139.776C133.072 138.879 132.722 138.018 132.096 137.376L126.992 132.272C126.35 131.646 125.489 131.296 124.592 131.296C123.696 131.296 122.834 131.646 122.192 132.272V132.272C121.565 132.909 121.213 133.767 121.21 134.661C121.207 135.555 121.554 136.414 122.176 137.056Z" fill="#F0F0F0"/>
<path d="M118.576 124.336C119.912 123.964 121.327 123.991 122.648 124.413C123.969 124.835 125.138 125.633 126.012 126.71C126.886 127.787 127.426 129.095 127.566 130.475C127.707 131.854 127.441 133.245 126.803 134.476C126.164 135.707 125.179 136.724 123.97 137.403C122.761 138.082 121.38 138.394 119.997 138.299C118.613 138.204 117.288 137.708 116.182 136.87C115.077 136.032 114.241 134.89 113.776 133.584C113.48 132.662 113.37 131.69 113.452 130.725C113.534 129.76 113.805 128.821 114.251 127.961C114.698 127.102 115.309 126.339 116.051 125.717C116.794 125.095 117.651 124.625 118.576 124.336V124.336Z" fill="#E0E0E0"/>
<path d="M113.008 132.728L113.749 134.791L128.957 129.327L128.216 127.264L113.008 132.728Z" fill="#F0F0F0"/>
<path d="M400 684.096C571.332 684.096 710.224 675.987 710.224 665.984C710.224 655.981 571.332 647.872 400 647.872C228.668 647.872 89.7764 655.981 89.7764 665.984C89.7764 675.987 228.668 684.096 400 684.096Z" fill="#F5F5F5"/>
<path d="M138.752 193.04C137.152 185.984 137.856 180.064 140.896 175.232C143.936 170.4 148.896 167.232 155.952 165.632C163.008 164.032 169.104 164.672 173.872 167.648C178.64 170.624 181.872 175.648 183.472 182.528C184.602 186.775 184.695 191.23 183.744 195.52C182.814 199.083 180.848 202.29 178.096 204.736C174.827 207.488 170.903 209.351 166.704 210.144C162.588 211.237 158.277 211.385 154.096 210.576C150.461 209.693 147.174 207.743 144.656 204.976C141.648 201.602 139.608 197.478 138.752 193.04V193.04ZM152.096 190.064C153.088 194.416 154.608 197.36 156.656 198.896C157.713 199.601 158.902 200.085 160.151 200.319C161.4 200.552 162.683 200.531 163.924 200.256C165.164 199.981 166.336 199.458 167.37 198.718C168.403 197.979 169.276 197.038 169.936 195.952C171.088 193.728 171.104 190.192 170.016 185.376C169.088 181.312 167.589 178.528 165.52 177.024C164.478 176.276 163.282 175.772 162.019 175.547C160.756 175.323 159.46 175.385 158.224 175.728C156.987 175.96 155.819 176.469 154.808 177.217C153.796 177.965 152.967 178.933 152.384 180.048C151.2 182.4 151.088 185.6 152.096 190.064Z" fill="#010E28"/>
<path d="M189.744 187.76C189.176 185.58 189.074 183.304 189.446 181.082C189.819 178.859 190.656 176.741 191.904 174.864C193.303 172.871 195.081 171.173 197.138 169.869C199.195 168.565 201.488 167.68 203.888 167.264C210.149 165.846 215.291 166.587 219.312 169.488C222.696 172.112 224.997 175.889 225.776 180.099C226.555 184.31 225.758 188.66 223.536 192.32C221.04 196.128 216.976 198.667 211.344 199.936C207.005 201.149 202.376 200.775 198.288 198.88C196.102 197.812 194.193 196.252 192.711 194.323C191.229 192.394 190.213 190.147 189.744 187.76V187.76ZM201.76 184.992C202.084 187.228 203.175 189.282 204.848 190.8C205.511 191.302 206.275 191.653 207.088 191.83C207.9 192.007 208.741 192.004 209.553 191.823C210.364 191.642 211.127 191.286 211.787 190.781C212.447 190.276 212.989 189.632 213.376 188.896C214.214 186.747 214.293 184.376 213.6 182.176C213.263 179.993 212.184 177.992 210.544 176.512C209.907 175.996 209.161 175.634 208.361 175.454C207.562 175.273 206.732 175.28 205.936 175.472C205.106 175.644 204.326 176.003 203.655 176.522C202.984 177.04 202.44 177.704 202.064 178.464C201.202 180.538 201.095 182.848 201.76 184.992Z" fill="#010E28"/>
<path d="M237.728 205.712L227.92 162.512L239.12 159.952L240.176 164.576C240.966 162.732 242.113 161.063 243.552 159.664C245.13 158.324 247.016 157.395 249.04 156.96C250.91 156.451 252.879 156.422 254.764 156.875C256.649 157.328 258.389 158.249 259.824 159.552C262.986 162.508 265.131 166.39 265.952 170.64C267.136 175.84 266.784 180.096 264.928 183.44C264.045 185.039 262.825 186.427 261.353 187.507C259.88 188.587 258.19 189.334 256.4 189.696C254.675 190.105 252.888 190.176 251.136 189.904C249.456 189.61 247.855 188.973 246.432 188.032L249.824 202.96L237.728 205.712ZM243.504 175.536C243.798 177.534 244.797 179.362 246.32 180.688C246.931 181.156 247.64 181.479 248.393 181.635C249.147 181.79 249.926 181.772 250.672 181.584C251.365 181.445 252.015 181.146 252.571 180.709C253.127 180.273 253.572 179.712 253.872 179.072C254.552 177.07 254.552 174.899 253.872 172.896C253.579 170.888 252.615 169.038 251.136 167.648C250.587 167.192 249.941 166.869 249.248 166.702C248.554 166.536 247.832 166.531 247.136 166.688C246.401 166.847 245.711 167.17 245.118 167.632C244.525 168.095 244.045 168.686 243.712 169.36C242.929 171.332 242.855 173.516 243.504 175.536Z" fill="#010E28"/>
<path d="M271.088 176.48L282.736 172.656C283.355 173.782 284.32 174.68 285.488 175.216C286.744 175.58 288.074 175.609 289.346 175.301C290.617 174.992 291.786 174.356 292.736 173.456C293.001 173.174 293.194 172.831 293.297 172.458C293.4 172.084 293.411 171.691 293.328 171.312C293.231 170.879 293.008 170.485 292.686 170.18C292.364 169.874 291.957 169.673 291.52 169.6C289.712 169.402 287.888 169.402 286.08 169.6C283.045 169.858 279.994 169.858 276.96 169.6C275.183 169.342 273.518 168.582 272.16 167.408C270.711 166.154 269.71 164.462 269.309 162.589C268.907 160.715 269.128 158.762 269.936 157.024C270.869 155.165 272.319 153.615 274.112 152.56C276.664 151.11 279.437 150.089 282.32 149.536C285.072 148.789 287.917 148.444 290.768 148.512C292.558 148.628 294.293 149.177 295.824 150.112C297.455 151.212 298.839 152.64 299.888 154.304L288.688 158C288.269 157.167 287.573 156.505 286.72 156.128C285.553 155.711 284.287 155.655 283.088 155.968C282.028 156.116 281.045 156.605 280.288 157.36C280.047 157.618 279.873 157.93 279.781 158.271C279.689 158.611 279.682 158.969 279.76 159.312C279.846 159.691 280.046 160.034 280.331 160.297C280.617 160.559 280.975 160.729 281.36 160.784C283.148 160.992 284.957 160.954 286.736 160.672C289.821 160.225 292.951 160.182 296.048 160.544C297.996 160.819 299.82 161.659 301.296 162.96C302.63 164.17 303.558 165.763 303.952 167.52C304.362 169.405 304.211 171.368 303.52 173.168C302.674 175.3 301.201 177.124 299.296 178.4C296.489 180.235 293.345 181.491 290.048 182.096C284.341 183.398 280.074 183.51 277.248 182.432C274.494 181.332 272.281 179.195 271.088 176.48V176.48Z" fill="#010E28"/>
<path d="M310.16 136.912H323.296V146.992L320.88 167.264H312.752L310.16 147.024V136.912ZM310.8 170.32H323.056V181.168H310.8V170.32Z" fill="#010E28"/>
<path d="M205.888 274.528H205.6C198.4 271.728 194.096 269.008 191.856 265.728C190.102 266.06 188.288 265.813 186.688 265.024C184.813 264.106 183.257 262.646 182.224 260.832C181.681 261.249 181.041 261.522 180.364 261.625C179.687 261.729 178.995 261.66 178.352 261.424C176.38 260.686 174.697 259.334 173.552 257.568C172.835 258.102 171.945 258.347 171.056 258.256C166.256 257.872 159.856 248.4 159.392 238.32C159.387 238.107 159.464 237.901 159.607 237.743C159.75 237.585 159.948 237.488 160.16 237.472C160.265 237.468 160.37 237.484 160.468 237.52C160.567 237.557 160.658 237.612 160.735 237.684C160.812 237.755 160.875 237.841 160.919 237.936C160.963 238.032 160.988 238.135 160.992 238.24C161.44 247.84 167.568 256.368 171.2 256.656C171.464 256.686 171.732 256.663 171.987 256.589C172.242 256.515 172.481 256.391 172.688 256.224C171.436 253.943 170.651 251.436 170.376 248.849C170.101 246.261 170.343 243.645 171.088 241.152C172.464 236.352 173.68 234.464 175.152 234.752C177.904 235.44 177.536 245.952 176.08 252.816C175.859 254.054 175.403 255.238 174.736 256.304C175.679 257.886 177.103 259.125 178.8 259.84C179.252 260.012 179.744 260.051 180.218 259.952C180.692 259.852 181.127 259.619 181.472 259.28C180.224 256.192 179.872 251.968 181.664 246.592C183.904 239.504 184.864 239.312 185.36 239.184C185.546 239.145 185.74 239.157 185.92 239.219C186.101 239.281 186.261 239.39 186.384 239.536C187.872 241.216 186.096 252.224 184.24 257.664C184.022 258.319 183.721 258.943 183.344 259.52C184.202 261.251 185.601 262.655 187.328 263.52C188.461 264.071 189.72 264.308 190.976 264.208C190.832 263.904 190.704 263.6 190.576 263.28C189.312 259.84 189.936 255.888 192.48 251.152C194.16 248.032 195.536 246.56 196.816 246.56C197.156 246.565 197.487 246.666 197.771 246.854C198.054 247.041 198.278 247.305 198.416 247.616C199.808 250.192 198.8 258.688 196.048 262.912C195.403 263.88 194.507 264.655 193.456 265.152C195.6 267.968 199.68 270.448 206.256 272.976C206.354 273.012 206.445 273.067 206.522 273.138C206.599 273.209 206.661 273.295 206.704 273.39C206.747 273.485 206.771 273.589 206.774 273.693C206.776 273.798 206.758 273.902 206.72 274C206.658 274.167 206.543 274.308 206.392 274.404C206.242 274.499 206.065 274.543 205.888 274.528ZM196.8 248.176C196.8 248.176 195.888 248.176 193.872 251.936C191.552 256.224 190.96 259.76 192.064 262.736C192.198 263.105 192.358 263.463 192.544 263.808C193.41 263.45 194.147 262.836 194.656 262.048C196.896 258.624 197.968 251.584 197.136 248.832C197.024 248.272 196.8 248.176 196.8 248.176ZM185.312 241.44C184.446 243.262 183.729 245.151 183.168 247.088C181.941 250.446 181.729 254.091 182.56 257.568L182.704 257.152C184.384 252.08 185.28 246.782 185.36 241.44H185.312ZM174.784 236.4C174.512 236.64 173.728 237.648 172.624 241.552C171.318 245.933 171.73 250.648 173.776 254.736C174.104 254.021 174.346 253.269 174.496 252.496C176.208 244.64 175.728 237.536 174.832 236.4H174.784Z" fill="#263238"/>
<path d="M266.72 358.4C264.162 358.425 261.643 357.768 259.424 356.496C259.241 356.386 259.109 356.209 259.055 356.003C259.001 355.796 259.03 355.577 259.136 355.392C259.188 355.302 259.259 355.223 259.342 355.16C259.426 355.098 259.521 355.052 259.623 355.027C259.724 355.002 259.829 354.997 259.933 355.013C260.036 355.029 260.135 355.065 260.224 355.12C265.936 358.464 273.312 356.128 274.832 353.68C274.942 353.527 275.019 353.353 275.061 353.168C275.102 352.984 275.106 352.794 275.072 352.608C272.151 352.776 269.259 351.953 266.864 350.272C262.784 347.728 262.464 346.96 262.496 346.352C262.504 346.177 262.558 346.008 262.654 345.862C262.75 345.715 262.883 345.597 263.04 345.52C264.64 344.72 271.856 348.032 274.864 350.016C275.224 350.256 275.557 350.535 275.856 350.848C277.038 350.58 278.103 349.941 278.896 349.024C279.342 348.5 279.665 347.882 279.84 347.216H279.52C276.96 347.472 274.4 346.368 271.664 343.84C269.776 342.112 269.056 340.912 269.296 339.968C269.368 339.703 269.516 339.464 269.72 339.28C269.924 339.095 270.176 338.973 270.448 338.928C272.656 338.368 278.128 340.704 280.352 343.152C280.848 343.684 281.2 344.334 281.376 345.04C283.472 344.064 285.68 341.84 288.288 338.208C288.348 338.122 288.426 338.048 288.515 337.991C288.604 337.935 288.704 337.897 288.808 337.879C288.912 337.861 289.018 337.864 289.121 337.887C289.224 337.911 289.322 337.955 289.408 338.016C289.579 338.141 289.695 338.328 289.731 338.537C289.767 338.746 289.72 338.961 289.6 339.136C286.576 343.36 284.048 345.76 281.52 346.736C281.389 347.919 280.904 349.034 280.128 349.936C279.206 351.007 277.995 351.791 276.64 352.192C276.716 352.574 276.715 352.967 276.639 353.349C276.562 353.731 276.41 354.093 276.192 354.416C274.848 356.704 270.976 358.4 266.72 358.4ZM265.296 347.296C265.84 347.696 266.608 348.224 267.712 348.896C269.432 350.057 271.409 350.781 273.472 351.008C270.896 349.464 268.153 348.218 265.296 347.296V347.296ZM270.88 340.496C271.339 341.361 271.977 342.119 272.752 342.72C275.12 344.912 277.28 345.92 279.36 345.664H279.872C279.758 345.167 279.515 344.709 279.168 344.336C276.928 341.808 272 340.24 270.88 340.496Z" fill="#263238"/>
<path d="M287.904 356.208L262.976 360.736L240.336 237.184L192.24 245.92L113.84 385.12L122.256 431.056L222.816 412.8L229.696 450.368L277.792 441.6L270.912 404.032L295.84 399.504L287.904 356.208ZM161.744 379.2L203.344 306.288L214.944 369.552L161.744 379.2Z" fill="url(#paint0_linear)"/>
<path d="M488.688 228.8C487.931 221.033 486.211 213.39 483.568 206.048C480.849 199.015 477.072 192.437 472.368 186.544C466.799 179.687 459.883 174.046 452.048 169.968C443.514 165.285 432.197 162.027 418.096 160.192C388.816 156.373 366 161.568 349.648 175.776C333.296 189.984 322.522 217.184 317.328 257.376C315.254 272.397 314.717 287.59 315.728 302.72C316.794 316.587 319.344 327.749 323.376 336.208C328.506 347.615 336.601 357.438 346.816 364.656C356.917 371.749 370.784 376.437 388.416 378.72C419.754 382.805 442.992 376.784 458.128 360.656C473.264 344.528 483.29 317.275 488.208 278.896C490.394 262.278 490.555 245.456 488.688 228.8V228.8Z" fill="url(#paint1_linear)"/>
<path d="M402.832 362.288C398.976 362.16 394.832 361.808 390.656 361.264C376 359.36 364.672 355.648 356.96 350.24C349.269 344.809 343.188 337.402 339.36 328.8L339.28 328.624C336.208 322.224 334.192 313.024 333.312 301.424C332.38 287.49 332.873 273.498 334.784 259.664C340.496 215.312 352.288 196.8 361.168 189.088C371.536 180.096 385.536 176.032 403.936 176.672C407.712 176.8 411.712 177.136 415.824 177.664C427.632 179.264 436.992 181.824 443.616 185.44C449.34 188.388 454.407 192.464 458.512 197.424C462.104 201.904 464.99 206.905 467.072 212.256C469.198 218.223 470.573 224.43 471.168 230.736C472.874 246.016 472.718 261.446 470.704 276.688C466.272 311.152 457.696 335.376 445.232 348.688C435.984 358.544 422.112 363.088 402.816 362.352L402.832 362.288Z" fill="#263238"/>
<path d="M434.144 229.264L434.352 223.2L430.624 221.984C430.465 219.933 430.134 217.899 429.632 215.904L432.832 213.568L430.688 207.872L426.784 208.192C425.866 206.361 424.796 204.611 423.584 202.96L425.6 199.584L421.44 195.152L417.952 196.944C416.391 195.602 414.722 194.392 412.96 193.328L413.52 189.456L407.984 186.944L405.456 189.92C403.499 189.285 401.492 188.814 399.456 188.512L398.512 184.72L392.432 184.512L391.232 188.224C389.182 188.388 387.148 188.72 385.152 189.216L382.8 186.016L377.104 188.144L377.424 192.048C375.594 192.967 373.844 194.037 372.192 195.248L368.832 193.216L364.384 197.36L366.176 200.864C364.83 202.423 363.626 204.099 362.576 205.872L358.704 205.28L356.176 210.816L359.168 213.344C358.519 215.303 358.047 217.316 357.76 219.36L353.952 220.32L353.744 226.368L357.472 227.584C357.628 229.64 357.96 231.68 358.464 233.68L355.264 236L357.408 241.696L361.312 241.376C362.221 243.211 363.292 244.962 364.512 246.608L362.48 249.984L366.64 254.416L370.128 252.64C371.689 253.976 373.359 255.181 375.12 256.24L374.544 260.112L380.08 262.624L382.624 259.664C384.587 260.295 386.6 260.76 388.64 261.056L389.584 264.864L395.648 265.072L396.848 261.344C398.905 261.188 400.944 260.856 402.944 260.352L405.264 263.552L410.96 261.424L410.656 257.536C412.48 256.605 414.229 255.535 415.888 254.336L419.248 256.352L423.696 252.208L421.92 248.704C423.261 247.149 424.46 245.479 425.504 243.712L429.376 244.288L431.904 238.752L428.928 236.224C429.565 234.268 430.031 232.26 430.32 230.224L434.144 229.264ZM393.184 248.896C388.445 248.723 383.864 247.149 380.018 244.375C376.172 241.6 373.235 237.748 371.576 233.306C369.918 228.863 369.612 224.029 370.699 219.413C371.785 214.797 374.215 210.606 377.681 207.37C381.147 204.133 385.494 201.996 390.174 201.228C394.854 200.461 399.656 201.096 403.974 203.055C408.293 205.014 411.935 208.208 414.439 212.235C416.944 216.262 418.2 220.94 418.048 225.68C417.947 228.839 417.223 231.947 415.917 234.826C414.611 237.704 412.75 240.297 410.44 242.454C408.129 244.611 405.416 246.29 402.455 247.396C399.493 248.501 396.343 249.011 393.184 248.896V248.896Z" fill="url(#paint2_linear)"/>
<path opacity="0.3" d="M459.392 340.592L459.84 336.496L457.376 335.504C457.372 334.11 457.254 332.719 457.024 331.344L459.248 329.92L458.112 325.968H455.456C454.931 324.683 454.294 323.446 453.552 322.272L455.056 320.096L452.496 316.896L450.048 317.92C449.056 316.939 447.986 316.04 446.848 315.232L447.44 312.64L443.84 310.656L441.952 312.56C440.666 312.031 439.339 311.608 437.984 311.296L437.536 308.688L433.456 308.224L432.448 310.688C431.058 310.695 429.671 310.823 428.304 311.072L426.88 308.8L422.928 309.968V312.624C421.642 313.155 420.405 313.798 419.232 314.544L417.056 312.944L413.856 315.504L414.88 317.952C413.904 318.945 413.011 320.015 412.208 321.152L409.616 320.576L407.648 324.176L409.536 326.048C408.999 327.337 408.577 328.67 408.272 330.032L405.648 330.464L405.216 334.544L407.664 335.568C407.665 336.952 407.788 338.334 408.032 339.696L405.776 341.12L406.928 345.072H409.6C410.134 346.351 410.776 347.582 411.52 348.752L409.92 350.928L412.48 354.128L414.96 353.088C415.944 354.073 417.015 354.967 418.16 355.76L417.6 358.4L421.2 360.368L423.072 358.496C424.359 359.013 425.686 359.425 427.04 359.728L427.504 362.352L431.584 362.8L432.576 360.352C433.991 360.35 435.404 360.232 436.8 360L438.224 362.256L442.16 361.104V358.448C443.446 357.908 444.687 357.266 445.872 356.528L448.016 358.128L451.216 355.552L450.176 353.104C451.162 352.112 452.066 351.042 452.88 349.904L455.456 350.48L457.44 346.88L455.552 345.024C456.066 343.736 456.478 342.409 456.784 341.056L459.392 340.592ZM438.8 338.992C438.123 340.231 437.094 341.241 435.842 341.895C434.591 342.548 433.174 342.816 431.77 342.664C430.367 342.513 429.04 341.948 427.957 341.042C426.875 340.135 426.086 338.929 425.689 337.574C425.293 336.219 425.307 334.777 425.73 333.43C426.154 332.083 426.967 330.892 428.068 330.008C429.168 329.123 430.506 328.585 431.912 328.461C433.318 328.338 434.73 328.634 435.968 329.312C437.623 330.224 438.85 331.754 439.381 333.568C439.911 335.382 439.702 337.332 438.8 338.992V338.992Z" fill="url(#paint3_linear)"/>
<path d="M482.065 271.44L477.265 268.144C476.792 266.43 476.149 264.769 475.345 263.184L476.561 258.384L469.649 250.976L464.849 251.872C463.326 250.965 461.718 250.209 460.049 249.616V249.616L457.089 244.624L446.961 244.288L443.665 249.088C441.949 249.553 440.286 250.196 438.705 251.008L433.905 249.776L426.497 256.704L427.393 261.504C426.473 263.019 425.717 264.628 425.137 266.304L420.161 269.264L419.809 279.392L424.609 282.688C425.074 284.414 425.717 286.087 426.529 287.68V287.68L425.313 292.48L432.225 299.888L437.025 299.008C438.548 299.913 440.156 300.668 441.825 301.264V301.264L444.769 306.24L454.913 306.592L458.193 301.792C459.922 301.322 461.6 300.679 463.201 299.872V299.872L468.001 301.088L475.409 294.176L474.529 289.376C475.438 287.854 476.194 286.246 476.785 284.576V284.576L481.761 281.616L482.065 271.44ZM450.497 286.832C448.245 286.754 446.066 286.011 444.237 284.696C442.407 283.38 441.009 281.552 440.219 279.442C439.429 277.332 439.282 275.034 439.797 272.841C440.313 270.647 441.467 268.656 443.114 267.119C444.761 265.581 446.827 264.567 449.051 264.203C451.275 263.84 453.556 264.144 455.607 265.078C457.658 266.012 459.386 267.532 460.572 269.448C461.759 271.363 462.35 273.588 462.273 275.84C462.164 278.857 460.864 281.709 458.656 283.769C456.449 285.83 453.515 286.931 450.497 286.832V286.832Z" fill="white"/>
<path d="M516.8 190.592L517.631 188.592C518.197 188.273 518.733 187.904 519.231 187.488H521.087L523.264 184.288L522.56 182.576C522.829 182.006 523.043 181.411 523.2 180.8V180.8L524.799 179.328L524.127 175.568L522.112 174.736C521.795 174.168 521.426 173.633 521.008 173.136V171.28L517.887 169.104L516.16 169.824C515.528 169.601 514.873 169.451 514.208 169.376L512.735 167.776L508.991 168.448L508.144 170.464C507.55 170.772 506.987 171.136 506.464 171.552V171.552H504.624L502.448 174.752L503.152 176.464C502.937 177.098 502.786 177.752 502.704 178.416L501.104 179.904L501.775 183.648L503.792 184.48C504.097 185.05 504.461 185.586 504.879 186.08V186.08V187.92L508.079 190.096L509.791 189.392C510.432 189.6 511.091 189.745 511.76 189.824V189.824L513.231 191.424L516.8 190.592ZM508.8 180.224C508.648 179.389 508.748 178.528 509.086 177.75C509.424 176.972 509.986 176.312 510.699 175.853C511.413 175.394 512.247 175.157 513.095 175.172C513.943 175.187 514.768 175.453 515.465 175.937C516.162 176.421 516.699 177.101 517.01 177.891C517.32 178.68 517.389 179.544 517.208 180.373C517.027 181.202 516.605 181.959 515.994 182.547C515.383 183.136 514.611 183.53 513.775 183.68C512.658 183.876 511.508 183.623 510.576 182.976C509.645 182.328 509.006 181.339 508.8 180.224V180.224Z" fill="url(#paint4_linear)"/>
<path d="M472.976 179.984L471.744 178.944C474.384 175.669 477.647 172.95 481.344 170.944L482.096 172.352C478.58 174.266 475.48 176.86 472.976 179.984V179.984Z" fill="url(#paint5_linear)"/>
<path d="M485.744 170.88L485.12 169.408C491.029 166.84 497.489 165.806 503.904 166.4L503.744 168C497.597 167.421 491.404 168.412 485.744 170.88V170.88Z" fill="url(#paint6_linear)"/>
<path d="M482.72 181.952L481.408 181.056C485.263 175.851 490.873 172.218 497.2 170.832L497.504 172.432C491.591 173.723 486.342 177.103 482.72 181.952V181.952Z" fill="url(#paint7_linear)"/>
<path d="M376.543 336C376.325 335.994 376.118 335.902 375.967 335.744L372.623 332.288C370.918 332.134 369.231 331.823 367.583 331.36L362.351 333.664C362.236 333.727 362.107 333.76 361.975 333.76C361.844 333.76 361.714 333.727 361.599 333.664L352.831 327.856C352.718 327.782 352.626 327.679 352.564 327.559C352.503 327.438 352.473 327.304 352.479 327.168V321.472C351.409 320.134 350.466 318.698 349.663 317.184L345.167 315.456C345.041 315.407 344.93 315.328 344.843 315.224C344.756 315.121 344.697 314.997 344.671 314.864L342.591 304.56C342.564 304.429 342.57 304.292 342.609 304.164C342.648 304.035 342.719 303.918 342.815 303.824L346.271 300.48C346.436 298.777 346.747 297.091 347.199 295.44L344.895 290.208C344.832 290.093 344.799 289.964 344.799 289.832C344.799 289.701 344.832 289.572 344.895 289.456L350.703 280.688C350.775 280.573 350.877 280.479 350.998 280.417C351.12 280.355 351.255 280.327 351.391 280.336L357.087 280.416C358.422 279.341 359.858 278.398 361.375 277.6L363.119 273.104C363.165 272.979 363.242 272.869 363.343 272.782C363.444 272.695 363.565 272.635 363.695 272.608L373.999 270.528C374.131 270.499 374.268 270.504 374.397 270.544C374.525 270.583 374.642 270.655 374.735 270.752L378.079 274.208C379.789 274.364 381.481 274.675 383.135 275.136L388.351 272.832C388.469 272.769 388.601 272.736 388.735 272.736C388.869 272.736 389.001 272.769 389.119 272.832L397.871 278.64C397.982 278.718 398.073 278.821 398.137 278.94C398.201 279.06 398.236 279.193 398.239 279.328L398.143 285.024C399.218 286.362 400.167 287.798 400.975 289.312L405.455 291.056C405.58 291.102 405.691 291.179 405.778 291.28C405.864 291.381 405.924 291.502 405.951 291.632L408.047 301.936C408.072 302.068 408.064 302.204 408.025 302.332C407.986 302.46 407.917 302.577 407.823 302.672L404.351 306.032C404.191 307.731 403.881 309.412 403.423 311.056L405.727 316.288C405.79 316.406 405.823 316.538 405.823 316.672C405.823 316.806 405.79 316.938 405.727 317.056L399.999 325.744C399.924 325.853 399.824 325.942 399.707 326.003C399.59 326.064 399.459 326.096 399.327 326.096L393.615 326.016C392.276 327.077 390.846 328.019 389.343 328.832L387.599 333.328C387.552 333.455 387.472 333.567 387.368 333.654C387.265 333.741 387.14 333.8 387.007 333.824L376.703 336H376.543ZM367.535 329.6C367.609 329.586 367.685 329.586 367.759 329.6C369.487 330.104 371.261 330.431 373.055 330.576C373.247 330.599 373.427 330.683 373.567 330.816L376.767 334.176L386.207 332.272L387.903 327.888C387.982 327.711 388.117 327.565 388.287 327.472C389.885 326.646 391.392 325.654 392.783 324.512C392.93 324.388 393.119 324.325 393.311 324.336L398.863 324.416L404.175 316.416L401.935 311.328C401.872 311.152 401.872 310.96 401.935 310.784C402.43 309.054 402.757 307.281 402.911 305.488C402.928 305.294 403.013 305.113 403.151 304.976L406.511 301.776L404.607 292.336L400.239 290.64C400.052 290.572 399.897 290.435 399.807 290.256C398.977 288.66 397.985 287.154 396.847 285.76C396.733 285.614 396.671 285.434 396.671 285.248V279.68L388.671 274.368L383.599 276.608C383.418 276.673 383.22 276.673 383.039 276.608C381.305 276.107 379.526 275.781 377.727 275.632C377.535 275.61 377.355 275.525 377.215 275.392L374.015 272.032L364.575 273.952L362.895 278.4C362.828 278.584 362.698 278.737 362.527 278.832C360.923 279.657 359.41 280.649 358.015 281.792C357.946 281.855 357.865 281.902 357.777 281.933C357.689 281.963 357.596 281.975 357.503 281.968L351.951 281.888L346.623 289.888L348.863 294.976C348.914 295.084 348.941 295.201 348.941 295.32C348.941 295.439 348.914 295.557 348.863 295.664C348.389 297.353 348.078 299.084 347.935 300.832C347.92 301.026 347.835 301.208 347.695 301.344L344.335 304.544L346.255 313.984L350.607 315.68C350.801 315.761 350.96 315.908 351.055 316.096C351.88 317.682 352.867 319.178 353.999 320.56C354.118 320.704 354.181 320.886 354.175 321.072V326.64L362.175 331.952L367.263 329.712C367.346 329.659 367.439 329.621 367.535 329.6V329.6ZM375.391 324.416C371.54 324.413 367.762 323.366 364.458 321.387C361.154 319.408 358.449 316.57 356.628 313.176C354.808 309.782 353.942 305.959 354.121 302.112C354.301 298.265 355.519 294.538 357.647 291.328V291.328C359.683 288.249 362.482 285.75 365.773 284.077C369.063 282.404 372.731 281.613 376.419 281.783C380.106 281.952 383.686 283.076 386.809 285.043C389.932 287.011 392.491 289.756 394.236 293.009C395.98 296.262 396.851 299.912 396.762 303.602C396.673 307.292 395.628 310.896 393.729 314.062C391.829 317.227 389.141 319.845 385.927 321.66C382.713 323.475 379.082 324.425 375.391 324.416ZM358.991 292.208C356.838 295.458 355.696 299.273 355.71 303.171C355.724 307.069 356.894 310.876 359.072 314.109C361.249 317.343 364.337 319.858 367.944 321.337C371.551 322.816 375.515 323.192 379.336 322.418C383.156 321.644 386.662 319.754 389.409 316.988C392.156 314.222 394.021 310.704 394.768 306.878C395.516 303.052 395.112 299.09 393.608 295.494C392.104 291.897 389.568 288.827 386.319 286.672C384.165 285.23 381.746 284.229 379.203 283.727C376.66 283.225 374.042 283.231 371.502 283.746C368.961 284.261 366.547 285.273 364.4 286.726C362.253 288.178 360.414 290.042 358.991 292.208V292.208Z" fill="white"/>
<path d="M681.328 370.64L656.208 367.248L672.816 242.752L624.368 236.224L506.848 344.416L500.672 390.704L601.936 404.368L596.88 442.24L645.328 448.768L650.384 410.912L675.504 414.304L681.328 370.64ZM554.256 353.488L616.272 296.96L607.76 360.704L554.256 353.488Z" fill="url(#paint8_linear)"/>
<path d="M630.608 447.584H630.4C630.192 447.545 630.008 447.426 629.888 447.252C629.769 447.078 629.722 446.864 629.76 446.656L667.2 241.952C667.242 241.746 667.363 241.565 667.535 241.446C667.708 241.327 667.92 241.279 668.128 241.312C668.335 241.351 668.519 241.47 668.639 241.644C668.759 241.818 668.805 242.032 668.768 242.24L631.408 446.928C631.371 447.113 631.271 447.279 631.125 447.399C630.979 447.519 630.796 447.584 630.608 447.584V447.584Z" fill="#263238"/>
<path d="M663.727 245.392C663.715 245.74 663.564 246.069 663.309 246.306C663.054 246.543 662.715 246.669 662.367 246.656C662.019 246.643 661.691 246.493 661.454 246.238C661.217 245.983 661.091 245.644 661.103 245.296C661.116 244.948 661.267 244.62 661.522 244.382C661.777 244.145 662.115 244.019 662.463 244.032C662.811 244.045 663.14 244.195 663.377 244.45C663.614 244.705 663.74 245.044 663.727 245.392Z" fill="#263238"/>
<path d="M658.401 273.072C658.391 273.331 658.305 273.582 658.153 273.792C658.001 274.002 657.79 274.162 657.546 274.253C657.303 274.343 657.039 274.359 656.786 274.299C656.534 274.24 656.305 274.106 656.128 273.916C655.952 273.726 655.835 273.488 655.794 273.232C655.753 272.976 655.788 272.713 655.896 272.477C656.004 272.241 656.18 272.043 656.4 271.906C656.621 271.77 656.877 271.702 657.136 271.712C657.309 271.718 657.478 271.758 657.635 271.83C657.792 271.901 657.933 272.003 658.051 272.13C658.168 272.256 658.259 272.404 658.319 272.566C658.379 272.728 658.407 272.899 658.401 273.072Z" fill="#263238"/>
<path d="M653.072 300.8C653.066 300.972 653.026 301.142 652.954 301.298C652.882 301.455 652.78 301.596 652.654 301.714C652.528 301.831 652.38 301.923 652.218 301.983C652.056 302.043 651.884 302.07 651.712 302.064C651.541 302.06 651.371 302.022 651.215 301.952C651.058 301.882 650.917 301.781 650.799 301.656C650.682 301.531 650.59 301.384 650.53 301.223C650.47 301.062 650.442 300.891 650.448 300.72C650.452 300.546 650.491 300.375 650.562 300.216C650.632 300.058 650.734 299.915 650.861 299.796C650.987 299.676 651.136 299.584 651.299 299.523C651.461 299.462 651.635 299.433 651.808 299.44C652.155 299.456 652.481 299.608 652.717 299.862C652.954 300.116 653.081 300.453 653.072 300.8Z" fill="#263238"/>
<path d="M642.576 329.6C642.54 329.921 642.388 330.217 642.147 330.433C641.906 330.648 641.595 330.767 641.272 330.767C640.949 330.767 640.637 330.648 640.397 330.433C640.156 330.217 640.004 329.921 639.968 329.6C639.948 329.416 639.966 329.231 640.022 329.055C640.079 328.879 640.171 328.717 640.294 328.58C640.417 328.443 640.568 328.333 640.737 328.257C640.905 328.182 641.087 328.143 641.272 328.143C641.456 328.143 641.639 328.182 641.807 328.257C641.976 328.333 642.126 328.443 642.249 328.58C642.372 328.717 642.465 328.879 642.521 329.055C642.578 329.231 642.596 329.416 642.576 329.6V329.6Z" fill="#263238"/>
<path d="M642.4 356.112C642.396 356.285 642.358 356.455 642.287 356.613C642.216 356.771 642.114 356.913 641.987 357.031C641.86 357.149 641.711 357.24 641.549 357.299C641.386 357.359 641.213 357.385 641.04 357.376C640.781 357.366 640.531 357.28 640.321 357.128C640.11 356.976 639.95 356.765 639.86 356.522C639.769 356.279 639.753 356.014 639.813 355.762C639.873 355.509 640.006 355.281 640.196 355.104C640.386 354.927 640.624 354.811 640.88 354.77C641.136 354.728 641.399 354.764 641.635 354.872C641.871 354.98 642.07 355.155 642.206 355.376C642.342 355.597 642.41 355.853 642.4 356.112Z" fill="#263238"/>
<path d="M637.072 383.792C637.065 384.052 636.982 384.304 636.831 384.517C636.681 384.729 636.471 384.892 636.228 384.985C635.985 385.078 635.72 385.096 635.467 385.038C635.213 384.98 634.983 384.848 634.805 384.658C634.626 384.469 634.508 384.231 634.466 383.974C634.423 383.717 634.458 383.454 634.566 383.217C634.673 382.98 634.849 382.781 635.07 382.644C635.291 382.507 635.548 382.439 635.808 382.448C636.153 382.461 636.479 382.609 636.716 382.86C636.953 383.112 637.081 383.447 637.072 383.792V383.792Z" fill="#263238"/>
<path d="M631.744 411.472C631.732 411.821 631.582 412.151 631.327 412.391C631.072 412.631 630.734 412.76 630.384 412.752C630.212 412.745 630.042 412.705 629.885 412.634C629.729 412.562 629.588 412.46 629.47 412.334C629.353 412.207 629.261 412.059 629.201 411.898C629.141 411.736 629.114 411.564 629.12 411.392C629.125 411.219 629.164 411.05 629.235 410.893C629.306 410.736 629.407 410.594 629.533 410.476C629.658 410.358 629.806 410.265 629.967 410.204C630.128 410.143 630.3 410.114 630.472 410.12C630.644 410.125 630.814 410.164 630.971 410.235C631.128 410.306 631.27 410.407 631.388 410.532C631.506 410.658 631.598 410.805 631.66 410.967C631.721 411.128 631.749 411.299 631.744 411.472V411.472Z" fill="#263238"/>
<path d="M626.4 439.168C626.391 439.427 626.305 439.678 626.152 439.888C626 440.098 625.79 440.259 625.546 440.349C625.303 440.439 625.039 440.456 624.786 440.396C624.534 440.336 624.305 440.202 624.128 440.012C623.952 439.822 623.835 439.584 623.794 439.328C623.753 439.072 623.788 438.809 623.896 438.573C624.004 438.338 624.179 438.139 624.4 438.003C624.621 437.866 624.877 437.799 625.136 437.808C625.309 437.812 625.48 437.851 625.638 437.922C625.796 437.993 625.938 438.095 626.055 438.221C626.173 438.348 626.264 438.497 626.324 438.66C626.383 438.822 626.409 438.995 626.4 439.168V439.168Z" fill="#263238"/>
<path d="M641.264 330.32C641.084 330.32 640.909 330.258 640.769 330.144C640.629 330.031 640.533 329.872 640.496 329.696C640.472 329.593 640.469 329.486 640.487 329.382C640.505 329.278 640.543 329.178 640.6 329.089C640.656 329 640.73 328.923 640.816 328.862C640.903 328.801 641.001 328.758 641.104 328.736L645.072 327.888C645.176 327.864 645.283 327.862 645.389 327.881C645.494 327.9 645.594 327.939 645.683 327.997C645.773 328.056 645.849 328.131 645.909 328.219C645.969 328.308 646.011 328.407 646.032 328.512C646.053 328.615 646.053 328.721 646.033 328.824C646.013 328.927 645.973 329.025 645.915 329.113C645.857 329.201 645.783 329.276 645.696 329.335C645.608 329.394 645.511 329.435 645.408 329.456L641.44 330.304L641.264 330.32Z" fill="#263238"/>
<path d="M654.528 315.584C652.641 320.479 651.038 325.48 649.728 330.56C648.528 336.208 648.464 348.848 648.464 348.848" fill="#263238"/>
<path d="M648.464 349.648C648.252 349.64 648.051 349.551 647.902 349.399C647.753 349.247 647.668 349.044 647.664 348.832C647.664 348.32 647.76 336.032 648.96 330.4C650.262 325.275 651.865 320.232 653.76 315.296C653.792 315.191 653.845 315.093 653.917 315.009C653.988 314.926 654.076 314.857 654.175 314.809C654.274 314.761 654.382 314.734 654.492 314.729C654.602 314.725 654.712 314.743 654.814 314.782C654.917 314.822 655.01 314.883 655.088 314.96C655.167 315.038 655.228 315.13 655.269 315.233C655.309 315.335 655.329 315.444 655.325 315.554C655.321 315.664 655.295 315.772 655.248 315.872C653.362 320.73 651.76 325.693 650.448 330.736C649.28 336.24 649.2 348.72 649.184 348.848C649.185 349.047 649.112 349.239 648.979 349.387C648.846 349.535 648.662 349.628 648.464 349.648Z" fill="#263238"/>
<path d="M355.92 487.744C358.144 451.904 354.064 386.736 421.44 395.376C493.648 404.608 472.992 489.056 472.992 489.056L355.92 487.744Z" fill="#263238"/>
<path d="M402.416 466.208C418.657 466.208 431.824 453.042 431.824 436.8C431.824 420.559 418.657 407.392 402.416 407.392C386.174 407.392 373.008 420.559 373.008 436.8C373.008 453.042 386.174 466.208 402.416 466.208Z" fill="white"/>
<path d="M406.288 407.44C392.352 405.072 377.488 415.328 376 425.728L431.216 430.816C429.264 418.96 417.328 409.328 406.288 407.44Z" fill="#263238"/>
<path d="M424.928 436.064C424.528 443.76 420.336 449.792 415.568 449.536C410.8 449.28 407.248 442.864 407.568 435.136C407.888 427.408 412.16 421.408 416.928 421.664C421.696 421.92 425.312 428.384 424.928 436.064Z" fill="#263238"/>
<path d="M402.416 467.808C396.283 467.808 390.288 465.989 385.189 462.582C380.09 459.175 376.115 454.332 373.769 448.666C371.422 443 370.808 436.766 372.004 430.751C373.2 424.736 376.154 419.211 380.49 414.874C384.827 410.537 390.352 407.584 396.367 406.388C402.382 405.191 408.617 405.805 414.282 408.152C419.948 410.499 424.791 414.474 428.198 419.573C431.606 424.672 433.424 430.667 433.424 436.8C433.416 445.021 430.146 452.903 424.333 458.717C418.52 464.53 410.637 467.8 402.416 467.808V467.808ZM402.416 409.008C396.916 409.008 391.539 410.639 386.965 413.696C382.392 416.752 378.828 421.096 376.723 426.178C374.619 431.26 374.069 436.852 375.144 442.247C376.218 447.642 378.868 452.596 382.759 456.485C386.649 460.373 391.606 463.02 397.001 464.092C402.396 465.163 407.988 464.61 413.069 462.503C418.15 460.395 422.492 456.829 425.546 452.254C428.599 447.679 430.227 442.301 430.224 436.8C430.216 429.429 427.283 422.362 422.069 417.152C416.856 411.941 409.787 409.012 402.416 409.008V409.008Z" fill="url(#paint9_linear)"/>
<path opacity="0.3" d="M464.784 486.848H464.592C464.489 486.825 464.392 486.782 464.306 486.721C464.22 486.661 464.147 486.583 464.092 486.494C464.037 486.404 464 486.304 463.984 486.2C463.968 486.096 463.974 485.99 464 485.888C464 485.68 469.152 463.984 463.856 442.048C463.805 441.836 463.84 441.612 463.954 441.426C464.068 441.24 464.252 441.107 464.464 441.056C464.676 441.005 464.9 441.04 465.086 441.154C465.272 441.268 465.405 441.452 465.456 441.664C470.848 464.064 465.648 486.048 465.6 486.256C465.552 486.433 465.445 486.589 465.297 486.697C465.148 486.804 464.967 486.858 464.784 486.848V486.848Z" fill="white"/>
<path opacity="0.3" d="M460.32 430.016C460.166 430.014 460.016 429.97 459.886 429.888C459.756 429.806 459.651 429.69 459.584 429.552C457.595 425.156 455.046 421.037 452 417.296C451.867 417.132 451.804 416.923 451.825 416.713C451.846 416.503 451.949 416.31 452.112 416.176C452.193 416.108 452.287 416.056 452.389 416.025C452.49 415.994 452.597 415.983 452.703 415.994C452.809 416.004 452.911 416.035 453.005 416.086C453.098 416.136 453.181 416.205 453.248 416.288C456.369 420.137 458.987 424.369 461.04 428.88C461.085 428.974 461.111 429.077 461.117 429.181C461.122 429.286 461.106 429.39 461.07 429.489C461.035 429.587 460.98 429.678 460.908 429.754C460.837 429.831 460.751 429.893 460.656 429.936C460.55 429.985 460.436 430.012 460.32 430.016V430.016Z" fill="white"/>
<path d="M205.968 655.872H205.376C203.254 655.812 201.243 654.913 199.785 653.37C198.326 651.828 197.54 649.77 197.6 647.648C197.659 645.526 198.559 643.515 200.101 642.057C201.644 640.598 203.702 639.812 205.824 639.872H205.968C210.592 639.872 221.712 634.256 244.976 597.584C245.593 596.61 246.414 595.781 247.382 595.154C248.35 594.527 249.442 594.116 250.583 593.951C251.724 593.785 252.888 593.868 253.994 594.194C255.1 594.52 256.123 595.082 256.992 595.84C275.262 611.545 295.187 625.215 316.416 636.608C317.398 637.055 318.28 637.696 319.008 638.492C319.737 639.289 320.296 640.224 320.653 641.243C321.01 642.261 321.158 643.342 321.086 644.418C321.015 645.495 320.727 646.547 320.238 647.509C319.75 648.472 319.072 649.326 318.245 650.019C317.418 650.713 316.46 651.232 315.427 651.545C314.394 651.859 313.309 651.96 312.236 651.843C311.163 651.726 310.125 651.393 309.184 650.864C289.454 640.38 270.804 627.979 253.504 613.84C234 643.2 219.536 655.872 205.968 655.872Z" fill="#263238"/>
<path d="M255.472 594.4H254.784C253.527 594.217 252.393 593.544 251.632 592.527C250.87 591.511 250.542 590.233 250.72 588.976C251.856 580.976 250.448 551.168 240.352 527.968C239.905 526.942 239.829 525.793 240.139 524.718C240.448 523.643 241.124 522.71 242.048 522.08C263.968 507.152 310.656 505.36 312.64 505.296C313.271 505.275 313.899 505.378 314.49 505.6C315.08 505.822 315.621 506.158 316.081 506.588C316.542 507.019 316.913 507.537 317.174 508.111C317.434 508.685 317.579 509.305 317.6 509.936C317.621 510.566 317.518 511.194 317.296 511.785C317.074 512.375 316.739 512.916 316.308 513.377C315.877 513.837 315.359 514.208 314.785 514.469C314.211 514.73 313.591 514.875 312.96 514.896C312.528 514.896 271.712 516.496 250.752 528.016C259.68 551.12 261.712 579.904 260.224 590.32C260.052 591.456 259.478 592.493 258.606 593.241C257.734 593.99 256.622 594.401 255.472 594.4Z" fill="#263238"/>
<path d="M263.535 588.192C260.335 580.656 245.935 581.504 237.503 587.968C232.991 591.408 226.879 601.792 226.303 605.568C226.111 606.465 226.14 607.395 226.387 608.279C226.634 609.163 227.092 609.973 227.722 610.641C228.351 611.308 229.134 611.812 230.001 612.111C230.869 612.409 231.796 612.491 232.703 612.352C238.223 611.872 245.791 603.856 245.791 603.856C240.751 608.8 247.263 612.288 256.991 605.136C262.303 601.152 267.103 596.624 263.535 588.192Z" fill="url(#paint10_linear)"/>
<path d="M538.736 489.856C538.662 489.872 538.585 489.872 538.512 489.856C538.41 489.828 538.314 489.78 538.231 489.715C538.148 489.65 538.079 489.568 538.028 489.476C537.977 489.383 537.946 489.281 537.935 489.176C537.925 489.071 537.936 488.965 537.968 488.864C540.096 481.44 542.416 476.912 545.472 474.464C544.993 472.743 545.082 470.913 545.728 469.248C546.473 467.303 547.79 465.63 549.504 464.448C549.038 463.944 548.707 463.331 548.542 462.665C548.377 461.999 548.383 461.303 548.56 460.64C549.139 458.635 550.338 456.866 551.984 455.584C551.39 454.92 551.065 454.058 551.072 453.168C551.072 448.368 559.888 441.136 569.888 439.76C570.1 439.73 570.315 439.786 570.486 439.915C570.657 440.044 570.77 440.236 570.8 440.448C570.829 440.66 570.774 440.875 570.645 441.046C570.516 441.217 570.324 441.33 570.112 441.36C560.608 442.656 552.64 449.536 552.672 453.168C552.668 453.709 552.875 454.231 553.248 454.624C555.4 453.164 557.821 452.148 560.371 451.634C562.92 451.121 565.546 451.12 568.096 451.632C573.008 452.576 575.008 453.616 574.784 455.104C574.336 457.904 563.888 458.496 556.88 457.664C555.624 457.55 554.402 457.197 553.28 456.624C551.771 457.698 550.649 459.229 550.08 460.992C549.942 461.458 549.943 461.954 550.083 462.42C550.222 462.886 550.493 463.301 550.864 463.616C553.84 462.016 558.016 461.44 563.536 462.656C570.784 464.256 571.056 465.136 571.232 465.664C571.288 465.85 571.293 466.049 571.245 466.238C571.197 466.426 571.098 466.599 570.96 466.736C569.44 468.336 558.32 467.584 552.736 466.208C552.061 466.054 551.411 465.812 550.8 465.488C549.147 466.492 547.875 468.017 547.184 469.824C546.722 470.992 546.594 472.267 546.816 473.504C547.1 473.333 547.394 473.178 547.696 473.04C551.008 471.44 555.008 471.728 559.952 473.84C563.152 475.232 564.752 476.48 564.912 477.744C564.919 478.068 564.838 478.388 564.677 478.67C564.516 478.952 564.282 479.185 564 479.344C561.552 480.944 553.008 480.72 548.56 478.352C547.537 477.796 546.685 476.972 546.096 475.968C543.488 478.368 541.376 482.64 539.456 489.344C539.398 489.489 539.299 489.615 539.171 489.706C539.043 489.796 538.892 489.848 538.736 489.856V489.856ZM547.408 474.928C547.853 475.755 548.532 476.434 549.36 476.88C552.976 478.8 560.08 479.232 562.736 478.16C563.28 477.936 563.36 477.76 563.36 477.76C563.36 477.76 563.28 476.864 559.36 475.184C554.88 473.264 551.36 472.992 548.432 474.352C548.078 474.522 547.736 474.714 547.408 474.928V474.928ZM552.752 464.416L553.152 464.528C558.362 465.728 563.724 466.133 569.056 465.728C567.165 465.026 565.216 464.491 563.232 464.128C559.786 463.194 556.141 463.294 552.752 464.416V464.416ZM554.768 455.424C555.506 455.689 556.275 455.86 557.056 455.936C565.056 456.88 572.08 455.776 573.056 454.768C572.784 454.528 571.712 453.84 567.744 453.088C563.279 452.197 558.642 453.032 554.768 455.424V455.424Z" fill="#263238"/>
<path d="M330.448 653.2C331.504 652.864 331.152 651.84 329.968 651.84H308.304C267.056 647.472 238.24 653.328 256.4 654.704C274.56 656.08 255.12 655.792 241.856 660.816C228.592 665.84 340.496 667.104 350.656 660.816C360 655.024 315.824 657.888 330.448 653.2Z" fill="#263238"/>
<path d="M485.552 659.584L297.072 653.328L289.248 470.576L511.824 475.552L485.552 659.584Z" fill="url(#paint11_linear)"/>
<path d="M355.919 656.08C355.718 656.081 355.523 656.005 355.375 655.869C355.227 655.732 355.135 655.545 355.119 655.344L340.015 471.792C340.002 471.581 340.071 471.372 340.209 471.211C340.346 471.05 340.541 470.948 340.751 470.928C340.962 470.919 341.168 470.989 341.328 471.126C341.489 471.262 341.591 471.455 341.615 471.664L356.799 655.216C356.808 655.321 356.796 655.427 356.764 655.527C356.731 655.628 356.679 655.721 356.611 655.801C356.543 655.882 356.459 655.948 356.365 655.995C356.271 656.043 356.168 656.072 356.063 656.08H355.919Z" fill="#263238"/>
<path d="M485.552 659.584L536.208 651.872L552.16 481.936L511.824 475.552L485.552 659.584Z" fill="url(#paint12_linear)"/>
<path opacity="0.2" d="M485.552 659.584L536.208 651.872L552.16 481.936L511.824 475.552L485.552 659.584Z" fill="black"/>
<path d="M313.168 618.112L308.528 509.52C308.413 506.837 308.85 504.159 309.812 501.652C310.773 499.145 312.239 496.862 314.118 494.944C315.997 493.026 318.25 491.514 320.736 490.501C323.223 489.488 325.891 488.996 328.576 489.056L469.472 492.256C472.246 492.318 474.976 492.968 477.48 494.163C479.985 495.358 482.208 497.07 484.003 499.187C485.797 501.303 487.123 503.776 487.892 506.443C488.661 509.109 488.856 511.908 488.464 514.656L472.848 624C472.172 628.789 469.752 633.16 466.053 636.275C462.353 639.39 457.634 641.03 452.8 640.88L332.176 636.88C327.224 636.727 322.513 634.708 318.988 631.227C315.462 627.746 313.383 623.061 313.168 618.112V618.112Z" fill="#263238"/>
<path d="M328.4 522.384L350.192 523.072L350.016 528.688L336.368 528.256L336.24 532.448L348.896 532.848L348.72 538.224L336.064 537.808L335.904 543.008L349.936 543.456L349.744 549.408L327.552 548.704L328.4 522.384Z" fill="white"/>
<path d="M354.24 549.552L355.072 523.232L368.64 523.664C370.586 523.654 372.522 523.934 374.384 524.496C375.705 524.938 376.834 525.819 377.584 526.992C378.14 527.846 378.515 528.806 378.684 529.811C378.853 530.816 378.813 531.846 378.567 532.835C378.32 533.824 377.873 534.752 377.253 535.561C376.632 536.37 375.852 537.042 374.96 537.536C374.051 538.004 373.074 538.328 372.064 538.496C372.808 538.736 373.514 539.08 374.16 539.52C374.627 539.953 375.045 540.436 375.408 540.96C375.82 541.458 376.185 541.994 376.496 542.56L380.192 550.32L371.008 550.016L366.912 541.84C366.587 541.059 366.108 540.352 365.504 539.76C364.93 539.345 364.245 539.111 363.536 539.088H362.816L362.48 549.76L354.24 549.552ZM362.912 534.16L366.336 534.272C367.063 534.228 367.785 534.126 368.496 533.968C369.032 533.886 369.517 533.607 369.856 533.184C370.202 532.757 370.399 532.229 370.416 531.68C370.447 531.314 370.395 530.946 370.265 530.603C370.135 530.26 369.929 529.95 369.664 529.696C368.771 529.119 367.717 528.844 366.656 528.912L363.072 528.8L362.912 534.16Z" fill="white"/>
<path d="M382.848 550.4L383.68 524.08L397.232 524.512C399.177 524.5 401.113 524.781 402.976 525.344C404.299 525.781 405.429 526.663 406.176 527.84C406.988 529.122 407.369 530.63 407.264 532.144C407.268 533.42 406.927 534.675 406.276 535.773C405.626 536.872 404.69 537.774 403.568 538.384C402.657 538.849 401.68 539.173 400.672 539.344C401.411 539.582 402.112 539.927 402.752 540.368C403.23 540.789 403.654 541.267 404.016 541.792C404.425 542.292 404.789 542.827 405.104 543.392L408.8 551.136L399.616 550.848L395.52 542.672C395.192 541.892 394.714 541.185 394.112 540.592C393.54 540.16 392.844 539.924 392.128 539.92H391.424L391.072 550.608L382.848 550.4ZM391.504 535.008L394.944 535.104C395.671 535.076 396.394 534.98 397.104 534.816C397.636 534.736 398.117 534.456 398.448 534.032C398.806 533.612 399.004 533.079 399.008 532.528C399.042 532.163 398.994 531.795 398.867 531.451C398.739 531.108 398.536 530.797 398.272 530.544C397.379 529.952 396.315 529.676 395.248 529.76L391.68 529.648L391.504 535.008Z" fill="white"/>
<path d="M410.112 538.176C409.988 536.339 410.273 534.498 410.946 532.784C411.618 531.071 412.662 529.528 414.002 528.265C415.342 527.003 416.945 526.054 418.696 525.485C420.447 524.916 422.302 524.742 424.128 524.976C425.97 524.914 427.807 525.224 429.527 525.887C431.248 526.549 432.818 527.551 434.144 528.832C435.327 530.194 436.221 531.784 436.771 533.503C437.321 535.222 437.516 537.035 437.344 538.832C437.357 541.446 436.742 544.024 435.552 546.352C434.473 548.256 432.86 549.802 430.912 550.8C428.616 551.897 426.075 552.382 423.536 552.208C421.004 552.229 418.5 551.682 416.208 550.608C414.256 549.549 412.663 547.934 411.632 545.968C410.422 543.558 409.896 540.863 410.112 538.176V538.176ZM418.24 538.464C418 540.48 418.457 542.519 419.536 544.24C420.04 544.803 420.653 545.258 421.337 545.58C422.022 545.901 422.764 546.081 423.519 546.11C424.275 546.138 425.028 546.014 425.735 545.745C426.441 545.476 427.086 545.067 427.632 544.544C428.818 542.747 429.38 540.611 429.232 538.464C429.446 536.535 428.976 534.593 427.904 532.976C427.419 532.416 426.819 531.969 426.145 531.662C425.472 531.356 424.74 531.198 424 531.2C423.253 531.146 422.504 531.262 421.808 531.539C421.113 531.816 420.489 532.247 419.984 532.8C418.772 534.433 418.157 536.432 418.24 538.464V538.464Z" fill="white"/>
<path d="M441.456 552.336L442.288 526L455.84 526.432C457.785 526.429 459.72 526.709 461.584 527.264C462.901 527.713 464.028 528.592 464.784 529.76C465.592 531.044 465.973 532.55 465.872 534.064C465.88 535.344 465.54 536.601 464.889 537.703C464.238 538.805 463.3 539.709 462.176 540.32C461.261 540.773 460.286 541.091 459.28 541.264C460.02 541.508 460.721 541.858 461.36 542.304C461.838 542.725 462.263 543.203 462.624 543.728C463.036 544.226 463.4 544.762 463.712 545.328L467.408 553.088L458.224 552.8L454.128 544.608C453.802 543.832 453.323 543.13 452.72 542.544C452.146 542.114 451.453 541.874 450.736 541.856H450.032L449.68 552.544L441.456 552.336ZM450.112 536.928L453.552 537.04C454.28 537.012 455.003 536.916 455.712 536.752C456.242 536.667 456.721 536.387 457.056 535.968C457.434 535.522 457.633 534.952 457.616 534.368C457.651 534.006 457.602 533.64 457.475 533.299C457.347 532.958 457.144 532.651 456.88 532.4C455.988 531.809 454.923 531.533 453.856 531.616L450.288 531.504L450.112 536.928Z" fill="white"/>
<path d="M454.4 597.056C454.099 597.061 453.801 597.003 453.525 596.884C453.249 596.766 453.002 596.59 452.8 596.368L439.104 581.376L424.32 594.88C423.91 595.255 423.368 595.452 422.813 595.428C422.258 595.404 421.735 595.161 421.36 594.752L407.664 579.76L392.88 593.264C392.47 593.639 391.928 593.836 391.373 593.812C390.818 593.788 390.295 593.545 389.92 593.136L376.208 578.144L361.44 591.648C361.224 591.843 360.971 591.992 360.696 592.085C360.421 592.179 360.129 592.215 359.84 592.192C359.284 592.159 358.762 591.912 358.384 591.504L344.688 576.528L329.92 590.016C329.507 590.392 328.963 590.59 328.405 590.566C327.847 590.542 327.322 590.298 326.944 589.888C326.757 589.685 326.612 589.447 326.518 589.188C326.424 588.928 326.383 588.653 326.396 588.378C326.409 588.102 326.477 587.832 326.596 587.583C326.715 587.334 326.882 587.111 327.088 586.928L343.408 572C343.82 571.623 344.364 571.426 344.922 571.45C345.48 571.474 346.005 571.717 346.384 572.128L360.08 587.12L374.848 573.616C375.267 573.248 375.81 573.053 376.368 573.072C376.924 573.101 377.447 573.349 377.824 573.76L391.52 588.752L406.304 575.248C406.505 575.06 406.742 574.914 407.001 574.819C407.26 574.723 407.535 574.68 407.81 574.692C408.086 574.704 408.356 574.771 408.606 574.888C408.855 575.005 409.079 575.171 409.264 575.376L422.96 590.368L437.744 576.864C438.153 576.488 438.695 576.291 439.25 576.315C439.805 576.339 440.328 576.582 440.704 576.992L456 593.6C456.273 593.905 456.451 594.284 456.513 594.689C456.575 595.094 456.518 595.509 456.348 595.882C456.179 596.255 455.904 596.571 455.558 596.791C455.212 597.01 454.809 597.125 454.4 597.12V597.056Z" fill="white"/>
<path d="M201.2 663.472L191.184 658.688L182.256 615.216L187.104 609.888L201.2 663.472Z" fill="url(#paint13_linear)"/>
<path d="M201.2 663.472L214.496 655.696L203.104 619.888L187.104 609.888L201.2 663.472Z" fill="url(#paint14_linear)"/>
<path opacity="0.2" d="M201.2 663.472L214.496 655.696L203.104 619.888L187.104 609.888L201.2 663.472Z" fill="black"/>
<path d="M419.2 671.376H418.096C415.974 671.319 413.962 670.421 412.502 668.88C411.042 667.339 410.254 665.282 410.312 663.16C410.369 661.038 411.267 659.026 412.807 657.566C414.348 656.106 416.406 655.318 418.527 655.376C430.847 655.776 456.928 648.208 471.84 633.744C472.74 632.86 473.836 632.203 475.04 631.824C500.304 624.24 509.696 639.552 510.08 640.208L496.32 648.352C496.368 648.454 496.427 648.55 496.496 648.64C496.352 648.432 492.768 643.84 481.376 646.656C462.672 663.712 433.968 671.376 419.2 671.376Z" fill="#263238"/>
<path d="M418.224 682L389.088 680.176L386.8 626.448L425.952 627.904L418.224 682Z" fill="url(#paint15_linear)"/>
<path d="M418.225 682L425.041 675.216L429.265 641.728L425.953 627.904L418.225 682Z" fill="url(#paint16_linear)"/>
<path opacity="0.2" d="M418.225 682L425.041 675.216L429.265 641.728L425.953 627.904L418.225 682Z" fill="black"/>
<path d="M587.056 661.664C586.01 661.663 584.993 661.32 584.16 660.688C567.52 648.048 545.04 625.6 536.416 603.952C536.286 603.639 536.195 603.311 536.144 602.976C531.936 577.952 527.92 525.296 527.744 523.072C527.697 522.442 527.774 521.808 527.972 521.208C528.169 520.607 528.483 520.052 528.895 519.572C529.728 518.605 530.911 518.007 532.184 517.912C533.457 517.816 534.716 518.231 535.683 519.063C536.651 519.896 537.248 521.079 537.344 522.352C537.344 522.88 541.456 576.048 545.552 600.864C554.16 621.92 577.552 643.536 590 653.04C590.801 653.648 591.392 654.493 591.687 655.454C591.982 656.416 591.968 657.446 591.646 658.4C591.325 659.353 590.711 660.181 589.893 660.767C589.075 661.352 588.094 661.666 587.088 661.664H587.056Z" fill="#263238"/>
<path d="M609.248 664.08C605.536 664.08 601.328 662.4 596.736 659.088C595.704 658.341 595.012 657.215 594.811 655.958C594.61 654.701 594.917 653.415 595.664 652.384C596.411 651.353 597.536 650.661 598.794 650.46C600.051 650.259 601.337 650.565 602.368 651.312C606.336 654.176 608.496 654.512 609.248 654.512C610.521 654.512 611.742 655.018 612.642 655.918C613.542 656.818 614.048 658.039 614.048 659.312C614.048 660.585 613.542 661.806 612.642 662.706C611.742 663.606 610.521 664.112 609.248 664.112V664.08Z" fill="#263238"/>
<path d="M598.08 658.944C603.216 643.696 624.272 646.704 631.536 648.976C637.741 650.777 643.693 653.358 649.248 656.656C653.168 659.216 653.232 663.52 648 665.968C641.6 668.976 625.344 666.304 625.344 666.304C633.728 669.968 625.344 675.904 610.608 670.08C605.824 668.192 596.272 664.544 598.08 658.944Z" fill="url(#paint17_linear)"/>
<path d="M546.976 529.6C545.072 542.56 534.336 552.112 525.6 550.832C516.864 549.552 516.512 538.032 518.416 525.008C520.32 511.984 523.776 502.608 532.512 503.888C541.248 505.168 548.88 516.688 546.976 529.6Z" fill="#263238"/>
<path d="M335.808 477.92C336.533 477.92 337.12 477.332 337.12 476.608C337.12 475.883 336.533 475.296 335.808 475.296C335.083 475.296 334.496 475.883 334.496 476.608C334.496 477.332 335.083 477.92 335.808 477.92Z" fill="#263238"/>
<path d="M349.136 486.048C349.136 486.307 349.059 486.561 348.915 486.777C348.77 486.993 348.566 487.161 348.326 487.26C348.086 487.359 347.822 487.385 347.568 487.335C347.313 487.284 347.079 487.159 346.896 486.976C346.713 486.792 346.588 486.558 346.537 486.304C346.486 486.049 346.512 485.785 346.612 485.546C346.711 485.306 346.879 485.101 347.095 484.957C347.311 484.813 347.564 484.736 347.824 484.736C348.172 484.736 348.505 484.874 348.751 485.12C348.998 485.366 349.136 485.7 349.136 486.048Z" fill="#263238"/>
<path d="M350.607 641.088C350.607 641.347 350.53 641.601 350.386 641.817C350.242 642.032 350.037 642.201 349.797 642.3C349.558 642.399 349.294 642.425 349.039 642.375C348.785 642.324 348.551 642.199 348.368 642.016C348.184 641.832 348.059 641.598 348.009 641.344C347.958 641.089 347.984 640.826 348.083 640.586C348.183 640.346 348.351 640.141 348.566 639.997C348.782 639.853 349.036 639.776 349.295 639.776C349.643 639.776 349.977 639.914 350.223 640.16C350.469 640.406 350.607 640.74 350.607 641.088V641.088Z" fill="#263238"/>
<path d="M362.624 650.544C362.624 650.803 362.547 651.057 362.403 651.273C362.259 651.488 362.054 651.657 361.814 651.756C361.574 651.855 361.311 651.881 361.056 651.831C360.802 651.78 360.568 651.655 360.384 651.472C360.201 651.288 360.076 651.054 360.025 650.8C359.975 650.545 360.001 650.282 360.1 650.042C360.199 649.802 360.367 649.597 360.583 649.453C360.799 649.309 361.053 649.232 361.312 649.232C361.66 649.232 361.994 649.37 362.24 649.616C362.486 649.862 362.624 650.196 362.624 650.544Z" fill="#263238"/>
<path d="M132.016 666.272C129.712 666.164 127.463 665.541 125.433 664.447C123.403 663.353 121.644 661.817 120.288 659.952C120.221 659.866 120.173 659.768 120.146 659.663C120.118 659.558 120.113 659.448 120.129 659.341C120.146 659.234 120.184 659.131 120.241 659.039C120.299 658.947 120.374 658.867 120.464 658.805C120.553 658.743 120.653 658.7 120.76 658.678C120.866 658.656 120.976 658.657 121.082 658.679C121.188 658.701 121.289 658.744 121.378 658.806C121.467 658.868 121.543 658.948 121.6 659.04C124.592 663.36 131.2 665.648 134.08 664.288C134.368 664.166 134.625 663.98 134.832 663.744C133.377 663.104 132.102 662.115 131.119 660.865C130.137 659.614 129.478 658.142 129.2 656.576C128.832 654.544 128.544 651.776 130.208 651.424C132.512 650.912 135.52 656.464 136.608 660.672C136.805 661.369 136.875 662.095 136.816 662.816C137.739 663.091 138.709 663.167 139.664 663.04C140.094 663.007 140.512 662.885 140.893 662.681C141.273 662.477 141.606 662.196 141.872 661.856C140.819 661.062 139.945 660.054 139.308 658.899C138.672 657.743 138.286 656.467 138.176 655.152C137.568 650.768 138.032 650.016 138.512 649.632C138.667 649.513 138.853 649.439 139.048 649.419C139.243 649.4 139.44 649.435 139.616 649.52C141.328 650.24 143.392 656.448 143.792 659.968C143.84 660.335 143.84 660.706 143.792 661.072C144.482 661.337 145.213 661.478 145.952 661.488C147.309 661.541 148.65 661.19 149.808 660.48C149.584 660.336 149.376 660.176 149.168 660.016C147.568 658.592 146.832 656.32 147.12 653.088C147.344 650.576 147.904 649.2 148.912 648.768C149.237 648.638 149.593 648.605 149.937 648.673C150.281 648.741 150.597 648.907 150.848 649.152C151.928 650.345 152.735 651.759 153.213 653.295C153.691 654.831 153.829 656.453 153.616 658.048C153.477 658.712 153.199 659.339 152.8 659.888C155.744 660.4 159.872 659.568 163.44 658.688C163.545 658.663 163.654 658.659 163.761 658.676C163.867 658.693 163.97 658.73 164.062 658.787C164.154 658.843 164.234 658.917 164.297 659.005C164.361 659.092 164.407 659.191 164.432 659.296C164.457 659.401 164.461 659.51 164.444 659.617C164.428 659.724 164.39 659.826 164.333 659.918C164.277 660.01 164.203 660.09 164.115 660.154C164.028 660.217 163.929 660.263 163.824 660.288C159.488 661.36 154.816 662.24 151.52 661.28C149.911 662.503 147.941 663.156 145.92 663.136C145.023 663.124 144.135 662.956 143.296 662.64C142.924 663.216 142.424 663.698 141.836 664.051C141.248 664.403 140.587 664.616 139.904 664.672C138.701 664.827 137.479 664.723 136.32 664.368C135.947 664.997 135.388 665.494 134.72 665.792C133.862 666.138 132.941 666.302 132.016 666.272V666.272ZM130.64 653.024C130.419 654.112 130.462 655.237 130.768 656.304C130.994 657.584 131.524 658.79 132.315 659.82C133.106 660.851 134.134 661.675 135.312 662.224C135.289 661.845 135.225 661.469 135.12 661.104C133.872 656.528 131.472 653.376 130.64 653.024V653.024ZM139.552 651.632C139.562 652.736 139.653 653.838 139.824 654.928C140 656.879 140.862 658.704 142.256 660.08C141.862 657.126 140.947 654.266 139.552 651.632V651.632ZM149.616 650.24C149.616 650.24 149.008 650.544 148.784 653.216C148.56 655.888 149.024 657.728 150.272 658.8C150.567 659.039 150.889 659.243 151.232 659.408C151.653 658.958 151.95 658.407 152.096 657.808C152.381 655.29 151.7 652.757 150.192 650.72C149.856 650.304 149.664 650.24 149.616 650.24V650.24Z" fill="#263238"/>
<path d="M366.192 678.368L370.528 670.848L366.192 663.328H361.552L364.176 670.848L361.552 678.368H366.192Z" fill="#263238"/>
<path d="M361.855 674.768C361.321 674.802 360.784 674.727 360.28 674.545C359.776 674.364 359.314 674.082 358.923 673.715C358.532 673.349 358.221 672.906 358.008 672.414C357.795 671.922 357.685 671.392 357.685 670.856C357.685 670.32 357.795 669.79 358.008 669.298C358.221 668.807 358.532 668.364 358.923 667.997C359.314 667.631 359.776 667.348 360.28 667.167C360.784 666.986 361.321 666.91 361.855 666.944L354.495 665.472L352.527 671.424L355.823 676.448L361.855 674.768Z" fill="#263238"/>
<path d="M362.496 663.328H353.808L349.472 670.848L353.808 678.368H362.496L366.832 670.848L362.496 663.328ZM358.16 674.768C357.384 674.771 356.624 674.544 355.977 674.115C355.331 673.686 354.826 673.075 354.527 672.359C354.228 671.643 354.148 670.855 354.297 670.093C354.446 669.332 354.819 668.632 355.366 668.082C355.914 667.532 356.612 667.157 357.373 667.005C358.134 666.852 358.923 666.929 359.64 667.225C360.357 667.521 360.97 668.024 361.402 668.669C361.833 669.314 362.064 670.072 362.064 670.848C362.064 671.885 361.653 672.88 360.921 673.614C360.189 674.349 359.197 674.764 358.16 674.768V674.768Z" fill="url(#paint18_linear)"/>
<path d="M668.624 662.816L665.408 657.232L668.624 651.648H672.064L670.128 657.232L672.064 662.816H668.624Z" fill="url(#paint19_linear)"/>
<path d="M671.84 660.144C672.239 660.174 672.641 660.121 673.019 659.988C673.397 659.856 673.743 659.647 674.037 659.374C674.33 659.101 674.565 658.771 674.725 658.404C674.885 658.037 674.968 657.641 674.968 657.24C674.968 656.839 674.885 656.443 674.725 656.076C674.565 655.709 674.33 655.379 674.037 655.106C673.743 654.834 673.397 654.624 673.019 654.492C672.641 654.359 672.239 654.306 671.84 654.336L677.312 653.248L678.768 657.664L676.336 661.392L671.84 660.144Z" fill="url(#paint20_linear)"/>
<path d="M671.376 651.648H677.776L680.976 657.232L677.776 662.816H671.376L668.176 657.232L671.376 651.648ZM674.576 660.144C675.152 660.147 675.717 659.979 676.198 659.661C676.679 659.343 677.055 658.889 677.278 658.358C677.5 657.826 677.56 657.24 677.45 656.674C677.339 656.108 677.063 655.587 676.657 655.179C676.25 654.77 675.731 654.491 675.166 654.377C674.601 654.264 674.014 654.32 673.481 654.54C672.948 654.76 672.492 655.133 672.172 655.613C671.851 656.092 671.68 656.655 671.68 657.232C671.678 657.615 671.752 657.995 671.897 658.349C672.043 658.703 672.257 659.025 672.528 659.296C672.799 659.567 673.121 659.781 673.475 659.927C673.829 660.072 674.209 660.146 674.592 660.144H674.576Z" fill="#263238"/>
<path d="M548.8 670.24H556.032C556.937 670.236 557.804 669.873 558.443 669.232C559.081 668.59 559.44 667.721 559.44 666.816V666.816C559.44 665.911 559.081 665.042 558.443 664.401C557.804 663.759 556.937 663.396 556.032 663.392H548.8C547.892 663.392 547.021 663.753 546.379 664.395C545.737 665.037 545.376 665.908 545.376 666.816V666.816C545.376 667.724 545.737 668.595 546.379 669.237C547.021 669.879 547.892 670.24 548.8 670.24V670.24Z" fill="#263238"/>
<path d="M537.168 663.776C537.839 662.555 538.852 661.558 540.084 660.906C541.315 660.255 542.71 659.978 544.097 660.11C545.483 660.242 546.801 660.777 547.888 661.649C548.974 662.521 549.781 663.692 550.21 665.017C550.639 666.342 550.671 667.764 550.301 669.107C549.932 670.45 549.177 671.656 548.131 672.575C547.084 673.494 545.792 674.087 544.412 674.281C543.033 674.474 541.627 674.26 540.368 673.664C538.637 672.772 537.33 671.232 536.73 669.379C536.131 667.527 536.288 665.513 537.168 663.776Z" fill="url(#paint21_linear)"/>
<path d="M539.119 673.662L541.102 674.597L547.992 659.979L546.01 659.045L539.119 673.662Z" fill="#263238"/>
<defs>
<linearGradient id="paint0_linear" x1="204.84" y1="237.184" x2="204.84" y2="450.368" gradientUnits="userSpaceOnUse">
<stop stop-color="#1DCDDB"/>
<stop offset="1" stop-color="#31B8FF"/>
</linearGradient>
<linearGradient id="paint1_linear" x1="402.605" y1="158.979" x2="402.605" y2="379.958" gradientUnits="userSpaceOnUse">
<stop stop-color="#1DCDDB"/>
<stop offset="1" stop-color="#31B8FF"/>
</linearGradient>
<linearGradient id="paint2_linear" x1="394.048" y1="184.512" x2="394.048" y2="265.072" gradientUnits="userSpaceOnUse">
<stop stop-color="#1DCDDB"/>
<stop offset="1" stop-color="#31B8FF"/>
</linearGradient>
<linearGradient id="paint3_linear" x1="432.528" y1="308.224" x2="432.528" y2="362.8" gradientUnits="userSpaceOnUse">
<stop stop-color="#1DCDDB"/>
<stop offset="1" stop-color="#31B8FF"/>
</linearGradient>
<linearGradient id="paint4_linear" x1="512.952" y1="167.776" x2="512.952" y2="191.424" gradientUnits="userSpaceOnUse">
<stop stop-color="#1DCDDB"/>
<stop offset="1" stop-color="#31B8FF"/>
</linearGradient>
<linearGradient id="paint5_linear" x1="476.92" y1="170.944" x2="476.92" y2="179.984" gradientUnits="userSpaceOnUse">
<stop stop-color="#1DCDDB"/>
<stop offset="1" stop-color="#31B8FF"/>
</linearGradient>
<linearGradient id="paint6_linear" x1="494.512" y1="166.237" x2="494.512" y2="170.88" gradientUnits="userSpaceOnUse">
<stop stop-color="#1DCDDB"/>
<stop offset="1" stop-color="#31B8FF"/>
</linearGradient>
<linearGradient id="paint7_linear" x1="489.456" y1="170.832" x2="489.456" y2="181.952" gradientUnits="userSpaceOnUse">
<stop stop-color="#1DCDDB"/>
<stop offset="1" stop-color="#31B8FF"/>
</linearGradient>
<linearGradient id="paint8_linear" x1="591" y1="236.224" x2="591" y2="448.768" gradientUnits="userSpaceOnUse">
<stop stop-color="#1DCDDB"/>
<stop offset="1" stop-color="#31B8FF"/>
</linearGradient>
<linearGradient id="paint9_linear" x1="402.416" y1="405.792" x2="402.416" y2="467.808" gradientUnits="userSpaceOnUse">
<stop stop-color="#1DCDDB"/>
<stop offset="1" stop-color="#31B8FF"/>
</linearGradient>
<linearGradient id="paint10_linear" x1="245.472" y1="582.827" x2="245.472" y2="612.418" gradientUnits="userSpaceOnUse">
<stop stop-color="#1DCDDB"/>
<stop offset="1" stop-color="#31B8FF"/>
</linearGradient>
<linearGradient id="paint11_linear" x1="400.536" y1="470.576" x2="400.536" y2="659.584" gradientUnits="userSpaceOnUse">
<stop stop-color="#1DCDDB"/>
<stop offset="1" stop-color="#31B8FF"/>
</linearGradient>
<linearGradient id="paint12_linear" x1="518.856" y1="475.552" x2="518.856" y2="659.584" gradientUnits="userSpaceOnUse">
<stop stop-color="#1DCDDB"/>
<stop offset="1" stop-color="#31B8FF"/>
</linearGradient>
<linearGradient id="paint13_linear" x1="191.728" y1="609.888" x2="191.728" y2="663.472" gradientUnits="userSpaceOnUse">
<stop stop-color="#1DCDDB"/>
<stop offset="1" stop-color="#31B8FF"/>
</linearGradient>
<linearGradient id="paint14_linear" x1="200.8" y1="609.888" x2="200.8" y2="663.472" gradientUnits="userSpaceOnUse">
<stop stop-color="#1DCDDB"/>
<stop offset="1" stop-color="#31B8FF"/>
</linearGradient>
<linearGradient id="paint15_linear" x1="406.376" y1="626.448" x2="406.376" y2="682" gradientUnits="userSpaceOnUse">
<stop stop-color="#1DCDDB"/>
<stop offset="1" stop-color="#31B8FF"/>
</linearGradient>
<linearGradient id="paint16_linear" x1="423.745" y1="627.904" x2="423.745" y2="682" gradientUnits="userSpaceOnUse">
<stop stop-color="#1DCDDB"/>
<stop offset="1" stop-color="#31B8FF"/>
</linearGradient>
<linearGradient id="paint17_linear" x1="624.963" y1="647.108" x2="624.963" y2="672.526" gradientUnits="userSpaceOnUse">
<stop stop-color="#1DCDDB"/>
<stop offset="1" stop-color="#31B8FF"/>
</linearGradient>
<linearGradient id="paint18_linear" x1="358.152" y1="663.328" x2="358.152" y2="678.368" gradientUnits="userSpaceOnUse">
<stop stop-color="#1DCDDB"/>
<stop offset="1" stop-color="#31B8FF"/>
</linearGradient>
<linearGradient id="paint19_linear" x1="668.736" y1="651.648" x2="668.736" y2="662.816" gradientUnits="userSpaceOnUse">
<stop stop-color="#1DCDDB"/>
<stop offset="1" stop-color="#31B8FF"/>
</linearGradient>
<linearGradient id="paint20_linear" x1="675.304" y1="653.248" x2="675.304" y2="661.392" gradientUnits="userSpaceOnUse">
<stop stop-color="#1DCDDB"/>
<stop offset="1" stop-color="#31B8FF"/>
</linearGradient>
<linearGradient id="paint21_linear" x1="543.464" y1="660.078" x2="543.464" y2="674.35" gradientUnits="userSpaceOnUse">
<stop stop-color="#1DCDDB"/>
<stop offset="1" stop-color="#31B8FF"/>
</linearGradient>
</defs>
</svg>
