<svg width="693" height="504" viewBox="0 0 693 504" fill="none" xmlns="http://www.w3.org/2000/svg">
<g clip-path="url(#clip0)">
<path opacity="0.2" d="M97.8204 27.8139C92.681 27.6672 87.4141 27.8139 82.5935 29.2932C69.4773 33.3231 63.2603 46.5095 65.2816 57.9041C67.3029 69.2987 75.6178 79.2268 84.245 88.3004C92.8723 97.374 102.22 106.346 106.951 117.192C109.311 122.605 110.414 128.669 108.016 134.077C104.318 142.411 93.1656 147.065 82.4596 148.034C71.7536 149.004 61.003 147.116 50.2588 146.485C45.7507 146.224 41.115 146.192 36.8684 147.41C32.2072 148.736 28.324 151.446 24.7532 154.271C10.7953 165.34 -0.376199 180.458 1.44745 196.317C3.4879 214.317 21.6861 228.543 41.6188 236.175C48.2183 238.726 55.2005 240.754 61.0094 244.363C76.3128 253.883 79.7496 271.737 78.2257 287.493C76.7017 303.249 71.5113 319.024 74.3998 334.64C77.7985 352.806 92.8404 369.219 113.13 376.883C131.207 383.713 153.831 383.26 169.88 373.625C177.704 368.919 183.621 362.384 188.767 355.625C196.408 345.643 202.72 334.712 207.545 323.105C209.784 317.691 211.888 311.87 217.11 308.108C220.298 305.793 224.43 304.499 228.517 303.491C240.837 300.456 253.813 299.627 266.247 296.923C278.681 294.22 291.159 289.176 297.918 280.166C307.483 267.413 303.019 251.077 303.064 236.08C303.14 201.864 328.002 171.238 337.178 137.883C340.175 126.986 341.29 114.928 334.595 105.204C330.049 98.6046 322.378 93.8415 314.318 90.1623C296.586 82.0706 276.43 78.468 256.605 74.961C229.053 70.0894 195.596 69.4581 174.242 53.6957C153.78 38.5964 125.743 27.8139 97.8204 27.8139Z" fill="url(#paint0_linear)"/>
<g opacity="0.5">
<path opacity="0.5" d="M17.4331 222.76C16.0686 224.774 14.9463 227.701 16.7317 231.113C20.2387 237.808 28.9106 236.431 33.1254 242.839C34.2516 244.615 34.8793 246.661 34.9427 248.763C35.1021 252.391 33.9799 255.247 33.3996 258.442C32.6407 262.209 33.2322 266.124 35.0702 269.499C37.1392 273.022 40.2615 275.807 43.9972 277.463C47.2619 278.904 50.3736 279.274 53.4981 279.975C57.3741 280.864 61.1493 282.146 64.7652 283.801C66.4837 284.521 68.1002 285.465 69.573 286.606C71.3693 288.183 72.9996 289.939 74.4382 291.848L88.0008 308.592C89.7241 310.85 91.6445 312.949 93.7395 314.867C96.0252 316.71 98.5365 318.255 101.213 319.464C106.626 322.161 112.288 324.922 116.988 324.61C121.687 324.297 124.952 319.764 122.727 313.426C120.622 307.394 114.692 302.312 112.002 296.292C107.761 286.804 113.315 279.714 109.763 270.213C106.358 261.082 96.813 254.96 90.7171 246.62C86.3429 240.69 83.9071 233.791 79.9665 227.561C74.2277 218.634 65.6834 211.805 57.6491 208.349C50.5832 205.345 42.8459 204.273 35.2297 205.244C32.322 205.562 29.459 206.104 27.3931 207.845C25.1996 209.694 25.4801 213.15 24.0518 215.605C22.4131 218.43 19.2886 220.03 17.4331 222.76Z" fill="url(#paint1_linear)"/>
<path opacity="0.5" d="M25.9456 209.917C25.9456 209.917 93.8416 273.395 121.222 322.818" stroke="#535461" stroke-width="2" stroke-miterlimit="10"/>
<path opacity="0.5" d="M16.9932 231.502C16.9932 231.502 44.1247 226.228 62.9032 247.379" stroke="#535461" stroke-width="2" stroke-miterlimit="10"/>
<path opacity="0.5" d="M36.2754 271.36C36.2754 271.36 66.2445 250.401 76.6125 262.593" stroke="#535461" stroke-width="2" stroke-miterlimit="10"/>
<path opacity="0.5" d="M57.5215 208.196C57.5215 208.196 54.3652 224.239 65.7216 250.446" stroke="#535461" stroke-width="2" stroke-miterlimit="10"/>
<path opacity="0.5" d="M109.731 270.461C109.731 270.461 107.079 280.982 85.7562 273.248" stroke="#535461" stroke-width="2" stroke-miterlimit="10"/>
<path opacity="0.5" d="M88.0836 307.266C88.0836 307.266 101.098 292.224 95.1805 284.84" stroke="#535461" stroke-width="2" stroke-miterlimit="10"/>
</g>
<path d="M4.6739 149.131C1.4857 152.9 -1.49846 158.116 0.848058 163.261C5.36255 173.362 22.0751 168.42 28.037 177.825C29.8224 180.637 30.0647 184.074 29.6503 187.141C28.8468 193.141 25.8754 198.236 23.8222 203.72C21.769 209.203 20.7042 215.835 23.5991 221.625C26.3855 227.229 32.2582 230.768 37.946 232.177C43.6337 233.587 49.3342 233.268 55.0156 233.453C61.7651 233.717 68.4667 234.705 75.0056 236.399C77.8794 237.049 80.6305 238.156 83.1546 239.676C86.0559 241.532 88.4024 244.254 90.6979 246.932L111.102 270.71C113.812 273.898 116.58 277.086 119.94 279.427C123.817 282.124 128.229 283.495 132.572 284.815C141.913 287.671 151.701 290.553 160.628 288.596C169.555 286.638 177.047 278.107 174.815 268.23C172.692 258.824 163.115 252.155 159.888 242.941C154.787 228.422 167.381 214.955 163.599 200.181C159.978 186.012 143.922 178.705 134.995 166.711C128.618 158.116 126.106 147.365 120.533 138.221C112.486 125.022 98.458 116.28 84.4937 112.958C70.5294 109.636 56.4822 111.185 43.385 114.507C37.8376 115.917 32.2901 117.696 27.8904 121.215C23.2165 124.958 22.6809 130.64 19.2759 135.154C15.3289 140.402 8.97159 144.03 4.6739 149.131Z" fill="url(#paint2_linear)"/>
<path d="M24.5364 125.156C24.5364 125.156 132.725 210.281 169.128 284.311" stroke="#535461" stroke-width="2" stroke-miterlimit="10"/>
<path d="M1.19238 163.797C1.19238 163.797 53.7148 146.804 82.517 176.333" stroke="#535461" stroke-width="2" stroke-miterlimit="10"/>
<path d="M25.2952 224.373C25.2952 224.373 87.8541 180.376 103.668 197.534" stroke="#535461" stroke-width="2" stroke-miterlimit="10"/>
<path d="M84.3343 112.709C84.3343 112.709 73.5518 140.376 86.8849 180.592" stroke="#535461" stroke-width="2" stroke-miterlimit="10"/>
<path d="M163.434 200.582C163.434 200.582 155.265 218.902 117.587 212.494" stroke="#535461" stroke-width="2" stroke-miterlimit="10"/>
<path d="M111.651 268.434C111.651 268.434 140.644 239.434 131.781 228.9" stroke="#535461" stroke-width="2" stroke-miterlimit="10"/>
<path opacity="0.1" d="M394.042 492.054C557.796 492.054 690.545 456.506 690.545 412.655C690.545 368.804 557.796 333.256 394.042 333.256C230.289 333.256 97.5398 368.804 97.5398 412.655C97.5398 456.506 230.289 492.054 394.042 492.054Z" fill="url(#paint3_linear)"/>
<path d="M624.983 0.261414C624.983 0.261414 602.136 23.1081 615.036 57.0114C627.935 90.9147 592.923 147.295 592.923 147.295C592.923 147.295 593.299 147.237 593.994 147.116C640.918 138.827 664.236 85.1632 638.144 45.2916C628.445 30.4728 620.481 13.0907 624.983 0.261414Z" fill="url(#paint4_linear)"/>
<path d="M624.983 0.261414C624.983 0.261414 612.084 28.2666 624.983 51.1132C637.882 73.9599 627.196 138.081 592.923 147.295" stroke="#535461" stroke-width="2" stroke-miterlimit="10"/>
<path d="M665.677 92.6746C665.677 92.6746 639.604 88.5236 637.232 111.887C634.86 135.25 587.101 138.489 587.101 138.489L587.993 139.082C627.425 164.964 665.148 155.571 659.409 121.228C657.324 108.424 657.496 95.5695 665.677 92.6746Z" fill="url(#paint5_linear)"/>
<path opacity="0.2" d="M665.677 92.6746C665.677 92.6746 639.604 88.5236 637.232 111.887C634.86 135.25 587.101 138.489 587.101 138.489L587.993 139.082C627.425 164.964 665.148 155.571 659.409 121.228C657.324 108.424 657.496 95.5695 665.677 92.6746Z" fill="#F5F5F5"/>
<path d="M665.677 92.6746C665.677 92.6746 645.438 97.138 647.103 115.515C648.767 133.892 617.051 155.973 587.101 138.47" stroke="#535461" stroke-width="2" stroke-miterlimit="10"/>
<path d="M157.306 178.412C157.306 178.412 148.851 149.718 158.894 128.586C163.161 119.753 164.447 109.774 162.56 100.148C161.629 95.5856 160.282 91.1184 158.536 86.8019" stroke="#535461" stroke-width="2" stroke-miterlimit="10"/>
<path d="M164.773 73.4433C164.773 76.9631 158.396 87.1589 158.396 87.1589C158.396 87.1589 152.02 76.9567 152.02 73.4433C152.02 71.7522 152.692 70.1304 153.887 68.9346C155.083 67.7387 156.705 67.067 158.396 67.067C160.087 67.067 161.709 67.7387 162.905 68.9346C164.101 70.1304 164.773 71.7522 164.773 73.4433Z" fill="url(#paint6_linear)"/>
<path d="M175.306 92.9296C173.393 95.8819 162.503 100.983 162.503 100.983C162.503 100.983 162.7 88.9571 164.613 86.0049C165.048 85.261 165.63 84.613 166.322 84.1C167.015 83.587 167.804 83.2198 168.642 83.0204C169.481 82.821 170.351 82.7937 171.2 82.94C172.049 83.0863 172.86 83.4032 173.583 83.8717C174.307 84.3401 174.928 84.9503 175.409 85.6654C175.89 86.3805 176.221 87.1857 176.382 88.0323C176.543 88.8789 176.53 89.7493 176.346 90.5911C176.161 91.4328 175.807 92.2283 175.306 92.9296Z" fill="url(#paint7_linear)"/>
<path d="M174.847 126.227C171.704 127.809 159.729 126.718 159.729 126.718C159.729 126.718 165.971 116.439 169.109 114.858C169.859 114.438 170.687 114.174 171.543 114.083C172.398 113.991 173.264 114.073 174.086 114.325C174.909 114.577 175.672 114.992 176.33 115.546C176.988 116.101 177.527 116.783 177.915 117.551C178.302 118.319 178.53 119.158 178.585 120.016C178.64 120.875 178.521 121.736 178.234 122.547C177.947 123.358 177.5 124.103 176.918 124.736C176.336 125.37 175.631 125.879 174.847 126.234V126.227Z" fill="url(#paint8_linear)"/>
<path d="M168.828 151.337C165.997 153.429 154.009 154.373 154.009 154.373C154.009 154.373 158.422 143.188 161.253 141.097C161.921 140.55 162.694 140.145 163.523 139.906C164.353 139.667 165.223 139.599 166.079 139.706C166.936 139.813 167.762 140.093 168.508 140.529C169.253 140.964 169.902 141.547 170.415 142.241C170.929 142.935 171.296 143.727 171.495 144.567C171.693 145.407 171.719 146.279 171.571 147.129C171.422 147.98 171.103 148.792 170.631 149.515C170.16 150.238 169.546 150.858 168.828 151.337Z" fill="url(#paint9_linear)"/>
<path d="M149.131 101.665C151.682 104.114 163.408 106.658 163.408 106.658C163.408 106.658 160.532 94.9828 158.007 92.5343C157.417 91.9048 156.706 91.4016 155.916 91.055C155.126 90.7084 154.274 90.5257 153.412 90.5179C152.549 90.5101 151.694 90.6775 150.898 91.0097C150.102 91.342 149.381 91.8324 148.78 92.4512C148.179 93.0699 147.71 93.8042 147.401 94.6095C147.092 95.4148 146.95 96.2745 146.982 97.1365C147.015 97.9985 147.223 98.8449 147.592 99.6244C147.961 100.404 148.485 101.1 149.131 101.672V101.665Z" fill="url(#paint10_linear)"/>
<path d="M142.455 131.124C145.599 132.706 157.574 131.615 157.574 131.615C157.574 131.615 151.331 121.337 148.194 119.755C146.696 119.078 144.994 119.006 143.444 119.554C141.895 120.101 140.616 121.226 139.876 122.694C139.135 124.162 138.99 125.858 139.471 127.43C139.951 129.002 141.021 130.328 142.455 131.131V131.124Z" fill="url(#paint11_linear)"/>
<path d="M139.905 160.647C142.736 162.738 154.723 163.682 154.723 163.682C154.723 163.682 150.311 152.498 147.48 150.406C146.118 149.498 144.458 149.148 142.845 149.429C141.232 149.711 139.789 150.602 138.815 151.919C137.841 153.235 137.411 154.876 137.614 156.501C137.817 158.126 138.637 159.61 139.905 160.647Z" fill="url(#paint12_linear)"/>
<path d="M54.9455 484.791C56.1141 483.839 56.9658 482.553 57.3876 481.106C57.7065 479.639 57.0816 477.886 55.6788 477.35C54.1102 476.751 52.4332 477.835 51.1643 478.938C49.8954 480.041 48.4352 481.291 46.7709 481.055C47.6263 480.279 48.2662 479.296 48.6282 478.199C48.9903 477.103 49.0622 475.932 48.8369 474.799C48.7649 474.33 48.5665 473.889 48.263 473.524C47.3894 472.593 45.8145 472.995 44.7687 473.728C41.453 476.062 40.5284 480.564 40.5093 484.619C40.1777 483.159 40.4583 481.635 40.4455 480.156C40.4328 478.676 40.0247 476.967 38.7622 476.189C37.9793 475.769 37.1 475.56 36.2116 475.584C34.7195 475.526 33.0616 475.679 32.0414 476.77C30.7661 478.122 31.1041 480.398 32.2072 481.871C33.3103 483.344 34.9809 484.294 36.524 485.327C37.7608 486.062 38.8157 487.067 39.6102 488.267C39.7037 488.433 39.7806 488.608 39.8398 488.789H49.1684C51.2659 487.724 53.2093 486.379 54.9455 484.791Z" fill="url(#paint13_linear)"/>
<path d="M609.055 396.159C610.224 395.207 611.075 393.921 611.497 392.474C611.816 391.007 611.191 389.254 609.788 388.718C608.22 388.119 606.543 389.203 605.274 390.306C604.005 391.409 602.544 392.659 600.88 392.423C601.736 391.647 602.375 390.664 602.738 389.567C603.1 388.471 603.171 387.3 602.946 386.167C602.874 385.698 602.676 385.257 602.372 384.892C601.499 383.961 599.924 384.363 598.878 385.096C595.562 387.43 594.638 391.932 594.618 395.987C594.287 394.527 594.567 393.003 594.555 391.524C594.542 390.044 594.134 388.335 592.871 387.557C592.088 387.137 591.209 386.928 590.321 386.952C588.829 386.894 587.171 387.047 586.15 388.138C584.875 389.49 585.213 391.766 586.316 393.239C587.419 394.712 589.09 395.662 590.633 396.695C591.87 397.43 592.925 398.435 593.719 399.634C593.813 399.801 593.89 399.976 593.949 400.157H603.29C605.383 399.091 607.323 397.746 609.055 396.159Z" fill="url(#paint14_linear)"/>
<path d="M683.812 345.282H629.555C630.81 342.774 631.465 340.008 631.468 337.203V90.1304C631.464 85.3146 629.549 80.6972 626.142 77.2931C622.736 73.889 618.117 71.9768 613.301 71.9768H193.307C188.489 71.9768 183.868 73.8908 180.461 77.2976C177.055 80.7045 175.141 85.3251 175.141 90.1432V337.203C175.143 340.008 175.798 342.774 177.054 345.282H120.877C119.604 345.282 118.383 345.788 117.482 346.688C116.582 347.589 116.076 348.81 116.076 350.083V353.954C116.076 361.08 118.907 367.915 123.946 372.954C128.985 377.993 135.82 380.824 142.946 380.824H661.781C668.908 380.824 675.742 377.993 680.781 372.954C685.82 367.915 688.651 361.08 688.651 353.954V350.083C688.651 349.45 688.526 348.822 688.282 348.237C688.039 347.652 687.681 347.121 687.232 346.675C686.782 346.228 686.248 345.875 685.661 345.636C685.074 345.397 684.445 345.277 683.812 345.282ZM349.503 360.649L344.849 355.363H460.332L455.179 360.649H349.503Z" fill="url(#paint15_linear)"/>
<path d="M611.446 75.4647H195.118C186.927 75.4647 180.286 82.105 180.286 90.2962V337.618C180.286 345.809 186.927 352.449 195.118 352.449H611.446C619.637 352.449 626.277 345.809 626.277 337.618V90.2962C626.277 82.105 619.637 75.4647 611.446 75.4647Z" fill="#535461"/>
<path d="M615.954 115.84H189.679V342.119H615.954V115.84Z" fill="#F1F1F4"/>
<path d="M402.816 99.8735C404.891 99.8735 406.572 98.192 406.572 96.1178C406.572 94.0436 404.891 92.3621 402.816 92.3621C400.742 92.3621 399.061 94.0436 399.061 96.1178C399.061 98.192 400.742 99.8735 402.816 99.8735Z" fill="white"/>
<path d="M468.634 342.585L453.968 357.608H350.67L337.433 342.585H127.235C125.99 342.585 124.796 343.079 123.916 343.959C123.036 344.84 122.542 346.033 122.542 347.278V351.065C122.542 354.516 123.222 357.933 124.544 361.121C125.865 364.309 127.802 367.205 130.244 369.644C132.685 372.083 135.584 374.016 138.773 375.334C141.963 376.651 145.381 377.328 148.832 377.323H655.883C662.847 377.323 669.526 374.557 674.45 369.633C679.375 364.708 682.141 358.029 682.141 351.065V347.278C682.141 346.033 681.647 344.84 680.767 343.959C679.887 343.079 678.693 342.585 677.448 342.585H468.634Z" fill="#535461"/>
<path d="M332.255 133.082H215.714V220.91H332.255V133.082Z" fill="white"/>
<path opacity="0.2" d="M265.96 140.682H227.115V162.636H265.96V140.682Z" fill="url(#paint16_linear)"/>
<path d="M320.854 140.682H275.25V145.752H320.854V140.682Z" fill="#E6E8EC"/>
<path d="M307.343 149.125H275.25V154.194H307.343V149.125Z" fill="#E6E8EC"/>
<path d="M320.854 157.567H275.25V162.636H320.854V157.567Z" fill="#E6E8EC"/>
<path d="M320.854 166.016H227.115V171.085H320.854V166.016Z" fill="#E6E8EC"/>
<path d="M320.854 174.458H227.115V179.527H320.854V174.458Z" fill="#E6E8EC"/>
<path d="M320.854 182.907H227.115V187.976H320.854V182.907Z" fill="#E6E8EC"/>
<path d="M313.253 191.349H227.115V196.419H313.253V191.349Z" fill="#E6E8EC"/>
<path d="M320.854 199.792H227.115V204.861H320.854V199.792Z" fill="#E6E8EC"/>
<path d="M320.854 208.24H227.115V213.31H320.854V208.24Z" fill="#E6E8EC"/>
<path d="M460.618 133.082H344.077V220.91H460.618V133.082Z" fill="white"/>
<path opacity="0.2" d="M394.317 140.682H355.472V162.636H394.317V140.682Z" fill="url(#paint17_linear)"/>
<path d="M449.217 140.682H403.613V145.752H449.217V140.682Z" fill="#E6E8EC"/>
<path d="M435.706 149.125H403.613V154.194H435.706V149.125Z" fill="#E6E8EC"/>
<path d="M449.217 157.567H403.613V162.636H449.217V157.567Z" fill="#E6E8EC"/>
<path d="M449.211 166.016H355.472V171.085H449.211V166.016Z" fill="#E6E8EC"/>
<path d="M449.211 174.458H355.472V179.527H449.211V174.458Z" fill="#E6E8EC"/>
<path d="M449.211 182.907H355.472V187.976H449.211V182.907Z" fill="#E6E8EC"/>
<path d="M441.611 191.349H355.472V196.419H441.611V191.349Z" fill="#E6E8EC"/>
<path d="M449.211 199.792H355.472V204.861H449.211V199.792Z" fill="#E6E8EC"/>
<path d="M449.211 208.24H355.472V213.31H449.211V208.24Z" fill="#E6E8EC"/>
<path d="M588.975 133.082H472.434V220.91H588.975V133.082Z" fill="white"/>
<path opacity="0.2" d="M522.68 140.682H483.835V162.636H522.68V140.682Z" fill="url(#paint18_linear)"/>
<path d="M577.574 140.682H531.97V145.752H577.574V140.682Z" fill="#E6E8EC"/>
<path d="M564.063 149.125H531.97V154.194H564.063V149.125Z" fill="#E6E8EC"/>
<path d="M577.574 157.567H531.97V162.636H577.574V157.567Z" fill="#E6E8EC"/>
<path d="M577.574 166.016H483.835V171.085H577.574V166.016Z" fill="#E6E8EC"/>
<path d="M577.574 174.458H483.835V179.527H577.574V174.458Z" fill="#E6E8EC"/>
<path d="M577.574 182.907H483.835V187.976H577.574V182.907Z" fill="#E6E8EC"/>
<path d="M569.974 191.349H483.835V196.419H569.974V191.349Z" fill="#E6E8EC"/>
<path d="M577.574 199.792H483.835V204.861H577.574V199.792Z" fill="#E6E8EC"/>
<path d="M577.574 208.24H483.835V213.31H577.574V208.24Z" fill="#E6E8EC"/>
<path d="M332.255 231.884H215.714V319.713H332.255V231.884Z" fill="white"/>
<path opacity="0.2" d="M265.96 239.485H227.115V261.439H265.96V239.485Z" fill="url(#paint19_linear)"/>
<path d="M320.854 239.485H275.25V244.554H320.854V239.485Z" fill="#E6E8EC"/>
<path d="M307.343 247.933H275.25V253.003H307.343V247.933Z" fill="#E6E8EC"/>
<path d="M320.854 256.376H275.25V261.445H320.854V256.376Z" fill="#E6E8EC"/>
<path d="M320.854 264.818H227.115V269.887H320.854V264.818Z" fill="#E6E8EC"/>
<path d="M320.854 273.267H227.115V278.336H320.854V273.267Z" fill="#E6E8EC"/>
<path d="M320.854 281.709H227.115V286.779H320.854V281.709Z" fill="#E6E8EC"/>
<path d="M313.253 290.158H227.115V295.227H313.253V290.158Z" fill="#E6E8EC"/>
<path d="M320.854 298.6H227.115V303.67H320.854V298.6Z" fill="#E6E8EC"/>
<path d="M320.854 307.043H227.115V312.112H320.854V307.043Z" fill="#E6E8EC"/>
<path d="M460.618 231.884H344.077V319.713H460.618V231.884Z" fill="white"/>
<path opacity="0.2" d="M394.317 239.485H355.472V261.439H394.317V239.485Z" fill="url(#paint20_linear)"/>
<path d="M449.217 239.485H403.613V244.554H449.217V239.485Z" fill="#E6E8EC"/>
<path d="M435.706 247.933H403.613V253.003H435.706V247.933Z" fill="#E6E8EC"/>
<path d="M449.217 256.376H403.613V261.445H449.217V256.376Z" fill="#E6E8EC"/>
<path d="M449.211 264.818H355.472V269.887H449.211V264.818Z" fill="#E6E8EC"/>
<path d="M449.211 273.267H355.472V278.336H449.211V273.267Z" fill="#E6E8EC"/>
<path d="M449.211 281.709H355.472V286.779H449.211V281.709Z" fill="#E6E8EC"/>
<path d="M441.611 290.158H355.472V295.227H441.611V290.158Z" fill="#E6E8EC"/>
<path d="M449.211 298.6H355.472V303.67H449.211V298.6Z" fill="#E6E8EC"/>
<path d="M449.211 307.043H355.472V312.112H449.211V307.043Z" fill="#E6E8EC"/>
<path opacity="0.1" d="M588.975 231.884H472.434V319.713H588.975V231.884Z" fill="black"/>
<path d="M281.882 162.636H102.067C99.902 162.632 97.7574 163.055 95.7559 163.88C93.7543 164.706 91.9352 165.918 90.4025 167.447C88.8698 168.976 87.6536 170.792 86.8235 172.792C85.9935 174.792 85.5658 176.935 85.5649 179.1V428.252C85.5675 430.415 85.9962 432.557 86.8266 434.555C87.657 436.553 88.8729 438.367 90.4047 439.895C91.9366 441.423 93.7544 442.634 95.7544 443.459C97.7543 444.284 99.8972 444.706 102.061 444.703H281.875C284.039 444.706 286.182 444.284 288.181 443.459C290.181 442.634 291.999 441.423 293.531 439.895C295.063 438.367 296.279 436.553 297.109 434.555C297.94 432.557 298.368 430.415 298.371 428.252V179.1C298.37 176.936 297.943 174.794 297.114 172.795C296.284 170.796 295.069 168.98 293.538 167.451C292.007 165.922 290.189 164.71 288.189 163.884C286.189 163.058 284.046 162.634 281.882 162.636Z" fill="url(#paint21_linear)"/>
<path d="M283.093 166.016H100.856C93.8123 166.016 88.1027 171.726 88.1027 178.769V429.412C88.1027 436.455 93.8123 442.165 100.856 442.165H283.093C290.136 442.165 295.846 436.455 295.846 429.412V178.769C295.846 171.726 290.136 166.016 283.093 166.016Z" fill="#535461"/>
<path d="M285.287 192.14H98.6557V416.047H285.287V192.14Z" fill="#F1F1F4"/>
<path d="M191.126 181.217C192.524 181.217 193.658 180.084 193.658 178.686C193.658 177.288 192.524 176.154 191.126 176.154C189.728 176.154 188.595 177.288 188.595 178.686C188.595 180.084 189.728 181.217 191.126 181.217Z" fill="white"/>
<path d="M191.126 436.254C195.324 436.254 198.727 432.851 198.727 428.654C198.727 424.456 195.324 421.053 191.126 421.053C186.928 421.053 183.526 424.456 183.526 428.654C183.526 432.851 186.928 436.254 191.126 436.254Z" fill="white"/>
<path d="M159.952 215.019H106.722V255.139H159.952V215.019Z" fill="white"/>
<path opacity="0.2" d="M129.677 218.494H111.931V228.524H129.677V218.494Z" fill="url(#paint22_linear)"/>
<path d="M154.749 218.494H133.917V220.808H154.749V218.494Z" fill="#E6E8EC"/>
<path d="M148.576 222.351H133.917V224.666H148.576V222.351Z" fill="#E6E8EC"/>
<path d="M154.749 226.209H133.917V228.524H154.749V226.209Z" fill="#E6E8EC"/>
<path d="M154.749 230.067H111.931V232.382H154.749V230.067Z" fill="#E6E8EC"/>
<path d="M154.749 233.925H111.931V236.239H154.749V233.925Z" fill="#E6E8EC"/>
<path d="M154.749 237.782H111.931V240.097H154.749V237.782Z" fill="#E6E8EC"/>
<path d="M151.28 241.64H111.931V243.955H151.28V241.64Z" fill="#E6E8EC"/>
<path d="M154.749 245.498H111.931V247.812H154.749V245.498Z" fill="#E6E8EC"/>
<path d="M154.749 249.356H111.931V251.67H154.749V249.356Z" fill="#E6E8EC"/>
<path d="M218.589 215.019H165.359V255.139H218.589V215.019Z" fill="white"/>
<path opacity="0.2" d="M188.308 218.494H170.562V228.524H188.308V218.494Z" fill="url(#paint23_linear)"/>
<path d="M213.386 218.494H192.555V220.808H213.386V218.494Z" fill="#E6E8EC"/>
<path d="M207.214 222.351H192.555V224.666H207.214V222.351Z" fill="#E6E8EC"/>
<path d="M213.386 226.209H192.555V228.524H213.386V226.209Z" fill="#E6E8EC"/>
<path d="M213.38 230.067H170.562V232.382H213.38V230.067Z" fill="#E6E8EC"/>
<path d="M213.38 233.925H170.562V236.239H213.38V233.925Z" fill="#E6E8EC"/>
<path d="M213.38 237.782H170.562V240.097H213.38V237.782Z" fill="#E6E8EC"/>
<path d="M209.911 241.64H170.562V243.955H209.911V241.64Z" fill="#E6E8EC"/>
<path d="M213.38 245.498H170.562V247.812H213.38V245.498Z" fill="#E6E8EC"/>
<path d="M213.38 249.356H170.562V251.67H213.38V249.356Z" fill="#E6E8EC"/>
<path d="M277.22 215.019H223.99V255.139H277.22V215.019Z" fill="white"/>
<path opacity="0.2" d="M246.945 218.494H229.2V228.524H246.945V218.494Z" fill="url(#paint24_linear)"/>
<path d="M272.017 218.494H251.186V220.808H272.017V218.494Z" fill="#E6E8EC"/>
<path d="M265.845 222.351H251.186V224.666H265.845V222.351Z" fill="#E6E8EC"/>
<path d="M272.017 226.209H251.186V228.524H272.017V226.209Z" fill="#E6E8EC"/>
<path d="M272.017 230.067H229.2V232.382H272.017V230.067Z" fill="#E6E8EC"/>
<path d="M272.017 233.925H229.2V236.239H272.017V233.925Z" fill="#E6E8EC"/>
<path d="M272.017 237.782H229.2V240.097H272.017V237.782Z" fill="#E6E8EC"/>
<path d="M268.549 241.64H229.2V243.955H268.549V241.64Z" fill="#E6E8EC"/>
<path d="M272.017 245.498H229.2V247.812H272.017V245.498Z" fill="#E6E8EC"/>
<path d="M272.017 249.356H229.2V251.67H272.017V249.356Z" fill="#E6E8EC"/>
<path d="M159.952 260.151H106.722V300.271H159.952V260.151Z" fill="white"/>
<path opacity="0.2" d="M129.677 263.626H111.931V273.656H129.677V263.626Z" fill="url(#paint25_linear)"/>
<path d="M154.749 263.626H133.917V265.94H154.749V263.626Z" fill="#E6E8EC"/>
<path d="M148.576 267.484H133.917V269.798H148.576V267.484Z" fill="#E6E8EC"/>
<path d="M154.749 271.341H133.917V273.656H154.749V271.341Z" fill="#E6E8EC"/>
<path d="M154.749 275.199H111.931V277.514H154.749V275.199Z" fill="#E6E8EC"/>
<path d="M154.749 279.057H111.931V281.371H154.749V279.057Z" fill="#E6E8EC"/>
<path d="M154.749 282.914H111.931V285.229H154.749V282.914Z" fill="#E6E8EC"/>
<path d="M151.28 286.772H111.931V289.087H151.28V286.772Z" fill="#E6E8EC"/>
<path d="M154.749 290.63H111.931V292.945H154.749V290.63Z" fill="#E6E8EC"/>
<path d="M154.749 294.488H111.931V296.802H154.749V294.488Z" fill="#E6E8EC"/>
<path d="M218.589 260.151H165.359V300.271H218.589V260.151Z" fill="white"/>
<path opacity="0.2" d="M188.308 263.626H170.562V273.656H188.308V263.626Z" fill="url(#paint26_linear)"/>
<path d="M213.386 263.626H192.555V265.94H213.386V263.626Z" fill="#E6E8EC"/>
<path d="M207.214 267.484H192.555V269.798H207.214V267.484Z" fill="#E6E8EC"/>
<path d="M213.386 271.341H192.555V273.656H213.386V271.341Z" fill="#E6E8EC"/>
<path d="M213.38 275.199H170.562V277.514H213.38V275.199Z" fill="#E6E8EC"/>
<path d="M213.38 279.057H170.562V281.371H213.38V279.057Z" fill="#E6E8EC"/>
<path d="M213.38 282.914H170.562V285.229H213.38V282.914Z" fill="#E6E8EC"/>
<path d="M209.911 286.772H170.562V289.087H209.911V286.772Z" fill="#E6E8EC"/>
<path d="M213.38 290.63H170.562V292.945H213.38V290.63Z" fill="#E6E8EC"/>
<path d="M213.38 294.488H170.562V296.802H213.38V294.488Z" fill="#E6E8EC"/>
<path d="M277.22 260.151H223.99V300.271H277.22V260.151Z" fill="white"/>
<path opacity="0.2" d="M246.945 263.626H229.2V273.656H246.945V263.626Z" fill="url(#paint27_linear)"/>
<path d="M272.017 263.626H251.186V265.94H272.017V263.626Z" fill="#E6E8EC"/>
<path d="M265.845 267.484H251.186V269.798H265.845V267.484Z" fill="#E6E8EC"/>
<path d="M272.017 271.341H251.186V273.656H272.017V271.341Z" fill="#E6E8EC"/>
<path d="M272.017 275.199H229.2V277.514H272.017V275.199Z" fill="#E6E8EC"/>
<path d="M272.017 279.057H229.2V281.371H272.017V279.057Z" fill="#E6E8EC"/>
<path d="M272.017 282.914H229.2V285.229H272.017V282.914Z" fill="#E6E8EC"/>
<path d="M268.549 286.772H229.2V289.087H268.549V286.772Z" fill="#E6E8EC"/>
<path d="M272.017 290.63H229.2V292.945H272.017V290.63Z" fill="#E6E8EC"/>
<path d="M272.017 294.488H229.2V296.802H272.017V294.488Z" fill="#E6E8EC"/>
<path d="M159.952 307.068H106.722V347.189H159.952V307.068Z" fill="white"/>
<path opacity="0.2" d="M129.677 310.543H111.931V320.573H129.677V310.543Z" fill="url(#paint28_linear)"/>
<path d="M154.749 310.543H133.917V312.858H154.749V310.543Z" fill="#E6E8EC"/>
<path d="M148.576 314.401H133.917V316.716H148.576V314.401Z" fill="#E6E8EC"/>
<path d="M154.749 318.259H133.917V320.573H154.749V318.259Z" fill="#E6E8EC"/>
<path d="M154.749 322.117H111.931V324.431H154.749V322.117Z" fill="#E6E8EC"/>
<path d="M154.749 325.974H111.931V328.289H154.749V325.974Z" fill="#E6E8EC"/>
<path d="M154.749 329.832H111.931V332.147H154.749V329.832Z" fill="#E6E8EC"/>
<path d="M151.28 333.69H111.931V336.004H151.28V333.69Z" fill="#E6E8EC"/>
<path d="M154.749 337.547H111.931V339.862H154.749V337.547Z" fill="#E6E8EC"/>
<path d="M154.749 341.405H111.931V343.72H154.749V341.405Z" fill="#E6E8EC"/>
<path d="M218.589 307.068H165.359V347.189H218.589V307.068Z" fill="white"/>
<path opacity="0.2" d="M188.308 310.543H170.562V320.573H188.308V310.543Z" fill="url(#paint29_linear)"/>
<path d="M213.386 310.543H192.555V312.858H213.386V310.543Z" fill="#E6E8EC"/>
<path d="M207.214 314.401H192.555V316.716H207.214V314.401Z" fill="#E6E8EC"/>
<path d="M213.386 318.259H192.555V320.573H213.386V318.259Z" fill="#E6E8EC"/>
<path d="M213.38 322.117H170.562V324.431H213.38V322.117Z" fill="#E6E8EC"/>
<path d="M213.38 325.974H170.562V328.289H213.38V325.974Z" fill="#E6E8EC"/>
<path d="M213.38 329.832H170.562V332.147H213.38V329.832Z" fill="#E6E8EC"/>
<path d="M209.911 333.69H170.562V336.004H209.911V333.69Z" fill="#E6E8EC"/>
<path d="M213.38 337.547H170.562V339.862H213.38V337.547Z" fill="#E6E8EC"/>
<path d="M213.38 341.405H170.562V343.72H213.38V341.405Z" fill="#E6E8EC"/>
<path d="M277.22 307.068H223.99V347.189H277.22V307.068Z" fill="white"/>
<path opacity="0.2" d="M246.945 310.543H229.2V320.573H246.945V310.543Z" fill="url(#paint30_linear)"/>
<path d="M272.017 310.543H251.186V312.858H272.017V310.543Z" fill="#E6E8EC"/>
<path d="M265.845 314.401H251.186V316.716H265.845V314.401Z" fill="#E6E8EC"/>
<path d="M272.017 318.259H251.186V320.573H272.017V318.259Z" fill="#E6E8EC"/>
<path d="M272.017 322.117H229.2V324.431H272.017V322.117Z" fill="#E6E8EC"/>
<path d="M272.017 325.974H229.2V328.289H272.017V325.974Z" fill="#E6E8EC"/>
<path d="M272.017 329.832H229.2V332.147H272.017V329.832Z" fill="#E6E8EC"/>
<path d="M268.549 333.69H229.2V336.004H268.549V333.69Z" fill="#E6E8EC"/>
<path d="M272.017 337.547H229.2V339.862H272.017V337.547Z" fill="#E6E8EC"/>
<path d="M272.017 341.405H229.2V343.72H272.017V341.405Z" fill="#E6E8EC"/>
<path d="M159.952 352.2H106.722V392.321H159.952V352.2Z" fill="white"/>
<path opacity="0.2" d="M129.677 355.676H111.931V365.706H129.677V355.676Z" fill="url(#paint31_linear)"/>
<path d="M154.749 355.676H133.917V357.99H154.749V355.676Z" fill="#E6E8EC"/>
<path d="M148.576 359.533H133.917V361.848H148.576V359.533Z" fill="#E6E8EC"/>
<path d="M154.749 363.391H133.917V365.706H154.749V363.391Z" fill="#E6E8EC"/>
<path d="M154.749 367.249H111.931V369.563H154.749V367.249Z" fill="#E6E8EC"/>
<path d="M154.749 371.106H111.931V373.421H154.749V371.106Z" fill="#E6E8EC"/>
<path d="M154.749 374.964H111.931V377.279H154.749V374.964Z" fill="#E6E8EC"/>
<path d="M151.28 378.822H111.931V381.136H151.28V378.822Z" fill="#E6E8EC"/>
<path d="M154.749 382.68H111.931V384.994H154.749V382.68Z" fill="#E6E8EC"/>
<path d="M154.749 386.537H111.931V388.852H154.749V386.537Z" fill="#E6E8EC"/>
<path d="M218.589 352.2H165.359V392.321H218.589V352.2Z" fill="white"/>
<path opacity="0.2" d="M188.308 355.676H170.562V365.706H188.308V355.676Z" fill="url(#paint32_linear)"/>
<path d="M213.386 355.676H192.555V357.99H213.386V355.676Z" fill="#E6E8EC"/>
<path d="M207.214 359.533H192.555V361.848H207.214V359.533Z" fill="#E6E8EC"/>
<path d="M213.386 363.391H192.555V365.706H213.386V363.391Z" fill="#E6E8EC"/>
<path d="M213.38 367.249H170.562V369.563H213.38V367.249Z" fill="#E6E8EC"/>
<path d="M213.38 371.106H170.562V373.421H213.38V371.106Z" fill="#E6E8EC"/>
<path d="M213.38 374.964H170.562V377.279H213.38V374.964Z" fill="#E6E8EC"/>
<path d="M209.911 378.822H170.562V381.136H209.911V378.822Z" fill="#E6E8EC"/>
<path d="M213.38 382.68H170.562V384.994H213.38V382.68Z" fill="#E6E8EC"/>
<path d="M213.38 386.537H170.562V388.852H213.38V386.537Z" fill="#E6E8EC"/>
<path opacity="0.1" d="M277.22 352.2H223.99V392.321H277.22V352.2Z" fill="black"/>
<path d="M144.821 247.085H52.4905C51.2914 247.083 50.1036 247.317 48.9948 247.773C47.886 248.23 46.878 248.9 46.0283 249.746C45.1787 250.592 44.504 251.598 44.0428 252.704C43.5816 253.811 43.3429 254.998 43.3404 256.197V458.386C43.3429 459.586 43.5816 460.772 44.0428 461.879C44.504 462.986 45.1787 463.991 46.0283 464.837C46.878 465.684 47.886 466.354 48.9948 466.811C50.1036 467.267 51.2914 467.501 52.4905 467.498H144.821C146.02 467.501 147.208 467.267 148.317 466.811C149.425 466.354 150.433 465.684 151.283 464.837C152.133 463.991 152.807 462.986 153.269 461.879C153.73 460.772 153.968 459.586 153.971 458.386V256.204C153.969 255.004 153.731 253.816 153.27 252.709C152.81 251.601 152.135 250.595 151.285 249.749C150.436 248.902 149.427 248.231 148.318 247.774C147.209 247.317 146.02 247.083 144.821 247.085Z" fill="url(#paint33_linear)"/>
<path d="M146.115 248.782H51.2025C47.3288 248.782 44.1885 251.922 44.1885 255.796V459.649C44.1885 463.523 47.3288 466.663 51.2025 466.663H146.115C149.989 466.663 153.129 463.523 153.129 459.649V255.796C153.129 251.922 149.989 248.782 146.115 248.782Z" fill="#535461"/>
<path d="M145.101 269.046H52.21V446.386H145.101V269.046Z" fill="#F1F1F4"/>
<path d="M87.6755 259.755C88.1403 259.755 88.5172 259.379 88.5172 258.914C88.5172 258.449 88.1403 258.072 87.6755 258.072C87.2106 258.072 86.8338 258.449 86.8338 258.914C86.8338 259.379 87.2106 259.755 87.6755 259.755Z" fill="white"/>
<path d="M109.846 258.066H92.5407C92.1886 258.066 91.9031 258.351 91.9031 258.703V259.118C91.9031 259.47 92.1886 259.755 92.5407 259.755H109.846C110.198 259.755 110.484 259.47 110.484 259.118V258.703C110.484 258.351 110.198 258.066 109.846 258.066Z" fill="white"/>
<path d="M98.2349 460.746C101.499 460.746 104.146 458.099 104.146 454.835C104.146 451.57 101.499 448.924 98.2349 448.924C94.9703 448.924 92.3239 451.57 92.3239 454.835C92.3239 458.099 94.9703 460.746 98.2349 460.746Z" fill="white"/>
<path opacity="0.1" d="M130.327 279.663H66.9841V327.403H130.327V279.663Z" fill="black"/>
<path d="M130.327 333.371H66.9841V381.111H130.327V333.371Z" fill="white"/>
<path opacity="0.2" d="M94.2942 337.503H73.1819V349.44H94.2942V337.503Z" fill="url(#paint34_linear)"/>
<path d="M124.129 337.503H99.3444V340.257H124.129V337.503Z" fill="#E6E8EC"/>
<path d="M116.79 342.094H99.3444V344.848H116.79V342.094Z" fill="#E6E8EC"/>
<path d="M124.129 346.678H99.3444V349.433H124.129V346.678Z" fill="#E6E8EC"/>
<path d="M124.136 351.27H73.1819V354.024H124.136V351.27Z" fill="#E6E8EC"/>
<path d="M124.136 355.861H73.1819V358.615H124.136V355.861Z" fill="#E6E8EC"/>
<path d="M124.136 360.451H73.1819V363.206H124.136V360.451Z" fill="#E6E8EC"/>
<path d="M120.004 365.042H73.1819V367.797H120.004V365.042Z" fill="#E6E8EC"/>
<path d="M124.136 369.634H73.1819V372.388H124.136V369.634Z" fill="#E6E8EC"/>
<path d="M124.136 374.225H73.1819V376.979H124.136V374.225Z" fill="#E6E8EC"/>
<path d="M130.327 387.188H66.9841V434.928H130.327V387.188Z" fill="white"/>
<path opacity="0.2" d="M94.2942 391.32H73.1819V403.256H94.2942V391.32Z" fill="url(#paint35_linear)"/>
<path d="M124.129 391.32H99.3444V394.074H124.129V391.32Z" fill="#E6E8EC"/>
<path d="M116.79 395.911H99.3444V398.665H116.79V395.911Z" fill="#E6E8EC"/>
<path d="M124.129 400.502H99.3444V403.256H124.129V400.502Z" fill="#E6E8EC"/>
<path d="M124.136 405.093H73.1819V407.847H124.136V405.093Z" fill="#E6E8EC"/>
<path d="M124.136 409.684H73.1819V412.438H124.136V409.684Z" fill="#E6E8EC"/>
<path d="M124.136 414.275H73.1819V417.029H124.136V414.275Z" fill="#E6E8EC"/>
<path d="M120.004 418.866H73.1819V421.62H120.004V418.866Z" fill="#E6E8EC"/>
<path d="M124.136 423.45H73.1819V426.205H124.136V423.45Z" fill="#E6E8EC"/>
<path d="M124.136 428.041H73.1819V430.796H124.136V428.041Z" fill="#E6E8EC"/>
<path d="M346.659 409.741C342.374 404.544 337.184 398.57 337.911 391.651C338.498 386.046 337.088 380.869 337.369 375.251C337.764 367.268 336.151 361.013 330.4 355.892C327.039 352.902 321.422 350.549 319.751 351.148C316.435 352.334 312.82 351.882 309.408 352.679C306.82 353.316 305.092 354.215 304.027 355.382C301.878 357.295 301.84 360.012 302.822 362.913C301.964 364.48 301.447 366.21 301.303 367.99C301.159 369.771 301.392 371.562 301.986 373.246C302.58 374.931 303.523 376.471 304.752 377.767C305.982 379.063 307.471 380.085 309.122 380.767C306.73 381.761 304.658 384.063 303.861 388.731C303.294 391.938 302.44 395.088 301.31 398.142C300.804 398.383 300.285 398.596 299.755 398.78C299.869 398.825 299.991 398.857 300.112 398.901C299.863 398.997 299.608 399.093 299.359 399.182C299.818 399.36 300.292 399.497 300.775 399.59C299.035 404.105 296.698 408.366 293.825 412.26C293.825 412.26 286.606 413.854 283.801 411.067C283.801 411.067 284.26 411.603 284.878 412.406C282.13 411.265 277.628 409.41 273.777 407.879C270.984 406.77 270.264 407.879 270.302 409.422C269.615 409.502 268.952 409.719 268.351 410.06C267.525 409.53 266.66 409.065 265.762 408.67C264.155 408.275 258.946 405.482 253.73 415.046C250.695 420.613 242.89 430.764 236.928 438.282C225.291 443.632 210.147 450.397 204.523 452.112H200.927C200.455 451.341 200.123 450.837 200.123 450.837L199.843 451.022L199.722 450.837C199.722 450.837 192.637 455.741 185.445 455.779C184.421 455.762 183.403 455.63 182.41 455.383C179.1 454.548 176.773 454.178 175.109 454.21C173.138 454.178 172.023 454.644 171.328 455.524C171.237 455.639 171.154 455.761 171.079 455.887C171.002 456.017 170.931 456.151 170.868 456.289C170.805 456.429 170.747 456.576 170.69 456.729C170.668 456.863 170.676 457 170.715 457.131C170.754 457.261 170.821 457.381 170.913 457.481C171.009 457.619 171.113 457.751 171.225 457.877L171.423 458.093C172.848 459.42 174.391 460.613 176.033 461.658C176.626 462.06 177.251 462.468 177.908 462.888L179.151 463.679L180.261 464.374L180.707 464.648L181.205 464.954L182.091 465.496L182.62 465.815L183.615 466.408L184.418 466.886C186.522 468.162 188.627 469.335 190.514 470.4L191.84 471.146L191.968 471.216L192.816 471.688L194.289 472.504L195.303 473.059L195.775 473.32L196.285 473.594L196.387 473.652L197.267 474.13C197.448 474.16 197.633 474.15 197.811 474.102C197.988 474.054 198.153 473.967 198.293 473.85C198.548 472.766 199.173 470.445 199.836 470.266C200.5 470.087 203.394 465.012 204.217 461.632H212.041C213.579 461.503 215.106 461.271 216.613 460.937C214.591 462.378 212.589 463.284 211.033 462.895C207.743 462.079 204.625 464.081 204.313 466.083L204.274 466.204C204.274 466.242 204.274 466.287 204.274 466.325C204.274 466.364 204.274 466.421 204.274 466.472C204.274 466.523 204.274 466.555 204.274 466.593C204.274 466.631 204.274 466.689 204.274 466.74C204.274 466.791 204.274 466.823 204.274 466.861C204.274 466.899 204.274 466.963 204.274 467.008C204.274 467.052 204.274 467.084 204.274 467.122C204.274 467.161 204.274 467.231 204.313 467.282C204.351 467.333 204.313 467.352 204.313 467.384C204.336 467.453 204.364 467.522 204.396 467.588V467.639C204.439 467.723 204.488 467.804 204.542 467.881L204.606 467.964L204.733 468.124L204.823 468.213L204.969 468.353L205.078 468.442L205.25 468.57L205.377 468.653L205.588 468.774L205.728 468.85L205.99 468.972L206.124 469.029C206.264 469.086 206.41 469.144 206.57 469.195C206.729 469.246 207.118 469.361 207.456 469.443L207.794 469.526L208.285 469.641L208.547 469.698L209.618 469.915L210.141 470.011L210.568 470.087L211.55 470.26L213.463 470.572L215.153 470.827L217.352 471.14L217.837 471.203L218.628 471.312L219.763 471.465L220.541 471.567L222.549 471.822L223.187 471.898L224.462 472.051C226.126 472.249 227.74 472.44 229.219 472.606L230.934 472.797L231.801 472.893L232.171 472.931L233.21 473.046L233.791 473.11L234.499 473.186L235.5 473.288H235.608L236.246 473.352C236.325 473.36 236.406 473.351 236.482 473.327C236.559 473.302 236.629 473.262 236.689 473.208C236.749 473.155 236.797 473.09 236.83 473.017C236.864 472.944 236.882 472.865 236.883 472.785C236.883 472.785 236.883 472.74 236.883 472.721C236.944 472.63 236.977 472.524 236.979 472.415C236.995 471.461 237.115 470.512 237.336 469.584C237.381 469.424 237.432 469.258 237.483 469.099L237.546 468.914C237.617 468.717 237.687 468.519 237.77 468.315C237.826 468.171 237.875 468.024 237.916 467.875L237.955 467.735C237.955 467.658 237.993 467.575 238.012 467.492C238.822 464.738 237.846 459.605 237.566 457.59C237.478 456.94 237.33 456.3 237.126 455.677C237.176 455.682 237.228 455.682 237.279 455.677C237.694 455.522 238.085 455.307 238.439 455.039C244.35 452.929 249.343 450.518 250.918 448.102C253.48 447.419 256.203 447.703 258.569 448.899C261.63 450.423 284.796 457.979 295.584 461.473C297.497 463.144 299.04 464.119 299.876 464.023C299.876 464.023 313.604 466.242 319.126 461.907C319.617 462.244 319.923 462.429 319.923 462.429C319.923 462.429 327.945 458.444 329.15 453.266C329.539 451.589 329.889 449.109 330.247 446.367C332.109 444.492 333.156 441.958 333.161 439.315C333.409 430.611 336.782 420.67 339.282 411.813C342.317 412.049 343.49 411.482 346.296 410.105L346.175 409.945L346.659 409.741ZM300.673 422.775L299.142 422.258C299.661 421.565 300.107 420.822 300.475 420.039L300.673 422.775ZM292.039 426.435L301.336 432.014L301.419 433.149C301.305 434.012 301.331 434.889 301.495 435.744C297.402 432.103 292.607 427.684 292.046 426.435H292.039ZM288.245 418.311C287.231 417.89 286.39 417.514 285.816 417.202L287.971 417.335C288.099 417.65 288.193 417.977 288.252 418.311H288.245ZM263.377 427.397C263.377 427.397 264.984 423.814 268.593 429.789C269.154 430.72 270.187 432.192 271.552 434.029L261.056 432.62C262.146 431.039 262.929 429.268 263.364 427.397H263.377Z" fill="url(#paint36_linear)"/>
<path d="M286.466 412.993C286.466 412.993 279.108 409.894 273.305 407.573C267.503 405.252 270.984 412.993 270.984 412.993C270.984 412.993 280.664 415.703 280.664 416.092C280.664 416.481 288.794 416.863 288.794 416.863L286.466 412.993Z" fill="#F7C4A7"/>
<path opacity="0.05" d="M286.466 412.993C286.466 412.993 279.108 409.894 273.305 407.573C267.503 405.252 270.984 412.993 270.984 412.993C270.984 412.993 280.664 415.703 280.664 416.092C280.664 416.481 288.794 416.863 288.794 416.863L286.466 412.993Z" fill="black"/>
<path d="M317.806 382.412C317.806 382.412 304.645 375.442 302.318 388.992C300.869 397.241 297.566 405.053 292.658 411.839C292.658 411.839 285.688 413.388 282.978 410.678C282.978 410.678 289.559 418.419 286.46 419.197C286.46 419.197 293.429 424.228 296.528 422.679C299.627 421.129 301.948 410.678 303.109 407.968C304.269 405.258 308.529 381.634 317.806 382.412Z" fill="#575988"/>
<path opacity="0.1" d="M317.806 382.412C317.806 382.412 304.645 375.442 302.318 388.992C300.869 397.241 297.566 405.053 292.658 411.839C292.658 411.839 285.688 413.388 282.978 410.678C282.978 410.678 289.559 418.419 286.46 419.197C286.46 419.197 293.429 424.228 296.528 422.679C299.627 421.129 301.948 410.678 303.109 407.968C304.269 405.258 308.529 381.634 317.806 382.412Z" fill="black"/>
<path d="M310.467 377.763C310.467 377.763 318.597 387.054 318.986 394.795C319.375 402.536 328.276 386.665 329.054 386.276C329.832 385.887 321.307 372.732 320.529 368.479C319.751 364.226 310.467 377.763 310.467 377.763Z" fill="#F7C4A7"/>
<path d="M316.078 381.736L310.952 386.378L313.368 396.153L319.949 389.961L319.177 383.77L316.078 381.736Z" fill="#F7C4A7"/>
<path d="M209.038 450.55H200.136L203.618 459.062L212.137 456.741L209.038 450.55Z" fill="#F7C4A7"/>
<path opacity="0.1" d="M202.189 449.319C202.189 449.319 192.982 455.74 185.094 453.738C177.207 451.736 175.077 452.463 174.159 455.071C173.311 457.443 196.164 469.998 199.804 471.981C199.862 472.019 199.928 472.042 199.997 472.049C200.065 472.055 200.134 472.044 200.198 472.017C200.261 471.989 200.316 471.947 200.359 471.893C200.402 471.839 200.43 471.775 200.442 471.707C200.691 470.655 201.29 468.397 201.928 468.225C202.763 468.002 206.583 460.88 206.391 458.068C206.2 455.256 202.189 449.319 202.189 449.319Z" fill="black"/>
<path d="M201.807 449.319C201.807 449.319 192.599 455.74 184.712 453.738C176.824 451.736 174.694 452.463 173.776 455.071C172.928 457.443 195.781 469.998 199.422 471.981C199.479 472.019 199.545 472.042 199.614 472.049C199.683 472.055 199.752 472.044 199.815 472.017C199.878 471.989 199.934 471.947 199.976 471.893C200.019 471.839 200.048 471.775 200.06 471.707C200.308 470.655 200.908 468.397 201.545 468.225C202.381 468.002 206.2 460.88 206.009 458.068C205.817 455.256 201.807 449.319 201.807 449.319Z" fill="#F3B5B7"/>
<path d="M277.947 433.901L252.008 430.42C252.008 430.42 209.809 450.55 204.778 450.939L205.939 459.866H213.68C216.778 459.866 246.971 453.286 251.23 446.705C253.694 446.049 256.314 446.323 258.589 447.477C262.459 449.39 299.627 461.415 299.627 461.415L277.947 433.901Z" fill="#575988"/>
<path opacity="0.1" d="M277.947 433.901L252.008 430.42C252.008 430.42 209.809 450.55 204.778 450.939L205.939 459.866H213.68C216.778 459.866 246.971 453.286 251.23 446.705C253.694 446.049 256.314 446.323 258.589 447.477C262.459 449.39 299.627 461.415 299.627 461.415L277.947 433.901Z" fill="black"/>
<path d="M231.878 445.902L227.618 451.322L231.878 453.643L238.076 449L231.878 445.902Z" fill="#F7C4A7"/>
<path d="M305.819 439.704C305.819 439.704 291.893 427.78 290.917 425.612C289.941 423.444 267.107 408.74 265.558 408.351C264.009 407.962 258.978 405.252 253.947 414.543C248.916 423.833 230.354 446.284 230.354 446.284C230.354 446.284 236.163 454.414 238.095 454.025C240.027 453.636 261.688 435.444 263.256 426.537C263.256 426.537 264.806 423.055 268.287 428.858C271.769 434.66 294.226 462.538 298.486 462.149C298.486 462.149 315.135 464.859 318.616 458.278C322.098 451.698 305.819 439.704 305.819 439.704Z" fill="#575988"/>
<path d="M301.91 377.202H243.942V420.887H301.91V377.202Z" fill="url(#paint37_linear)"/>
<path d="M299.538 378.981H246.308V419.102H299.538V378.981Z" fill="white"/>
<path opacity="0.2" d="M269.263 382.456H251.517V392.486H269.263V382.456Z" fill="url(#paint38_linear)"/>
<path d="M294.335 382.456H273.503V384.771H294.335V382.456Z" fill="#E6E8EC"/>
<path d="M288.162 386.314H273.503V388.629H288.162V386.314Z" fill="#E6E8EC"/>
<path d="M294.335 390.172H273.503V392.486H294.335V390.172Z" fill="#E6E8EC"/>
<path d="M294.335 394.03H251.517V396.344H294.335V394.03Z" fill="#E6E8EC"/>
<path d="M294.335 397.887H251.517V400.202H294.335V397.887Z" fill="#E6E8EC"/>
<path d="M294.335 401.745H251.517V404.06H294.335V401.745Z" fill="#E6E8EC"/>
<path d="M290.866 405.603H251.517V407.917H290.866V405.603Z" fill="#E6E8EC"/>
<path d="M294.335 409.461H251.517V411.775H294.335V409.461Z" fill="#E6E8EC"/>
<path d="M294.335 413.318H251.517V415.633H294.335V413.318Z" fill="#E6E8EC"/>
<path d="M313.757 382.992C313.757 382.992 308.917 385.122 308.529 394.023C308.14 402.925 299.602 418.024 299.602 418.024L300.373 435.833C300.373 435.833 309.664 445.124 310.441 450.933C311.219 456.742 317.806 460.612 317.806 460.612C317.806 460.612 325.547 456.742 326.733 451.685C327.919 446.629 328.646 434.265 330.604 429.616C332.561 424.968 331.375 395.936 331.375 395.936L325.566 385.868L322.467 382.386L314.337 391.677C314.337 391.677 309.887 385.696 313.757 382.992Z" fill="#F3B5B7"/>
<path opacity="0.1" d="M302.337 430.024C302.337 430.024 301.177 416.086 304.658 412.993L311.628 393.226C311.628 393.226 314.146 383.745 313.757 382.967C313.368 382.189 304.658 390.516 304.658 390.516L298.849 411.035L300.399 432.715L302.337 430.024Z" fill="black"/>
<path d="M301.948 430.024C301.948 430.024 300.788 416.086 304.269 412.993L311.239 393.226C311.239 393.226 313.949 383.547 313.56 382.775C313.171 382.004 304.269 390.516 304.269 390.516L298.46 411.035L300.01 432.715L301.948 430.024Z" fill="#575988"/>
<path d="M304.658 423.833C304.658 423.833 285.287 417.641 284.139 416.092C282.991 414.542 270.589 404.481 266.329 411.444C262.07 418.407 282.2 420.37 282.2 420.37L302.72 432.76L304.658 423.833Z" fill="#F7C4A7"/>
<path opacity="0.1" d="M232.713 451.283L226.974 450.25C226.974 450.25 217.588 462.27 212.704 461.052C207.82 459.834 203.318 465.095 208.483 466.791C213.15 468.315 233.293 470.451 237.145 470.846C237.224 470.857 237.304 470.851 237.38 470.829C237.456 470.806 237.527 470.768 237.587 470.716C237.648 470.664 237.696 470.6 237.73 470.528C237.763 470.456 237.781 470.377 237.782 470.298C237.801 468.804 238.09 467.326 238.637 465.936C239.67 463.386 238.637 457.953 238.35 455.887C238.19 454.669 237.808 453.491 237.221 452.412L232.713 451.283Z" fill="black"/>
<path d="M232.624 451.66L226.885 450.627C226.885 450.627 217.512 462.652 212.596 461.428C207.679 460.204 203.21 465.471 208.374 467.167C213.042 468.691 233.185 470.827 237.036 471.222C237.115 471.233 237.195 471.227 237.272 471.205C237.348 471.182 237.419 471.144 237.479 471.092C237.539 471.04 237.588 470.976 237.621 470.904C237.655 470.832 237.673 470.753 237.674 470.674C237.692 469.18 237.982 467.702 238.528 466.312C239.561 463.762 238.528 458.329 238.242 456.263C238.082 455.045 237.699 453.867 237.113 452.788L232.624 451.66Z" fill="#F3B5B7"/>
<path opacity="0.1" d="M313.368 382.221C320.211 382.221 325.758 376.674 325.758 369.831C325.758 362.989 320.211 357.442 313.368 357.442C306.526 357.442 300.979 362.989 300.979 369.831C300.979 376.674 306.526 382.221 313.368 382.221Z" fill="black"/>
<path d="M312.208 382.221C319.05 382.221 324.597 376.674 324.597 369.831C324.597 362.989 319.05 357.442 312.208 357.442C305.365 357.442 299.818 362.989 299.818 369.831C299.818 376.674 305.365 382.221 312.208 382.221Z" fill="#F7C4A7"/>
<path d="M324.399 382.023C324.399 382.023 339.11 387.054 339.11 397.511C339.11 407.968 330.98 424.611 330.591 438.161C330.202 451.711 308.911 449.772 308.911 449.772C308.911 449.772 305.812 404.092 308.911 400.604C312.01 397.116 325.949 383.572 324.399 382.023Z" fill="#575988"/>
<path opacity="0.1" d="M321.69 403.703C321.69 403.703 316.27 427.703 303.491 423.47C303.491 423.47 296.911 433.149 301.578 437.408C301.578 437.408 312.807 440.118 320.159 432.76C327.511 425.402 332.918 422.679 334.079 413.752C335.239 404.825 335.992 392.461 332.166 393.621C328.34 394.782 321.69 403.703 321.69 403.703Z" fill="black"/>
<path d="M322.078 403.314C322.078 403.314 316.658 427.315 303.88 423.081C303.88 423.081 297.3 432.76 301.967 437.019C301.967 437.019 313.196 439.729 320.548 432.371C327.9 425.013 333.301 422.303 334.487 413.401C335.673 404.5 336.4 392.11 332.574 393.271C328.748 394.431 322.078 403.314 322.078 403.314Z" fill="#575988"/>
<path d="M238.86 465.069C238.86 465.107 238.86 465.146 238.822 465.177C238.545 465.838 238.332 466.523 238.184 467.224C238.273 466.918 238.382 466.587 238.509 466.3C238.673 465.904 238.79 465.491 238.86 465.069Z" fill="#DDDBE2"/>
<path d="M208.687 466.038C207.093 465.516 206.423 464.655 206.398 463.749C205.76 465.025 206.155 466.427 208.406 467.167C213.074 468.691 233.223 470.827 237.068 471.222C237.147 471.233 237.228 471.227 237.305 471.204C237.382 471.181 237.453 471.142 237.513 471.09C237.573 471.037 237.622 470.972 237.655 470.899C237.688 470.827 237.706 470.748 237.706 470.668C237.708 470.526 237.658 470.389 237.565 470.283C237.472 470.177 237.342 470.109 237.202 470.094C232.962 469.635 213.291 467.537 208.687 466.038Z" fill="#DDDBE2"/>
<path d="M174.305 454.388C174.404 454.103 174.53 453.828 174.682 453.566C174.263 453.989 173.951 454.504 173.77 455.071C172.922 457.443 195.775 469.992 199.416 471.981C199.473 472.018 199.539 472.039 199.607 472.045C199.675 472.05 199.744 472.039 199.807 472.012C199.869 471.985 199.925 471.943 199.968 471.89C200.011 471.837 200.04 471.774 200.053 471.707C200.075 471.618 200.066 471.524 200.029 471.44C199.993 471.356 199.929 471.286 199.849 471.241C195.807 469.035 173.464 456.735 174.305 454.388Z" fill="#DDDBE2"/>
<path d="M202.049 467.543C201.845 467.601 201.641 467.868 201.456 468.251H201.52C201.686 468.206 201.979 467.875 202.336 467.358C202.256 467.441 202.158 467.504 202.049 467.543Z" fill="#DDDBE2"/>
<path opacity="0.1" d="M310.486 380.735C309.396 383.139 309.166 385.836 308.363 388.386C307.58 390.855 306.238 393.11 304.441 394.975C302.643 396.84 300.44 398.264 298.001 399.137C302.025 400.744 306.769 398.78 309.88 395.528C312.992 392.276 314.809 387.946 316.556 383.738C321.071 386.773 320.523 393.749 322.034 399.182C322.685 401.545 323.836 403.741 325.41 405.621C326.983 407.501 328.941 409.021 331.152 410.079C333.355 411.068 335.751 411.556 338.166 411.508C340.581 411.459 342.954 410.875 345.116 409.798C340.978 404.748 335.086 397.824 335.788 391.103C336.355 385.657 332.446 381.5 332.721 376.042C333.103 368.288 330.17 364.367 324.591 359.393C321.345 356.485 326.453 352.379 322.27 353.584C320.625 354.056 318.89 352.309 317.277 352.876C314.089 354.024 310.588 353.59 307.298 354.362C290.19 358.366 312.067 377.221 310.486 380.735Z" fill="black"/>
<path d="M310.875 380.346C309.785 382.75 309.555 385.447 308.752 387.997C307.969 390.466 306.627 392.721 304.83 394.586C303.032 396.451 300.828 397.875 298.39 398.748C302.414 400.355 307.158 398.391 310.269 395.139C313.381 391.887 315.198 387.557 316.945 383.349C321.46 386.384 320.911 393.36 322.423 398.793C323.074 401.156 324.225 403.351 325.798 405.231C327.371 407.111 329.33 408.632 331.541 409.69C333.744 410.679 336.14 411.167 338.555 411.119C340.969 411.07 343.343 410.486 345.505 409.409C341.367 404.359 335.864 398.569 336.578 391.874C337.146 386.429 336.298 380.837 336.578 375.379C336.961 367.625 333.167 360.158 327.613 355.185C324.367 352.277 319.324 351.907 317.685 352.487C314.497 353.635 310.996 353.202 307.706 353.973C290.579 357.984 312.469 376.832 310.875 380.346Z" fill="#B96B6B"/>
<path d="M104.465 498.233C126.782 491.365 139.956 491.933 139.956 491.933L138.126 481.559C138.697 481.175 139.216 480.719 139.669 480.2C139.669 480.2 137.38 467.607 139.669 464.457C141.958 461.307 148.258 432.69 148.258 432.69V422.953C159.735 418.949 173.158 395.764 173.158 395.764L190.049 439.257C190.049 439.257 206.933 472.746 209.223 473.888C211.053 474.8 211.964 482.292 212.264 485.27L212.124 485.314C212.194 486.035 212.226 486.481 212.226 486.481L212.36 486.392V486.481C212.643 486.284 212.942 486.109 213.252 485.958C209.956 489.746 205.02 495.191 200.914 498.788C198.65 500.771 202.712 502.301 204.612 502.269C205.693 502.234 206.772 502.387 207.801 502.722C217.423 506.044 233.242 493.916 233.242 493.916L229.283 482.872C230.316 482.789 230.953 482.751 230.953 482.751C230.953 482.751 218.073 437.529 212.06 433.232C210.159 431.846 208.445 430.222 206.959 428.398C204.099 424.923 202.658 420.496 202.923 416.003L205.033 378.898C208.425 378.401 210.613 377.987 210.613 377.987C210.613 377.987 211.403 367.848 211.378 360.069C211.378 356.02 211.212 352.468 210.613 351.078C209.905 349.433 209.682 346.143 209.669 342.84C209.669 338.376 210.039 334.193 210.039 334.193C210.039 334.193 214.617 328.181 220.917 314.427C223.691 308.375 224.411 303.587 224.347 300.156C224.39 298.558 224.236 296.96 223.888 295.399C223.71 294.628 223.379 293.899 222.916 293.256C222.453 292.614 221.867 292.07 221.191 291.657C217.569 289.438 209.325 283.96 206.895 278.655C203.809 271.922 199.352 270.965 199.173 270.927L198.899 269.741C200.608 268.328 201.856 266.436 202.483 264.308C203.414 261.439 203.605 258.378 204.396 255.464C204.778 254.061 205.307 252.703 205.671 251.3C206.034 249.888 206.208 248.435 206.187 246.977C206.256 244.854 205.819 242.745 204.912 240.824C203.433 237.782 200.487 235.391 197.133 234.996C195.284 234.779 193.237 235.098 191.719 234.02C190.674 233.274 190.125 232.005 189.169 231.119C187.351 229.397 184.444 229.487 182.078 230.29C178.893 231.382 176.164 233.508 174.324 236.328C173.221 238.025 172.45 239.969 171.034 241.43C169.842 242.647 168.28 243.425 166.966 244.509C165.994 245.268 165.203 246.234 164.652 247.337C164.1 248.44 163.802 249.653 163.778 250.886C163.778 250.886 163.778 250.95 163.778 250.981C163.778 251.141 163.778 251.3 163.778 251.46C163.842 253.921 165.557 256.369 167.967 256.867C168.598 256.983 169.244 257 169.88 256.918C169.337 258.926 169.204 261.024 169.491 263.085C169.778 265.146 170.478 267.128 171.549 268.912C172.62 270.696 174.041 272.245 175.725 273.467C177.409 274.688 179.323 275.557 181.351 276.022C181.313 276.226 181.268 276.43 181.224 276.659H181.358C181.082 277.651 180.736 278.623 180.325 279.567H180.14L180.605 278.738L174.038 278.285C172.125 278.141 170.209 278.5 168.477 279.325C166.214 280.421 163.74 282.513 163.434 286.466C162.86 293.875 148.832 305.034 148.832 305.034C143.966 312.762 112.193 314.191 112.193 314.191C112.193 314.191 112.333 314.369 112.397 314.465L111.759 314.344L109.355 313.904C109.355 313.904 101.914 291.867 94.7597 295.871C87.6054 299.876 107.066 321.632 107.066 321.632L112.69 322.008L113.258 322.046C113.051 323.473 112.755 324.885 112.371 326.274C112.295 326.555 112.237 326.733 112.225 326.778C112.225 326.778 127.018 325.069 139.586 325.343H140.721L141.524 325.305C142.162 332.21 152.007 346.245 152.007 346.245L158.084 347.52L158.543 347.616C156.585 351.665 154.097 355.437 151.146 358.832L149.144 369.997L149.303 369.959L149.144 370.858C149.487 370.774 149.805 370.608 150.069 370.373C146.147 380.779 139.643 396.976 135.122 402.625C128.255 411.214 129.109 424.942 129.109 424.942C129.109 424.942 122.242 461.007 122.529 467.588C122.562 470.764 121.703 473.886 120.049 476.598C118.701 478.144 117.518 479.826 116.516 481.616C111.364 490.492 103.062 489.905 103.062 489.905C95.9074 494.509 104.465 498.233 104.465 498.233ZM148.672 323.653L149.412 323.36L149.584 323.29L150.292 322.984L150.413 322.926L151.051 322.633L151.191 322.569L151.867 322.231L152.026 322.148L152.664 321.811H152.715L153.352 321.441L153.506 321.351L154.143 320.982L154.245 320.918L154.8 320.58L154.927 320.503L155.52 320.127L155.654 320.038L156.203 319.674L156.254 319.643L156.815 319.254L156.942 319.164L157.478 318.782L157.561 318.724L158.033 318.38L158.135 318.303L158.626 317.927L158.728 317.851L159.174 317.5H159.212L159.665 317.137L159.761 317.06L160.188 316.709L160.226 316.678L160.609 316.352L160.673 316.295L161.049 315.97L161.106 315.919L161.451 315.606L161.782 315.307L161.827 315.262L162.464 314.624L163.395 314.548C164.186 315.574 164.498 317.392 164.53 319.477C164.441 324.827 162.821 331.433 162.821 331.433C162.683 334.711 162.113 337.957 161.125 341.086C160.427 341.048 159.742 340.882 159.104 340.595C159.104 340.595 159.066 340.799 159.008 341.144L158.46 341.003L155.673 340.308C155.673 340.308 153.359 328.525 148.672 323.653Z" fill="url(#paint39_linear)"/>
<path d="M226.292 476.106L231.604 490.906C231.604 490.906 217.059 502.065 207.609 499.757C206.186 499.403 204.736 499.168 203.273 499.055C201.316 498.909 197.949 497.487 200.028 495.669C206.736 489.803 215.675 478.906 215.675 478.906L226.292 476.106Z" fill="#4F4D59"/>
<path d="M137.992 474.71L140.504 488.961C140.504 488.961 127.649 488.4 105.855 495.108C105.855 495.108 97.4697 491.474 104.458 487.004C104.458 487.004 112.563 487.565 117.594 478.9C122.625 470.234 125.698 471.356 125.698 471.356L137.992 474.71Z" fill="#4F4D59"/>
<path d="M204.498 371.317L202.036 414.676C201.773 419.298 203.306 423.842 206.315 427.359C207.675 428.974 209.225 430.419 210.931 431.663C216.798 435.852 229.372 480.003 229.372 480.003C229.372 480.003 215.121 480.838 211.212 483.637C211.212 483.637 210.377 472.459 208.139 471.343C205.9 470.228 189.417 437.549 189.417 437.549L172.922 395.069C172.922 395.069 159.786 417.705 148.608 421.614V431.115C148.608 431.115 142.462 459.056 140.223 462.13C137.985 465.203 140.223 477.497 140.223 477.497C140.223 477.497 133.796 485.601 118.99 476.936C118.99 476.936 123.74 471.624 123.453 465.197C123.167 458.769 129.894 423.571 129.894 423.571C129.894 423.571 129.058 410.181 135.76 401.777C142.462 393.373 153.614 361.261 153.614 361.261L161.304 344.714L204.498 371.317Z" fill="#787C9C"/>
<g opacity="0.1">
<path opacity="0.1" d="M226.713 480.015C226.713 480.015 214.139 435.865 208.272 431.676C206.469 430.357 204.839 428.817 203.42 427.091C200.549 423.622 199.106 419.19 199.384 414.695L201.845 371.336L160.634 345.932L161.195 344.727L204.357 371.33L201.896 414.689C201.619 419.184 203.062 423.615 205.932 427.085C207.351 428.811 208.981 430.351 210.785 431.669C216.651 435.859 229.225 480.009 229.225 480.009C229.225 480.009 214.974 480.844 211.065 483.643C211.065 483.643 211.033 483.21 210.963 482.502C216.46 480.621 226.713 480.015 226.713 480.015Z" fill="black"/>
<path opacity="0.1" d="M137.577 477.516C137.577 477.516 135.339 465.222 137.577 462.149C139.815 459.075 145.962 431.134 145.962 431.134V421.633C157.14 417.718 170.275 395.088 170.275 395.088L171.251 397.607C167.463 403.613 157.357 418.528 148.481 421.633V431.134C148.481 431.134 142.334 459.075 140.096 462.149C137.858 465.222 140.096 477.516 140.096 477.516C140.096 477.516 136.978 481.437 130.091 480.908C135.224 480.468 137.577 477.516 137.577 477.516Z" fill="black"/>
</g>
<path d="M108.373 322.697L113.863 323.06L116.758 323.252V316.238L112.932 315.549L110.58 315.122C110.58 315.122 103.317 293.608 96.3283 297.516C89.3397 301.425 108.373 322.697 108.373 322.697Z" fill="#714B4F"/>
<path d="M196.393 265.137C196.393 265.137 200.028 279.108 201.144 287.773C202.259 296.439 175.16 289.45 175.16 289.45C175.16 289.45 185.496 276.876 179.623 270.168L196.393 265.137Z" fill="#714B4F"/>
<path d="M167.055 323.258L166.494 328.569L175.153 328.008L183.812 320.465L192.472 296.152L198.07 287.499L202.259 282.188L200.582 275.76C200.582 275.76 199.817 276.398 198.523 277.418C194.27 280.676 184.284 287.442 176.99 285.573C176.652 285.489 176.32 285.385 175.995 285.261L165.098 303.982L167.055 323.258Z" fill="#E6E6F0"/>
<path opacity="0.1" d="M198.351 274.109C198.351 274.109 202.814 274.944 205.894 281.652C208.26 286.81 216.236 292.128 219.801 294.315C220.48 294.731 221.07 295.279 221.534 295.926C221.999 296.573 222.328 297.307 222.504 298.084C223.225 301.272 223.499 307.202 219.584 315.747C213.437 329.137 208.967 335.029 208.967 335.029C208.967 335.029 207.852 348.419 209.529 352.353C211.206 356.288 209.529 377.782 209.529 377.782C209.529 377.782 180.197 383.368 170.409 377.782C160.622 372.197 162.024 350.625 162.024 350.625C162.024 350.625 152.804 370.201 149.469 370.762L151.382 359.865C151.382 359.865 162.279 348.126 162.86 333.039C162.86 333.039 166.214 319.349 163.421 315.715C163.421 315.715 116.197 319.63 113.404 316.276C113.404 316.276 144.419 314.879 149.17 307.349C149.17 307.349 162.86 296.452 163.421 289.189C163.503 287.826 163.93 286.507 164.663 285.356C165.396 284.205 166.41 283.259 167.61 282.608C169.511 281.528 171.692 281.041 173.872 281.212L180.184 281.646C180.184 281.646 169.293 300.89 169.874 303.44C170.454 305.991 169.313 326.35 169.313 326.35C169.313 326.35 181.887 299.244 187.473 296.171C193.058 293.098 199.467 280.485 199.467 280.485L198.351 274.109Z" fill="black"/>
<path opacity="0.1" d="M167.055 323.258L166.494 328.569L175.153 328.008L183.812 320.465L192.472 296.152L198.07 287.499L202.259 282.188L200.582 275.76C200.582 275.76 199.817 276.398 198.523 277.418L198.905 279.624C198.905 279.624 192.478 292.243 186.892 295.317C181.307 298.39 168.732 325.496 168.732 325.496C168.732 325.496 169.848 305.092 169.293 302.586C168.911 300.877 173.808 291.459 176.99 285.573C176.652 285.489 176.32 285.385 175.995 285.261L165.098 303.982L167.055 323.258Z" fill="black"/>
<path opacity="0.1" d="M113.863 323.067L116.758 323.258V316.244L112.932 315.555C114.278 317.341 114.233 320.44 113.863 323.067Z" fill="black"/>
<path d="M198.351 273.241C198.351 273.241 202.814 274.077 205.894 280.785C208.26 285.943 216.236 291.261 219.801 293.448C220.48 293.864 221.07 294.412 221.534 295.059C221.999 295.706 222.328 296.44 222.504 297.217C223.225 300.405 223.499 306.335 219.584 314.879C213.437 328.27 208.967 334.162 208.967 334.162C208.967 334.162 207.852 347.552 209.529 351.486C211.206 355.42 209.529 376.915 209.529 376.915C209.529 376.915 180.197 382.501 170.409 376.915C160.622 371.33 162.024 349.809 162.024 349.809C162.024 349.809 152.804 369.366 149.469 369.92L151.382 359.023C151.382 359.023 162.279 347.284 162.86 332.198C162.86 332.198 166.214 318.508 163.421 314.873C163.421 314.873 152.524 326.612 140.23 326.351C127.936 326.089 113.404 327.747 113.404 327.747C113.404 327.747 116.197 318.82 113.404 315.453C113.404 315.453 144.419 314.057 149.17 306.526C149.17 306.526 162.86 295.629 163.421 288.366C163.499 286.999 163.926 285.674 164.66 284.518C165.394 283.362 166.412 282.413 167.616 281.76C169.517 280.68 171.698 280.193 173.878 280.364L180.191 280.798C180.191 280.798 169.293 300.067 169.874 302.579C170.454 305.092 169.313 325.49 169.313 325.49C169.313 325.49 181.887 298.384 187.473 295.31C193.058 292.237 199.486 279.618 199.486 279.618L198.37 273.241" fill="#67647E"/>
<path opacity="0.1" d="M204.497 302.579C204.497 302.579 197.79 325.215 193.881 328.008C189.972 330.801 166.22 345.052 159.231 341.698C159.231 341.698 157.554 350.083 160.067 352.035C160.067 352.035 186.121 351.014 186.331 350.919C186.331 350.919 203.375 348.681 206.168 340.302C208.961 331.923 212.315 317.666 212.315 317.666L204.497 302.579Z" fill="black"/>
<path d="M168.732 328.149C169.271 328.149 169.708 327.523 169.708 326.752C169.708 325.981 169.271 325.356 168.732 325.356C168.194 325.356 167.757 325.981 167.757 326.752C167.757 327.523 168.194 328.149 168.732 328.149Z" fill="#BA7855"/>
<path d="M165.939 337.93C166.478 337.93 166.915 337.305 166.915 336.534C166.915 335.762 166.478 335.137 165.939 335.137C165.401 335.137 164.964 335.762 164.964 336.534C164.964 337.305 165.401 337.93 165.939 337.93Z" fill="#BA7855"/>
<g opacity="0.1">
<path opacity="0.1" d="M207.571 376.628C207.571 376.628 209.248 355.114 207.571 351.199C205.894 347.284 207.01 333.875 207.01 333.875C207.01 333.875 211.473 328.008 217.627 314.592C221.542 306.048 221.261 300.118 220.547 296.93C220.37 296.152 220.039 295.418 219.574 294.771C219.108 294.124 218.518 293.576 217.837 293.161C214.273 290.974 206.296 285.656 203.936 280.498C202.202 276.717 200.028 274.797 198.453 273.847L198.344 273.21C198.344 273.21 202.808 274.045 205.888 280.753C208.253 285.911 216.23 291.229 219.788 293.416C220.469 293.831 221.059 294.379 221.525 295.026C221.99 295.673 222.321 296.407 222.498 297.185C223.219 300.373 223.493 306.303 219.578 314.847C213.431 328.238 208.961 334.13 208.961 334.13C208.961 334.13 207.845 347.52 209.522 351.454C211.199 355.389 209.522 376.883 209.522 376.883C209.522 376.883 188.563 380.875 176.167 378.739C188.69 380.225 207.571 376.628 207.571 376.628Z" fill="black"/>
<path opacity="0.1" d="M169.874 302.579C170.256 304.301 169.874 314.427 169.561 320.624C168.209 323.385 167.361 325.209 167.361 325.209C167.361 325.209 168.477 304.805 167.923 302.299C167.393 299.908 177.207 282.372 178.182 280.619L180.216 280.759C180.216 280.759 169.293 300.067 169.874 302.579Z" fill="black"/>
<path opacity="0.1" d="M138.272 326.051C150.566 326.331 161.463 314.573 161.463 314.573C161.793 315.03 162.033 315.545 162.171 316.091C158.983 319.094 150.056 326.535 140.23 326.293C127.936 326.013 113.404 327.69 113.404 327.69C113.404 327.69 113.462 327.505 113.551 327.186C121.764 326.349 130.017 325.97 138.272 326.051Z" fill="black"/>
<path opacity="0.1" d="M160.067 349.522C160.067 349.522 159.952 351.27 160.016 353.89C157.108 359.629 151.816 369.525 149.45 369.921L149.864 367.625C153.933 362.517 160.067 349.522 160.067 349.522Z" fill="black"/>
</g>
<path d="M163.3 279.006H96.5068V329.341H163.3V279.006Z" fill="url(#paint40_linear)"/>
<path d="M161.572 280.3H98.2285V328.04H161.572V280.3Z" fill="white"/>
<path opacity="0.2" d="M125.539 284.432H104.426V296.369H125.539V284.432Z" fill="url(#paint41_linear)"/>
<path d="M155.374 284.432H130.589V287.187H155.374V284.432Z" fill="#E6E8EC"/>
<path d="M148.035 289.023H130.589V291.778H148.035V289.023Z" fill="#E6E8EC"/>
<path d="M155.374 293.614H130.589V296.369H155.374V293.614Z" fill="#E6E8EC"/>
<path d="M155.38 298.205H104.426V300.96H155.38V298.205Z" fill="#E6E8EC"/>
<path d="M155.38 302.796H104.426V305.551H155.38V302.796Z" fill="#E6E8EC"/>
<path d="M155.38 307.381H104.426V310.135H155.38V307.381Z" fill="#E6E8EC"/>
<path d="M151.248 311.972H104.426V314.726H151.248V311.972Z" fill="#E6E8EC"/>
<path d="M155.38 316.563H104.426V319.317H155.38V316.563Z" fill="#E6E8EC"/>
<path d="M155.38 321.154H104.426V323.908H155.38V321.154Z" fill="#E6E8EC"/>
<path d="M152.243 346.729L158.179 348.005L162.86 348.968L160.347 341.954L158.6 341.514L155.877 340.838C155.877 340.838 151.969 321.294 144.145 322.697C136.321 324.1 152.243 346.729 152.243 346.729Z" fill="#714B4F"/>
<path opacity="0.1" d="M158.179 347.979L162.86 348.968L160.347 341.954L158.6 341.514C158.209 343.645 158.068 345.815 158.179 347.979Z" fill="black"/>
<path d="M204.497 302.025C204.497 302.025 197.79 324.661 193.881 327.454C189.972 330.246 166.22 344.498 159.231 341.144C159.231 341.144 157.554 349.529 160.067 351.48C160.067 351.48 186.121 350.46 186.331 350.364C186.331 350.364 203.375 348.126 206.168 339.747C208.961 331.369 212.315 317.111 212.315 317.111L204.497 302.025Z" fill="#67647E"/>
<path opacity="0.1" d="M196.113 265.698C196.113 265.698 196.68 267.885 197.439 271.067C195.889 273.995 193.418 276.331 190.407 277.714C187.397 279.097 184.015 279.45 180.784 278.719C181.453 275.849 181.307 272.98 179.343 270.704L196.113 265.698Z" fill="black"/>
<path d="M184.38 278.553C192.712 278.553 199.467 271.799 199.467 263.466C199.467 255.134 192.712 248.38 184.38 248.38C176.048 248.38 169.293 255.134 169.293 263.466C169.293 271.799 176.048 278.553 184.38 278.553Z" fill="#714B4F"/>
<path opacity="0.1" d="M171.276 259.309C170.181 259.613 169.034 259.683 167.91 259.513C165.557 259.028 163.88 256.637 163.822 254.233C163.846 253.029 164.137 251.845 164.676 250.768C165.214 249.69 165.985 248.746 166.934 248.004C168.209 246.939 169.74 246.18 170.907 244.994C172.29 243.585 173.043 241.685 174.095 240.027C175.892 237.273 178.559 235.2 181.67 234.135C183.985 233.351 186.816 233.261 188.595 234.945C189.507 235.806 190.042 237.049 191.062 237.776C192.542 238.828 194.544 238.516 196.349 238.726C197.984 238.977 199.533 239.628 200.857 240.62C202.182 241.612 203.241 242.915 203.943 244.414C205.313 247.45 205.575 250.871 204.682 254.08C204.332 255.451 203.822 256.784 203.445 258.149C202.661 260.992 202.476 263.977 201.571 266.782C200.665 269.588 198.797 272.33 195.972 273.159C196.196 270.013 195.575 266.865 194.174 264.04C193.942 263.425 193.487 262.919 192.899 262.625C192.395 262.495 191.866 262.495 191.362 262.625C187.824 263.149 184.215 262.418 181.16 260.559C180.089 259.921 178.418 257.683 177.27 257.46C175.823 257.198 172.807 258.965 171.276 259.309Z" fill="black"/>
<path d="M171.276 258.748C170.181 259.052 169.034 259.122 167.91 258.952C165.557 258.467 163.88 256.076 163.822 253.672C163.846 252.468 164.137 251.284 164.676 250.206C165.214 249.129 165.985 248.185 166.934 247.443C168.209 246.378 169.74 245.619 170.907 244.433C172.29 243.024 173.043 241.124 174.095 239.466C175.892 236.712 178.559 234.638 181.67 233.574C183.985 232.79 186.816 232.7 188.595 234.384C189.507 235.244 190.042 236.488 191.062 237.215C192.542 238.267 194.544 237.954 196.349 238.165C197.984 238.416 199.533 239.067 200.857 240.059C202.182 241.051 203.241 242.354 203.943 243.853C205.313 246.889 205.575 250.31 204.682 253.519C204.332 254.89 203.822 256.223 203.445 257.587C202.661 260.431 202.476 263.415 201.571 266.221C200.665 269.027 198.797 271.769 195.972 272.597C196.196 269.452 195.575 266.304 194.174 263.479C193.942 262.864 193.487 262.358 192.899 262.064C192.395 261.934 191.866 261.934 191.362 262.064C187.824 262.588 184.215 261.857 181.16 259.998C180.089 259.36 178.418 257.122 177.27 256.899C175.823 256.637 172.807 258.41 171.276 258.748Z" fill="#503F43"/>
<path d="M691.935 204.485C690.615 200.621 688.709 195.724 687.204 194.57C687.112 194.496 687.011 194.434 686.904 194.385H686.719V189.609L683.161 190.176C682.596 188.451 682.169 186.683 681.886 184.89C682.229 185.233 682.665 185.467 683.141 185.563C683.616 185.658 684.109 185.61 684.558 185.426C684.5 185.33 684.449 185.228 684.398 185.126L684.558 185.056C683.997 184.068 683.701 182.953 683.697 181.817C683.725 180.779 683.89 179.75 684.188 178.756C684.825 176.556 685.903 174.503 686.502 172.29C686.885 170.867 687.065 169.396 687.038 167.923C687.058 165.424 686.49 162.956 685.38 160.717C685.1 160.071 684.661 159.505 684.105 159.072C683.604 158.794 683.089 158.543 682.562 158.32C681.677 157.724 680.915 156.964 680.317 156.082C677.79 153.003 674.406 150.744 670.593 149.59C669.6 149.219 668.522 149.133 667.482 149.342C665.091 149.979 664.223 152.944 662.285 154.5C660.576 155.871 658.23 156.011 656.081 156.471C653.932 156.93 651.77 157.841 650.304 159.499C649.293 160.655 648.742 162.141 648.754 163.676C648.695 164.393 648.822 165.113 649.121 165.767C649.42 166.422 649.882 166.988 650.463 167.412C651.125 167.846 651.875 168.129 652.659 168.239C653.442 168.349 654.241 168.285 654.997 168.05C654.406 170.091 654.243 172.232 654.519 174.339C654.794 176.446 655.503 178.473 656.599 180.293C657.695 182.113 659.156 183.687 660.889 184.916C662.623 186.145 664.591 187.002 666.672 187.434L667.086 188.18C668.368 190.566 669.341 193.105 669.981 195.736C666.704 197.592 663.127 199.333 660.965 199.499C660.878 200.343 660.72 201.18 660.493 201.998C659.988 204.051 659.017 205.96 657.656 207.577C654.716 210.88 641.498 235.85 641.498 235.85C641.498 235.85 641.083 236.845 640.401 238.541C632.195 239.549 618.798 241.002 615.061 240.256L600.396 226.305C600.396 226.305 595.652 229.927 596.066 234.326L593.42 231.814C593.42 231.814 579.468 242.463 601.499 249.438L635.019 253.328C631.831 262.963 628.847 274.179 629.772 280.281H630.046C630.686 280.281 631.326 280.232 631.959 280.134L631.901 281.218L628.675 339.027C628.675 339.027 627.942 349.675 637.857 354.445C637.857 354.445 649.972 390.057 645.203 394.1C645.203 394.1 645.77 394.4 646.726 394.814L636.76 403.645C636.76 403.645 629.415 405.482 625.378 405.112C624.669 405.015 623.949 405.182 623.355 405.582C622.761 405.982 622.335 406.586 622.158 407.28C622.158 407.356 622.158 407.433 622.12 407.509V407.605C622.12 407.682 622.12 407.758 622.12 407.841C622.12 407.924 622.12 407.898 622.12 407.93C622.12 407.962 622.12 408.064 622.12 408.134C622.12 408.204 622.12 408.192 622.12 408.217C622.12 408.243 622.12 408.377 622.165 408.453V408.542C622.186 408.627 622.213 408.712 622.247 408.797L622.279 408.874C622.311 408.957 622.35 409.04 622.394 409.123V409.18C622.439 409.263 622.49 409.339 622.541 409.422L622.585 409.492C622.645 409.577 622.711 409.662 622.783 409.747L622.841 409.811C622.917 409.901 623 409.983 623.083 410.066L623.121 410.098L623.395 410.334L623.453 410.379C623.555 410.462 623.669 410.538 623.784 410.615L623.861 410.666C623.982 410.742 624.109 410.819 624.243 410.889H624.301L624.715 411.093H624.773L625.257 411.284L625.359 411.323L625.888 411.495H625.978L626.558 411.648H626.603L627.24 411.775H627.368L628.056 411.877H628.19L628.968 411.954C630.479 412.069 632.513 412.113 634.866 412.1C634.866 412.1 634.866 412.158 634.866 412.19C634.866 412.222 634.866 412.324 634.866 412.394V412.477C634.866 412.553 634.866 412.636 634.911 412.713V412.802C634.932 412.887 634.96 412.972 634.994 413.057L635.026 413.133C635.058 413.216 635.096 413.299 635.141 413.382V413.439C635.185 413.522 635.236 413.599 635.287 413.682L635.332 413.752C635.391 413.837 635.457 413.922 635.53 414.007L635.587 414.071C635.663 414.16 635.746 414.243 635.829 414.326L635.868 414.358L636.142 414.594L636.199 414.638C636.301 414.721 636.416 414.798 636.531 414.874L636.614 414.925C636.735 415.002 636.862 415.078 636.996 415.148H637.054L637.468 415.352H637.525L638.01 415.544L638.112 415.582L638.641 415.754H638.731L639.311 415.907H639.355L639.993 416.035H640.121L640.809 416.137H640.943L641.721 416.213C651.286 416.946 681.739 414.747 681.739 414.747V414.664V414.555C682.039 413.133 683.506 404.87 678.302 398.761C678.455 398.602 678.609 398.429 678.749 398.251C678.749 398.251 674.713 391.275 676.912 389.069C679.112 386.863 665.9 348.681 665.9 348.681C665.9 348.681 658.925 337.669 662.961 325.184C666.997 312.699 662.591 299.117 662.591 299.117C662.591 299.117 672.219 296.254 672.417 284.4C672.417 284.043 672.417 283.673 672.417 283.297C672.628 283.327 672.841 283.34 673.055 283.335C673.191 283.345 673.327 283.345 673.463 283.335C673.463 283.335 671.626 276.729 673.833 271.954C676.039 267.178 680.808 271.584 685.214 252.129C688.403 238.05 691.208 221.854 692.515 213.973C693.084 210.809 692.885 207.556 691.935 204.485ZM608.143 245.785L604.795 242.597C605.905 243.056 607.135 243.508 608.513 243.942L621.138 245.409C615.501 245.931 610.266 246.212 608.143 245.791V245.785Z" fill="url(#paint42_linear)"/>
<path opacity="0.3" d="M681.675 407.739C681.654 409.054 681.502 410.363 681.223 411.648C681.223 411.648 651.254 413.809 641.906 413.089C637.398 412.744 635.478 411.061 635.134 409.448C634.726 411.297 636.358 413.745 641.906 414.173C651.286 414.893 681.223 412.732 681.223 412.732C681.574 411.092 681.726 409.415 681.675 407.739Z" fill="white"/>
<path d="M649.481 390.37L636.856 401.554C636.856 401.554 629.644 403.358 625.672 402.995C621.699 402.631 619.901 409.129 629.281 409.85C638.66 410.57 668.598 408.408 668.598 408.408C668.598 408.408 671.486 396.867 662.827 390.37H649.481Z" fill="#47465A"/>
<path opacity="0.05" d="M649.481 390.37L636.856 401.554C636.856 401.554 629.644 403.358 625.672 402.995C621.699 402.631 619.901 409.129 629.281 409.85C638.66 410.57 668.598 408.408 668.598 408.408C668.598 408.408 671.486 396.867 662.827 390.37H649.481Z" fill="black"/>
<path opacity="0.3" d="M669.05 403.409C669.029 404.724 668.877 406.033 668.598 407.318C668.598 407.318 638.628 409.48 629.281 408.759C624.773 408.415 622.853 406.731 622.509 405.118C622.101 406.967 623.733 409.416 629.281 409.843C638.66 410.564 668.598 408.402 668.598 408.402C668.949 406.762 669.101 405.086 669.05 403.409Z" fill="white"/>
<path d="M662.132 394.693L649.507 405.877C649.507 405.877 642.295 407.681 638.322 407.318C634.35 406.955 632.552 413.452 641.931 414.173C651.311 414.893 681.248 412.732 681.248 412.732C681.248 412.732 684.137 401.19 675.478 394.693H662.132Z" fill="#47465A"/>
<path d="M665.715 392.168C663.834 394.489 661.182 395.356 658.408 395.515C652.102 395.815 645.158 392.168 645.158 392.168C649.844 388.202 637.946 353.208 637.946 353.208C628.209 348.521 628.93 338.058 628.93 338.058L632.118 281.263L632.915 266.999L643.015 260.865L650.979 266.974L658.529 272.77C659.02 274.613 659.336 276.498 659.473 278.4C660.346 291.657 649.87 294.775 649.87 294.775C649.87 294.775 654.2 308.12 650.233 320.382C646.267 332.644 653.122 343.465 653.122 343.465C653.122 343.465 666.111 380.977 663.962 383.145C661.813 385.313 665.715 392.168 665.715 392.168Z" fill="#565171"/>
<path opacity="0.05" d="M665.715 392.168C663.834 394.489 661.182 395.356 658.408 395.515C652.102 395.815 645.158 392.168 645.158 392.168C649.844 388.202 637.946 353.208 637.946 353.208C628.209 348.521 628.93 338.058 628.93 338.058L632.118 281.263L632.915 266.999L643.015 260.865L650.979 266.974L658.529 272.77C659.02 274.613 659.336 276.498 659.473 278.4C660.346 291.657 649.87 294.775 649.87 294.775C649.87 294.775 654.2 308.12 650.233 320.382C646.267 332.644 653.122 343.465 653.122 343.465C653.122 343.465 666.111 380.977 663.962 383.145C661.813 385.313 665.715 392.168 665.715 392.168Z" fill="black"/>
<path d="M678.341 396.497C672.207 404.072 657.783 396.497 657.783 396.497C658.077 396.23 658.297 395.892 658.421 395.515C661.067 388.323 649.494 353.935 649.494 353.935C639.757 349.248 638.654 338.064 638.654 338.064L636.103 280.262L635.772 272.776L650.948 266.98L655.609 265.201L671.123 277.106C671.794 279.563 672.129 282.101 672.117 284.649C671.92 296.299 662.463 299.111 662.463 299.111C662.463 299.111 666.793 312.456 662.827 324.718C658.861 336.98 665.715 347.801 665.715 347.801C665.715 347.801 678.704 385.313 676.555 387.481C674.406 389.649 678.341 396.497 678.341 396.497Z" fill="#565171"/>
<path d="M664.268 185.84C664.268 185.84 672.206 197.024 669.318 204.599C666.429 212.175 684.449 196.661 684.449 196.661C684.449 196.661 678.679 186.561 681.561 175.74L664.268 185.84Z" fill="#FDC2CC"/>
<path opacity="0.1" d="M681.943 176.467L664.632 186.567C665.36 187.632 666.033 188.735 666.646 189.87C667.645 190.074 668.662 190.176 669.682 190.176C674.305 190.176 676.46 185.324 679.246 182.059C679.049 179.438 681.172 179.368 681.943 176.467Z" fill="black"/>
<path d="M669.324 189.449C677.692 189.449 684.475 182.666 684.475 174.299C684.475 165.932 677.692 159.149 669.324 159.149C660.957 159.149 654.174 165.932 654.174 174.299C654.174 182.666 660.957 189.449 669.324 189.449Z" fill="#FDC2CC"/>
<path d="M645.91 191.566H523.898V283.514H645.91V191.566Z" fill="url(#paint43_linear)"/>
<path d="M643.175 193.626H526.633V281.454H643.175V193.626Z" fill="white"/>
<path opacity="0.2" d="M576.879 201.226H538.034V223.18H576.879V201.226Z" fill="url(#paint44_linear)"/>
<path d="M631.774 201.226H586.17V206.296H631.774V201.226Z" fill="#E6E8EC"/>
<path d="M618.262 209.675H586.17V214.744H618.262V209.675Z" fill="#E6E8EC"/>
<path d="M631.774 218.117H586.17V223.187H631.774V218.117Z" fill="#E6E8EC"/>
<path d="M631.774 226.56H538.034V231.629H631.774V226.56Z" fill="#E6E8EC"/>
<path d="M631.774 235.009H538.034V240.078H631.774V235.009Z" fill="#E6E8EC"/>
<path d="M631.774 243.451H538.034V248.52H631.774V243.451Z" fill="#E6E8EC"/>
<path d="M624.173 251.9H538.034V256.969H624.173V251.9Z" fill="#E6E8EC"/>
<path d="M631.774 260.342H538.034V265.411H631.774V260.342Z" fill="#E6E8EC"/>
<path d="M631.774 268.784H538.034V273.854H631.774V268.784Z" fill="#E6E8EC"/>
<path opacity="0.1" d="M650.157 162.043C651.686 160.476 653.673 159.433 655.832 159.066C657.936 158.613 660.244 158.473 661.928 157.153C663.841 155.629 664.682 152.734 667.029 152.09C668.05 151.885 669.107 151.969 670.083 152.332C673.833 153.463 677.162 155.683 679.648 158.709C680.234 159.576 680.98 160.323 681.848 160.908C682.366 161.128 682.873 161.375 683.365 161.648C683.905 162.074 684.331 162.629 684.602 163.261C686.294 166.677 686.684 170.591 685.699 174.273C685.112 176.448 684.054 178.463 683.429 180.65C682.804 182.837 682.645 185.266 683.792 187.198C682.683 187.766 681.28 187.052 680.604 186.019C679.928 184.986 679.699 183.71 679.329 182.518C678.607 180.173 677.255 178.07 675.42 176.441C674.285 175.434 672.232 174.758 671.46 176.059C671.154 176.562 671.173 177.2 670.912 177.723C670.396 178.743 668.903 178.947 667.915 178.361C666.963 177.703 666.293 176.71 666.041 175.581C664.555 170.556 662.023 167.393 656.648 169.542C654.646 170.346 652.287 170.887 650.361 169.51C647.849 167.693 648.34 164.097 650.157 162.043Z" fill="black"/>
<path d="M650.157 161.68C651.686 160.112 653.673 159.07 655.832 158.702C657.936 158.25 660.244 158.109 661.928 156.789C663.841 155.265 664.682 152.37 667.029 151.726C668.05 151.521 669.107 151.605 670.083 151.969C673.833 153.1 677.162 155.319 679.648 158.345C680.234 159.212 680.98 159.959 681.848 160.545C682.366 160.765 682.873 161.011 683.365 161.285C683.905 161.711 684.331 162.266 684.602 162.898C686.294 166.313 686.684 170.228 685.699 173.91C685.112 176.084 684.054 178.099 683.429 180.286C682.804 182.473 682.645 184.903 683.792 186.835C682.683 187.402 681.28 186.688 680.604 185.655C679.928 184.622 679.699 183.347 679.329 182.155C678.607 179.809 677.255 177.707 675.42 176.078C674.285 175.07 672.232 174.395 671.46 175.695C671.154 176.199 671.173 176.837 670.912 177.36C670.396 178.38 668.903 178.584 667.915 177.997C666.963 177.34 666.293 176.347 666.041 175.217C664.555 170.193 662.023 167.03 656.648 169.179C654.646 169.982 652.287 170.524 650.361 169.147C647.849 167.33 648.34 163.74 650.157 161.68Z" fill="#B96B6B"/>
<path d="M640.101 243.916C640.101 243.916 614.13 247.525 608.717 246.467L594.287 232.758C594.287 232.758 580.578 243.221 602.226 250.07L642.627 254.756L640.101 243.916Z" fill="#FDC2CC"/>
<path opacity="0.05" d="M640.101 243.916C640.101 243.916 614.13 247.525 608.717 246.467L594.287 232.758C594.287 232.758 580.578 243.221 602.226 250.07L642.627 254.756L640.101 243.916Z" fill="black"/>
<path d="M649.481 249.33L644.82 248.788L609.112 244.637C587.471 237.782 601.174 227.325 601.174 227.325L615.603 241.034C619.767 241.87 636.091 239.925 643.404 238.987C645.598 238.7 646.982 238.509 646.982 238.509L649.481 249.33Z" fill="#FDC2CC"/>
<path opacity="0.1" d="M672.117 284.642C668.999 284.196 662.687 280.44 659.441 278.4C658.204 277.622 657.413 277.125 657.413 277.125C657.413 277.125 654.168 268.108 645.508 274.963C642.693 277.25 639.514 279.047 636.103 280.281C634.799 280.742 633.454 281.08 632.086 281.289L632.883 267.024L642.983 260.89L650.948 266.999L655.609 265.22L671.123 277.125C671.792 279.574 672.127 282.103 672.117 284.642Z" fill="black"/>
<path d="M691.642 215.446C690.367 223.187 687.599 239.096 684.468 252.933C680.139 272.062 675.452 267.72 673.284 272.413C671.116 277.106 672.921 283.597 672.921 283.597C669.312 283.96 657.407 276.022 657.407 276.022C657.407 276.022 654.161 267.005 645.502 273.86C636.843 280.715 629.988 280.351 629.988 280.351C628.184 268.446 641.53 236.705 641.53 236.705C641.53 236.705 654.518 212.175 657.401 208.929C658.738 207.339 659.691 205.463 660.187 203.445C660.408 202.641 660.562 201.82 660.646 200.991C665.333 200.627 676.88 192.701 676.88 192.701L685.897 191.26V195.947C686.001 195.994 686.1 196.054 686.19 196.125C687.676 197.26 689.544 202.075 690.838 205.868C691.89 208.946 692.166 212.236 691.642 215.446Z" fill="#010E28"/>
<path opacity="0.1" d="M684.449 200.633C684.449 200.633 675.069 193.058 661.003 217.588C646.937 242.118 643.691 238.146 643.691 238.146C643.691 238.146 646.58 248.986 645.132 251.135C645.132 251.135 654.869 250.414 658.478 251.135C662.087 251.855 684.449 223.735 684.449 223.735C684.449 223.735 696.016 207.845 684.449 200.633Z" fill="black"/>
<path opacity="0.1" d="M684.111 199.186C684.111 199.186 674.732 191.611 660.665 216.141C646.599 240.671 643.353 236.698 643.353 236.698C643.353 236.698 654.537 248.96 658.14 249.687C661.743 250.414 684.111 222.269 684.111 222.269C684.111 222.269 695.653 206.404 684.111 199.186Z" fill="black"/>
<path opacity="0.1" d="M644.82 248.788C644.966 246.116 643.959 241.417 643.379 238.981C645.572 238.694 646.956 238.503 646.956 238.503L649.506 249.343L644.82 248.788Z" fill="black"/>
<path opacity="0.05" d="M686.209 196.125H678.876C678.876 196.125 664.447 203.337 664.09 202.98C663.847 202.738 661.616 203.152 660.2 203.452C660.421 202.648 660.575 201.827 660.659 200.997C665.346 200.633 676.893 192.708 676.893 192.708L685.91 191.266V195.953C686.016 195.998 686.117 196.056 686.209 196.125Z" fill="black"/>
<g opacity="0.05">
<path opacity="0.05" d="M642.084 273.471C637.219 277.297 632.915 278.897 630.09 279.535C630.09 279.803 630.141 280.07 630.18 280.326C630.18 280.326 637.034 280.689 645.693 273.834C647.035 272.685 648.62 271.856 650.329 271.411C648.442 270.538 645.745 270.595 642.084 273.471Z" fill="#010E28"/>
<path opacity="0.05" d="M691.043 205.881C689.767 202.055 687.854 197.273 686.394 196.138C686.304 196.067 686.206 196.007 686.101 195.959C686.101 195.959 683.117 196.061 683.212 196.138C684.698 197.273 686.139 201.724 687.434 205.518C688.477 208.593 688.746 211.878 688.218 215.082C686.943 222.823 684.175 238.732 681.044 252.569C676.715 271.698 672.028 267.356 669.86 272.049C668.088 275.875 668.974 280.938 669.356 282.64C670.899 283.278 672.239 283.68 673.106 283.59C673.106 283.59 671.301 277.099 673.469 272.406C675.637 267.713 680.324 272.043 684.653 252.926C687.784 239.096 690.539 223.18 691.827 215.439C692.354 212.237 692.085 208.955 691.043 205.881Z" fill="#010E28"/>
</g>
<path d="M684.449 199.913C684.449 199.913 675.069 192.338 661.003 216.868C646.937 241.398 643.691 237.425 643.691 237.425C643.691 237.425 646.58 248.265 645.132 250.414C645.132 250.414 654.869 249.693 658.478 250.414C662.087 251.134 684.449 222.995 684.449 222.995C684.449 222.995 696.016 207.125 684.449 199.913Z" fill="#31B8FF"/>
</g>
<defs>
<linearGradient id="paint0_linear" x1="170.397" y1="27.7692" x2="170.397" y2="381.507" gradientUnits="userSpaceOnUse">
<stop stop-color="#1D97DB"/>
<stop offset="1" stop-color="#31B8FF" stop-opacity="0.88"/>
</linearGradient>
<linearGradient id="paint1_linear" x1="69.6253" y1="204.896" x2="69.6253" y2="324.634" gradientUnits="userSpaceOnUse">
<stop stop-color="#1D97DB"/>
<stop offset="1" stop-color="#31B8FF" stop-opacity="0.88"/>
</linearGradient>
<linearGradient id="paint2_linear" x1="87.6103" y1="111.11" x2="87.6103" y2="289.238" gradientUnits="userSpaceOnUse">
<stop stop-color="#1D97DB"/>
<stop offset="1" stop-color="#31B8FF" stop-opacity="0.88"/>
</linearGradient>
<linearGradient id="paint3_linear" x1="394.042" y1="333.256" x2="394.042" y2="492.054" gradientUnits="userSpaceOnUse">
<stop stop-color="#1D97DB"/>
<stop offset="1" stop-color="#31B8FF" stop-opacity="0.88"/>
</linearGradient>
<linearGradient id="paint4_linear" x1="620.966" y1="0.261414" x2="620.966" y2="147.295" gradientUnits="userSpaceOnUse">
<stop stop-color="#1D97DB"/>
<stop offset="1" stop-color="#31B8FF" stop-opacity="0.88"/>
</linearGradient>
<linearGradient id="paint5_linear" x1="626.389" y1="92.3893" x2="626.389" y2="153.881" gradientUnits="userSpaceOnUse">
<stop stop-color="#1D97DB"/>
<stop offset="1" stop-color="#31B8FF" stop-opacity="0.88"/>
</linearGradient>
<linearGradient id="paint6_linear" x1="158.396" y1="67.067" x2="158.396" y2="87.1589" gradientUnits="userSpaceOnUse">
<stop stop-color="#1D97DB"/>
<stop offset="1" stop-color="#31B8FF" stop-opacity="0.88"/>
</linearGradient>
<linearGradient id="paint7_linear" x1="169.498" y1="82.8474" x2="169.498" y2="100.983" gradientUnits="userSpaceOnUse">
<stop stop-color="#1D97DB"/>
<stop offset="1" stop-color="#31B8FF" stop-opacity="0.88"/>
</linearGradient>
<linearGradient id="paint8_linear" x1="169.164" y1="114.046" x2="169.164" y2="127.085" gradientUnits="userSpaceOnUse">
<stop stop-color="#1D97DB"/>
<stop offset="1" stop-color="#31B8FF" stop-opacity="0.88"/>
</linearGradient>
<linearGradient id="paint9_linear" x1="162.837" y1="139.657" x2="162.837" y2="154.373" gradientUnits="userSpaceOnUse">
<stop stop-color="#1D97DB"/>
<stop offset="1" stop-color="#31B8FF" stop-opacity="0.88"/>
</linearGradient>
<linearGradient id="paint10_linear" x1="155.193" y1="90.5176" x2="155.193" y2="106.658" gradientUnits="userSpaceOnUse">
<stop stop-color="#1D97DB"/>
<stop offset="1" stop-color="#31B8FF" stop-opacity="0.88"/>
</linearGradient>
<linearGradient id="paint11_linear" x1="148.383" y1="119.19" x2="148.383" y2="131.982" gradientUnits="userSpaceOnUse">
<stop stop-color="#1D97DB"/>
<stop offset="1" stop-color="#31B8FF" stop-opacity="0.88"/>
</linearGradient>
<linearGradient id="paint12_linear" x1="146.144" y1="149.334" x2="146.144" y2="163.682" gradientUnits="userSpaceOnUse">
<stop stop-color="#1D97DB"/>
<stop offset="1" stop-color="#31B8FF" stop-opacity="0.88"/>
</linearGradient>
<linearGradient id="paint13_linear" x1="44.3459" y1="472.982" x2="44.3459" y2="488.789" gradientUnits="userSpaceOnUse">
<stop stop-color="#1D97DB"/>
<stop offset="1" stop-color="#31B8FF" stop-opacity="0.88"/>
</linearGradient>
<linearGradient id="paint14_linear" x1="598.455" y1="384.35" x2="598.455" y2="400.157" gradientUnits="userSpaceOnUse">
<stop stop-color="#1D97DB"/>
<stop offset="1" stop-color="#31B8FF" stop-opacity="0.88"/>
</linearGradient>
<linearGradient id="paint15_linear" x1="402.345" y1="380.824" x2="402.345" y2="71.964" gradientUnits="userSpaceOnUse">
<stop stop-color="#808080" stop-opacity="0.25"/>
<stop offset="0.54" stop-color="#808080" stop-opacity="0.12"/>
<stop offset="1" stop-color="#808080" stop-opacity="0.1"/>
</linearGradient>
<linearGradient id="paint16_linear" x1="246.537" y1="140.682" x2="246.537" y2="162.636" gradientUnits="userSpaceOnUse">
<stop stop-color="#1D97DB"/>
<stop offset="1" stop-color="#31B8FF" stop-opacity="0.88"/>
</linearGradient>
<linearGradient id="paint17_linear" x1="374.894" y1="140.682" x2="374.894" y2="162.636" gradientUnits="userSpaceOnUse">
<stop stop-color="#1D97DB"/>
<stop offset="1" stop-color="#31B8FF" stop-opacity="0.88"/>
</linearGradient>
<linearGradient id="paint18_linear" x1="503.257" y1="140.682" x2="503.257" y2="162.636" gradientUnits="userSpaceOnUse">
<stop stop-color="#1D97DB"/>
<stop offset="1" stop-color="#31B8FF" stop-opacity="0.88"/>
</linearGradient>
<linearGradient id="paint19_linear" x1="246.537" y1="239.485" x2="246.537" y2="261.439" gradientUnits="userSpaceOnUse">
<stop stop-color="#1D97DB"/>
<stop offset="1" stop-color="#31B8FF" stop-opacity="0.88"/>
</linearGradient>
<linearGradient id="paint20_linear" x1="374.894" y1="239.485" x2="374.894" y2="261.439" gradientUnits="userSpaceOnUse">
<stop stop-color="#1D97DB"/>
<stop offset="1" stop-color="#31B8FF" stop-opacity="0.88"/>
</linearGradient>
<linearGradient id="paint21_linear" x1="76197.8" y1="212426" x2="76197.8" y2="87654.1" gradientUnits="userSpaceOnUse">
<stop stop-color="#808080" stop-opacity="0.25"/>
<stop offset="0.54" stop-color="#808080" stop-opacity="0.12"/>
<stop offset="1" stop-color="#808080" stop-opacity="0.1"/>
</linearGradient>
<linearGradient id="paint22_linear" x1="120.804" y1="218.494" x2="120.804" y2="228.524" gradientUnits="userSpaceOnUse">
<stop stop-color="#1D97DB"/>
<stop offset="1" stop-color="#31B8FF" stop-opacity="0.88"/>
</linearGradient>
<linearGradient id="paint23_linear" x1="179.435" y1="218.494" x2="179.435" y2="228.524" gradientUnits="userSpaceOnUse">
<stop stop-color="#1D97DB"/>
<stop offset="1" stop-color="#31B8FF" stop-opacity="0.88"/>
</linearGradient>
<linearGradient id="paint24_linear" x1="238.072" y1="218.494" x2="238.072" y2="228.524" gradientUnits="userSpaceOnUse">
<stop stop-color="#1D97DB"/>
<stop offset="1" stop-color="#31B8FF" stop-opacity="0.88"/>
</linearGradient>
<linearGradient id="paint25_linear" x1="120.804" y1="263.626" x2="120.804" y2="273.656" gradientUnits="userSpaceOnUse">
<stop stop-color="#1D97DB"/>
<stop offset="1" stop-color="#31B8FF" stop-opacity="0.88"/>
</linearGradient>
<linearGradient id="paint26_linear" x1="179.435" y1="263.626" x2="179.435" y2="273.656" gradientUnits="userSpaceOnUse">
<stop stop-color="#1D97DB"/>
<stop offset="1" stop-color="#31B8FF" stop-opacity="0.88"/>
</linearGradient>
<linearGradient id="paint27_linear" x1="238.072" y1="263.626" x2="238.072" y2="273.656" gradientUnits="userSpaceOnUse">
<stop stop-color="#1D97DB"/>
<stop offset="1" stop-color="#31B8FF" stop-opacity="0.88"/>
</linearGradient>
<linearGradient id="paint28_linear" x1="120.804" y1="310.543" x2="120.804" y2="320.573" gradientUnits="userSpaceOnUse">
<stop stop-color="#1D97DB"/>
<stop offset="1" stop-color="#31B8FF" stop-opacity="0.88"/>
</linearGradient>
<linearGradient id="paint29_linear" x1="179.435" y1="310.543" x2="179.435" y2="320.573" gradientUnits="userSpaceOnUse">
<stop stop-color="#1D97DB"/>
<stop offset="1" stop-color="#31B8FF" stop-opacity="0.88"/>
</linearGradient>
<linearGradient id="paint30_linear" x1="238.072" y1="310.543" x2="238.072" y2="320.573" gradientUnits="userSpaceOnUse">
<stop stop-color="#1D97DB"/>
<stop offset="1" stop-color="#31B8FF" stop-opacity="0.88"/>
</linearGradient>
<linearGradient id="paint31_linear" x1="120.804" y1="355.676" x2="120.804" y2="365.706" gradientUnits="userSpaceOnUse">
<stop stop-color="#1D97DB"/>
<stop offset="1" stop-color="#31B8FF" stop-opacity="0.88"/>
</linearGradient>
<linearGradient id="paint32_linear" x1="179.435" y1="355.676" x2="179.435" y2="365.706" gradientUnits="userSpaceOnUse">
<stop stop-color="#1D97DB"/>
<stop offset="1" stop-color="#31B8FF" stop-opacity="0.88"/>
</linearGradient>
<linearGradient id="paint33_linear" x1="23420.7" y1="173996" x2="23420.7" y2="97806.3" gradientUnits="userSpaceOnUse">
<stop stop-color="#808080" stop-opacity="0.25"/>
<stop offset="0.54" stop-color="#808080" stop-opacity="0.12"/>
<stop offset="1" stop-color="#808080" stop-opacity="0.1"/>
</linearGradient>
<linearGradient id="paint34_linear" x1="83.7381" y1="337.503" x2="83.7381" y2="349.44" gradientUnits="userSpaceOnUse">
<stop stop-color="#1D97DB"/>
<stop offset="1" stop-color="#31B8FF" stop-opacity="0.88"/>
</linearGradient>
<linearGradient id="paint35_linear" x1="83.7381" y1="391.32" x2="83.7381" y2="403.256" gradientUnits="userSpaceOnUse">
<stop stop-color="#1D97DB"/>
<stop offset="1" stop-color="#31B8FF" stop-opacity="0.88"/>
</linearGradient>
<linearGradient id="paint36_linear" x1="81516.4" y1="98681.1" x2="81516.4" y2="74904.6" gradientUnits="userSpaceOnUse">
<stop stop-color="#808080" stop-opacity="0.25"/>
<stop offset="0.54" stop-color="#808080" stop-opacity="0.12"/>
<stop offset="1" stop-color="#808080" stop-opacity="0.1"/>
</linearGradient>
<linearGradient id="paint37_linear" x1="22420.7" y1="27715.5" x2="27690.6" y2="27715.5" gradientUnits="userSpaceOnUse">
<stop stop-color="#808080" stop-opacity="0.25"/>
<stop offset="0.54" stop-color="#808080" stop-opacity="0.12"/>
<stop offset="1" stop-color="#808080" stop-opacity="0.1"/>
</linearGradient>
<linearGradient id="paint38_linear" x1="260.39" y1="382.456" x2="260.39" y2="392.486" gradientUnits="userSpaceOnUse">
<stop stop-color="#1D97DB"/>
<stop offset="1" stop-color="#31B8FF" stop-opacity="0.88"/>
</linearGradient>
<linearGradient id="paint39_linear" x1="-71549.7" y1="231244" x2="-71549.7" y2="113894" gradientUnits="userSpaceOnUse">
<stop stop-color="#808080" stop-opacity="0.25"/>
<stop offset="0.54" stop-color="#808080" stop-opacity="0.12"/>
<stop offset="1" stop-color="#808080" stop-opacity="0.1"/>
</linearGradient>
<linearGradient id="paint40_linear" x1="13703.5" y1="26277.2" x2="13703.5" y2="22303.7" gradientUnits="userSpaceOnUse">
<stop stop-color="#808080" stop-opacity="0.25"/>
<stop offset="0.54" stop-color="#808080" stop-opacity="0.12"/>
<stop offset="1" stop-color="#808080" stop-opacity="0.1"/>
</linearGradient>
<linearGradient id="paint41_linear" x1="114.982" y1="284.432" x2="114.982" y2="296.369" gradientUnits="userSpaceOnUse">
<stop stop-color="#1D97DB"/>
<stop offset="1" stop-color="#31B8FF" stop-opacity="0.88"/>
</linearGradient>
<linearGradient id="paint42_linear" x1="110785" y1="189434" x2="110785" y2="77390.5" gradientUnits="userSpaceOnUse">
<stop stop-color="#808080" stop-opacity="0.25"/>
<stop offset="0.54" stop-color="#808080" stop-opacity="0.12"/>
<stop offset="1" stop-color="#808080" stop-opacity="0.1"/>
</linearGradient>
<linearGradient id="paint43_linear" x1="112446" y1="41074.3" x2="112446" y2="27815.4" gradientUnits="userSpaceOnUse">
<stop stop-color="#808080" stop-opacity="0.25"/>
<stop offset="0.54" stop-color="#808080" stop-opacity="0.12"/>
<stop offset="1" stop-color="#808080" stop-opacity="0.1"/>
</linearGradient>
<linearGradient id="paint44_linear" x1="557.457" y1="201.226" x2="557.457" y2="223.18" gradientUnits="userSpaceOnUse">
<stop stop-color="#1D97DB"/>
<stop offset="1" stop-color="#31B8FF" stop-opacity="0.88"/>
</linearGradient>
<clipPath id="clip0">
<rect width="693" height="503.321" fill="white"/>
</clipPath>
</defs>
</svg>
