<svg width="700" height="687" viewBox="0 0 700 687" fill="none" xmlns="http://www.w3.org/2000/svg">
<path d="M572.782 141.423C537.95 63.5304 454.342 34.2024 388.374 86.5014C362.614 106.905 346.542 139.377 315 152.407C285.404 164.627 247.912 161.03 215.908 167.648C147.756 181.653 56.0001 234.789 63.0001 316.664C66.0661 352.527 90.7341 392.359 102.928 425.916C116.928 464.526 125.328 512.829 162.386 535.91C225.918 575.536 302.554 543.146 359.786 511.195C390.586 494.019 407.54 483.46 440.706 489.35C471.408 494.843 499.058 514.065 529.06 491.259C551.586 474.137 553.448 439.441 572.362 419.065C593.67 396.107 615.272 394.446 626.346 359.942C639.772 318.078 619.99 291.921 606.62 254.52C593.25 217.118 589.19 178.069 572.782 141.423Z" fill="url(#paint0_linear)"/>
<g opacity="0.7">
<path opacity="0.7" d="M572.782 141.423C537.95 63.5304 454.342 34.2024 388.374 86.5014C362.614 106.905 346.542 139.377 315 152.407C285.404 164.627 247.912 161.03 215.908 167.648C147.756 181.653 56.0001 234.789 63.0001 316.664C66.0661 352.527 90.7341 392.359 102.928 425.916C116.928 464.526 125.328 512.829 162.386 535.91C225.918 575.536 302.554 543.146 359.786 511.195C390.586 494.019 407.54 483.46 440.706 489.35C471.408 494.843 499.058 514.065 529.06 491.259C551.586 474.137 553.448 439.441 572.362 419.065C593.67 396.107 615.272 394.446 626.346 359.942C639.772 318.078 619.99 291.921 606.62 254.52C593.25 217.118 589.19 178.069 572.782 141.423Z" fill="white"/>
</g>
<path d="M307.734 600.951C427.255 600.951 524.146 595.031 524.146 587.728C524.146 580.426 427.255 574.506 307.734 574.506C188.213 574.506 91.322 580.426 91.322 587.728C91.322 595.031 188.213 600.951 307.734 600.951Z" fill="url(#paint1_linear)"/>
<path opacity="0.8" d="M307.734 600.951C427.255 600.951 524.146 595.031 524.146 587.728C524.146 580.426 427.255 574.506 307.734 574.506C188.213 574.506 91.322 580.426 91.322 587.728C91.322 595.031 188.213 600.951 307.734 600.951Z" fill="white"/>
<path d="M470.358 84.936H252.756C237.733 84.936 225.554 96.8802 225.554 111.614V562.163C225.554 576.896 237.733 588.841 252.756 588.841H470.358C485.381 588.841 497.56 576.896 497.56 562.163V111.614C497.56 96.8802 485.381 84.936 470.358 84.936Z" fill="#263238"/>
<path d="M485.464 140.269H237.636V533.507H485.464V140.269Z" fill="white" stroke="#263238" stroke-width="1.33739" stroke-miterlimit="10"/>
<path d="M399.541 299.503C420.519 278.929 420.519 245.571 399.541 224.997C378.563 204.423 344.55 204.423 323.572 224.997C302.594 245.571 302.594 278.929 323.572 299.503C344.55 320.077 378.563 320.077 399.541 299.503Z" fill="url(#paint2_linear)"/>
<path d="M432.082 508.779H291.046C290.729 508.781 290.414 508.721 290.12 508.603C289.826 508.485 289.559 508.311 289.334 508.092C289.109 507.873 288.931 507.612 288.809 507.324C288.687 507.037 288.624 506.729 288.624 506.417C288.622 506.105 288.684 505.795 288.805 505.506C288.926 505.217 289.104 504.955 289.329 504.734C289.555 504.513 289.822 504.338 290.117 504.219C290.412 504.1 290.727 504.04 291.046 504.042H432.082C432.399 504.042 432.714 504.103 433.007 504.223C433.3 504.343 433.566 504.518 433.79 504.738C434.013 504.959 434.191 505.221 434.311 505.509C434.431 505.797 434.492 506.106 434.49 506.417C434.49 507.044 434.236 507.644 433.785 508.087C433.333 508.53 432.721 508.779 432.082 508.779Z" fill="url(#paint3_linear)"/>
<path d="M436.674 344.55H286.44C283.339 344.55 280.826 347.015 280.826 350.056V367.425C280.826 370.466 283.339 372.931 286.44 372.931H436.674C439.774 372.931 442.288 370.466 442.288 367.425V350.056C442.288 347.015 439.774 344.55 436.674 344.55Z" fill="url(#paint4_linear)"/>
<path d="M436.674 397.632H286.44C283.339 397.632 280.826 400.097 280.826 403.137V420.506C280.826 423.547 283.339 426.012 286.44 426.012H436.674C439.774 426.012 442.288 423.547 442.288 420.506V403.137C442.288 400.097 439.774 397.632 436.674 397.632Z" fill="url(#paint5_linear)"/>
<path d="M388.304 288.53L372.498 279.605V272.232C374.787 269.516 376.444 266.344 377.356 262.937C377.9 263.126 378.473 263.224 379.05 263.225C381.01 263.225 382.256 257.266 382.466 253.009C384.748 248.273 381.64 245.499 381.64 245.499C381.64 245.499 382.928 244.236 383.782 239.169C384.636 234.103 380.772 236.217 377.762 231.576C374.752 226.936 372.596 221.883 362.712 221.883C359.988 221.795 357.301 222.513 354.999 223.943C352.697 225.373 350.887 227.449 349.804 229.901C347.344 229.91 344.892 230.191 342.496 230.739C339.472 231.576 338.618 241.284 341.194 245.087C342.347 247.166 342.962 249.49 342.986 251.856C342.3 251.032 341.586 250.813 341.194 252.68C340.34 256.895 343.784 262.799 343.784 262.799L345.562 262.305C346.458 265.947 348.186 269.341 350.616 272.232V279.605L334.81 288.53C332.964 289.575 331.431 291.078 330.364 292.888C329.298 294.698 328.736 296.751 328.734 298.841V303.949C338.134 311.071 349.678 314.935 361.557 314.935C373.436 314.935 384.979 311.071 394.38 303.949V298.841C394.381 296.751 393.82 294.696 392.753 292.886C391.686 291.075 390.152 289.573 388.304 288.53V288.53Z" fill="#263238"/>
<path d="M301.28 418.955C300.918 418.95 300.571 418.807 300.314 418.557C300.176 418.436 300.066 418.288 299.991 418.122C299.917 417.956 299.879 417.777 299.88 417.596C299.884 417.348 299.957 417.106 300.09 416.895L302.61 412.941L297.696 413.092C297.511 413.103 297.325 413.076 297.152 413.012C296.978 412.948 296.82 412.849 296.688 412.721C296.46 412.47 296.333 412.145 296.333 411.808C296.333 411.471 296.46 411.146 296.688 410.895C296.817 410.762 296.974 410.659 297.148 410.593C297.322 410.526 297.509 410.498 297.696 410.511L302.54 410.689L300.048 406.748C299.912 406.534 299.84 406.287 299.838 406.034C299.837 405.853 299.875 405.674 299.949 405.508C300.024 405.342 300.134 405.194 300.272 405.073C300.529 404.823 300.876 404.68 301.238 404.675C301.476 404.677 301.71 404.745 301.91 404.871C302.111 404.997 302.271 405.177 302.372 405.389L304.766 409.632L307.132 405.417C307.244 405.192 307.417 405.001 307.632 404.866C307.846 404.73 308.095 404.655 308.35 404.648C308.527 404.649 308.702 404.686 308.863 404.757C309.025 404.828 309.169 404.931 309.288 405.06C309.545 405.321 309.686 405.671 309.68 406.034C309.679 406.27 309.617 406.502 309.498 406.707L306.964 410.689L311.878 410.511C312.064 410.498 312.251 410.526 312.426 410.593C312.6 410.659 312.757 410.762 312.886 410.895C313.125 411.138 313.255 411.464 313.25 411.801C313.249 412.142 313.119 412.469 312.886 412.721C312.754 412.849 312.596 412.948 312.422 413.012C312.249 413.076 312.063 413.103 311.878 413.092L306.936 412.941L309.4 416.854C309.538 417.073 309.611 417.325 309.61 417.582C309.61 417.946 309.462 418.295 309.2 418.553C308.937 418.81 308.581 418.955 308.21 418.955C307.97 418.952 307.736 418.88 307.537 418.748C307.338 418.616 307.183 418.431 307.09 418.213L304.752 414.094L302.428 418.213C302.325 418.429 302.163 418.612 301.96 418.743C301.758 418.874 301.522 418.947 301.28 418.955V418.955Z" fill="#263238"/>
<path d="M323.988 418.955C323.626 418.95 323.279 418.807 323.022 418.557C322.884 418.436 322.774 418.287 322.7 418.122C322.625 417.956 322.587 417.777 322.588 417.595C322.592 417.348 322.665 417.106 322.798 416.895L325.318 412.941L320.418 413.092C320.231 413.1 320.044 413.072 319.869 413.008C319.693 412.944 319.532 412.847 319.396 412.721C319.21 412.533 319.086 412.295 319.041 412.037C318.995 411.779 319.029 411.513 319.14 411.275C319.25 411.036 319.431 410.836 319.659 410.699C319.887 410.563 320.151 410.497 320.418 410.511L325.248 410.689L322.756 406.748C322.62 406.534 322.548 406.287 322.546 406.034C322.545 405.853 322.583 405.674 322.658 405.508C322.732 405.342 322.842 405.194 322.98 405.073C323.237 404.823 323.584 404.68 323.946 404.675C324.185 404.677 324.418 404.745 324.619 404.871C324.819 404.997 324.979 405.177 325.08 405.389L327.474 409.632L329.84 405.417C329.952 405.192 330.125 405.001 330.34 404.866C330.554 404.73 330.803 404.655 331.058 404.648C331.235 404.647 331.411 404.683 331.572 404.754C331.734 404.825 331.879 404.929 331.996 405.06C332.126 405.188 332.228 405.34 332.298 405.507C332.368 405.675 332.403 405.854 332.402 406.034C332.397 406.272 332.329 406.503 332.206 406.707L329.672 410.689L334.6 410.538C334.784 410.526 334.969 410.554 335.141 410.62C335.313 410.687 335.468 410.79 335.594 410.922C335.833 411.165 335.964 411.491 335.958 411.829C335.957 412.169 335.827 412.497 335.594 412.749C335.465 412.876 335.309 412.975 335.138 413.039C334.966 413.103 334.783 413.13 334.6 413.119L329.644 412.968L332.108 416.881C332.246 417.1 332.319 417.352 332.318 417.609C332.318 417.973 332.171 418.323 331.908 418.58C331.645 418.838 331.289 418.982 330.918 418.982C330.678 418.979 330.444 418.907 330.245 418.775C330.046 418.644 329.891 418.458 329.798 418.241L327.46 414.122L325.136 418.241C325.029 418.451 324.866 418.629 324.663 418.754C324.461 418.88 324.228 418.949 323.988 418.955V418.955Z" fill="#263238"/>
<path d="M346.71 418.955C346.343 418.953 345.991 418.81 345.73 418.557C345.592 418.436 345.482 418.288 345.407 418.122C345.333 417.956 345.295 417.777 345.296 417.595C345.3 417.348 345.373 417.106 345.506 416.895L348.026 412.941L343.126 413.092C342.862 413.102 342.601 413.035 342.376 412.9C342.151 412.764 341.973 412.566 341.863 412.33C341.753 412.094 341.718 411.832 341.761 411.576C341.804 411.321 341.923 411.084 342.104 410.895C342.236 410.763 342.396 410.66 342.572 410.594C342.749 410.527 342.937 410.499 343.126 410.511L347.956 410.689L345.464 406.748C345.328 406.534 345.256 406.287 345.254 406.034C345.258 405.854 345.299 405.676 345.373 405.512C345.448 405.347 345.555 405.198 345.688 405.073C345.949 404.82 346.301 404.677 346.668 404.675C346.904 404.679 347.134 404.748 347.332 404.875C347.53 405.001 347.688 405.179 347.788 405.389L350.182 409.632L352.548 405.417C352.66 405.192 352.833 405.001 353.048 404.866C353.262 404.73 353.511 404.655 353.766 404.648C353.943 404.647 354.119 404.683 354.28 404.754C354.442 404.825 354.586 404.929 354.704 405.06C354.834 405.188 354.936 405.34 355.006 405.507C355.076 405.675 355.111 405.854 355.11 406.034C355.105 406.272 355.037 406.503 354.914 406.707L352.38 410.689L357.308 410.511C357.489 410.493 357.672 410.513 357.845 410.571C358.017 410.628 358.175 410.721 358.307 410.843C358.44 410.966 358.545 411.115 358.614 411.28C358.683 411.445 358.715 411.623 358.708 411.801C358.711 412.14 358.586 412.467 358.358 412.721C358.226 412.849 358.068 412.948 357.894 413.012C357.721 413.076 357.535 413.103 357.35 413.092L352.408 412.941L354.858 416.854C354.996 417.073 355.069 417.325 355.068 417.582C355.064 417.762 355.023 417.94 354.948 418.105C354.874 418.27 354.767 418.418 354.634 418.543C354.512 418.671 354.365 418.774 354.201 418.845C354.038 418.916 353.861 418.953 353.682 418.955C353.444 418.951 353.212 418.878 353.016 418.747C352.819 418.615 352.666 418.429 352.576 418.213L350.224 414.094L347.9 418.213C347.795 418.436 347.627 418.624 347.416 418.756C347.205 418.887 346.96 418.956 346.71 418.955V418.955Z" fill="#263238"/>
<path d="M369.418 418.955C369.051 418.953 368.699 418.81 368.438 418.557C368.174 418.303 368.023 417.958 368.018 417.595C368.014 417.348 368.082 417.105 368.214 416.895L370.734 412.941L365.834 413.092C365.647 413.1 365.46 413.072 365.285 413.008C365.109 412.944 364.948 412.847 364.812 412.721C364.584 412.47 364.458 412.145 364.458 411.808C364.458 411.471 364.584 411.146 364.812 410.895C364.947 410.767 365.107 410.667 365.283 410.601C365.459 410.535 365.646 410.504 365.834 410.511L370.678 410.689L368.2 406.748C368.064 406.534 367.992 406.287 367.99 406.034C367.994 405.854 368.035 405.676 368.109 405.512C368.184 405.347 368.291 405.198 368.424 405.073C368.685 404.82 369.037 404.677 369.404 404.675C369.642 404.677 369.876 404.745 370.076 404.871C370.277 404.997 370.437 405.177 370.538 405.389L372.918 409.632L375.284 405.417C375.396 405.192 375.569 405.001 375.784 404.866C375.998 404.73 376.247 404.655 376.502 404.648C376.679 404.647 376.854 404.683 377.016 404.754C377.178 404.825 377.322 404.929 377.44 405.06C377.57 405.188 377.672 405.34 377.742 405.507C377.812 405.675 377.847 405.854 377.846 406.034C377.841 406.272 377.773 406.503 377.65 406.707L375.116 410.689L380.044 410.511C380.225 410.493 380.408 410.513 380.58 410.571C380.753 410.628 380.911 410.721 381.043 410.843C381.176 410.966 381.28 411.115 381.35 411.28C381.419 411.445 381.451 411.623 381.444 411.801C381.447 412.14 381.322 412.467 381.094 412.721C380.962 412.849 380.804 412.948 380.63 413.012C380.457 413.076 380.271 413.103 380.086 413.092L375.144 412.941L377.594 416.854C377.732 417.073 377.805 417.325 377.804 417.582C377.805 417.763 377.767 417.942 377.692 418.108C377.618 418.274 377.508 418.422 377.37 418.543C377.248 418.671 377.101 418.774 376.937 418.845C376.774 418.916 376.597 418.953 376.418 418.955C376.18 418.951 375.948 418.878 375.752 418.747C375.555 418.615 375.402 418.429 375.312 418.213L372.96 414.094L370.636 418.213C370.529 418.44 370.357 418.631 370.14 418.763C369.924 418.895 369.673 418.962 369.418 418.955Z" fill="#263238"/>
<path d="M392.126 418.955C391.759 418.953 391.407 418.81 391.146 418.557C390.929 418.341 390.791 418.061 390.753 417.761C390.715 417.46 390.779 417.156 390.936 416.895L393.442 412.941L388.542 413.092C388.355 413.1 388.168 413.072 387.993 413.008C387.817 412.944 387.656 412.847 387.52 412.721C387.292 412.47 387.166 412.145 387.166 411.808C387.166 411.471 387.292 411.146 387.52 410.895C387.655 410.767 387.815 410.667 387.991 410.601C388.167 410.535 388.354 410.504 388.542 410.511L393.386 410.689L390.894 406.748C390.758 406.534 390.686 406.287 390.684 406.034C390.689 405.672 390.84 405.327 391.104 405.073C391.365 404.82 391.717 404.677 392.084 404.675C392.322 404.677 392.556 404.745 392.756 404.871C392.957 404.997 393.117 405.177 393.218 405.389L395.598 409.632L397.964 405.417C398.076 405.192 398.249 405.001 398.464 404.866C398.678 404.73 398.927 404.655 399.182 404.648C399.361 404.647 399.539 404.683 399.703 404.754C399.867 404.825 400.014 404.929 400.134 405.06C400.391 405.321 400.532 405.671 400.526 406.034C400.521 406.272 400.453 406.503 400.33 406.707L397.796 410.689L402.724 410.511C402.905 410.493 403.088 410.513 403.26 410.571C403.433 410.628 403.591 410.721 403.723 410.843C403.856 410.966 403.96 411.115 404.03 411.28C404.099 411.445 404.131 411.623 404.124 411.801C404.127 412.14 404.002 412.467 403.774 412.721C403.642 412.849 403.484 412.948 403.31 413.012C403.137 413.076 402.951 413.103 402.766 413.092L397.824 412.941L400.274 416.854C400.412 417.073 400.485 417.325 400.484 417.582C400.485 417.763 400.447 417.942 400.372 418.108C400.298 418.274 400.188 418.422 400.05 418.543C399.928 418.671 399.781 418.774 399.617 418.845C399.454 418.916 399.277 418.953 399.098 418.955C398.86 418.951 398.628 418.878 398.432 418.747C398.235 418.615 398.082 418.429 397.992 418.213L395.64 414.094L393.316 418.213C393.211 418.436 393.043 418.624 392.832 418.756C392.621 418.887 392.376 418.956 392.126 418.955Z" fill="#263238"/>
<path d="M414.834 418.955C414.472 418.95 414.125 418.807 413.868 418.557C413.73 418.436 413.62 418.288 413.545 418.122C413.471 417.956 413.433 417.777 413.434 417.596C413.438 417.348 413.511 417.106 413.644 416.895L416.15 412.941L411.25 413.092C411.07 413.105 410.889 413.082 410.718 413.023C410.548 412.964 410.392 412.87 410.26 412.749C410.128 412.628 410.024 412.481 409.953 412.317C409.883 412.154 409.848 411.979 409.85 411.801C409.849 411.633 409.882 411.467 409.947 411.311C410.012 411.156 410.107 411.014 410.228 410.895C410.357 410.762 410.514 410.659 410.688 410.593C410.863 410.526 411.049 410.498 411.236 410.511L416.08 410.689L413.588 406.748C413.452 406.534 413.38 406.287 413.378 406.034C413.383 405.672 413.534 405.327 413.798 405.073C414.059 404.82 414.411 404.677 414.778 404.675C415.017 404.677 415.25 404.745 415.45 404.871C415.651 404.997 415.811 405.177 415.912 405.389L418.292 409.632L420.672 405.417C420.783 405.194 420.954 405.005 421.166 404.869C421.378 404.734 421.623 404.657 421.876 404.648C422.055 404.647 422.233 404.683 422.397 404.754C422.561 404.825 422.708 404.929 422.828 405.06C423.085 405.321 423.226 405.671 423.22 406.034C423.219 406.27 423.157 406.502 423.038 406.707L420.504 410.689L425.418 410.511C425.604 410.498 425.791 410.526 425.966 410.593C426.14 410.659 426.297 410.762 426.426 410.895C426.665 411.138 426.796 411.464 426.79 411.801C426.789 412.142 426.659 412.469 426.426 412.721C426.294 412.849 426.136 412.948 425.962 413.012C425.789 413.076 425.603 413.103 425.418 413.092L420.476 412.941L422.926 416.854C423.064 417.073 423.137 417.325 423.136 417.582C423.131 417.944 422.98 418.289 422.716 418.543C422.461 418.798 422.114 418.946 421.75 418.955C421.512 418.951 421.28 418.878 421.084 418.747C420.887 418.615 420.734 418.429 420.644 418.213L418.292 414.094L415.968 418.213C415.867 418.428 415.708 418.61 415.508 418.741C415.308 418.872 415.074 418.946 414.834 418.955Z" fill="#263238"/>
<g style="mix-blend-mode:multiply">
<path d="M485.464 140.791H237.636V156.018H485.464V140.791Z" fill="url(#paint6_linear)"/>
</g>
<path d="M388.5 112.74H334.6C333.627 112.74 332.694 112.361 332.006 111.686C331.318 111.012 330.932 110.097 330.932 109.143V109.143C330.932 108.189 331.318 107.274 332.006 106.599C332.694 105.924 333.627 105.545 334.6 105.545H388.5C389.473 105.545 390.406 105.924 391.094 106.599C391.781 107.274 392.168 108.189 392.168 109.143V109.143C392.168 110.097 391.781 111.012 391.094 111.686C390.406 112.361 389.473 112.74 388.5 112.74V112.74Z" fill="url(#paint7_linear)" stroke="#263238" stroke-width="1.33739" stroke-linecap="round" stroke-linejoin="round"/>
<path d="M376.25 555.723C376.253 552.87 375.393 550.081 373.778 547.708C372.164 545.335 369.868 543.485 367.182 542.392C364.495 541.3 361.538 541.013 358.685 541.569C355.833 542.125 353.212 543.498 351.155 545.515C349.099 547.532 347.698 550.102 347.132 552.9C346.565 555.698 346.857 558.598 347.971 561.233C349.086 563.868 350.972 566.119 353.392 567.702C355.811 569.285 358.655 570.129 361.564 570.126C365.458 570.122 369.191 568.604 371.944 565.904C374.698 563.203 376.246 559.542 376.25 555.723Z" fill="url(#paint8_linear)"/>
<path d="M369.012 548.418H354.116V563.027H369.012V548.418Z" fill="url(#paint9_linear)" stroke="#263238" stroke-width="1.33739" stroke-linecap="round" stroke-linejoin="round"/>
<path d="M539 389.942C539 389.942 519.484 341.31 536.858 335.529C554.946 329.501 554.148 361.617 553.448 377.269C551.978 410.717 548.212 416.936 545.398 408.767L539 389.942ZM533.134 427.879C538.496 434.745 540.008 427.632 530.334 395.517C525.798 380.414 515.942 349.864 500.822 361.328C486.304 372.313 520.856 412.131 520.856 412.131L533.134 427.879ZM522.774 455.752C527.884 460.201 527.982 454.585 515.844 431.394C510.146 420.534 498.092 398.551 488.222 409.426C478.744 419.916 511.042 445.413 511.042 445.413L522.774 455.752ZM511.574 488.897C516.684 493.36 516.782 487.73 504.644 464.553C498.946 453.693 486.892 431.697 477.022 442.585C467.6 453.102 499.8 478.599 499.8 478.599L511.574 488.897ZM543.914 421.426C535.738 424.557 542.234 427.962 576.38 427.866C592.396 427.866 625.1 427.152 618.128 409.701C611.45 392.936 562.814 414.286 562.814 414.286L543.914 421.426ZM534.604 443.724C525.952 445.194 531.636 449.807 565.124 456.37C580.818 459.459 613.004 465.157 609.714 446.759C606.564 429.019 554.568 440.47 554.568 440.47L534.604 443.724ZM524.188 470.952C516.824 471.995 521.528 476.018 549.682 482.334C562.884 485.3 589.974 490.861 587.622 475.167C585.382 460.063 541.142 468.604 541.142 468.604L524.188 470.952ZM516.278 496.174C509.068 497.973 514.178 501.488 542.878 504.838C556.318 506.403 583.856 509.122 579.838 493.758C575.96 479.011 532.896 492.069 532.896 492.069L516.278 496.174ZM558.474 394.062C554.274 403.288 562.996 401.888 592.648 376.514C606.536 364.61 634.396 339.703 612.332 327.305C591.15 315.387 568.372 372.889 568.372 372.889L558.474 394.062ZM517.37 529.031C512.932 531.571 517.286 532.56 537.642 528.578C547.19 526.724 566.608 522.605 560.042 514.477C553.686 506.651 527.646 523.127 527.646 523.127L517.37 529.031Z" fill="url(#paint10_linear)"/>
<path opacity="0.3" d="M539 389.942C539 389.942 519.484 341.31 536.858 335.529C554.946 329.501 554.148 361.617 553.448 377.269C551.978 410.717 548.212 416.936 545.398 408.767L539 389.942ZM533.134 427.879C538.496 434.745 540.008 427.632 530.334 395.517C525.798 380.414 515.942 349.864 500.822 361.328C486.304 372.313 520.856 412.131 520.856 412.131L533.134 427.879ZM522.774 455.752C527.884 460.201 527.982 454.585 515.844 431.394C510.146 420.534 498.092 398.551 488.222 409.426C478.744 419.916 511.042 445.413 511.042 445.413L522.774 455.752ZM511.574 488.897C516.684 493.36 516.782 487.73 504.644 464.553C498.946 453.693 486.892 431.697 477.022 442.585C467.6 453.102 499.8 478.599 499.8 478.599L511.574 488.897ZM543.914 421.426C535.738 424.557 542.234 427.962 576.38 427.866C592.396 427.866 625.1 427.152 618.128 409.701C611.45 392.936 562.814 414.286 562.814 414.286L543.914 421.426ZM534.604 443.724C525.952 445.194 531.636 449.807 565.124 456.37C580.818 459.459 613.004 465.157 609.714 446.759C606.564 429.019 554.568 440.47 554.568 440.47L534.604 443.724ZM524.188 470.952C516.824 471.995 521.528 476.018 549.682 482.334C562.884 485.3 589.974 490.861 587.622 475.167C585.382 460.063 541.142 468.604 541.142 468.604L524.188 470.952ZM516.278 496.174C509.068 497.973 514.178 501.488 542.878 504.838C556.318 506.403 583.856 509.122 579.838 493.758C575.96 479.011 532.896 492.069 532.896 492.069L516.278 496.174ZM558.474 394.062C554.274 403.288 562.996 401.888 592.648 376.514C606.536 364.61 634.396 339.703 612.332 327.305C591.15 315.387 568.372 372.889 568.372 372.889L558.474 394.062ZM517.37 529.031C512.932 531.571 517.286 532.56 537.642 528.578C547.19 526.724 566.608 522.605 560.042 514.477C553.686 506.651 527.646 523.127 527.646 523.127L517.37 529.031Z" fill="white"/>
<path d="M547.61 412.584L544.208 357.072L547.61 412.584ZM536.844 430.9L515.34 383.16L536.844 430.9ZM592.34 417.019L540.806 424.268L592.34 417.019ZM525.7 456.631L497.798 421.522L525.7 456.631ZM530.6 445.866L569.044 447.761L530.6 445.866ZM521.5 472.791L550.9 475.647L521.5 472.791ZM514.402 489.899L499.8 468.357L514.402 489.899ZM512.722 497.506L547.288 497.822L512.722 497.506ZM505.722 561.105C505.954 561.088 506.169 560.981 506.321 560.809C506.473 560.637 506.549 560.413 506.534 560.185C504.336 527.809 517.104 474.782 537.586 431.257C550.676 403.439 601.986 348.765 602.532 348.216C602.697 348.054 602.79 347.834 602.79 347.605C602.79 347.376 602.697 347.156 602.532 346.994C602.451 346.914 602.355 346.851 602.25 346.808C602.144 346.765 602.031 346.742 601.916 346.742C601.802 346.742 601.688 346.765 601.582 346.808C601.477 346.851 601.381 346.914 601.3 346.994C600.782 347.543 549.262 402.423 536.06 430.488C515.2 475.071 502.6 527.136 504.84 560.295C504.857 560.514 504.958 560.718 505.121 560.868C505.284 561.018 505.498 561.102 505.722 561.105V561.105ZM547.596 413.435C547.828 413.421 548.044 413.318 548.199 413.148C548.353 412.979 548.434 412.756 548.422 412.529L545.076 356.99C545.071 356.876 545.042 356.766 544.993 356.663C544.943 356.561 544.873 356.47 544.787 356.394C544.701 356.319 544.601 356.261 544.492 356.224C544.383 356.187 544.267 356.172 544.152 356.179C543.92 356.194 543.704 356.297 543.549 356.466C543.395 356.636 543.314 356.858 543.326 357.086L546.728 412.598C546.739 412.816 546.835 413.022 546.997 413.173C547.158 413.324 547.373 413.408 547.596 413.408V413.435ZM537.152 431.683C537.362 431.59 537.526 431.42 537.61 431.209C537.693 430.999 537.69 430.765 537.6 430.557L516.082 382.816C515.989 382.609 515.816 382.446 515.601 382.363C515.385 382.281 515.146 382.286 514.934 382.377C514.722 382.468 514.556 382.638 514.472 382.849C514.388 383.06 514.393 383.295 514.486 383.503L535.99 431.243C536.058 431.397 536.169 431.527 536.31 431.62C536.452 431.712 536.618 431.763 536.788 431.765C536.933 431.772 537.077 431.744 537.208 431.683H537.152ZM540.876 425.092L592.382 417.87C592.506 417.867 592.629 417.839 592.741 417.787C592.854 417.735 592.954 417.66 593.034 417.567C593.115 417.474 593.175 417.366 593.21 417.249C593.245 417.132 593.254 417.009 593.238 416.888C593.221 416.767 593.178 416.651 593.112 416.547C593.046 416.444 592.959 416.355 592.855 416.287C592.752 416.219 592.635 416.173 592.513 416.153C592.39 416.132 592.264 416.137 592.144 416.167L540.638 423.39C540.408 423.404 540.193 423.508 540.041 423.678C539.888 423.848 539.811 424.07 539.826 424.296C539.841 424.522 539.947 424.732 540.12 424.882C540.293 425.031 540.52 425.107 540.75 425.092H540.876ZM526.19 457.317C526.373 457.177 526.492 456.971 526.52 456.744C526.549 456.518 526.486 456.29 526.344 456.109L498.428 420.932C498.285 420.75 498.074 420.631 497.842 420.601C497.609 420.572 497.375 420.634 497.189 420.774C497.003 420.914 496.882 421.121 496.852 421.349C496.822 421.577 496.885 421.807 497.028 421.989L525 457.221C525.081 457.324 525.185 457.407 525.304 457.464C525.423 457.521 525.554 457.551 525.686 457.551C525.895 457.541 526.093 457.458 526.246 457.317H526.19ZM569.814 447.802C569.822 447.575 569.738 447.354 569.581 447.187C569.423 447.02 569.206 446.92 568.974 446.91L530.6 445.001C530.384 445.016 530.182 445.107 530.03 445.259C529.879 445.41 529.79 445.611 529.78 445.823C529.769 446.034 529.838 446.243 529.974 446.408C530.11 446.572 530.303 446.683 530.516 446.717L568.96 448.626C569.192 448.633 569.417 448.551 569.587 448.397C569.758 448.243 569.859 448.029 569.87 447.802H569.814ZM551.712 475.73C551.726 475.617 551.716 475.502 551.684 475.393C551.651 475.284 551.597 475.182 551.524 475.094C551.451 475.005 551.36 474.932 551.258 474.879C551.156 474.825 551.043 474.793 550.928 474.782L521.528 471.94C521.414 471.929 521.299 471.94 521.189 471.972C521.079 472.005 520.977 472.058 520.889 472.13C520.8 472.201 520.727 472.289 520.673 472.389C520.62 472.488 520.586 472.597 520.576 472.709C520.556 472.934 520.627 473.158 520.774 473.333C520.92 473.507 521.131 473.618 521.36 473.643L550.76 476.499H550.844C551.07 476.514 551.293 476.442 551.465 476.298C551.638 476.155 551.747 475.951 551.768 475.73H551.712ZM514.822 490.613C515.016 490.487 515.152 490.291 515.199 490.067C515.246 489.843 515.201 489.61 515.074 489.419L500.542 467.876C500.409 467.69 500.208 467.562 499.981 467.519C499.754 467.475 499.518 467.52 499.324 467.643C499.13 467.769 498.994 467.965 498.947 468.189C498.9 468.413 498.945 468.646 499.072 468.837L513.604 490.38C513.687 490.498 513.798 490.594 513.927 490.661C514.056 490.728 514.2 490.764 514.346 490.764C514.536 490.775 514.723 490.721 514.878 490.613H514.822ZM548.17 497.822C548.166 497.596 548.074 497.38 547.913 497.219C547.751 497.058 547.532 496.964 547.302 496.957L512.736 496.641C512.506 496.641 512.285 496.731 512.122 496.89C511.959 497.05 511.868 497.267 511.868 497.492C511.864 497.606 511.884 497.719 511.926 497.825C511.968 497.93 512.032 498.027 512.113 498.107C512.194 498.188 512.291 498.252 512.398 498.295C512.505 498.338 512.62 498.359 512.736 498.357L547.302 498.673C547.42 498.679 547.538 498.661 547.649 498.621C547.76 498.581 547.862 498.519 547.948 498.44C548.034 498.36 548.103 498.265 548.151 498.158C548.199 498.052 548.224 497.938 548.226 497.822H548.17ZM501.788 548.514C501.858 548.363 507.752 532.436 525.476 528.633C525.704 528.584 525.903 528.447 526.029 528.254C526.155 528.061 526.198 527.827 526.148 527.603C526.091 527.384 525.951 527.194 525.755 527.074C525.559 526.953 525.324 526.912 525.098 526.958C506.408 530.967 500.206 547.787 500.136 547.951C500.064 548.168 500.081 548.404 500.182 548.609C500.284 548.814 500.463 548.972 500.682 549.05H500.962C501.148 549.066 501.335 549.022 501.493 548.926C501.652 548.829 501.775 548.685 501.844 548.514H501.788ZM505.722 561.105C505.954 561.088 506.169 560.981 506.321 560.809C506.473 560.637 506.549 560.413 506.534 560.185C504.336 527.809 517.104 474.782 537.586 431.257C550.676 403.439 601.986 348.765 602.532 348.216C602.697 348.054 602.79 347.834 602.79 347.605C602.79 347.376 602.697 347.156 602.532 346.994C602.451 346.914 602.355 346.851 602.25 346.808C602.144 346.765 602.031 346.742 601.916 346.742C601.802 346.742 601.688 346.765 601.582 346.808C601.477 346.851 601.381 346.914 601.3 346.994C600.782 347.543 549.262 402.423 536.06 430.488C515.2 475.071 502.6 527.136 504.84 560.295C504.857 560.514 504.958 560.718 505.121 560.868C505.284 561.018 505.498 561.102 505.722 561.105V561.105ZM547.596 413.435C547.828 413.421 548.044 413.318 548.199 413.148C548.353 412.979 548.434 412.756 548.422 412.529L545.076 356.99C545.071 356.876 545.042 356.766 544.993 356.663C544.943 356.561 544.873 356.47 544.787 356.394C544.701 356.319 544.601 356.261 544.492 356.224C544.383 356.187 544.267 356.172 544.152 356.179C543.92 356.194 543.704 356.297 543.549 356.466C543.395 356.636 543.314 356.858 543.326 357.086L546.728 412.598C546.739 412.816 546.835 413.022 546.997 413.173C547.158 413.324 547.373 413.408 547.596 413.408V413.435ZM537.152 431.683C537.362 431.59 537.526 431.42 537.61 431.209C537.693 430.999 537.69 430.765 537.6 430.557L516.082 382.816C515.989 382.609 515.816 382.446 515.601 382.363C515.385 382.281 515.146 382.286 514.934 382.377C514.722 382.468 514.556 382.638 514.472 382.849C514.388 383.06 514.393 383.295 514.486 383.503L535.99 431.243C536.058 431.397 536.169 431.527 536.31 431.62C536.452 431.712 536.618 431.763 536.788 431.765C536.933 431.772 537.077 431.744 537.208 431.683H537.152ZM540.876 425.092L592.382 417.87C592.506 417.867 592.629 417.839 592.741 417.787C592.854 417.735 592.954 417.66 593.034 417.567C593.115 417.474 593.175 417.366 593.21 417.249C593.245 417.132 593.254 417.009 593.238 416.888C593.221 416.767 593.178 416.651 593.112 416.547C593.046 416.444 592.959 416.355 592.855 416.287C592.752 416.219 592.635 416.173 592.513 416.153C592.39 416.132 592.264 416.137 592.144 416.167L540.638 423.39C540.408 423.404 540.193 423.508 540.041 423.678C539.888 423.848 539.811 424.07 539.826 424.296C539.841 424.522 539.947 424.732 540.12 424.882C540.293 425.031 540.52 425.107 540.75 425.092H540.876ZM526.19 457.317C526.373 457.177 526.492 456.971 526.52 456.744C526.549 456.518 526.486 456.29 526.344 456.109L498.428 420.932C498.357 420.842 498.269 420.766 498.168 420.709C498.068 420.653 497.957 420.616 497.842 420.601C497.727 420.587 497.61 420.594 497.498 420.624C497.386 420.654 497.281 420.705 497.189 420.774C497.097 420.843 497.02 420.93 496.962 421.028C496.904 421.127 496.867 421.236 496.852 421.349C496.837 421.462 496.845 421.576 496.875 421.686C496.905 421.796 496.957 421.899 497.028 421.989L525 457.221C525.081 457.324 525.185 457.407 525.304 457.464C525.423 457.521 525.554 457.551 525.686 457.551C525.895 457.541 526.093 457.458 526.246 457.317H526.19ZM569.814 447.802C569.822 447.575 569.738 447.354 569.581 447.187C569.423 447.02 569.206 446.92 568.974 446.91L530.6 445.001C530.384 445.016 530.182 445.107 530.03 445.259C529.879 445.41 529.79 445.611 529.78 445.823C529.769 446.034 529.838 446.243 529.974 446.408C530.11 446.572 530.303 446.683 530.516 446.717L568.96 448.626C569.192 448.633 569.417 448.551 569.587 448.397C569.758 448.243 569.859 448.029 569.87 447.802H569.814ZM551.712 475.73C551.726 475.617 551.716 475.502 551.684 475.393C551.651 475.284 551.597 475.182 551.524 475.094C551.451 475.005 551.36 474.932 551.258 474.879C551.156 474.825 551.043 474.793 550.928 474.782L521.528 471.94C521.414 471.929 521.299 471.94 521.189 471.972C521.079 472.005 520.977 472.058 520.889 472.13C520.8 472.201 520.727 472.289 520.673 472.389C520.62 472.488 520.586 472.597 520.576 472.709C520.556 472.934 520.627 473.158 520.774 473.333C520.92 473.507 521.131 473.618 521.36 473.643L550.76 476.499H550.844C551.07 476.514 551.293 476.442 551.465 476.298C551.638 476.155 551.747 475.951 551.768 475.73H551.712ZM514.822 490.613C515.016 490.487 515.152 490.291 515.199 490.067C515.246 489.843 515.201 489.61 515.074 489.419L500.542 467.876C500.409 467.69 500.208 467.562 499.981 467.519C499.754 467.475 499.518 467.52 499.324 467.643C499.13 467.769 498.994 467.965 498.947 468.189C498.9 468.413 498.945 468.646 499.072 468.837L513.604 490.38C513.687 490.498 513.798 490.594 513.927 490.661C514.056 490.728 514.2 490.764 514.346 490.764C514.536 490.775 514.723 490.721 514.878 490.613H514.822ZM548.17 497.822C548.166 497.596 548.074 497.38 547.913 497.219C547.751 497.058 547.532 496.964 547.302 496.957L512.736 496.641C512.506 496.641 512.285 496.731 512.122 496.89C511.959 497.05 511.868 497.267 511.868 497.492C511.864 497.606 511.884 497.719 511.926 497.825C511.968 497.93 512.032 498.027 512.113 498.107C512.194 498.188 512.291 498.252 512.398 498.295C512.505 498.338 512.62 498.359 512.736 498.357L547.302 498.673C547.42 498.679 547.538 498.661 547.649 498.621C547.76 498.581 547.862 498.519 547.948 498.44C548.034 498.36 548.103 498.265 548.151 498.158C548.199 498.052 548.224 497.938 548.226 497.822H548.17ZM501.788 548.514C501.858 548.363 507.752 532.436 525.476 528.633C525.704 528.584 525.903 528.447 526.029 528.254C526.155 528.061 526.198 527.827 526.148 527.603C526.091 527.384 525.951 527.194 525.755 527.074C525.559 526.953 525.324 526.912 525.098 526.958C506.408 530.967 500.206 547.787 500.136 547.951C500.064 548.168 500.081 548.404 500.182 548.609C500.284 548.814 500.463 548.972 500.682 549.05H500.962C501.148 549.066 501.335 549.022 501.493 548.926C501.652 548.829 501.775 548.685 501.844 548.514H501.788Z" fill="url(#paint11_linear)"/>
<path opacity="0.2" d="M505.722 561.105C505.954 561.088 506.169 560.981 506.321 560.809C506.473 560.637 506.549 560.413 506.534 560.185C504.336 527.809 517.104 474.782 537.586 431.257C550.676 403.439 601.986 348.765 602.532 348.216C602.697 348.054 602.79 347.834 602.79 347.605C602.79 347.376 602.697 347.156 602.532 346.994C602.451 346.914 602.355 346.851 602.25 346.808C602.144 346.765 602.031 346.742 601.916 346.742C601.802 346.742 601.688 346.765 601.582 346.808C601.477 346.851 601.381 346.914 601.3 346.994C600.782 347.543 549.262 402.423 536.06 430.488C515.2 475.071 502.6 527.136 504.84 560.295C504.857 560.514 504.958 560.718 505.121 560.868C505.284 561.018 505.498 561.102 505.722 561.105ZM547.596 413.435C547.828 413.421 548.044 413.318 548.199 413.148C548.353 412.979 548.434 412.756 548.422 412.529L545.076 356.99C545.071 356.876 545.042 356.766 544.993 356.663C544.943 356.561 544.873 356.47 544.787 356.394C544.701 356.319 544.601 356.261 544.492 356.224C544.383 356.187 544.267 356.172 544.152 356.179C543.92 356.194 543.704 356.297 543.549 356.466C543.395 356.636 543.314 356.858 543.326 357.086L546.728 412.598C546.739 412.816 546.835 413.022 546.997 413.173C547.158 413.324 547.373 413.408 547.596 413.408V413.435ZM537.152 431.683C537.362 431.59 537.526 431.42 537.61 431.209C537.693 430.999 537.69 430.765 537.6 430.557L516.082 382.816C515.989 382.609 515.816 382.446 515.601 382.363C515.385 382.281 515.146 382.286 514.934 382.377C514.722 382.468 514.556 382.638 514.472 382.849C514.388 383.06 514.393 383.295 514.486 383.503L535.99 431.243C536.058 431.397 536.169 431.527 536.31 431.62C536.452 431.712 536.618 431.763 536.788 431.765C536.933 431.772 537.077 431.744 537.208 431.683H537.152ZM540.876 425.092L592.382 417.87C592.506 417.867 592.629 417.839 592.741 417.787C592.854 417.735 592.954 417.66 593.034 417.567C593.115 417.474 593.175 417.366 593.21 417.249C593.245 417.132 593.254 417.009 593.238 416.888C593.221 416.767 593.178 416.651 593.112 416.547C593.046 416.444 592.959 416.355 592.855 416.287C592.752 416.219 592.635 416.173 592.513 416.153C592.39 416.132 592.264 416.137 592.144 416.167L540.638 423.39C540.408 423.404 540.193 423.508 540.041 423.678C539.888 423.848 539.811 424.07 539.826 424.296C539.841 424.522 539.947 424.732 540.12 424.882C540.293 425.031 540.52 425.107 540.75 425.092H540.876ZM526.19 457.317C526.373 457.177 526.492 456.971 526.52 456.744C526.549 456.518 526.486 456.29 526.344 456.109L498.428 420.932C498.285 420.75 498.074 420.631 497.842 420.601C497.609 420.572 497.375 420.634 497.189 420.774C497.003 420.914 496.882 421.121 496.852 421.349C496.822 421.577 496.885 421.807 497.028 421.989L525 457.221C525.081 457.324 525.185 457.407 525.304 457.464C525.423 457.521 525.554 457.551 525.686 457.551C525.895 457.541 526.093 457.458 526.246 457.317H526.19ZM569.814 447.802C569.822 447.575 569.738 447.354 569.581 447.187C569.423 447.02 569.206 446.92 568.974 446.91L530.6 445.001C530.384 445.016 530.182 445.107 530.03 445.259C529.879 445.41 529.79 445.611 529.78 445.823C529.769 446.034 529.838 446.243 529.974 446.408C530.11 446.572 530.303 446.683 530.516 446.717L568.96 448.626C569.192 448.633 569.417 448.551 569.587 448.397C569.758 448.243 569.859 448.029 569.87 447.802H569.814ZM551.712 475.73C551.726 475.617 551.716 475.502 551.684 475.393C551.651 475.284 551.597 475.182 551.524 475.094C551.451 475.005 551.36 474.932 551.258 474.879C551.156 474.825 551.043 474.793 550.928 474.782L521.528 471.94C521.414 471.929 521.299 471.94 521.189 471.972C521.079 472.005 520.977 472.058 520.889 472.13C520.8 472.201 520.727 472.289 520.673 472.389C520.62 472.488 520.586 472.597 520.576 472.709C520.556 472.934 520.627 473.158 520.774 473.333C520.92 473.507 521.131 473.618 521.36 473.643L550.76 476.499H550.844C551.07 476.514 551.293 476.442 551.465 476.298C551.638 476.155 551.747 475.951 551.768 475.73H551.712ZM514.822 490.613C515.016 490.487 515.152 490.291 515.199 490.067C515.246 489.843 515.201 489.61 515.074 489.419L500.542 467.876C500.409 467.69 500.208 467.562 499.981 467.519C499.754 467.475 499.518 467.52 499.324 467.643C499.13 467.769 498.994 467.965 498.947 468.189C498.9 468.413 498.945 468.646 499.072 468.837L513.604 490.38C513.687 490.498 513.798 490.594 513.927 490.661C514.056 490.728 514.2 490.764 514.346 490.764C514.536 490.775 514.723 490.721 514.878 490.613H514.822ZM548.17 497.822C548.166 497.596 548.074 497.38 547.913 497.219C547.751 497.058 547.532 496.964 547.302 496.957L512.736 496.641C512.506 496.641 512.285 496.731 512.122 496.89C511.959 497.05 511.868 497.267 511.868 497.492C511.864 497.606 511.884 497.719 511.926 497.825C511.968 497.93 512.032 498.027 512.113 498.107C512.194 498.188 512.291 498.252 512.398 498.295C512.505 498.338 512.62 498.359 512.736 498.357L547.302 498.673C547.42 498.679 547.538 498.661 547.649 498.621C547.76 498.581 547.862 498.519 547.948 498.44C548.034 498.36 548.103 498.265 548.151 498.158C548.199 498.052 548.224 497.938 548.226 497.822H548.17ZM501.788 548.514C501.858 548.363 507.752 532.436 525.476 528.633C525.704 528.584 525.903 528.447 526.029 528.254C526.155 528.061 526.198 527.827 526.148 527.603C526.091 527.384 525.951 527.194 525.755 527.074C525.559 526.953 525.324 526.912 525.098 526.958C506.408 530.967 500.206 547.787 500.136 547.951C500.064 548.168 500.081 548.404 500.182 548.609C500.284 548.814 500.463 548.972 500.682 549.05H500.962C501.148 549.066 501.335 549.022 501.493 548.926C501.652 548.829 501.775 548.685 501.844 548.514H501.788ZM505.722 561.105C505.954 561.088 506.169 560.981 506.321 560.809C506.473 560.637 506.549 560.413 506.534 560.185C504.336 527.809 517.104 474.782 537.586 431.257C550.676 403.439 601.986 348.765 602.532 348.216C602.697 348.054 602.79 347.834 602.79 347.605C602.79 347.376 602.697 347.156 602.532 346.994C602.451 346.914 602.355 346.851 602.25 346.808C602.144 346.765 602.031 346.742 601.916 346.742C601.802 346.742 601.688 346.765 601.582 346.808C601.477 346.851 601.381 346.914 601.3 346.994C600.782 347.543 549.262 402.423 536.06 430.488C515.2 475.071 502.6 527.136 504.84 560.295C504.857 560.514 504.958 560.718 505.121 560.868C505.284 561.018 505.498 561.102 505.722 561.105ZM547.596 413.435C547.828 413.421 548.044 413.318 548.199 413.148C548.353 412.979 548.434 412.756 548.422 412.529L545.076 356.99C545.071 356.876 545.042 356.766 544.993 356.663C544.943 356.561 544.873 356.47 544.787 356.394C544.701 356.319 544.601 356.261 544.492 356.224C544.383 356.187 544.267 356.172 544.152 356.179C543.92 356.194 543.704 356.297 543.549 356.466C543.395 356.636 543.314 356.858 543.326 357.086L546.728 412.598C546.739 412.816 546.835 413.022 546.997 413.173C547.158 413.324 547.373 413.408 547.596 413.408V413.435ZM537.152 431.683C537.362 431.59 537.526 431.42 537.61 431.209C537.693 430.999 537.69 430.765 537.6 430.557L516.082 382.816C515.989 382.609 515.816 382.446 515.601 382.363C515.385 382.281 515.146 382.286 514.934 382.377C514.722 382.468 514.556 382.638 514.472 382.849C514.388 383.06 514.393 383.295 514.486 383.503L535.99 431.243C536.058 431.397 536.169 431.527 536.31 431.62C536.452 431.712 536.618 431.763 536.788 431.765C536.933 431.772 537.077 431.744 537.208 431.683H537.152ZM540.876 425.092L592.382 417.87C592.506 417.867 592.629 417.839 592.741 417.787C592.854 417.735 592.954 417.66 593.034 417.567C593.115 417.474 593.175 417.366 593.21 417.249C593.245 417.132 593.254 417.009 593.238 416.888C593.221 416.767 593.178 416.651 593.112 416.547C593.046 416.444 592.959 416.355 592.855 416.287C592.752 416.219 592.635 416.173 592.513 416.153C592.39 416.132 592.264 416.137 592.144 416.167L540.638 423.39C540.408 423.404 540.193 423.508 540.041 423.678C539.888 423.848 539.811 424.07 539.826 424.296C539.841 424.522 539.947 424.732 540.12 424.882C540.293 425.031 540.52 425.107 540.75 425.092H540.876ZM526.19 457.317C526.373 457.177 526.492 456.971 526.52 456.744C526.549 456.518 526.486 456.29 526.344 456.109L498.428 420.932C498.357 420.842 498.269 420.766 498.168 420.709C498.068 420.653 497.957 420.616 497.842 420.601C497.727 420.587 497.61 420.594 497.498 420.624C497.386 420.654 497.281 420.705 497.189 420.774C497.097 420.843 497.02 420.93 496.962 421.028C496.904 421.127 496.867 421.236 496.852 421.349C496.837 421.462 496.845 421.576 496.875 421.686C496.905 421.796 496.957 421.899 497.028 421.989L525 457.221C525.081 457.324 525.185 457.407 525.304 457.464C525.423 457.521 525.554 457.551 525.686 457.551C525.895 457.541 526.093 457.458 526.246 457.317H526.19ZM569.814 447.802C569.822 447.575 569.738 447.354 569.581 447.187C569.423 447.02 569.206 446.92 568.974 446.91L530.6 445.001C530.384 445.016 530.182 445.107 530.03 445.259C529.879 445.41 529.79 445.611 529.78 445.823C529.769 446.034 529.838 446.243 529.974 446.408C530.11 446.572 530.303 446.683 530.516 446.717L568.96 448.626C569.192 448.633 569.417 448.551 569.587 448.397C569.758 448.243 569.859 448.029 569.87 447.802H569.814ZM551.712 475.73C551.726 475.617 551.716 475.502 551.684 475.393C551.651 475.284 551.597 475.182 551.524 475.094C551.451 475.005 551.36 474.932 551.258 474.879C551.156 474.825 551.043 474.793 550.928 474.782L521.528 471.94C521.414 471.929 521.299 471.94 521.189 471.972C521.079 472.005 520.977 472.058 520.889 472.13C520.8 472.201 520.727 472.289 520.673 472.389C520.62 472.488 520.586 472.597 520.576 472.709C520.556 472.934 520.627 473.158 520.774 473.333C520.92 473.507 521.131 473.618 521.36 473.643L550.76 476.499H550.844C551.07 476.514 551.293 476.442 551.465 476.298C551.638 476.155 551.747 475.951 551.768 475.73H551.712ZM514.822 490.613C515.016 490.487 515.152 490.291 515.199 490.067C515.246 489.843 515.201 489.61 515.074 489.419L500.542 467.876C500.409 467.69 500.208 467.562 499.981 467.519C499.754 467.475 499.518 467.52 499.324 467.643C499.13 467.769 498.994 467.965 498.947 468.189C498.9 468.413 498.945 468.646 499.072 468.837L513.604 490.38C513.687 490.498 513.798 490.594 513.927 490.661C514.056 490.728 514.2 490.764 514.346 490.764C514.536 490.775 514.723 490.721 514.878 490.613H514.822ZM548.17 497.822C548.166 497.596 548.074 497.38 547.913 497.219C547.751 497.058 547.532 496.964 547.302 496.957L512.736 496.641C512.506 496.641 512.285 496.731 512.122 496.89C511.959 497.05 511.868 497.267 511.868 497.492C511.864 497.606 511.884 497.719 511.926 497.825C511.968 497.93 512.032 498.027 512.113 498.107C512.194 498.188 512.291 498.252 512.398 498.295C512.505 498.338 512.62 498.359 512.736 498.357L547.302 498.673C547.42 498.679 547.538 498.661 547.649 498.621C547.76 498.581 547.862 498.519 547.948 498.44C548.034 498.36 548.103 498.265 548.151 498.158C548.199 498.052 548.224 497.938 548.226 497.822H548.17ZM501.788 548.514C501.858 548.363 507.752 532.436 525.476 528.633C525.704 528.584 525.903 528.447 526.029 528.254C526.155 528.061 526.198 527.827 526.148 527.603C526.091 527.384 525.951 527.194 525.755 527.074C525.559 526.953 525.324 526.912 525.098 526.958C506.408 530.967 500.206 547.787 500.136 547.951C500.064 548.168 500.081 548.404 500.182 548.609C500.284 548.814 500.463 548.972 500.682 549.05H500.962C501.148 549.066 501.335 549.022 501.493 548.926C501.652 548.829 501.775 548.685 501.844 548.514H501.788Z" fill="black"/>
<path d="M528.584 536.899H488.95V544.945H492.408L499.562 588.84H517.972L525.126 544.945H528.584V536.899Z" fill="url(#paint12_linear)"/>
<path opacity="0.3" d="M528.584 536.899H488.95V544.945H492.408L499.562 588.84H517.972L525.126 544.945H528.584V536.899Z" fill="white"/>
<path d="M171.752 293.597L125.65 278.836L121.548 268.209L112.182 267.921L95.186 264.763L97.23 268.209L118.622 283.436L123.9 286.017L172.116 310.718L171.752 293.597Z" fill="white" stroke="#263238" stroke-width="1.00396" stroke-miterlimit="10"/>
<path d="M121.548 268.209L117.152 265.628L108.374 268.786L109.83 270.502L121.548 268.209Z" fill="white" stroke="#263238" stroke-width="1.00396" stroke-linejoin="round"/>
<path d="M171.752 293.597L125.65 278.836L121.548 268.209L112.182 267.921L95.186 264.763L97.23 268.209L118.622 283.436L123.9 286.017L172.116 310.718L171.752 293.597Z" fill="white"/>
<path opacity="0.5" d="M171.752 293.597L125.65 278.836L121.548 268.209L112.182 267.921L95.186 264.763L97.23 268.209L118.622 283.436L123.9 286.017L172.116 310.718L171.752 293.597Z" fill="url(#paint13_linear)" stroke="#263238" stroke-width="1.00396" stroke-miterlimit="10"/>
<path d="M171.752 293.597L125.65 278.836L121.548 268.209L112.182 267.921L95.186 264.763L97.23 268.209L118.622 283.436L123.9 286.017L172.116 310.718L171.752 293.597Z" stroke="#263238" stroke-width="1.00396" stroke-miterlimit="10"/>
<path d="M121.548 268.209L117.152 265.628L108.374 268.786L109.83 270.502L121.548 268.209Z" fill="white"/>
<path opacity="0.5" d="M121.548 268.209L117.152 265.628L108.374 268.786L109.83 270.502L121.548 268.209Z" fill="url(#paint14_linear)" stroke="#263238" stroke-width="1.00396" stroke-linejoin="round"/>
<path d="M121.548 268.209L117.152 265.628L108.374 268.786L109.83 270.502L121.548 268.209Z" stroke="#263238" stroke-width="1.00396" stroke-linejoin="round"/>
<path d="M181.538 197.8C181.538 197.8 180.824 203.978 182.602 207.946C184.38 211.914 194.25 225.357 194.25 225.357L175.826 239.842C175.826 239.842 168.182 224.739 166.726 222.295C165.27 219.851 163.52 209.333 168.266 201.795C173.012 194.257 179.844 192.225 181.538 197.8Z" fill="white"/>
<g style="mix-blend-mode:multiply" opacity="0.5">
<path d="M172.074 217.654L180.068 233.911L175.812 239.856L167.776 225.782L172.074 217.654Z" fill="url(#paint15_linear)"/>
</g>
<path d="M181.538 197.8C181.538 197.8 180.824 203.978 182.602 207.946C184.38 211.914 194.25 225.357 194.25 225.357L175.826 239.842C175.826 239.842 168.182 224.739 166.726 222.295C165.27 219.851 163.52 209.333 168.266 201.795C173.012 194.257 179.844 192.225 181.538 197.8Z" stroke="#263238" stroke-width="1.00396" stroke-miterlimit="10"/>
<path d="M187.25 186.486C186.116 179.621 178.094 165.657 165.368 166.192C157.108 166.549 153.244 168.183 149.66 170.174C146.739 171.862 144.015 173.861 141.54 176.133C135.324 183.451 133.14 185.456 134.344 191.058C134.245 193.293 134.602 195.524 135.394 197.621C137.298 202.605 138.6 205.859 140.252 208.235C139.748 210.555 138.432 216.679 138.362 218.079C138.292 219.48 142.562 218.505 144.718 217.97C148.722 226.757 156.058 232.853 158.34 233.554C162.316 234.776 168.602 228.364 171.934 223.393C175.266 218.423 172.746 212.834 172.76 210.61C172.774 208.386 180.25 203.498 183.022 201.946C185.794 200.395 188.37 193.337 187.25 186.486Z" fill="white"/>
<g style="mix-blend-mode:multiply" opacity="0.5">
<path d="M134.4 191.058C134.301 193.292 134.658 195.524 135.45 197.621C137.354 202.605 138.656 205.859 140.308 208.235C139.804 210.555 138.488 216.679 138.418 218.079C138.348 219.48 142.618 218.505 144.774 217.97C148.778 226.757 156.114 232.853 158.396 233.554C162.372 234.776 168.658 228.363 171.99 223.393C172.822 222.152 173.363 220.745 173.572 219.274C173.39 218.629 173.264 218.23 173.264 218.23C173.264 218.23 171.388 225.302 167.664 224.382C163.94 223.462 158.242 216.143 155.064 213.617C151.886 211.091 153.188 207.768 152.558 204.006C151.928 200.244 142.52 196.935 141.89 194.779C141.26 192.623 143.458 183.699 143.458 183.699C143.458 183.699 147.028 179.03 146.258 180.952C145.714 182.619 145.516 184.376 145.677 186.119C145.839 187.862 146.355 189.556 147.196 191.099C147.786 192.317 148.722 193.342 149.892 194.051C151.062 194.76 152.415 195.122 153.79 195.095L157.206 178.495L149.996 172.646L141.596 176.078C135.324 183.451 133.182 185.456 134.4 191.058Z" fill="url(#paint16_linear)"/>
</g>
<path d="M187.25 186.486C186.116 179.621 178.094 165.657 165.368 166.192C157.108 166.549 153.244 168.183 149.66 170.174C146.739 171.862 144.015 173.861 141.54 176.133C135.324 183.451 133.14 185.456 134.344 191.058C134.245 193.293 134.602 195.524 135.394 197.621C137.298 202.605 138.6 205.859 140.252 208.235C139.748 210.555 138.432 216.679 138.362 218.079C138.292 219.48 142.562 218.505 144.718 217.97C148.722 226.757 156.058 232.853 158.34 233.554C162.316 234.776 168.602 228.364 171.934 223.393C175.266 218.423 172.746 212.834 172.76 210.61C172.774 208.386 180.25 203.498 183.022 201.946C185.794 200.395 188.37 193.337 187.25 186.486Z" stroke="#263238" stroke-miterlimit="10"/>
<path d="M141.988 204.088L143.388 208.015C143.388 208.015 146.398 208.99 150.066 205.063" stroke="#263238" stroke-miterlimit="10" stroke-linecap="round"/>
<path d="M152.334 222.432C152.334 222.432 155.666 222.102 157.01 217.517" stroke="#263238" stroke-miterlimit="10" stroke-linecap="round"/>
<path d="M139.65 200.807C139.65 200.807 140.644 197.855 146.65 197.855" stroke="#263238" stroke-miterlimit="10" stroke-linecap="round"/>
<path d="M170.436 160.728C166.072 160.112 161.671 159.782 157.262 159.739C157.262 159.739 144.074 152.284 131.404 160.233C118.734 168.183 124.824 182.106 124.824 185.58C124.824 189.053 120.764 189.067 123.298 193.543C125.832 198.019 134.4 195.548 134.4 195.548C134.491 193.86 134.946 192.21 135.735 190.707C136.524 189.204 137.629 187.882 138.978 186.829C143.542 183.355 147.182 182.6 148.694 183.603C148.694 183.603 147.686 191.058 149.198 194.038C149.198 194.038 154.266 196.523 155.792 196.523C157.318 196.523 154.798 198.624 159.852 200.491C160.773 200.815 161.758 200.926 162.73 200.814C163.701 200.702 164.633 200.37 165.452 199.846C166.194 196.825 167.818 192.28 170.842 193.337C175.28 194.889 179.326 205.599 173.32 209.251C180.544 210.541 189.294 198.006 189.812 186.582C190.33 175.158 177.94 162.018 170.436 160.728Z" fill="#263238"/>
<path d="M148.918 178.701C148.918 178.701 152.642 176.737 157.206 180.939C161.77 185.14 170.646 190.756 182.406 187.667" stroke="white" stroke-width="0.5" stroke-linecap="round" stroke-linejoin="round"/>
<path d="M148.4 175.337C148.4 175.337 150.962 171.41 155.246 171.41C159.53 171.41 169.54 177.3 177.534 177.3" stroke="white" stroke-width="0.5" stroke-linecap="round" stroke-linejoin="round"/>
<path d="M145.488 182.902C145.488 182.902 140.63 177.026 136.066 181.79C131.502 186.555 134.4 191.058 134.4 191.058" stroke="white" stroke-width="0.5" stroke-linecap="round" stroke-linejoin="round"/>
<path d="M126.07 186.829C128.854 184.367 130.585 180.963 130.914 177.3C131.488 171.135 140.07 165.808 145.488 170.861" stroke="white" stroke-width="0.5" stroke-linecap="round" stroke-linejoin="round"/>
<path d="M134.918 164.407C134.918 164.407 143.5 156.279 150.64 166.646" stroke="white" stroke-width="0.5" stroke-linecap="round" stroke-linejoin="round"/>
<path d="M204.764 564.057C204.764 564.057 210.042 572.103 209.454 577.28L208.88 582.456C208.88 582.456 189.518 587.66 185.416 587.66C181.314 587.66 159.6 585.641 159.6 585.641L158.662 581.989C158.596 581.719 158.627 581.436 158.75 581.186C158.872 580.936 159.078 580.735 159.334 580.616L178.696 571.76L184.8 565.211L204.764 564.057Z" fill="white" stroke="#263238" stroke-width="1.00396" stroke-miterlimit="10"/>
<path d="M188.356 583.609C193.606 584.008 203.574 580.863 209.356 578.859L208.95 582.456C208.95 582.456 189.518 587.66 185.416 587.66C181.314 587.66 159.6 585.641 159.6 585.641L158.928 583.033C162.4 583.046 181.412 583.088 188.356 583.609Z" fill="url(#paint17_linear)" stroke="#263238" stroke-width="1.00396" stroke-miterlimit="10"/>
<path d="M178.724 571.76L150.542 583.788C150.542 583.788 148.134 589.706 150.542 590.887C152.95 592.067 205.45 590.887 205.45 590.887C205.45 590.887 209.076 581.536 203.35 575.261C197.624 568.987 178.724 571.76 178.724 571.76Z" fill="white" stroke="#263238" stroke-width="1.00396" stroke-miterlimit="10"/>
<path d="M205.45 590.887C205.45 590.887 152.95 592.067 150.542 590.887C149.38 590.31 149.338 588.648 149.604 587.069H206.374C206.189 588.367 205.879 589.645 205.45 590.887Z" fill="url(#paint18_linear)" stroke="#263238" stroke-width="1.00396" stroke-miterlimit="10"/>
<path d="M165.396 362.77C165.396 362.77 158.032 394.776 155.246 414.794C152.46 434.813 150.822 474.92 151.41 479.519C151.998 484.119 181.314 561.188 181.314 561.188L184.24 568.053L204.764 564.03C204.764 564.03 195.384 534.702 191.87 518.596C188.356 502.49 180.67 476.032 180.67 471.432C180.67 466.833 198.87 378.986 200.172 373.219C201.474 367.452 207.382 358.596 207.382 358.596L168.084 357.813L165.396 362.77Z" fill="url(#paint19_linear)" stroke="#263238" stroke-width="1.00396" stroke-miterlimit="10"/>
<path d="M165.396 362.77C165.396 362.77 161.084 392.002 162.862 412.323C164.64 432.644 168.462 475.908 168.462 482.348C168.462 488.787 179.06 527.246 179.662 539.329C180.6 556.78 179.284 565.417 179.284 565.417L178.654 571.746C178.654 571.746 191.016 573.476 193.718 574.231C196.839 575.02 200.059 575.362 203.28 575.247C203.28 575.247 207.774 555.846 207.774 539.315C207.774 522.784 204.036 488.76 202.174 474.975C200.312 461.189 206.178 408.012 209.51 398.085C212.842 388.158 220.122 367.136 215.222 356.399C210.322 345.662 165.396 362.77 165.396 362.77Z" fill="url(#paint20_linear)" stroke="#263238" stroke-width="1.00396" stroke-miterlimit="10"/>
<path d="M220.668 351.017L220.22 364.088C220.22 364.088 212.24 365.64 201.488 367.466C192.612 368.976 170.324 367.068 162.82 366.354C162.136 366.294 161.504 365.972 161.061 365.458C160.618 364.944 160.4 364.279 160.454 363.608L161.182 351.799L220.668 351.017Z" fill="#263238"/>
<path d="M189.476 220.716C189.476 220.716 176.876 234.075 172.13 242.382C167.384 250.689 165.508 263.417 163.73 273.44C161.952 283.463 166.768 306.997 165.41 317.803L161.112 351.841C161.112 351.841 160.188 354.147 163.282 356.674C166.376 359.2 181.482 360.12 195.132 360.793C200.116 361.04 214.998 357.896 217.434 357.745C220.374 357.566 220.472 353.9 220.598 351.017C221.186 337.465 223.678 301.34 225.316 285.605C228.69 253.518 210.224 222.542 189.476 220.716Z" fill="white" stroke="#263238" stroke-width="1.00396" stroke-miterlimit="10"/>
<g style="mix-blend-mode:multiply">
<path d="M223.776 303.853C224.336 296.727 224.896 290.26 225.386 285.605C225.526 284.232 225.61 282.859 225.68 281.486L192.206 286.978L163.45 277.367C163.453 283.203 163.79 289.034 164.458 294.832L192.668 302.576L223.776 303.853Z" fill="url(#paint21_linear)"/>
</g>
<g style="mix-blend-mode:multiply">
<path d="M188.23 222.061C186.326 224.135 182.546 228.35 178.948 232.826L200.2 254.012L207.2 251.266L188.23 222.061Z" fill="url(#paint22_linear)"/>
</g>
<path d="M189.476 220.716C189.476 220.716 176.876 234.075 172.13 242.382C170.723 244.907 169.583 247.566 168.728 250.318L194.068 221.608C192.571 221.163 191.033 220.864 189.476 220.716V220.716Z" fill="#263238"/>
<g style="mix-blend-mode:multiply">
<path d="M164.71 268.031L192.206 276.9L225.596 273.138C225.073 264.981 223.225 256.957 220.122 249.371L193.2 259.957L169.134 249.261C167.166 255.396 165.687 261.671 164.71 268.031V268.031Z" fill="url(#paint23_linear)"/>
</g>
<g style="mix-blend-mode:multiply">
<path d="M212.044 337.465C198.098 339.761 183.789 338.615 170.408 334.129L163.702 331.877L161.616 348.353L169.26 350.454C183.792 354.439 198.98 355.586 213.962 353.832L220.136 353.104C220.457 352.437 220.638 351.713 220.668 350.976C220.836 347.31 221.13 341.982 221.508 335.872L212.044 337.465Z" fill="url(#paint24_linear)"/>
</g>
<g style="mix-blend-mode:multiply">
<path d="M215.782 315.03C201.836 317.335 187.523 316.183 174.146 311.679L165.606 308.81C165.818 311.801 165.776 314.805 165.48 317.789L164.486 325.712L172.998 328.046C187.524 332.035 202.707 333.187 217.686 331.437L221.886 330.943C222.236 325.451 222.642 319.602 223.076 313.821L215.782 315.03Z" fill="url(#paint25_linear)"/>
</g>
<path d="M84.4358 256.967L111.505 278.312L112.672 276.889L85.6026 255.543L84.4358 256.967Z" fill="#263238"/>
<path d="M202.51 235.531C202.51 235.531 212.436 242.163 212.66 257.829C212.758 264.694 212.03 271.106 210.42 282.351C208.81 293.597 198.814 330.215 191.03 334.664C183.246 339.113 171.164 330.71 171.164 330.71L112.728 292.663L98.6021 281.473L91.6021 268.511L93.8001 264.392L111.034 277.353L101.752 268.937L103.572 266.671L106.932 268.964L116.732 272.562L118.874 286.292L121.898 288.324L177.8 308.357C177.8 308.357 177.1 278.85 177.618 273.207C178.136 267.564 178.85 253.38 185.01 243.096" fill="white"/>
<g style="mix-blend-mode:multiply" opacity="0.5">
<path d="M177.408 286.059C177.408 296.246 177.758 308.357 177.758 308.357L121.912 288.406L118.888 286.374L116.746 272.644L106.946 269.047L103.6 266.712L101.78 268.978L111.034 277.353L93.8001 264.392L91.7141 268.442L98.7141 281.404L112.84 292.663L116.396 294.983L193.606 319.382L177.408 286.059Z" fill="url(#paint26_linear)"/>
</g>
<path d="M202.51 235.531C202.51 235.531 212.436 242.163 212.66 257.829C212.758 264.694 212.03 271.106 210.42 282.351C208.81 293.597 198.814 330.215 191.03 334.664C183.246 339.113 171.164 330.71 171.164 330.71L112.728 292.663L98.6021 281.473L91.6021 268.511L93.8001 264.392L111.034 277.353L101.752 268.937L103.572 266.671L106.932 268.964L116.732 272.562L118.874 286.292L121.898 288.324L177.8 308.357C177.8 308.357 177.1 278.85 177.618 273.207C178.136 267.564 178.85 253.38 185.01 243.096" stroke="#263238" stroke-width="1.00396" stroke-miterlimit="10"/>
<path d="M177.8 308.357L199.136 323.46L204.666 313.849C204.666 313.849 208.488 310.897 209.048 308.672C209.608 306.448 208.894 302.837 209.468 300.613C210.042 298.388 212.898 296.301 213.164 290.919C213.43 285.537 213.164 281.047 213.164 281.047C213.164 281.047 217.784 262.415 217.28 254.314C216.776 246.213 208.81 231.892 202.426 231.576C196.042 231.261 187.74 232.208 181.3 241.764C174.86 251.321 176.176 279.221 175.168 280.965C174.16 282.708 175.56 291.317 175.56 291.317C175.001 291.727 174.536 292.248 174.198 292.847C173.861 293.446 173.657 294.109 173.6 294.791C173.488 297.029 175.952 302.535 175.952 302.535L177.8 308.357Z" fill="white" stroke="#263238" stroke-width="1.00396" stroke-miterlimit="10"/>
<g style="mix-blend-mode:multiply">
<path d="M175.728 273.797C175.772 276.193 175.589 278.588 175.182 280.951C174.286 282.516 175.308 289.587 175.532 291.029C187.533 294.684 200.222 295.623 212.646 293.775C212.913 292.82 213.073 291.839 213.122 290.85C213.402 285.482 213.122 280.978 213.122 280.978C213.122 280.978 213.528 279.317 214.088 276.791C201.221 277.593 188.304 276.585 175.728 273.797V273.797Z" fill="url(#paint27_linear)"/>
</g>
<g style="mix-blend-mode:multiply">
<path d="M180.432 243.288C178.43 247.229 177.31 253.147 176.666 259.147C189.375 263.904 203.078 265.54 216.58 263.911C217.119 260.736 217.358 257.519 217.294 254.3C217.052 251.756 216.439 249.259 215.474 246.886C203.685 247.156 191.909 245.947 180.432 243.288V243.288Z" fill="url(#paint28_linear)"/>
</g>
<path d="M175.952 302.686L177.758 308.357L199.094 323.46L204.624 313.849C204.624 313.849 208.446 310.897 209.006 308.672C209.106 308.286 209.167 307.89 209.188 307.492C197.944 307.301 186.773 305.686 175.952 302.686V302.686Z" fill="#263238"/>
<path d="M191.394 574.053C191.394 574.053 191.87 562.163 194.194 544.78C196.518 527.397 190.932 502.71 189.994 498.591C189.056 494.472 190.47 485.327 189.532 482.114C188.594 478.902 184.058 465.199 186.732 449.299C189.406 433.399 191.576 391.37 191.576 391.37C191.576 391.37 184.842 386.002 182.868 379.013C180.894 372.024 182.406 369.828 182.406 369.828" stroke="#263238" stroke-width="1.00396" stroke-miterlimit="10"/>
<path d="M194.516 370.473L191.926 384.533" stroke="#263238" stroke-width="1.00396" stroke-miterlimit="10"/>
<defs>
<linearGradient id="paint0_linear" x1="346.723" y1="60.1611" x2="346.723" y2="554.216" gradientUnits="userSpaceOnUse">
<stop stop-color="#1DCDDB"/>
<stop offset="1" stop-color="#31B8FF"/>
</linearGradient>
<linearGradient id="paint1_linear" x1="307.734" y1="574.506" x2="307.734" y2="600.951" gradientUnits="userSpaceOnUse">
<stop stop-color="#1DCDDB"/>
<stop offset="1" stop-color="#31B8FF"/>
</linearGradient>
<linearGradient id="paint2_linear" x1="323.572" y1="224.997" x2="398.064" y2="300.952" gradientUnits="userSpaceOnUse">
<stop stop-color="#1DCDDB"/>
<stop offset="1" stop-color="#31B8FF"/>
</linearGradient>
<linearGradient id="paint3_linear" x1="361.557" y1="504.042" x2="361.557" y2="508.779" gradientUnits="userSpaceOnUse">
<stop stop-color="#1DCDDB"/>
<stop offset="1" stop-color="#31B8FF"/>
</linearGradient>
<linearGradient id="paint4_linear" x1="361.557" y1="344.55" x2="361.557" y2="372.931" gradientUnits="userSpaceOnUse">
<stop stop-color="#1DCDDB"/>
<stop offset="1" stop-color="#31B8FF"/>
</linearGradient>
<linearGradient id="paint5_linear" x1="361.557" y1="397.632" x2="361.557" y2="426.012" gradientUnits="userSpaceOnUse">
<stop stop-color="#1DCDDB"/>
<stop offset="1" stop-color="#31B8FF"/>
</linearGradient>
<linearGradient id="paint6_linear" x1="361.55" y1="140.791" x2="361.55" y2="156.018" gradientUnits="userSpaceOnUse">
<stop stop-color="#1DCDDB"/>
<stop offset="1" stop-color="#31B8FF"/>
</linearGradient>
<linearGradient id="paint7_linear" x1="361.55" y1="105.545" x2="361.55" y2="112.74" gradientUnits="userSpaceOnUse">
<stop stop-color="#1DCDDB"/>
<stop offset="1" stop-color="#31B8FF"/>
</linearGradient>
<linearGradient id="paint8_linear" x1="361.55" y1="541.292" x2="361.55" y2="570.126" gradientUnits="userSpaceOnUse">
<stop stop-color="#1DCDDB"/>
<stop offset="1" stop-color="#31B8FF"/>
</linearGradient>
<linearGradient id="paint9_linear" x1="361.564" y1="548.418" x2="361.564" y2="563.027" gradientUnits="userSpaceOnUse">
<stop stop-color="#1DCDDB"/>
<stop offset="1" stop-color="#31B8FF"/>
</linearGradient>
<linearGradient id="paint10_linear" x1="547.92" y1="325.678" x2="547.92" y2="531.254" gradientUnits="userSpaceOnUse">
<stop offset="0.0915895" stop-color="#018629"/>
<stop offset="0.628193" stop-color="#1CBD4D"/>
<stop offset="1" stop-color="#31E668"/>
</linearGradient>
<linearGradient id="paint11_linear" x1="549.817" y1="346.742" x2="549.817" y2="561.105" gradientUnits="userSpaceOnUse">
<stop stop-color="#1D97DB" stop-opacity="0.09"/>
<stop offset="1" stop-color="#31B8FF"/>
</linearGradient>
<linearGradient id="paint12_linear" x1="508.767" y1="536.899" x2="508.767" y2="588.84" gradientUnits="userSpaceOnUse">
<stop stop-color="#1DCDDB"/>
<stop offset="1" stop-color="#31B8FF"/>
</linearGradient>
<linearGradient id="paint13_linear" x1="133.651" y1="264.763" x2="133.651" y2="310.718" gradientUnits="userSpaceOnUse">
<stop stop-color="#B6D3D7"/>
<stop offset="1" stop-color="#137BB1"/>
</linearGradient>
<linearGradient id="paint14_linear" x1="114.961" y1="265.628" x2="114.961" y2="270.502" gradientUnits="userSpaceOnUse">
<stop stop-color="#B6D3D7"/>
<stop offset="1" stop-color="#137BB1"/>
</linearGradient>
<linearGradient id="paint15_linear" x1="173.922" y1="217.654" x2="173.922" y2="239.856" gradientUnits="userSpaceOnUse">
<stop stop-color="#B6D3D7"/>
<stop offset="1" stop-color="#137BB1"/>
</linearGradient>
<linearGradient id="paint16_linear" x1="153.823" y1="172.646" x2="153.823" y2="233.705" gradientUnits="userSpaceOnUse">
<stop stop-color="#B6D3D7"/>
<stop offset="1" stop-color="#137BB1"/>
</linearGradient>
<linearGradient id="paint17_linear" x1="184.142" y1="578.859" x2="184.142" y2="587.66" gradientUnits="userSpaceOnUse">
<stop stop-color="#B6D3D7"/>
<stop offset="1" stop-color="#137BB1"/>
</linearGradient>
<linearGradient id="paint18_linear" x1="177.922" y1="587.069" x2="177.922" y2="591.411" gradientUnits="userSpaceOnUse">
<stop stop-color="#B6D3D7"/>
<stop offset="1" stop-color="#137BB1"/>
</linearGradient>
<linearGradient id="paint19_linear" x1="179.337" y1="357.813" x2="179.337" y2="568.053" gradientUnits="userSpaceOnUse">
<stop stop-color="#0568A0"/>
<stop offset="1" stop-color="#6798B1"/>
</linearGradient>
<linearGradient id="paint20_linear" x1="189.65" y1="352.859" x2="189.65" y2="575.269" gradientUnits="userSpaceOnUse">
<stop stop-color="#0568A0"/>
<stop offset="1" stop-color="#6798B1"/>
</linearGradient>
<linearGradient id="paint21_linear" x1="194.565" y1="277.367" x2="194.565" y2="303.853" gradientUnits="userSpaceOnUse">
<stop stop-color="#B6D3D7"/>
<stop offset="1" stop-color="#137BB1"/>
</linearGradient>
<linearGradient id="paint22_linear" x1="193.074" y1="222.061" x2="193.074" y2="254.012" gradientUnits="userSpaceOnUse">
<stop stop-color="#B6D3D7"/>
<stop offset="1" stop-color="#137BB1"/>
</linearGradient>
<linearGradient id="paint23_linear" x1="195.153" y1="249.261" x2="195.153" y2="276.9" gradientUnits="userSpaceOnUse">
<stop stop-color="#B6D3D7"/>
<stop offset="1" stop-color="#137BB1"/>
</linearGradient>
<linearGradient id="paint24_linear" x1="191.562" y1="331.877" x2="191.562" y2="354.629" gradientUnits="userSpaceOnUse">
<stop stop-color="#B6D3D7"/>
<stop offset="1" stop-color="#137BB1"/>
</linearGradient>
<linearGradient id="paint25_linear" x1="193.781" y1="308.81" x2="193.781" y2="332.23" gradientUnits="userSpaceOnUse">
<stop stop-color="#B6D3D7"/>
<stop offset="1" stop-color="#137BB1"/>
</linearGradient>
<linearGradient id="paint26_linear" x1="142.66" y1="264.392" x2="142.66" y2="319.382" gradientUnits="userSpaceOnUse">
<stop stop-color="#B6D3D7"/>
<stop offset="1" stop-color="#137BB1"/>
</linearGradient>
<linearGradient id="paint27_linear" x1="194.454" y1="273.797" x2="194.454" y2="294.697" gradientUnits="userSpaceOnUse">
<stop stop-color="#B6D3D7"/>
<stop offset="1" stop-color="#137BB1"/>
</linearGradient>
<linearGradient id="paint28_linear" x1="196.985" y1="243.288" x2="196.985" y2="264.523" gradientUnits="userSpaceOnUse">
<stop stop-color="#B6D3D7"/>
<stop offset="1" stop-color="#137BB1"/>
</linearGradient>
</defs>
</svg>
