<svg width="600" height="532" viewBox="0 0 600 532" fill="none" xmlns="http://www.w3.org/2000/svg">
<g clip-path="url(#clip0)">
<path opacity="0.1" d="M268.798 205.694C245.348 198.104 220.554 191.742 195.215 192.398C157.963 193.365 122.145 210.725 104.48 236.383C89.5475 258.125 87.5544 283.679 81.0362 307.856C73.0053 337.642 57.7615 365.909 41.4919 393.553C32.7534 408.401 23.5344 423.56 22.0152 439.875C19.9312 462.527 33.6558 485.172 55.2944 500.351C76.9331 515.529 105.726 523.619 134.656 525.508C150.049 526.508 166.136 525.735 179.842 520.191C194.339 514.348 204.941 503.655 219.496 497.877C232.987 492.527 248.711 491.839 263.845 492.625C283.443 493.616 302.854 496.942 321.665 502.532C342.758 508.842 362.358 517.925 383.406 524.326C404.454 530.728 427.982 534.35 449.549 529.202C469.798 524.372 485.86 512.465 500.344 500.403C523.685 481.013 545.389 459.733 565.234 436.779C578.316 421.593 590.502 405.557 596.345 387.814C607.505 353.886 592.553 315.471 559.099 292.105C531.384 272.739 494.099 264.189 457.586 258.995C424.287 254.21 385.763 253.736 355.158 241.55C325.969 229.897 299.416 215.601 268.798 205.694Z" fill="url(#paint0_linear)"/>
<path opacity="0.1" d="M567.714 321.314C576 321.314 582.718 320.393 582.718 319.256C582.718 318.119 576 317.198 567.714 317.198C559.428 317.198 552.71 318.119 552.71 319.256C552.71 320.393 559.428 321.314 567.714 321.314Z" fill="url(#paint1_linear)"/>
<path opacity="0.1" d="M510.238 327.144C518.524 327.144 525.242 326.223 525.242 325.086C525.242 323.949 518.524 323.028 510.238 323.028C501.952 323.028 495.235 323.949 495.235 325.086C495.235 326.223 501.952 327.144 510.238 327.144Z" fill="url(#paint2_linear)"/>
<path opacity="0.1" d="M442.537 319.256C450.823 319.256 457.541 318.335 457.541 317.198C457.541 316.061 450.823 315.14 442.537 315.14C434.251 315.14 427.534 316.061 427.534 317.198C427.534 318.335 434.251 319.256 442.537 319.256Z" fill="url(#paint3_linear)"/>
<path opacity="0.1" d="M533.24 343.147C539.131 343.147 543.907 342.49 543.907 341.68C543.907 340.87 539.131 340.213 533.24 340.213C527.349 340.213 522.573 340.87 522.573 341.68C522.573 342.49 527.349 343.147 533.24 343.147Z" fill="url(#paint4_linear)"/>
<path opacity="0.1" d="M473.59 341.68C479.481 341.68 484.256 341.023 484.256 340.213C484.256 339.403 479.481 338.746 473.59 338.746C467.699 338.746 462.923 339.403 462.923 340.213C462.923 341.023 467.699 341.68 473.59 341.68Z" fill="url(#paint5_linear)"/>
<path d="M509.914 324.619C509.914 324.619 530.961 255.632 506.622 228.001C488.444 207.33 467.747 209.823 458.495 212.361C456.1 212.999 453.873 214.149 451.967 215.733C450.061 217.317 448.523 219.297 447.458 221.535C444.212 228.514 444.809 239.843 467.649 253.068C505.895 275.213 508.278 305.59 508.278 305.59L509.914 324.619Z" fill="url(#paint6_linear)"/>
<path d="M461.787 222.145C461.787 222.145 523.827 241.544 509.914 324.619" stroke="#565987" stroke-miterlimit="10"/>
<path d="M498.013 229.098C498.013 229.098 489.47 234.857 492.17 243.505" stroke="#565987" stroke-miterlimit="10"/>
<path d="M468.013 234.221C468.013 234.221 473.207 228.91 479.588 231.838" stroke="#565987" stroke-miterlimit="10"/>
<path d="M492.534 260.936C492.534 260.936 501.701 256.288 504.071 262.111" stroke="#565987" stroke-miterlimit="10"/>
<path d="M515.224 270.636C515.224 270.636 508.336 270.09 508.213 273.382" stroke="#565987" stroke-miterlimit="10"/>
<path d="M510.764 325.171C510.764 325.171 486.094 275.031 479.348 276.128C476.102 276.647 474.648 279.816 473.979 282.99C473.148 287.1 473.618 291.366 475.323 295.196C478.822 303.22 488.217 318.458 510.764 325.171Z" fill="url(#paint7_linear)"/>
<path d="M479.53 285.646C479.53 285.646 505.402 323.158 510.401 324.807" stroke="#565987" stroke-miterlimit="10"/>
<path d="M477.154 291.502H483.192" stroke="#565987" stroke-miterlimit="10"/>
<path d="M484.386 305.226L493.852 305.629" stroke="#565987" stroke-miterlimit="10"/>
<path d="M490.145 294.248L489.119 299.175" stroke="#565987" stroke-miterlimit="10"/>
<path d="M500.208 309.251L500.026 313.731" stroke="#565987" stroke-miterlimit="10"/>
<path d="M510.037 325.171C510.037 325.171 534.707 275.031 541.453 276.128C544.699 276.647 546.153 279.816 546.822 282.99C547.653 287.1 547.183 291.366 545.478 295.196C541.979 303.22 532.585 318.458 510.037 325.171Z" fill="url(#paint8_linear)"/>
<path d="M541.271 285.646C541.271 285.646 515.4 323.158 510.401 324.807" stroke="#565987" stroke-miterlimit="10"/>
<path d="M543.647 291.502H537.61" stroke="#565987" stroke-miterlimit="10"/>
<path d="M536.415 305.226L526.949 305.629" stroke="#565987" stroke-miterlimit="10"/>
<path d="M530.656 294.248L531.682 299.175" stroke="#565987" stroke-miterlimit="10"/>
<path d="M520.587 309.251L520.775 313.731" stroke="#565987" stroke-miterlimit="10"/>
<path d="M467.714 336.882C467.045 336.334 466.556 335.596 466.312 334.766C466.203 334.348 466.242 333.905 466.42 333.512C466.598 333.118 466.906 332.798 467.292 332.604C468.195 332.26 469.155 332.883 469.889 333.519C470.623 334.156 471.454 334.863 472.408 334.733C471.918 334.288 471.551 333.723 471.344 333.094C471.137 332.465 471.097 331.793 471.226 331.143C471.266 330.874 471.378 330.62 471.551 330.41C472.051 329.877 472.96 330.111 473.557 330.526C475.459 331.87 475.992 334.454 476.005 336.779C476.098 335.915 476.098 335.045 476.005 334.182C475.968 333.752 476.036 333.319 476.205 332.922C476.374 332.525 476.637 332.175 476.972 331.903C477.423 331.656 477.932 331.535 478.446 331.552C478.871 331.492 479.303 331.521 479.716 331.639C480.129 331.756 480.512 331.959 480.841 332.234C481.562 333.013 481.374 334.318 480.744 335.175C480.036 335.96 479.199 336.618 478.271 337.123C477.559 337.543 476.953 338.121 476.498 338.811C476.447 338.907 476.404 339.006 476.368 339.109H471.006C469.813 338.518 468.706 337.769 467.714 336.882Z" fill="url(#paint9_linear)"/>
<path d="M561.637 316.685C560.965 316.139 560.476 315.4 560.235 314.568C560.127 314.151 560.166 313.71 560.344 313.317C560.522 312.925 560.83 312.606 561.215 312.413C562.118 312.069 563.079 312.692 563.812 313.322C564.546 313.952 565.383 314.672 566.338 314.536C565.846 314.092 565.477 313.527 565.269 312.898C565.061 312.269 565.019 311.596 565.15 310.946C565.189 310.677 565.304 310.425 565.481 310.219C565.981 309.686 566.883 309.914 567.48 310.336C569.383 311.673 569.915 314.231 569.928 316.588C570.024 315.725 570.024 314.854 569.928 313.991C569.891 313.561 569.96 313.128 570.128 312.731C570.297 312.334 570.56 311.984 570.895 311.712C571.348 311.471 571.856 311.353 572.369 311.368C572.792 311.301 573.223 311.325 573.636 311.437C574.049 311.549 574.434 311.746 574.765 312.017C575.492 312.79 575.304 314.095 574.667 314.952C573.964 315.751 573.127 316.424 572.194 316.938C571.482 317.359 570.876 317.936 570.421 318.626C570.368 318.721 570.325 318.821 570.292 318.925H564.929C563.737 318.328 562.63 317.575 561.637 316.685Z" fill="url(#paint10_linear)"/>
<path d="M530.332 336.882C529.662 336.334 529.174 335.596 528.929 334.766C528.821 334.348 528.859 333.905 529.038 333.512C529.216 333.118 529.524 332.798 529.91 332.604C530.812 332.26 531.773 332.883 532.507 333.519C533.24 334.156 534.071 334.863 535.026 334.733C534.535 334.288 534.168 333.724 533.959 333.095C533.751 332.466 533.709 331.793 533.838 331.143C533.883 330.874 533.997 330.621 534.169 330.41C534.669 329.877 535.578 330.111 536.175 330.526C538.077 331.87 538.609 334.454 538.622 336.779C538.726 335.917 538.737 335.046 538.655 334.182C538.618 333.752 538.686 333.319 538.855 332.922C539.024 332.525 539.287 332.175 539.622 331.903C540.073 331.656 540.582 331.535 541.096 331.552C541.521 331.492 541.953 331.521 542.366 331.639C542.779 331.756 543.162 331.959 543.492 332.234C544.212 333.013 544.024 334.318 543.394 335.175C542.686 335.96 541.849 336.618 540.921 337.123C540.209 337.543 539.603 338.121 539.148 338.811C539.097 338.907 539.054 339.006 539.018 339.109H533.656C532.452 338.521 531.334 337.772 530.332 336.882Z" fill="url(#paint11_linear)"/>
<path d="M441.563 296.059C441.563 296.059 439.551 298.688 442.492 302.655C445.433 306.622 447.848 309.978 446.874 312.452C446.874 312.452 442.44 305.083 438.83 304.979C435.221 304.876 437.59 300.493 441.563 296.059Z" fill="url(#paint12_linear)"/>
<path opacity="0.1" d="M441.563 296.059C441.386 296.312 441.246 296.59 441.148 296.884C437.629 301.019 435.753 304.882 439.135 304.979C442.291 305.07 446.076 310.706 446.978 312.121C446.978 312.231 446.913 312.342 446.874 312.446C446.874 312.446 442.44 305.077 438.83 304.973C435.221 304.869 437.59 300.493 441.563 296.059Z" fill="black"/>
<path d="M437.824 299.409C437.824 300.338 437.928 301.084 438.058 301.084C438.187 301.084 438.285 300.338 438.285 299.409C438.285 298.481 438.155 298.922 438.032 298.922C437.908 298.922 437.824 298.487 437.824 299.409Z" fill="#FFD037"/>
<path d="M436.538 300.513C437.35 300.961 438.064 301.227 438.122 301.117C438.181 301.006 437.577 300.552 436.766 300.11C435.954 299.669 436.272 299.987 436.207 300.11C436.142 300.234 435.727 300.071 436.538 300.513Z" fill="#FFD037"/>
<path d="M452.178 296.059C452.178 296.059 454.191 298.688 451.25 302.655C448.309 306.622 445.894 309.978 446.874 312.452C446.874 312.452 451.302 305.083 454.911 304.979C458.521 304.876 456.151 300.493 452.178 296.059Z" fill="url(#paint13_linear)"/>
<path opacity="0.1" d="M452.178 296.059C452.356 296.312 452.496 296.59 452.594 296.884C456.112 301.019 457.989 304.882 454.606 304.979C451.451 305.07 447.666 310.706 446.764 312.121C446.794 312.231 446.83 312.34 446.874 312.446C446.874 312.446 451.302 305.077 454.911 304.973C458.521 304.869 456.151 300.493 452.178 296.059Z" fill="black"/>
<path d="M455.918 299.409C455.918 300.338 455.814 301.084 455.684 301.084C455.554 301.084 455.457 300.338 455.457 299.409C455.457 298.481 455.587 298.922 455.71 298.922C455.833 298.922 455.918 298.487 455.918 299.409Z" fill="#FFD037"/>
<path d="M457.203 300.513C456.392 300.961 455.678 301.227 455.619 301.117C455.561 301.006 456.164 300.552 456.976 300.11C457.787 299.669 457.469 299.987 457.534 300.11C457.599 300.234 458.015 300.071 457.203 300.513Z" fill="#FFD037"/>
<path d="M455.275 312.108C455.275 312.108 449.659 311.939 447.965 310.732C446.27 309.524 439.317 308.083 438.875 310.018C438.434 311.952 430.436 319.639 436.772 319.691C443.108 319.743 451.522 318.704 453.21 317.672C454.898 316.64 455.275 312.108 455.275 312.108Z" fill="#A8A8A8"/>
<path opacity="0.2" d="M436.681 319.016C443.024 319.068 451.425 318.029 453.12 316.997C454.418 316.218 454.918 313.4 455.067 312.102H455.249C455.249 312.102 454.898 316.646 453.204 317.665C451.509 318.685 443.115 319.736 436.766 319.684C434.935 319.684 434.305 319.035 434.337 318.055C434.617 318.646 435.318 319.009 436.681 319.016Z" fill="black"/>
<path opacity="0.1" d="M83.7434 53.3337C91.499 53.3337 97.7861 47.0466 97.7861 39.291C97.7861 31.5354 91.499 25.2483 83.7434 25.2483C75.9878 25.2483 69.7007 31.5354 69.7007 39.291C69.7007 47.0466 75.9878 53.3337 83.7434 53.3337Z" fill="url(#paint14_linear)"/>
<path opacity="0.1" d="M326.625 31.1692C334.38 31.1692 340.667 24.882 340.667 17.1265C340.667 9.37088 334.38 3.08374 326.625 3.08374C318.869 3.08374 312.582 9.37088 312.582 17.1265C312.582 24.882 318.869 31.1692 326.625 31.1692Z" fill="url(#paint15_linear)"/>
<path opacity="0.1" d="M549.406 86.6455C557.162 86.6455 563.449 80.3584 563.449 72.6028C563.449 64.8472 557.162 58.5601 549.406 58.5601C541.65 58.5601 535.363 64.8472 535.363 72.6028C535.363 80.3584 541.65 86.6455 549.406 86.6455Z" fill="url(#paint16_linear)"/>
<path opacity="0.1" d="M23.5344 191.586C36.5321 191.586 47.0688 181.049 47.0688 168.052C47.0688 155.054 36.5321 144.517 23.5344 144.517C10.5367 144.517 0 155.054 0 168.052C0 181.049 10.5367 191.586 23.5344 191.586Z" fill="url(#paint17_linear)"/>
<path opacity="0.1" d="M46.0949 307.797C59.0926 307.797 69.6293 297.261 69.6293 284.263C69.6293 271.265 59.0926 260.729 46.0949 260.729C33.0972 260.729 22.5605 271.265 22.5605 284.263C22.5605 297.261 33.0972 307.797 46.0949 307.797Z" fill="url(#paint18_linear)"/>
<path opacity="0.1" d="M486.866 205.291C499.864 205.291 510.401 194.754 510.401 181.757C510.401 168.759 499.864 158.222 486.866 158.222C473.868 158.222 463.332 168.759 463.332 181.757C463.332 194.754 473.868 205.291 486.866 205.291Z" fill="url(#paint19_linear)"/>
<path d="M292.255 225.826C291.424 225.904 290.58 225.865 289.755 225.995C288.371 226.27 287.05 226.801 285.86 227.56C279.952 230.923 274.375 235.545 271.928 241.881C271.726 242.271 271.662 242.717 271.746 243.147C271.891 243.502 272.129 243.812 272.434 244.043L274.732 246.134C275.023 246.435 275.369 246.678 275.752 246.848C276.372 247.01 277.025 246.99 277.634 246.79C283.951 245.342 290.664 243.673 295.098 238.947C297.202 236.707 299.143 233.623 302.24 233.539C303.538 233.539 304.752 234.039 306.031 234.188C307.31 234.337 308.849 233.792 309.154 232.546C309.253 231.926 309.181 231.29 308.946 230.708L307.038 224.352C306.518 222.612 301.279 222.522 299.533 222.833C296.871 223.294 295.079 225.566 292.255 225.826Z" fill="#65617D"/>
<path d="M314.744 261.631C314.653 263.806 314.828 266.007 314.471 268.162C314.157 269.862 313.613 271.511 312.855 273.064C311.687 275.561 310.203 277.898 308.44 280.017C306.797 281.965 304.83 283.795 302.396 284.561C299.961 285.328 296.968 284.776 295.449 282.724C294.209 281.056 294.15 278.829 294.241 276.745C294.462 271.622 295.267 266.429 297.565 261.845C298.552 259.897 299.805 258.041 300.811 256.074C302.915 251.99 304.116 247.147 307.745 244.329C310.022 245.381 312.457 246.05 314.952 246.309C315.919 246.413 318.685 246.478 319.009 247.718C319.23 248.556 317.412 250.899 317.062 251.724C315.676 254.852 314.89 258.213 314.744 261.631Z" fill="#65617D"/>
<path d="M289.009 168C289.788 169.986 290.775 171.934 290.956 174.051C291.086 175.349 290.956 176.647 290.956 177.946C291.066 179.725 291.362 181.487 291.839 183.205L295.455 198.007C295.994 200.221 296.533 202.493 296.254 204.752C296.066 206.259 295.52 207.719 295.527 209.232C295.596 210.379 295.779 211.516 296.072 212.627C296.757 216.06 296.569 219.609 295.527 222.95C295.42 223.202 295.382 223.477 295.416 223.749C295.507 224.171 295.916 224.43 296.286 224.632C300.18 226.762 304.424 228.176 308.816 228.806C312.781 219.374 315.551 209.483 317.062 199.364C317.983 193.235 318.431 187.029 319.613 180.945C319.64 180.594 319.789 180.263 320.035 180.01C320.476 179.64 321.145 179.874 321.665 180.121C328.299 183.311 334.682 187.001 340.758 191.158C342.895 188.391 344.397 185.188 345.159 181.777C345.921 178.365 345.923 174.828 345.166 171.415C344.403 168.472 343.315 165.624 341.92 162.923C340.435 159.637 338.584 156.529 336.402 153.658C331.585 147.621 324.521 143.764 317.25 141.148C312.829 139.551 308.278 138.369 303.733 137.162C301.188 136.48 296.923 134.26 294.449 135.987C291.852 137.785 290.125 142.245 289.061 145.076C287.746 148.587 287.031 152.293 286.944 156.041C286.837 160.124 287.539 164.189 289.009 168Z" fill="#3F3D56"/>
<path d="M341.2 185.847C339.843 187.327 340.986 189.69 340.726 191.69C340.556 192.593 340.233 193.46 339.771 194.254L333.558 206.453C332.52 208.284 331.742 210.251 331.247 212.296C330.397 216.698 332.143 221.645 329.91 225.534C329.189 226.787 328.072 227.865 327.774 229.28C327.553 230.312 327.774 231.39 327.663 232.435C327.514 233.662 326.858 234.766 326.495 235.947C326.211 237.083 326.009 238.237 325.891 239.401C325.103 244.366 322.504 248.863 318.594 252.022C316.353 253.921 313.477 254.9 310.543 254.762C307.648 254.515 304.772 252.548 304.181 249.705C303.98 248.737 304.019 247.66 303.415 246.874C302.558 245.751 300.753 245.705 299.929 244.556L303.123 239.297C304.116 237.668 305.129 235.967 305.291 234.065C305.486 231.734 304.363 229.41 304.765 227.105C305.109 225.125 306.531 223.476 306.96 221.515C307.492 219.081 306.427 216.62 305.85 214.192C304.434 208.213 306.018 201.98 307.596 196.014C309.693 188.119 311.842 180.101 316.088 173.122C324.56 177.686 332.351 182.068 341.2 185.847Z" fill="#3F3D56"/>
<path d="M341.278 62.1827C341.784 63.559 341.511 65.0847 341.414 66.5454C341.187 69.7916 341.875 73.0377 341.719 76.3293C341.563 79.6208 340.551 82.7631 339.849 85.9637C337.856 95.0983 338.337 104.616 336.532 113.789C334.305 125.151 328.611 135.733 327.488 147.264C327.131 150.925 327.177 154.846 325.17 157.937C313.249 152.689 301.981 146.07 291.593 138.213C293.878 121.262 296.137 104.226 295.832 87.1258C295.684 85.0644 295.828 82.9923 296.26 80.9712C296.802 79.2735 297.58 77.6606 298.572 76.1799C301.084 72.0963 303.85 68.175 306.609 64.2602C308.375 61.7542 310.284 59.1248 313.101 57.9497C315.919 56.7746 319.256 57.3005 322.327 57.8588C326.023 58.534 329.715 59.2092 333.403 59.8844C335.707 60.3064 340.291 59.5014 341.278 62.1827Z" fill="url(#paint20_linear)"/>
<path d="M252.379 127.138C250.865 125.622 249.213 124.251 247.445 123.041C249.75 120.236 249.296 116.179 249.86 112.588C250.323 110.256 251.026 107.978 251.957 105.791C252.191 105.174 252.522 104.493 253.165 104.33C253.56 104.281 253.96 104.344 254.321 104.512C256.268 105.2 260.332 105.161 261.845 106.421C263.669 107.953 262.001 111.16 261.313 113.075C260.826 114.361 253.347 128.111 252.379 127.138Z" fill="#BE6F72"/>
<path d="M258.034 248.38C259.012 249.963 259.651 251.732 259.91 253.574C260.066 255.418 259.391 257.437 257.82 258.411C256.249 259.385 253.996 259.06 252.126 258.476C248.16 257.186 244.511 255.074 241.418 252.277C238.325 249.48 235.857 246.061 234.175 242.245C233.584 240.882 233.071 239.434 232.026 238.382C231.25 237.7 230.388 237.121 229.462 236.662C226.91 235.221 224.45 233.325 223.268 230.637C222.087 227.949 222.619 224.359 225.067 222.762C225.829 222.321 226.672 222.037 227.546 221.925C228.42 221.814 229.307 221.878 230.156 222.113C231.849 222.593 233.469 223.299 234.974 224.21C237.493 225.58 240.57 226.761 242.764 228.585C244.712 230.189 246.458 232.357 248.12 234.247C250.024 236.42 251.808 238.696 253.464 241.064C253.996 241.758 258.482 247.751 258.034 248.38Z" fill="#65617D"/>
<path d="M210.446 234.753C210.225 238.02 209.648 241.253 208.726 244.394C208.2 246.16 207.505 247.997 206.044 249.12C204.809 249.921 203.408 250.434 201.948 250.62C201.438 250.758 200.906 250.791 200.383 250.717C199.487 250.529 198.851 249.757 198.299 249.023C196.131 246.153 194.021 243.121 193.105 239.642C191.807 234.597 193.105 229.189 195.358 224.476C196.168 222.576 197.349 220.856 198.831 219.418C200.663 217.913 202.864 216.924 205.207 216.555C207.602 216.075 210.543 215.049 210.719 217.964C210.975 223.561 210.884 229.168 210.446 234.753Z" fill="#65617D"/>
<path d="M246.368 112.725C250.847 115.043 255.82 117.99 256.755 122.944C257.333 125.969 256.223 129.066 256.405 132.143C256.567 134.85 257.703 137.467 257.56 140.168C257.409 141.444 257.192 142.711 256.911 143.966C256.528 146.361 256.755 148.802 256.658 151.224C256.444 156.677 254.619 161.923 253.736 167.305C253.111 171.148 252.965 175.054 253.301 178.933C253.516 181.439 253.951 183.932 253.951 186.451C253.951 188.265 253.801 190.076 253.503 191.865C252.632 197.487 250.879 202.936 248.309 208.011C245.186 214.16 245.627 222.093 245.959 228.981C246.103 229.931 245.982 230.902 245.608 231.786C244.79 233.273 242.751 233.487 241.063 233.344C234.804 232.772 228.998 229.832 224.833 225.125C224.225 224.533 223.813 223.77 223.651 222.937C223.508 221.548 224.625 220.405 225.43 219.256C228.17 215.361 227.475 210.083 227.8 205.298C228.037 201.817 228.869 198.402 230.26 195.202C231.065 193.352 232.072 191.528 232.253 189.515C232.422 187.639 231.851 185.782 231.286 183.99L229.338 177.81C226.32 168.208 223.281 158.547 218.711 149.581C215.712 151.532 213.566 154.549 212.705 158.021C211.004 164.137 213.426 170.967 211.108 176.849C210.724 177.664 210.405 178.509 210.154 179.374C210.017 180.121 209.965 180.881 209.998 181.64C210.058 187.968 210.444 194.289 211.154 200.578C211.189 201.53 211.456 202.46 211.933 203.285C212.316 203.837 212.874 204.246 213.283 204.772C214.419 206.246 214.205 208.31 213.932 210.147L212.634 218.834C212.611 219.274 212.465 219.7 212.212 220.061C211.906 220.358 211.524 220.564 211.108 220.658C206.983 221.939 202.634 222.338 198.344 221.827C197.078 221.678 195.929 220.827 194.871 220.113C194.761 218.815 196.377 217.951 196.436 216.659C196.373 215.894 196.017 215.182 195.442 214.673C193.027 211.946 190.145 209.05 190.171 205.408C190.171 204.454 190.398 203.499 190.366 202.545C190.281 200.097 188.593 198 188.002 195.644C187.275 192.729 188.243 189.703 188.613 186.723C189.119 182.711 188.522 178.647 187.963 174.641L185.788 159.943C185.536 157.662 185.084 155.407 184.438 153.204C183.619 151.035 182.659 148.923 181.562 146.881C179.485 142.661 177.777 138.272 176.076 133.896C175.536 132.707 175.196 131.437 175.07 130.137C174.972 127.91 176.122 125.807 177.55 124.093C180.225 120.908 183.876 118.694 187.937 117.795C188.616 117.606 189.33 117.577 190.021 117.711C190.603 117.904 191.149 118.191 191.638 118.561C196.657 121.844 202.367 123.92 208.322 124.626C214.277 125.332 220.315 124.65 225.962 122.632C226.612 123.125 227.813 122.911 228.559 122.561C230.643 121.606 232.344 120.016 234.175 118.665C237.584 116.081 242.18 113.627 246.368 112.725Z" fill="#3F3D56"/>
<path d="M111.803 279.452C112.148 280.447 112.666 281.372 113.335 282.185C115.685 285.25 118.964 287.697 120.477 291.275C120.795 292.041 121.028 292.846 121.321 293.625C122.209 295.976 123.658 298.075 125.54 299.74C126.977 300.933 128.537 301.967 130.195 302.824C133.065 304.389 136.168 305.804 139.427 305.72C140.083 305.706 140.735 305.627 141.375 305.486C142.389 305.276 143.367 304.917 144.277 304.421C146.374 303.266 148.172 301.006 147.757 298.65C147.673 298.2 147.531 297.764 147.335 297.351C146.991 296.695 146.593 296.067 146.147 295.475C145.05 293.956 143.92 292.398 142.316 291.424C140.512 290.32 138.239 290.048 136.616 288.684C135.976 288.105 135.423 287.435 134.974 286.698C133.503 284.436 132.406 281.953 131.728 279.342C131.234 277.394 130.903 275.258 129.481 273.83C128.059 272.402 126.105 272.077 124.21 271.752C123.569 271.62 122.916 271.557 122.262 271.564C121.334 271.597 120.373 271.863 119.503 271.428C118.633 270.993 118.341 270.376 117.289 270.46C116.452 270.573 115.663 270.917 115.01 271.454C112.543 273.278 110.907 276.524 111.803 279.452Z" fill="#3F3D56"/>
<path d="M134.87 282.406C135.292 284.607 135.941 286.951 137.642 288.385C138.726 289.32 140.239 289.905 140.778 291.223C141.317 292.541 140.622 294.196 139.726 295.404C138.582 296.931 137.164 298.232 135.545 299.241C134.169 300.091 132.526 300.74 130.948 300.364C129.65 300.059 128.624 299.124 127.657 298.221C125.437 296.163 123.164 294.027 121.918 291.268C120.619 288.36 120.554 284.99 119.139 282.127C118.315 280.458 117.042 278.998 116.542 277.206C116.318 276.558 116.318 275.854 116.542 275.206C116.784 274.743 117.151 274.356 117.6 274.089C118.049 273.822 118.564 273.685 119.087 273.694C120.132 273.728 121.163 273.948 122.132 274.343C125.063 275.388 128.063 276.227 131.111 276.855C132.325 277.082 133.058 277.076 133.708 278.251C134.307 279.568 134.7 280.969 134.87 282.406Z" fill="#FBBEBE"/>
<path d="M142.401 301.013C141.92 301.749 141.578 302.568 141.395 303.428C141.241 304.097 141.217 304.789 141.323 305.466C142.338 305.256 143.315 304.897 144.225 304.402C146.322 303.246 148.12 300.987 147.705 298.63C147.621 298.181 147.479 297.744 147.283 297.332C146.973 297.262 146.651 297.275 146.347 297.37C146.044 297.465 145.771 297.637 145.556 297.871C144.347 298.747 143.283 299.807 142.401 301.013Z" fill="#FBBEBE"/>
<path d="M119.133 251.685C118.85 252.293 118.766 252.974 118.892 253.633C119.191 254.931 120.522 255.678 121.723 256.268L133.143 261.852C133.935 262.218 134.707 262.628 135.454 263.079C137.402 264.273 138.934 265.961 140.596 267.506C142.258 269.052 144.108 270.499 146.309 271.045C148.506 271.526 150.802 271.225 152.801 270.194C153.879 269.658 154.879 268.978 155.775 268.175C156.551 267.495 157.267 266.75 157.917 265.948C158.476 265.359 158.875 264.637 159.079 263.851C159.294 262.663 158.703 261.495 158.015 260.514C157.618 259.949 157.185 259.411 156.716 258.904C152.386 254.119 145.29 251.639 139.187 250.666C136.759 250.276 134.454 249.367 132.117 248.627C129.78 247.887 127.306 247.329 124.878 247.673C122.45 248.017 120.061 249.413 119.133 251.685Z" fill="#3F3D56"/>
<path opacity="0.1" d="M119.133 251.685C118.85 252.293 118.766 252.974 118.892 253.633C119.191 254.931 120.522 255.678 121.723 256.268L133.143 261.852C133.935 262.218 134.707 262.628 135.454 263.079C137.402 264.273 138.934 265.961 140.596 267.506C142.258 269.052 144.108 270.499 146.309 271.045C148.506 271.526 150.802 271.225 152.801 270.194C153.879 269.658 154.879 268.978 155.775 268.175C156.551 267.495 157.267 266.75 157.917 265.948C158.476 265.359 158.875 264.637 159.079 263.851C159.294 262.663 158.703 261.495 158.015 260.514C157.618 259.949 157.185 259.411 156.716 258.904C152.386 254.119 145.29 251.639 139.187 250.666C136.759 250.276 134.454 249.367 132.117 248.627C129.78 247.887 127.306 247.329 124.878 247.673C122.45 248.017 120.061 249.413 119.133 251.685Z" fill="black"/>
<path d="M147.711 255.249C148.589 256.235 149.312 257.349 149.854 258.554C150.342 259.342 150.515 260.285 150.341 261.196C150.086 261.809 149.676 262.346 149.153 262.754L148.017 263.806C147.673 264.162 147.274 264.461 146.835 264.689C146.214 264.922 145.55 265.021 144.887 264.981C143.362 264.981 141.719 264.981 140.479 264.065C138.785 262.845 138.479 260.319 139.252 258.378C140.025 256.437 141.641 254.97 143.271 253.658C144.595 252.587 146.783 254.269 147.711 255.249Z" fill="#FBBEBE"/>
<path d="M154.645 261.962C154.435 263.039 154.536 264.154 154.937 265.176C155.223 266.15 155.502 267.123 155.781 268.117C155.781 268.117 155.781 268.117 155.781 268.156C156.557 267.475 157.274 266.73 157.924 265.929C158.482 265.339 158.882 264.618 159.086 263.832C159.3 262.644 158.709 261.475 158.021 260.495C157.625 259.93 157.191 259.392 156.723 258.885C156.418 259.281 156.151 259.67 155.931 259.924C155.363 260.504 154.924 261.199 154.645 261.962Z" fill="#FBBEBE"/>
<path d="M124.813 213.575C123.469 219.223 124.041 225.131 124.755 230.897C125.3 235.285 125.911 239.83 124.612 244.056C124.132 245.634 123.372 247.238 123.664 248.867C124.216 251.938 127.917 253.119 130.981 253.697C131.865 253.922 132.784 253.977 133.688 253.86C134.596 253.612 135.438 253.169 136.155 252.561C140.511 249.395 143.819 244.997 145.653 239.934C146.816 236.545 147.186 232.942 147.543 229.377C148.14 223.379 148.744 217.308 147.867 211.348C147.608 209.596 147.218 207.862 147.056 206.096C146.851 203.025 147.021 199.94 147.562 196.91C148.68 189.403 150.373 181.993 152.626 174.745C146.444 175.566 140.16 174.431 134.656 171.499C135.72 172.07 134.5 181.179 134.37 182.458C133.976 186.271 133.288 190.048 132.312 193.754C130.501 200.682 126.456 206.693 124.813 213.575Z" fill="#3F3D56"/>
<path opacity="0.1" d="M124.813 213.575C123.469 219.223 124.041 225.131 124.755 230.897C125.3 235.285 125.911 239.83 124.612 244.056C124.132 245.634 123.372 247.238 123.664 248.867C124.216 251.938 127.917 253.119 130.981 253.697C131.865 253.922 132.784 253.977 133.688 253.86C134.596 253.612 135.438 253.169 136.155 252.561C140.511 249.395 143.819 244.997 145.653 239.934C146.816 236.545 147.186 232.942 147.543 229.377C148.14 223.379 148.744 217.308 147.867 211.348C147.608 209.596 147.218 207.862 147.056 206.096C146.851 203.025 147.021 199.94 147.562 196.91C148.68 189.403 150.373 181.993 152.626 174.745C146.444 175.566 140.16 174.431 134.656 171.499C135.72 172.07 134.5 181.179 134.37 182.458C133.976 186.271 133.288 190.048 132.312 193.754C130.501 200.682 126.456 206.693 124.813 213.575Z" fill="black"/>
<path d="M158.521 180.478C161.118 188.002 160.547 196.221 159.424 204.103C158.3 211.985 156.645 219.866 157.132 227.806C157.32 230.923 157.826 234.123 156.918 237.103C156.412 238.557 155.744 239.949 154.924 241.252L134.208 277.076C133.679 278.006 132.928 278.789 132.021 279.356C131.115 279.923 130.081 280.255 129.014 280.322C126.8 280.478 124.625 279.751 122.561 278.939C121.189 278.485 119.914 277.778 118.802 276.855C118.25 276.396 117.818 275.81 117.542 275.147C117.266 274.485 117.155 273.766 117.217 273.051C118.146 266.831 119.542 260.462 120.574 254.223C121.276 249.99 122.807 245.937 125.08 242.297C126.683 239.7 128.657 237.369 130.04 234.669C134.013 226.93 132.637 217.49 129.572 209.349C126.508 201.208 121.944 193.651 119.509 185.327C118.787 183.011 118.375 180.61 118.282 178.186C118.252 175.683 118.716 173.198 119.647 170.874C120.579 168.55 121.959 166.433 123.71 164.643C124.221 164.065 124.865 163.619 125.586 163.345C126.429 163.149 127.308 163.165 128.144 163.39C139.681 165.63 154.71 169.363 158.521 180.478Z" fill="#3F3D56"/>
<path d="M344.738 68.1425C345.115 70.9861 344.089 73.8622 342.628 76.3228C337.103 85.5417 324.365 89.6189 314.517 85.3275C310.459 83.5551 307.025 80.6336 303.662 77.7511C302.532 76.7772 301.357 75.7579 300.786 74.3816C299.779 71.947 300.993 69.0449 302.973 67.305C304.954 65.5651 307.518 64.7081 310.069 63.9356C318.49 61.3127 342.732 53.0416 344.738 68.1425Z" fill="#FBBEBE"/>
<path d="M339.81 59.1183C347.478 65.2859 358.638 71.1614 367.325 75.732C370.279 77.2901 373.557 79.043 374.622 82.2242C375.193 83.9252 375.005 85.7755 374.817 87.5673C374.453 91.0147 374.076 94.514 372.746 97.7147C371.181 101.461 368.415 104.551 366.195 107.953C362.3 113.913 360.014 120.937 355.204 126.203C358.45 136.986 362.001 147.757 363.157 158.95C363.22 159.257 363.186 159.577 363.059 159.865C362.926 160.054 362.753 160.211 362.553 160.326L354.476 165.624C353.596 166.137 352.808 166.796 352.146 167.571C350.717 169.428 350.906 172.038 350.023 174.2C349.539 175.255 348.846 176.202 347.987 176.983C347.128 177.764 346.12 178.363 345.024 178.744C342.817 179.505 340.466 179.754 338.148 179.471C335.199 179.286 332.358 178.286 329.942 176.582C327.884 175.024 326.417 172.836 325.002 170.681C323.953 169.211 323.081 167.622 322.405 165.948C321.541 163.559 321.489 160.956 321.522 158.411C321.543 153.568 322.006 148.737 322.905 143.978C323.281 142.089 323.749 140.226 324.047 138.324C324.645 134.493 324.528 130.585 324.969 126.735C325.572 122.405 326.539 118.133 327.858 113.965C328.58 111.383 329.144 108.76 329.546 106.109C330.306 101.448 331.819 96.9486 333.331 92.4754L335.928 84.8081C336.48 83.1526 337.038 81.5036 337.694 79.887C338.915 76.8681 340.486 73.9271 340.901 70.707C341.362 67.1947 337.571 63.0266 338.85 59.7286C338.953 59.365 339.518 58.8846 339.81 59.1183Z" fill="#3F3D56"/>
<path d="M372.544 80.4128C374.343 81.2244 375.336 83.1591 375.979 85.0288C377.428 89.2427 377.776 93.7568 376.992 98.1432C376.738 99.2458 376.564 100.365 376.472 101.493C376.486 102.8 376.614 104.104 376.855 105.388C377.504 110.355 376.855 115.4 377.069 120.412C377.29 126.047 378.517 132 376.154 137.123C374.583 140.525 371.609 143.056 368.675 145.355C357.75 153.869 345.696 160.826 332.857 166.026C335.071 163.364 335.11 159.359 333.636 156.223C332.163 153.087 329.423 150.73 326.495 148.9C330.222 148.071 333.831 146.782 337.24 145.063C344.043 141.609 349.873 136.551 355.632 131.546C356.482 130.935 357.143 130.098 357.541 129.131C358.125 127.183 356.515 125.333 355.398 123.625C352.016 118.431 352.801 111.647 354.217 105.635C355.794 99.0456 358.112 92.4819 362.339 87.1843C364.974 83.8732 368.415 81.3282 372.544 80.4128Z" fill="#3F3D56"/>
<path d="M332.286 166.188C331.702 167.14 330.945 167.972 330.053 168.642C328.105 169.941 325.43 169.447 323.255 168.526C321.234 167.668 319.369 166.481 317.737 165.013C317.035 164.267 316.206 163.652 315.289 163.195C313.588 162.546 311.212 163.033 310.258 161.468C310.147 161.304 310.092 161.108 310.102 160.91C310.16 160.345 310.9 160.19 311.472 160.157C314.122 159.982 316.695 159.188 318.983 157.839C318.252 157.311 317.627 156.65 317.14 155.892C316.937 155.627 316.828 155.303 316.828 154.97C316.907 154.608 317.106 154.283 317.393 154.048C319.48 152.078 322.105 150.775 324.936 150.303C327.766 149.831 330.673 150.213 333.286 151.399C333.796 151.605 334.243 151.941 334.584 152.373C334.825 152.771 334.985 153.212 335.058 153.671C335.48 155.489 337.006 158.216 336.454 160.053C335.844 162.163 333.539 164.403 332.286 166.188Z" fill="#FBBEBE"/>
<path d="M288.015 158.002C296.092 148.672 299.701 136.395 303.051 124.521L305.447 116.081L311.225 95.7541C312.076 92.7546 312.926 89.7552 313.491 86.6974C314.458 81.4192 314.549 76.0241 314.491 70.6615C314.408 68.4385 313.899 66.252 312.991 64.2212C312.426 62.8189 312.153 61.3257 311.692 59.8779C311.106 57.8595 310.229 55.9372 309.089 54.1713C308.772 53.6462 308.375 53.1732 307.914 52.7689C307.115 52.226 306.21 51.8586 305.259 51.6912C303.195 51.0775 301.056 50.752 298.903 50.7239C296.747 50.8018 294.527 51.5484 293.138 53.1844C292.079 54.4374 291.592 56.0605 290.755 57.4693C290.365 58.0461 290.012 58.6468 289.697 59.2677C289.34 60.2109 289.142 61.207 289.112 62.2151C288.775 66.3053 288.487 70.3997 288.249 74.4985C288.139 76.3617 288.041 78.238 288.113 80.1078C288.171 81.562 288.327 83.0098 288.483 84.4576L290.021 98.6366C290.378 101.967 290.125 105.083 290.424 108.42C291.151 116.477 289.418 124.534 287.639 132.442C286.788 136.201 285.912 140.012 284.094 143.414C282.49 146.426 280.088 149.484 280.724 152.84C280.945 154.009 281.536 155.1 281.627 156.281C281.582 157.013 281.655 157.747 281.841 158.456C282.106 158.938 282.517 159.324 283.016 159.557C283.514 159.791 284.073 159.86 284.613 159.755C285.899 159.529 287.085 158.918 288.015 158.002Z" fill="#3F3D56"/>
<path d="M289.002 120.665C289.249 122.528 289.061 124.417 289.151 126.294C289.355 128.71 289.79 131.101 290.45 133.435C291.099 136.032 291.93 138.94 294.222 140.382C294.797 140.68 295.346 141.026 295.864 141.414C296.12 141.615 296.308 141.89 296.403 142.201C296.498 142.512 296.496 142.844 296.397 143.154L294.611 142.855C294.814 143.01 294.982 143.206 295.103 143.43C295.225 143.654 295.298 143.901 295.317 144.156C295.337 144.41 295.302 144.665 295.216 144.905C295.13 145.146 294.995 145.365 294.818 145.549C294.641 145.733 294.428 145.877 294.192 145.973C293.955 146.069 293.701 146.114 293.447 146.104C293.192 146.095 292.942 146.032 292.713 145.92C292.484 145.808 292.281 145.648 292.118 145.452C292.186 146.037 292.131 146.63 291.956 147.192C291.866 147.468 291.693 147.709 291.46 147.884C291.228 148.058 290.948 148.156 290.658 148.166C290.321 148.114 290.002 147.98 289.729 147.776L285.068 144.887C283.671 144.135 282.51 143.012 281.711 141.641L279.673 138.57C279.223 137.978 278.867 137.322 278.615 136.623C277.855 134.026 279.978 131.143 278.874 128.696C278.543 128.092 278.154 127.523 277.712 126.995C275.355 123.749 275.505 119.334 275.764 115.309C275.849 113.952 276.096 112.342 277.323 111.751C278.296 111.277 279.465 111.699 280.367 112.29C281.27 112.881 282.068 113.66 283.094 114.01C283.743 114.231 284.458 114.257 285.107 114.491C286.016 114.809 286.86 116.049 287.47 116.782C288.333 117.908 288.864 119.253 289.002 120.665Z" fill="#FBBEBE"/>
<path d="M232.111 62.319C231.559 63.5848 230.785 64.7414 229.825 65.7339C229.343 66.2298 228.751 66.6057 228.097 66.8312C227.443 67.0567 226.745 67.1256 226.06 67.0323C224.619 66.7467 223.56 65.5586 222.606 64.4354C220.113 61.5074 217.588 58.5405 215.913 55.0736C213.355 49.7954 212.946 43.7706 212.575 37.9211C212.485 36.4149 212.407 34.8178 213.127 33.4999C214.043 31.8184 215.984 31.0264 217.776 30.3577L227.676 26.6571C228.283 26.3697 228.955 26.2466 229.624 26.3C231.176 26.5597 231.747 28.4295 232.169 29.9422C232.924 32.6605 234.179 35.2143 235.87 37.4732C238.09 40.4336 243.07 44.4199 240.226 48.1139C236.792 52.5417 234.61 57.32 232.111 62.319Z" fill="#BE6F72"/>
<path d="M244.777 45.4262C249.114 49.5034 250.581 55.8528 250.373 61.7932C250.166 67.7336 248.517 73.5247 247.575 79.3937C246.634 85.2626 246.445 91.5277 248.997 96.9227C249.873 98.773 251.068 100.487 251.678 102.441C252.19 104.373 252.363 106.378 252.191 108.369C252.181 110.467 251.78 112.545 251.01 114.497C249.627 117.562 246.783 119.691 244.063 121.639C238.512 125.651 232.851 129.728 226.333 131.825C221.918 133.247 217.243 133.714 212.621 133.967C209.491 134.217 206.344 134.128 203.233 133.701C197.792 132.794 192.792 130.147 188.983 126.157C188.319 125.514 187.772 124.761 187.366 123.93C186.969 122.85 186.778 121.705 186.801 120.554C186.645 116.291 186.671 112.028 186.879 107.765C186.998 103.702 187.558 99.6639 188.548 95.7216C189.788 91.1771 191.937 86.9182 193.566 82.4904C199.24 67.0973 198.669 49.5813 206.551 35.2075C208.252 32.1042 211.095 28.8386 214.601 29.332C215.275 29.3725 215.91 29.6644 216.38 30.15C216.783 30.7409 217.008 31.4348 217.029 32.1496C217.867 39.1353 219.055 46.3027 222.346 52.6067C223.645 55.0802 225.592 58.8457 228.585 59.5079C231.578 60.1701 233.344 57.3135 234.948 55.288C237.766 51.5735 241.072 48.2563 244.777 45.4262Z" fill="#E3E8F4"/>
<path d="M265.533 34.9152C266.417 35.3933 267.243 35.9728 267.993 36.6421C269.941 38.4859 270.655 41.31 270.642 43.9848C270.629 46.6596 269.993 49.2955 269.603 51.9443C268.558 59.0858 269.448 66.396 269.863 73.6284C269.99 74.7961 269.919 75.9768 269.655 77.1212C269.337 78.2119 268.681 79.1728 268.259 80.231C267.019 83.3603 267.954 86.931 267.227 90.2161C266.448 93.7154 263.78 96.8966 264.28 100.448C264.481 101.837 265.15 103.116 265.435 104.493C265.721 105.869 265.474 107.531 264.286 108.271C263.098 109.011 261.371 108.472 259.956 108.881C259.381 109.094 258.821 109.345 258.281 109.634C256.093 110.621 253.483 110.284 251.328 109.206C249.215 108.053 247.316 106.547 245.712 104.752C243.238 102.22 240.843 99.4481 239.758 96.0786C238.174 91.1964 239.583 85.8793 241.304 81.0361C243.024 76.1928 245.076 71.2977 244.77 66.1493C244.602 63.2668 243.693 60.4946 243.147 57.664C242.472 53.7421 242.231 49.7579 242.427 45.7832C242.511 42.8747 242.706 39.8752 243.959 37.2459C244.852 35.492 246.171 33.9903 247.796 32.8787C249.42 31.7671 251.298 31.081 253.256 30.8835C257.8 30.3901 261.696 32.7078 265.533 34.9152Z" fill="#3F3D56"/>
<path opacity="0.1" d="M253.256 97.6693C253.301 99.7467 253.674 101.804 254.359 103.765C255.522 101.117 255.658 98.1432 255.814 95.2606C256.463 85.334 258.664 75.9722 261.008 66.3572C259.3 67.6556 258.339 70.9017 257.521 72.8494C254.275 80.7035 252.818 89.1819 253.256 97.6693Z" fill="black"/>
<path d="M209.492 28.501C206.362 29.3255 203.649 31.1823 200.617 32.3963C197.468 33.6948 194.079 34.2466 190.775 35.0451C183.127 36.9019 175.446 40.3493 170.83 46.7312C167.428 51.4251 166.02 57.2226 163.689 62.5398C161.741 67 159.144 71.181 157.71 75.8229C155.833 81.8802 156.048 88.3724 156.508 94.6959C156.885 99.8897 157.456 105.142 159.813 109.745C161.047 112.16 162.747 114.322 163.981 116.737C165.461 119.639 166.24 122.84 167.474 125.826C168.707 128.813 170.519 131.799 173.382 133.357L178.121 130.585C185.191 126.449 192.261 122.307 199.111 117.815C205.083 113.919 211.108 109.446 214.289 103.045C217.107 97.3902 217.386 90.7811 216.659 84.5031C215.932 78.2251 214.27 72.0834 213.413 65.8249C212.321 57.9477 212.486 49.9473 213.9 42.1217C214.549 38.5899 216.276 34.9413 216.633 31.4225C217.029 27.6635 212.199 27.7868 209.492 28.501Z" fill="#3F3D56"/>
<path d="M180.192 131.708C183.821 135.142 189.041 136.142 193.579 138.2C196.951 139.766 199.987 141.971 202.519 144.693C203.915 146.225 205.265 148.309 204.564 150.256C203.973 151.931 202.162 152.788 200.5 153.412C198.435 154.191 196.131 154.879 194.073 154.093C192.865 153.632 191.891 152.71 190.781 152.055C188.061 150.438 184.633 150.432 181.841 148.938C177.907 146.835 175.946 142.206 172.246 139.706C170.22 138.343 167.422 137.226 167.214 134.792C167.205 133.911 167.391 133.04 167.76 132.24C168.506 130.254 169.779 123.43 172.622 123.612C175.719 123.813 177.887 130.065 180.192 131.708Z" fill="#FBBEBE"/>
<path d="M161.176 101.279C162.365 105.551 165.124 109.193 167.987 112.582C170.045 115.017 172.304 117.665 172.376 120.853C172.44 123.865 170.428 126.638 167.831 128.176C165.234 129.715 162.176 130.208 159.17 130.403C156.766 130.635 154.339 130.466 151.99 129.903C146.056 128.293 141.94 123.119 137.272 119.12C134.5 116.75 131.384 114.685 129.261 111.719C127.138 108.752 126.242 104.493 128.332 101.5C129.087 100.53 129.959 99.6572 130.929 98.9028C134.474 95.8287 137.498 92.2001 139.882 88.1582C140.843 86.5286 141.765 84.7627 143.381 83.7824C145.699 82.3736 148.672 83.0163 151.295 83.7045C154.145 84.4511 162.176 85.9118 162.735 89.5475C162.962 91.0407 161.112 93.3649 160.832 94.9685C160.477 97.0715 160.595 99.2271 161.176 101.279Z" fill="#FBBEBE"/>
<path d="M175.855 109.42C176.706 110.962 177.406 112.581 177.946 114.257C179.926 121.139 176.388 128.228 174.7 135.188C172.544 144.102 173.46 153.425 173.356 162.598C173.31 166.792 172.862 171.408 169.844 174.317C169.064 175.057 168.13 175.68 167.604 176.615C167.279 177.3 167.037 178.021 166.883 178.764C166.422 180.368 165.605 181.847 164.492 183.091C163.379 184.335 161.999 185.311 160.456 185.946C158.912 186.582 157.245 186.86 155.579 186.761C153.913 186.662 152.291 186.187 150.834 185.373C148.374 184.003 146.238 181.627 143.42 181.555C142.534 181.598 141.652 181.696 140.778 181.848C137.973 182.127 135.227 181.088 132.598 180.069C131.97 179.871 131.384 179.558 130.871 179.147C130.397 178.712 130.092 178.128 129.657 177.66C128.053 175.933 125.313 176.232 123.002 175.751C121.277 175.365 119.698 174.497 118.449 173.248C117.199 171.998 116.331 170.419 115.945 168.694C115.477 166.461 115.874 164.15 116.263 161.897L118.003 151.86C118.733 148.178 119.238 144.456 119.516 140.713C119.729 136.483 119.366 132.244 118.438 128.111C117.672 124.735 116.529 121.431 116.114 117.99C115.39 111.823 117.012 105.61 120.658 100.584C121.561 99.3442 122.742 98.1042 124.274 97.9873C125.514 97.8769 126.677 98.5391 127.754 99.1754C137.116 104.715 146.543 110.141 156.035 115.451C158.631 116.912 161.287 118.379 164.182 119.1C165.052 119.321 166.299 119.23 166.422 118.347C166.438 118.01 166.349 117.677 166.169 117.393C164.546 114.27 162.196 111.589 160.326 108.615C158.456 105.642 157.015 102.123 157.567 98.669C158.32 93.8907 162.76 90.729 166.39 94.475C170.46 98.7274 173.187 104.194 175.855 109.42Z" fill="black"/>
<path d="M146.783 170.012C154.398 170.499 162.183 171.019 169.233 173.94C171.499 174.875 173.901 176.083 176.284 175.505C177.47 175.144 178.573 174.553 179.53 173.765C182.465 171.612 185.239 169.247 187.827 166.688C187.567 165.266 185.639 165.072 184.198 165.085C180.684 165.106 177.217 164.272 174.096 162.657C173.07 162.04 171.982 161.533 170.85 161.144C167.766 160.293 164.624 161.916 161.527 162.709C156.943 163.877 152.113 163.195 147.432 162.507L134.798 160.644C133.623 160.475 132.299 160.339 131.364 161.066C130.739 161.656 130.311 162.425 130.137 163.267C128.592 168.461 129.332 168.896 134.474 169.22L146.783 170.012Z" fill="#FBBEBE"/>
<path opacity="0.1" d="M319.295 79.8741C330.769 79.8741 340.07 70.5727 340.07 59.0989C340.07 47.6251 330.769 38.3237 319.295 38.3237C307.821 38.3237 298.52 47.6251 298.52 59.0989C298.52 70.5727 307.821 79.8741 319.295 79.8741Z" fill="black"/>
<path d="M319.146 78.9717C330.619 78.9717 339.921 69.6704 339.921 58.1966C339.921 46.7227 330.619 37.4214 319.146 37.4214C307.672 37.4214 298.37 46.7227 298.37 58.1966C298.37 69.6704 307.672 78.9717 319.146 78.9717Z" fill="#FBBEBE"/>
<path d="M336.681 31.8185C338.343 32.8443 340.083 33.948 340.992 35.6749C341.481 36.8473 341.853 38.0651 342.102 39.3106C343.238 43.2059 346.264 46.5884 346.445 50.646C346.647 55.0932 343.31 58.9561 339.531 61.2868C338.669 61.9225 337.629 62.2721 336.558 62.2866C335.461 62.2152 334.513 61.527 333.506 61.0855C329.241 59.1898 324.469 61.5919 319.951 62.6956C315.255 63.8296 310.328 63.5403 305.798 61.8646C303.363 60.9557 301 59.5923 299.474 57.4824C297.948 55.3724 297.403 52.4184 298.702 50.1526C299.351 48.997 300.429 47.9517 300.357 46.6338C300.318 45.8418 299.851 45.1276 299.708 44.3486C299.5 43.1085 300.149 41.901 300.812 40.8427C303.816 36.0076 307.613 31.7125 312.043 28.1374C313.342 27.0727 314.841 26.0339 316.542 25.956C319.957 25.8067 322.892 28.3517 326.404 28.3647C330.39 28.3776 333.253 29.7021 336.681 31.8185Z" fill="#3F3D56"/>
<path opacity="0.1" d="M242.667 53.8078C254.499 53.8078 264.091 44.2158 264.091 32.3834C264.091 20.551 254.499 10.959 242.667 10.959C230.835 10.959 221.243 20.551 221.243 32.3834C221.243 44.2158 230.835 53.8078 242.667 53.8078Z" fill="black"/>
<path d="M243.044 53.2819C254.876 53.2819 264.468 43.6899 264.468 31.8575C264.468 20.0251 254.876 10.4331 243.044 10.4331C231.211 10.4331 221.619 20.0251 221.619 31.8575C221.619 43.6899 231.211 53.2819 243.044 53.2819Z" fill="#BE6F72"/>
<path d="M254.489 43.959C257.515 45.6535 261.248 45.4782 264.624 44.7056C266.538 44.3458 268.354 43.5798 269.947 42.4593C270.739 41.8937 271.392 41.1557 271.856 40.3009C272.321 39.4462 272.585 38.497 272.629 37.5252C272.629 35.3503 271.2 33.3896 271.025 31.2147C270.811 28.475 272.596 25.943 272.785 23.1903C272.973 20.4376 271.616 17.9576 270.291 15.5944C268.013 11.5368 265.643 7.42717 262.176 4.32388C258.709 1.22058 253.905 -0.759551 249.36 0.2857C247.127 0.798587 245.056 1.99965 242.777 2.23337C240.752 2.42165 238.752 1.81138 236.733 1.55169C234.714 1.292 232.448 1.4543 231 2.85014C230.208 3.62921 229.702 4.72639 228.774 5.29771C228.144 5.58809 227.493 5.82903 226.826 6.01835C224.482 6.95973 223.411 9.60207 222.58 11.9782L217.01 27.9426C218.873 29.2411 221.119 29.8319 223.158 30.8317C225.196 31.8315 227.176 33.4286 227.592 35.6619C227.91 37.3564 227.306 39.3041 228.293 40.7194C229.196 42.0178 231.033 42.2386 232.591 42.0178C234.149 41.7971 235.714 41.2582 237.272 41.4985C241.167 42.0892 242.615 44.4784 246.218 41.4985C249.821 38.5185 251.139 42.0763 254.489 43.959Z" fill="#3F3D56"/>
<path opacity="0.1" d="M151.996 99.6495C162.753 99.6495 171.473 90.9295 171.473 80.1728C171.473 69.4161 162.753 60.696 151.996 60.696C141.24 60.696 132.52 69.4161 132.52 80.1728C132.52 90.9295 141.24 99.6495 151.996 99.6495Z" fill="black"/>
<path d="M152.749 98.5911C163.506 98.5911 172.226 89.8711 172.226 79.1144C172.226 68.3577 163.506 59.6377 152.749 59.6377C141.993 59.6377 133.273 68.3577 133.273 79.1144C133.273 89.8711 141.993 98.5911 152.749 98.5911Z" fill="#FBBEBE"/>
<path d="M167.662 60.0726C163.025 56.515 157.815 53.7749 152.256 51.9703C148.698 50.8146 144.829 50.0226 141.219 51.0873C136.324 52.4831 129.773 54.5672 126.742 58.6638C125.248 60.6764 123.736 62.7474 123.015 65.156C121.574 69.9992 123.625 75.1605 123.489 80.2115C123.327 86.1 120.204 91.4756 116.795 96.2798C113.387 101.084 112.699 107.966 110.686 113.51C109.998 115.412 109.777 118.055 111.55 119.009C113.108 119.873 114.991 118.795 116.432 117.756L125.099 111.491C125.773 110.937 126.549 110.523 127.384 110.271C129.17 109.855 130.916 110.972 132.409 112.03L150.588 124.885C150.947 124.151 151.141 123.348 151.155 122.531C151.17 121.714 151.005 120.904 150.672 120.158C152.379 120.684 153.619 122.106 155.119 123.119C156.619 124.132 158.898 124.463 159.988 123.047C161.079 121.632 160.255 119.73 159.04 118.587C157.826 117.445 156.229 116.763 155.041 115.588C152.685 113.244 152.444 109.543 150.958 106.583C149.893 104.505 148.172 102.766 147.419 100.552C146.192 96.9355 147.796 93.0402 149.367 89.5603C151.243 85.4313 153.366 81.023 157.359 78.8676C158.703 78.1405 160.19 77.712 161.566 77.0498C164.994 75.4073 169.272 71.5314 170.947 68.058C172.414 64.9742 170.155 61.9943 167.662 60.0726Z" fill="#3F3D56"/>
<path opacity="0.1" d="M138.181 124.437C140.044 125.625 142.148 126.384 143.978 127.624C145.809 128.864 147.413 130.747 147.465 132.955C147.517 135.065 146.166 136.915 144.868 138.59L129.053 159.346L137.116 161.482C135.818 163.273 135.487 165.559 134.811 167.662C134.136 169.766 132.864 171.953 130.708 172.505C128.761 173.005 126.722 171.979 124.709 172.096C123.223 172.187 121.82 172.888 120.334 172.947C118.418 173.018 116.64 172.012 115.043 170.947C111.485 168.565 107.953 165.15 107.979 160.865C108.063 159.416 108.354 157.986 108.842 156.619C111.173 149.016 113.588 141.232 118.418 134.909C121.015 131.533 124.19 128.683 127.365 125.852C128.087 125.125 128.936 124.538 129.871 124.119C131.948 123.34 134.214 124.3 136.363 124.924C138.512 125.547 141.219 125.638 142.459 123.801" fill="black"/>
<path d="M137.499 123.158C139.362 124.339 141.466 125.105 143.297 126.345C145.128 127.585 146.731 129.468 146.79 131.669C146.848 133.87 145.491 135.636 144.193 137.311L128.371 158.047L136.434 160.183C135.136 161.975 134.805 164.254 134.13 166.364C133.455 168.474 132.182 170.655 130.027 171.207C128.079 171.707 126.04 170.681 124.028 170.798C122.541 170.882 121.139 171.59 119.652 171.642C117.737 171.713 115.958 170.707 114.361 169.642C110.803 167.266 107.271 163.845 107.304 159.566C107.382 158.117 107.67 156.686 108.161 155.32C110.491 147.711 112.907 139.927 117.737 133.61C120.334 130.228 123.515 127.378 126.683 124.521C127.408 123.798 128.257 123.211 129.189 122.788C131.267 122.009 133.532 122.969 135.681 123.599C137.83 124.229 140.538 124.313 141.778 122.476" fill="black"/>
<g opacity="0.1">
<path opacity="0.1" d="M300.149 53.1779C301.675 55.2879 304.045 56.6578 306.473 57.5602C311.002 59.2425 315.931 59.5319 320.626 58.3912C325.17 57.2875 329.916 54.8854 334.182 56.7811C335.188 57.2291 336.129 57.9108 337.227 57.9887C338.3 57.9693 339.341 57.6177 340.206 56.9824C342.836 55.3593 345.251 52.9961 346.407 50.211C346.407 50.3538 346.407 50.4966 346.445 50.646C346.647 55.0931 343.31 58.956 339.531 61.2867C338.669 61.9224 337.629 62.272 336.558 62.2865C335.461 62.2151 334.513 61.5269 333.506 61.0855C329.241 59.1897 324.469 61.5919 319.951 62.6956C315.255 63.8295 310.328 63.5402 305.798 61.8645C303.363 60.9556 301 59.5923 299.474 57.4823C297.948 55.3723 297.403 52.4183 298.702 50.1525L298.799 49.9902C299.009 51.1392 299.47 52.2276 300.149 53.1779Z" fill="black"/>
<path opacity="0.1" d="M301.013 42.3294C301.065 43.3292 300.461 44.1667 299.883 45.0171C299.803 44.8063 299.74 44.5891 299.695 44.3679C299.5 43.2058 300.058 42.0762 300.675 41.0569C300.852 41.4613 300.966 41.8904 301.013 42.3294Z" fill="black"/>
</g>
<path opacity="0.1" d="M224.099 9.86178L218.529 25.8197C220.392 27.1182 222.638 27.7154 224.677 28.7088C226.716 29.7021 228.696 31.3057 229.111 33.539C229.429 35.2335 228.826 37.1811 229.812 38.6029C230.715 39.9014 232.552 40.1156 234.11 39.9014C235.668 39.6871 237.233 39.1418 238.791 39.382C242.687 39.9728 244.134 42.3619 247.737 39.4145C251.341 36.467 252.646 39.9663 255.996 41.8491C259.021 43.55 262.754 43.3747 266.13 42.5957C268.044 42.2378 269.859 41.4741 271.454 40.3558C271.68 40.1705 271.897 39.9733 272.103 39.765C271.606 40.8291 270.857 41.756 269.921 42.4658C268.328 43.5863 266.512 44.3523 264.598 44.7121C261.222 45.4847 257.456 45.66 254.463 43.9655C251.113 42.0828 249.737 38.6484 246.205 41.5309C242.674 44.4135 241.141 42.0893 237.259 41.5309C235.701 41.2907 234.143 41.8296 232.578 42.0503C231.013 42.2711 229.183 42.0503 228.28 40.7519C227.293 39.3366 227.897 37.3889 227.579 35.6944C227.164 33.4611 225.183 31.8575 223.145 30.8642C221.106 29.8709 218.86 29.2671 216.997 27.9751L222.593 11.9718C223.242 10.2124 223.956 8.31013 225.255 7.05713C224.805 7.96404 224.419 8.90119 224.099 9.86178Z" fill="black"/>
<g opacity="0.1">
<path opacity="0.1" d="M152.12 120.86C153.554 121.509 155.366 121.606 156.275 120.392C157.294 119.094 156.541 117.081 155.327 115.932C154.113 114.783 152.516 114.108 151.328 112.933C148.971 110.595 148.731 106.895 147.244 103.934C146.179 101.85 144.459 100.11 143.706 97.8966C142.479 94.2869 144.082 90.3851 145.653 86.9117C147.53 82.7827 149.653 78.3744 153.645 76.219C154.989 75.4919 156.476 75.0634 157.852 74.4012C161.28 72.7586 165.559 68.8763 167.234 65.4029C168.642 62.4749 166.656 59.6313 164.293 57.7031C165.442 58.4497 166.565 59.2353 167.656 60.0728C170.155 62.0205 172.408 64.9744 170.902 68.0453C169.227 71.5186 164.948 75.3945 161.52 77.037C160.144 77.6862 158.657 78.1277 157.313 78.8549C153.321 81.0103 151.198 85.4185 149.322 89.5476C147.744 93.0274 146.14 96.9228 147.374 100.539C148.127 102.753 149.847 104.493 150.912 106.57C152.418 109.531 152.639 113.231 154.996 115.575C156.184 116.75 157.781 117.425 158.995 118.574C160.209 119.724 160.943 121.71 159.943 123.035C158.943 124.359 156.567 124.086 155.074 123.106C154.067 122.424 153.152 121.528 152.12 120.86Z" fill="black"/>
<path opacity="0.1" d="M112.744 115.101L121.411 108.843C122.085 108.287 122.861 107.87 123.697 107.616C125.482 107.207 127.228 108.323 128.722 109.381L146.9 122.236C147.259 121.501 147.453 120.697 147.468 119.879C147.482 119.061 147.317 118.25 146.984 117.503C148.653 118.023 149.867 119.412 151.315 120.386C151.104 120.29 150.887 120.21 150.665 120.146C150.998 120.891 151.163 121.701 151.149 122.518C151.134 123.335 150.94 124.138 150.581 124.872L132.403 112.017C130.91 110.959 129.157 109.842 127.378 110.258C126.543 110.51 125.766 110.925 125.092 111.478L116.425 117.743C114.984 118.782 113.101 119.86 111.543 118.996C111.117 118.735 110.767 118.365 110.529 117.925C110.291 117.485 110.173 116.991 110.186 116.49C111.106 116.163 111.969 115.694 112.744 115.101Z" fill="black"/>
</g>
<path d="M329.28 157.502C329.28 157.502 292.08 160.482 284.678 155.21L318.711 149.964L329.28 157.502Z" fill="#E3E8F4"/>
<path opacity="0.1" d="M329.28 157.502C329.28 157.502 292.08 160.482 284.678 155.21L318.711 149.964L329.28 157.502Z" fill="black"/>
<path d="M329.28 157.502L318.86 150.906C318.86 150.906 287.775 159.839 279.257 156.151L287.924 143.991L318.724 149.997L329.28 157.502Z" fill="#E3E8F4"/>
<path d="M283.055 70.0384C281.906 71.4899 280.985 73.1076 280.322 74.8362C280.023 75.7516 279.874 76.7059 279.621 77.6343C278.908 79.9463 277.811 82.1214 276.375 84.0681C273.174 88.7231 269.175 93.2157 268.37 98.8055C267.98 101.565 268.409 104.369 268.954 107.103C269.249 108.905 269.764 110.664 270.486 112.342C271.311 114.121 272.538 115.685 273.479 117.406C274.339 119.095 275.064 120.849 275.648 122.652C276.758 121.541 277.414 120.055 278.303 118.756C279.192 117.458 280.517 116.289 282.081 116.27C283.886 116.27 285.373 117.763 287.158 117.997C287.437 118.053 287.726 118.026 287.989 117.919C288.639 117.614 288.691 116.737 288.639 116.036C288.126 111.134 285.321 106.298 286.645 101.545C287.866 97.15 292.229 94.4038 294.521 90.463C296.183 87.5999 296.676 84.2239 297.117 80.9389C297.669 77.0111 298.228 73.0508 297.981 69.097C297.858 67.1039 296.273 54.509 293.378 55.8269C292.372 56.2813 291.495 58.2095 290.865 59.073L288.269 62.7541L283.055 70.0384Z" fill="#3F3D56"/>
<path d="M205.35 151.289L184.464 168.292L157.593 163.488L175.687 149.283L205.35 151.289Z" fill="#E3E8F4"/>
<path opacity="0.1" d="M206.103 150.23L185.217 167.234L158.346 162.429L176.44 148.224L206.103 150.23Z" fill="black"/>
<path d="M205.953 149.328L185.068 166.325L158.19 161.527L176.29 147.315L205.953 149.328Z" fill="#E3E8F4"/>
<path opacity="0.1" d="M206.557 147.361L185.665 164.364L158.794 159.56L176.894 145.355L206.557 147.361Z" fill="black"/>
<path d="M206.401 146.458L185.516 163.462L158.644 158.657L176.738 144.452L206.401 146.458Z" fill="#E3E8F4"/>
<path d="M481.134 378.783C481.626 378.544 482.17 378.428 482.717 378.446C483.264 378.465 483.799 378.616 484.275 378.888C484.75 379.16 485.152 379.544 485.445 380.007C485.738 380.469 485.914 380.997 485.957 381.543L487.119 396.611L480.225 397.858L476.589 386.964L481.134 378.783Z" fill="#3F3D56"/>
<path d="M239.914 277.784L134.396 331.332C133.186 331.949 132.171 332.89 131.463 334.05C130.756 335.21 130.385 336.543 130.39 337.901C130.395 339.26 130.777 340.59 131.494 341.745C132.21 342.899 133.233 343.832 134.448 344.439L361.709 458.489C365.752 460.513 370.231 461.513 374.752 461.4C379.272 461.287 383.695 460.064 387.632 457.839L483.354 403.863C484.515 403.2 485.473 402.233 486.125 401.066C486.777 399.899 487.098 398.576 487.054 397.239C487.009 395.903 486.6 394.605 485.871 393.484C485.143 392.363 484.122 391.462 482.919 390.878L246.4 277.712C245.386 277.227 244.273 276.98 243.149 276.993C242.024 277.005 240.918 277.276 239.914 277.784Z" fill="#3F3D56"/>
<path d="M133.688 322.015L130.384 324.469L130.124 336.22C130.103 337.136 130.34 338.04 130.809 338.827C131.277 339.615 131.958 340.255 132.773 340.674L363.916 459.287C364.441 459.558 365.026 459.689 365.616 459.668C366.206 459.647 366.78 459.475 367.284 459.168C367.788 458.86 368.205 458.429 368.494 457.914C368.783 457.4 368.935 456.819 368.935 456.229V439.161L133.688 322.015Z" fill="#3F3D56"/>
<path d="M239.914 264.163L134.396 317.704C133.185 318.32 132.168 319.259 131.459 320.418C130.75 321.577 130.377 322.91 130.38 324.268C130.384 325.627 130.764 326.958 131.478 328.113C132.193 329.268 133.214 330.203 134.428 330.812L361.709 444.861C365.752 446.885 370.231 447.883 374.751 447.77C379.272 447.657 383.695 446.435 387.632 444.212L483.354 390.229C484.515 389.567 485.473 388.6 486.125 387.432C486.777 386.265 487.098 384.942 487.054 383.606C487.009 382.27 486.6 380.971 485.871 379.85C485.143 378.729 484.122 377.828 482.919 377.245L246.4 264.085C245.385 263.6 244.273 263.355 243.148 263.369C242.024 263.382 240.917 263.654 239.914 264.163Z" fill="#E3E8F4"/>
<path d="M261.754 273.882L145.491 332.916L345.316 432.831L465.215 371.973L261.754 273.882Z" fill="#3F3D56"/>
<path d="M418.438 414.666C425.211 414.666 430.702 411.413 430.702 407.401C430.702 403.389 425.211 400.136 418.438 400.136C411.665 400.136 406.174 403.389 406.174 407.401C406.174 411.413 411.665 414.666 418.438 414.666Z" fill="#3F3D56"/>
<path d="M194.767 293.865C195.395 293.865 195.903 293.356 195.903 292.729C195.903 292.101 195.395 291.593 194.767 291.593C194.14 291.593 193.631 292.101 193.631 292.729C193.631 293.356 194.14 293.865 194.767 293.865Z" fill="#3F3D56"/>
<path d="M191.365 302.947C192.118 302.947 192.729 302.337 192.729 301.584C192.729 300.831 192.118 300.221 191.365 300.221C190.612 300.221 190.002 300.831 190.002 301.584C190.002 302.337 190.612 302.947 191.365 302.947Z" fill="#3F3D56"/>
<path d="M196.358 299.312L209.985 292.956" stroke="#3F3D56" stroke-miterlimit="10"/>
<path d="M317.075 328.863L278.606 351.073C273.017 354.3 271.102 361.447 274.329 367.037C277.556 372.626 284.703 374.541 290.292 371.314L328.761 349.104C334.351 345.877 336.266 338.73 333.039 333.141C329.812 327.551 322.665 325.636 317.075 328.863Z" fill="url(#paint21_linear)"/>
<path d="M351.484 346.394L313.015 368.604C307.426 371.831 305.511 378.978 308.738 384.567C311.965 390.157 319.112 392.072 324.701 388.845L363.17 366.635C368.759 363.408 370.674 356.261 367.447 350.671C364.22 345.082 357.073 343.167 351.484 346.394Z" fill="url(#paint22_linear)"/>
<path d="M285.913 308.739L247.444 330.949C241.855 334.176 239.94 341.324 243.167 346.913C246.394 352.502 253.541 354.417 259.13 351.19L297.599 328.98C303.188 325.753 305.103 318.606 301.876 313.017C298.649 307.428 291.502 305.512 285.913 308.739Z" fill="url(#paint23_linear)"/>
</g>
<defs>
<linearGradient id="paint0_linear" x1="310.904" y1="192.351" x2="310.904" y2="531.649" gradientUnits="userSpaceOnUse">
<stop stop-color="#31B1F4"/>
<stop offset="1" stop-color="#2F3B42"/>
</linearGradient>
<linearGradient id="paint1_linear" x1="567.714" y1="317.198" x2="567.714" y2="321.314" gradientUnits="userSpaceOnUse">
<stop stop-color="#31B1F4"/>
<stop offset="1" stop-color="#2F3B42"/>
</linearGradient>
<linearGradient id="paint2_linear" x1="510.238" y1="323.028" x2="510.238" y2="327.144" gradientUnits="userSpaceOnUse">
<stop stop-color="#31B1F4"/>
<stop offset="1" stop-color="#2F3B42"/>
</linearGradient>
<linearGradient id="paint3_linear" x1="442.537" y1="315.14" x2="442.537" y2="319.256" gradientUnits="userSpaceOnUse">
<stop stop-color="#31B1F4"/>
<stop offset="1" stop-color="#2F3B42"/>
</linearGradient>
<linearGradient id="paint4_linear" x1="533.24" y1="340.213" x2="533.24" y2="343.147" gradientUnits="userSpaceOnUse">
<stop stop-color="#31B1F4"/>
<stop offset="1" stop-color="#2F3B42"/>
</linearGradient>
<linearGradient id="paint5_linear" x1="473.59" y1="338.746" x2="473.59" y2="341.68" gradientUnits="userSpaceOnUse">
<stop stop-color="#31B1F4"/>
<stop offset="1" stop-color="#2F3B42"/>
</linearGradient>
<linearGradient id="paint6_linear" x1="482.197" y1="210.694" x2="482.197" y2="324.619" gradientUnits="userSpaceOnUse">
<stop stop-color="#31B1F4"/>
<stop offset="1" stop-color="#2F3B42"/>
</linearGradient>
<linearGradient id="paint7_linear" x1="492.172" y1="276.11" x2="492.172" y2="325.171" gradientUnits="userSpaceOnUse">
<stop stop-color="#31B1F4"/>
<stop offset="1" stop-color="#2F3B42"/>
</linearGradient>
<linearGradient id="paint8_linear" x1="528.63" y1="276.11" x2="528.63" y2="325.171" gradientUnits="userSpaceOnUse">
<stop stop-color="#31B1F4"/>
<stop offset="1" stop-color="#2F3B42"/>
</linearGradient>
<linearGradient id="paint9_linear" x1="473.778" y1="330.101" x2="473.778" y2="339.109" gradientUnits="userSpaceOnUse">
<stop stop-color="#31B1F4"/>
<stop offset="1" stop-color="#2F3B42"/>
</linearGradient>
<linearGradient id="paint10_linear" x1="567.704" y1="309.908" x2="567.704" y2="318.925" gradientUnits="userSpaceOnUse">
<stop stop-color="#31B1F4"/>
<stop offset="1" stop-color="#2F3B42"/>
</linearGradient>
<linearGradient id="paint11_linear" x1="536.412" y1="330.101" x2="536.412" y2="339.109" gradientUnits="userSpaceOnUse">
<stop stop-color="#31B1F4"/>
<stop offset="1" stop-color="#2F3B42"/>
</linearGradient>
<linearGradient id="paint12_linear" x1="442.071" y1="296.059" x2="442.071" y2="312.452" gradientUnits="userSpaceOnUse">
<stop stop-color="#31B1F4"/>
<stop offset="1" stop-color="#2F3B42"/>
</linearGradient>
<linearGradient id="paint13_linear" x1="451.672" y1="296.059" x2="451.672" y2="312.452" gradientUnits="userSpaceOnUse">
<stop stop-color="#31B1F4"/>
<stop offset="1" stop-color="#2F3B42"/>
</linearGradient>
<linearGradient id="paint14_linear" x1="83.7434" y1="25.2483" x2="83.7434" y2="53.3337" gradientUnits="userSpaceOnUse">
<stop stop-color="#31B1F4"/>
<stop offset="1" stop-color="#2F3B42"/>
</linearGradient>
<linearGradient id="paint15_linear" x1="326.625" y1="3.08374" x2="326.625" y2="31.1692" gradientUnits="userSpaceOnUse">
<stop stop-color="#31B1F4"/>
<stop offset="1" stop-color="#2F3B42"/>
</linearGradient>
<linearGradient id="paint16_linear" x1="549.406" y1="58.5601" x2="549.406" y2="86.6455" gradientUnits="userSpaceOnUse">
<stop stop-color="#31B1F4"/>
<stop offset="1" stop-color="#2F3B42"/>
</linearGradient>
<linearGradient id="paint17_linear" x1="23.5344" y1="144.517" x2="23.5344" y2="191.586" gradientUnits="userSpaceOnUse">
<stop stop-color="#31B1F4"/>
<stop offset="1" stop-color="#2F3B42"/>
</linearGradient>
<linearGradient id="paint18_linear" x1="46.0949" y1="260.729" x2="46.0949" y2="307.797" gradientUnits="userSpaceOnUse">
<stop stop-color="#31B1F4"/>
<stop offset="1" stop-color="#2F3B42"/>
</linearGradient>
<linearGradient id="paint19_linear" x1="486.866" y1="158.222" x2="486.866" y2="205.291" gradientUnits="userSpaceOnUse">
<stop stop-color="#31B1F4"/>
<stop offset="1" stop-color="#2F3B42"/>
</linearGradient>
<linearGradient id="paint20_linear" x1="316.667" y1="57.2444" x2="316.667" y2="157.937" gradientUnits="userSpaceOnUse">
<stop stop-color="#31B1F4"/>
<stop offset="1" stop-color="#2F3B42"/>
</linearGradient>
<linearGradient id="paint21_linear" x1="297.841" y1="339.968" x2="309.527" y2="360.209" gradientUnits="userSpaceOnUse">
<stop stop-color="#31B1F4"/>
<stop offset="1" stop-color="#2F3B42"/>
</linearGradient>
<linearGradient id="paint22_linear" x1="332.249" y1="357.499" x2="343.935" y2="377.74" gradientUnits="userSpaceOnUse">
<stop stop-color="#31B1F4"/>
<stop offset="1" stop-color="#2F3B42"/>
</linearGradient>
<linearGradient id="paint23_linear" x1="266.679" y1="319.844" x2="278.365" y2="340.085" gradientUnits="userSpaceOnUse">
<stop stop-color="#31B1F4"/>
<stop offset="1" stop-color="#2F3B42"/>
</linearGradient>
<clipPath id="clip0">
<rect width="600" height="531.637" fill="white"/>
</clipPath>
</defs>
</svg>
