<svg width="200" height="200" viewBox="0 0 200 200" fill="none" xmlns="http://www.w3.org/2000/svg">
<path d="M100 171.024C142.833 171.024 177.556 168.997 177.556 166.496C177.556 163.996 142.833 161.968 100 161.968C57.167 161.968 22.444 163.996 22.444 166.496C22.444 168.997 57.167 171.024 100 171.024Z" fill="#F5F5F5"/>
<path d="M150.904 166.496H109.176C108.486 166.499 107.803 166.363 107.167 166.094C106.532 165.825 105.957 165.43 105.479 164.932C105.001 164.435 104.629 163.845 104.386 163.199C104.143 162.554 104.033 161.865 104.064 161.176L108.72 41.008C108.791 39.5849 109.402 38.2424 110.428 37.254C111.455 36.2656 112.819 35.7056 114.244 35.688H155.972C156.662 35.6852 157.345 35.8225 157.98 36.0915C158.616 36.3605 159.19 36.7557 159.667 37.2531C160.145 37.7505 160.517 38.3398 160.761 38.9853C161.004 39.6307 161.114 40.3189 161.084 41.008L156.428 161.176C156.357 162.599 155.746 163.942 154.72 164.93C153.693 165.918 152.329 166.478 150.904 166.496Z" fill="#263238"/>
<path d="M104.496 48.1082H104.096L104.376 40.9682C104.46 39.1836 105.223 37.4988 106.51 36.2595C107.797 35.0203 109.51 34.3206 111.296 34.3042V34.7042C109.613 34.7207 108 35.3804 106.788 36.5481C105.575 37.7157 104.856 39.3029 104.776 40.9842L104.496 48.1082Z" fill="url(#paint0_linear)"/>
<path d="M117.532 34.2881H114.132V34.6881H117.532V34.2881Z" fill="url(#paint1_linear)"/>
<path d="M147.956 166.496H106.228C105.538 166.499 104.855 166.363 104.219 166.094C103.584 165.825 103.009 165.43 102.531 164.932C102.053 164.435 101.681 163.845 101.438 163.199C101.195 162.554 101.085 161.865 101.116 161.176L105.772 41.008C105.843 39.5849 106.454 38.2424 107.48 37.254C108.507 36.2656 109.871 35.7056 111.296 35.688H153.024C153.714 35.6852 154.397 35.8225 155.032 36.0915C155.668 36.3605 156.242 36.7557 156.719 37.2531C157.197 37.7505 157.569 38.3398 157.813 38.9853C158.056 39.6307 158.166 40.3189 158.136 41.008L153.48 161.176C153.409 162.599 152.798 163.942 151.772 164.93C150.745 165.918 149.381 166.478 147.956 166.496Z" fill="url(#paint2_linear)"/>
<path opacity="0.8" d="M149.284 152.672H105.972C105.586 152.675 105.204 152.599 104.848 152.449C104.493 152.299 104.171 152.078 103.904 151.8C103.636 151.522 103.428 151.193 103.292 150.832C103.156 150.471 103.095 150.086 103.112 149.7L107.152 45.4443C107.191 44.6475 107.532 43.8956 108.107 43.3424C108.682 42.7892 109.446 42.4765 110.244 42.4683H153.552C153.938 42.4663 154.32 42.5428 154.676 42.6931C155.032 42.8434 155.353 43.0645 155.62 43.3428C155.888 43.6212 156.096 43.951 156.232 44.3122C156.368 44.6735 156.429 45.0587 156.412 45.4443L152.372 149.7C152.333 150.496 151.992 151.247 151.418 151.799C150.844 152.352 150.081 152.664 149.284 152.672Z" fill="white"/>
<path opacity="0.4" d="M130.896 152.672H120.096L138.312 42.4678H149.112L130.896 152.672Z" fill="white"/>
<path opacity="0.4" d="M118.196 152.672H112.796L131.012 42.4678H136.412L118.196 152.672Z" fill="white"/>
<path d="M137.844 120.448H116.548C115.564 120.448 114.784 119.372 114.74 117.956L114.136 98.184C114.088 96.556 115.024 95.144 116.156 95.144H140.156C141.288 95.144 142.116 96.556 141.944 98.184L139.84 117.956C139.688 119.372 138.824 120.448 137.844 120.448Z" fill="url(#paint3_linear)"/>
<path d="M137.844 121.2H116.548C115.144 121.2 114.048 119.812 113.992 117.98L113.388 98.208C113.33 97.0916 113.715 95.9975 114.46 95.164C114.676 94.9284 114.938 94.7389 115.23 94.607C115.521 94.475 115.836 94.4032 116.156 94.396H140.156C140.475 94.4036 140.788 94.4789 141.076 94.6168C141.364 94.7547 141.618 94.9521 141.824 95.196C142.171 95.6238 142.427 96.1181 142.575 96.6485C142.724 97.1789 142.762 97.7342 142.688 98.28L140.584 118.052C140.4 119.836 139.2 121.2 137.844 121.2ZM116.156 95.892C116.037 95.9013 115.921 95.934 115.815 95.9882C115.708 96.0425 115.614 96.1171 115.536 96.208C115.074 96.7499 114.841 97.4495 114.884 98.16L115.488 117.932C115.516 118.908 115.992 119.7 116.548 119.7H137.844C138.352 119.7 138.98 118.968 139.096 117.876L141.2 98.104C141.25 97.7676 141.233 97.4245 141.149 97.0949C141.065 96.7652 140.917 96.4556 140.712 96.184C140.646 96.0975 140.563 96.0265 140.467 95.9761C140.37 95.9256 140.264 95.8969 140.156 95.892H116.156Z" fill="url(#paint4_linear)"/>
<path d="M139.84 118.704H139.76C139.662 118.694 139.568 118.664 139.481 118.617C139.395 118.57 139.319 118.506 139.257 118.43C139.196 118.353 139.15 118.266 139.122 118.171C139.094 118.077 139.085 117.978 139.096 117.88L141.408 96.1484C141.768 92.7524 143.908 90.1924 146.384 90.1924H148C148.198 90.1924 148.389 90.2712 148.529 90.4115C148.669 90.5517 148.748 90.742 148.748 90.9404C148.748 91.1388 148.669 91.329 148.529 91.4693C148.389 91.6096 148.198 91.6884 148 91.6884H146.4C144.72 91.6884 143.2 93.7164 142.912 96.3084L140.6 118.04C140.58 118.226 140.491 118.398 140.35 118.521C140.209 118.644 140.027 118.709 139.84 118.704Z" fill="url(#paint5_linear)"/>
<path d="M120.928 127.804C120.512 127.797 120.101 127.705 119.722 127.533C119.343 127.361 119.003 127.113 118.724 126.804C117.748 125.788 117.204 124.128 117.268 122.364C117.384 119.376 119.196 116.948 121.312 116.948C121.728 116.954 122.139 117.046 122.518 117.218C122.897 117.391 123.237 117.639 123.516 117.948C124.492 118.964 125.036 120.624 124.972 122.388C124.856 125.376 123.044 127.804 120.928 127.804ZM121.328 117.6C119.56 117.6 118.036 119.748 117.936 122.4C117.876 124 118.336 125.472 119.212 126.364C119.431 126.609 119.697 126.806 119.995 126.944C120.293 127.081 120.616 127.156 120.944 127.164C122.712 127.164 124.236 125.016 124.336 122.364C124.396 120.764 123.936 119.292 123.06 118.4C122.84 118.154 122.57 117.955 122.27 117.818C121.969 117.68 121.643 117.606 121.312 117.6H121.328Z" fill="url(#paint6_linear)"/>
<path d="M132.564 127.804C132.148 127.797 131.739 127.705 131.36 127.533C130.982 127.361 130.643 127.113 130.364 126.804C129.384 125.788 128.84 124.128 128.908 122.364C129.02 119.376 130.836 116.948 132.952 116.948C133.368 116.954 133.778 117.047 134.156 117.219C134.535 117.391 134.874 117.639 135.152 117.948C136.132 118.964 136.676 120.624 136.608 122.388C136.496 125.376 134.68 127.804 132.564 127.804ZM132.964 117.6C131.192 117.6 129.672 119.748 129.572 122.4C129.512 124 129.972 125.472 130.844 126.364C131.063 126.609 131.329 126.806 131.627 126.944C131.925 127.081 132.248 127.156 132.576 127.164C134.348 127.164 135.868 125.016 135.968 122.364C136.028 120.764 135.568 119.292 134.696 118.4C134.476 118.154 134.208 117.956 133.907 117.818C133.607 117.681 133.282 117.606 132.952 117.6H132.964Z" fill="url(#paint7_linear)"/>
<path d="M137.428 75.7016C137.932 68.7345 134.449 62.8049 129.647 62.4574C124.846 62.1098 120.545 67.476 120.041 74.4431C119.537 81.4102 123.02 87.3398 127.821 87.6873C132.622 88.0349 136.923 82.6687 137.428 75.7016Z" fill="url(#paint8_linear)"/>
<path d="M128.26 88.4602C127.238 88.4429 126.231 88.2157 125.3 87.7925C124.37 87.3693 123.537 86.7592 122.852 86.0002C120.452 83.4962 119.1 79.4002 119.252 75.0522C119.532 67.6882 123.996 61.7002 129.204 61.7002C130.226 61.7162 131.233 61.9426 132.164 62.3651C133.094 62.7877 133.928 63.3974 134.612 64.1562C137.012 66.6642 138.368 70.7562 138.212 75.1082C137.932 82.4682 133.468 88.4602 128.26 88.4602ZM129.2 63.2002C124.8 63.2002 120.992 68.5442 120.744 75.1122C120.592 79.0642 121.78 82.7482 123.916 84.9682C124.462 85.5796 125.128 86.0726 125.873 86.4165C126.617 86.7605 127.424 86.9483 128.244 86.9682C132.644 86.9682 136.452 81.6242 136.7 75.0562C136.852 71.1042 135.668 67.4202 133.532 65.2002C132.985 64.5883 132.318 64.0951 131.573 63.7511C130.828 63.4071 130.02 63.2196 129.2 63.2002Z" fill="white"/>
<path d="M122.8 74.8002C122.8 74.8002 126.12 78.0002 127.464 82.1122C128.624 78.9122 130.356 74.4282 134.48 69.4082C129.492 72.7202 127.592 76.8762 127.592 76.8762C126.202 75.7796 124.551 75.0641 122.8 74.8002Z" fill="white"/>
<path d="M127.244 162.772C126.891 162.769 126.543 162.694 126.221 162.55C125.899 162.406 125.61 162.197 125.372 161.936C124.993 161.512 124.702 161.016 124.517 160.477C124.333 159.938 124.257 159.368 124.296 158.8C124.384 156.616 125.836 154.84 127.536 154.84C127.889 154.844 128.237 154.921 128.559 155.066C128.881 155.21 129.17 155.419 129.408 155.68C129.785 156.103 130.074 156.597 130.258 157.132C130.442 157.668 130.518 158.235 130.48 158.8C130.4 160.996 128.944 162.772 127.244 162.772ZM127.536 155.264C126.06 155.264 124.796 156.864 124.736 158.816C124.699 159.327 124.765 159.84 124.929 160.325C125.093 160.81 125.352 161.257 125.692 161.64C125.89 161.86 126.132 162.036 126.402 162.158C126.672 162.28 126.964 162.345 127.26 162.348C128.736 162.348 130 160.748 130.06 158.8C130.097 158.289 130.032 157.775 129.867 157.29C129.703 156.804 129.444 156.356 129.104 155.972C128.906 155.753 128.664 155.576 128.394 155.454C128.124 155.333 127.832 155.268 127.536 155.264Z" fill="white"/>
<path d="M131.976 40.648C131.812 40.6438 131.651 40.6061 131.503 40.5374C131.354 40.4686 131.221 40.3701 131.112 40.248C130.944 40.0601 130.815 39.8405 130.734 39.6021C130.652 39.3638 130.619 39.1114 130.636 38.86C130.672 37.892 131.328 37.104 132.096 37.104C132.26 37.1082 132.421 37.1459 132.569 37.2146C132.718 37.2834 132.851 37.3819 132.96 37.504C133.129 37.6914 133.258 37.9109 133.341 38.1493C133.423 38.3877 133.457 38.6403 133.44 38.892C133.404 39.86 132.744 40.648 131.976 40.648ZM132.096 37.544C131.552 37.544 131.084 38.148 131.056 38.892C131.03 39.284 131.159 39.6705 131.416 39.968C131.487 40.047 131.573 40.1105 131.669 40.1546C131.766 40.1986 131.87 40.2223 131.976 40.224C132.52 40.224 132.988 39.62 133.016 38.876C133.044 38.4825 132.914 38.0941 132.656 37.796C132.585 37.7179 132.499 37.6553 132.402 37.6119C132.306 37.5686 132.202 37.5455 132.096 37.544Z" fill="white"/>
<path d="M75.48 49.7C70.9 49.088 68.424 51.864 69.728 56.9C70.956 61.644 68.58 61.012 68.128 65.504C67.676 69.996 71.38 70.18 72.584 73.8479C73.788 77.5159 80.44 81.6839 83.04 79.8039C85.64 77.9239 90.8 78.3559 91.272 72.1479C91.744 65.94 86.832 65.604 88.516 62.212C90.708 57.812 85.852 58.884 85.852 53.276C85.864 48.76 79.316 43.868 75.48 49.7Z" fill="#263238"/>
<path d="M69.716 73.5999C69.616 75.5159 69.44 77.3679 69.16 79.2519C68.915 81.1996 68.4878 83.12 67.884 84.9879C67.6967 85.5331 67.4583 86.0595 67.172 86.5599C66.9761 86.9 66.7353 87.2121 66.456 87.4879L66.316 87.6159L66.24 87.6759L66.196 87.7119L66.028 87.8279L65.696 88.0599C64.8502 88.6027 63.9604 89.0736 63.036 89.4679C61.2843 90.2368 59.4644 90.8394 57.6 91.2679L56.956 89.4959C58.536 88.6199 60.156 87.7239 61.636 86.7959C62.3588 86.3541 63.0535 85.8679 63.716 85.3399L63.932 85.1519L64.044 85.0599V85.0399C64.044 85.0399 64.088 84.9639 64.144 84.8479C64.2863 84.5303 64.4053 84.2028 64.5 83.8679C64.7271 83.0538 64.9061 82.227 65.036 81.3919C65.188 80.5279 65.312 79.6439 65.416 78.7519C65.62 76.9759 65.796 75.1519 65.932 73.3799L69.716 73.5999Z" fill="#FFB573"/>
<path d="M58.132 89.5363L55.076 88.5923L55.648 92.2883C55.648 92.2883 57.648 92.0403 58.612 90.9243L58.132 89.5363Z" fill="#FFB573"/>
<path d="M52.58 90.9723L52.748 91.4563C52.8448 91.7308 53.0273 91.967 53.2686 92.1298C53.5099 92.2926 53.7972 92.3734 54.088 92.3603L55.648 92.2883L55.076 88.5923L53.36 89.2643C53.0347 89.3933 52.7719 89.6431 52.6266 89.9614C52.4812 90.2798 52.4645 90.642 52.58 90.9723Z" fill="#FFB573"/>
<path d="M73.328 70.0282C73.328 71.1842 72.768 73.4602 72.292 75.1722C71.94 76.4042 71.644 77.3402 71.644 77.3402L70.944 77.1642L65.164 75.7002C65.072 72.7322 65.188 69.4682 68.14 67.5162C70 66.2922 73.312 67.9722 73.328 70.0282Z" fill="url(#paint9_linear)"/>
<g opacity="0.5">
<path opacity="0.5" d="M73.328 70.0282C73.328 71.1842 72.768 73.4602 72.292 75.1722C71.94 76.4042 71.644 77.3402 71.644 77.3402L70.944 77.1642L65.164 75.7002C65.072 72.7322 65.188 69.4682 68.14 67.5162C70 66.2922 73.312 67.9722 73.328 70.0282Z" fill="black"/>
</g>
<path opacity="0.3" d="M73.32 70.2278C72.944 69.8278 72.088 69.7598 70.224 70.3518C67.552 71.1958 66.804 74.1238 66.768 76.1078L70.944 77.1638L71.304 77.2558L71.644 77.3398C71.644 77.3398 71.792 76.8718 72 76.1598C72.084 75.8678 72.188 75.5318 72.288 75.1718C72.744 73.5558 73.272 71.4278 73.32 70.2278Z" fill="black"/>
<path d="M61.464 162.908L57.936 161.672L60.152 154.032L63.676 155.272L61.464 162.908Z" fill="#FFB573"/>
<path d="M108.592 153.856L105.724 155.992L99.848 150.036L102.716 147.896L108.592 153.856Z" fill="#FFB573"/>
<path d="M104.548 155.124L107.648 152.56C107.7 152.514 107.767 152.489 107.836 152.489C107.905 152.489 107.972 152.514 108.024 152.56L110.404 154.72C110.462 154.776 110.508 154.844 110.538 154.919C110.568 154.994 110.582 155.075 110.579 155.156C110.575 155.237 110.555 155.316 110.519 155.389C110.482 155.461 110.431 155.525 110.368 155.576C109.272 156.452 108.696 156.82 107.336 157.944C106.496 158.636 104.744 160.292 103.584 161.248C102.424 162.204 101.416 161.112 101.816 160.608C103.592 158.36 104.004 156.88 104.216 155.664C104.26 155.451 104.377 155.259 104.548 155.124Z" fill="#263238"/>
<path d="M57.696 160.572L61.616 162.208C61.6855 162.239 61.7431 162.292 61.7806 162.358C61.818 162.424 61.8332 162.501 61.824 162.576L61.38 166.032C61.3701 166.114 61.3412 166.192 61.2956 166.261C61.2501 166.329 61.1891 166.386 61.1176 166.427C61.0461 166.468 60.966 166.491 60.8838 166.496C60.8015 166.5 60.7194 166.485 60.644 166.452C59.256 165.888 58.604 165.608 56.884 164.888L51.6 162.688C50.168 162.088 50.476 160.516 51.124 160.632C54.024 161.156 55.892 160.984 57.036 160.552C57.2502 160.472 57.4871 160.48 57.696 160.572Z" fill="#263238"/>
<path opacity="0.2" d="M60.152 154.036L59.012 157.972L62.444 159.524L63.68 155.272L60.152 154.036Z" fill="black"/>
<path opacity="0.2" d="M102.72 147.896L99.848 150.036L102.876 153.108L105.748 150.968L102.72 147.896Z" fill="black"/>
<path d="M84.176 88.7079L69.644 88.9159C67.644 77.6679 67.184 72.2959 67.184 69.7159C67.1821 69.0723 67.4042 68.4481 67.8122 67.9504C68.2201 67.4526 68.7886 67.1124 69.42 66.9879C70.308 66.8159 71.42 66.6159 72.52 66.4639C72.9 66.4119 73.284 66.3639 73.66 66.3239C75.8535 66.1337 78.0579 66.1016 80.256 66.2279C80.584 66.2279 80.908 66.2559 81.232 66.2759C82.704 66.3719 84.088 66.5599 85.06 66.7119C85.2391 66.7404 85.4106 66.8052 85.5638 66.9023C85.717 66.9994 85.8487 67.1267 85.951 67.2765C86.0532 67.4263 86.1238 67.5954 86.1583 67.7735C86.1929 67.9515 86.1908 68.1347 86.152 68.3119C85.728 70.3119 85.38 72.0679 85.1 73.6399C84.656 76.1399 84.376 78.1599 84.212 79.9319C83.9658 82.8516 83.9538 85.7863 84.176 88.7079Z" fill="url(#paint10_linear)"/>
<g opacity="0.5">
<path opacity="0.5" d="M84.176 88.7079L69.644 88.9159C67.644 77.6679 67.184 72.2959 67.184 69.7159C67.1821 69.0723 67.4042 68.4481 67.8122 67.9504C68.2201 67.4526 68.7886 67.1124 69.42 66.9879C70.308 66.8159 71.42 66.6159 72.52 66.4639C72.9 66.4119 73.284 66.3639 73.66 66.3239C75.8535 66.1337 78.0579 66.1016 80.256 66.2279C80.584 66.2279 80.908 66.2559 81.232 66.2759C82.704 66.3719 84.088 66.5599 85.06 66.7119C85.2391 66.7404 85.4106 66.8052 85.5638 66.9023C85.717 66.9994 85.8487 67.1267 85.951 67.2765C86.0532 67.4263 86.1238 67.5954 86.1583 67.7735C86.1929 67.9515 86.1908 68.1347 86.152 68.3119C85.728 70.3119 85.38 72.0679 85.1 73.6399C84.656 76.1399 84.376 78.1599 84.212 79.9319C83.9658 82.8516 83.9538 85.7863 84.176 88.7079Z" fill="black"/>
</g>
<path opacity="0.3" d="M84.212 79.9441C83.48 77.7521 83.52 73.2001 84.308 71.7241L85.108 73.6521C84.656 76.1521 84.376 78.1721 84.212 79.9441Z" fill="black"/>
<path d="M79.172 61.7361C79.104 63.5201 79.316 65.3721 80.26 66.2441C80.26 66.2441 78.7 68.2801 75.028 70.2801C73.084 68.4081 73.66 66.3401 73.66 66.3401C76.02 65.7401 76.06 64.1681 75.368 61.5601L77.24 60.8001C77.4121 60.6484 77.6251 60.551 77.8523 60.52C78.0795 60.489 78.3108 60.5258 78.5172 60.6257C78.7236 60.7257 78.8959 60.8845 79.0123 61.082C79.1288 61.2795 79.1844 61.5071 79.172 61.7361Z" fill="#FFB573"/>
<path opacity="0.2" d="M77.244 60.7998C77.4052 60.6591 77.602 60.5656 77.8128 60.5294C78.0236 60.4933 78.2403 60.5159 78.4391 60.5949C78.6379 60.6738 78.8111 60.806 78.9397 60.9769C79.0683 61.1479 79.1473 61.3509 79.168 61.5638C78.3425 62.8372 77.1357 63.8172 75.72 64.3638C75.7791 63.4088 75.6597 62.4511 75.368 61.5398L77.244 60.7998Z" fill="black"/>
<path d="M82.552 56.496C81.288 59.816 80.82 61.244 78.552 62.448C75.164 64.256 71.352 61.976 71.616 58.344C71.84 55.076 73.872 50.2 77.616 49.888C78.4395 49.8142 79.2682 49.9524 80.0232 50.2895C80.7781 50.6266 81.4343 51.1514 81.9291 51.8138C82.4239 52.4762 82.7409 53.2542 82.8499 54.0738C82.959 54.8934 82.8564 55.7272 82.552 56.496Z" fill="#FFB573"/>
<path d="M76.196 49.8717C73.84 53.1957 80.596 52.3797 80.26 54.7237C80.064 56.1477 78.032 58.7997 81.6 59.2957C85.168 59.7917 86.052 53.9677 84.216 51.7797C82.38 49.5917 78.512 48.1717 76.196 49.8717Z" fill="#263238"/>
<path d="M76.944 49.7718C76.456 50.9718 73.86 52.6158 72.912 52.3118C73.2 50.8758 75.62 49.5118 76.944 49.7718Z" fill="#263238"/>
<path d="M82.336 59.884C81.9782 60.4704 81.4031 60.8917 80.736 61.056C79.848 61.264 79.444 60.464 79.72 59.644C79.968 58.912 80.732 57.916 81.604 58.072C81.7948 58.1088 81.9733 58.1927 82.1233 58.3162C82.2733 58.4397 82.39 58.5988 82.4628 58.7789C82.5356 58.9591 82.5621 59.1545 82.5399 59.3476C82.5178 59.5406 82.4477 59.725 82.336 59.884Z" fill="#FFB573"/>
<path d="M69.644 88.9158C69.644 88.9158 67.184 110.068 64.916 123.236C63.14 133.552 58.652 155.032 58.652 155.032L64.476 157.096C64.476 157.096 71.148 134.696 72.316 125.144C77.02 111.36 80.4 88.7998 80.4 88.7998L69.644 88.9158Z" fill="url(#paint11_linear)"/>
<path d="M57.704 156.484L64.448 158.86L65.348 156.696L58.036 153.9L57.704 156.484Z" fill="#263238"/>
<path opacity="0.3" d="M77.008 95.2L74.832 99.372C74.032 102.516 74.224 110.172 75.232 115.008C77.044 107.716 78.492 100.044 79.392 94.896L77.008 95.2Z" fill="black"/>
<path d="M72.8 88.9162C72.8 88.9162 75.4041 112.588 80.2641 125.716C82.7001 132.312 100.784 151.852 100.784 151.852L104.864 148.588C104.864 148.588 93.3961 128.872 88.3841 123.72C86.3401 112.268 88.908 95.1202 84.16 88.7002L72.8 88.9162Z" fill="url(#paint12_linear)"/>
<path d="M101.132 153.268L105.916 149.344L104.624 147.224L99.384 151.784L101.132 153.268Z" fill="#263238"/>
<path d="M84.4 87.8562L85.072 89.1442C85.124 89.2442 85.008 89.3522 84.84 89.3522L69.596 89.5721C69.464 89.5721 69.356 89.5082 69.344 89.4282L69.196 88.1282C69.196 88.0402 69.3 87.9602 69.44 87.9602L84.16 87.7482C84.206 87.744 84.2522 87.7518 84.2942 87.7707C84.3363 87.7896 84.3727 87.819 84.4 87.8562Z" fill="#263238"/>
<path d="M82.428 89.5282H82.8281C82.9041 89.5282 82.964 89.4842 82.96 89.4362L82.748 87.7482C82.748 87.6962 82.676 87.6602 82.596 87.6602H82.196C82.12 87.6602 82.06 87.7042 82.068 87.7522L82.276 89.4402C82.28 89.4882 82.352 89.5282 82.428 89.5282Z" fill="url(#paint13_linear)"/>
<path d="M70.688 89.6959H71.088C71.168 89.6959 71.224 89.6519 71.22 89.6039L71.012 87.9159C71.012 87.8639 70.936 87.8239 70.856 87.8279H70.456C70.376 87.8279 70.316 87.8719 70.324 87.9199L70.532 89.6079C70.54 89.6559 70.612 89.6959 70.688 89.6959Z" fill="url(#paint14_linear)"/>
<path d="M76.56 89.5997H76.96C77.04 89.5997 77.1 89.5557 77.092 89.5077L76.884 87.8197C76.884 87.7677 76.808 87.7277 76.732 87.7317H76.332C76.252 87.7317 76.196 87.7757 76.2 87.8237L76.408 89.5117C76.4 89.5717 76.48 89.5997 76.56 89.5997Z" fill="url(#paint15_linear)"/>
<path d="M76.712 55.6839C76.628 55.9599 76.412 56.1359 76.232 56.0839C76.052 56.0319 75.976 55.7599 76.06 55.4839C76.144 55.2079 76.364 55.0279 76.544 55.0839C76.724 55.1399 76.8 55.4079 76.712 55.6839Z" fill="#263238"/>
<path d="M73.6 54.7077C73.512 54.9837 73.296 55.1597 73.116 55.1077C72.936 55.0557 72.86 54.7837 72.948 54.5077C73.036 54.2317 73.248 54.0557 73.428 54.1077C73.608 54.1597 73.684 54.4317 73.6 54.7077Z" fill="#263238"/>
<path d="M73.504 54.148L72.904 53.748C72.904 53.748 73.08 54.3721 73.504 54.148Z" fill="#263238"/>
<path d="M74.3681 55.436C73.9269 55.9885 73.4113 56.4771 72.8361 56.888C72.9454 57.0319 73.0847 57.1503 73.2442 57.2352C73.4037 57.3202 73.5797 57.3696 73.7601 57.38L74.3681 55.436Z" fill="#ED893E"/>
<path d="M74.68 58.9081C74.666 58.8979 74.6557 58.8834 74.6507 58.8668C74.6456 58.8502 74.6461 58.8324 74.652 58.8161C74.6594 58.7947 74.6747 58.7769 74.6948 58.7664C74.7149 58.756 74.7383 58.7537 74.76 58.7601C75.1 58.8754 75.4623 58.9087 75.8176 58.8573C76.1728 58.8059 76.5108 58.6711 76.804 58.4641C76.8127 58.457 76.8227 58.4517 76.8334 58.4485C76.8441 58.4452 76.8554 58.4441 76.8665 58.4452C76.8777 58.4464 76.8885 58.4497 76.8984 58.455C76.9082 58.4602 76.917 58.4674 76.924 58.4761C76.9311 58.4848 76.9365 58.4947 76.9397 58.5055C76.9429 58.5162 76.944 58.5274 76.9429 58.5386C76.9418 58.5497 76.9385 58.5605 76.9332 58.5704C76.9279 58.5803 76.9207 58.589 76.912 58.5961C76.5975 58.8228 76.2333 58.9708 75.8499 59.0279C75.4665 59.0849 75.0749 59.0494 74.708 58.9241L74.68 58.9081Z" fill="#263238"/>
<path d="M77.908 54.9399C77.8851 54.9205 77.8672 54.8958 77.856 54.8679C77.7908 54.6657 77.6784 54.4819 77.5282 54.3317C77.378 54.1815 77.1942 54.0691 76.992 54.0039C76.9482 53.9935 76.9103 53.9662 76.8864 53.9281C76.8624 53.8899 76.8544 53.8439 76.864 53.7999C76.8745 53.7561 76.9017 53.7182 76.9399 53.6943C76.978 53.6703 77.024 53.6623 77.068 53.6719C77.3254 53.7506 77.5603 53.8896 77.753 54.0775C77.9458 54.2654 78.0908 54.4966 78.176 54.7519C78.1916 54.7944 78.1899 54.8413 78.1712 54.8824C78.1524 54.9236 78.1183 54.9558 78.076 54.9719C78.0476 54.9809 78.0173 54.9827 77.988 54.9772C77.9586 54.9716 77.9312 54.9588 77.908 54.9399Z" fill="#263238"/>
<path d="M72.6721 52.9199C72.6721 52.9199 72.6721 52.8999 72.6721 52.8919C72.668 52.8701 72.6683 52.8477 72.673 52.826C72.6777 52.8043 72.6866 52.7838 72.6992 52.7656C72.7119 52.7474 72.728 52.7318 72.7467 52.7199C72.7654 52.7079 72.7862 52.6998 72.8081 52.6959C73.0719 52.6422 73.3448 52.6526 73.6038 52.7264C73.8627 52.8002 74.1002 52.9352 74.2961 53.1199C74.312 53.1356 74.3247 53.1542 74.3334 53.1748C74.342 53.1954 74.3465 53.2176 74.3465 53.2399C74.3465 53.2623 74.342 53.2844 74.3334 53.305C74.3247 53.3256 74.312 53.3443 74.2961 53.3599C74.2639 53.3912 74.2209 53.4087 74.1761 53.4087C74.1312 53.4087 74.0882 53.3912 74.0561 53.3599C73.8969 53.2133 73.7047 53.1073 73.4958 53.0509C73.2868 52.9944 73.0674 52.9893 72.8561 53.0359C72.8166 53.0415 72.7765 53.033 72.7427 53.0117C72.709 52.9905 72.684 52.9579 72.6721 52.9199Z" fill="#263238"/>
<path d="M58.872 68.7199C58.28 67.7639 57.768 65.8959 58.78 64.8399C59.792 63.7839 60.58 63.4839 60.328 61.6399C60.076 59.7959 62.892 59.8479 63.128 58.4399C64.532 59.6399 66.02 62.4399 65.224 63.7239C64.428 65.0079 64.856 65.9719 64.684 67.5279C64.512 69.0839 61.112 72.3439 58.872 68.7199Z" fill="url(#paint16_linear)"/>
<path opacity="0.5" d="M58.872 68.7199C58.28 67.7639 57.768 65.8959 58.78 64.8399C59.792 63.7839 60.58 63.4839 60.328 61.6399C60.076 59.7959 62.892 59.8479 63.128 58.4399C64.532 59.6399 66.02 62.4399 65.224 63.7239C64.428 65.0079 64.856 65.9719 64.684 67.5279C64.512 69.0839 61.112 72.3439 58.872 68.7199Z" fill="white"/>
<path d="M63.2441 61.4038C62.5641 65.6758 61.3121 70.6638 59.5161 74.3718C59.9528 74.3362 60.3627 74.1462 60.6721 73.8358C60.6721 73.8358 63.5161 66.1118 63.2441 61.4038Z" fill="url(#paint17_linear)"/>
<path d="M57.5241 70.8198C56.6241 70.1478 55.4641 68.5998 56.0121 67.2438C56.5601 65.8878 57.1881 65.3198 56.272 63.6958C55.356 62.0718 58.0001 61.0798 57.7001 59.6958C59.4561 60.3118 61.8681 62.3638 61.5921 63.8358C61.3161 65.3078 62.0761 66.0638 62.4881 67.5718C62.9001 69.0798 60.9441 73.3638 57.5241 70.8198Z" fill="url(#paint18_linear)"/>
<path opacity="0.6" d="M57.5241 70.8198C56.6241 70.1478 55.4641 68.5998 56.0121 67.2438C56.5601 65.8878 57.1881 65.3198 56.272 63.6958C55.356 62.0718 58.0001 61.0798 57.7001 59.6958C59.4561 60.3118 61.8681 62.3638 61.5921 63.8358C61.3161 65.3078 62.0761 66.0638 62.4881 67.5718C62.9001 69.0798 60.9441 73.3638 57.5241 70.8198Z" fill="white"/>
<path d="M63.9521 72.108C64.8961 72.04 66.4281 71.468 66.6561 70.252C66.8841 69.036 66.6961 68.348 68.0881 67.608C69.4801 66.868 68.0481 64.964 68.8881 64.116C67.3601 63.756 64.7121 64.116 64.2321 65.292C63.7521 66.468 62.8761 66.652 61.8961 67.54C60.9161 68.428 60.3601 72.364 63.9521 72.108Z" fill="url(#paint19_linear)"/>
<path opacity="0.7" d="M63.9521 72.108C64.8961 72.04 66.4281 71.468 66.6561 70.252C66.8841 69.036 66.6961 68.348 68.0881 67.608C69.4801 66.868 68.0481 64.964 68.8881 64.116C67.3601 63.756 64.7121 64.116 64.2321 65.292C63.7521 66.468 62.8761 66.652 61.8961 67.54C60.9161 68.428 60.3601 72.364 63.9521 72.108Z" fill="white"/>
<path d="M58.692 64.1558C59.408 67.8958 59.752 72.3478 59.092 75.8198C59.5186 75.7348 59.8988 75.4955 60.16 75.1478C60.16 75.1478 60.58 68.0878 58.692 64.1558Z" fill="url(#paint20_linear)"/>
<path d="M66.168 66.2002C63.664 68.9442 60.988 72.4522 59.464 75.6442C59.2549 75.3312 59.1628 74.9544 59.204 74.5802C59.204 74.5802 62.864 68.5362 66.168 66.2002Z" fill="url(#paint21_linear)"/>
<path d="M54.872 69.9522C53.74 69.3322 51.504 71.0642 52.68 73.0762C53.856 75.0882 56.28 76.0202 57.4 74.9402C58.944 74.6642 59.616 72.1682 58.688 70.0322C57.76 67.8962 55.044 68.6722 54.872 69.9522Z" fill="url(#paint22_linear)"/>
<path d="M54.872 69.9518C54.872 69.9518 54.4721 68.6518 55.1321 68.2358C55.2215 68.3483 55.3043 68.4658 55.3801 68.5878C55.3801 68.5878 54.932 68.7118 54.872 69.9518Z" fill="#263238"/>
<path d="M67.668 66.5599C67.532 69.3079 64.708 71.3959 61.64 72.0679C61.4513 72.2618 61.3138 72.4996 61.24 72.7599C61.2142 72.8196 61.2097 72.8863 61.2272 72.9489C61.2447 73.0115 61.2831 73.0662 61.336 73.1039C61.5686 73.2966 61.8423 73.4335 62.136 73.5039C63.7565 73.5432 65.3364 72.9948 66.584 71.9599C68.184 70.7359 69.644 68.3119 69.184 67.1879C68.724 66.0639 68.36 66.4399 68.184 65.5879C68.0863 65.2421 68.0444 64.8829 68.06 64.5239C68.06 64.5239 67.66 64.7119 67.56 64.9559C67.692 65.2999 67.712 65.6639 67.668 66.5599Z" fill="url(#paint23_linear)"/>
<path opacity="0.2" d="M69.2 67.1999C69.0954 66.8982 68.923 66.6245 68.696 66.3999C68.728 67.3039 68.496 68.3999 67.496 69.9999C66.452 71.6719 63.652 73.1599 61.236 73.0119C61.2553 73.0506 61.2843 73.0836 61.32 73.1079C61.5526 73.3006 61.8263 73.4375 62.12 73.5079C63.7405 73.5476 65.3206 72.9991 66.568 71.9639C68.172 70.7519 69.644 68.3279 69.2 67.1999Z" fill="black"/>
<path d="M67.676 65.5197C67.6173 65.3135 67.5479 65.1106 67.468 64.9117C67.6321 64.6994 67.8545 64.5395 68.108 64.4517V65.1117C68.108 65.1117 67.888 65.4917 67.676 65.5197Z" fill="#263238"/>
<path d="M61.336 72.4878C61.2748 72.5552 61.2174 72.626 61.164 72.6998C61.1368 72.7793 61.1352 72.8654 61.1596 72.9458C61.1841 73.0262 61.2332 73.0969 61.3 73.1478C61.3249 73.1738 61.3547 73.1946 61.3876 73.209C61.4206 73.2234 61.4561 73.2312 61.492 73.2318C61.4139 73.1089 61.3571 72.9736 61.324 72.8318C61.3211 72.717 61.3252 72.6021 61.336 72.4878Z" fill="#263238"/>
<path d="M69.868 67.8C69.16 70.456 65.964 71.908 62.82 71.924C62.5903 72.0702 62.4017 72.2726 62.272 72.512C62.2311 72.5631 62.2089 72.6266 62.2089 72.692C62.2089 72.7574 62.2311 72.8209 62.272 72.872C62.4614 73.1184 62.7069 73.3158 62.988 73.448C63.308 73.532 65.2 74.056 67.66 72.872C69.464 72 71.412 69.94 71.2 68.748C70.988 67.556 70.548 67.844 70.556 66.98C70.529 66.6222 70.5628 66.2625 70.656 65.916C70.4374 65.9639 70.2365 66.072 70.076 66.228C70.152 66.568 70.096 66.932 69.868 67.8Z" fill="url(#paint24_linear)"/>
<path opacity="0.2" d="M71.22 68.748C71.1815 68.4286 71.0707 68.1222 70.896 67.8521C70.736 68.744 70.28 69.78 68.98 71.12C67.612 72.536 64.58 73.412 62.232 72.76C62.2429 72.8016 62.2634 72.84 62.292 72.872C62.4827 73.117 62.7279 73.3142 63.008 73.448C63.328 73.532 65.22 74.052 67.68 72.868C69.484 72 71.432 69.94 71.22 68.748Z" fill="black"/>
<path d="M70.0921 66.8001C70.0921 66.8001 70.0561 66.3321 70.0161 66.1641C70.2212 65.9926 70.4709 65.883 70.7361 65.8481L70.5921 66.4921C70.5921 66.4921 70.3041 66.8001 70.0921 66.8001Z" fill="#263238"/>
<path d="M62.4361 72.272C62.4361 72.272 62.2961 72.376 62.2241 72.444C62.1815 72.5158 62.1624 72.5992 62.1696 72.6824C62.1767 72.7656 62.2098 72.8445 62.2641 72.908C62.3601 73.028 62.4361 73.032 62.4361 73.032C62.3844 72.8964 62.356 72.753 62.3521 72.608C62.3761 72.472 62.4361 72.272 62.4361 72.272Z" fill="#263238"/>
<path d="M71.7248 70.7785L52.2001 73.46L55.2016 95.3148L74.7263 92.6333L71.7248 70.7785Z" fill="url(#paint25_linear)"/>
<path opacity="0.8" d="M71.7248 70.7785L52.2001 73.46L55.2016 95.3148L74.7263 92.6333L71.7248 70.7785Z" fill="white"/>
<path opacity="0.2" d="M71.7249 70.78L65.963 71.5713L68.9645 93.4261L74.7264 92.6348L71.7249 70.78Z" fill="url(#paint26_linear)"/>
<path opacity="0.2" d="M74.732 92.6318L71.56 90.9278L68.848 71.1758L71.728 70.7798L74.732 92.6318Z" fill="url(#paint27_linear)"/>
<path opacity="0.3" d="M71.56 90.9277L68.968 93.4237L74.732 92.6317L71.56 90.9277Z" fill="url(#paint28_linear)"/>
<path d="M77.88 89.5679L74.904 88.3999L75.196 92.1279C75.196 92.1279 77.196 92.0319 78.256 90.9879L77.88 89.5679Z" fill="#FFB573"/>
<path d="M87.2681 70.9878C88.0681 73.2278 88.7561 75.4518 89.3481 77.7558C89.6441 78.9038 89.9241 80.0598 90.1481 81.2598C90.2561 81.8558 90.3521 82.4598 90.4241 83.0918C90.5033 83.7553 90.5314 84.424 90.5081 85.0918C90.4945 85.5251 90.4273 85.955 90.3081 86.3718C90.1455 86.8847 89.8724 87.3558 89.5081 87.7518C88.9749 88.321 88.3417 88.7874 87.6401 89.1278C86.4929 89.6857 85.2848 90.1085 84.0401 90.3878C81.7115 90.9281 79.3368 91.2456 76.9481 91.3358L76.7161 89.4638C77.8041 89.2038 78.9201 88.9158 80.0041 88.6118C81.0881 88.3078 82.1681 87.9718 83.2041 87.5918C84.1926 87.2534 85.1453 86.8179 86.0481 86.2918C86.3763 86.0997 86.6698 85.8536 86.9161 85.5638C86.9801 85.4638 86.9801 85.4358 86.9681 85.4358C86.9783 85.2893 86.9783 85.1423 86.9681 84.9958C86.9501 84.5129 86.8993 84.0318 86.8161 83.5558C86.7361 83.0358 86.6281 82.5038 86.5081 81.9558C86.2561 80.8878 85.9801 79.7998 85.6681 78.7118C85.0441 76.5518 84.3441 74.3558 83.6401 72.2238L87.2681 70.9878Z" fill="#FFB573"/>
<path d="M72.144 90.24L72.376 91.104C72.45 91.3785 72.6107 91.6218 72.8341 91.7977C73.0575 91.9735 73.3318 92.0726 73.616 92.08L75.216 92.124L74.924 88.396L73.292 88.584C73.1014 88.6031 72.9172 88.6633 72.7521 88.7605C72.587 88.8578 72.445 88.9896 72.3359 89.1471C72.2267 89.3045 72.153 89.4838 72.1199 89.6725C72.0868 89.8612 72.095 90.0548 72.144 90.24Z" fill="#FFB573"/>
<path d="M85.572 66.8196C87.244 67.4996 88.612 72.9956 88.612 72.9956L83.992 76.5956C83.992 76.5956 80.72 71.4716 81.388 69.2476C81.956 67.3716 83.444 65.9596 85.572 66.8196Z" fill="url(#paint29_linear)"/>
<g opacity="0.5">
<path opacity="0.5" d="M85.572 66.8196C87.244 67.4996 88.612 72.9956 88.612 72.9956L83.992 76.5956C83.992 76.5956 80.72 71.4716 81.388 69.2476C81.956 67.3716 83.444 65.9596 85.572 66.8196Z" fill="black"/>
</g>
<path d="M103.416 156.676H103.356C103.272 156.672 103.192 156.645 103.121 156.6C103.051 156.554 102.994 156.491 102.956 156.416C102.927 156.374 102.909 156.325 102.905 156.274C102.901 156.222 102.91 156.171 102.932 156.124C103.136 155.724 104.42 155.564 104.564 155.548C104.581 155.546 104.598 155.549 104.613 155.556C104.628 155.564 104.641 155.577 104.648 155.592C104.657 155.606 104.662 155.622 104.662 155.638C104.662 155.655 104.657 155.671 104.648 155.684C104.376 156.048 103.856 156.644 103.416 156.676ZM104.388 155.744C103.876 155.82 103.188 155.984 103.092 156.2C103.08 156.219 103.074 156.242 103.074 156.264C103.074 156.287 103.08 156.309 103.092 156.328C103.115 156.379 103.152 156.421 103.198 156.452C103.243 156.483 103.297 156.501 103.352 156.504C103.6 156.516 104 156.236 104.4 155.744H104.388Z" fill="#263238"/>
<path d="M104.504 155.728C104.068 155.756 103.204 155.576 103.02 155.24C102.989 155.18 102.979 155.112 102.992 155.045C103.005 154.979 103.04 154.919 103.092 154.876C103.136 154.829 103.19 154.792 103.25 154.767C103.311 154.743 103.375 154.733 103.44 154.736C103.96 154.736 104.62 155.536 104.64 155.58C104.648 155.592 104.652 155.606 104.652 155.62C104.652 155.634 104.648 155.648 104.64 155.66C104.636 155.675 104.628 155.688 104.617 155.698C104.605 155.708 104.591 155.714 104.576 155.716L104.504 155.728ZM103.4 154.904C103.33 154.91 103.265 154.941 103.216 154.992C103.14 155.072 103.152 155.124 103.172 155.16C103.288 155.38 103.972 155.56 104.408 155.56C104.172 155.308 103.744 154.912 103.436 154.9L103.4 154.904Z" fill="#263238"/>
<path d="M55.688 160.492C55.4145 160.401 55.1747 160.229 55 160C54.9589 159.931 54.934 159.854 54.927 159.775C54.9201 159.695 54.9314 159.615 54.96 159.54C54.9732 159.497 54.9976 159.459 55.0306 159.429C55.0637 159.398 55.1042 159.377 55.148 159.368C55.604 159.28 56.684 160.44 56.896 160.676C56.9058 160.69 56.911 160.707 56.911 160.724C56.911 160.741 56.9058 160.758 56.896 160.772C56.8871 160.788 56.8735 160.801 56.857 160.809C56.8405 160.817 56.822 160.819 56.804 160.816C56.4222 160.745 56.0484 160.636 55.688 160.492ZM55.348 159.556C55.296 159.53 55.2379 159.519 55.18 159.524C55.18 159.524 55.136 159.524 55.12 159.584C55.0996 159.636 55.0915 159.692 55.0963 159.747C55.1012 159.803 55.1189 159.857 55.148 159.904C55.304 160.172 55.836 160.424 56.592 160.588C56.232 160.183 55.8126 159.835 55.348 159.556Z" fill="#263238"/>
<path d="M56.8 160.8C56.7892 160.795 56.7796 160.789 56.772 160.78C56.404 160.416 55.812 159.328 56.016 158.98C56.064 158.904 56.16 158.824 56.372 158.884C57.172 159.116 56.928 160.668 56.916 160.736C56.9139 160.751 56.907 160.766 56.8962 160.777C56.8855 160.789 56.8714 160.797 56.856 160.8C56.8473 160.804 56.8377 160.806 56.8281 160.806C56.8184 160.806 56.8088 160.804 56.8 160.8ZM56.4 159.064H56.344C56.26 159.04 56.204 159.044 56.184 159.064C56.064 159.268 56.444 160.088 56.792 160.524C56.8 160.14 56.8481 159.26 56.4 159.064Z" fill="#263238"/>
<path d="M76.6201 55.1241L76.0161 54.7241C76.0161 54.7241 76.1961 55.3481 76.6201 55.1241Z" fill="#263238"/>
<defs>
<linearGradient id="paint0_linear" x1="107.696" y1="34.3042" x2="107.696" y2="48.1082" gradientUnits="userSpaceOnUse">
<stop stop-color="#31ADEE"/>
<stop offset="1" stop-color="#2F5061" stop-opacity="0.9"/>
</linearGradient>
<linearGradient id="paint1_linear" x1="115.832" y1="34.2881" x2="115.832" y2="34.6881" gradientUnits="userSpaceOnUse">
<stop stop-color="#31ADEE"/>
<stop offset="1" stop-color="#2F5061" stop-opacity="0.9"/>
</linearGradient>
<linearGradient id="paint2_linear" x1="129.626" y1="35.688" x2="129.626" y2="166.496" gradientUnits="userSpaceOnUse">
<stop stop-color="#31ADEE"/>
<stop offset="1" stop-color="#2F5061" stop-opacity="0.9"/>
</linearGradient>
<linearGradient id="paint3_linear" x1="128.05" y1="95.144" x2="128.05" y2="120.448" gradientUnits="userSpaceOnUse">
<stop stop-color="#31ADEE"/>
<stop offset="1" stop-color="#2F5061" stop-opacity="0.9"/>
</linearGradient>
<linearGradient id="paint4_linear" x1="128.054" y1="94.396" x2="128.054" y2="121.2" gradientUnits="userSpaceOnUse">
<stop stop-color="#31ADEE"/>
<stop offset="1" stop-color="#2F5061" stop-opacity="0.9"/>
</linearGradient>
<linearGradient id="paint5_linear" x1="143.92" y1="90.1924" x2="143.92" y2="118.705" gradientUnits="userSpaceOnUse">
<stop stop-color="#31ADEE"/>
<stop offset="1" stop-color="#2F5061" stop-opacity="0.9"/>
</linearGradient>
<linearGradient id="paint6_linear" x1="121.12" y1="116.948" x2="121.12" y2="127.804" gradientUnits="userSpaceOnUse">
<stop stop-color="#31ADEE"/>
<stop offset="1" stop-color="#2F5061" stop-opacity="0.9"/>
</linearGradient>
<linearGradient id="paint7_linear" x1="132.758" y1="116.948" x2="132.758" y2="127.804" gradientUnits="userSpaceOnUse">
<stop stop-color="#31ADEE"/>
<stop offset="1" stop-color="#2F5061" stop-opacity="0.9"/>
</linearGradient>
<linearGradient id="paint8_linear" x1="120.041" y1="74.4431" x2="137.428" y2="75.7016" gradientUnits="userSpaceOnUse">
<stop stop-color="#31ADEE"/>
<stop offset="1" stop-color="#2F5061" stop-opacity="0.9"/>
</linearGradient>
<linearGradient id="paint9_linear" x1="69.2362" y1="67.1016" x2="69.2362" y2="77.3402" gradientUnits="userSpaceOnUse">
<stop stop-color="#31ADEE"/>
<stop offset="1" stop-color="#2F5061" stop-opacity="0.9"/>
</linearGradient>
<linearGradient id="paint10_linear" x1="76.6834" y1="66.1523" x2="76.6834" y2="88.9159" gradientUnits="userSpaceOnUse">
<stop stop-color="#31ADEE"/>
<stop offset="1" stop-color="#2F5061" stop-opacity="0.9"/>
</linearGradient>
<linearGradient id="paint11_linear" x1="69.526" y1="88.7998" x2="69.526" y2="157.096" gradientUnits="userSpaceOnUse">
<stop stop-color="#31ADEE"/>
<stop offset="1" stop-color="#2F5061" stop-opacity="0.9"/>
</linearGradient>
<linearGradient id="paint12_linear" x1="88.8321" y1="88.7002" x2="88.8321" y2="151.852" gradientUnits="userSpaceOnUse">
<stop stop-color="#31ADEE"/>
<stop offset="1" stop-color="#2F5061" stop-opacity="0.9"/>
</linearGradient>
<linearGradient id="paint13_linear" x1="82.5138" y1="87.6602" x2="82.5138" y2="89.5282" gradientUnits="userSpaceOnUse">
<stop stop-color="#31ADEE"/>
<stop offset="1" stop-color="#2F5061" stop-opacity="0.9"/>
</linearGradient>
<linearGradient id="paint14_linear" x1="70.7718" y1="87.8276" x2="70.7718" y2="89.6959" gradientUnits="userSpaceOnUse">
<stop stop-color="#31ADEE"/>
<stop offset="1" stop-color="#2F5061" stop-opacity="0.9"/>
</linearGradient>
<linearGradient id="paint15_linear" x1="76.6463" y1="87.7314" x2="76.6463" y2="89.5997" gradientUnits="userSpaceOnUse">
<stop stop-color="#31ADEE"/>
<stop offset="1" stop-color="#2F5061" stop-opacity="0.9"/>
</linearGradient>
<linearGradient id="paint16_linear" x1="61.8255" y1="58.4399" x2="61.8255" y2="70.3674" gradientUnits="userSpaceOnUse">
<stop stop-color="#31ADEE"/>
<stop offset="1" stop-color="#2F5061" stop-opacity="0.9"/>
</linearGradient>
<linearGradient id="paint17_linear" x1="61.3892" y1="61.4038" x2="61.3892" y2="74.3718" gradientUnits="userSpaceOnUse">
<stop stop-color="#31ADEE"/>
<stop offset="1" stop-color="#2F5061" stop-opacity="0.9"/>
</linearGradient>
<linearGradient id="paint18_linear" x1="59.2066" y1="59.6958" x2="59.2066" y2="71.6097" gradientUnits="userSpaceOnUse">
<stop stop-color="#31ADEE"/>
<stop offset="1" stop-color="#2F5061" stop-opacity="0.9"/>
</linearGradient>
<linearGradient id="paint19_linear" x1="65.0246" y1="63.9824" x2="65.0246" y2="72.1199" gradientUnits="userSpaceOnUse">
<stop stop-color="#31ADEE"/>
<stop offset="1" stop-color="#2F5061" stop-opacity="0.9"/>
</linearGradient>
<linearGradient id="paint20_linear" x1="59.4459" y1="64.1558" x2="59.4459" y2="75.8198" gradientUnits="userSpaceOnUse">
<stop stop-color="#31ADEE"/>
<stop offset="1" stop-color="#2F5061" stop-opacity="0.9"/>
</linearGradient>
<linearGradient id="paint21_linear" x1="62.6812" y1="66.2002" x2="62.6812" y2="75.6442" gradientUnits="userSpaceOnUse">
<stop stop-color="#31ADEE"/>
<stop offset="1" stop-color="#2F5061" stop-opacity="0.9"/>
</linearGradient>
<linearGradient id="paint22_linear" x1="55.7296" y1="68.6982" x2="55.7296" y2="75.395" gradientUnits="userSpaceOnUse">
<stop stop-color="#31ADEE"/>
<stop offset="1" stop-color="#2F5061" stop-opacity="0.9"/>
</linearGradient>
<linearGradient id="paint23_linear" x1="65.2434" y1="64.5239" x2="65.2434" y2="73.5059" gradientUnits="userSpaceOnUse">
<stop stop-color="#31ADEE"/>
<stop offset="1" stop-color="#2F5061" stop-opacity="0.9"/>
</linearGradient>
<linearGradient id="paint24_linear" x1="66.7124" y1="65.916" x2="66.7124" y2="73.6357" gradientUnits="userSpaceOnUse">
<stop stop-color="#31ADEE"/>
<stop offset="1" stop-color="#2F5061" stop-opacity="0.9"/>
</linearGradient>
<linearGradient id="paint25_linear" x1="61.9624" y1="72.1192" x2="64.964" y2="93.9741" gradientUnits="userSpaceOnUse">
<stop stop-color="#31ADEE"/>
<stop offset="1" stop-color="#2F5061" stop-opacity="0.9"/>
</linearGradient>
<linearGradient id="paint26_linear" x1="68.844" y1="71.1756" x2="71.8455" y2="93.0305" gradientUnits="userSpaceOnUse">
<stop stop-color="#31ADEE"/>
<stop offset="1" stop-color="#2F5061" stop-opacity="0.9"/>
</linearGradient>
<linearGradient id="paint27_linear" x1="71.79" y1="70.7798" x2="71.79" y2="92.6318" gradientUnits="userSpaceOnUse">
<stop stop-color="#31ADEE"/>
<stop offset="1" stop-color="#2F5061" stop-opacity="0.9"/>
</linearGradient>
<linearGradient id="paint28_linear" x1="71.85" y1="90.9277" x2="71.85" y2="93.4237" gradientUnits="userSpaceOnUse">
<stop stop-color="#31ADEE"/>
<stop offset="1" stop-color="#2F5061" stop-opacity="0.9"/>
</linearGradient>
<linearGradient id="paint29_linear" x1="84.9551" y1="66.5615" x2="84.9551" y2="76.5956" gradientUnits="userSpaceOnUse">
<stop stop-color="#31ADEE"/>
<stop offset="1" stop-color="#2F5061" stop-opacity="0.9"/>
</linearGradient>
</defs>
</svg>
