<svg width="600" height="402" viewBox="0 0 600 402" fill="none" xmlns="http://www.w3.org/2000/svg">
<g clip-path="url(#clip0)">
<path d="M591.165 156.508C568.444 67.1614 489.934 2.6656 397.78 0.0787315C349.06 -1.28887 297.794 14.8691 260.469 71.4118C193.746 172.488 264.569 242.335 313.946 275.524C337.8 291.591 359.295 310.911 377.806 332.922C411.159 372.5 475.32 421.681 551.734 344.622C607.119 288.77 606.3 216.022 591.165 156.508Z" fill="#F2F2F2"/>
<path d="M514.181 401.134C561.208 401.134 599.332 395.635 599.332 388.853C599.332 382.07 561.208 376.572 514.181 376.572C467.153 376.572 429.03 382.07 429.03 388.853C429.03 395.635 467.153 401.134 514.181 401.134Z" fill="#3F3D56"/>
<path d="M442.13 42.5752H0V311.012H442.13V42.5752Z" fill="url(#paint0_linear)"/>
<path d="M7.13957 52.1818C8.90247 52.1818 10.3316 50.7527 10.3316 48.9898C10.3316 47.2269 8.90247 45.7979 7.13957 45.7979C5.37668 45.7979 3.94757 47.2269 3.94757 48.9898C3.94757 50.7527 5.37668 52.1818 7.13957 52.1818Z" fill="url(#paint1_linear)"/>
<path d="M15.2969 52.1818C17.0598 52.1818 18.4889 50.7527 18.4889 48.9898C18.4889 47.2269 17.0598 45.7979 15.2969 45.7979C13.534 45.7979 12.1049 47.2269 12.1049 48.9898C12.1049 50.7527 13.534 52.1818 15.2969 52.1818Z" fill="url(#paint2_linear)"/>
<path d="M23.4543 52.1818C25.2172 52.1818 26.6463 50.7527 26.6463 48.9898C26.6463 47.2269 25.2172 45.7979 23.4543 45.7979C21.6914 45.7979 20.2623 47.2269 20.2623 48.9898C20.2623 50.7527 21.6914 52.1818 23.4543 52.1818Z" fill="url(#paint3_linear)"/>
<path d="M82.6527 142.252C103.365 142.252 120.155 125.462 120.155 104.75C120.155 84.0379 103.365 67.2476 82.6527 67.2476C61.9409 67.2476 45.1506 84.0379 45.1506 104.75C45.1506 125.462 61.9409 142.252 82.6527 142.252Z" fill="#F2F2F2"/>
<path d="M161.358 158.042H3.94757V163.471H161.358V158.042Z" fill="url(#paint4_linear)"/>
<path d="M161.358 209.854H3.94757V215.283H161.358V209.854Z" fill="#F2F2F2"/>
<path d="M161.358 225.151H3.94757V230.579H161.358V225.151Z" fill="#F2F2F2"/>
<path d="M161.358 240.448H3.94757V245.876H161.358V240.448Z" fill="#F2F2F2"/>
<path d="M161.358 255.745H3.94757V261.173H161.358V255.745Z" fill="#F2F2F2"/>
<path d="M161.358 271.042H3.94757V276.47H161.358V271.042Z" fill="#F2F2F2"/>
<path d="M161.358 286.339H3.94757V291.767H161.358V286.339Z" fill="#F2F2F2"/>
<path d="M437.69 66.7542H186.524V67.7411H437.69V66.7542Z" fill="url(#paint5_linear)"/>
<path d="M437.69 76.623H186.524V77.61H437.69V76.623Z" fill="url(#paint6_linear)"/>
<path d="M437.69 86.4919H186.524V87.4787H437.69V86.4919Z" fill="url(#paint7_linear)"/>
<path d="M437.69 96.3611H186.524V97.348H437.69V96.3611Z" fill="url(#paint8_linear)"/>
<path d="M437.69 106.23H186.524V107.217H437.69V106.23Z" fill="url(#paint9_linear)"/>
<path d="M437.69 116.099H186.524V117.086H437.69V116.099Z" fill="url(#paint10_linear)"/>
<path d="M437.69 125.968H186.524V126.955H437.69V125.968Z" fill="url(#paint11_linear)"/>
<path d="M437.69 135.837H186.524V136.824H437.69V135.837Z" fill="url(#paint12_linear)"/>
<path d="M437.69 145.706H186.524V146.693H437.69V145.706Z" fill="url(#paint13_linear)"/>
<path d="M437.69 155.575H186.524V156.562H437.69V155.575Z" fill="url(#paint14_linear)"/>
<path d="M437.69 165.444H186.524V166.431H437.69V165.444Z" fill="url(#paint15_linear)"/>
<path d="M207.742 151.627H190.965V155.575H207.742V151.627Z" fill="url(#paint16_linear)"/>
<path d="M234.882 142.252H218.105V146.2H234.882V142.252Z" fill="url(#paint17_linear)"/>
<path d="M262.021 122.514H245.244V126.462H262.021V122.514Z" fill="url(#paint18_linear)"/>
<path d="M289.161 131.889H272.383V135.837H289.161V131.889Z" fill="url(#paint19_linear)"/>
<path d="M316.301 112.645H299.523V116.593H316.301V112.645Z" fill="url(#paint20_linear)"/>
<path d="M343.441 131.889H326.663V135.837H343.441V131.889Z" fill="url(#paint21_linear)"/>
<path d="M370.58 102.776H353.803V106.724H370.58V102.776Z" fill="url(#paint22_linear)"/>
<path d="M397.72 83.5312H380.942V87.4788H397.72V83.5312Z" fill="url(#paint23_linear)"/>
<path d="M424.86 93.4004H408.083V97.3479H424.86V93.4004Z" fill="url(#paint24_linear)"/>
<path opacity="0.1" d="M408.082 96.361V136.083H397.72V85.5054H380.943V136.083H370.58V104.75H353.803V136.083H316.3V114.619H299.524V136.083H272.137V145.706H262.021V124.488H245.244V145.706H218.105V155.575H190.965V166.431H218.105H289.161H299.524H316.3H408.082H424.859V155.575V96.361H408.082Z" fill="url(#paint25_linear)"/>
<path d="M255.749 202.464C255.675 201.877 255.524 201.301 255.302 200.752C255.273 200.648 255.224 200.551 255.156 200.468C255.088 200.384 255.003 200.316 254.908 200.266C254.78 200.233 254.645 200.232 254.517 200.262L252.509 200.569C252.341 200.577 252.18 200.64 252.051 200.747C251.789 201.022 252.047 201.465 252.039 201.845C252.014 202.057 251.924 202.257 251.781 202.416C251.638 202.575 251.448 202.685 251.24 202.732C250.82 202.817 250.387 202.811 249.97 202.716L247.163 202.28C247.989 202.016 248.725 201.525 249.286 200.863C249.656 200.425 249.852 199.608 249.318 199.401C249.16 199.357 248.994 199.344 248.831 199.362C247.559 199.372 246.558 198.31 245.367 197.862C244.605 197.595 243.778 197.575 243.004 197.805C242.23 198.036 241.548 198.506 241.057 199.147L242.553 199.219C242.693 199.211 242.833 199.249 242.951 199.325C243.279 199.595 242.871 200.112 242.918 200.534C242.978 201.081 243.705 201.198 244.253 201.254C244.802 201.309 245.497 201.755 245.233 202.239C242.477 203.188 239.673 200.383 236.779 200.728C236.054 200.867 235.34 201.053 234.639 201.284C230.27 202.39 225.754 199.44 221.291 200.065C220.298 200.234 219.323 200.491 218.377 200.834C217.753 200.984 217.175 201.286 216.694 201.711C216.461 201.931 216.314 202.226 216.279 202.545C216.244 202.863 216.324 203.183 216.503 203.448C215.351 203.543 214.191 203.433 213.077 203.123C213.378 203.29 213.628 203.536 213.802 203.833C213.976 204.131 214.066 204.47 214.064 204.815C212.264 205.108 210.512 205.642 208.855 206.403C209.165 206.917 209.526 207.398 209.933 207.838L207.655 209.302C207.841 209.362 208.011 209.463 208.152 209.597C208.293 209.731 208.403 209.896 208.472 210.078C208.541 210.261 208.568 210.456 208.552 210.651C208.535 210.845 208.475 211.033 208.375 211.201C209.173 210.846 209.668 209.927 210.521 209.741C211.094 209.681 211.671 209.793 212.18 210.063C212.689 210.333 213.274 210.425 213.842 210.325C214.391 210.163 214.796 209.452 214.447 208.998C216.794 208.313 219.219 207.934 221.662 207.871C221.851 207.847 222.042 207.883 222.209 207.974C222.527 208.195 222.443 208.672 222.426 209.059C222.409 209.445 222.71 209.954 223.056 209.779C222.649 210.132 222.997 210.796 223.387 211.167C223.777 211.538 224.248 212.049 224.009 212.532C223.947 212.658 223.841 212.758 223.781 212.885C223.604 213.26 223.885 213.698 224.216 213.947C224.58 214.147 224.907 214.406 225.185 214.715C225.415 215.059 225.31 215.663 224.898 215.711L223.728 214.225C223.328 214.639 223.053 215.159 222.937 215.723C223.539 216.255 223.914 216.997 223.987 217.797C224.059 218.597 223.822 219.394 223.326 220.025C222.736 220.594 222.083 221.094 221.38 221.515C221.029 221.729 220.733 222.02 220.513 222.367C220.293 222.714 220.156 223.106 220.112 223.514C220.115 224.93 219.999 226.245 220.53 227.558C221.508 229.978 222.638 232.335 223.912 234.613C224.246 235.212 224.679 235.867 225.356 235.97C224.5 233.885 223.729 231.768 223.043 229.618C223.264 229.586 223.49 229.605 223.702 229.675C223.914 229.744 224.108 229.861 224.267 230.017C224.424 230.352 224.505 230.717 224.505 231.087C224.591 231.439 224.733 231.775 224.928 232.081L229.018 239.367C229.289 240.01 229.776 240.539 230.394 240.863C230.828 240.944 231.255 241.062 231.669 241.216C231.968 241.392 232.169 241.705 232.474 241.871C233.335 242.341 234.533 241.44 235.339 242.001C235.545 242.191 235.742 242.391 235.927 242.6C236.671 243.244 237.891 242.813 238.749 243.294C239.262 243.672 239.656 244.189 239.884 244.784C240.624 246.189 241.82 247.566 243.404 247.678C243.902 247.658 244.401 247.675 244.896 247.73C245.383 247.841 245.861 248.265 245.783 248.758C245.649 249.602 246.067 250.527 245.955 251.375C245.751 252.92 243.56 253.598 243.372 255.145C243.373 255.485 243.353 255.826 243.314 256.164C243.216 256.57 242.911 256.901 242.802 257.305C242.597 258.07 243.145 258.831 243.747 259.346C244.349 259.861 245.068 260.305 245.397 261.025C245.745 261.787 245.574 262.675 245.687 263.505C245.934 265.316 247.499 266.659 249.109 267.525C249.624 267.741 250.081 268.076 250.443 268.501C250.858 269.099 250.817 269.886 250.955 270.6C251.294 272.347 252.765 273.788 252.807 275.567C252.837 276.833 252.133 277.98 251.713 279.174C251.319 280.318 251.177 281.533 251.296 282.736C251.414 283.94 251.791 285.104 252.4 286.149C252.748 286.658 253.053 287.196 253.312 287.755C253.709 288.782 253.58 289.949 253.946 290.987C254.43 292.359 255.759 293.492 255.631 294.942C256.235 296.194 257.567 296.81 258.906 297.183L261.307 297.851C261.757 298.014 262.239 298.071 262.715 298.015C262.952 297.981 263.17 297.868 263.334 297.694C263.498 297.52 263.598 297.295 263.618 297.057C262.421 296.872 261.276 296.441 260.255 295.792C259.284 295.074 258.62 293.797 258.988 292.648C259.159 292.115 259.522 291.499 259.176 291.059C258.979 290.807 258.617 290.741 258.394 290.511C258.252 290.306 258.177 290.061 258.181 289.81C258.185 289.56 258.267 289.318 258.416 289.117C258.721 288.721 258.962 288.279 259.128 287.808C259.179 287.534 259.145 287.251 259.031 286.998C258.916 286.744 258.727 286.531 258.488 286.387C258.933 286.219 259.338 285.96 259.676 285.625C259.842 285.454 259.951 285.237 259.989 285.002C260.027 284.767 259.991 284.526 259.887 284.312C260.617 284.405 261.479 284.45 261.958 283.892C262.123 283.648 262.228 283.369 262.264 283.077C262.3 282.784 262.265 282.488 262.164 282.212C261.956 281.662 261.817 281.089 261.749 280.505C263.433 280.585 265.12 280.527 266.795 280.334C266.553 279.518 266.002 278.829 265.261 278.412C266.019 278.284 266.71 277.376 266.95 276.645C267.154 275.899 267.164 275.114 266.98 274.363C266.923 274.169 266.915 273.963 266.957 273.765C267.079 273.504 267.293 273.298 267.558 273.185L271.322 271.023C271.547 270.91 271.75 270.76 271.924 270.579C272.093 270.325 272.193 270.032 272.217 269.728C272.24 269.424 272.186 269.119 272.058 268.842C271.798 268.292 271.596 267.717 271.455 267.125C271.222 265.32 273.154 264.025 273.806 262.326C274.029 261.647 274.149 260.938 274.164 260.223C274.217 259.458 274.221 258.569 273.633 258.076C273.07 257.603 272.19 257.708 271.601 257.269C271.061 256.866 270.874 256.083 270.284 255.757C269.748 255.462 269.076 255.65 268.48 255.511C267.43 255.266 266.77 254.056 265.698 253.944C265.093 253.881 264.409 254.177 263.913 253.824C263.476 253.514 263.458 252.89 263.375 252.361C263.23 251.538 262.835 250.78 262.245 250.188C261.656 249.596 260.899 249.2 260.076 249.051C259.453 248.951 258.774 248.989 258.244 248.647C257.706 248.3 257.46 247.65 257.038 247.169C256.358 246.395 255.287 246.12 254.284 245.884L250.202 244.924C249.478 244.754 248.544 244.664 248.155 245.298C248.04 245.54 247.959 245.796 247.913 246.06C247.767 246.537 247.474 246.956 247.076 247.256C246.677 247.556 246.194 247.721 245.695 247.729C245.353 247.146 244.799 246.717 244.148 246.533C243.725 246.461 243.307 246.362 242.897 246.235C242.682 246.13 242.49 245.982 242.334 245.801C242.179 245.619 242.061 245.408 241.99 245.18C241.918 244.951 241.894 244.711 241.919 244.473C241.944 244.235 242.017 244.005 242.134 243.796C242.369 243.377 242.46 242.892 242.392 242.417C242.325 241.941 242.103 241.501 241.76 241.164C241.39 240.878 240.967 240.668 240.516 240.546C240.065 240.424 239.595 240.392 239.131 240.453C238.887 239.921 239.295 239.321 239.734 238.934C240.173 238.548 240.707 238.168 240.802 237.591C240.953 236.683 239.794 235.993 238.915 236.264C238.035 236.535 237.474 237.389 237.103 238.231C236.924 238.729 236.679 239.199 236.373 239.63C236.217 239.844 236.004 240.01 235.759 240.111C235.514 240.211 235.246 240.241 234.985 240.199C234.26 240.014 233.981 239.153 233.82 238.423C233.563 237.453 233.433 236.453 233.434 235.448C233.44 234.434 233.843 233.462 234.556 232.739C235.76 231.634 237.607 231.743 239.231 231.919C239.057 231.688 238.973 231.401 238.995 231.112C239.018 230.823 239.145 230.552 239.353 230.35C239.57 230.158 239.83 230.021 240.112 229.952C240.394 229.883 240.688 229.883 240.969 229.953C241.459 230.055 241.9 230.319 242.221 230.702C242.683 231.265 242.814 232.025 243.163 232.664C243.512 233.303 244.297 233.848 244.939 233.505C245.494 233.209 245.582 232.44 245.444 231.826C245.226 231.236 245.098 230.617 245.063 229.989C245.158 228.793 246.398 228.073 247.492 227.581C248.587 227.088 249.839 226.425 250.013 225.238C250.019 225.006 250.062 224.776 250.143 224.557C250.264 224.365 250.433 224.206 250.632 224.097C253.826 221.986 257.072 219.85 260.722 218.697C260.912 218.637 260.934 218.704 261.127 218.657C261.398 218.5 261.219 218.067 260.959 217.893C260.7 217.719 260.352 217.585 260.287 217.279C260.238 217.054 260.371 216.833 260.405 216.606C260.414 216.469 260.389 216.331 260.332 216.206C260.275 216.081 260.189 215.971 260.08 215.887C259.971 215.803 259.843 215.747 259.708 215.724C259.572 215.701 259.433 215.712 259.302 215.755C259.009 215.367 259.589 214.916 260.058 214.786C261.467 214.399 262.913 214.162 264.371 214.082C264.54 214.055 264.712 214.084 264.862 214.165C264.969 214.269 265.033 214.409 265.04 214.558C265.048 214.707 264.998 214.853 264.902 214.966C264.702 215.187 264.481 215.387 264.242 215.566C264.006 215.796 263.837 216.087 263.755 216.406C263.672 216.726 263.679 217.062 263.775 217.378C264.536 217.765 265.364 218.164 266.207 218.027C267.051 217.891 267.799 216.943 267.403 216.187C267.034 215.482 265.925 215.323 265.734 214.55C265.511 213.646 266.791 212.842 266.503 211.956C266.376 211.568 265.99 211.34 265.693 211.06C265.343 210.716 265.104 210.275 265.009 209.793C264.914 209.312 264.967 208.813 265.161 208.362C264.678 208.447 264.181 208.415 263.713 208.269C263.244 208.122 262.818 207.865 262.469 207.52C261.826 206.87 261.312 205.846 260.398 205.875C259.559 205.901 258.836 206.88 258.052 206.581C257.859 206.508 257.656 206.358 257.469 206.446C257.407 206.486 257.356 206.539 257.318 206.602C257.28 206.664 257.257 206.735 257.251 206.807C257.052 207.76 257.394 208.846 256.875 209.67C256.31 210.566 255.002 210.69 254.317 211.498C253.945 211.937 253.801 212.528 253.459 212.991C253.117 213.453 252.392 213.747 251.981 213.344C252.183 212.93 252.238 212.459 252.138 212.009C252.037 211.559 251.787 211.156 251.428 210.867C251.047 210.619 250.636 210.419 250.206 210.273C249.724 210.069 249.267 209.814 248.84 209.512C248.626 209.383 248.453 209.197 248.339 208.975C248.249 208.697 248.261 208.397 248.373 208.127C248.581 207.53 248.948 207.002 249.435 206.599C249.921 206.196 250.508 205.933 251.133 205.839C251.679 205.765 252.315 205.791 252.677 205.375C252.868 205.155 252.968 204.822 253.246 204.732C253.424 204.697 253.608 204.719 253.772 204.797L255.811 205.515C256.038 205.617 256.289 205.659 256.537 205.635C256.661 205.618 256.773 205.556 256.852 205.46C256.931 205.364 256.971 205.241 256.963 205.117C256.898 204.779 256.377 204.616 256.424 204.275C256.451 204.164 256.511 204.064 256.595 203.988C257.331 203.204 258.231 202.594 259.231 202.199C260.23 201.804 261.305 201.635 262.377 201.704C262.635 202.127 262.228 202.628 261.889 202.989C261.55 203.349 261.278 203.994 261.688 204.272C261.855 204.358 262.042 204.4 262.231 204.394C262.733 204.462 263.22 204.61 263.676 204.832C264.38 205.139 265.071 205.475 265.749 205.839C265.651 205.397 265.669 204.937 265.801 204.504C265.875 204.291 266.026 204.113 266.224 204.005C266.422 203.897 266.653 203.867 266.872 203.921C267.278 204.078 267.485 204.614 267.917 204.663C268.493 204.729 268.72 203.878 268.479 203.351C268.239 202.824 267.763 202.383 267.723 201.804C267.696 201.414 267.845 200.931 267.533 200.695C267.422 200.624 267.296 200.579 267.165 200.566L259.387 199.134C258.925 199.049 258.257 199.114 258.237 199.584C258.225 199.845 258.459 200.105 258.356 200.345C258.245 200.602 257.882 200.579 257.617 200.67C257.419 200.761 257.256 200.913 257.152 201.105C257.048 201.296 257.009 201.515 257.04 201.731C257.112 202.161 257.278 202.569 257.527 202.927C257.021 202.715 256.255 202.676 255.749 202.464Z" fill="#F2F2F2"/>
<path d="M249.542 195.861C249.052 195.699 248.523 195.692 248.028 195.84C247.533 195.988 247.095 196.285 246.775 196.69C246.7 196.765 246.648 196.86 246.625 196.963C246.602 197.067 246.61 197.174 246.646 197.274C246.8 197.536 247.192 197.432 247.481 197.339C247.905 197.187 248.367 197.176 248.799 197.307C249.07 197.4 249.312 197.565 249.585 197.654C249.717 197.71 249.863 197.728 250.005 197.707C250.147 197.687 250.281 197.627 250.392 197.536C250.553 197.32 250.624 197.05 250.591 196.782C250.604 196.693 250.597 196.602 250.57 196.516C250.543 196.43 250.498 196.35 250.437 196.284C250.327 196.221 250.205 196.185 250.079 196.178C249.797 196.126 249.543 195.977 249.359 195.757" fill="#F2F2F2"/>
<path d="M252.347 195.081C252.237 195.075 252.128 195.097 252.029 195.145C251.931 195.194 251.846 195.267 251.784 195.358C251.722 195.448 251.684 195.554 251.674 195.663C251.664 195.773 251.683 195.883 251.728 195.983C252.065 196.075 252.417 196.098 252.763 196.05C252.936 196.024 253.096 195.946 253.225 195.828C253.354 195.71 253.445 195.557 253.487 195.387C253.079 195.461 252.659 195.381 252.307 195.162" fill="#F2F2F2"/>
<path d="M261.758 193.776C260.84 193.971 259.949 194.274 259.102 194.678C259.501 194.832 259.841 195.109 260.07 195.47C260.299 195.831 260.407 196.256 260.377 196.682C260.341 196.846 260.345 197.016 260.389 197.177C260.486 197.414 260.769 197.503 261.017 197.563C261.464 197.699 261.93 197.759 262.396 197.739C262.629 197.727 262.856 197.657 263.055 197.535C263.254 197.413 263.42 197.244 263.537 197.042C263.605 196.85 263.684 196.663 263.774 196.481C264.37 195.574 266.139 196.671 266.778 195.794C267.004 195.485 266.983 195.02 267.277 194.776C267.429 194.669 267.605 194.602 267.789 194.58C269.075 194.325 270.374 194.14 271.68 194.026C272.298 193.972 273.105 193.75 273.11 193.129C270.779 192.671 268.363 192.996 266.236 194.054C265.469 194.438 264.456 195.245 263.717 194.736C263.441 194.546 263.455 194.033 263.074 193.818C262.654 193.651 262.188 193.636 261.758 193.776Z" fill="#F2F2F2"/>
<path d="M269.381 195.201L270.475 195.412C270.273 195.403 270.072 195.437 269.885 195.512C269.698 195.587 269.529 195.701 269.389 195.846C269.25 195.992 269.143 196.165 269.075 196.355C269.008 196.545 268.982 196.747 268.999 196.948C270.024 197.291 271.141 196.957 272.22 197.003C273.3 197.048 274.555 197.819 274.371 198.884C274.315 199.206 274.13 199.527 274.226 199.839C274.331 200.043 274.454 200.235 274.596 200.415C274.683 200.637 274.707 200.88 274.664 201.115C274.622 201.35 274.515 201.569 274.355 201.747C274.068 202.128 273.683 202.433 273.432 202.838C272.807 203.847 273.162 205.15 273.534 206.277C273.642 206.703 273.841 207.1 274.117 207.441C274.669 208.028 275.569 208.079 276.374 208.091C276.96 208.099 277.632 208.07 278.002 207.616C278.486 207.023 278.148 206.098 278.467 205.402C278.756 204.77 279.493 204.499 280.161 204.306C281.399 204.003 282.612 203.607 283.79 203.122C285.226 202.461 286.569 201.431 288.148 201.346C288.591 201.365 289.035 201.333 289.472 201.253C289.689 201.208 289.886 201.092 290.031 200.923C290.175 200.754 290.26 200.543 290.272 200.321C290.244 199.942 289.924 199.665 289.674 199.38C289.424 199.095 289.228 198.657 289.458 198.355L293.597 197.582C293.303 196.782 293.075 195.729 293.749 195.209C293.992 195.021 294.318 194.946 294.525 194.719C294.674 194.504 294.734 194.239 294.69 193.98C294.647 193.722 294.504 193.491 294.293 193.336C293.855 193.043 293.34 192.887 292.813 192.887C290.994 192.778 289.17 192.795 287.354 192.936L276.69 193.52C275.951 193.49 275.211 193.565 274.492 193.744C273.985 194.029 273.454 194.269 272.906 194.463C271.733 194.709 270.442 194.543 269.381 195.201Z" fill="#F2F2F2"/>
<path d="M288.982 203.85C288.87 203.833 288.756 203.858 288.663 203.922C288.602 203.99 288.565 204.077 288.559 204.168C288.489 204.571 288.573 204.985 288.795 205.329C288.908 205.497 289.064 205.632 289.247 205.72C289.43 205.808 289.634 205.845 289.836 205.828C290.328 205.765 290.692 205.345 291.145 205.139C291.843 204.824 294.808 204.331 292.757 203.223C292.05 202.842 291.593 203.179 291.036 203.43C290.402 203.754 289.692 203.9 288.982 203.85Z" fill="#F2F2F2"/>
<path d="M306.945 194.576C306.705 194.674 306.505 194.848 306.375 195.072C306.315 195.185 306.301 195.318 306.336 195.441C306.371 195.565 306.452 195.67 306.563 195.736C306.652 195.768 306.747 195.783 306.842 195.78L307.816 195.809C308.23 195.821 308.746 195.909 308.857 196.308C308.94 196.604 308.755 196.984 308.978 197.196C309.074 197.27 309.189 197.315 309.309 197.325C309.63 197.407 309.965 197.418 310.291 197.357C310.999 197.167 310.627 196.734 310.85 196.349C311.191 195.76 311.132 196.117 311.734 195.779C312.178 195.53 312.752 195.077 312.382 194.442C311.737 193.337 307.896 194.101 306.945 194.576Z" fill="#F2F2F2"/>
<path d="M326.163 194.02L325.597 194.096C324.317 194.23 323.051 194.472 321.812 194.82C322.344 195.031 322.901 195.167 323.47 195.227C323.783 195.243 324.094 195.287 324.398 195.359C324.941 195.521 325.487 195.938 326.011 195.724C326.336 195.592 326.442 195.253 326.711 195.074C326.897 194.95 327.602 194.75 327.681 194.625C328.318 193.615 326.652 193.955 326.163 194.02Z" fill="#F2F2F2"/>
<path d="M328.646 196.591C327.89 197.013 327.19 197.526 326.559 198.118C326.412 198.226 326.29 198.365 326.201 198.524C326.113 198.684 326.06 198.861 326.046 199.042C326.078 199.526 326.593 199.806 327.04 199.995L328.847 200.761C329.066 200.451 328.866 200.025 328.639 199.721C328.412 199.418 328.143 199.066 328.243 198.701C328.358 198.284 328.866 198.142 329.292 198.07C329.987 197.953 331.861 197.962 331.636 196.842C331.371 195.523 329.343 196.201 328.646 196.591Z" fill="#F2F2F2"/>
<path d="M328.282 271.252C328.183 271.497 328.141 271.762 328.16 272.025C328.179 272.289 328.258 272.544 328.392 272.772C328.574 273.006 328.821 273.182 329.101 273.279C329.382 273.376 329.684 273.389 329.972 273.319C330.548 273.165 331.062 272.835 331.44 272.375C331.786 271.989 332.071 271.553 332.284 271.081C332.582 270.345 332.792 269.576 332.91 268.791L333.471 265.845C333.596 265.186 333.592 263.167 332.381 263.825C332.051 264.005 331.285 265.424 330.938 265.826C330.314 266.551 330.231 267.255 329.902 268.133C329.491 269.233 328.663 270.15 328.282 271.252Z" fill="#F2F2F2"/>
<path d="M392.207 286.33C391.811 286.176 391.427 285.993 391.057 285.783C390.687 286.802 390.49 287.876 390.474 288.96L393.184 287.427C393.592 287.196 394.054 286.876 394.045 286.407C394.049 286.35 394.037 286.292 394.011 286.24C393.984 286.189 393.944 286.145 393.895 286.114C393.835 286.09 393.77 286.082 393.705 286.092C393.308 286.164 392.923 286.288 392.558 286.461C392.375 286.546 392.176 286.591 391.974 286.592C391.772 286.593 391.572 286.55 391.388 286.467" fill="#F2F2F2"/>
<path d="M406.503 287.241C406.206 287.322 405.915 287.426 405.634 287.553C405.012 287.869 404.589 288.47 404.029 288.887C403.473 289.257 402.861 289.538 402.216 289.718C402.178 289.765 402.149 289.82 402.133 289.879C402.117 289.938 402.114 290 402.124 290.061C402.133 290.121 402.155 290.179 402.189 290.23C402.222 290.281 402.266 290.325 402.318 290.358C402.535 290.482 402.784 290.538 403.034 290.519C403.691 290.59 404.355 290.488 404.96 290.222C405.284 290.012 405.588 289.771 405.867 289.503C406.565 288.97 407.333 288.536 408.149 288.212C408.44 288.102 408.71 287.941 408.945 287.736C409.447 287.241 409.483 286.476 408.758 286.308C408.172 286.172 407.061 287.061 406.503 287.241Z" fill="#F2F2F2"/>
<path d="M412.82 283.115C412.852 282.774 412.807 282.43 412.687 282.109C412.567 281.788 412.376 281.499 412.128 281.263C412.186 281.946 412.043 282.632 411.716 283.236C411.443 283.638 411.014 283.909 410.715 284.292C410.547 284.468 410.447 284.697 410.432 284.94C410.417 285.183 410.488 285.423 410.634 285.618C410.858 285.789 411.132 285.883 411.414 285.886C412.113 285.969 412.923 286.015 413.413 285.509C413.681 285.234 413.811 284.825 414.138 284.623C414.259 284.571 414.368 284.494 414.455 284.395C414.59 284.181 414.376 283.898 414.135 283.821C413.894 283.744 413.628 283.78 413.386 283.707C413.143 283.634 412.921 283.361 413.045 283.14" fill="#F2F2F2"/>
<path d="M401.593 258.102C401.226 258.192 400.846 258.214 400.471 258.169C399.867 257.976 399.315 257.644 398.862 257.2C397.667 256.29 396.214 255.783 394.713 255.751C393.347 255.725 391.968 256.095 390.627 255.837C390.692 256.076 390.812 256.297 390.976 256.483C391.141 256.669 391.347 256.814 391.577 256.907C392.022 257.124 392.513 257.234 392.96 257.447C393.676 257.791 394.244 258.382 394.56 259.111C394.672 259.46 394.824 259.794 395.013 260.107C395.271 260.378 395.592 260.582 395.947 260.701C396.302 260.82 396.681 260.85 397.05 260.79C398.023 260.726 399.039 260.446 399.944 260.808C400.597 261.168 401.192 261.625 401.709 262.162C402.287 262.633 403.101 262.983 403.765 262.643C403.076 262.42 402.476 261.982 402.053 261.394C401.63 260.806 401.406 260.098 401.413 259.373C402.064 259.433 403.939 259.41 403.838 258.304C403.753 257.367 402.152 258.001 401.593 258.102Z" fill="#F2F2F2"/>
<path d="M393.078 265.729C393.194 265.095 393.826 264.535 393.629 263.922C393.535 263.719 393.383 263.549 393.191 263.434C393 263.319 392.778 263.265 392.555 263.278C392.11 263.267 391.672 263.4 391.227 263.412C390.937 263.397 390.646 263.401 390.357 263.425C389.473 263.57 388.928 264.497 388.094 264.826C387.567 264.958 387.031 265.058 386.492 265.127C385.295 265.441 384.539 266.572 383.702 267.483C382.351 268.949 380.591 269.975 378.65 270.429C377.955 270.511 377.287 270.751 376.698 271.129C375.982 271.714 375.806 272.717 375.647 273.628C375.207 276.143 374.534 278.611 373.638 281.002L376.478 281.364C377.014 281.471 377.566 281.463 378.098 281.341C378.476 281.198 378.835 281.008 379.164 280.773C380.429 279.988 381.845 279.477 383.319 279.273C384.061 279.134 384.826 279.188 385.541 279.429C385.896 279.555 386.21 279.775 386.449 280.066C386.688 280.357 386.842 280.708 386.896 281.081C387.198 280.987 387.52 280.977 387.827 281.052C388.134 281.126 388.415 281.283 388.64 281.505C389.085 281.958 389.376 282.54 389.473 283.167C389.548 283.556 389.623 284.021 389.983 284.184C390.277 284.317 390.615 284.174 390.937 284.148C392.029 284.061 392.935 285.334 394.008 285.115C395.159 284.88 395.442 283.156 396.565 282.811C397.21 282.612 398.114 282.853 398.423 282.253C398.695 281.725 398.152 281.114 398.208 280.522C398.277 279.793 399.137 279.484 399.8 279.173C400.924 278.592 401.784 277.605 402.204 276.412C402.625 275.22 402.574 273.912 402.063 272.755C401.407 271.411 400.116 270.352 399.877 268.876C399.694 267.739 400.141 266.414 399.417 265.52C399.049 265.065 398.425 264.814 398.205 264.271C398.121 263.913 398.068 263.548 398.048 263.181C397.974 262.82 397.659 262.442 397.303 262.536C396.268 262.807 395.938 266.004 395.384 266.78C395.214 267.032 394.96 267.215 394.667 267.298C394.375 267.38 394.063 267.356 393.786 267.23C393.51 267.104 393.287 266.884 393.157 266.609C393.028 266.334 393 266.022 393.078 265.729Z" fill="#F2F2F2"/>
<path d="M373.952 259.31C373.609 259.172 373.229 259.153 372.874 259.255C372.535 259.397 372.337 259.894 372.609 260.141C374.734 259.996 376.868 260.037 378.986 260.265C381.416 260.598 383.821 261.422 386.262 261.18C384.868 260.768 383.451 260.439 382.018 260.195L379.628 259.738C378.987 259.604 378.339 259.504 377.688 259.438C376.324 259.326 375.293 259.686 373.952 259.31Z" fill="#F2F2F2"/>
<path d="M376.082 251.901C375.905 251.886 375.687 251.874 375.595 252.025C375.508 252.17 375.608 252.362 375.561 252.525C375.497 252.747 375.206 252.804 374.976 252.774C374.754 252.706 374.516 252.708 374.296 252.781C374.193 252.852 374.115 252.954 374.075 253.072C374.035 253.19 374.034 253.318 374.073 253.437C374.156 253.672 374.29 253.886 374.466 254.064C374.767 254.442 375.109 254.786 375.487 255.087C376.218 255.627 377.208 255.887 377.669 256.671C377.734 256.823 377.834 256.957 377.96 257.063C378.082 257.112 378.213 257.13 378.343 257.117C378.473 257.104 378.598 257.06 378.708 256.988L379.542 256.607C379.692 256.552 379.826 256.461 379.932 256.341C380.004 256.197 380.034 256.036 380.019 255.876C380.003 255.716 379.943 255.564 379.846 255.436C379.646 255.182 379.531 254.872 379.515 254.55C379.576 253.98 380.309 253.762 380.61 253.275C380.913 252.784 380.716 252.151 380.751 251.574C380.792 250.9 381.215 250.023 380.534 249.52C379.955 249.092 379.401 249.487 378.985 249.96C378.108 250.956 377.694 252.036 376.082 251.901Z" fill="#F2F2F2"/>
<path d="M381.146 241.829C381.431 242.375 382.025 242.7 382.336 243.231C382.672 243.807 382.634 244.551 382.999 245.109C383.374 245.681 384.128 245.985 384.338 246.637C384.568 247.348 384.047 248.212 384.462 248.833C384.54 248.934 384.637 249.019 384.749 249.08C384.861 249.142 384.984 249.18 385.111 249.192C385.238 249.204 385.366 249.189 385.487 249.148C385.608 249.108 385.72 249.043 385.814 248.957C385.989 248.767 386.083 248.515 386.075 248.257C386.068 247.998 385.959 247.753 385.774 247.573C385.528 247.349 385.175 247.252 384.97 246.991C384.863 246.84 384.792 246.666 384.762 246.484C384.65 245.957 384.668 245.412 384.814 244.894C384.869 244.762 384.883 244.617 384.854 244.478C384.762 244.209 384.398 244.19 384.143 244.066C383.563 243.783 383.578 242.965 383.679 242.328C383.611 242.752 382.101 242.031 381.943 241.791C381.629 241.314 381.8 240.394 381.738 239.867C381.408 240.057 381.164 240.366 381.054 240.731C380.944 241.096 380.977 241.488 381.146 241.829Z" fill="#F2F2F2"/>
<path d="M365.933 250.221C365.654 249.909 365.235 249.582 364.861 249.77C364.727 249.858 364.628 249.99 364.582 250.143C364.536 250.296 364.546 250.461 364.609 250.608C364.745 250.898 364.955 251.148 365.217 251.332C366.029 251.933 366.796 252.591 367.514 253.301C368.73 254.637 369.374 256.44 370.696 257.671C370.962 257.956 371.314 258.146 371.698 258.213C371.89 258.239 372.084 258.192 372.244 258.082C372.403 257.972 372.516 257.806 372.56 257.618C372.556 257.458 372.518 257.302 372.449 257.158C372.38 257.014 372.282 256.886 372.16 256.783C371.646 256.224 371.084 255.71 370.599 255.127C370.375 254.902 370.234 254.608 370.2 254.293C370.198 253.979 370.484 253.65 370.789 253.728C370.419 253.633 370.144 253.016 369.6 252.9C369.146 252.803 369.036 253.084 368.495 252.853C367.464 252.41 366.655 251.029 365.933 250.221Z" fill="#F2F2F2"/>
<path d="M390.162 219.84C389.866 219.752 389.575 219.648 389.291 219.528C388.525 219.299 387.512 219.861 387.614 220.654C387.682 221.181 388.172 221.536 388.443 221.993C388.608 222.351 388.701 222.738 388.715 223.132C388.73 223.527 388.665 223.92 388.526 224.289C388.475 224.524 388.376 224.746 388.237 224.942C388.042 225.149 387.809 225.317 387.551 225.435C386.517 226.015 385.605 226.79 384.866 227.716C384.785 227.802 384.73 227.907 384.704 228.022C384.667 228.29 384.936 228.485 385.088 228.708C385.426 229.204 385.182 229.871 385.215 230.47C385.21 230.555 385.227 230.64 385.264 230.716C385.3 230.793 385.356 230.859 385.425 230.908C385.629 231.011 385.87 230.835 385.981 230.635C386.347 229.972 386.071 228.906 386.758 228.586C386.888 228.526 387.046 228.5 387.133 228.386C387.27 228.205 387.138 227.937 387.207 227.72C387.312 227.395 387.757 227.38 388.098 227.395C388.686 227.419 389.273 227.341 389.834 227.164C390.054 227.111 390.254 226.996 390.409 226.831C390.494 226.69 390.551 226.534 390.576 226.372C390.601 226.209 390.594 226.044 390.555 225.884C390.35 224.259 389.835 222.688 389.039 221.256C389.635 221.399 390.262 221.339 390.82 221.086C391.112 220.91 391.462 220.383 391.317 220.024C391.088 219.457 390.675 219.934 390.162 219.84Z" fill="#F2F2F2"/>
<path d="M312.768 228.777C312.873 229.159 312.879 229.561 312.784 229.946C312.731 230.136 312.609 230.299 312.442 230.405C312.275 230.51 312.075 230.55 311.881 230.517C311.588 230.428 311.419 230.134 311.211 229.909C310.055 228.661 307.447 229.384 306.733 227.84C306.441 227.21 306.639 226.455 306.44 225.789C306.315 225.405 306.066 225.073 305.731 224.846C305.397 224.619 304.996 224.509 304.592 224.534C304.224 224.587 303.866 224.694 303.529 224.851C301.271 225.756 298.901 226.349 296.483 226.614C296.024 226.642 295.569 226.724 295.129 226.86C294.16 227.306 293.392 228.098 292.975 229.08C292.567 230.053 292.069 230.987 291.489 231.87C290.749 232.698 289.9 233.423 288.967 234.025C288.624 234.246 288.339 234.545 288.135 234.897C287.975 235.309 287.918 235.754 287.968 236.193L288.149 241.536C288.124 242.225 288.247 242.912 288.51 243.55C288.894 244.318 289.653 244.821 290.179 245.499C290.716 246.196 290.996 247.057 290.971 247.937C290.96 248.291 290.925 248.709 291.2 248.931C291.368 249.04 291.564 249.096 291.763 249.093L298.991 249.685C300.262 249.789 301.671 249.96 302.501 250.929C302.893 251.386 303.207 252.043 303.807 252.092C304.065 252.077 304.321 252.042 304.573 251.987C304.899 252 305.216 252.097 305.493 252.27C305.77 252.442 305.997 252.684 306.153 252.971C306.698 253.799 306.945 254.787 306.854 255.774C306.795 256.393 306.603 256.995 306.562 257.616C306.404 259.978 308.406 262.03 308.445 264.397C308.468 265.79 307.807 267.091 307.163 268.325C308.203 269.9 307.351 271.998 307.765 273.84C308.158 275.588 309.615 276.956 309.978 278.709C310.144 279.512 310.154 280.5 310.862 280.914C311.173 281.065 311.517 281.134 311.862 281.114C313.943 281.139 316 280.67 317.866 279.747C318.741 279.313 319.649 278.664 319.801 277.699C319.925 276.921 319.53 276.05 319.932 275.372C320.405 274.573 321.618 274.636 322.315 274.022C323.445 273.025 322.564 271.124 323.022 269.688C323.433 268.398 324.85 267.712 325.553 266.554C325.829 266.055 326.027 265.518 326.141 264.96C326.463 263.625 326.663 262.265 326.739 260.894C326.758 260.061 326.819 259.23 326.923 258.404C327.68 253.699 332.332 250.549 333.842 246.029C333.986 245.598 334.054 245.023 333.67 244.779C333.442 244.67 333.184 244.643 332.938 244.702L329.607 245.122C329.197 245.212 328.771 245.187 328.374 245.051C328.18 244.975 328.024 244.826 327.939 244.635C327.855 244.444 327.849 244.228 327.923 244.033C328.489 243.008 327.325 241.713 326.808 240.663C325.416 237.835 323.757 235.145 321.855 232.631C321.734 232.501 321.657 232.336 321.638 232.159L322.584 232.191C322.265 231.045 321.738 229.792 320.625 229.373C319.977 229.197 319.299 229.157 318.635 229.255C316.668 229.295 314.702 229.135 312.768 228.777Z" fill="#F2F2F2"/>
<path d="M318.637 202.968C319.08 203.557 319.711 203.977 320.425 204.158C321.707 204.322 322.628 202.996 323.215 201.846C323.236 202.139 323.372 202.412 323.592 202.607C323.812 202.803 324.1 202.904 324.393 202.891C324.71 202.837 325.012 202.719 325.28 202.544C327.819 201.157 330.663 200.421 333.556 200.405C333.528 200.186 333.582 199.964 333.708 199.782C333.834 199.601 334.023 199.473 334.238 199.422C334.826 199.306 335.356 199.814 335.64 200.342C335.851 200.904 336.159 201.424 336.552 201.878C337.002 202.274 337.875 202.257 338.053 201.684C338.224 201.134 337.652 200.666 337.176 200.341C336.7 200.017 336.198 199.417 336.519 198.939C338.934 198.33 341.398 197.934 343.883 197.754C344.306 197.769 344.728 197.696 345.123 197.54C345.318 197.458 345.48 197.313 345.585 197.129C345.689 196.945 345.73 196.731 345.701 196.522C345.159 196.649 344.59 196.612 344.068 196.415C343.547 196.219 343.095 195.871 342.772 195.417C346.223 195.132 349.894 194.889 352.953 196.513C353.32 197.301 351.449 197.957 351.95 198.667C352.048 198.765 352.167 198.84 352.298 198.885C352.429 198.929 352.569 198.943 352.707 198.926C354.831 199.025 356.961 198.944 359.072 198.683C359.831 198.515 360.61 198.452 361.386 198.495C362.671 198.654 363.769 199.511 365.033 199.79C365.286 199.864 365.552 199.887 365.814 199.856C366.076 199.824 366.329 199.74 366.557 199.609C366.666 199.538 366.76 199.446 366.833 199.338C366.906 199.23 366.956 199.108 366.981 198.98C367.006 198.853 367.004 198.721 366.977 198.594C366.95 198.466 366.897 198.346 366.822 198.239C368.011 197.074 369.986 197.363 371.555 197.921C373.125 198.479 374.611 199.379 376.273 199.504C377.464 199.593 378.671 199.272 379.848 199.476C380.576 199.659 381.294 199.879 381.999 200.135C383.367 200.518 384.813 200.437 386.232 200.455C389.854 200.504 393.437 201.216 396.802 202.556C397.24 202.698 397.641 202.935 397.977 203.25C398.142 203.41 398.255 203.616 398.302 203.842C398.349 204.067 398.327 204.301 398.24 204.514L394.762 204.006C395.09 204.651 395.937 204.761 396.626 204.983C397.314 205.206 398.028 205.966 397.614 206.559C396.868 206.322 396.192 207.068 395.816 207.754C395.439 208.44 394.98 209.262 394.198 209.304C393.498 209.341 392.652 208.745 392.195 209.277C392.826 210.072 393.365 210.935 393.805 211.85C394.255 212.789 394.576 213.972 393.967 214.817C393.871 214.968 393.726 215.081 393.556 215.136C393.058 215.262 392.735 214.653 392.378 214.284C391.868 213.884 391.274 213.606 390.64 213.47C390.031 213.252 389.389 212.823 389.342 212.178C389.363 211.775 389.479 211.383 389.68 211.032C389.942 210.407 390.057 209.73 390.015 209.053C390.012 208.502 389.806 207.972 389.438 207.562C389.248 207.365 388.995 207.242 388.723 207.214C388.451 207.186 388.178 207.256 387.952 207.41C387.756 207.572 387.599 207.832 387.345 207.842C386.895 207.859 386.55 207.076 386.189 207.343C386.231 207.628 386.172 207.919 386.022 208.165C384.943 209.103 383.285 208.706 381.895 209.037C381.233 209.227 380.6 209.503 380.012 209.86C379.792 209.954 379.604 210.111 379.473 210.312C379.406 210.489 379.401 210.685 379.46 210.866C379.519 211.046 379.638 211.202 379.797 211.305C380.122 211.504 380.486 211.629 380.865 211.67C382.561 211.991 384.281 212.488 385.62 213.577C386.958 214.666 387.836 216.467 387.413 218.14L384.069 214.945C384.196 216.286 384.268 217.631 384.285 218.98C384.307 219.244 384.271 219.509 384.179 219.757C383.941 220.283 383.295 220.46 382.728 220.577C382.571 220.607 382.422 220.67 382.29 220.761C382.159 220.853 382.048 220.972 381.966 221.109C381.883 221.247 381.831 221.4 381.812 221.559C381.793 221.718 381.808 221.88 381.856 222.033C382.117 222.669 382.514 223.241 383.018 223.709C383.524 224.18 383.864 224.801 383.989 225.48C384.049 226.164 383.534 226.934 382.85 226.886C382.594 226.836 382.356 226.72 382.159 226.549C381.962 226.379 381.812 226.161 381.725 225.915C381.556 225.423 381.326 224.955 381.04 224.521C380.034 223.311 377.774 223.829 376.873 222.539C376.643 222.8 376.484 223.115 376.41 223.454C376.336 223.794 376.35 224.147 376.451 224.479C376.677 224.378 376.932 224.36 377.17 224.426C377.409 224.492 377.617 224.639 377.759 224.842C378.032 225.254 378.27 225.689 378.471 226.141C378.804 226.719 379.336 227.231 379.382 227.897C379.37 228.149 379.374 228.401 379.395 228.652C379.543 229.037 379.768 229.387 380.055 229.683C380.305 230.094 380.451 230.559 380.48 231.039C380.509 231.518 380.421 231.998 380.224 232.436C379.82 233.307 379.271 234.104 378.601 234.792C377.53 236.08 376.348 237.271 375.067 238.35C374.671 238.619 374.33 238.962 374.064 239.36C373.936 239.562 373.878 239.801 373.898 240.039C373.918 240.278 374.016 240.503 374.177 240.681C373.922 240.693 373.464 240.819 373.209 240.832C373.119 239.807 373.099 238.778 373.15 237.751C372.142 237.267 371.058 238.563 371.188 239.673C371.318 240.783 372.121 241.674 372.692 242.635C373.157 243.317 373.366 244.141 373.281 244.962C373.226 245.367 373.026 245.74 372.719 246.011C372.412 246.282 372.018 246.434 371.609 246.439C370.313 246.326 369.772 244.467 368.489 244.254C368.376 244.227 368.257 244.239 368.151 244.287C367.961 244.392 367.928 244.647 367.917 244.863C367.786 245.925 367.895 247.003 368.235 248.017C368.843 249.453 370.414 250.659 370.084 252.183C368.309 251.358 367.386 249.367 366.967 247.455C366.548 245.544 366.479 243.536 365.727 241.729C365.157 242.46 363.958 241.856 363.437 241.089C362.943 240.362 362.639 239.521 362.16 238.784C361.947 238.398 361.647 238.067 361.284 237.818C360.921 237.568 360.505 237.407 360.068 237.347C359.148 237.304 358.349 237.936 357.647 238.533C357.036 238.985 356.524 239.557 356.139 240.212C355.648 241.2 355.777 242.364 355.753 243.466C355.804 244.669 355.416 245.85 354.662 246.788C353.85 247.661 352.351 247.965 351.455 247.179C351.021 246.727 350.713 246.172 350.558 245.566C349.586 242.727 348.776 239.836 348.133 236.906C347.982 237.574 347.395 238.437 346.834 238.043C346.708 237.937 346.606 237.805 346.534 237.657C345.488 235.883 343.55 234.819 341.591 234.181C339.633 233.543 337.573 233.246 335.636 232.545C334.551 232.152 333.515 231.635 332.547 231.006C332.3 231.368 332.156 231.79 332.13 232.228C332.104 232.666 332.197 233.102 332.399 233.491C332.615 233.872 332.952 234.171 333.356 234.34C333.76 234.509 334.209 234.539 334.632 234.426C335.062 234.289 335.425 233.99 335.852 233.843C336.058 233.749 336.29 233.731 336.507 233.793C336.724 233.854 336.912 233.991 337.038 234.179C337.217 234.572 336.947 235.048 337.081 235.459C337.285 236.085 338.228 236.133 338.558 236.702C338.656 236.927 338.679 237.178 338.624 237.417C338.568 237.656 338.438 237.871 338.251 238.03C337.871 238.34 337.452 238.598 337.005 238.798C335.616 239.57 334.629 240.888 333.416 241.913C332.202 242.939 330.49 243.687 329.044 243.03C329.389 241.284 327.309 240.002 326.927 238.265C326.801 237.693 326.866 237.085 326.686 236.528C326.426 235.721 325.71 235.166 325.123 234.555C324.411 233.805 323.856 232.92 323.491 231.952C323.126 230.984 322.959 229.953 322.999 228.92C323.096 228.207 323.096 227.485 322.999 226.772C322.941 226.416 322.765 226.091 322.5 225.847C322.236 225.603 321.896 225.455 321.537 225.426C319.897 225.499 317.831 225.621 316.97 224.222C316.663 223.723 316.53 222.992 316.974 222.61C317.148 222.499 317.343 222.424 317.547 222.389C317.75 222.354 317.959 222.36 318.161 222.406L321.856 222.77C322.721 222.855 323.655 222.925 324.397 222.473C325.139 222.021 325.46 220.822 324.773 220.29C324.271 219.902 323.372 219.923 323.226 219.305C323.105 218.791 323.674 218.207 323.367 217.777C323.146 217.469 322.65 217.555 322.35 217.786C322.087 218.058 321.802 218.307 321.496 218.529C320.906 218.836 320.201 218.544 319.567 218.346C318.932 218.147 318.082 218.13 317.774 218.72C317.43 219.379 318.079 220.242 317.738 220.903C317.286 221.776 315.757 221.279 315.123 222.03C314.395 222.892 315.618 224.177 315.372 225.278C315.059 225.433 314.711 225.504 314.362 225.484C314.013 225.465 313.675 225.355 313.381 225.166C313.091 224.969 312.861 224.698 312.714 224.38C312.567 224.063 312.508 223.712 312.545 223.364C312.605 222.869 312.864 222.363 312.691 221.895C312.503 221.535 312.194 221.252 311.818 221.097L308.226 219.112C307.893 219.731 308.314 220.497 308.842 220.962C309.369 221.427 310.029 221.777 310.375 222.388C310.594 222.812 310.644 223.303 310.513 223.761C310.382 224.22 310.081 224.611 309.671 224.856C309.62 224.891 309.561 224.915 309.5 224.926C309.438 224.936 309.375 224.934 309.315 224.918C309.258 224.884 309.208 224.839 309.168 224.786C309.128 224.732 309.1 224.672 309.084 224.607C308.451 222.986 307.499 221.387 305.978 220.54C304.457 219.693 302.272 219.867 301.274 221.294C301.037 221.633 300.878 222.019 300.672 222.377C299.575 224.281 297.225 225.183 295.028 225.124C294.814 225.136 294.6 225.085 294.413 224.979C294.058 224.734 294.074 224.214 294.128 223.786L294.359 221.97C294.36 221.599 294.504 221.242 294.761 220.974C295.168 220.654 295.755 220.856 296.273 220.849C296.665 220.83 297.043 220.692 297.354 220.451C297.665 220.211 297.895 219.881 298.012 219.506C298.116 219.128 298.116 218.727 298.01 218.349C297.904 217.971 297.697 217.628 297.411 217.359C297.173 217.136 296.854 216.856 296.98 216.555C297.03 216.472 297.098 216.401 297.178 216.346C297.259 216.292 297.35 216.256 297.446 216.241C298.377 215.971 299.36 215.9 300.275 215.581C300.744 215.454 301.174 215.212 301.526 214.878C301.879 214.543 302.143 214.127 302.295 213.665C302.361 213.376 302.391 213.025 302.651 212.882C302.782 212.826 302.922 212.798 303.063 212.797C303.56 212.727 304.011 212.473 304.33 212.086C304.648 211.699 304.81 211.207 304.784 210.706C305.026 210.591 305.297 210.553 305.561 210.597C305.825 210.64 306.07 210.764 306.261 210.951C306.638 211.332 307.084 211.637 307.577 211.848C308.539 212.11 309.469 211.258 310.466 211.254C310.878 211.326 311.3 211.328 311.714 211.259C312.113 211.115 312.352 210.717 312.659 210.423C312.966 210.128 313.505 209.949 313.788 210.266L313.547 208.478C314.033 208.601 314.54 208.618 315.033 208.529C315.526 208.44 315.995 208.246 316.407 207.961L313.288 206.907C313.179 206.88 313.079 206.826 312.996 206.751C312.769 206.507 312.995 206.126 313.179 205.849C313.62 205.185 313.694 204.091 312.969 203.76C312.474 203.535 311.905 203.806 311.43 204.071L309.153 205.34C309.081 205.773 309.61 206.018 309.938 206.309C310.136 206.486 310.277 206.718 310.341 206.976C310.405 207.233 310.389 207.504 310.297 207.753C310.204 208.002 310.038 208.217 309.821 208.369C309.604 208.522 309.345 208.605 309.08 208.609C309.23 208.804 309.334 209.03 309.385 209.27C309.435 209.511 309.431 209.76 309.373 209.999L307.841 210.109C307.669 210.143 307.491 210.109 307.344 210.012C307.18 209.866 307.203 209.611 307.165 209.396C307.096 209.139 306.952 208.91 306.753 208.735C306.553 208.561 306.306 208.45 306.042 208.416C305.515 208.359 304.982 208.408 304.474 208.561C304.255 208.64 304.015 208.634 303.8 208.545C303.677 208.465 303.583 208.347 303.533 208.209C303.444 207.925 303.429 207.624 303.49 207.333C303.551 207.042 303.686 206.772 303.881 206.548C304.277 206.107 304.714 205.705 305.187 205.347C306.254 204.411 307.038 203.195 307.451 201.837C308.294 201.483 309.167 201.003 310.01 200.65C311.31 199.992 312.768 199.709 314.22 199.834L317.076 199.889C317.923 199.853 318.769 199.975 319.571 200.248C319.971 200.39 320.324 200.639 320.592 200.968C320.861 201.296 321.034 201.692 321.094 202.112C321.11 202.207 321.102 202.305 321.07 202.397C321.038 202.488 320.983 202.57 320.911 202.634C320.8 202.695 320.675 202.723 320.55 202.716C319.761 202.744 319.425 202.94 318.637 202.968Z" fill="#F2F2F2"/>
<path d="M295.875 211.918C295.987 211.812 296.067 211.678 296.107 211.529C296.147 211.381 296.146 211.225 296.103 211.077C295.832 210.972 295.536 210.946 295.25 211C294.964 211.054 294.699 211.186 294.484 211.383C294.315 211.554 294.169 211.747 294.051 211.956C293.831 212.241 293.674 212.568 293.59 212.918C293.505 213.267 293.495 213.63 293.561 213.984C293.579 214.058 293.611 214.129 293.657 214.191C293.702 214.253 293.759 214.305 293.825 214.344C293.922 214.383 294.027 214.4 294.132 214.392C294.546 214.392 294.959 214.367 295.369 214.316C295.621 214.286 295.914 214.214 296.011 213.98C296.139 213.672 295.829 213.323 295.92 213.002C295.979 212.858 296.069 212.729 296.183 212.624C296.24 212.571 296.284 212.505 296.311 212.433C296.338 212.36 296.347 212.282 296.339 212.205C296.303 212.054 296.072 211.968 295.989 212.099" fill="#F2F2F2"/>
<path d="M298.018 209.139C297.651 209.054 297.272 209.03 296.897 209.068C296.814 209.066 296.732 209.084 296.658 209.122C296.587 209.175 296.535 209.25 296.511 209.336C296.432 209.59 296.451 209.864 296.566 210.105C296.68 210.345 296.881 210.534 297.128 210.633C297.262 210.664 297.391 210.716 297.51 210.787C297.827 211.033 297.625 211.535 297.685 211.932C297.752 212.377 298.184 212.751 298.105 213.195C298.042 213.544 297.669 213.821 297.729 214.171C297.792 214.537 298.257 214.647 298.628 214.676C298.843 214.714 299.064 214.689 299.264 214.603C299.466 214.466 299.609 214.259 299.666 214.022C299.818 213.57 299.882 213.094 299.854 212.618C299.852 212.402 299.798 212.189 299.696 211.999C299.584 211.848 299.46 211.706 299.326 211.575C298.615 210.749 299.363 209.517 298.018 209.139Z" fill="#F2F2F2"/>
<path d="M236.71 217.073C238.025 217.073 239.092 216.007 239.092 214.691C239.092 213.376 238.025 212.309 236.71 212.309C235.394 212.309 234.328 213.376 234.328 214.691C234.328 216.007 235.394 217.073 236.71 217.073Z" fill="url(#paint26_linear)"/>
<path d="M258.23 267.999C259.545 267.999 260.612 266.933 260.612 265.617C260.612 264.301 259.545 263.235 258.23 263.235C256.914 263.235 255.848 264.301 255.848 265.617C255.848 266.933 256.914 267.999 258.23 267.999Z" fill="url(#paint27_linear)"/>
<path d="M349.486 216.744C350.802 216.744 351.868 215.678 351.868 214.362C351.868 213.047 350.802 211.98 349.486 211.98C348.171 211.98 347.104 213.047 347.104 214.362C347.104 215.678 348.171 216.744 349.486 216.744Z" fill="url(#paint28_linear)"/>
<path d="M391.377 276.213C392.692 276.213 393.759 275.146 393.759 273.831C393.759 272.515 392.692 271.449 391.377 271.449C390.061 271.449 388.994 272.515 388.994 273.831C388.994 275.146 390.061 276.213 391.377 276.213Z" fill="url(#paint29_linear)"/>
<path d="M313.591 250.914C314.907 250.914 315.974 249.848 315.974 248.532C315.974 247.216 314.907 246.15 313.591 246.15C312.276 246.15 311.209 247.216 311.209 248.532C311.209 249.848 312.276 250.914 313.591 250.914Z" fill="url(#paint30_linear)"/>
<path d="M96.7413 129.121C96.7464 139.661 90.4823 143.344 82.7536 143.348C82.5741 143.348 82.3954 143.346 82.2176 143.342C81.8594 143.334 81.505 143.318 81.1542 143.294C74.1786 142.803 68.7569 138.937 68.7521 129.135C68.7472 118.991 81.7057 106.183 82.6775 105.236L82.6792 105.235C82.7162 105.199 82.735 105.181 82.735 105.181C82.735 105.181 96.7361 118.582 96.7413 129.121Z" fill="url(#paint31_linear)"/>
<path d="M82.2434 141.736L87.3583 134.582L82.2309 142.521L82.2176 143.342C81.8594 143.335 81.5049 143.319 81.1542 143.294L81.7005 132.749L81.6961 132.668L81.7056 132.652L81.7575 131.656L76.6095 123.702L81.7726 130.909L81.7856 131.121L82.1983 123.154L77.7906 114.934L82.2517 121.754L82.6775 105.236L82.6792 105.181L82.6792 105.235L82.6134 118.261L86.994 113.095L82.595 119.383L82.4825 126.516L86.5737 119.669L82.4667 127.565L82.4042 131.532L88.3417 122L82.3817 132.916L82.2434 141.736Z" fill="#3F3D56"/>
<path d="M490.164 126.03C490.164 126.03 492.347 140.768 491.801 141.859C491.255 142.951 493.439 148.955 502.172 147.318C510.906 145.68 514.181 134.218 514.181 134.218C514.181 134.218 507.085 124.938 508.176 122.209L490.164 126.03Z" fill="#A0616A"/>
<path d="M487.708 356.648V374.66L499.17 378.481L496.987 353.918L487.708 356.648Z" fill="#A0616A"/>
<path d="M530.283 358.831L528.646 381.21L538.47 375.206V357.194L530.283 358.831Z" fill="#A0616A"/>
<path d="M475.7 232.196C475.7 232.196 468.604 244.751 470.787 248.571C472.971 252.392 472.971 254.03 472.971 254.03C472.971 254.03 474.062 283.505 481.704 297.697C481.704 297.697 480.066 325.535 483.342 342.456L486.617 359.377L499.171 357.739L500.263 339.727C500.263 339.727 502.446 318.439 500.263 308.614C498.079 298.789 506.267 266.038 506.267 266.038L520.459 313.526C520.459 313.526 521.005 330.993 523.734 342.456C526.463 353.919 527.555 360.469 527.555 360.469L539.563 361.014C539.563 361.014 543.384 325.535 539.563 308.068C539.563 308.068 537.926 254.576 539.563 251.301C541.201 248.026 537.926 237.655 534.651 235.471C531.376 233.288 475.7 232.196 475.7 232.196Z" fill="#2F2E41"/>
<path d="M492.62 370.84C492.62 370.84 492.074 367.565 489.345 367.565H486.616L486.07 371.932L476.245 381.757C476.245 381.757 460.415 393.766 474.061 394.312C487.707 394.857 490.983 388.853 490.983 388.853C490.983 388.853 503.537 385.032 503.537 384.486C503.537 383.94 500.262 370.294 500.262 370.294L498.478 370.698L496.987 374.661L492.62 370.84Z" fill="#2F2E41"/>
<path d="M540.108 370.84C540.108 370.84 534.103 368.656 534.103 370.84V373.023C534.103 373.023 531.92 371.386 531.92 373.023C531.92 374.661 528.645 375.752 528.645 375.752L528.099 373.023C528.099 373.023 524.824 386.123 526.462 387.214C528.099 388.306 533.558 391.035 534.103 392.673C534.649 394.31 535.741 400.314 547.204 398.131C558.666 395.948 551.57 389.398 551.57 389.398L545.566 383.394L540.108 370.84Z" fill="#2F2E41"/>
<path d="M496.441 131.761C504.882 131.761 511.725 124.919 511.725 116.478C511.725 108.037 504.882 101.194 496.441 101.194C488 101.194 481.157 108.037 481.157 116.478C481.157 124.919 488 131.761 496.441 131.761Z" fill="#A0616A"/>
<path d="M499.171 144.316C499.171 144.316 493.226 142.649 491.832 139.662C490.437 136.674 479.521 142.133 479.521 142.133L475.7 190.167L474.335 232.469C474.335 232.469 501.9 243.113 510.634 239.838C519.367 236.563 529.738 234.925 529.738 234.925L531.376 153.049L528.647 137.766C528.647 137.766 515.783 132.383 513.209 132.891C513.209 132.891 510.088 144.862 499.171 144.316Z" fill="#D0CDE1"/>
<path d="M491.403 135.309C491.403 135.309 488.801 137.766 487.709 137.766C486.617 137.766 469.15 138.857 467.512 145.953C465.875 153.049 470.241 173.791 470.241 173.791C470.241 173.791 470.787 195.079 473.517 202.175C476.246 209.27 473.789 213.91 473.789 213.91C473.789 213.91 470.241 232.196 473.517 233.833C476.792 235.471 483.305 237.982 483.305 237.982C483.305 237.982 492.076 228.375 489.346 214.729C486.617 201.083 482.796 181.433 484.98 174.883C487.163 168.333 491.403 135.309 491.403 135.309Z" fill="#263238"/>
<path d="M458.778 213.092L462.599 220.188C462.599 220.188 480.612 240.384 483.887 228.921C487.162 217.458 470.787 214.729 470.787 214.729L465.874 209.816L458.778 213.092Z" fill="#A0616A"/>
<path d="M512.417 131.761C512.417 131.761 533.012 134.491 538.471 139.949C543.929 145.408 539.562 171.062 539.562 171.062C539.562 171.062 533.012 210.363 533.558 212.546C534.104 214.729 534.104 233.288 534.104 233.288C534.104 233.288 527.008 240.93 521.004 238.746C515 236.563 507.358 220.734 515 201.629C518.211 193.602 517.856 185.768 516.365 179.381C512.668 163.796 511.337 147.743 512.417 131.761V131.761Z" fill="#263238"/>
<path d="M543.382 208.725L537.924 213.637C537.924 213.637 506.812 214.729 515 222.917C523.187 231.105 542.837 222.917 542.837 222.917L549.932 215.275L542.837 208.725H543.382Z" fill="#A0616A"/>
<path d="M484.135 100.33L481.326 99.2057C481.326 99.2057 487.2 92.7387 495.373 93.3011L493.074 90.7705C493.074 90.7705 498.693 88.5211 503.8 94.4257C506.486 97.5297 509.592 101.178 511.529 105.288H514.538L513.282 108.053L517.677 110.818L513.166 110.321C513.593 112.708 513.447 115.163 512.739 117.482C512.739 117.482 507.631 111.577 507.631 110.453V113.264C507.631 113.264 504.822 110.734 504.822 109.047L503.29 111.015L502.523 107.922L493.074 111.015L494.606 108.484L488.732 109.328L491.031 106.235C491.031 106.235 486.13 110.606 484.135 112.983C481.431 116.205 479.027 117.201 479.027 117.201C479.027 117.201 476.729 104.548 484.135 100.33Z" fill="#2F2E41"/>
<path d="M471.879 143.77L466.966 145.953C466.966 145.953 447.316 172.154 445.678 177.612C444.041 183.071 442.403 195.625 458.233 215.275L468.058 210.363C468.058 210.363 457.141 194.533 460.962 188.529C464.783 182.525 473.516 172.154 473.516 172.154L471.879 143.77Z" fill="#263238"/>
<path d="M535.196 139.403L538.471 139.949C538.471 139.949 579.41 169.97 576.135 181.433C572.86 192.896 549.934 217.458 549.934 217.458L541.201 209.271C541.201 209.271 560.305 186.891 552.663 181.433C545.022 175.974 535.196 166.695 535.196 166.695V139.403Z" fill="#263238"/>
</g>
<defs>
<linearGradient id="paint0_linear" x1="221.065" y1="42.5752" x2="221.065" y2="311.012" gradientUnits="userSpaceOnUse">
<stop stop-color="#31B8FF"/>
<stop offset="1" stop-opacity="0.8"/>
</linearGradient>
<linearGradient id="paint1_linear" x1="7.13957" y1="45.7979" x2="7.13957" y2="52.1818" gradientUnits="userSpaceOnUse">
<stop stop-color="#30B9FE"/>
<stop offset="1" stop-color="#010E28" stop-opacity="0.9"/>
</linearGradient>
<linearGradient id="paint2_linear" x1="15.2969" y1="45.7979" x2="15.2969" y2="52.1818" gradientUnits="userSpaceOnUse">
<stop stop-color="#30B9FE"/>
<stop offset="1" stop-color="#010E28" stop-opacity="0.9"/>
</linearGradient>
<linearGradient id="paint3_linear" x1="23.4543" y1="45.7979" x2="23.4543" y2="52.1818" gradientUnits="userSpaceOnUse">
<stop stop-color="#30B9FE"/>
<stop offset="1" stop-color="#010E28" stop-opacity="0.9"/>
</linearGradient>
<linearGradient id="paint4_linear" x1="82.6525" y1="158.042" x2="82.6525" y2="163.471" gradientUnits="userSpaceOnUse">
<stop stop-color="#30B9FE"/>
<stop offset="1" stop-color="#010E28" stop-opacity="0.9"/>
</linearGradient>
<linearGradient id="paint5_linear" x1="312.107" y1="66.7542" x2="312.107" y2="67.7411" gradientUnits="userSpaceOnUse">
<stop stop-color="#30B9FE"/>
<stop offset="1" stop-color="#010E28" stop-opacity="0.9"/>
</linearGradient>
<linearGradient id="paint6_linear" x1="312.107" y1="76.623" x2="312.107" y2="77.61" gradientUnits="userSpaceOnUse">
<stop stop-color="#30B9FE"/>
<stop offset="1" stop-color="#010E28" stop-opacity="0.9"/>
</linearGradient>
<linearGradient id="paint7_linear" x1="312.107" y1="86.4919" x2="312.107" y2="87.4787" gradientUnits="userSpaceOnUse">
<stop stop-color="#30B9FE"/>
<stop offset="1" stop-color="#010E28" stop-opacity="0.9"/>
</linearGradient>
<linearGradient id="paint8_linear" x1="312.107" y1="96.3611" x2="312.107" y2="97.348" gradientUnits="userSpaceOnUse">
<stop stop-color="#30B9FE"/>
<stop offset="1" stop-color="#010E28" stop-opacity="0.9"/>
</linearGradient>
<linearGradient id="paint9_linear" x1="312.107" y1="106.23" x2="312.107" y2="107.217" gradientUnits="userSpaceOnUse">
<stop stop-color="#30B9FE"/>
<stop offset="1" stop-color="#010E28" stop-opacity="0.9"/>
</linearGradient>
<linearGradient id="paint10_linear" x1="312.107" y1="116.099" x2="312.107" y2="117.086" gradientUnits="userSpaceOnUse">
<stop stop-color="#30B9FE"/>
<stop offset="1" stop-color="#010E28" stop-opacity="0.9"/>
</linearGradient>
<linearGradient id="paint11_linear" x1="312.107" y1="125.968" x2="312.107" y2="126.955" gradientUnits="userSpaceOnUse">
<stop stop-color="#30B9FE"/>
<stop offset="1" stop-color="#010E28" stop-opacity="0.9"/>
</linearGradient>
<linearGradient id="paint12_linear" x1="312.107" y1="135.837" x2="312.107" y2="136.824" gradientUnits="userSpaceOnUse">
<stop stop-color="#30B9FE"/>
<stop offset="1" stop-color="#010E28" stop-opacity="0.9"/>
</linearGradient>
<linearGradient id="paint13_linear" x1="312.107" y1="145.706" x2="312.107" y2="146.693" gradientUnits="userSpaceOnUse">
<stop stop-color="#30B9FE"/>
<stop offset="1" stop-color="#010E28" stop-opacity="0.9"/>
</linearGradient>
<linearGradient id="paint14_linear" x1="312.107" y1="155.575" x2="312.107" y2="156.562" gradientUnits="userSpaceOnUse">
<stop stop-color="#30B9FE"/>
<stop offset="1" stop-color="#010E28" stop-opacity="0.9"/>
</linearGradient>
<linearGradient id="paint15_linear" x1="312.107" y1="165.444" x2="312.107" y2="166.431" gradientUnits="userSpaceOnUse">
<stop stop-color="#30B9FE"/>
<stop offset="1" stop-color="#010E28" stop-opacity="0.9"/>
</linearGradient>
<linearGradient id="paint16_linear" x1="199.353" y1="151.627" x2="199.353" y2="155.575" gradientUnits="userSpaceOnUse">
<stop stop-color="#30B9FE"/>
<stop offset="1" stop-color="#010E28" stop-opacity="0.9"/>
</linearGradient>
<linearGradient id="paint17_linear" x1="226.493" y1="142.252" x2="226.493" y2="146.2" gradientUnits="userSpaceOnUse">
<stop stop-color="#30B9FE"/>
<stop offset="1" stop-color="#010E28" stop-opacity="0.9"/>
</linearGradient>
<linearGradient id="paint18_linear" x1="253.633" y1="122.514" x2="253.633" y2="126.462" gradientUnits="userSpaceOnUse">
<stop stop-color="#30B9FE"/>
<stop offset="1" stop-color="#010E28" stop-opacity="0.9"/>
</linearGradient>
<linearGradient id="paint19_linear" x1="280.772" y1="131.889" x2="280.772" y2="135.837" gradientUnits="userSpaceOnUse">
<stop stop-color="#30B9FE"/>
<stop offset="1" stop-color="#010E28" stop-opacity="0.9"/>
</linearGradient>
<linearGradient id="paint20_linear" x1="307.912" y1="112.645" x2="307.912" y2="116.593" gradientUnits="userSpaceOnUse">
<stop stop-color="#30B9FE"/>
<stop offset="1" stop-color="#010E28" stop-opacity="0.9"/>
</linearGradient>
<linearGradient id="paint21_linear" x1="335.052" y1="131.889" x2="335.052" y2="135.837" gradientUnits="userSpaceOnUse">
<stop stop-color="#30B9FE"/>
<stop offset="1" stop-color="#010E28" stop-opacity="0.9"/>
</linearGradient>
<linearGradient id="paint22_linear" x1="362.192" y1="102.776" x2="362.192" y2="106.724" gradientUnits="userSpaceOnUse">
<stop stop-color="#30B9FE"/>
<stop offset="1" stop-color="#010E28" stop-opacity="0.9"/>
</linearGradient>
<linearGradient id="paint23_linear" x1="389.331" y1="83.5312" x2="389.331" y2="87.4788" gradientUnits="userSpaceOnUse">
<stop stop-color="#30B9FE"/>
<stop offset="1" stop-color="#010E28" stop-opacity="0.9"/>
</linearGradient>
<linearGradient id="paint24_linear" x1="416.471" y1="93.4004" x2="416.471" y2="97.3479" gradientUnits="userSpaceOnUse">
<stop stop-color="#30B9FE"/>
<stop offset="1" stop-color="#010E28" stop-opacity="0.9"/>
</linearGradient>
<linearGradient id="paint25_linear" x1="307.912" y1="85.5054" x2="307.912" y2="166.431" gradientUnits="userSpaceOnUse">
<stop stop-color="#30B9FE"/>
<stop offset="1" stop-color="#010E28" stop-opacity="0.9"/>
</linearGradient>
<linearGradient id="paint26_linear" x1="236.71" y1="212.309" x2="236.71" y2="217.073" gradientUnits="userSpaceOnUse">
<stop stop-color="#30B9FE"/>
<stop offset="1" stop-color="#010E28" stop-opacity="0.9"/>
</linearGradient>
<linearGradient id="paint27_linear" x1="258.23" y1="263.235" x2="258.23" y2="267.999" gradientUnits="userSpaceOnUse">
<stop stop-color="#30B9FE"/>
<stop offset="1" stop-color="#010E28" stop-opacity="0.9"/>
</linearGradient>
<linearGradient id="paint28_linear" x1="349.486" y1="211.98" x2="349.486" y2="216.744" gradientUnits="userSpaceOnUse">
<stop stop-color="#30B9FE"/>
<stop offset="1" stop-color="#010E28" stop-opacity="0.9"/>
</linearGradient>
<linearGradient id="paint29_linear" x1="391.377" y1="271.449" x2="391.377" y2="276.213" gradientUnits="userSpaceOnUse">
<stop stop-color="#30B9FE"/>
<stop offset="1" stop-color="#010E28" stop-opacity="0.9"/>
</linearGradient>
<linearGradient id="paint30_linear" x1="313.591" y1="246.15" x2="313.591" y2="250.914" gradientUnits="userSpaceOnUse">
<stop stop-color="#30B9FE"/>
<stop offset="1" stop-color="#010E28" stop-opacity="0.9"/>
</linearGradient>
<linearGradient id="paint31_linear" x1="82.7467" y1="105.181" x2="82.7467" y2="143.348" gradientUnits="userSpaceOnUse">
<stop stop-color="#30B9FE"/>
<stop offset="1" stop-color="#010E28" stop-opacity="0.9"/>
</linearGradient>
<clipPath id="clip0">
<rect width="600" height="401.134" fill="white"/>
</clipPath>
</defs>
</svg>
