<svg width="750" height="500" viewBox="0 0 750 500" fill="none" xmlns="http://www.w3.org/2000/svg">
<path d="M165.05 128.71C248.56 57.71 431.56 218.08 498.58 205.06C565.6 192.04 662.3 226.41 644.08 304.93C623.85 392.12 389.46 393.08 287.08 363.06C184.7 333.04 86.2801 195.65 165.05 128.71Z" fill="#F0F0F0"/>
<path d="M655.94 449.76C655.94 449.91 530.15 450.03 375.01 450.03C219.87 450.03 94.0601 449.91 94.0601 449.76C94.0601 449.61 219.82 449.49 375.06 449.49C530.3 449.49 655.94 449.61 655.94 449.76Z" fill="#263238"/>
<path d="M527.72 349.56C523.42 350.25 521.5 355.56 521.87 359.88C522.24 364.2 524.04 368.47 523.56 372.8C522.95 378.3 518.8 382.95 518.31 388.46C517.74 394.96 522.31 400.73 523.71 407.11C524.38 410.21 524.28 413.49 525.44 416.45C526.422 418.968 528.246 421.068 530.602 422.391C532.958 423.715 535.701 424.181 538.362 423.709C541.023 423.237 543.438 421.857 545.195 419.804C546.953 417.751 547.944 415.152 548 412.45C548.09 407.45 545 402.76 545.39 397.78C545.67 394.1 547.82 390.61 547.39 386.95C546.84 382.59 542.8 379.5 541.39 375.35C539.98 371.2 541.33 366.61 540.84 362.25C539.96 354.42 535.62 348.96 527.76 349.59" fill="url(#paint0_linear)"/>
<g opacity="0.2">
<path opacity="0.2" d="M527.72 349.56C523.42 350.25 521.5 355.56 521.87 359.88C522.24 364.2 524.04 368.47 523.56 372.8C522.95 378.3 518.8 382.95 518.31 388.46C517.74 394.96 522.31 400.73 523.71 407.11C524.38 410.21 524.28 413.49 525.44 416.45C526.422 418.968 528.246 421.068 530.602 422.391C532.958 423.715 535.701 424.181 538.362 423.709C541.023 423.237 543.438 421.857 545.195 419.804C546.953 417.751 547.944 415.152 548 412.45C548.09 407.45 545 402.76 545.39 397.78C545.67 394.1 547.82 390.61 547.39 386.95C546.84 382.59 542.8 379.5 541.39 375.35C539.98 371.2 541.33 366.61 540.84 362.25C539.96 354.42 535.62 348.96 527.76 349.59" fill="white"/>
</g>
<path d="M505.76 387.47C505.02 394.73 508.23 403.26 511.96 409.53C515.74 415.832 521.428 420.766 528.2 423.62C528.486 423.884 528.85 424.047 529.237 424.086C529.624 424.124 530.013 424.036 530.345 423.834C530.677 423.631 530.934 423.326 531.078 422.965C531.221 422.603 531.243 422.205 531.14 421.83C531.193 414.129 528.748 406.618 524.172 400.423C519.597 394.229 513.136 389.684 505.76 387.47" fill="url(#paint1_linear)"/>
<path d="M537.36 438.79C537.271 438.667 537.201 438.533 537.15 438.39C537.02 438.08 536.84 437.68 536.63 437.2C536.2 436.2 535.55 434.67 534.72 432.84C532.552 428.075 530.146 423.423 527.51 418.9C524.869 414.381 521.995 410.002 518.9 405.78C517.71 404.15 516.73 402.85 516.04 401.96C515.72 401.55 515.47 401.2 515.26 400.96C515.164 400.842 515.08 400.715 515.01 400.58C515.126 400.678 515.229 400.789 515.32 400.91L516.17 401.91C516.9 402.77 517.91 404.05 519.17 405.65C525.507 414.01 530.821 423.098 535 432.72C535.8 434.57 536.41 436.08 536.8 437.14L537.25 438.36C537.302 438.499 537.339 438.643 537.36 438.79V438.79Z" fill="#263238"/>
<path d="M532.69 369.63C532.731 369.861 532.758 370.095 532.77 370.33C532.77 370.82 532.85 371.49 532.91 372.33C533.03 374.1 533.19 376.6 533.38 379.68C533.78 385.88 534.38 394.46 534.99 403.93C535.6 413.4 536.32 421.93 536.8 428.16C537.03 431.24 537.22 433.74 537.36 435.51C537.42 436.35 537.46 437.01 537.5 437.51C537.522 437.743 537.522 437.977 537.5 438.21C537.5 438.21 537.5 437.97 537.4 437.51C537.3 437.05 537.28 436.36 537.19 435.51C537.02 433.74 536.79 431.25 536.5 428.18C535.94 421.98 535.24 413.42 534.57 403.94C533.9 394.46 533.4 385.94 533.08 379.68C532.94 376.6 532.82 374.1 532.74 372.32C532.74 371.48 532.74 370.82 532.67 370.32C532.653 370.09 532.66 369.859 532.69 369.63Z" fill="#263238"/>
<path d="M526 428.45H544.17V441.79C544.17 442.935 543.944 444.069 543.506 445.127C543.068 446.185 542.426 447.146 541.616 447.956C540.806 448.766 539.845 449.408 538.787 449.846C537.729 450.284 536.595 450.51 535.45 450.51V450.51C533.217 450.508 531.07 449.651 529.45 448.115C527.83 446.578 526.86 444.479 526.74 442.25L526 428.45Z" fill="#263238"/>
<path d="M382.59 205.67C383.737 205.76 384.891 205.617 385.982 205.25C387.073 204.883 388.078 204.3 388.938 203.535C389.798 202.77 390.495 201.84 390.987 200.799C391.478 199.759 391.755 198.63 391.8 197.48C391.98 192.83 392.14 188.12 392.14 188.12C392.14 188.12 399.19 187.47 399.71 180.49C400.23 173.51 400.01 157.39 400.01 157.39C396.139 155.446 391.819 154.57 387.496 154.853C383.174 155.136 379.005 156.568 375.42 159L374.34 159.74L374.7 197.28C374.736 199.409 375.564 201.449 377.023 203C378.482 204.552 380.467 205.504 382.59 205.67V205.67Z" fill="#B78876"/>
<path d="M396.68 169.67C396.585 169.577 396.509 169.466 396.457 169.343C396.406 169.22 396.379 169.088 396.379 168.955C396.379 168.822 396.406 168.69 396.457 168.567C396.509 168.444 396.585 168.333 396.68 168.24C396.821 168.102 396.999 168.009 397.192 167.973C397.386 167.936 397.586 167.957 397.767 168.033C397.948 168.11 398.103 168.238 398.212 168.402C398.321 168.566 398.379 168.758 398.379 168.955C398.379 169.152 398.321 169.344 398.212 169.508C398.103 169.672 397.948 169.8 397.767 169.877C397.586 169.953 397.386 169.974 397.192 169.937C396.999 169.901 396.821 169.808 396.68 169.67Z" fill="#263238"/>
<path d="M399.4 168.5C399.28 168.61 398.63 168.04 397.67 167.98C396.71 167.92 395.98 168.37 395.88 168.24C395.78 168.11 395.95 167.97 396.27 167.75C396.699 167.478 397.205 167.355 397.71 167.4C398.215 167.434 398.696 167.631 399.08 167.96C399.36 168.22 399.45 168.45 399.4 168.5Z" fill="#263238"/>
<path d="M387.56 168.35C387.671 168.426 387.766 168.523 387.838 168.637C387.911 168.75 387.959 168.876 387.982 169.009C388.004 169.142 388 169.277 387.968 169.408C387.937 169.539 387.88 169.662 387.8 169.77C387.645 169.99 387.409 170.14 387.143 170.186C386.878 170.232 386.605 170.17 386.385 170.015C386.165 169.86 386.015 169.624 385.969 169.358C385.924 169.093 385.985 168.82 386.14 168.6C386.215 168.488 386.312 168.393 386.425 168.319C386.538 168.246 386.664 168.196 386.797 168.173C386.929 168.149 387.065 168.153 387.197 168.183C387.328 168.214 387.451 168.271 387.56 168.35Z" fill="#263238"/>
<path d="M388.9 168.71C388.78 168.82 388.13 168.25 387.17 168.19C386.21 168.13 385.48 168.58 385.38 168.45C385.28 168.32 385.45 168.18 385.77 167.97C386.2 167.701 386.704 167.575 387.21 167.61C387.718 167.64 388.201 167.841 388.58 168.18C388.87 168.43 389 168.66 388.9 168.71Z" fill="#263238"/>
<path d="M392.32 176.18C392.827 176.015 393.357 175.937 393.89 175.95C394.14 175.95 394.35 175.89 394.37 175.76C394.398 175.509 394.353 175.256 394.24 175.03L393.6 173.03C392.979 171.333 392.533 169.578 392.27 167.79C393.054 169.414 393.674 171.112 394.12 172.86C394.33 173.56 394.52 174.22 394.72 174.86C394.861 175.192 394.886 175.562 394.79 175.91C394.75 176.006 394.687 176.091 394.607 176.157C394.527 176.223 394.432 176.269 394.33 176.29C394.187 176.308 394.043 176.308 393.9 176.29C393.371 176.347 392.836 176.309 392.32 176.18V176.18Z" fill="#263238"/>
<path d="M389.12 177.05C389.7 177.31 391.79 178.69 393.76 178.72C393.4 179.204 392.887 179.552 392.304 179.708C391.722 179.864 391.104 179.819 390.55 179.58C388.51 178.69 389.12 177.05 389.12 177.05Z" fill="white"/>
<path d="M392.16 188C388.913 187.874 385.778 186.776 383.16 184.85C383.16 184.85 385 190.01 392.01 189.85L392.16 188Z" fill="#A36957"/>
<path d="M374.73 168.32C374.731 168.049 374.627 167.788 374.441 167.591C374.255 167.394 374.001 167.275 373.73 167.26C372.42 167.26 370.29 167.74 370.09 171.34C369.81 176.48 374.75 175.19 374.77 175.05C374.79 174.91 374.74 170.31 374.73 168.32Z" fill="#B78876"/>
<path d="M373.62 173C373.62 173 373.53 173.06 373.38 173.12C373.166 173.208 372.925 173.208 372.71 173.12C372.394 172.898 372.142 172.595 371.981 172.244C371.819 171.893 371.753 171.505 371.79 171.12C371.802 170.678 371.911 170.245 372.11 169.85C372.169 169.693 372.264 169.553 372.387 169.44C372.511 169.327 372.659 169.245 372.82 169.2C372.926 169.178 373.036 169.194 373.131 169.246C373.226 169.297 373.3 169.38 373.34 169.48C373.4 169.62 373.34 169.72 373.39 169.73C373.44 169.74 373.5 169.66 373.47 169.44C373.455 169.311 373.391 169.192 373.29 169.11C373.154 168.994 372.978 168.937 372.8 168.95C372.584 168.976 372.378 169.058 372.202 169.188C372.027 169.318 371.889 169.491 371.8 169.69C371.562 170.127 371.429 170.613 371.41 171.11C371.359 171.567 371.446 172.028 371.657 172.436C371.869 172.843 372.197 173.179 372.6 173.4C372.735 173.444 372.878 173.459 373.02 173.443C373.161 173.428 373.298 173.382 373.42 173.31C373.61 173.15 373.64 173 373.62 173Z" fill="#A36957"/>
<path d="M398.52 155.54C392.783 153.449 386.567 153.05 380.61 154.39C380.61 154.39 374.61 156.48 374.34 159.69C374.178 162.315 374.205 164.949 374.42 167.57H374.79L374.85 172.95H377L377.31 165.68C377.31 165.68 381.42 162.84 381.5 158.42C383.5 158.15 393.34 157 400.04 159.29V157.73C400.037 157.254 399.89 156.791 399.619 156.4C399.348 156.009 398.965 155.709 398.52 155.54V155.54Z" fill="#263238"/>
<path d="M313 421.57L322 417.66L314.78 400.79L301.58 406.38L301.96 407.45C303.7 412.22 311.12 431.56 313.4 434.26C315.89 437.28 313 421.57 313 421.57Z" fill="url(#paint2_linear)"/>
<path d="M304.28 412.44C305.596 411.58 306.549 410.267 306.96 408.75C307.37 407.254 307.202 405.658 306.49 404.28L301.78 406.28L304.28 412.44Z" fill="#263238"/>
<path d="M314.15 429.35C314.15 429.35 314.85 435 313.76 434.72C312.67 434.44 304.42 415.19 301.53 406.38L301.92 406.25L311.34 428.79C311.34 428.79 313.69 428.39 314.15 429.35Z" fill="#263238"/>
<path d="M301.82 406C301.837 406.103 301.868 406.204 301.91 406.3L302.21 407.15C302.54 408 302.93 409.05 303.39 410.28C304.39 412.91 305.86 416.52 307.55 420.47C309.24 424.42 310.84 427.98 312.04 430.53L313.48 433.53L313.88 434.34C313.924 434.438 313.978 434.532 314.04 434.62C314.014 434.515 313.974 434.414 313.92 434.32C313.81 434.07 313.69 433.8 313.56 433.49C313.18 432.67 312.72 431.65 312.18 430.49C311.02 427.93 309.44 424.37 307.75 420.42C306.06 416.47 304.59 412.86 303.54 410.25C303.05 409.03 302.63 407.99 302.3 407.15C302.17 406.84 302.05 406.57 301.95 406.31C301.916 406.203 301.872 406.1 301.82 406V406Z" fill="#455A64"/>
<path d="M311.07 428.9C311.638 428.837 312.212 428.837 312.78 428.9C313.339 429.018 313.882 429.2 314.4 429.44C313.982 428.999 313.416 428.728 312.81 428.68C312.223 428.534 311.602 428.613 311.07 428.9V428.9Z" fill="#455A64"/>
<path d="M311.47 422.84C312.029 423.089 312.642 423.189 313.25 423.13C312.983 422.981 312.686 422.896 312.38 422.88C312.084 422.797 311.773 422.783 311.47 422.84V422.84Z" fill="#455A64"/>
<path d="M311.61 421.17C311.61 421.22 311.87 421.41 312.26 421.59C312.65 421.77 312.98 421.87 313 421.82C313.02 421.77 312.74 421.57 312.35 421.39C311.96 421.21 311.63 421.11 311.61 421.17Z" fill="#455A64"/>
<path d="M312.83 419.62C312.77 419.62 312.89 420.06 313.09 420.55C313.29 421.04 313.51 421.42 313.56 421.39C313.547 421.067 313.457 420.752 313.3 420.47C313.1 420 312.89 419.6 312.83 419.62Z" fill="#455A64"/>
<path d="M313.83 418.85C313.761 419.242 313.821 419.645 314 420C314.081 420.384 314.281 420.734 314.57 421C314.479 420.657 314.359 420.322 314.21 420C314.122 419.605 313.995 419.22 313.83 418.85Z" fill="#455A64"/>
<path d="M313.19 422.79C313.28 423.176 313.439 423.542 313.66 423.87C313.879 424.223 314.127 424.557 314.4 424.87C314.567 425.073 314.754 425.257 314.96 425.42C315.091 425.513 315.251 425.556 315.41 425.54C315.498 425.523 315.578 425.481 315.642 425.418C315.706 425.356 315.751 425.277 315.77 425.19C315.799 424.689 315.652 424.194 315.354 423.791C315.056 423.387 314.627 423.1 314.14 422.98C313.854 422.916 313.557 422.916 313.27 422.98C313.161 422.985 313.055 423.016 312.96 423.07C313.343 423.041 313.728 423.074 314.1 423.17C314.492 423.292 314.839 423.524 315.1 423.84C315.264 424.019 315.39 424.228 315.471 424.457C315.552 424.686 315.585 424.928 315.57 425.17C315.52 425.4 315.28 425.42 315.09 425.27C314.903 425.122 314.729 424.959 314.57 424.78C314.288 424.467 314.031 424.133 313.8 423.78C313.4 423.18 313.22 422.77 313.19 422.79Z" fill="#455A64"/>
<path d="M313.25 423.09C313.536 423.124 313.824 423.053 314.06 422.89C314.326 422.734 314.552 422.518 314.72 422.26C314.844 422.1 314.924 421.912 314.954 421.712C314.984 421.513 314.962 421.309 314.89 421.12C314.856 421.07 314.812 421.027 314.762 420.994C314.711 420.961 314.655 420.938 314.595 420.927C314.536 420.916 314.475 420.917 314.415 420.929C314.356 420.942 314.3 420.966 314.25 421C314.086 421.098 313.946 421.231 313.84 421.39C313.664 421.636 313.517 421.901 313.4 422.18C313.284 422.434 313.226 422.711 313.23 422.99C313.23 422.99 313.33 422.69 313.55 422.25C313.673 421.988 313.824 421.74 314 421.51C314.17 421.27 314.54 420.99 314.7 421.24C314.86 421.49 314.7 421.89 314.55 422.15C314.403 422.389 314.209 422.597 313.98 422.76C313.747 422.891 313.503 423.001 313.25 423.09V423.09Z" fill="#455A64"/>
<path d="M306.58 404.35C306.58 404.35 306.83 404.81 307.07 405.61C307.366 406.656 307.366 407.764 307.07 408.81C306.771 409.854 306.194 410.798 305.4 411.54C304.78 412.1 304.31 412.34 304.33 412.37C304.451 412.345 304.567 412.297 304.67 412.23C304.965 412.063 305.242 411.869 305.5 411.65C306.361 410.922 306.981 409.951 307.281 408.865C307.581 407.778 307.546 406.626 307.18 405.56C307.071 405.243 306.93 404.939 306.76 404.65C306.67 404.44 306.59 404.34 306.58 404.35Z" fill="#455A64"/>
<path d="M314.35 403.09C313.148 403.467 311.969 403.914 310.82 404.43C309.641 404.869 308.492 405.383 307.38 405.97C309.766 405.142 312.103 404.181 314.38 403.09H314.35Z" fill="#455A64"/>
<path d="M306.84 413.86C306.993 414.745 307.262 415.606 307.64 416.42C307.958 417.267 308.381 418.07 308.9 418.81C308.95 418.81 308.42 417.7 307.9 416.34C307.38 414.98 306.9 413.84 306.84 413.86Z" fill="#455A64"/>
<path d="M305.43 410.55C305.37 410.55 305.23 410.74 305.03 410.96C304.83 411.18 304.62 411.34 304.65 411.39C304.68 411.44 304.96 411.39 305.19 411.11C305.42 410.83 305.48 410.57 305.43 410.55Z" fill="#455A64"/>
<path d="M306.44 408.64C306.39 408.64 306.26 408.8 306.16 409.05C306.06 409.3 306.02 409.52 306.07 409.55C306.12 409.58 306.26 409.39 306.36 409.13C306.46 408.87 306.5 408.66 306.44 408.64Z" fill="#455A64"/>
<path d="M306.39 406.55C306.34 406.55 306.44 406.81 306.45 407.1C306.46 407.39 306.45 407.62 306.45 407.65C306.45 407.68 306.68 407.43 306.66 407.08C306.64 406.73 306.43 406.51 306.39 406.55Z" fill="#455A64"/>
<path d="M306.18 405.14C306.12 405.14 306.07 405.28 306.08 405.44C306.09 405.6 306.14 405.73 306.2 405.73C306.26 405.73 306.31 405.6 306.3 405.43C306.29 405.26 306.24 405.14 306.18 405.14Z" fill="#455A64"/>
<path d="M428.47 444.63L429.47 434.88L411.23 432.88L409.63 447.12L410.75 447.31C415.75 448.14 436.25 451.15 439.75 450.49C443.59 449.79 428.47 444.63 428.47 444.63Z" fill="url(#paint3_linear)"/>
<path d="M416.25 447.72C416.145 446.152 415.465 444.678 414.34 443.58C413.239 442.488 411.769 441.85 410.22 441.79L409.66 446.89L416.25 447.72Z" fill="#263238"/>
<path d="M435.83 447.42C435.83 447.42 441.09 449.57 440.31 450.42C439.53 451.27 418.71 448.97 409.62 447.17L409.69 446.76L434 449.59C434 449.59 434.76 447.35 435.83 447.42Z" fill="#263238"/>
<path d="M409.4 446.7L409.71 446.77L410.61 446.92L413.91 447.42C416.7 447.83 420.56 448.34 424.83 448.81C429.1 449.28 432.99 449.62 435.83 449.81L439.16 450.04H440.06C440.166 450.053 440.274 450.053 440.38 450.04H440.07L439.16 449.95L435.84 449.66C433.04 449.41 429.16 449.04 424.89 448.58C420.62 448.12 416.75 447.58 413.96 447.26L410.65 446.82L409.75 446.71C409.634 446.693 409.517 446.69 409.4 446.7V446.7Z" fill="#455A64"/>
<path d="M433.92 449.88C434.129 449.347 434.394 448.837 434.71 448.36C435.09 447.934 435.516 447.552 435.98 447.22C435.391 447.36 434.877 447.717 434.54 448.22C434.137 448.679 433.916 449.269 433.92 449.88Z" fill="#455A64"/>
<path d="M428.84 446.56C428.89 446.56 429.18 446.31 429.49 445.92C429.8 445.53 430.01 445.19 429.97 445.15C429.93 445.11 429.63 445.39 429.31 445.78C428.99 446.17 428.79 446.52 428.84 446.56Z" fill="#455A64"/>
<path d="M427.45 445.62C427.45 445.67 427.79 445.51 428.13 445.26C428.47 445.01 428.73 444.77 428.69 444.72C428.65 444.67 428.35 444.83 428.01 445.08C427.67 445.33 427.41 445.57 427.45 445.62Z" fill="#455A64"/>
<path d="M426.7 443.8C426.993 443.944 427.314 444.019 427.64 444.02C428.16 444.08 428.64 444.09 428.64 444.02C428.348 443.876 428.026 443.801 427.7 443.8C427.14 443.74 426.71 443.73 426.7 443.8Z" fill="#455A64"/>
<path d="M426.51 442.55C426.795 442.785 427.143 442.931 427.51 442.97C427.871 443.088 428.259 443.088 428.62 442.97C428.269 442.876 427.911 442.813 427.55 442.78C427.211 442.673 426.863 442.596 426.51 442.55Z" fill="#455A64"/>
<path d="M429.63 445C430.01 445.107 430.406 445.147 430.8 445.12C431.23 445.107 431.658 445.06 432.08 444.98C432.338 444.935 432.589 444.861 432.83 444.76C432.977 444.694 433.094 444.577 433.16 444.43C433.171 444.351 433.161 444.27 433.134 444.195C433.106 444.12 433.06 444.053 433 444C432.576 443.732 432.072 443.62 431.574 443.682C431.077 443.744 430.616 443.977 430.27 444.34C430.067 444.552 429.91 444.804 429.81 445.08C429.765 445.177 429.741 445.283 429.74 445.39C429.899 445.043 430.116 444.725 430.38 444.45C430.678 444.171 431.049 443.984 431.45 443.91C431.687 443.856 431.932 443.85 432.171 443.893C432.41 443.936 432.637 444.027 432.84 444.16C433.01 444.32 432.92 444.53 432.7 444.63C432.477 444.72 432.246 444.79 432.01 444.84C431.602 444.931 431.187 444.992 430.77 445.02C430.08 445.05 429.63 445 429.63 445Z" fill="#455A64"/>
<path d="M429.93 445.13C430.095 444.897 430.172 444.614 430.15 444.33C430.149 444.019 430.07 443.713 429.92 443.44C429.84 443.255 429.715 443.093 429.556 442.968C429.397 442.844 429.209 442.762 429.01 442.73C428.888 442.745 428.776 442.806 428.698 442.901C428.62 442.996 428.581 443.117 428.59 443.24C428.597 443.428 428.645 443.612 428.73 443.78C428.861 444.054 429.022 444.312 429.21 444.55C429.54 444.95 429.81 445.12 429.83 445.1C429.85 445.08 429.62 444.86 429.34 444.46C429.177 444.22 429.037 443.966 428.92 443.7C428.79 443.43 428.73 442.98 429.03 442.96C429.33 442.94 429.59 443.28 429.74 443.54C429.882 443.785 429.968 444.058 429.99 444.34C429.991 444.605 429.971 444.869 429.93 445.13V445.13Z" fill="#455A64"/>
<path d="M410.32 441.75C410.32 441.75 410.85 441.75 411.66 441.94C412.721 442.177 413.694 442.709 414.466 443.475C415.237 444.241 415.776 445.21 416.02 446.27C416.22 447.08 416.19 447.61 416.23 447.61C416.247 447.487 416.247 447.363 416.23 447.24C416.237 446.904 416.207 446.569 416.14 446.24C415.931 445.131 415.389 444.111 414.588 443.316C413.786 442.522 412.761 441.989 411.65 441.79C411.321 441.725 410.985 441.698 410.65 441.71C410.539 441.705 410.427 441.718 410.32 441.75V441.75Z" fill="#455A64"/>
<path d="M413 434.37C412.735 435.597 412.545 436.84 412.43 438.09C412.237 439.335 412.123 440.591 412.09 441.85C412.349 440.619 412.536 439.373 412.65 438.12C412.837 436.878 412.954 435.626 413 434.37V434.37Z" fill="#455A64"/>
<path d="M418.73 446.19C420.456 446.711 422.26 446.924 424.06 446.82C424.06 446.76 422.86 446.7 421.39 446.52C419.92 446.34 418.75 446.13 418.73 446.19Z" fill="#455A64"/>
<path d="M415.16 445.8C415.11 445.8 415.23 446.06 415.32 446.35C415.41 446.64 415.45 446.88 415.52 446.88C415.59 446.88 415.64 446.61 415.52 446.28C415.4 445.95 415.2 445.76 415.16 445.8Z" fill="#455A64"/>
<path d="M414 444C413.95 444 414 444.24 414.21 444.46C414.42 444.68 414.56 444.81 414.6 444.77C414.64 444.73 414.55 444.53 414.39 444.32C414.23 444.11 414 443.94 414 444Z" fill="#455A64"/>
<path d="M412.15 443C412.15 443.06 412.4 443.08 412.66 443.21C412.92 443.34 413.09 443.5 413.14 443.46C413.19 443.42 413.07 443.15 412.75 443.01C412.43 442.87 412.14 442.94 412.15 443Z" fill="#455A64"/>
<path d="M410.82 442.49C410.82 442.54 410.88 442.65 411.03 442.72C411.18 442.79 411.31 442.81 411.34 442.72C411.37 442.63 411.28 442.56 411.13 442.48C410.98 442.4 410.85 442.43 410.82 442.49Z" fill="#455A64"/>
<path d="M375.34 297C375.34 297 373.47 334.38 367.5 353.7C361.53 373.02 346.09 377.55 336.06 383.7C326.48 389.55 305.06 400.58 305.06 400.58L316.81 421.51C316.81 421.51 375.81 397.4 386.52 375.3C394.78 358.29 404 327 404 327L375.34 297Z" fill="#263238"/>
<path d="M408.5 280.67C408.5 280.67 432.62 332.81 439.06 346.96C439.731 348.442 440.029 350.066 439.93 351.69L434.49 439L409.4 437.42L413.16 353.2L371.24 299.32C367.632 294.748 365.091 289.429 363.8 283.75C363.37 281.894 363.156 279.995 363.16 278.09V278.09L408.5 280.66" fill="#263238"/>
<path d="M477 175.12C475.61 174.61 472.66 182.12 472.36 180.12C472.06 178.12 477.04 171.39 475.56 170.91C473.64 170.3 470.69 178.19 470.39 178.84C470.09 179.49 469.14 179.08 469.45 178.51C469.88 177.68 474.21 168.94 472.33 168.32C471.28 167.97 470.84 169.91 470.84 169.91C470.84 169.91 467.39 178.39 466.51 178.06C465.63 177.73 467.51 172.69 468.22 171.06C468.93 169.43 468.48 168.41 467.49 168.68C466.81 168.87 464.4 173.89 463.7 175.55C463 177.21 461.16 181.78 460.23 178.79C459.3 175.8 457.46 173.84 456.59 173.66C456.391 173.65 456.195 173.7 456.024 173.803C455.854 173.906 455.719 174.057 455.635 174.238C455.551 174.418 455.523 174.619 455.555 174.816C455.586 175.012 455.675 175.194 455.81 175.34C456.436 176.195 456.938 177.134 457.3 178.13C457.631 178.914 457.82 179.75 457.86 180.6C457.976 182.304 457.926 184.016 457.71 185.71L440 216.48L412.5 205.7L408.5 221.45C408.5 221.45 444.63 237.9 446.92 236.69C452.08 233.97 468.75 189.05 468.75 189.05C471.179 186.018 473.443 182.857 475.53 179.58C477.84 175.52 477.48 175.31 477 175.12Z" fill="#B78876"/>
<path d="M429.22 211.35C421.58 207.42 416.17 205.09 412 202.41C399 194.09 395.62 195.93 392.57 195.55C390.01 196.34 386.21 197.83 384.78 198.1C383.35 198.37 378.09 196.59 374.7 195.54C366.81 195.88 361.97 199.23 354.7 204.6L342.78 214.6L357.85 229.77L362.9 227.16C363.75 233.99 363.54 236.66 363.85 244.91L363.18 278.07L412.24 280.85L409.54 249.1L408.35 224.1L422.35 231.1L429.26 211.32" fill="url(#paint4_linear)"/>
<g opacity="0.2">
<path opacity="0.2" d="M429.22 211.35C421.58 207.42 416.17 205.09 412 202.41C399 194.09 395.62 195.93 392.57 195.55C390.01 196.34 386.21 197.83 384.78 198.1C383.35 198.37 378.09 196.59 374.7 195.54C366.81 195.88 361.97 199.23 354.7 204.6L342.78 214.6L357.85 229.77L362.9 227.16C363.75 233.99 363.54 236.66 363.85 244.91L363.18 278.07L412.24 280.85L409.54 249.1L408.35 224.1L422.35 231.1L429.26 211.32" fill="black"/>
</g>
<path d="M374.34 196.47V191.38C374.34 191.38 383.09 192.3 384.87 198.38L374.34 196.47Z" fill="url(#paint5_linear)"/>
<path d="M392.57 195.55L392.24 191.38C390.428 191.614 388.737 192.418 387.412 193.676C386.087 194.935 385.197 196.582 384.87 198.38L392.57 195.55Z" fill="url(#paint6_linear)"/>
<path d="M342.76 214.63L357.83 229.8L359.53 228.92L343.84 213.72L342.72 214.63" fill="url(#paint7_linear)"/>
<path d="M428.01 210.73L420.62 230.28L422.31 231.13L429.78 211.67L428.01 210.73Z" fill="#455A64"/>
<path d="M393.61 214.37V220.8L397.06 222.99L400.05 220.93V214.37H393.61Z" fill="url(#paint8_linear)"/>
<path d="M399.89 216C398.842 216.246 397.762 216.321 396.69 216.22C395.614 216.292 394.534 216.19 393.49 215.92C394.537 215.667 395.619 215.593 396.69 215.7C397.766 215.629 398.846 215.731 399.89 216Z" fill="url(#paint9_linear)"/>
<path opacity="0.2" d="M399.89 216C398.842 216.246 397.762 216.321 396.69 216.22C395.614 216.292 394.534 216.19 393.49 215.92C394.537 215.667 395.619 215.593 396.69 215.7C397.766 215.629 398.846 215.731 399.89 216Z" fill="black"/>
<path d="M384.58 208.19C384.317 206.621 384.23 205.028 384.32 203.44C384.23 201.849 384.317 200.252 384.58 198.68C384.837 200.253 384.924 201.849 384.84 203.44C384.924 205.028 384.837 206.621 384.58 208.19Z" fill="url(#paint10_linear)"/>
<path d="M386.43 200C386.43 199.94 386.65 199.82 386.93 200.06C387.009 200.133 387.068 200.224 387.103 200.325C387.138 200.426 387.147 200.534 387.13 200.64C387.105 200.78 387.036 200.908 386.934 201.007C386.831 201.105 386.701 201.169 386.56 201.19C386.419 201.216 386.274 201.199 386.143 201.14C386.013 201.081 385.903 200.983 385.83 200.86C385.78 200.764 385.754 200.658 385.754 200.55C385.754 200.442 385.78 200.336 385.83 200.24C386.01 199.93 386.28 199.96 386.28 200.02C386.28 200.08 386.19 200.19 386.17 200.37C386.15 200.55 386.24 200.71 386.46 200.68C386.68 200.65 386.71 200.48 386.63 200.3C386.55 200.12 386.44 200 386.43 200Z" fill="url(#paint11_linear)"/>
<path d="M387.05 203.78C387.05 203.71 387.33 203.71 387.49 204.03C387.537 204.125 387.561 204.229 387.561 204.335C387.561 204.441 387.537 204.545 387.49 204.64C387.453 204.736 387.396 204.824 387.322 204.896C387.249 204.969 387.161 205.025 387.064 205.061C386.967 205.098 386.864 205.113 386.761 205.106C386.658 205.099 386.558 205.071 386.466 205.022C386.375 204.974 386.295 204.906 386.232 204.825C386.169 204.743 386.123 204.649 386.099 204.549C386.075 204.448 386.072 204.344 386.091 204.243C386.111 204.141 386.151 204.045 386.21 203.96C386.41 203.66 386.67 203.69 386.67 203.75C386.67 203.81 386.58 203.92 386.55 204.11C386.52 204.3 386.55 204.48 386.83 204.5C387.11 204.52 387.16 204.35 387.15 204.14C387.14 203.93 387 203.84 387.05 203.78Z" fill="url(#paint12_linear)"/>
<path d="M270.71 361.61L246.07 282.35C245.366 280.081 245.117 277.695 245.335 275.329C245.554 272.964 246.237 270.664 247.345 268.562C248.453 266.461 249.964 264.598 251.792 263.081C253.621 261.564 255.73 260.422 258 259.72L456.69 197.87C458.957 197.164 461.342 196.911 463.706 197.127C466.071 197.342 468.371 198.021 470.473 199.125C472.575 200.229 474.44 201.737 475.959 203.562C477.479 205.386 478.625 207.493 479.33 209.76L503.93 289C504.637 291.271 504.889 293.659 504.672 296.028C504.455 298.397 503.773 300.699 502.665 302.804C501.557 304.909 500.044 306.775 498.214 308.294C496.384 309.814 494.273 310.958 492 311.66L293.35 373.51C288.77 374.933 283.812 374.479 279.566 372.247C275.321 370.016 272.135 366.19 270.71 361.61V361.61Z" fill="#263238"/>
<path d="M496.87 291.13L492.1 275.76C491.761 274.757 491.037 273.93 490.089 273.459C489.14 272.989 488.044 272.914 487.04 273.25L484.25 274.11C483.246 274.446 482.15 274.371 481.201 273.901C480.253 273.43 479.53 272.603 479.19 271.6L469.88 241.6C469.59 240.582 469.715 239.49 470.229 238.564C470.743 237.638 471.602 236.953 472.62 236.66L475.41 235.79C475.921 235.645 476.397 235.401 476.812 235.07C477.227 234.739 477.572 234.329 477.827 233.864C478.082 233.399 478.242 232.887 478.298 232.359C478.353 231.832 478.303 231.298 478.15 230.79L476.47 225.39L472.28 212C471.788 210.411 470.987 208.936 469.923 207.657C468.86 206.378 467.555 205.322 466.082 204.548C464.61 203.775 463 203.299 461.344 203.148C459.687 202.997 458.018 203.175 456.43 203.67L262.5 264.07C260.913 264.563 259.438 265.363 258.16 266.426C256.882 267.489 255.826 268.793 255.053 270.264C254.279 271.735 253.803 273.344 253.652 274.999C253.5 276.654 253.676 278.323 254.17 279.91L278.76 359C279.254 360.588 280.055 362.063 281.119 363.341C282.183 364.619 283.488 365.675 284.96 366.448C286.431 367.222 288.041 367.698 289.697 367.849C291.353 368 293.022 367.824 294.61 367.33L488.55 307C490.139 306.505 491.615 305.702 492.894 304.637C494.172 303.571 495.228 302.264 496.001 300.79C496.773 299.316 497.248 297.704 497.397 296.047C497.546 294.389 497.367 292.718 496.87 291.13Z" fill="white"/>
<path d="M430 242.69C429.956 242.899 429.892 243.103 429.81 243.3L429.19 245.01V245.11H429.1L424.97 243.35L425.18 243.28C423.97 245.61 422.48 248.48 420.8 251.74L420.69 251.44L424.56 253.24L424.73 253.32V253.49C424.569 254.542 424.277 255.57 423.86 256.55C423.455 257.617 422.737 258.537 421.8 259.19C421.542 259.344 421.262 259.459 420.97 259.53L420.53 259.64H420C419.699 259.646 419.399 259.605 419.11 259.52C418.816 259.467 418.531 259.376 418.26 259.25C417.121 258.797 416.172 257.968 415.57 256.9C414.984 255.829 414.743 254.603 414.88 253.39C414.948 252.804 415.092 252.229 415.31 251.68C415.53 251.13 415.81 250.68 416.06 250.16C417.06 248.16 418.06 246.31 418.99 244.51C419.92 242.71 420.82 241 421.65 239.39C422.032 238.595 422.466 237.827 422.95 237.09C423.208 236.749 423.531 236.462 423.9 236.246C424.269 236.03 424.677 235.888 425.1 235.83C425.816 235.756 426.54 235.846 427.216 236.094C427.891 236.342 428.502 236.741 429 237.26C429.746 238.038 430.226 239.032 430.37 240.1C430.465 240.769 430.421 241.449 430.24 242.1C430.196 242.268 430.14 242.431 430.07 242.59C430.07 242.7 429.99 242.75 429.99 242.74C430.235 241.896 430.296 241.01 430.17 240.14C429.997 239.132 429.514 238.202 428.79 237.48C428.32 237.005 427.748 236.644 427.117 236.422C426.487 236.2 425.814 236.124 425.15 236.2C424.398 236.319 423.723 236.728 423.27 237.34C422.81 238.065 422.399 238.82 422.04 239.6L419.42 244.74L416.51 250.41C415.94 251.324 415.562 252.345 415.4 253.41C415.267 254.513 415.488 255.63 416.03 256.6C416.573 257.569 417.43 258.324 418.46 258.74C418.925 258.975 419.439 259.097 419.96 259.097C420.481 259.097 420.995 258.975 421.46 258.74C422.31 258.145 422.961 257.309 423.33 256.34C423.73 255.405 424.013 254.424 424.17 253.42L424.31 253.66L420.45 251.83L420.24 251.73L420.35 251.53L424.85 243.12L424.92 242.99L425.05 243.05L429.13 244.92L429 244.97L429.71 243.29C429.785 243.08 429.883 242.879 430 242.69V242.69Z" fill="url(#paint13_linear)"/>
<path d="M410.83 263C410.83 263 410.97 263.4 411.38 264.08C411.9 264.921 412.642 265.602 413.524 266.049C414.406 266.495 415.395 266.689 416.38 266.61C417.358 266.447 418.317 266.182 419.24 265.82L426.24 263.55L434.68 260.81L436.99 260.06C437.784 259.855 438.548 259.546 439.26 259.14C439.954 258.688 440.528 258.076 440.935 257.356C441.343 256.635 441.571 255.827 441.6 255C441.596 254.118 441.419 253.245 441.08 252.43L440.23 249.77C439.65 247.99 439.07 246.16 438.47 244.31L434.78 232.8C434.476 231.869 433.915 231.043 433.161 230.419C432.407 229.794 431.491 229.396 430.52 229.27C429.558 229.169 428.586 229.307 427.69 229.67L424.88 230.57L414.16 234L409.16 235.59C408.364 235.797 407.59 236.082 406.85 236.44C406.171 236.826 405.586 237.359 405.14 238C404.715 238.608 404.425 239.301 404.293 240.031C404.16 240.761 404.186 241.511 404.37 242.23C404.78 243.63 405.23 244.99 405.63 246.28L409.48 258.54C409.91 259.97 410.25 261.08 410.48 261.88C410.58 262.24 410.67 262.53 410.73 262.75C410.764 262.851 410.787 262.955 410.8 263.06C410.75 262.968 410.71 262.871 410.68 262.77C410.6 262.55 410.5 262.27 410.38 261.91C410.11 261.12 409.74 260.01 409.27 258.6C408.27 255.69 406.95 251.52 405.27 246.39C404.86 245.1 404.4 243.77 403.97 242.33C403.77 241.554 403.737 240.743 403.875 239.954C404.013 239.164 404.318 238.412 404.77 237.75C405.253 237.053 405.885 236.472 406.62 236.05C407.386 235.674 408.186 235.373 409.01 235.15L414.01 233.54L424.73 230.09L427.54 229.19C428.491 228.806 429.521 228.662 430.54 228.77C431.608 228.906 432.615 229.343 433.444 230.03C434.273 230.717 434.889 231.626 435.22 232.65C436.48 236.6 437.72 240.44 438.91 244.16L440.65 249.63L441.5 252.29C441.852 253.157 442.032 254.084 442.03 255.02C441.999 255.936 441.744 256.831 441.29 257.627C440.835 258.424 440.193 259.097 439.42 259.59C438.677 260.012 437.879 260.332 437.05 260.54L434.73 261.28L426.27 263.96L419.27 266.16C418.323 266.514 417.341 266.765 416.34 266.91C415.317 266.989 414.292 266.775 413.385 266.294C412.478 265.812 411.727 265.082 411.22 264.19C411.028 263.816 410.897 263.415 410.83 263V263Z" fill="#263238"/>
<path d="M424 304.05C424 304.05 424.14 304.45 424.55 305.13C425.16 306.111 426.067 306.872 427.14 307.3C427.911 307.607 428.744 307.727 429.57 307.65C430.545 307.489 431.5 307.228 432.42 306.87L439.42 304.59L447.86 301.86L450.18 301.11C450.97 300.903 451.73 300.594 452.44 300.19C453.145 299.736 453.73 299.118 454.143 298.388C454.556 297.658 454.785 296.838 454.81 296C454.808 295.115 454.635 294.239 454.3 293.42L453.44 290.77L451.68 285.3C450.49 281.59 449.25 277.74 447.99 273.8C447.689 272.869 447.13 272.043 446.377 271.418C445.625 270.793 444.71 270.395 443.74 270.27C442.778 270.169 441.806 270.306 440.91 270.67L438.1 271.57L427.31 275L422.31 276.59C421.515 276.799 420.741 277.083 420 277.44C419.01 278.001 418.232 278.871 417.784 279.917C417.336 280.963 417.243 282.127 417.52 283.23C417.93 284.62 418.39 285.99 418.79 287.23L422.63 299.49C423.07 300.91 423.41 302.03 423.63 302.83L423.88 303.7C423.92 303.799 423.944 303.904 423.95 304.01C423.9 303.918 423.86 303.821 423.83 303.72C423.76 303.5 423.66 303.22 423.53 302.86C423.27 302.07 422.89 300.96 422.42 299.55C421.42 296.63 420.1 292.47 418.42 287.34C418 286.04 417.55 284.72 417.11 283.28C416.909 282.503 416.877 281.692 417.017 280.902C417.157 280.112 417.465 279.361 417.92 278.7C418.402 278.005 419.03 277.425 419.76 277C420.527 276.626 421.327 276.324 422.15 276.1L427.15 274.49L437.86 271.04L440.67 270.14C441.636 269.749 442.684 269.604 443.72 269.72C444.79 269.855 445.798 270.292 446.629 270.979C447.459 271.666 448.077 272.575 448.41 273.6L452.09 285.11C452.68 286.97 453.27 288.79 453.84 290.58C454.12 291.48 454.4 292.36 454.68 293.23C455.032 294.1 455.212 295.031 455.21 295.97C455.18 296.884 454.927 297.777 454.474 298.572C454.021 299.366 453.381 300.038 452.61 300.53C451.868 300.973 451.067 301.31 450.23 301.53L447.91 302.27L439.48 305L432.48 307.19C431.534 307.548 430.551 307.803 429.55 307.95C428.693 308.01 427.834 307.87 427.04 307.54C425.938 307.082 425.019 306.269 424.43 305.23C424.226 304.862 424.08 304.464 424 304.05V304.05Z" fill="#263238"/>
<path d="M439.4 299.4C440.213 299.049 441.001 298.645 441.76 298.19C443.785 296.885 445.313 294.937 446.1 292.66C446.684 290.988 446.839 289.197 446.55 287.45C446.262 285.702 445.54 284.056 444.45 282.66C443.165 281.017 441.427 279.786 439.45 279.12C437.324 278.402 435.024 278.385 432.888 279.07C430.751 279.756 428.891 281.109 427.58 282.93C426.35 284.613 425.654 286.627 425.58 288.71C425.522 290.191 425.774 291.667 426.319 293.045C426.864 294.423 427.69 295.672 428.745 296.713C429.8 297.754 431.06 298.563 432.445 299.089C433.831 299.616 435.31 299.848 436.79 299.77C437.67 299.698 438.545 299.571 439.41 299.39C438.58 299.722 437.702 299.921 436.81 299.98C434.33 300.178 431.857 299.514 429.81 298.1C428.401 297.131 427.236 295.847 426.41 294.35C425.473 292.615 425.014 290.661 425.08 288.69C425.106 287.627 425.295 286.575 425.64 285.57C425.989 284.516 426.502 283.524 427.16 282.63C428.534 280.721 430.483 279.303 432.722 278.583C434.961 277.863 437.371 277.879 439.6 278.63C441.671 279.324 443.488 280.619 444.82 282.35C445.945 283.808 446.684 285.527 446.967 287.347C447.25 289.167 447.069 291.029 446.44 292.76C445.597 295.092 443.976 297.063 441.85 298.34C441.095 298.821 440.268 299.179 439.4 299.4V299.4Z" fill="url(#paint14_linear)"/>
<path d="M440.12 299.24C439.98 299.24 438.37 294.64 436.52 288.86C434.67 283.08 433.28 278.37 433.41 278.33C433.54 278.29 435.16 282.93 437.02 288.7C438.88 294.47 440.26 299.2 440.12 299.24Z" fill="url(#paint15_linear)"/>
<path d="M426 292.77C426.159 292.748 426.321 292.748 426.48 292.77L427.85 292.98C428.56 293.119 429.278 293.215 430 293.27C430.953 293.372 431.911 293.419 432.87 293.41C435.366 293.483 437.847 293.009 440.14 292.02C441.464 291.391 442.671 290.543 443.71 289.51C444.807 288.393 445.637 287.043 446.14 285.56L446.24 285.84C446.07 285.72 445.85 285.6 445.65 285.48C442.939 283.857 439.805 283.08 436.65 283.25C434.089 283.467 431.688 284.583 429.87 286.4C428.63 287.62 427.576 289.015 426.74 290.54C426.459 291.118 426.145 291.679 425.8 292.22C425.842 292.058 425.899 291.901 425.97 291.75C426.11 291.45 426.27 290.99 426.57 290.45C427.331 288.861 428.345 287.406 429.57 286.14C431.428 284.219 433.91 283.024 436.57 282.77C439.82 282.574 443.054 283.362 445.85 285.03L446.47 285.41L446.64 285.52L446.58 285.69C446.059 287.264 445.18 288.695 444.01 289.87C442.926 290.94 441.664 291.814 440.28 292.45C437.921 293.447 435.368 293.901 432.81 293.78C431.839 293.768 430.871 293.691 429.91 293.55C429.183 293.474 428.461 293.35 427.75 293.18L426.4 292.87C426.263 292.855 426.128 292.821 426 292.77V292.77Z" fill="url(#paint16_linear)"/>
<path d="M287.42 302.16C287.42 302.16 287.56 302.56 287.97 303.24C288.582 304.219 289.489 304.979 290.56 305.41C291.331 305.717 292.164 305.837 292.99 305.76C293.968 305.6 294.926 305.338 295.85 304.98L302.85 302.7L311.28 299.97L313.6 299.22C314.39 299.013 315.15 298.704 315.86 298.3C316.565 297.846 317.15 297.228 317.563 296.498C317.975 295.768 318.205 294.948 318.23 294.11C318.228 293.225 318.055 292.349 317.72 291.53L316.86 288.88L315.1 283.41C313.91 279.7 312.68 275.85 311.41 271.91C311.109 270.979 310.55 270.153 309.797 269.528C309.045 268.903 308.13 268.505 307.16 268.38C306.198 268.279 305.226 268.416 304.33 268.78L301.52 269.68L290.79 273.1L285.79 274.69C284.996 274.9 284.223 275.181 283.48 275.53C282.803 275.922 282.219 276.458 281.77 277.1C281.346 277.709 281.059 278.402 280.928 279.132C280.797 279.862 280.825 280.612 281.01 281.33C281.41 282.72 281.87 284.09 282.27 285.38L286.11 297.64C286.55 299.06 286.89 300.18 287.11 300.98C287.22 301.34 287.3 301.63 287.37 301.85C287.404 301.95 287.425 302.054 287.43 302.16L287.32 301.87L287 301C286.74 300.21 286.36 299.1 285.89 297.69C284.89 294.77 283.57 290.61 281.89 285.48C281.48 284.18 281.02 282.86 280.59 281.42C280.385 280.644 280.35 279.833 280.488 279.042C280.627 278.252 280.934 277.5 281.39 276.84C281.872 276.145 282.5 275.565 283.23 275.14C283.997 274.766 284.797 274.464 285.62 274.24L290.62 272.63L301.33 269.18L304.14 268.28C305.106 267.889 306.154 267.744 307.19 267.86C308.259 267.995 309.268 268.432 310.099 269.119C310.929 269.806 311.547 270.715 311.88 271.74L315.56 283.25C316.15 285.11 316.74 286.93 317.31 288.72C317.59 289.62 317.88 290.5 318.15 291.37C318.502 292.24 318.682 293.171 318.68 294.11C318.65 295.024 318.397 295.917 317.944 296.712C317.491 297.506 316.851 298.178 316.08 298.67C315.338 299.113 314.537 299.45 313.7 299.67L311.39 300.41L302.93 303.09L295.93 305.28C294.982 305.625 294 305.866 293 306C292.14 306.06 291.277 305.92 290.48 305.59C289.378 305.132 288.459 304.319 287.87 303.28C287.664 302.932 287.513 302.554 287.42 302.16V302.16Z" fill="#263238"/>
<path d="M304.09 276.32C304.148 276.421 304.195 276.528 304.23 276.64C304.32 276.91 304.44 277.24 304.58 277.64C304.9 278.64 305.34 279.88 305.88 281.49C307.01 284.91 308.57 289.65 310.41 295.25L310.49 295.47L310.26 295.55L296.7 299.92L296.37 299.75V299.69V299.61L296.32 299.44L296.21 299.11L296 298.44L295.58 297.13L294.75 294.54L293.17 289.54L290.38 280.7L290.31 280.5L290.51 280.44L300.51 277.36L303.24 276.54C303.545 276.437 303.855 276.354 304.17 276.29C303.844 276.433 303.51 276.557 303.17 276.66L300.43 277.59L290.65 280.84L290.79 280.58C291.65 283.23 292.62 286.2 293.65 289.39C294.17 290.99 294.7 292.65 295.25 294.39C295.53 295.24 295.8 296.1 296.08 296.97C296.22 297.41 296.36 297.84 296.51 298.29L296.72 298.95L296.82 299.28L296.88 299.45V299.53L296.55 299.36L310.13 295.04L309.97 295.33L305.71 281.65C305.21 280 304.81 278.65 304.51 277.71C304.39 277.28 304.28 276.93 304.2 276.64C304.12 276.35 304.09 276.33 304.09 276.32Z" fill="url(#paint17_linear)"/>
<path d="M298.47 288.61C298.792 288.739 299.103 288.893 299.4 289.07L301.85 290.41C303.94 291.55 306.85 293.18 310.31 295.13L309.97 295.4C309.04 292.54 307.97 289.31 306.89 285.91L303.89 276.39H304.33C302.67 279.97 301.23 283 300.2 285.15C299.7 286.15 299.29 287.01 298.98 287.66C298.841 287.979 298.677 288.287 298.49 288.58C298.582 288.279 298.696 287.985 298.83 287.7C299.11 287.05 299.47 286.2 299.92 285.18C300.86 283 302.23 279.88 303.92 276.18L304.17 275.63L304.36 276.21L307.43 285.71L310.43 295.22L310.62 295.8L310.09 295.5C306.59 293.5 303.66 291.72 301.63 290.5L299.28 289.08C299.001 288.939 298.731 288.782 298.47 288.61V288.61Z" fill="url(#paint18_linear)"/>
<path d="M300 285.2C298.318 284.694 296.691 284.024 295.14 283.2C293.514 282.522 291.96 281.685 290.5 280.7C292.182 281.206 293.809 281.876 295.36 282.7C296.987 283.375 298.542 284.212 300 285.2V285.2Z" fill="url(#paint19_linear)"/>
<path d="M296.62 299.68C297.262 298.048 298.059 296.48 299 295C299.777 293.419 300.708 291.918 301.78 290.52C301.157 292.168 300.377 293.752 299.45 295.25C298.657 296.818 297.709 298.302 296.62 299.68V299.68Z" fill="url(#paint20_linear)"/>
<path d="M369.29 276.34C369.29 276.34 369.43 276.74 369.84 277.42C370.45 278.401 371.357 279.162 372.43 279.59C373.198 279.897 374.027 280.017 374.85 279.94C375.828 279.781 376.787 279.519 377.71 279.16L384.71 276.88L393.15 274.15L395.46 273.4C396.253 273.191 397.016 272.882 397.73 272.48C398.434 272.024 399.016 271.405 399.429 270.676C399.842 269.946 400.072 269.128 400.1 268.29C400.095 267.405 399.918 266.528 399.58 265.71L398.73 263.06C398.15 261.28 397.57 259.45 396.97 257.59C395.78 253.88 394.54 250.03 393.28 246.09C392.978 245.158 392.418 244.331 391.663 243.706C390.909 243.081 389.992 242.683 389.02 242.56C388.058 242.459 387.086 242.597 386.19 242.96L383.38 243.86L372.66 247.28L367.66 248.87C366.866 249.078 366.093 249.36 365.35 249.71C364.672 250.102 364.089 250.638 363.64 251.28C363.215 251.888 362.925 252.581 362.793 253.311C362.66 254.041 362.686 254.791 362.87 255.51C363.28 256.9 363.73 258.27 364.13 259.56L368 271.82C368.43 273.24 368.77 274.36 369 275.16C369.1 275.52 369.19 275.81 369.25 276.03C369.284 276.131 369.307 276.235 369.32 276.34C369.27 276.248 369.23 276.151 369.2 276.05C369.12 275.83 369.02 275.55 368.9 275.19L367.78 271.88C366.83 268.96 365.46 264.8 363.78 259.67C363.37 258.37 362.91 257.05 362.48 255.61C362.28 254.834 362.247 254.023 362.385 253.234C362.523 252.444 362.828 251.692 363.28 251.03C363.763 250.333 364.395 249.752 365.13 249.33C365.896 248.954 366.696 248.653 367.52 248.43L372.52 246.82L383.24 243.37L386.05 242.47C387.016 242.078 388.064 241.933 389.1 242.05C390.168 242.185 391.176 242.621 392.005 243.308C392.834 243.996 393.45 244.905 393.78 245.93L397.47 257.44L399.21 262.91C399.5 263.8 399.78 264.69 400.06 265.56C400.414 266.43 400.59 267.361 400.58 268.3C400.554 269.215 400.303 270.11 399.85 270.905C399.396 271.7 398.754 272.371 397.98 272.86C397.241 273.303 396.443 273.64 395.61 273.86L393.29 274.6L384.83 277.27L377.83 279.47C376.883 279.827 375.901 280.081 374.9 280.23C374.04 280.289 373.177 280.149 372.38 279.82C371.28 279.362 370.365 278.549 369.78 277.51C369.556 277.149 369.39 276.754 369.29 276.34Z" fill="#263238"/>
<path d="M385 271.57C385.804 271.216 386.586 270.812 387.34 270.36C388.585 269.567 389.651 268.523 390.469 267.294C391.287 266.065 391.839 264.678 392.089 263.224C392.34 261.769 392.283 260.278 391.923 258.846C391.564 257.414 390.908 256.074 390 254.91C389.385 254.105 388.65 253.4 387.82 252.82C386.968 252.193 386.019 251.71 385.01 251.39C382.896 250.677 380.609 250.659 378.484 251.339C376.359 252.019 374.507 253.362 373.2 255.17C372.569 256.019 372.08 256.965 371.75 257.97C371.41 258.935 371.221 259.947 371.19 260.97C371.114 262.847 371.539 264.711 372.42 266.37C373.192 267.82 374.295 269.067 375.64 270.01C377.593 271.41 379.959 272.114 382.36 272.01C383.236 271.93 384.107 271.803 384.97 271.63C384.14 271.961 383.262 272.157 382.37 272.21C379.911 272.412 377.458 271.754 375.43 270.35C374.021 269.387 372.86 268.106 372.04 266.61C371.102 264.886 370.643 262.942 370.71 260.98C370.737 259.92 370.93 258.871 371.28 257.87C371.622 256.817 372.128 255.825 372.78 254.93C374.146 253.023 376.088 251.605 378.32 250.885C380.553 250.165 382.957 250.181 385.18 250.93C386.231 251.275 387.22 251.785 388.11 252.44C388.974 253.05 389.737 253.792 390.37 254.64C391.569 256.197 392.325 258.049 392.56 260C392.815 262.069 392.465 264.167 391.553 266.041C390.64 267.915 389.205 269.484 387.42 270.56C386.671 271.02 385.854 271.361 385 271.57V271.57Z" fill="url(#paint21_linear)"/>
<path d="M385.5 272C385.012 271.358 384.671 270.618 384.5 269.83C384.179 269.095 384.016 268.302 384.02 267.5C384.51 268.14 384.851 268.882 385.02 269.67C385.34 270.405 385.503 271.198 385.5 272V272Z" fill="url(#paint22_linear)"/>
<path d="M371.29 264.18C371.932 263.692 372.672 263.351 373.46 263.18C374.193 262.854 374.988 262.693 375.79 262.71C375.146 263.193 374.406 263.534 373.62 263.71C372.886 264.032 372.091 264.192 371.29 264.18V264.18Z" fill="url(#paint23_linear)"/>
<path d="M387.3 259C387.944 258.517 388.684 258.176 389.47 258C390.203 257.674 390.998 257.51 391.8 257.52C390.425 258.327 388.888 258.819 387.3 258.96V259Z" fill="url(#paint24_linear)"/>
<path d="M380.21 255.49C379.729 254.844 379.389 254.105 379.21 253.32C378.885 252.587 378.725 251.792 378.74 250.99C379.228 251.632 379.569 252.372 379.74 253.16C380.066 253.893 380.227 254.688 380.21 255.49V255.49Z" fill="url(#paint25_linear)"/>
<path d="M388.6 264.39C386.074 263.482 383.677 262.248 381.47 260.72C383.996 261.628 386.393 262.862 388.6 264.39V264.39Z" fill="url(#paint26_linear)"/>
<path d="M383 265.26C382.519 264.607 382.179 263.861 382 263.07C381.673 262.33 381.51 261.529 381.52 260.72C382.005 261.37 382.346 262.117 382.52 262.91C382.847 263.65 383.01 264.451 383 265.26V265.26Z" fill="url(#paint27_linear)"/>
<path d="M328.49 289.42C328.49 289.42 328.63 289.82 329.03 290.5C329.644 291.482 330.555 292.242 331.63 292.67C332.398 292.977 333.227 293.097 334.05 293.02C335.029 292.864 335.988 292.603 336.91 292.24L343.91 289.97L352.35 287.23L354.66 286.48C355.45 286.273 356.21 285.964 356.92 285.56C357.627 285.107 358.212 284.489 358.625 283.759C359.038 283.029 359.266 282.209 359.29 281.37C359.288 280.485 359.115 279.609 358.78 278.79C358.5 277.92 358.21 277.04 357.93 276.14C357.35 274.36 356.76 272.53 356.17 270.68C354.97 266.96 353.74 263.11 352.47 259.17C352.168 258.24 351.609 257.415 350.856 256.79C350.104 256.165 349.19 255.766 348.22 255.64C347.258 255.539 346.287 255.677 345.39 256.04L342.58 256.94L331.86 260.36L326.86 261.95C326.065 262.159 325.291 262.443 324.55 262.8C323.874 263.186 323.293 263.719 322.85 264.36C322.422 264.967 322.132 265.66 321.999 266.39C321.866 267.121 321.894 267.871 322.08 268.59C322.49 269.99 322.94 271.35 323.34 272.64C324.96 277.79 326.27 281.97 327.18 284.9C327.62 286.32 327.96 287.44 328.18 288.24L328.44 289.11C328.474 289.211 328.497 289.315 328.51 289.42C328.46 289.328 328.42 289.231 328.39 289.13L328.08 288.27C327.82 287.48 327.45 286.37 326.97 284.96C326.02 282.04 324.65 277.88 322.97 272.75C322.56 271.46 322.1 270.13 321.67 268.69C321.465 267.914 321.43 267.103 321.569 266.312C321.707 265.522 322.014 264.77 322.47 264.11C322.952 263.415 323.58 262.835 324.31 262.41C325.077 262.036 325.877 261.734 326.7 261.51L331.7 259.9L342.41 256.45L345.22 255.55C346.19 255.159 347.241 255.014 348.28 255.13C349.348 255.267 350.354 255.704 351.183 256.391C352.012 257.078 352.628 257.986 352.96 259.01L356.64 270.52C357.24 272.38 357.824 274.203 358.39 275.99L359.24 278.65C359.59 279.517 359.767 280.445 359.76 281.38C359.732 282.294 359.48 283.188 359.026 283.983C358.573 284.778 357.933 285.45 357.16 285.94C356.42 286.382 355.623 286.718 354.79 286.94L352.47 287.68L344 290.32L337 292.51C336.055 292.871 335.072 293.126 334.07 293.27C333.21 293.334 332.346 293.194 331.55 292.86C330.448 292.402 329.529 291.589 328.94 290.55C328.736 290.197 328.584 289.817 328.49 289.42V289.42Z" fill="#263238"/>
<path d="M335.72 287.24C336.046 287.098 336.38 286.975 336.72 286.87L339.5 285.92L349.39 282.63L349.25 282.9C347.61 277.83 345.63 271.7 343.49 265.11L343.82 265.27H343.76H343.71H343.59L343.36 265.34L342.9 265.49L341.98 265.78L340.16 266.36L336.64 267.49L330.08 269.57L330.23 269.28C331.86 274.51 333.23 278.93 334.23 282.11C334.7 283.65 335.07 284.89 335.35 285.8C335.46 286.2 335.56 286.53 335.64 286.8L335.73 287.16C335.73 287.16 335.68 287.07 335.6 286.86C335.52 286.65 335.41 286.3 335.27 285.93L334.05 282.33C333 279.13 331.53 274.68 329.79 269.42L329.72 269.2L329.94 269.12L336.49 267.01L340 266L341.81 265.42L342.73 265.12L343.19 264.97L343.42 264.9H343.54H343.59H343.65L343.98 265.07C346.08 271.68 348.03 277.81 349.65 282.89L349.71 283.1L349.51 283.16L339.43 286.28L336.66 287.11C336.35 287.172 336.036 287.216 335.72 287.24Z" fill="url(#paint28_linear)"/>
<path d="M348.3 270.15C348.564 270.632 348.776 271.142 348.93 271.67C349.28 272.67 349.77 274.04 350.33 275.67V275.8L350.24 275.9L348.11 278.32L347.81 278.65L347.67 278.22C347.5 277.68 347.32 277.11 347.13 276.54C346.23 273.73 345.44 271.17 344.89 269.29L344.79 268.98L345.1 269.05C347.1 269.55 348.33 269.97 348.26 270.11C348.19 270.25 347.03 269.82 345.02 269.42L345.24 269.18C345.88 271.03 346.73 273.57 347.63 276.38L348.16 278.07L347.73 277.97L349.89 275.59L349.84 275.82C349.33 274.13 348.91 272.72 348.63 271.71C348.461 271.204 348.35 270.681 348.3 270.15Z" fill="url(#paint29_linear)"/>
<path d="M339.66 280.19C339.66 280.14 340.05 280.19 340.66 279.98C341.569 279.743 342.374 279.212 342.95 278.47C343.417 277.877 343.709 277.166 343.795 276.417C343.881 275.667 343.757 274.909 343.437 274.226C343.117 273.543 342.614 272.962 341.983 272.548C341.352 272.135 340.618 271.905 339.864 271.884C339.11 271.863 338.365 272.053 337.712 272.431C337.059 272.809 336.524 273.361 336.167 274.025C335.81 274.69 335.644 275.44 335.689 276.194C335.734 276.947 335.987 277.672 336.42 278.29C336.953 279.064 337.726 279.64 338.62 279.93C339.25 280.13 339.62 280.14 339.62 280.19C339.263 280.249 338.897 280.225 338.55 280.12C337.57 279.894 336.704 279.322 336.11 278.51C335.659 277.906 335.368 277.198 335.265 276.451C335.162 275.704 335.249 274.944 335.52 274.24C335.855 273.367 336.453 272.62 337.23 272.101C338.008 271.582 338.927 271.317 339.861 271.343C340.796 271.368 341.699 271.682 342.448 272.242C343.196 272.802 343.752 273.581 344.04 274.47C344.273 275.187 344.32 275.951 344.176 276.691C344.033 277.431 343.704 278.122 343.22 278.7C342.581 279.475 341.688 279.999 340.7 280.18C340.359 280.263 340.003 280.267 339.66 280.19Z" fill="url(#paint30_linear)"/>
<path d="M341.68 330.55C341.839 330.92 342.019 331.281 342.22 331.63C342.828 332.615 343.736 333.379 344.81 333.81C345.581 334.117 346.414 334.237 347.24 334.16C348.219 334.001 349.178 333.736 350.1 333.37L357.1 331.1L365.53 328.36L367.85 327.62C368.64 327.413 369.4 327.104 370.11 326.7C370.817 326.245 371.402 325.625 371.815 324.893C372.228 324.161 372.456 323.34 372.48 322.5C372.478 321.618 372.305 320.745 371.97 319.93C371.69 319.06 371.4 318.18 371.12 317.28C370.54 315.493 369.953 313.67 369.36 311.81C368.16 308.1 366.93 304.25 365.66 300.31C365.359 299.379 364.8 298.553 364.047 297.928C363.295 297.303 362.38 296.905 361.41 296.78C360.448 296.679 359.476 296.817 358.58 297.18L355.77 298.07L345 301.5L340 303.09C339.206 303.3 338.433 303.581 337.69 303.93C337.02 304.325 336.443 304.86 336 305.5C335.576 306.109 335.289 306.802 335.158 307.532C335.027 308.262 335.055 309.012 335.24 309.73C335.64 311.12 336.1 312.49 336.5 313.73C338.11 318.88 339.43 323.06 340.34 325.99C340.78 327.41 341.12 328.53 341.34 329.33L341.6 330.2C341.65 330.4 341.67 330.5 341.67 330.5C341.67 330.5 341.62 330.41 341.55 330.22L341.24 329.36C340.98 328.57 340.6 327.46 340.13 326.05C339.13 323.13 337.81 318.97 336.13 313.84C335.72 312.54 335.26 311.22 334.83 309.78C334.624 309.004 334.589 308.193 334.727 307.402C334.865 306.611 335.173 305.86 335.63 305.2C336.111 304.505 336.74 303.925 337.47 303.5C338.237 303.126 339.037 302.824 339.86 302.6L344.86 300.99L355.57 297.54L358.38 296.63C359.351 296.246 360.402 296.105 361.44 296.22C362.508 296.357 363.514 296.794 364.343 297.481C365.171 298.168 365.788 299.076 366.12 300.1L369.8 311.61C370.39 313.47 370.98 315.29 371.55 317.08C371.83 317.97 372.12 318.86 372.4 319.73C372.744 320.603 372.92 321.532 372.92 322.47C372.89 323.384 372.637 324.277 372.184 325.072C371.731 325.866 371.091 326.538 370.32 327.03C369.578 327.473 368.776 327.81 367.94 328.03L365.63 328.77L357.17 331.44L350.17 333.64C349.223 333.997 348.241 334.251 347.24 334.4C346.38 334.46 345.517 334.32 344.72 333.99C343.617 333.532 342.699 332.719 342.11 331.68C341.906 331.329 341.761 330.947 341.68 330.55Z" fill="#263238"/>
<path d="M355 322C355 321.95 355.46 321.81 356.19 321.33C357.205 320.655 357.968 319.664 358.36 318.51C358.681 317.577 358.736 316.572 358.519 315.61C358.302 314.647 357.822 313.763 357.132 313.058C356.441 312.353 355.568 311.853 354.61 311.615C353.652 311.378 352.647 311.411 351.707 311.712C350.767 312.013 349.929 312.57 349.288 313.32C348.646 314.07 348.225 314.983 348.073 315.958C347.921 316.934 348.043 317.932 348.426 318.842C348.808 319.751 349.437 320.537 350.24 321.11C351.239 321.81 352.441 322.162 353.66 322.11C354.52 322.11 354.99 321.91 355 321.96C355.01 322.01 354.9 322.02 354.67 322.1C354.346 322.207 354.01 322.278 353.67 322.31C352.384 322.429 351.097 322.096 350.03 321.37C349.234 320.828 348.588 320.094 348.153 319.236C347.718 318.377 347.507 317.422 347.54 316.46C347.568 315.315 347.945 314.205 348.62 313.28C349.338 312.274 350.361 311.527 351.538 311.151C352.715 310.774 353.982 310.788 355.15 311.19C355.875 311.434 356.543 311.821 357.116 312.328C357.689 312.835 358.155 313.452 358.486 314.141C358.817 314.831 359.006 315.58 359.043 316.344C359.08 317.108 358.963 317.872 358.7 318.59C358.257 319.802 357.405 320.82 356.29 321.47C355.995 321.645 355.679 321.783 355.35 321.88C355.12 322 355 322 355 322Z" fill="url(#paint31_linear)"/>
<path d="M360.15 314.32C360.15 314.18 360.96 313.79 362.05 313.44C363.14 313.09 364.05 312.91 364.11 313.05C364.17 313.19 363.31 313.58 362.21 313.93C361.11 314.28 360.19 314.46 360.15 314.32Z" fill="url(#paint32_linear)"/>
<path d="M363.86 322.45C363.078 322.254 362.345 321.897 361.71 321.4C360.6 320.69 359.76 320.02 359.84 319.9C360.631 320.107 361.367 320.482 362 321C363.1 321.66 363.94 322.33 363.86 322.45Z" fill="url(#paint33_linear)"/>
<path d="M357.15 309.56C357.02 309.5 357.24 308.73 357.63 307.84C358.02 306.95 358.45 306.29 358.63 306.34C358.81 306.39 358.55 307.16 358.14 308.06C357.73 308.96 357.27 309.63 357.15 309.56Z" fill="url(#paint34_linear)"/>
<path d="M351.22 309.35C351.09 309.35 350.7 308.59 350.36 307.55C350.071 306.925 349.94 306.238 349.98 305.55C350.12 305.55 350.51 306.31 350.85 307.35C351.19 308.39 351.36 309.3 351.22 309.35Z" fill="url(#paint35_linear)"/>
<path d="M357.29 327.83C356.793 327.158 356.421 326.403 356.19 325.6C355.799 324.86 355.539 324.058 355.42 323.23C356.004 323.847 356.432 324.595 356.67 325.41C357.061 326.158 357.273 326.986 357.29 327.83Z" fill="url(#paint36_linear)"/>
<path d="M348.55 326.08C348.42 326.02 348.67 325.27 349.11 324.42C349.55 323.57 350 322.93 350.11 323C350.22 323.07 349.99 323.81 349.55 324.66C349.11 325.51 348.68 326.15 348.55 326.08Z" fill="url(#paint37_linear)"/>
<path d="M342.69 319.55C342.69 319.41 343.4 319.11 344.36 318.87C345.32 318.63 346.11 318.56 346.14 318.7C346.17 318.84 345.43 319.14 344.48 319.37C343.53 319.6 342.73 319.69 342.69 319.55Z" fill="url(#paint38_linear)"/>
<path d="M343.09 311C343.16 310.88 344.03 311.23 345.02 311.79C346.01 312.35 346.77 312.91 346.7 313.03C346.63 313.15 345.77 312.8 344.77 312.24C343.77 311.68 343 311.1 343.09 311Z" fill="url(#paint39_linear)"/>
<path d="M382.48 317.47C382.48 317.47 382.62 317.87 383.03 318.55C383.635 319.537 384.544 320.302 385.62 320.73C386.388 321.037 387.217 321.157 388.04 321.08C389.019 320.922 389.978 320.657 390.9 320.29L397.9 318.02L406.34 315.28L408.65 314.53C409.441 314.33 410.201 314.024 410.91 313.62C411.618 313.167 412.204 312.547 412.617 311.815C413.03 311.082 413.258 310.26 413.28 309.42C413.283 308.538 413.11 307.664 412.77 306.85C412.49 305.98 412.21 305.09 411.92 304.2C411.34 302.41 410.76 300.59 410.16 298.73C408.96 295.02 407.73 291.17 406.46 287.23C406.161 286.298 405.602 285.471 404.85 284.845C404.097 284.22 403.181 283.823 402.21 283.7C401.249 283.591 400.276 283.725 399.38 284.09L396.57 284.99L385.85 288.41L380.85 290C380.057 290.215 379.284 290.499 378.54 290.85C377.866 291.239 377.285 291.772 376.84 292.41C376.415 293.018 376.126 293.711 375.993 294.441C375.861 295.171 375.887 295.921 376.07 296.64C376.48 298.04 376.93 299.41 377.33 300.7L381.14 313C381.57 314.42 381.91 315.54 382.14 316.34C382.24 316.7 382.32 316.99 382.39 317.21C382.422 317.308 382.445 317.408 382.46 317.51C382.46 317.51 382.41 317.42 382.34 317.23L382.04 316.37L380.94 313C379.99 310.08 378.62 305.92 376.94 300.79C376.53 299.49 376.07 298.16 375.64 296.72C375.436 295.946 375.402 295.136 375.541 294.348C375.679 293.559 375.985 292.809 376.44 292.15C376.919 291.453 377.547 290.872 378.28 290.45C379.045 290.073 379.846 289.771 380.67 289.55L385.67 287.94L396.38 284.49L399.2 283.58C400.168 283.198 401.214 283.054 402.25 283.16C403.318 283.299 404.325 283.738 405.154 284.427C405.982 285.115 406.598 286.025 406.93 287.05L410.61 298.56C411.21 300.41 411.79 302.24 412.36 304.03C412.65 304.92 412.93 305.81 413.21 306.68C413.559 307.551 413.735 308.482 413.73 309.42C413.704 310.335 413.453 311.23 413 312.025C412.546 312.82 411.904 313.492 411.13 313.98C410.391 314.423 409.593 314.76 408.76 314.98L406.44 315.71L398 318.37L391 320.57C390.053 320.927 389.071 321.181 388.07 321.33C387.21 321.389 386.347 321.249 385.55 320.92C384.449 320.458 383.532 319.646 382.94 318.61C382.731 318.255 382.576 317.871 382.48 317.47Z" fill="#263238"/>
<path d="M398.17 312C398.975 311.65 399.756 311.249 400.51 310.8C402.521 309.504 404.038 307.571 404.82 305.31C405.401 303.652 405.555 301.874 405.269 300.14C404.982 298.407 404.264 296.773 403.18 295.39C402.569 294.586 401.837 293.881 401.01 293.3C400.165 292.676 399.222 292.196 398.22 291.88C396.11 291.17 393.828 291.153 391.707 291.832C389.586 292.51 387.737 293.848 386.43 295.65C385.806 296.498 385.32 297.44 384.99 298.44C384.649 299.405 384.46 300.417 384.43 301.44C384.374 302.912 384.625 304.379 385.167 305.748C385.709 307.117 386.53 308.359 387.578 309.393C388.625 310.428 389.877 311.233 391.253 311.758C392.629 312.282 394.099 312.515 395.57 312.44C396.443 312.362 397.311 312.235 398.17 312.06C397.344 312.392 396.469 312.588 395.58 312.64C393.127 312.842 390.681 312.184 388.66 310.78C387.255 309.821 386.097 308.543 385.28 307.05C384.343 305.333 383.884 303.395 383.95 301.44C384.041 299.281 384.761 297.196 386.02 295.44C387.398 293.559 389.332 292.159 391.55 291.44C393.775 290.735 396.167 290.756 398.38 291.5C399.428 291.843 400.414 292.353 401.3 293.01C402.164 293.616 402.927 294.355 403.56 295.2C404.681 296.647 405.417 298.354 405.698 300.162C405.98 301.971 405.798 303.821 405.17 305.54C404.338 307.856 402.73 309.813 400.62 311.08C399.859 311.517 399.031 311.828 398.17 312V312Z" fill="url(#paint40_linear)"/>
<path d="M399 297.76C399 297.71 398.87 298.68 398.56 300.39C398.25 302.1 397.8 304.58 397.21 307.47L397.12 307.89L396.8 307.6L393.19 304.3L389.53 300.92L389.22 300.63L389.62 300.51C392.4 299.63 394.8 298.93 396.45 298.46C398.1 297.99 399.04 297.71 399 297.76C398.96 297.81 398.72 297.87 398.26 298.04L396.32 298.73C394.67 299.31 392.42 300.11 389.77 300.97L389.86 300.56L393.54 303.92C394.81 305.09 396.02 306.2 397.13 307.24L396.73 307.37C397.32 304.61 397.89 302.27 398.3 300.55C398.49 299.76 398.66 299.09 398.79 298.55C398.845 298.283 398.915 298.019 399 297.76V297.76Z" fill="url(#paint41_linear)"/>
<path d="M302.1 344C302.1 344 302.24 344.4 302.65 345.08C303.166 345.925 303.907 346.61 304.79 347.057C305.673 347.504 306.664 347.695 307.65 347.61C308.628 347.446 309.587 347.181 310.51 346.82L317.51 344.55L325.94 341.81L328.26 341.06C329.053 340.862 329.814 340.552 330.52 340.14C331.226 339.687 331.811 339.068 332.224 338.338C332.637 337.608 332.866 336.788 332.89 335.95C332.889 335.068 332.716 334.195 332.38 333.38L331.52 330.73C330.947 328.937 330.36 327.113 329.76 325.26C328.574 321.54 327.344 317.707 326.07 313.76C325.769 312.829 325.21 312.003 324.457 311.378C323.705 310.753 322.79 310.355 321.82 310.23C320.859 310.12 319.886 310.254 318.99 310.62L316.18 311.52L305.45 314.94L300.45 316.53C299.656 316.743 298.883 317.028 298.14 317.38C297.15 317.941 296.372 318.811 295.924 319.857C295.476 320.903 295.383 322.067 295.66 323.17C296.07 324.57 296.53 325.93 296.93 327.22L300.77 339.48C301.21 340.91 301.55 342.03 301.77 342.83L302.03 343.7C302.063 343.797 302.083 343.898 302.09 344L301.97 343.71C301.9 343.49 301.8 343.21 301.67 342.86C301.41 342.07 301.03 340.96 300.56 339.55C299.56 336.63 298.24 332.47 296.56 327.34C296.14 326.04 295.69 324.71 295.26 323.27C295.055 322.496 295.02 321.686 295.158 320.897C295.296 320.108 295.604 319.358 296.06 318.7C296.539 318 297.167 317.416 297.9 316.99C298.667 316.619 299.467 316.321 300.29 316.1L305.29 314.49L316 311L318.81 310.09C319.779 309.708 320.825 309.564 321.86 309.67C322.93 309.807 323.939 310.246 324.77 310.934C325.6 311.623 326.218 312.534 326.55 313.56L330.23 325.06C330.82 326.92 331.41 328.75 331.98 330.54C332.26 331.43 332.55 332.32 332.82 333.19C333.172 334.06 333.352 334.991 333.35 335.93C333.318 336.844 333.065 337.736 332.612 338.53C332.159 339.325 331.52 339.997 330.75 340.49C330.003 340.925 329.203 341.261 328.37 341.49L326.06 342.22L317.6 344.9L310.6 347.1C309.657 347.458 308.678 347.713 307.68 347.86C306.819 347.922 305.955 347.778 305.16 347.44C304.058 346.982 303.139 346.169 302.55 345.13C302.342 344.779 302.19 344.398 302.1 344V344Z" fill="#263238"/>
<path d="M313.18 320.92C313.18 320.92 313.13 321.07 313.03 321.32L312.6 322.42C312.23 323.36 311.71 324.71 311.02 326.42V326.49H310.94L305.18 327.7L305.28 327.34L309.73 331.19L309.82 331.27V331.39C309.61 333.23 309.39 335.19 309.17 337.24L308.78 336.99L313.78 333.99C313.89 333.99 313.54 333.99 314.02 333.99H314.07H314.16L314.33 334.07L314.67 334.22L315.35 334.53L316.7 335.15L319.33 336.36L318.98 336.65C318.52 334.65 318.09 332.73 317.68 330.91V330.79L317.77 330.7L321.77 326.39L321.9 326.74L316.05 326.16H316V326.09C315.12 324.5 314.46 323.22 314 322.32C313.78 321.9 313.6 321.56 313.46 321.32L313.26 320.94C313.26 320.94 313.33 321.02 313.46 321.24C313.59 321.46 313.8 321.81 314.04 322.24C314.55 323.09 315.33 324.37 316.29 326.02L316.17 325.94L322.03 326.41H322.45L322.16 326.73L318.21 331.08L318.26 330.87C318.69 332.68 319.13 334.6 319.59 336.59L319.71 337.1L319.24 336.88L316.6 335.68L315.25 335.07L314.57 334.76L314.23 334.6L314.06 334.52H313.97H314.17L309.12 337.52L308.68 337.78L308.74 337.27C308.98 335.27 309.21 333.27 309.43 331.43L309.51 331.64L305 327.65L304.68 327.37L305.09 327.29L310.86 326.17L310.75 326.26C311.52 324.52 312.15 323.16 312.57 322.26C312.76 321.85 312.91 321.51 313.04 321.26C313.077 321.143 313.124 321.029 313.18 320.92V320.92Z" fill="url(#paint42_linear)"/>
<path d="M444.12 262.79C442.947 263.172 441.688 263.198 440.501 262.864C439.314 262.53 438.252 261.851 437.452 260.913C436.651 259.975 436.146 258.821 436.002 257.596C435.857 256.371 436.08 255.131 436.641 254.033C437.202 252.934 438.076 252.027 439.153 251.426C440.23 250.826 441.461 250.558 442.691 250.657C443.92 250.756 445.092 251.218 446.059 251.984C447.025 252.75 447.743 253.786 448.12 254.96C448.624 256.529 448.487 258.234 447.737 259.701C446.987 261.169 445.687 262.279 444.12 262.79Z" fill="url(#paint43_linear)"/>
<path d="M441.94 259.28C441.07 259.56 440.19 259.14 439.79 257.88C439.547 257.203 439.572 256.459 439.86 255.8L440.37 255.92C440.11 256.49 440.078 257.137 440.28 257.73C440.56 258.59 441.11 258.94 441.76 258.73C442.41 258.52 442.65 257.96 442.34 256.99L442.23 256.62L442.62 256.49L444.89 257.36L444.04 254.69L444.51 254.54L445.59 257.89L445.21 258.01L442.88 257.13C443.18 258.27 442.77 259 441.94 259.28Z" fill="white"/>
<path d="M279 307.54C278.702 307.641 278.38 307.652 278.075 307.57C277.771 307.488 277.498 307.317 277.291 307.08C277.083 306.842 276.952 306.548 276.912 306.235C276.872 305.923 276.926 305.605 277.067 305.323C277.208 305.041 277.429 304.808 277.703 304.652C277.978 304.496 278.292 304.425 278.606 304.449C278.92 304.472 279.221 304.588 279.469 304.782C279.717 304.977 279.902 305.24 280 305.54C280.13 305.938 280.098 306.371 279.911 306.745C279.724 307.12 279.397 307.405 279 307.54Z" fill="url(#paint44_linear)"/>
<path d="M281.7 316C281.402 316.101 281.08 316.112 280.775 316.03C280.471 315.948 280.198 315.777 279.991 315.54C279.783 315.302 279.651 315.008 279.612 314.695C279.572 314.383 279.626 314.065 279.767 313.783C279.908 313.501 280.129 313.268 280.403 313.112C280.677 312.956 280.992 312.885 281.306 312.909C281.62 312.932 281.921 313.048 282.169 313.242C282.417 313.437 282.602 313.7 282.7 314C282.83 314.398 282.798 314.831 282.611 315.205C282.424 315.58 282.096 315.865 281.7 316Z" fill="url(#paint45_linear)"/>
<path d="M284.42 324.51C284.122 324.611 283.8 324.622 283.495 324.54C283.191 324.458 282.918 324.287 282.711 324.05C282.503 323.812 282.371 323.518 282.332 323.205C282.292 322.893 282.346 322.575 282.487 322.293C282.628 322.011 282.849 321.778 283.123 321.622C283.397 321.466 283.712 321.395 284.026 321.419C284.34 321.442 284.641 321.558 284.889 321.752C285.137 321.947 285.322 322.21 285.42 322.51C285.55 322.908 285.518 323.341 285.331 323.715C285.144 324.09 284.816 324.375 284.42 324.51Z" fill="url(#paint46_linear)"/>
<path d="M474.77 289.12C474.142 287.692 473.615 286.221 473.19 284.72C472.666 283.25 472.238 281.746 471.91 280.22C472.535 281.65 473.063 283.12 473.49 284.62C474.016 286.09 474.444 287.593 474.77 289.12V289.12Z" fill="#263238"/>
<path d="M472.49 289.85C471.337 286.951 470.382 283.978 469.63 280.95C470.26 282.378 470.788 283.848 471.21 285.35C471.736 286.82 472.164 288.323 472.49 289.85V289.85Z" fill="#263238"/>
<path d="M470.21 290.58C469.588 289.15 469.06 287.68 468.63 286.18C468.106 284.71 467.682 283.207 467.36 281.68C467.978 283.111 468.503 284.581 468.93 286.08C469.456 287.55 469.884 289.053 470.21 290.58Z" fill="#263238"/>
<path d="M446.31 223C446.31 223 446.41 223.25 446.57 223.69C446.73 224.13 446.97 224.84 447.23 225.57L447.12 225.51L448.49 225.06C448.75 224.98 448.97 224.88 449.29 224.81C449.462 224.788 449.636 224.823 449.786 224.91C449.936 224.996 450.053 225.13 450.12 225.29C450.236 225.591 450.337 225.898 450.42 226.21C450.446 226.404 450.404 226.602 450.299 226.768C450.195 226.934 450.036 227.059 449.85 227.12L447.85 227.77L447.94 227.59L448.72 229.98L448.53 229.88L451.53 228.88L452.29 228.64C452.51 228.57 452.6 228.41 452.72 228.15L453.43 226.78C453.67 226.33 453.89 225.89 454.12 225.45L454.45 224.81C454.576 224.642 454.649 224.44 454.66 224.23C454.66 224.136 454.637 224.043 454.593 223.96C454.55 223.876 454.487 223.804 454.41 223.75C454.25 223.65 454.02 223.54 453.84 223.44L452.7 222.85C451.97 222.48 451.27 222.07 450.7 221.85C450.389 221.817 450.074 221.869 449.79 222L448.95 222.26L447.58 222.66L446.7 222.92L446.37 223C446.37 223 446.45 222.95 446.64 222.88L447.49 222.58L448.85 222.11L449.71 221.82C450.021 221.672 450.367 221.61 450.71 221.64C451.42 221.92 452.05 222.29 452.81 222.64L453.95 223.23C454.15 223.33 454.33 223.41 454.56 223.55C454.672 223.629 454.764 223.732 454.83 223.851C454.895 223.971 454.933 224.104 454.94 224.24C454.931 224.504 454.848 224.761 454.7 224.98L454.37 225.62C454.15 226.06 453.93 226.5 453.69 226.95L452.99 228.32C452.944 228.466 452.865 228.6 452.76 228.711C452.654 228.822 452.524 228.907 452.38 228.96L451.62 229.21L448.62 230.21H448.47V230.07C448.2 229.24 447.95 228.44 447.7 227.67V227.53H447.84L449.84 226.9C449.972 226.865 450.086 226.782 450.159 226.667C450.233 226.552 450.262 226.415 450.24 226.28C450.18 226.02 450.06 225.68 449.98 225.42C449.931 225.309 449.849 225.216 449.745 225.153C449.642 225.091 449.521 225.062 449.4 225.07C449.16 225.12 448.88 225.23 448.63 225.3L447.25 225.72H447.16V225.64L446.58 223.64C446.476 223.433 446.386 223.219 446.31 223V223Z" fill="#263238"/>
<path d="M342.41 288.85C341.446 288.409 340.547 287.837 339.74 287.15C339.075 286.62 338.501 285.985 338.04 285.27C337.364 284.198 336.746 283.089 336.19 281.95C336.19 281.95 336.82 251.38 337.94 246.33C339.06 241.28 356.67 228.71 356.67 228.71L344.81 216.54C336.635 222.547 329.483 229.834 323.63 238.12C317.99 246.39 324.12 284.86 324.13 284.9C323.614 288.186 323.281 291.497 323.13 294.82C323.13 299.49 323.51 299.5 324.06 299.41C325.52 299.17 324.42 291.2 325.65 292.78C326.88 294.36 325.86 302.68 327.38 302.37C329.38 301.96 328.05 293.64 327.99 292.93C327.93 292.22 328.99 292.11 328.99 292.75C328.99 293.68 329.53 303.42 331.48 303.04C332.55 302.83 331.99 300.93 331.99 300.93C331.99 300.93 330.84 291.85 331.77 291.7C332.7 291.55 333.56 296.86 333.72 298.7C333.88 300.54 334.8 301.14 335.53 300.41C336.03 299.91 335.67 294.35 335.47 292.57C335.27 290.79 334.62 285.89 336.9 288.04C339.18 290.19 341.74 290.99 342.58 290.73C342.769 290.644 342.926 290.502 343.031 290.323C343.135 290.143 343.181 289.936 343.162 289.73C343.143 289.523 343.061 289.328 342.926 289.17C342.792 289.012 342.611 288.901 342.41 288.85Z" fill="#B78876"/>
<defs>
<linearGradient id="paint0_linear" x1="533.132" y1="349.541" x2="533.132" y2="423.888" gradientUnits="userSpaceOnUse">
<stop stop-color="#1DCDDB"/>
<stop offset="1" stop-color="#31B8FF"/>
</linearGradient>
<linearGradient id="paint1_linear" x1="518.429" y1="387.47" x2="518.429" y2="424.095" gradientUnits="userSpaceOnUse">
<stop stop-color="#1DCDDB"/>
<stop offset="1" stop-color="#31B8FF"/>
</linearGradient>
<linearGradient id="paint2_linear" x1="311.79" y1="400.79" x2="311.79" y2="434.646" gradientUnits="userSpaceOnUse">
<stop stop-color="#1DCDDB"/>
<stop offset="1" stop-color="#31B8FF"/>
</linearGradient>
<linearGradient id="paint3_linear" x1="425.002" y1="432.88" x2="425.002" y2="450.584" gradientUnits="userSpaceOnUse">
<stop stop-color="#1DCDDB"/>
<stop offset="1" stop-color="#31B8FF"/>
</linearGradient>
<linearGradient id="paint4_linear" x1="386.02" y1="195.54" x2="386.02" y2="280.85" gradientUnits="userSpaceOnUse">
<stop stop-color="#1DCDDB"/>
<stop offset="1" stop-color="#31B8FF"/>
</linearGradient>
<linearGradient id="paint5_linear" x1="379.605" y1="191.38" x2="379.605" y2="198.38" gradientUnits="userSpaceOnUse">
<stop stop-color="#1DCDDB"/>
<stop offset="1" stop-color="#31B8FF"/>
</linearGradient>
<linearGradient id="paint6_linear" x1="388.72" y1="191.38" x2="388.72" y2="198.38" gradientUnits="userSpaceOnUse">
<stop stop-color="#1DCDDB"/>
<stop offset="1" stop-color="#31B8FF"/>
</linearGradient>
<linearGradient id="paint7_linear" x1="351.125" y1="213.72" x2="351.125" y2="229.8" gradientUnits="userSpaceOnUse">
<stop stop-color="#1DCDDB"/>
<stop offset="1" stop-color="#31B8FF"/>
</linearGradient>
<linearGradient id="paint8_linear" x1="396.83" y1="214.37" x2="396.83" y2="222.99" gradientUnits="userSpaceOnUse">
<stop stop-color="#1DCDDB"/>
<stop offset="1" stop-color="#31B8FF"/>
</linearGradient>
<linearGradient id="paint9_linear" x1="396.69" y1="215.652" x2="396.69" y2="216.264" gradientUnits="userSpaceOnUse">
<stop stop-color="#1DCDDB"/>
<stop offset="1" stop-color="#31B8FF"/>
</linearGradient>
<linearGradient id="paint10_linear" x1="384.578" y1="198.68" x2="384.578" y2="208.19" gradientUnits="userSpaceOnUse">
<stop stop-color="#1DCDDB"/>
<stop offset="1" stop-color="#31B8FF"/>
</linearGradient>
<linearGradient id="paint11_linear" x1="386.446" y1="199.916" x2="386.446" y2="201.202" gradientUnits="userSpaceOnUse">
<stop stop-color="#1DCDDB"/>
<stop offset="1" stop-color="#31B8FF"/>
</linearGradient>
<linearGradient id="paint12_linear" x1="386.82" y1="203.711" x2="386.82" y2="205.108" gradientUnits="userSpaceOnUse">
<stop stop-color="#1DCDDB"/>
<stop offset="1" stop-color="#31B8FF"/>
</linearGradient>
<linearGradient id="paint13_linear" x1="422.631" y1="235.805" x2="422.631" y2="259.641" gradientUnits="userSpaceOnUse">
<stop stop-color="#1DCDDB"/>
<stop offset="1" stop-color="#31B8FF"/>
</linearGradient>
<linearGradient id="paint14_linear" x1="436.085" y1="278.055" x2="436.085" y2="300.014" gradientUnits="userSpaceOnUse">
<stop stop-color="#1DCDDB"/>
<stop offset="1" stop-color="#31B8FF"/>
</linearGradient>
<linearGradient id="paint15_linear" x1="436.766" y1="278.33" x2="436.766" y2="299.24" gradientUnits="userSpaceOnUse">
<stop stop-color="#1DCDDB"/>
<stop offset="1" stop-color="#31B8FF"/>
</linearGradient>
<linearGradient id="paint16_linear" x1="436.22" y1="282.741" x2="436.22" y2="293.799" gradientUnits="userSpaceOnUse">
<stop stop-color="#1DCDDB"/>
<stop offset="1" stop-color="#31B8FF"/>
</linearGradient>
<linearGradient id="paint17_linear" x1="300.4" y1="276.29" x2="300.4" y2="299.92" gradientUnits="userSpaceOnUse">
<stop stop-color="#1DCDDB"/>
<stop offset="1" stop-color="#31B8FF"/>
</linearGradient>
<linearGradient id="paint18_linear" x1="304.545" y1="275.63" x2="304.545" y2="295.8" gradientUnits="userSpaceOnUse">
<stop stop-color="#1DCDDB"/>
<stop offset="1" stop-color="#31B8FF"/>
</linearGradient>
<linearGradient id="paint19_linear" x1="295.25" y1="280.7" x2="295.25" y2="285.2" gradientUnits="userSpaceOnUse">
<stop stop-color="#1DCDDB"/>
<stop offset="1" stop-color="#31B8FF"/>
</linearGradient>
<linearGradient id="paint20_linear" x1="299.2" y1="290.52" x2="299.2" y2="299.68" gradientUnits="userSpaceOnUse">
<stop stop-color="#1DCDDB"/>
<stop offset="1" stop-color="#31B8FF"/>
</linearGradient>
<linearGradient id="paint21_linear" x1="381.672" y1="250.356" x2="381.672" y2="272.246" gradientUnits="userSpaceOnUse">
<stop stop-color="#1DCDDB"/>
<stop offset="1" stop-color="#31B8FF"/>
</linearGradient>
<linearGradient id="paint22_linear" x1="384.76" y1="267.5" x2="384.76" y2="272" gradientUnits="userSpaceOnUse">
<stop stop-color="#1DCDDB"/>
<stop offset="1" stop-color="#31B8FF"/>
</linearGradient>
<linearGradient id="paint23_linear" x1="373.54" y1="262.709" x2="373.54" y2="264.181" gradientUnits="userSpaceOnUse">
<stop stop-color="#1DCDDB"/>
<stop offset="1" stop-color="#31B8FF"/>
</linearGradient>
<linearGradient id="paint24_linear" x1="389.55" y1="257.52" x2="389.55" y2="259" gradientUnits="userSpaceOnUse">
<stop stop-color="#1DCDDB"/>
<stop offset="1" stop-color="#31B8FF"/>
</linearGradient>
<linearGradient id="paint25_linear" x1="379.475" y1="250.99" x2="379.475" y2="255.49" gradientUnits="userSpaceOnUse">
<stop stop-color="#1DCDDB"/>
<stop offset="1" stop-color="#31B8FF"/>
</linearGradient>
<linearGradient id="paint26_linear" x1="385.035" y1="260.72" x2="385.035" y2="264.39" gradientUnits="userSpaceOnUse">
<stop stop-color="#1DCDDB"/>
<stop offset="1" stop-color="#31B8FF"/>
</linearGradient>
<linearGradient id="paint27_linear" x1="382.26" y1="260.72" x2="382.26" y2="265.26" gradientUnits="userSpaceOnUse">
<stop stop-color="#1DCDDB"/>
<stop offset="1" stop-color="#31B8FF"/>
</linearGradient>
<linearGradient id="paint28_linear" x1="339.715" y1="264.9" x2="339.715" y2="287.24" gradientUnits="userSpaceOnUse">
<stop stop-color="#1DCDDB"/>
<stop offset="1" stop-color="#31B8FF"/>
</linearGradient>
<linearGradient id="paint29_linear" x1="347.56" y1="268.98" x2="347.56" y2="278.65" gradientUnits="userSpaceOnUse">
<stop stop-color="#1DCDDB"/>
<stop offset="1" stop-color="#31B8FF"/>
</linearGradient>
<linearGradient id="paint30_linear" x1="339.74" y1="271.341" x2="339.74" y2="280.245" gradientUnits="userSpaceOnUse">
<stop stop-color="#1DCDDB"/>
<stop offset="1" stop-color="#31B8FF"/>
</linearGradient>
<linearGradient id="paint31_linear" x1="353.293" y1="310.878" x2="353.293" y2="322.334" gradientUnits="userSpaceOnUse">
<stop stop-color="#1DCDDB"/>
<stop offset="1" stop-color="#31B8FF"/>
</linearGradient>
<linearGradient id="paint32_linear" x1="362.132" y1="313.002" x2="362.132" y2="314.368" gradientUnits="userSpaceOnUse">
<stop stop-color="#1DCDDB"/>
<stop offset="1" stop-color="#31B8FF"/>
</linearGradient>
<linearGradient id="paint33_linear" x1="361.85" y1="319.9" x2="361.85" y2="322.45" gradientUnits="userSpaceOnUse">
<stop stop-color="#1DCDDB"/>
<stop offset="1" stop-color="#31B8FF"/>
</linearGradient>
<linearGradient id="paint34_linear" x1="357.9" y1="306.337" x2="357.9" y2="309.565" gradientUnits="userSpaceOnUse">
<stop stop-color="#1DCDDB"/>
<stop offset="1" stop-color="#31B8FF"/>
</linearGradient>
<linearGradient id="paint35_linear" x1="350.621" y1="305.55" x2="350.621" y2="309.35" gradientUnits="userSpaceOnUse">
<stop stop-color="#1DCDDB"/>
<stop offset="1" stop-color="#31B8FF"/>
</linearGradient>
<linearGradient id="paint36_linear" x1="356.355" y1="323.23" x2="356.355" y2="327.83" gradientUnits="userSpaceOnUse">
<stop stop-color="#1DCDDB"/>
<stop offset="1" stop-color="#31B8FF"/>
</linearGradient>
<linearGradient id="paint37_linear" x1="349.326" y1="322.995" x2="349.326" y2="326.085" gradientUnits="userSpaceOnUse">
<stop stop-color="#1DCDDB"/>
<stop offset="1" stop-color="#31B8FF"/>
</linearGradient>
<linearGradient id="paint38_linear" x1="344.416" y1="318.628" x2="344.416" y2="319.617" gradientUnits="userSpaceOnUse">
<stop stop-color="#1DCDDB"/>
<stop offset="1" stop-color="#31B8FF"/>
</linearGradient>
<linearGradient id="paint39_linear" x1="344.894" y1="310.976" x2="344.894" y2="313.054" gradientUnits="userSpaceOnUse">
<stop stop-color="#1DCDDB"/>
<stop offset="1" stop-color="#31B8FF"/>
</linearGradient>
<linearGradient id="paint40_linear" x1="394.885" y1="290.926" x2="394.885" y2="312.676" gradientUnits="userSpaceOnUse">
<stop stop-color="#1DCDDB"/>
<stop offset="1" stop-color="#31B8FF"/>
</linearGradient>
<linearGradient id="paint41_linear" x1="394.111" y1="297.754" x2="394.111" y2="307.89" gradientUnits="userSpaceOnUse">
<stop stop-color="#1DCDDB"/>
<stop offset="1" stop-color="#31B8FF"/>
</linearGradient>
<linearGradient id="paint42_linear" x1="313.565" y1="320.92" x2="313.565" y2="337.78" gradientUnits="userSpaceOnUse">
<stop stop-color="#1DCDDB"/>
<stop offset="1" stop-color="#31B8FF"/>
</linearGradient>
<linearGradient id="paint43_linear" x1="442.189" y1="250.637" x2="442.189" y2="263.097" gradientUnits="userSpaceOnUse">
<stop stop-color="#1DCDDB"/>
<stop offset="1" stop-color="#31B8FF"/>
</linearGradient>
<linearGradient id="paint44_linear" x1="278.489" y1="304.444" x2="278.489" y2="307.624" gradientUnits="userSpaceOnUse">
<stop stop-color="#1DCDDB"/>
<stop offset="1" stop-color="#31B8FF"/>
</linearGradient>
<linearGradient id="paint45_linear" x1="281.189" y1="312.904" x2="281.189" y2="316.084" gradientUnits="userSpaceOnUse">
<stop stop-color="#1DCDDB"/>
<stop offset="1" stop-color="#31B8FF"/>
</linearGradient>
<linearGradient id="paint46_linear" x1="283.909" y1="321.414" x2="283.909" y2="324.594" gradientUnits="userSpaceOnUse">
<stop stop-color="#1DCDDB"/>
<stop offset="1" stop-color="#31B8FF"/>
</linearGradient>
</defs>
</svg>
