<svg width="500" height="500" viewBox="0 0 500 500" fill="none" xmlns="http://www.w3.org/2000/svg">
<path d="M373.94 81.34C331.09 76.4 292.2 94.06 258 118.16C229.08 138.53 202.83 159.84 168.66 170.69C135.77 181.15 94.66 179.16 67.28 202.83C42.28 224.44 35.67 263.42 46.79 293.62C60.57 331.05 95.79 353.86 132.06 366.05C259.86 409 430.37 351.16 455.63 205.72C460.36 178.51 460.38 148.67 445.39 124.43C429.84 99.28 402.93 84.68 373.94 81.34Z" fill="#31B8FF"/>
<path opacity="0.9" d="M373.94 81.34C331.09 76.4 292.2 94.06 258 118.16C229.08 138.53 202.83 159.84 168.66 170.69C135.77 181.15 94.66 179.16 67.28 202.83C42.28 224.44 35.67 263.42 46.79 293.62C60.57 331.05 95.79 353.86 132.06 366.05C259.86 409 430.37 351.16 455.63 205.72C460.36 178.51 460.38 148.67 445.39 124.43C429.84 99.28 402.93 84.68 373.94 81.34Z" fill="white"/>
<path d="M234.19 427.56C341.273 427.56 428.08 422.492 428.08 416.24C428.08 409.988 341.273 404.92 234.19 404.92C127.108 404.92 40.3 409.988 40.3 416.24C40.3 422.492 127.108 427.56 234.19 427.56Z" fill="#F5F5F5"/>
<path d="M260.45 424.07C288.666 424.07 311.54 420.882 311.54 416.95C311.54 413.018 288.666 409.83 260.45 409.83C232.234 409.83 209.36 413.018 209.36 416.95C209.36 420.882 232.234 424.07 260.45 424.07Z" fill="#26C3EC"/>
<path d="M289.23 429.59C298.1 429.59 305.29 427.531 305.29 424.99C305.29 422.449 298.1 420.39 289.23 420.39C280.36 420.39 273.17 422.449 273.17 424.99C273.17 427.531 280.36 429.59 289.23 429.59Z" fill="#26C3EC"/>
<path d="M316.96 423.2C318.766 423.2 320.23 422.828 320.23 422.37C320.23 421.912 318.766 421.54 316.96 421.54C315.154 421.54 313.69 421.912 313.69 422.37C313.69 422.828 315.154 423.2 316.96 423.2Z" fill="#26C3EC"/>
<path d="M395.66 299.83H129.62L140.85 287.92H384.44L395.66 299.83Z" fill="#F0F0F0"/>
<path d="M401.19 108.39H135.15V299.83H401.19V108.39Z" fill="#E0E0E0"/>
<path d="M395.66 108.39H129.62V299.83H395.66V108.39Z" fill="#F5F5F5"/>
<path d="M384.43 116.47H140.84V287.92H384.43V116.47Z" fill="#E0E0E0"/>
<path d="M371.59 124.11H151.61V280.28H371.59V124.11Z" fill="#29C1F0"/>
<path opacity="0.1" d="M371.59 124.11H151.61V280.28H371.59V124.11Z" fill="black"/>
<path d="M395.66 108.39L384.44 116.47H140.85L129.62 108.39H395.66Z" fill="#F0F0F0"/>
<path opacity="0.5" d="M221.91 139C221.907 143.827 220.805 148.59 218.687 152.928C216.57 157.266 213.493 161.065 209.689 164.036C205.885 167.008 201.455 169.075 196.734 170.081C192.013 171.086 187.124 171.004 182.44 169.839C177.755 168.675 173.397 166.46 169.696 163.361C165.995 160.262 163.048 156.362 161.078 151.955C159.108 147.548 158.168 142.75 158.327 137.926C158.487 133.102 159.743 128.377 162 124.11H218.24C220.667 128.697 221.928 133.811 221.91 139Z" fill="black"/>
<path opacity="0.5" d="M329.281 220.048C332.181 202.357 320.191 185.664 302.5 182.764C284.809 179.864 268.116 191.854 265.216 209.545C262.316 227.236 274.306 243.929 291.997 246.829C309.688 249.729 326.381 237.739 329.281 220.048Z" fill="#FAFAFA"/>
<path opacity="0.5" d="M371.59 141V251.34C369.796 251.521 367.993 251.611 366.19 251.61C351.481 251.61 337.375 245.767 326.974 235.366C316.573 224.965 310.73 210.859 310.73 196.15C310.73 181.441 316.573 167.335 326.974 156.934C337.375 146.533 351.481 140.69 366.19 140.69C367.994 140.702 369.796 140.806 371.59 141Z" fill="black"/>
<path d="M403.72 112.4V285.23C403.721 288.696 403.04 292.128 401.714 295.331C400.388 298.533 398.444 301.443 395.993 303.893C393.543 306.344 390.633 308.288 387.431 309.614C384.228 310.94 380.796 311.621 377.33 311.62H123.33C116.331 311.62 109.618 308.84 104.669 303.891C99.7203 298.941 96.9399 292.229 96.9399 285.23V112.4C96.9386 108.934 97.6203 105.501 98.9459 102.298C100.272 99.095 102.215 96.1846 104.666 93.733C107.117 91.2814 110.026 89.3366 113.229 88.0098C116.431 86.6829 119.864 86 123.33 86H377.33C384.329 86 391.041 88.7804 395.99 93.7295C400.94 98.6785 403.72 105.391 403.72 112.39V112.4Z" stroke="#1DCDDB" stroke-width="0.865279" stroke-miterlimit="10"/>
<path d="M399.16 97.57H101.5C103.916 94.0042 107.169 91.085 110.975 89.0679C114.781 87.0509 119.023 85.9975 123.33 86H377.33C381.637 85.9966 385.88 87.0496 389.686 89.0667C393.492 91.0839 396.745 94.0036 399.16 97.57Z" fill="#1DCDDB" stroke="#1DCDDB" stroke-width="0.865279" stroke-miterlimit="10"/>
<path d="M132.35 93.49C133.289 93.49 134.05 92.7289 134.05 91.79C134.05 90.8511 133.289 90.09 132.35 90.09C131.411 90.09 130.65 90.8511 130.65 91.79C130.65 92.7289 131.411 93.49 132.35 93.49Z" fill="white"/>
<path d="M141.19 93.49C142.129 93.49 142.89 92.7289 142.89 91.79C142.89 90.8511 142.129 90.09 141.19 90.09C140.251 90.09 139.49 90.8511 139.49 91.79C139.49 92.7289 140.251 93.49 141.19 93.49Z" fill="white"/>
<path d="M150.04 93.49C150.979 93.49 151.74 92.7289 151.74 91.79C151.74 90.8511 150.979 90.09 150.04 90.09C149.101 90.09 148.34 90.8511 148.34 91.79C148.34 92.7289 149.101 93.49 150.04 93.49Z" fill="white"/>
<path d="M387.99 63.77H349.84V167.5H387.99V63.77Z" fill="#E0E0E0"/>
<path d="M382.68 64.13H344.53V167.18H382.68V64.13Z" fill="#FAFAFA" stroke="#1DCDDB" stroke-width="0.865279" stroke-miterlimit="10"/>
<path d="M377.15 134.01H350.05V161.11H377.15V134.01Z" fill="#1DCDDB"/>
<path d="M377.15 69.01H350.05V96.11H377.15V69.01Z" fill="#1DCDDB"/>
<path opacity="0.5" d="M377.15 69.01H350.05V96.11H377.15V69.01Z" fill="black"/>
<path d="M377.15 101.53H350.05V128.63H377.15V101.53Z" fill="#1DCDDB"/>
<path opacity="0.2" d="M377.15 101.53H350.05V128.63H377.15V101.53Z" fill="black"/>
<path d="M310.69 319.85H320.41" stroke="#1DCDDB" stroke-width="0.865279" stroke-miterlimit="10"/>
<path d="M256.76 319.85H303.03" stroke="#1DCDDB" stroke-width="0.865279" stroke-miterlimit="10"/>
<path d="M102.8 128.96V120.03" stroke="#1DCDDB" stroke-width="0.865279" stroke-miterlimit="10"/>
<path d="M102.8 171.57V139.88" stroke="#1DCDDB" stroke-width="0.865279" stroke-miterlimit="10"/>
<path d="M408 253.65H288.59V297.28H408V253.65Z" fill="#E0E0E0"/>
<path d="M403.7 254.31H284.65V296.89H403.7V254.31Z" fill="#FAFAFA" stroke="#1DCDDB" stroke-width="0.865279" stroke-miterlimit="10"/>
<path d="M323.2 259.61H291.22V291.59H323.2V259.61Z" fill="white" stroke="#1DCDDB" stroke-width="0.865279" stroke-miterlimit="10"/>
<path d="M360.51 259.61H328.53V291.59H360.51V259.61Z" fill="white" stroke="#1DCDDB" stroke-width="0.865279" stroke-miterlimit="10"/>
<path d="M397.83 259.61H365.85V291.59H397.83V259.61Z" fill="white" stroke="#1DCDDB" stroke-width="0.865279" stroke-miterlimit="10"/>
<path d="M312.761 281.01C315.826 277.945 315.826 272.974 312.761 269.909C309.695 266.843 304.725 266.843 301.659 269.909C298.593 272.974 298.593 277.945 301.659 281.01C304.725 284.076 309.695 284.076 312.761 281.01Z" fill="#1DCDDB"/>
<path d="M352.51 267.61H336.53V283.59H352.51V267.61Z" fill="#1DCDDB"/>
<path d="M389.76 283.45H373.92L381.84 267.61L389.76 283.45Z" fill="#1DCDDB"/>
<path d="M120.28 214.44C119.09 217.04 117.84 219.91 116.75 222.69C115.66 225.47 114.55 228.34 113.58 231.19C111.61 236.816 110.112 242.596 109.1 248.47L108.82 250.31C108.8 250.626 108.831 250.943 108.91 251.25C109.207 252.289 109.673 253.272 110.29 254.16C111.899 256.452 113.764 258.552 115.85 260.42C118.049 262.465 120.356 264.391 122.76 266.19C125.17 268.05 127.69 269.85 130.19 271.55L127.85 275.95C121.898 273.354 116.248 270.114 111 266.29C108.205 264.248 105.682 261.859 103.49 259.18C102.189 257.583 101.174 255.773 100.49 253.83C100.092 252.62 99.8897 251.354 99.89 250.08V248.51L100.01 247.26C100.729 240.735 102.102 234.3 104.11 228.05C105.11 224.97 106.11 221.9 107.31 218.91C108.51 215.92 109.73 212.99 111.24 209.91L120.28 214.44Z" fill="#E58A7B"/>
<path d="M216 223.41C215.112 227.079 213.402 230.498 211 233.41C209.074 235.754 206.719 237.709 204.06 239.17C199.01 242.09 194.06 245.09 188.94 247.93C178.86 253.73 168.69 259.31 158.47 264.79C148.25 270.27 137.88 275.46 127.47 280.52C117.06 285.58 106.41 290.4 95.7401 294.67C91.1001 296.18 86.4701 293.34 85.4101 288.32C85.05 286.543 85.1524 284.703 85.7074 282.976C86.2625 281.25 87.2516 279.695 88.5801 278.46C97.8501 270.82 107.4 263.87 117.01 256.98C126.62 250.09 136.24 243.46 146.15 237.07C156.06 230.68 165.87 224.38 175.83 218.31C180.83 215.23 185.83 212.31 190.83 209.31C193.456 207.537 196.47 206.424 199.617 206.063C202.764 205.703 205.952 206.107 208.91 207.24C214.69 209.53 217.77 216.5 216 223.41Z" fill="#010E28"/>
<path opacity="0.3" d="M216 223.41C215.112 227.079 213.402 230.498 211 233.41C209.074 235.754 206.719 237.709 204.06 239.17C199.01 242.09 194.06 245.09 188.94 247.93C178.86 253.73 168.69 259.31 158.47 264.79C148.25 270.27 137.88 275.46 127.47 280.52C117.06 285.58 106.41 290.4 95.7401 294.67C91.1001 296.18 86.4701 293.34 85.4101 288.32C85.05 286.543 85.1524 284.703 85.7074 282.976C86.2625 281.25 87.2516 279.695 88.5801 278.46C97.8501 270.82 107.4 263.87 117.01 256.98C126.62 250.09 136.24 243.46 146.15 237.07C156.06 230.68 165.87 224.38 175.83 218.31C180.83 215.23 185.83 212.31 190.83 209.31C193.456 207.537 196.47 206.424 199.617 206.063C202.764 205.703 205.952 206.107 208.91 207.24C214.69 209.53 217.77 216.5 216 223.41Z" fill="black"/>
<path d="M259.66 214.81C245.84 228.57 229.66 229.98 219.9 207.91C208.18 181.48 235.68 169.54 249 171.81C256.19 173.04 264.05 173.7 270.86 171.19C276.68 169.06 281.73 164.63 284.92 156.29C282.5 180.36 272 202.51 259.66 214.81Z" fill="#010E28"/>
<path opacity="0.8" d="M259.66 214.81C245.84 228.57 229.66 229.98 219.9 207.91C208.18 181.48 235.68 169.54 249 171.81C256.19 173.04 264.05 173.7 270.86 171.19C276.68 169.06 281.73 164.63 284.92 156.29C282.5 180.36 272 202.51 259.66 214.81Z" fill="white"/>
<path d="M259.66 214.81C258.813 214.386 258.023 213.855 257.31 213.23C253.79 210.09 252.91 204.02 256.16 200.59C252.54 199.28 250.59 194.96 251.25 191.18C251.91 187.4 254.73 184.24 258.08 182.34C260.32 181.07 262.81 180.28 265.01 178.92C267.86 177.167 269.948 174.409 270.86 171.19C276.68 169.06 281.73 164.63 284.92 156.29C282.5 180.36 272 202.51 259.66 214.81Z" fill="#010E28"/>
<path d="M247.38 198.08C247.332 198.235 247.254 198.38 247.15 198.505C247.046 198.63 246.918 198.733 246.774 198.808C246.63 198.884 246.472 198.93 246.31 198.944C246.148 198.958 245.985 198.94 245.83 198.89C245.667 198.848 245.514 198.773 245.381 198.67C245.248 198.566 245.137 198.437 245.055 198.289C244.974 198.142 244.923 197.979 244.907 197.812C244.89 197.644 244.908 197.475 244.959 197.314C245.01 197.153 245.093 197.005 245.204 196.877C245.314 196.75 245.449 196.647 245.601 196.573C245.753 196.5 245.918 196.458 246.086 196.451C246.254 196.443 246.422 196.47 246.58 196.53C246.735 196.579 246.878 196.658 247.002 196.762C247.126 196.867 247.228 196.995 247.302 197.139C247.377 197.283 247.422 197.44 247.435 197.602C247.449 197.763 247.43 197.926 247.38 198.08Z" fill="#010E28"/>
<path d="M248.46 190.61C248.225 191.366 247.771 192.036 247.154 192.534C246.538 193.032 245.788 193.335 244.999 193.407C244.21 193.478 243.418 193.313 242.723 192.933C242.028 192.553 241.461 191.976 241.094 191.274C240.728 190.571 240.578 189.776 240.664 188.989C240.75 188.201 241.068 187.457 241.577 186.85C242.086 186.244 242.764 185.802 243.525 185.581C244.286 185.36 245.095 185.37 245.85 185.61C246.857 185.93 247.697 186.635 248.186 187.572C248.675 188.509 248.774 189.601 248.46 190.61Z" fill="#010E28"/>
<path opacity="0.2" d="M259.66 214.81C258.813 214.386 258.023 213.855 257.31 213.23C253.79 210.09 252.91 204.02 256.16 200.59C252.54 199.28 250.59 194.96 251.25 191.18C251.91 187.4 254.73 184.24 258.08 182.34C260.32 181.07 262.81 180.28 265.01 178.92C267.86 177.167 269.948 174.409 270.86 171.19C276.68 169.06 281.73 164.63 284.92 156.29C282.5 180.36 272 202.51 259.66 214.81Z" fill="black"/>
<path opacity="0.2" d="M247.38 198.08C247.332 198.235 247.254 198.38 247.15 198.505C247.046 198.63 246.918 198.733 246.774 198.808C246.63 198.884 246.472 198.93 246.31 198.944C246.148 198.958 245.985 198.94 245.83 198.89C245.667 198.848 245.514 198.773 245.381 198.67C245.248 198.566 245.137 198.437 245.055 198.289C244.974 198.142 244.923 197.979 244.907 197.812C244.89 197.644 244.908 197.475 244.959 197.314C245.01 197.153 245.093 197.005 245.204 196.877C245.314 196.75 245.449 196.647 245.601 196.573C245.753 196.5 245.918 196.458 246.086 196.451C246.254 196.443 246.422 196.47 246.58 196.53C246.735 196.579 246.878 196.658 247.002 196.762C247.126 196.867 247.228 196.995 247.302 197.139C247.377 197.283 247.422 197.44 247.435 197.602C247.449 197.763 247.43 197.926 247.38 198.08Z" fill="black"/>
<path opacity="0.2" d="M248.46 190.61C248.225 191.366 247.771 192.036 247.154 192.534C246.538 193.032 245.788 193.335 244.999 193.407C244.21 193.478 243.418 193.313 242.723 192.933C242.028 192.553 241.461 191.976 241.094 191.274C240.728 190.571 240.578 189.776 240.664 188.989C240.75 188.201 241.068 187.457 241.577 186.85C242.086 186.244 242.764 185.802 243.525 185.581C244.286 185.36 245.095 185.37 245.85 185.61C246.857 185.93 247.697 186.635 248.186 187.572C248.675 188.509 248.774 189.601 248.46 190.61Z" fill="black"/>
<path d="M121.75 259C121.75 259 114.17 280.17 118.42 293C122.67 305.83 131.22 325.49 130.8 331.48C130.38 337.47 99.0001 380.64 96.4401 396L106.85 399C106.85 399 138.69 360.52 146.29 348.55C153.89 336.58 154.29 326.32 149.18 311.36C149.18 311.36 161.18 324.61 162.01 329.31C162.84 334.01 151.75 378.48 156.01 396.01L169.69 399.01C169.69 399.01 180.81 349.42 183.8 339.58C186.79 329.74 183.8 314.36 179.1 304.95C174.4 295.54 161.63 258.95 161.63 258.95L121.75 259Z" fill="#263238"/>
<path d="M104.09 401.32L100.25 409.8L92.3401 409.46L96.4501 399.51L104.09 401.32Z" fill="#FF8B7B"/>
<path d="M166.96 402.62L165.53 409.8H157.87L159.21 399.51L166.96 402.62Z" fill="#FF8B7B"/>
<path d="M168 409.8C168 409.8 169.73 404.87 171.05 405.48C172.37 406.09 168.98 410.42 168.98 410.42C168.98 410.42 172.8 407.5 173.33 408.73C173.86 409.96 168 409.8 168 409.8Z" stroke="#010E28" stroke-miterlimit="10"/>
<path d="M103.1 409.8C103.1 409.8 104.1 405.4 105.21 405.92C106.32 406.44 103.1 409.8 103.1 409.8Z" stroke="#010E28" stroke-miterlimit="10"/>
<path d="M103.1 410.42C103.1 410.42 108.72 407.74 109.1 409.16C109.48 410.58 103.1 410.42 103.1 410.42Z" stroke="#010E28" stroke-miterlimit="10"/>
<path d="M91.0001 418.34C91.0001 418.34 89.5101 418.34 89.4301 417.02C89.3501 415.7 91.0001 409.16 91.0001 409.16H101.92C101.92 409.16 106.72 413.29 109.28 413.75C111.84 414.21 113.66 414.29 113.75 415.53C113.84 416.77 111.75 418.34 111.75 418.34H91.0001Z" fill="#263238"/>
<path d="M156.78 409.16C156.78 409.16 154.59 417.06 154.94 417.94C155.29 418.82 183.71 417.94 183.71 417.94C184.121 417.658 184.454 417.278 184.681 416.834C184.908 416.391 185.021 415.898 185.01 415.4C184.85 413.82 176.17 414.52 173.1 412.85C170.03 411.18 166.95 409.16 166.95 409.16H156.78Z" fill="#263238"/>
<path d="M110.76 398.05L93.5901 394.54L92.3401 398.97L107.94 403.47L110.76 398.05Z" fill="#010E28"/>
<path d="M171.75 397.8C171.48 397.62 154.55 395.45 154.55 395.45L155.64 400.61L171.75 403.47V397.8Z" fill="#010E28"/>
<path opacity="0.3" d="M149.18 311.33L139.31 301.52L151.3 318.58L149.18 311.33Z" fill="black"/>
<path d="M157.87 167.56C158.359 169.292 159.03 170.968 159.87 172.56C159.629 172.842 159.314 173.051 158.961 173.164C158.608 173.277 158.23 173.289 157.87 173.2V167.56Z" fill="#DF5753"/>
<path d="M157.85 164.75C158.37 164.75 158.79 165.4 158.79 166.19C158.79 166.98 158.37 167.63 157.85 167.63C157.33 167.63 156.91 166.99 156.91 166.19C156.91 165.39 157.33 164.75 157.85 164.75Z" fill="#263238"/>
<path d="M133.42 176.75C134.56 182.57 135.7 193.25 131.61 197.15C131.61 197.15 133.22 203.06 144.05 203.06C155.96 203.06 149.73 197.15 149.73 197.15C143.23 195.59 143.4 190.77 144.54 186.24L133.42 176.75Z" fill="#E58A7B"/>
<path d="M130.25 163.47C130.85 173.2 130.9 177.34 135.81 182.33C143.21 189.85 155.03 186.99 157.35 177.33C159.44 168.57 159.35 155.99 149.79 152.12C143 149.32 134.02 150.71 131.22 157.5C130.443 159.389 130.111 161.432 130.25 163.47Z" fill="#E58A7B"/>
<path d="M128.17 197.81C128.089 197.236 128.235 196.653 128.576 196.184C128.918 195.715 129.429 195.398 130 195.3C134.4 194.58 144.42 193.1 149.46 193.8C153.21 194.33 154.19 196.51 154.35 198.3C154.397 198.879 154.213 199.453 153.839 199.897C153.464 200.341 152.929 200.619 152.35 200.67H152L130.23 199.67C129.726 199.64 129.248 199.44 128.874 199.102C128.499 198.764 128.251 198.308 128.17 197.81Z" fill="#010E28"/>
<path opacity="0.6" d="M128.17 197.81C128.089 197.236 128.235 196.653 128.576 196.184C128.918 195.715 129.429 195.398 130 195.3C134.4 194.58 144.42 193.1 149.46 193.8C153.21 194.33 154.19 196.51 154.35 198.3C154.397 198.879 154.213 199.453 153.839 199.897C153.464 200.341 152.929 200.619 152.35 200.67H152L130.23 199.67C129.726 199.64 129.248 199.44 128.874 199.102C128.499 198.764 128.251 198.308 128.17 197.81Z" fill="black"/>
<path d="M114.67 199.37C110.61 200.37 106.67 215.09 106.67 215.09L122.54 225.68C122.54 225.68 127.87 214 126 208.9C124.1 203.58 119.77 198.16 114.67 199.37Z" fill="#010E28"/>
<path opacity="0.2" d="M117.78 208.88L116.68 221.74L122.57 225.74C124.201 222.072 125.408 218.231 126.17 214.29L117.78 208.88Z" fill="black"/>
<path d="M166.34 199.66C166.34 199.66 171.02 201.3 161.64 258.95H121.75C122.42 242.68 122.44 232.66 114.67 199.37C120.256 198.221 125.917 197.479 131.61 197.15C137.642 196.71 143.698 196.71 149.73 197.15C157.52 197.86 166.34 199.66 166.34 199.66Z" fill="#010E28"/>
<path d="M169.83 199.43C171.257 200.571 172.478 201.947 173.44 203.5C174.83 205.77 176.37 213.65 175.87 216.81L162.27 227.11C162.27 227.11 151.98 201.57 153.84 196.47C154.98 193.36 158.35 193.26 160.84 194.12C164.115 195.371 167.154 197.166 169.83 199.43Z" fill="#010E28"/>
<path d="M156.19 158.45C156.36 161.331 155.723 164.202 154.35 166.74C152.12 170.56 151.67 178.02 154.01 181.74C155.9 184.74 159.55 186.08 161.83 188.81C164.11 191.54 165.24 195.26 163.34 198.64C161.65 201.64 158.55 203.38 156.53 206.12C153.79 209.83 151.16 214.62 145.79 214.12C138.14 213.46 137.03 206.51 131.61 207.18C126.19 207.85 117.93 208.99 116.68 200.6C115.9 195.45 119.78 192.27 120.78 187.6C121.5 184.3 119.49 181.37 119.33 178.11C119.244 176.427 119.493 174.743 120.063 173.157C120.633 171.571 121.512 170.114 122.65 168.87C124.31 167.04 126.37 165.8 127.4 163.44C128.22 161.57 128.82 159.61 129.61 157.72C131.27 153.72 134.41 150.72 139.07 150.16C152 148.65 155.5 153.26 156.19 158.45Z" fill="#263238"/>
<path d="M150.79 168.93C150.79 170.781 151.321 172.592 152.32 174.15C153.64 176.15 155.21 175.4 155.6 173.25C155.95 171.36 155.68 168.02 153.99 166.71C152.3 165.4 150.81 166.69 150.79 168.93Z" fill="#E58A7B"/>
<path d="M174.66 217.74C174.66 217.74 173.47 244.29 178.3 248.74C183.13 253.19 193.84 246.29 193.84 246.29L195.95 237.11L202.63 237.41C202.63 237.41 203.93 248.75 195.95 253.7C187.97 258.65 181.18 263.92 171.69 256.28C160.9 247.59 162.96 226.34 162.96 226.34L174.66 217.74Z" fill="#E58A7B"/>
<path d="M156.62 163.17C156.849 162.408 157.273 161.718 157.85 161.17" stroke="#263238" stroke-linecap="round" stroke-linejoin="round"/>
<path opacity="0.2" d="M163 226.37L158.82 217.74L159.4 228.01C160.693 227.696 161.915 227.14 163 226.37Z" fill="black"/>
</svg>
