<svg width="731" height="304" viewBox="0 0 731 304" fill="none" xmlns="http://www.w3.org/2000/svg">
<g clip-path="url(#clip0)">
<path d="M52.3993 263.712L35.6384 262.594L41.2253 287.736L60.2209 279.914L52.3993 263.712Z" fill="#FFB9B9"/>
<path d="M206.042 216.78L166.933 178.789L144.585 196.109L100.447 249.185L105.476 257.007L159.111 220.691L195.427 268.181L230.066 250.862L206.042 216.78Z" fill="#2F2E41"/>
<path opacity="0.1" d="M206.042 216.78L166.933 178.789L144.585 196.109L100.447 249.185L105.476 257.007L159.111 220.691L195.427 268.181L230.066 250.862L206.042 216.78Z" fill="black"/>
<path d="M209.395 241.922L204.366 245.833L163.581 231.866L154.083 227.955L135.087 231.866C135.087 231.866 135.087 216.222 152.966 216.781L171.403 221.25L193.192 222.926L209.395 241.922Z" fill="#FFB9B9"/>
<path d="M245.71 283.267L233.419 291.088H218.892L151.289 265.946L52.3993 283.825L49.6055 262.594L140.115 222.927L219.452 249.185L245.71 283.267Z" fill="#2F2E41"/>
<path d="M166.374 183.817L157.994 185.493L156.168 183.363C154.722 181.676 153.806 179.6 153.534 177.395C153.263 175.19 153.648 172.954 154.642 170.967L178.107 140.238C178.107 140.238 184.812 125.153 195.427 131.299C206.042 137.445 186.488 147.502 186.488 147.502L174.755 165.939L175.872 175.437L166.374 183.817Z" fill="#FFB9B9"/>
<path d="M219.451 147.502C231.485 147.502 241.241 137.746 241.241 125.712C241.241 113.678 231.485 103.923 219.451 103.923C207.417 103.923 197.662 113.678 197.662 125.712C197.662 137.746 207.417 147.502 219.451 147.502Z" fill="#FFB9B9"/>
<path d="M209.674 141.635L219.731 165.659L243.755 155.603C243.755 155.603 235.933 136.607 235.933 136.048C235.933 135.489 209.674 141.635 209.674 141.635Z" fill="#FFB9B9"/>
<path d="M275.83 212.708C275.83 225.858 273.757 238.926 269.69 251.431L268.058 256.448L260.236 292.205L251.856 294.44L245.71 286.618L233.419 277.679L224.48 263.153L216.814 250.381L214.423 246.392L206.042 204.489L174.196 186.611L163.581 184.935L165.816 178.789L175.314 165.939L184.812 164.821L187.605 162.586L189.84 163.704L198.779 158.676L201.573 159.793L217.909 161.313L227.832 159.234L242.101 151.574L247.945 152.53L268.058 169.291C273.2 183.189 275.832 197.889 275.83 212.708Z" fill="#575A89"/>
<path d="M40.7831 272.363C40.7831 272.363 45.7873 263.881 43.6736 262.891C41.56 261.901 32.5837 257.954 32.5837 257.954L19.4201 253.591C19.4201 253.591 0.425902 225.362 0.0089754 249.911C-0.407951 274.459 13.8391 280.36 13.8391 280.36C13.8391 280.36 26.5457 307.706 33.7435 303.346C40.9413 298.985 48.1437 284.183 48.1437 284.183C48.1437 284.183 35.1639 277.205 40.7831 272.363Z" fill="#2F2E41"/>
<path opacity="0.1" d="M269.734 207.841L248.503 221.809L216.814 250.381L214.423 246.392L207.718 212.87H209.395L226.715 181.024L269.734 207.841Z" fill="black"/>
<path d="M226.715 177.672L209.394 209.517H203.249L199.338 220.691L190.399 222.927L214.423 249.185L248.503 218.457L269.734 204.489L226.715 177.672Z" fill="#575A89"/>
<path d="M202.503 109.511L200.143 110.419C199.78 110.173 199.469 109.857 199.23 109.49C198.99 109.123 198.826 108.711 198.748 108.28C198.669 107.848 198.678 107.406 198.773 106.977C198.868 106.549 199.047 106.144 199.3 105.786L194.937 105.582C197.738 101.852 201.299 98.7595 205.384 96.5086C209.469 94.2578 213.986 92.9 218.635 92.5253C223.284 92.1506 227.96 92.7673 232.353 94.3349C236.746 95.9024 240.756 98.3849 244.118 101.618C244.317 100.934 246.482 102.265 247.366 103.615C247.663 102.501 249.693 107.883 250.411 111.686C250.744 110.42 252.022 112.464 250.902 114.426C251.612 114.323 251.932 116.138 251.383 117.149C252.159 116.785 252.028 118.952 251.187 120.4C252.294 120.302 242.451 135.578 238.466 144.506C237.309 139.189 236.007 133.59 232.276 129.63C231.642 128.956 230.947 128.343 230.254 127.731L226.503 124.42C222.142 120.571 218.175 115.819 212.365 114.381C208.372 113.392 205.848 113.169 208.023 108.67C206.058 109.49 204.222 110.71 202.238 111.472C202.265 110.843 202.542 110.14 202.503 109.511Z" fill="#2F2E41"/>
<path d="M230.346 132.137C232.506 132.137 234.257 130.386 234.257 128.226C234.257 126.066 232.506 124.315 230.346 124.315C228.186 124.315 226.435 126.066 226.435 128.226C226.435 130.386 228.186 132.137 230.346 132.137Z" fill="#FFB9B9"/>
<path d="M139.414 40.3239H120.505V59.233H139.414V40.3239Z" fill="url(#paint0_linear)"/>
<path d="M150.894 48.4278H127.933V25.4667H150.894V48.4278ZM128.932 47.4294H149.896V26.465H128.932V47.4294Z" fill="#3F3D56"/>
<path d="M54.9269 116.95L49.7349 98.7673L31.5525 103.959L36.7446 122.142L54.9269 116.95Z" fill="url(#paint1_linear)"/>
<path d="M50.2868 130.214L43.9822 108.136L66.0608 101.831L72.3654 123.91L50.2868 130.214ZM45.2163 108.821L50.9727 128.98L71.1314 123.224L65.375 103.065L45.2163 108.821Z" fill="#3F3D56"/>
<path d="M50.2278 32.265L63.1389 18.4499L49.3238 5.53871L36.4126 19.3538L50.2278 32.265Z" fill="url(#paint2_linear)"/>
<path d="M36.468 35.1194L52.1458 18.3439L68.9214 34.0217L53.2435 50.7973L36.468 35.1194ZM52.1936 19.7549L37.879 35.0717L53.1958 49.3862L67.5104 34.0694L52.1936 19.7549Z" fill="#3F3D56"/>
<path d="M693.042 3.62132H517.342V0H437.673V3.62132H261.25C259.689 3.62132 258.143 3.92872 256.701 4.52599C255.26 5.12325 253.949 5.99868 252.846 7.10228C251.742 8.20588 250.867 9.51604 250.269 10.958C249.672 12.3999 249.365 13.9453 249.365 15.5061V256.093C249.365 257.653 249.672 259.199 250.269 260.641C250.867 262.083 251.742 263.393 252.846 264.497C253.949 265.6 255.26 266.476 256.701 267.073C258.143 267.67 259.689 267.978 261.25 267.978H693.042C696.194 267.978 699.217 266.725 701.445 264.497C703.674 262.268 704.926 259.245 704.926 256.093V15.5061C704.926 13.9453 704.619 12.3999 704.022 10.958C703.425 9.51604 702.549 8.20588 701.445 7.10228C700.342 5.99868 699.032 5.12325 697.59 4.52599C696.148 3.92872 694.602 3.62132 693.042 3.62132Z" fill="#010E28"/>
<path d="M688.993 24.625H265.299V263.632H688.993V24.625Z" fill="url(#paint3_linear)"/>
<path d="M476.783 18.1066C479.183 18.1066 481.129 16.161 481.129 13.761C481.129 11.361 479.183 9.41542 476.783 9.41542C474.384 9.41542 472.438 11.361 472.438 13.761C472.438 16.161 474.384 18.1066 476.783 18.1066Z" fill="url(#paint4_linear)"/>
<path opacity="0.1" d="M567.823 263.632H265.299V24.6251L567.823 263.632Z" fill="black"/>
<path d="M331.594 245.747C354.087 245.747 372.321 227.513 372.321 205.02C372.321 182.527 354.087 164.293 331.594 164.293C309.101 164.293 290.867 182.527 290.867 205.02C290.867 227.513 309.101 245.747 331.594 245.747Z" fill="#F2F2F2"/>
<path d="M340.66 235.63C330.641 235.63 320.846 232.659 312.515 227.092C304.184 221.526 297.691 213.614 293.856 204.357C290.022 195.1 289.019 184.914 290.974 175.087C292.928 165.26 297.753 156.233 304.838 149.148C311.923 142.063 320.95 137.238 330.777 135.283C340.604 133.329 350.79 134.332 360.047 138.166C369.304 142.001 377.216 148.494 382.783 156.825C388.349 165.156 391.32 174.95 391.32 184.97C391.305 198.401 385.963 211.278 376.466 220.775C366.968 230.273 354.091 235.615 340.66 235.63ZM340.66 134.972C330.772 134.972 321.105 137.905 312.883 143.398C304.661 148.892 298.252 156.701 294.468 165.837C290.684 174.973 289.694 185.026 291.623 194.724C293.552 204.423 298.314 213.332 305.306 220.324C312.299 227.316 321.208 232.078 330.906 234.007C340.605 235.937 350.658 234.946 359.794 231.162C368.93 227.378 376.738 220.97 382.232 212.747C387.726 204.525 390.658 194.859 390.658 184.97C390.643 171.714 385.371 159.006 375.998 149.633C366.624 140.26 353.916 134.987 340.66 134.972Z" fill="#010E28"/>
<path d="M615.221 153.523H575.643V161.793H615.221V153.523Z" fill="#010E28"/>
<path d="M663.068 89.1357H527.795V92.68H663.068V89.1357Z" fill="#010E28"/>
<path d="M663.068 100.359H527.795V103.904H663.068V100.359Z" fill="#010E28"/>
<path d="M663.068 111.583H527.795V115.127H663.068V111.583Z" fill="#010E28"/>
<path d="M663.068 122.806H527.795V126.351H663.068V122.806Z" fill="#010E28"/>
<path d="M663.068 134.03H527.795V137.574H663.068V134.03Z" fill="#010E28"/>
<path d="M663.068 29.4739H646.528V46.0138H663.068V29.4739Z" fill="#F2F2F2"/>
<path d="M670.747 53.6931H650.663V33.6089H670.747V53.6931ZM651.536 52.8199H669.874V34.4821H651.536V52.8199Z" fill="#010E28"/>
<path d="M716.823 259.286H675.473V256.307C675.473 256.229 675.458 256.153 675.428 256.081C675.398 256.009 675.355 255.944 675.3 255.889C675.245 255.834 675.18 255.791 675.108 255.761C675.037 255.732 674.96 255.716 674.882 255.716H660.705C660.628 255.716 660.551 255.732 660.479 255.761C660.408 255.791 660.342 255.834 660.288 255.889C660.233 255.944 660.189 256.009 660.16 256.081C660.13 256.153 660.115 256.229 660.115 256.307V259.286H651.254V256.307C651.254 256.229 651.239 256.153 651.209 256.081C651.179 256.009 651.136 255.944 651.081 255.889C651.026 255.834 650.961 255.791 650.889 255.761C650.818 255.732 650.741 255.716 650.663 255.716H636.486C636.409 255.716 636.332 255.732 636.26 255.761C636.188 255.791 636.123 255.834 636.068 255.889C636.014 255.944 635.97 256.009 635.94 256.081C635.911 256.153 635.895 256.229 635.895 256.307V259.286H627.035V256.307C627.035 256.229 627.02 256.153 626.99 256.081C626.96 256.009 626.917 255.944 626.862 255.889C626.807 255.834 626.742 255.791 626.67 255.761C626.598 255.732 626.522 255.716 626.444 255.716H612.267C612.189 255.716 612.113 255.732 612.041 255.761C611.969 255.791 611.904 255.834 611.849 255.889C611.794 255.944 611.751 256.009 611.721 256.081C611.692 256.153 611.676 256.229 611.676 256.307V259.286H602.816V256.307C602.816 256.229 602.8 256.153 602.771 256.081C602.741 256.009 602.697 255.944 602.643 255.889C602.588 255.834 602.523 255.791 602.451 255.761C602.379 255.732 602.302 255.716 602.225 255.716H588.048C587.97 255.716 587.893 255.732 587.822 255.761C587.75 255.791 587.685 255.834 587.63 255.889C587.575 255.944 587.532 256.009 587.502 256.081C587.472 256.153 587.457 256.229 587.457 256.307V259.286H578.596V256.307C578.596 256.229 578.581 256.153 578.551 256.081C578.522 256.009 578.478 255.944 578.423 255.889C578.369 255.834 578.303 255.791 578.232 255.761C578.16 255.732 578.083 255.716 578.006 255.716H563.829C563.751 255.716 563.674 255.732 563.603 255.761C563.531 255.791 563.466 255.834 563.411 255.889C563.356 255.944 563.313 256.009 563.283 256.081C563.253 256.153 563.238 256.229 563.238 256.307V259.286H554.377V256.307C554.377 256.229 554.362 256.153 554.332 256.081C554.303 256.009 554.259 255.944 554.204 255.889C554.149 255.834 554.084 255.791 554.013 255.761C553.941 255.732 553.864 255.716 553.787 255.716H539.609C539.532 255.716 539.455 255.732 539.383 255.761C539.312 255.791 539.247 255.834 539.192 255.889C539.137 255.944 539.093 256.009 539.064 256.081C539.034 256.153 539.019 256.229 539.019 256.307V259.286H530.158V256.307C530.158 256.229 530.143 256.153 530.113 256.081C530.083 256.009 530.04 255.944 529.985 255.889C529.93 255.834 529.865 255.791 529.793 255.761C529.722 255.732 529.645 255.716 529.567 255.716H418.514C418.436 255.716 418.359 255.732 418.288 255.761C418.216 255.791 418.151 255.834 418.096 255.889C418.041 255.944 417.998 256.009 417.968 256.081C417.938 256.153 417.923 256.229 417.923 256.307V259.286H409.062V256.307C409.062 256.229 409.047 256.153 409.017 256.081C408.988 256.009 408.944 255.944 408.889 255.889C408.834 255.834 408.769 255.791 408.698 255.761C408.626 255.732 408.549 255.716 408.472 255.716H394.295C394.217 255.716 394.14 255.732 394.068 255.761C393.997 255.791 393.932 255.834 393.877 255.889C393.822 255.944 393.778 256.009 393.749 256.081C393.719 256.153 393.704 256.229 393.704 256.307V259.286H384.843V256.307C384.843 256.229 384.828 256.153 384.798 256.081C384.768 256.009 384.725 255.944 384.67 255.889C384.615 255.834 384.55 255.791 384.478 255.761C384.407 255.732 384.33 255.716 384.252 255.716H370.075C369.998 255.716 369.921 255.732 369.849 255.761C369.778 255.791 369.712 255.834 369.658 255.889C369.603 255.944 369.559 256.009 369.53 256.081C369.5 256.153 369.485 256.229 369.485 256.307V259.286H360.624V256.307C360.624 256.229 360.609 256.153 360.579 256.081C360.549 256.009 360.506 255.944 360.451 255.889C360.396 255.834 360.331 255.791 360.259 255.761C360.188 255.732 360.111 255.716 360.033 255.716H345.856C345.779 255.716 345.702 255.732 345.63 255.761C345.558 255.791 345.493 255.834 345.438 255.889C345.384 255.944 345.34 256.009 345.31 256.081C345.281 256.153 345.265 256.229 345.265 256.307V259.286H336.405V256.307C336.405 256.229 336.39 256.153 336.36 256.081C336.33 256.009 336.287 255.944 336.232 255.889C336.177 255.834 336.112 255.791 336.04 255.761C335.968 255.732 335.892 255.716 335.814 255.716H321.637C321.559 255.716 321.483 255.732 321.411 255.761C321.339 255.791 321.274 255.834 321.219 255.889C321.164 255.944 321.121 256.009 321.091 256.081C321.062 256.153 321.046 256.229 321.046 256.307V259.286H312.186V256.307C312.186 256.229 312.17 256.153 312.141 256.081C312.111 256.009 312.067 255.944 312.013 255.889C311.958 255.834 311.893 255.791 311.821 255.761C311.749 255.732 311.672 255.716 311.595 255.716H297.418C297.34 255.716 297.263 255.732 297.192 255.761C297.12 255.791 297.055 255.834 297 255.889C296.945 255.944 296.902 256.009 296.872 256.081C296.842 256.153 296.827 256.229 296.827 256.307V259.286H287.966V256.307C287.966 256.229 287.951 256.153 287.922 256.081C287.892 256.009 287.848 255.944 287.793 255.889C287.739 255.834 287.673 255.791 287.602 255.761C287.53 255.732 287.453 255.716 287.376 255.716H273.199C273.121 255.716 273.044 255.732 272.973 255.761C272.901 255.791 272.836 255.834 272.781 255.889C272.726 255.944 272.683 256.009 272.653 256.081C272.623 256.153 272.608 256.229 272.608 256.307V259.286H245.435C241.675 259.286 238.069 260.78 235.411 263.439C232.752 266.097 231.258 269.703 231.258 273.463V279.874C231.258 283.634 232.752 287.24 235.411 289.899C238.069 292.557 241.675 294.051 245.435 294.051H716.823C720.583 294.051 724.189 292.557 726.848 289.899C729.506 287.24 731 283.634 731 279.874V273.463C731 269.703 729.506 266.097 726.848 263.439C724.189 260.78 720.583 259.286 716.823 259.286Z" fill="#010E28"/>
</g>
<defs>
<linearGradient id="paint0_linear" x1="129.959" y1="40.3239" x2="129.959" y2="59.233" gradientUnits="userSpaceOnUse">
<stop stop-color="#1DCDDB"/>
<stop offset="1" stop-color="#30B9FD" stop-opacity="0.49"/>
</linearGradient>
<linearGradient id="paint1_linear" x1="52.3309" y1="107.858" x2="34.1486" y2="113.051" gradientUnits="userSpaceOnUse">
<stop stop-color="#1DCDDB"/>
<stop offset="1" stop-color="#30B9FD" stop-opacity="0.49"/>
</linearGradient>
<linearGradient id="paint2_linear" x1="56.6833" y1="25.3574" x2="42.8682" y2="12.4463" gradientUnits="userSpaceOnUse">
<stop stop-color="#1DCDDB"/>
<stop offset="1" stop-color="#30B9FD" stop-opacity="0.49"/>
</linearGradient>
<linearGradient id="paint3_linear" x1="477.146" y1="24.625" x2="477.146" y2="263.632" gradientUnits="userSpaceOnUse">
<stop stop-color="#1ECCDC"/>
<stop offset="1" stop-color="#30B9FE" stop-opacity="0.57"/>
</linearGradient>
<linearGradient id="paint4_linear" x1="476.783" y1="9.41542" x2="476.783" y2="18.1066" gradientUnits="userSpaceOnUse">
<stop stop-color="#1ECCDC"/>
<stop offset="1" stop-color="#30B9FE" stop-opacity="0.57"/>
</linearGradient>
<clipPath id="clip0">
<rect width="731" height="303.817" fill="white"/>
</clipPath>
</defs>
</svg>
