<svg width="500" height="500" viewBox="0 0 500 500" fill="none" xmlns="http://www.w3.org/2000/svg">
<path d="M500 382.4H0V382.65H500V382.4Z" fill="#EBEBEB"/>
<path d="M449.9 398.49H416.78V398.74H449.9V398.49Z" fill="#EBEBEB"/>
<path d="M331.22 401.21H322.53V401.46H331.22V401.21Z" fill="#EBEBEB"/>
<path d="M415.78 389.21H396.59V389.46H415.78V389.21Z" fill="#EBEBEB"/>
<path d="M95.65 390.89H52.46V391.14H95.65V390.89Z" fill="#EBEBEB"/>
<path d="M110.89 390.89H104.56V391.14H110.89V390.89Z" fill="#EBEBEB"/>
<path d="M225.15 395.11H131.47V395.36H225.15V395.11Z" fill="#EBEBEB"/>
<path d="M237 337.8H43.91C42.3973 337.797 40.9475 337.195 39.8788 336.124C38.8102 335.053 38.21 333.603 38.21 332.09V60.66C38.2231 59.156 38.8292 57.718 39.8964 56.6582C40.9637 55.5985 42.4059 55.0026 43.91 55H237C238.514 55 239.967 55.6016 241.038 56.6724C242.108 57.7433 242.71 59.1956 242.71 60.71V332.09C242.71 333.604 242.108 335.057 241.038 336.128C239.967 337.198 238.514 337.8 237 337.8ZM43.91 55.2C42.4636 55.2026 41.0774 55.7791 40.0556 56.8027C39.0338 57.8264 38.46 59.2136 38.46 60.66V332.09C38.46 333.536 39.0338 334.924 40.0556 335.947C41.0774 336.971 42.4636 337.547 43.91 337.55H237C238.447 337.547 239.834 336.971 240.858 335.948C241.881 334.924 242.457 333.537 242.46 332.09V60.66C242.457 59.2127 241.881 57.8255 240.858 56.8021C239.834 55.7787 238.447 55.2026 237 55.2H43.91Z" fill="#EBEBEB"/>
<path d="M453.31 337.8H260.21C258.696 337.797 257.246 337.195 256.175 336.125C255.105 335.054 254.503 333.604 254.5 332.09V60.66C254.516 59.1551 255.124 57.7171 256.193 56.6576C257.262 55.5981 258.705 55.0025 260.21 55H453.31C454.812 55.0052 456.252 55.6022 457.317 56.6617C458.382 57.7212 458.987 59.1578 459 60.66V332.09C459 333.601 458.401 335.05 457.335 336.121C456.268 337.191 454.821 337.795 453.31 337.8ZM260.21 55.2C258.763 55.2026 257.375 55.7787 256.352 56.8021C255.329 57.8255 254.753 59.2127 254.75 60.66V332.09C254.753 333.537 255.329 334.924 256.352 335.948C257.375 336.971 258.763 337.547 260.21 337.55H453.31C454.757 337.547 456.145 336.971 457.168 335.948C458.191 334.924 458.767 333.537 458.77 332.09V60.66C458.767 59.2127 458.191 57.8255 457.168 56.8021C456.145 55.7787 454.757 55.2026 453.31 55.2H260.21Z" fill="#EBEBEB"/>
<path d="M428.26 96.3H280.25V194.69H428.26V96.3Z" fill="#E6E6E6"/>
<path d="M431.55 96.3H283.54V194.69H431.55V96.3Z" fill="#F5F5F5"/>
<path d="M425.65 188.06V102.93L289.44 102.93V188.06H425.65Z" fill="white"/>
<path d="M425.65 188.06V102.93H423.16V188.06H425.65Z" fill="#E6E6E6"/>
<path d="M429.11 167.86H285.98V176.76H429.11V167.86Z" fill="#F5F5F5"/>
<path d="M438 85.3201H273.81C273.569 85.3201 273.338 85.4159 273.167 85.5866C272.996 85.7573 272.9 85.9887 272.9 86.2301C272.9 86.4714 272.996 86.7029 273.167 86.8735C273.338 87.0442 273.569 87.1401 273.81 87.1401H438C438.242 87.1401 438.473 87.0442 438.644 86.8735C438.815 86.7029 438.91 86.4714 438.91 86.2301C438.91 85.9887 438.815 85.7573 438.644 85.5866C438.473 85.4159 438.242 85.3201 438 85.3201Z" fill="#E6E6E6"/>
<path d="M438.9 88.5C440.154 88.5 441.17 87.4837 441.17 86.23C441.17 84.9763 440.154 83.96 438.9 83.96C437.646 83.96 436.63 84.9763 436.63 86.23C436.63 87.4837 437.646 88.5 438.9 88.5Z" fill="#E6E6E6"/>
<path d="M281.48 91.32C281.156 91.32 280.844 91.1918 280.614 90.9633C280.383 90.7348 280.253 90.4245 280.25 90.1V87.46C280.25 87.1338 280.38 86.8209 280.61 86.5902C280.841 86.3596 281.154 86.23 281.48 86.23C281.804 86.2326 282.115 86.3634 282.343 86.5938C282.572 86.8241 282.7 87.1355 282.7 87.46V90.1C282.7 90.2602 282.668 90.4188 282.607 90.5668C282.546 90.7149 282.456 90.8494 282.343 90.9626C282.229 91.0759 282.095 91.1658 281.947 91.2271C281.799 91.2884 281.64 91.32 281.48 91.32Z" fill="#E6E6E6"/>
<path d="M424.28 91.32C423.955 91.32 423.644 91.1918 423.414 90.9633C423.183 90.7348 423.052 90.4245 423.05 90.1V87.46C423.052 87.1346 423.183 86.8232 423.413 86.5931C423.643 86.363 423.954 86.2326 424.28 86.23C424.606 86.23 424.919 86.3596 425.15 86.5902C425.38 86.8209 425.51 87.1338 425.51 87.46V90.1C425.507 90.4245 425.376 90.7348 425.146 90.9633C424.916 91.1918 424.604 91.32 424.28 91.32Z" fill="#E6E6E6"/>
<path opacity="0.4" d="M437.7 86.23H285.98V181.83H437.7V86.23Z" fill="#E0E0E0"/>
<path d="M296.09 88.5C297.344 88.5 298.36 87.4837 298.36 86.23C298.36 84.9763 297.344 83.96 296.09 83.96C294.837 83.96 293.82 84.9763 293.82 86.23C293.82 87.4837 294.837 88.5 296.09 88.5Z" fill="#E6E6E6"/>
<path d="M377.72 199.16C380.38 202.84 375.72 206.16 379.56 209.97C383.4 213.78 378.35 217.3 377.47 221.34C376.59 225.38 382.47 227.24 382.98 232.24C383.49 237.24 374.33 243.24 374.33 243.24C374.33 243.24 367.8 241.64 365.44 236.88C363.08 232.12 367.44 228.88 364.35 225.4C361.26 221.92 354.56 219.92 355.96 215.4C357.36 210.88 352.29 209.4 350.45 205.4C349.83 204.04 350.2 205.02 350.97 203.49C352.9 199.65 356.26 192.77 360.5 192.06C369.42 190.5 374 194 377.72 199.16Z" fill="#E0E0E0"/>
<path d="M379.16 193.1C375.85 197.1 380.88 201.1 376.16 205.22C371.44 209.34 376.94 213.6 377.6 218.22C378.26 222.84 371.47 224.59 370.48 230.22C369.49 235.85 379.38 243.22 379.38 243.22C379.38 243.22 386.9 241.83 389.96 236.59C393.02 231.35 388.34 227.43 392.14 223.65C395.94 219.87 403.67 218.09 402.45 212.88C401.23 207.67 407.09 206.36 409.51 201.88C410.38 200.27 409.98 198.28 409.12 196.38C408.135 194.296 406.647 192.489 404.789 191.124C402.932 189.759 400.763 188.877 398.48 188.56C392.6 187.64 383.81 187.49 379.16 193.1Z" fill="#E6E6E6"/>
<path d="M410 227C410 227 409.19 249.85 378.42 249.85C347.65 249.85 346.88 227 346.88 227H410Z" fill="#F5F5F5"/>
<path d="M308.72 256.14H279.68V375.87H308.72V256.14Z" fill="#F0F0F0"/>
<path d="M428.46 375.88H285.26V382.4H428.46V375.88Z" fill="#F0F0F0"/>
<path d="M308.72 375.88H434.03V256.15H308.72V375.88Z" fill="#F5F5F5"/>
<path d="M423.12 330.31H319.63V301.71H423.12V330.31ZM320.63 329.31H422.12V302.71H320.63V329.31Z" fill="#F0F0F0"/>
<path d="M423.12 364.06H319.63V335.47H423.12V364.06ZM320.63 363.06H422.12V336.47H320.63V363.06Z" fill="#F0F0F0"/>
<path d="M383.4 306.84H359.4C358.788 306.837 358.202 306.593 357.769 306.16C357.337 305.728 357.092 305.142 357.09 304.53C357.09 303.916 357.333 303.328 357.766 302.893C358.199 302.458 358.786 302.213 359.4 302.21H383.4C384.013 302.213 384.601 302.458 385.034 302.893C385.467 303.328 385.71 303.916 385.71 304.53C385.707 305.142 385.463 305.728 385.03 306.16C384.598 306.593 384.012 306.837 383.4 306.84Z" fill="#EBEBEB"/>
<path d="M423.12 296.56H319.63V268H423.12V296.56ZM320.63 295.56H422.12V269H320.63V295.56Z" fill="#F0F0F0"/>
<path d="M383.4 273.09H359.4C358.787 273.085 358.201 272.838 357.769 272.404C357.336 271.97 357.092 271.383 357.09 270.77C357.092 270.158 357.337 269.572 357.769 269.139C358.202 268.707 358.788 268.463 359.4 268.46H383.4C384.012 268.463 384.598 268.707 385.03 269.139C385.463 269.572 385.707 270.158 385.71 270.77C385.707 271.383 385.463 271.97 385.031 272.404C384.599 272.838 384.013 273.085 383.4 273.09Z" fill="#EBEBEB"/>
<path d="M383.4 340.6H359.4C358.787 340.595 358.201 340.348 357.769 339.914C357.336 339.48 357.092 338.893 357.09 338.28C357.092 337.668 357.337 337.082 357.769 336.649C358.202 336.217 358.788 335.973 359.4 335.97H383.4C384.012 335.973 384.598 336.217 385.03 336.649C385.463 337.082 385.707 337.668 385.71 338.28C385.707 338.893 385.463 339.48 385.031 339.914C384.599 340.348 384.013 340.595 383.4 340.6Z" fill="#EBEBEB"/>
<path d="M437.9 249.85H308.72V256.15H437.9V249.85Z" fill="#F0F0F0"/>
<path d="M275.62 256.14H308.72V249.84H275.62V256.14Z" fill="#E6E6E6"/>
<path d="M201.93 82H95.1104V203.18H201.93V82Z" fill="#F0F0F0"/>
<path d="M210.67 82H96.6797V203.18H210.67V82Z" fill="#F5F5F5"/>
<path d="M201.12 193.63V91.55H106.23V193.63H201.12Z" fill="white"/>
<path d="M178.12 159.48V125.7C178.12 120.503 173.907 116.29 168.71 116.29H138.64C133.443 116.29 129.23 120.503 129.23 125.7V159.48C129.23 164.677 133.443 168.89 138.64 168.89H168.71C173.907 168.89 178.12 164.677 178.12 159.48Z" fill="#F5F5F5"/>
<path d="M197.47 287.61C196.94 287.61 196.4 287.61 195.86 287.66C192.486 287.906 189.207 288.894 186.258 290.553C183.309 292.212 180.762 294.502 178.8 297.258C176.837 300.014 175.507 303.17 174.903 306.499C174.3 309.829 174.439 313.25 175.31 316.52C177.817 326.282 179.028 336.332 178.91 346.41V375.75C178.91 376.772 179.316 377.752 180.037 378.476C180.759 379.199 181.738 379.607 182.76 379.61H275.92V287.61H197.47Z" fill="#F0F0F0"/>
<path d="M298.86 310.55C298.85 307.288 298.145 304.065 296.791 301.097C295.437 298.129 293.465 295.484 291.008 293.339C288.551 291.193 285.664 289.597 282.541 288.655C279.417 287.714 276.129 287.449 272.895 287.88C269.662 288.31 266.557 289.425 263.788 291.15C261.02 292.875 258.651 295.171 256.84 297.885C255.029 300.598 253.817 303.666 253.286 306.885C252.755 310.104 252.917 313.399 253.76 316.55C256.267 326.312 257.478 336.362 257.36 346.44V375.78C257.359 376.286 257.458 376.788 257.651 377.256C257.843 377.725 258.127 378.15 258.484 378.509C258.842 378.867 259.267 379.152 259.735 379.346C260.202 379.54 260.704 379.64 261.21 379.64H290.62C291.127 379.64 291.629 379.54 292.098 379.346C292.566 379.152 292.991 378.868 293.35 378.509C293.708 378.151 293.993 377.725 294.187 377.257C294.381 376.789 294.48 376.287 294.48 375.78V344.68C294.397 335.229 295.591 325.811 298.03 316.68C298.582 314.683 298.861 312.621 298.86 310.55Z" fill="#F5F5F5"/>
<path d="M244.3 323.75H160.69V379.61H244.3V323.75Z" fill="#F0F0F0"/>
<path d="M108.95 250.57H186.13C188.41 250.57 190.667 251.019 192.773 251.892C194.88 252.764 196.793 254.043 198.405 255.655C200.017 257.267 201.296 259.18 202.169 261.287C203.041 263.393 203.49 265.65 203.49 267.93V336.38H91.5801V267.93C91.5801 263.326 93.4091 258.91 96.6647 255.655C99.9203 252.399 104.336 250.57 108.94 250.57H108.95Z" fill="#E0E0E0"/>
<path d="M130 250.57H208.86C213.244 250.57 217.449 252.312 220.549 255.412C223.649 258.512 225.39 262.716 225.39 267.1V336.38H113.45V267.09C113.452 264.918 113.881 262.768 114.713 260.763C115.546 258.757 116.765 256.935 118.302 255.401C119.839 253.867 121.663 252.651 123.671 251.822C125.678 250.993 127.829 250.567 130 250.57Z" fill="#F5F5F5"/>
<path d="M166.16 318.65H243.23C244.556 318.65 245.828 319.177 246.766 320.114C247.704 321.052 248.23 322.324 248.23 323.65V336.32C248.23 337.646 247.704 338.918 246.766 339.855C245.828 340.793 244.556 341.32 243.23 341.32H166.16C165.76 341.32 165.376 341.161 165.093 340.878C164.809 340.594 164.65 340.21 164.65 339.81V320.15C164.653 319.751 164.813 319.37 165.096 319.089C165.379 318.808 165.762 318.65 166.16 318.65Z" fill="#E0E0E0"/>
<path d="M83.3395 287.61C82.8095 287.61 82.2695 287.61 81.7295 287.66C76.1984 288.06 70.9978 290.444 67.0857 294.375C63.1736 298.305 60.8133 303.517 60.4395 309.05C60.2815 311.563 60.5314 314.086 61.1795 316.52C63.6864 326.282 64.8968 336.332 64.7795 346.41V375.75C64.7782 376.256 64.8768 376.758 65.0697 377.226C65.2626 377.695 65.546 378.12 65.9036 378.479C66.2613 378.837 66.6861 379.122 67.1539 379.316C67.6216 379.51 68.1231 379.61 68.6295 379.61H161.78V287.61H83.3395Z" fill="#F0F0F0"/>
<path d="M184.729 310.55C184.72 307.288 184.014 304.065 182.66 301.097C181.306 298.129 179.335 295.484 176.877 293.339C174.42 291.193 171.533 289.597 168.41 288.655C165.286 287.714 161.998 287.449 158.764 287.88C155.531 288.31 152.426 289.425 149.657 291.15C146.889 292.875 144.52 295.171 142.709 297.885C140.898 300.598 139.687 303.666 139.156 306.885C138.625 310.104 138.786 313.399 139.63 316.55C142.128 326.313 143.335 336.362 143.22 346.44V375.78C143.22 376.287 143.319 376.789 143.513 377.257C143.707 377.725 143.992 378.151 144.35 378.509C144.709 378.868 145.134 379.152 145.602 379.346C146.071 379.54 146.573 379.64 147.08 379.64H176.49C176.996 379.64 177.497 379.54 177.965 379.346C178.433 379.152 178.858 378.867 179.215 378.509C179.573 378.15 179.856 377.725 180.049 377.256C180.242 376.788 180.341 376.286 180.34 375.78V344.68C180.255 335.229 181.452 325.809 183.899 316.68C184.451 314.683 184.73 312.621 184.729 310.55Z" fill="#F5F5F5"/>
<path d="M274.28 382.4H85.0002C84.633 382.401 84.2691 382.33 83.9294 382.19C83.5898 382.051 83.281 381.845 83.0209 381.586C82.7608 381.327 82.5544 381.019 82.4135 380.68C82.2727 380.341 82.2002 379.977 82.2002 379.61H277.07C277.07 380.35 276.776 381.059 276.253 381.583C275.73 382.106 275.02 382.4 274.28 382.4Z" fill="#E0E0E0"/>
<path d="M250 427.56C357.083 427.56 443.89 422.492 443.89 416.24C443.89 409.988 357.083 404.92 250 404.92C142.918 404.92 56.1104 409.988 56.1104 416.24C56.1104 422.492 142.918 427.56 250 427.56Z" fill="#F5F5F5"/>
<path d="M308.2 123.37C311.06 128.53 311.3 149.6 306 153.92C296.26 152.85 288.51 148.14 288.26 137.05C288.01 125.96 302.81 113.67 308.2 123.37Z" fill="#263238"/>
<path d="M297.9 151C295.34 149.5 291.08 154.44 290.1 162.91C289.4 168.91 277.64 158.77 273.81 168.59C269.87 165.59 267.6 153.9 278.81 157.02C286.74 159.21 285.07 157.89 288.73 153.02C292.57 147.92 295.46 148.28 297.9 151Z" fill="#263238"/>
<path d="M331.629 176.61L332.539 179.46C332.859 180.46 333.199 181.46 333.539 182.41C334.209 184.41 334.909 186.41 335.649 188.33C336.389 190.25 337.119 192.27 337.909 194.23L339.059 197.23L339.349 197.97L339.419 198.14C339.296 198.032 339.153 197.947 338.999 197.89C338.779 197.81 338.689 197.89 338.819 197.89C339.06 197.89 339.3 197.853 339.529 197.78C340.315 197.533 341.069 197.197 341.779 196.78C343.482 195.782 345.112 194.666 346.659 193.44C348.279 192.18 349.869 190.83 351.419 189.44C352.969 188.05 354.559 186.6 356.069 185.18L359.139 187.78C357.859 189.62 356.499 191.3 355.139 193.01C353.779 194.72 352.219 196.32 350.639 197.91C349.014 199.568 347.248 201.08 345.359 202.43C344.274 203.191 343.107 203.829 341.879 204.33C341.107 204.641 340.296 204.85 339.469 204.95C338.339 205.09 337.192 204.935 336.139 204.5C334.775 203.874 333.652 202.821 332.939 201.5L332.679 200.96L332.319 200.23C331.839 199.23 331.319 198.23 330.899 197.29C329.989 195.29 329.079 193.29 328.259 191.29C327.439 189.29 326.609 187.23 325.849 185.17C325.479 184.17 325.129 183.08 324.779 182.03C324.429 180.98 324.119 179.95 323.779 178.72L331.629 176.61Z" fill="#803E3C"/>
<path d="M329.27 167.73C332.71 168.61 335.12 182.79 335.12 182.79L325.63 189.25C325.63 189.25 316.52 174.94 319.17 171.15C321.93 167.21 324.24 166.45 329.27 167.73Z" fill="url(#paint0_linear)"/>
<path d="M329.27 167.73C332.71 168.61 335.12 182.79 335.12 182.79L325.63 189.25C325.63 189.25 316.52 174.94 319.17 171.15C321.93 167.21 324.24 166.45 329.27 167.73Z" fill="#263238"/>
<path opacity="0.3" d="M328.96 170.9L331.6 185.19L326.27 188.81L328.96 170.9Z" fill="black"/>
<path d="M355.91 185.52L359.08 177.88L362.99 185.52C362.99 185.52 360.45 189.32 357.1 188.39L355.91 185.52Z" fill="#7F3E3B"/>
<path d="M362.57 177.09L367.6 179.11L362.99 185.52L359.08 177.88L362.57 177.09Z" fill="#7F3E3B"/>
<path d="M371.569 170.597L360.5 179.539C357.17 182.228 356.651 187.108 359.341 190.437L368.282 201.507C370.972 204.837 375.851 205.356 379.181 202.666L390.251 193.724C393.58 191.035 394.099 186.155 391.41 182.826L382.468 171.756C379.778 168.426 374.899 167.907 371.569 170.597Z" fill="url(#paint1_linear)"/>
<path d="M310.62 406.45H318.98L319.54 387.08H311.18L310.62 406.45Z" fill="#7F3E3B"/>
<path d="M254.5 381.5L262.19 384.78L272.25 368.02L264.56 364.74L254.5 381.5Z" fill="#7F3E3B"/>
<path d="M263.66 383.64L255.66 378.72C255.523 378.632 255.358 378.598 255.198 378.624C255.037 378.649 254.892 378.734 254.79 378.86L249.99 384.63C249.868 384.78 249.78 384.954 249.732 385.141C249.684 385.328 249.676 385.523 249.711 385.713C249.745 385.903 249.82 386.083 249.93 386.241C250.04 386.4 250.183 386.532 250.35 386.63C253.17 388.3 254.62 388.96 258.14 391.12C260.3 392.46 263.33 394.62 266.32 396.46C269.31 398.3 271.32 395.46 270.21 394.41C265.36 389.78 265.5 387.58 264.59 384.84C264.431 384.343 264.102 383.918 263.66 383.64Z" fill="#263238"/>
<path d="M319.269 405.48H309.869C309.709 405.479 309.553 405.536 309.432 405.64C309.31 405.745 309.231 405.891 309.209 406.05L308.139 413.49C308.118 413.678 308.137 413.868 308.195 414.048C308.253 414.227 308.348 414.393 308.475 414.533C308.602 414.673 308.757 414.784 308.93 414.86C309.103 414.935 309.29 414.973 309.479 414.97C312.749 414.92 314.329 414.72 318.479 414.72C321.019 414.72 326.279 414.99 329.789 414.99C333.299 414.99 333.489 411.52 332.029 411.2C325.469 409.79 322.889 407.85 320.689 406C320.294 405.662 319.79 405.477 319.269 405.48Z" fill="#263238"/>
<path opacity="0.2" d="M319.54 387.09L319.25 397.07H310.89L311.17 387.09H319.54Z" fill="black"/>
<path opacity="0.2" d="M264.549 364.75L272.249 368.02L267.059 376.66L259.359 373.38L264.549 364.75Z" fill="black"/>
<path d="M329.27 167.73C329.27 167.73 333.27 169.13 325.27 218.2H291.27C291.84 204.38 291.85 195.86 285.27 167.49C290.024 166.507 294.843 165.872 299.69 165.59C304.823 165.22 309.976 165.22 315.11 165.59C321.76 166.19 329.27 167.73 329.27 167.73Z" fill="#263238"/>
<path d="M301.24 148.22C302.24 153.22 303.18 162.28 299.71 165.59C299.71 165.59 301.07 170.59 310.29 170.59C320.42 170.59 315.13 165.59 315.13 165.59C309.6 164.27 309.74 160.16 310.7 156.31L301.24 148.22Z" fill="#7F3E3B"/>
<path opacity="0.2" d="M305.1 151.52L310.7 156.3C310.462 157.197 310.305 158.114 310.23 159.04C308.11 158.73 305.23 156.41 304.98 154.2C304.858 153.307 304.899 152.399 305.1 151.52Z" fill="black"/>
<path d="M296.66 139.36C298.59 147.43 299.24 150.89 304.1 154.36C311.4 159.57 320.89 155.43 321.41 146.94C321.87 139.3 318.63 127.39 310.07 125.55C308.187 125.133 306.228 125.205 304.38 125.759C302.532 126.313 300.856 127.33 299.512 128.714C298.168 130.098 297.201 131.803 296.702 133.666C296.202 135.529 296.188 137.49 296.66 139.36Z" fill="#7F3E3B"/>
<path d="M319.67 134.09C319.728 134.102 319.788 134.1 319.846 134.084C319.903 134.069 319.956 134.04 320 134C320.073 133.925 320.114 133.825 320.114 133.72C320.114 133.615 320.073 133.515 320 133.44C319.574 132.979 319.044 132.624 318.456 132.405C317.867 132.186 317.234 132.109 316.61 132.18C316.506 132.202 316.415 132.263 316.355 132.351C316.296 132.438 316.272 132.546 316.29 132.65C316.312 132.753 316.373 132.844 316.461 132.902C316.549 132.96 316.657 132.981 316.76 132.96C317.252 132.905 317.751 132.967 318.215 133.141C318.679 133.315 319.095 133.595 319.43 133.96C319.492 134.031 319.577 134.077 319.67 134.09Z" fill="#263238"/>
<path d="M319.459 143.73C318.873 143.718 318.309 143.507 317.859 143.13C316.43 141.722 315.599 139.816 315.539 137.81C315.229 134.21 316.539 131.16 318.629 130.86C318.971 130.816 319.317 130.845 319.647 130.945C319.976 131.045 320.28 131.214 320.539 131.44C321.969 132.848 322.8 134.754 322.859 136.76C323.179 140.35 321.859 143.41 319.779 143.76C319.672 143.76 319.565 143.75 319.459 143.73ZM318.949 131.33H318.699C316.939 131.59 315.749 134.47 316.029 137.75C316.07 139.631 316.837 141.422 318.169 142.75C318.375 142.935 318.619 143.073 318.882 143.156C319.146 143.238 319.425 143.264 319.699 143.23C321.459 142.97 322.699 140.09 322.369 136.81C322.329 134.93 321.562 133.138 320.229 131.81C319.882 131.521 319.451 131.352 318.999 131.33H318.949Z" fill="white"/>
<path d="M325.269 218.2C325.269 218.2 331.869 282.62 331.319 308.12C330.749 334.64 321.029 395.12 321.029 395.12H309.719C309.719 395.12 311.509 336.17 310.509 310.12C309.419 281.72 300.399 218.18 300.399 218.18L325.269 218.2Z" fill="url(#paint2_linear)"/>
<path opacity="0.2" d="M325.269 218.2C325.269 218.2 331.869 282.62 331.319 308.12C330.749 334.64 321.029 395.12 321.029 395.12H309.719C309.719 395.12 311.509 336.17 310.509 310.12C309.419 281.72 300.399 218.18 300.399 218.18L325.269 218.2Z" fill="white"/>
<path d="M308.74 395.54H322.01L322.98 391.31L308.12 390.79L308.74 395.54Z" fill="url(#paint3_linear)"/>
<path opacity="0.2" d="M310.62 234.23C319 251 312.3 281.62 309.35 293C307.83 275.9 305.28 255 303.3 239.63C304.56 231 306.77 226.49 310.62 234.23Z" fill="black"/>
<path d="M316.3 218.2C316.3 218.2 308.61 285.2 302.8 306.67C295.9 332.2 269.67 375.67 269.67 375.67L259.18 371.21C259.18 371.21 275.42 321.85 280.69 308.4C291.95 279.7 282.31 236.93 291.31 218.2H316.3Z" fill="url(#paint4_linear)"/>
<path opacity="0.2" d="M316.3 218.2C316.3 218.2 308.61 285.2 302.8 306.67C295.9 332.2 269.67 375.67 269.67 375.67L259.18 371.21C259.18 371.21 275.42 321.85 280.69 308.4C291.95 279.7 282.31 236.93 291.31 218.2H316.3Z" fill="white"/>
<path d="M257.739 371.24L270.759 376.78L273.879 373.28L258.869 366.07L257.739 371.24Z" fill="url(#paint5_linear)"/>
<path d="M309.43 139.47C309.55 140.13 310 140.61 310.43 140.53C310.86 140.45 311.12 139.85 311.01 139.19C310.9 138.53 310.44 138.05 310.01 138.12C309.58 138.19 309.32 138.8 309.43 139.47Z" fill="#263238"/>
<path d="M316.94 138.15C317.06 138.81 317.51 139.29 317.94 139.21C318.37 139.13 318.63 138.53 318.51 137.87C318.39 137.21 317.95 136.73 317.51 136.8C317.07 136.87 316.83 137.48 316.94 138.15Z" fill="#263238"/>
<path d="M317.33 136.88L318.85 136.13C318.85 136.13 318.25 137.52 317.33 136.88Z" fill="#263238"/>
<path d="M315.16 139.64C316.017 141.05 317.063 142.335 318.27 143.46C317.974 143.761 317.615 143.994 317.22 144.142C316.824 144.291 316.401 144.352 315.98 144.32L315.16 139.64Z" fill="#630F0F"/>
<path d="M313 147.45C313.379 147.45 313.757 147.416 314.13 147.35C314.181 147.34 314.227 147.311 314.257 147.268C314.287 147.225 314.299 147.172 314.29 147.12C314.284 147.09 314.27 147.061 314.25 147.038C314.231 147.014 314.205 146.995 314.177 146.983C314.148 146.972 314.117 146.967 314.086 146.97C314.055 146.973 314.026 146.983 314 147C313.176 147.162 312.326 147.129 311.518 146.901C310.71 146.673 309.968 146.258 309.35 145.69C309.334 145.667 309.312 145.647 309.288 145.633C309.263 145.618 309.236 145.609 309.207 145.606C309.179 145.603 309.15 145.606 309.123 145.615C309.096 145.624 309.071 145.639 309.05 145.659C309.029 145.678 309.013 145.702 309.002 145.728C308.991 145.755 308.985 145.783 308.986 145.812C308.987 145.84 308.994 145.868 309.007 145.894C309.02 145.919 309.038 145.942 309.06 145.96C310.127 146.954 311.542 147.489 313 147.45Z" fill="#263238"/>
<path d="M308.89 127.46C309.04 131.31 302.98 143.67 298.61 144.63C293.25 141.13 291.75 135 294.87 128.46C297.99 121.92 308.61 120.21 308.89 127.46Z" fill="#263238"/>
<path d="M311.649 121.25C308.259 120.72 296.649 122.67 302.869 126.25C309.089 129.83 314.039 130.8 317.059 130.44C320.079 130.08 319.109 122.41 311.649 121.25Z" fill="#263238"/>
<path d="M295.64 145.27C296.257 146.751 297.436 147.927 298.92 148.54C300.92 149.34 302.11 147.63 301.76 145.65C301.45 143.86 300.04 141.29 297.97 141.34C297.517 141.36 297.076 141.493 296.687 141.726C296.298 141.959 295.973 142.285 295.742 142.675C295.511 143.065 295.38 143.507 295.362 143.96C295.345 144.413 295.44 144.863 295.64 145.27Z" fill="#7F3E3B"/>
<path d="M306.75 137.19C306.801 137.174 306.849 137.149 306.89 137.114C306.931 137.08 306.965 137.038 306.99 136.99C307.199 136.54 307.512 136.145 307.903 135.839C308.294 135.533 308.752 135.325 309.24 135.23C309.292 135.225 309.343 135.21 309.389 135.185C309.435 135.16 309.476 135.126 309.508 135.084C309.541 135.043 309.565 134.996 309.579 134.946C309.593 134.895 309.597 134.842 309.59 134.79C309.585 134.738 309.569 134.687 309.544 134.641C309.519 134.595 309.485 134.554 309.444 134.521C309.403 134.489 309.356 134.465 309.305 134.451C309.255 134.437 309.202 134.433 309.15 134.44C308.531 134.548 307.947 134.804 307.448 135.185C306.948 135.566 306.548 136.062 306.28 136.63C306.256 136.677 306.241 136.729 306.237 136.781C306.234 136.834 306.24 136.887 306.257 136.938C306.274 136.988 306.3 137.034 306.335 137.074C306.37 137.114 306.412 137.147 306.46 137.17C306.551 137.211 306.654 137.218 306.75 137.19Z" fill="#263238"/>
<path d="M310.999 145C310.412 144.984 309.848 144.769 309.399 144.39C307.97 142.982 307.139 141.076 307.079 139.07C306.769 135.48 308.079 132.42 310.159 132.12C310.502 132.081 310.849 132.112 311.179 132.212C311.51 132.311 311.816 132.478 312.079 132.7C313.507 134.109 314.338 136.014 314.399 138.02C314.709 141.62 313.399 144.67 311.319 145.02L310.999 145ZM310.489 132.59H310.239C308.479 132.85 307.239 135.73 307.569 139.01C307.61 140.891 308.377 142.682 309.709 144.01C309.915 144.195 310.158 144.334 310.422 144.416C310.686 144.499 310.965 144.524 311.239 144.49C312.999 144.24 314.189 141.36 313.909 138.07C313.867 136.19 313.1 134.399 311.769 133.07C311.405 132.763 310.946 132.59 310.469 132.58L310.489 132.59Z" fill="white"/>
<path d="M289.619 178.33C289.284 183.118 288.633 187.878 287.669 192.58C286.778 197.362 285.439 202.049 283.669 206.58L282.919 208.31L282.729 208.74C282.664 208.891 282.591 209.038 282.509 209.18C282.418 209.362 282.311 209.536 282.189 209.7C281.914 210.122 281.577 210.499 281.189 210.82C280.701 211.207 280.14 211.493 279.539 211.66C278.58 211.925 277.563 211.897 276.619 211.58C276.063 211.405 275.535 211.152 275.049 210.83C274.373 210.38 273.743 209.865 273.169 209.29C271.409 207.454 269.841 205.444 268.489 203.29C265.936 199.277 263.668 195.09 261.699 190.76L265.189 188.76C267.909 192.43 270.639 196.18 273.519 199.61C274.83 201.254 276.278 202.783 277.849 204.18C278.115 204.411 278.407 204.609 278.719 204.77C278.799 204.77 278.859 204.77 278.719 204.77C278.325 204.652 277.904 204.652 277.509 204.77C276.029 205.21 275.859 206.52 276.169 205.51L276.719 204C278.071 199.792 279.11 195.491 279.829 191.13C280.589 186.74 281.169 182.13 281.589 177.8L289.619 178.33Z" fill="#803E3C"/>
<path d="M285.29 167.49C281.89 168.49 277.8 180.24 277.8 180.24L291 189.68C291 189.68 295.81 179.9 294.38 175.5C292.89 170.92 289.17 166.31 285.29 167.49Z" fill="#263238"/>
<path d="M267.05 386.82C267.212 386.764 267.359 386.672 267.481 386.551C267.602 386.43 267.694 386.282 267.75 386.12C267.813 386.018 267.846 385.9 267.846 385.78C267.846 385.66 267.813 385.542 267.75 385.44C267.15 384.56 264.13 384.63 263.75 384.64C263.711 384.641 263.674 384.652 263.642 384.674C263.61 384.695 263.585 384.725 263.57 384.76C263.55 384.792 263.54 384.828 263.54 384.865C263.54 384.902 263.55 384.939 263.57 384.97C264.36 385.76 265.84 387.05 266.88 386.85L267.05 386.82ZM264.24 385C265.45 385 267.07 385.17 267.38 385.64C267.409 385.685 267.425 385.737 267.425 385.79C267.425 385.844 267.409 385.896 267.38 385.94C267.339 386.061 267.268 386.169 267.173 386.255C267.079 386.341 266.964 386.401 266.84 386.43C266.29 386.57 265.33 386 264.24 385Z" fill="url(#paint6_linear)"/>
<path d="M265.13 384.79C266.05 384.5 267.02 383.99 267.24 383.42C267.292 383.272 267.292 383.11 267.242 382.962C267.191 382.813 267.091 382.685 266.96 382.6C266.842 382.501 266.703 382.431 266.554 382.395C266.405 382.358 266.249 382.357 266.1 382.39C264.91 382.6 263.639 384.64 263.579 384.73C263.564 384.761 263.557 384.795 263.557 384.83C263.557 384.865 263.564 384.899 263.579 384.93C263.596 384.961 263.621 384.986 263.651 385.004C263.68 385.022 263.715 385.031 263.75 385.03C264.219 385.017 264.684 384.936 265.13 384.79ZM266.049 382.79H266.17C266.264 382.771 266.361 382.772 266.454 382.794C266.547 382.817 266.635 382.86 266.71 382.92C266.91 383.08 266.899 383.2 266.859 383.29C266.659 383.84 265.14 384.5 264.13 384.63C264.595 383.862 265.258 383.233 266.049 382.81V382.79Z" fill="url(#paint7_linear)"/>
<path d="M322.41 406.94C323.115 406.996 323.818 406.817 324.41 406.43C324.548 406.306 324.652 406.15 324.713 405.975C324.775 405.8 324.791 405.613 324.76 405.43C324.754 405.322 324.721 405.218 324.663 405.127C324.605 405.036 324.525 404.961 324.43 404.91C323.43 404.35 320.07 406.05 319.69 406.24C319.655 406.261 319.626 406.293 319.608 406.33C319.591 406.367 319.584 406.409 319.59 406.45C319.594 406.491 319.613 406.529 319.642 406.558C319.671 406.587 319.709 406.606 319.75 406.61C320.624 406.808 321.515 406.918 322.41 406.94ZM323.9 405.21C324.027 405.203 324.154 405.227 324.27 405.28C324.308 405.303 324.34 405.335 324.363 405.374C324.385 405.412 324.398 405.455 324.4 405.5C324.417 405.616 324.404 405.734 324.364 405.844C324.324 405.954 324.257 406.052 324.17 406.13C323.66 406.59 322.29 406.67 320.44 406.36C321.519 405.782 322.69 405.393 323.9 405.21Z" fill="url(#paint8_linear)"/>
<path d="M319.82 406.65H319.9C320.9 406.2 322.9 404.4 322.71 403.45C322.71 403.22 322.52 402.95 321.97 402.89C321.773 402.867 321.573 402.886 321.384 402.944C321.194 403.003 321.019 403.1 320.87 403.23C319.82 404.11 319.63 406.36 319.62 406.45C319.614 406.485 319.618 406.52 319.633 406.552C319.647 406.584 319.67 406.611 319.7 406.63C319.736 406.65 319.778 406.657 319.82 406.65ZM321.82 403.26H321.94C322.3 403.26 322.32 403.45 322.33 403.49C322.42 404.06 321.08 405.49 320.07 406.1C320.145 405.151 320.516 404.248 321.13 403.52C321.315 403.351 321.558 403.258 321.81 403.26H321.82Z" fill="url(#paint9_linear)"/>
<path d="M290.799 216.21L289.929 219.21C289.809 219.44 290.089 219.68 290.479 219.68H325.479C325.779 219.68 326.039 219.53 326.059 219.34L326.359 216.34C326.359 216.13 326.119 215.95 325.779 215.95H291.349C291.243 215.943 291.137 215.964 291.041 216.009C290.945 216.055 290.862 216.124 290.799 216.21Z" fill="#263238"/>
<path d="M295.419 220.05H294.499C294.309 220.05 294.169 219.96 294.189 219.84L294.619 215.84C294.619 215.73 294.789 215.63 294.979 215.63H295.899C296.079 215.63 296.219 215.73 296.209 215.84L295.779 219.84C295.759 220 295.599 220.05 295.419 220.05Z" fill="url(#paint10_linear)"/>
<path opacity="0.2" d="M295.419 220.05H294.499C294.309 220.05 294.169 219.96 294.189 219.84L294.619 215.84C294.619 215.73 294.789 215.63 294.979 215.63H295.899C296.079 215.63 296.219 215.73 296.209 215.84L295.779 219.84C295.759 220 295.599 220.05 295.419 220.05Z" fill="white"/>
<path d="M322.85 220.05H321.93C321.75 220.05 321.61 219.96 321.62 219.84L322.05 215.84C322.05 215.73 322.22 215.63 322.41 215.63H323.33C323.51 215.63 323.65 215.73 323.64 215.84L323.21 219.84C323.19 220 323 220.05 322.85 220.05Z" fill="url(#paint11_linear)"/>
<path opacity="0.2" d="M322.85 220.05H321.93C321.75 220.05 321.61 219.96 321.62 219.84L322.05 215.84C322.05 215.73 322.22 215.63 322.41 215.63H323.33C323.51 215.63 323.65 215.73 323.64 215.84L323.21 219.84C323.19 220 323 220.05 322.85 220.05Z" fill="white"/>
<path d="M309.13 220.05H308.21C308.03 220.05 307.89 219.96 307.9 219.84L308.33 215.84C308.33 215.73 308.51 215.63 308.69 215.63H309.61C309.8 215.63 309.94 215.73 309.92 215.84L309.49 219.84C309.48 220 309.32 220.05 309.13 220.05Z" fill="url(#paint12_linear)"/>
<path opacity="0.2" d="M309.13 220.05H308.21C308.03 220.05 307.89 219.96 307.9 219.84L308.33 215.84C308.33 215.73 308.51 215.63 308.69 215.63H309.61C309.8 215.63 309.94 215.73 309.92 215.84L309.49 219.84C309.48 220 309.32 220.05 309.13 220.05Z" fill="white"/>
<path d="M309.819 138.19L311.339 137.45C311.339 137.45 310.739 138.84 309.819 138.19Z" fill="#263238"/>
<path d="M262.14 191.88L254.14 187.63L262.03 184.47C262.03 184.47 266.18 187.88 265.51 191.29L262.14 191.88Z" fill="#7F3E3B"/>
<path d="M251.319 181.2L258.069 178.91L263.049 185.41L254.169 187.63L251.319 181.2Z" fill="#7F3E3B"/>
<path d="M253.64 132.52H140C138.436 132.517 136.887 132.827 135.445 133.432C134.002 134.038 132.696 134.926 131.603 136.045C130.509 137.163 129.651 138.489 129.079 139.945C128.506 141.401 128.231 142.956 128.27 144.52L134.15 404.24C134.248 407.44 135.582 410.477 137.872 412.715C140.162 414.952 143.229 416.216 146.43 416.24H260.06C261.624 416.243 263.173 415.933 264.616 415.328C266.058 414.722 267.364 413.834 268.458 412.716C269.551 411.597 270.409 410.271 270.982 408.815C271.554 407.359 271.829 405.804 271.79 404.24L265.91 144.52C265.815 141.321 264.483 138.284 262.195 136.046C259.907 133.808 256.84 132.544 253.64 132.52Z" fill="#263238"/>
<path d="M256.47 132.52H142.8C141.236 132.517 139.688 132.827 138.246 133.433C136.804 134.038 135.499 134.926 134.406 136.045C133.313 137.164 132.456 138.49 131.885 139.946C131.314 141.401 131.04 142.957 131.08 144.52L137 404.24C137.096 407.439 138.427 410.476 140.715 412.714C143.003 414.952 146.07 416.216 149.27 416.24H262.9C264.464 416.243 266.012 415.933 267.454 415.327C268.896 414.722 270.201 413.834 271.294 412.715C272.387 411.596 273.244 410.27 273.815 408.814C274.386 407.359 274.66 405.803 274.62 404.24L268.74 144.52C268.644 141.321 267.313 138.284 265.025 136.046C262.737 133.808 259.67 132.544 256.47 132.52Z" fill="#263238"/>
<path d="M138.51 404.09L132.63 144.67C132.6 143.604 132.786 142.544 133.176 141.551C133.565 140.559 134.151 139.656 134.898 138.895C135.645 138.134 136.537 137.532 137.522 137.124C138.507 136.716 139.564 136.51 140.63 136.52H258.86C261.035 136.53 263.121 137.386 264.676 138.907C266.231 140.429 267.133 142.495 267.19 144.67L273.07 404.09C273.098 405.155 272.912 406.216 272.522 407.207C272.131 408.199 271.546 409.102 270.799 409.862C270.053 410.623 269.161 411.225 268.176 411.634C267.192 412.042 266.136 412.249 265.07 412.24H146.84C144.665 412.23 142.579 411.374 141.024 409.853C139.469 408.332 138.567 406.265 138.51 404.09Z" fill="white"/>
<path d="M178.121 401.65C177.956 401.649 177.795 401.608 177.651 401.53L173.721 399.28C173.577 399.195 173.457 399.075 173.371 398.932C173.286 398.789 173.237 398.627 173.231 398.46C173.229 398.291 173.272 398.125 173.357 397.979C173.441 397.833 173.563 397.712 173.711 397.63L177.541 395.39C177.686 395.318 177.846 395.282 178.008 395.286C178.17 395.29 178.329 395.333 178.471 395.411C178.612 395.49 178.733 395.602 178.822 395.738C178.91 395.873 178.965 396.029 178.981 396.19L179.081 400.67C179.081 400.935 178.975 401.189 178.788 401.377C178.6 401.565 178.346 401.67 178.081 401.67L178.121 401.65ZM173.961 398.85L177.901 401.09C177.97 401.131 178.049 401.153 178.13 401.153C178.21 401.153 178.289 401.132 178.359 401.091C178.428 401.05 178.486 400.991 178.525 400.921C178.564 400.85 178.583 400.771 178.581 400.69L178.481 396.2C178.475 396.122 178.45 396.047 178.407 395.981C178.365 395.915 178.307 395.861 178.239 395.823C178.17 395.785 178.093 395.765 178.015 395.765C177.937 395.764 177.86 395.783 177.791 395.82L174.001 398.06C173.93 398.1 173.872 398.159 173.832 398.229C173.791 398.299 173.77 398.379 173.771 398.46C173.774 398.539 173.797 398.616 173.837 398.684C173.877 398.752 173.933 398.809 174.001 398.85H173.961Z" fill="#263238"/>
<path d="M205.581 401.93C204.657 401.925 203.771 401.562 203.111 400.916C202.45 400.27 202.066 399.393 202.041 398.47C202.027 398.016 202.105 397.564 202.27 397.141C202.435 396.718 202.684 396.333 203.001 396.008C203.319 395.683 203.698 395.426 204.117 395.251C204.536 395.076 204.986 394.987 205.441 394.99C206.365 394.997 207.251 395.363 207.911 396.011C208.571 396.658 208.955 397.536 208.981 398.46C208.994 398.913 208.916 399.365 208.751 399.787C208.585 400.21 208.337 400.595 208.019 400.919C207.702 401.243 207.322 401.499 206.903 401.673C206.484 401.847 206.034 401.934 205.581 401.93ZM205.441 395.49C205.053 395.489 204.67 395.565 204.313 395.715C203.955 395.864 203.632 396.084 203.361 396.36C203.089 396.636 202.876 396.965 202.735 397.326C202.594 397.687 202.528 398.073 202.541 398.46C202.556 399.251 202.877 400.005 203.436 400.564C203.996 401.124 204.75 401.445 205.541 401.46C205.931 401.465 206.319 401.389 206.679 401.239C207.04 401.088 207.365 400.866 207.637 400.585C207.908 400.304 208.12 399.971 208.258 399.605C208.396 399.24 208.458 398.85 208.441 398.46C208.418 397.674 208.093 396.928 207.535 396.375C206.976 395.822 206.226 395.505 205.441 395.49Z" fill="#263238"/>
<path d="M237.81 401.58H233.24C233.018 401.58 232.805 401.493 232.646 401.338C232.487 401.183 232.395 400.972 232.39 400.75L232.29 396.18C232.285 396.071 232.303 395.962 232.342 395.86C232.382 395.759 232.442 395.667 232.52 395.59C232.596 395.51 232.687 395.446 232.789 395.403C232.89 395.36 233 395.339 233.11 395.34H237.68C237.902 395.34 238.115 395.427 238.274 395.582C238.433 395.737 238.525 395.948 238.53 396.17L238.63 400.74C238.635 400.85 238.618 400.96 238.579 401.063C238.54 401.166 238.48 401.26 238.403 401.339C238.326 401.418 238.234 401.48 238.132 401.521C238.03 401.563 237.92 401.583 237.81 401.58ZM233.11 395.84C233.023 395.842 232.94 395.878 232.88 395.94C232.848 395.969 232.824 396.005 232.808 396.044C232.793 396.084 232.786 396.127 232.79 396.17L232.89 400.74C232.893 400.831 232.931 400.917 232.996 400.981C233.061 401.044 233.149 401.08 233.24 401.08H237.81C237.88 401.075 237.947 401.047 238 401C238.06 400.935 238.092 400.849 238.09 400.76L237.99 396.19C237.987 396.099 237.949 396.012 237.884 395.949C237.819 395.885 237.731 395.85 237.64 395.85L233.11 395.84Z" fill="#263238"/>
<path d="M146.05 141.61C145.785 141.61 145.53 141.715 145.343 141.903C145.155 142.091 145.05 142.345 145.05 142.61C145.05 142.875 145.155 143.13 145.343 143.317C145.53 143.505 145.785 143.61 146.05 143.61C146.315 143.61 146.569 143.505 146.757 143.317C146.944 143.13 147.05 142.875 147.05 142.61C147.05 142.345 146.944 142.091 146.757 141.903C146.569 141.715 146.315 141.61 146.05 141.61Z" fill="#263238"/>
<path d="M148.86 140.46C148.595 140.46 148.341 140.565 148.153 140.753C147.966 140.94 147.86 141.195 147.86 141.46V142.61C147.86 142.875 147.966 143.13 148.153 143.317C148.341 143.505 148.595 143.61 148.86 143.61C149.117 143.597 149.358 143.486 149.535 143.3C149.712 143.114 149.811 142.867 149.81 142.61V141.46C149.811 141.203 149.712 140.956 149.535 140.77C149.358 140.584 149.117 140.473 148.86 140.46Z" fill="#263238"/>
<path d="M151.67 139.28C151.413 139.293 151.172 139.404 150.995 139.59C150.818 139.776 150.719 140.023 150.72 140.28L150.77 142.61C150.77 142.875 150.875 143.13 151.063 143.317C151.25 143.505 151.505 143.61 151.77 143.61C152.035 143.61 152.289 143.505 152.477 143.317C152.664 143.13 152.77 142.875 152.77 142.61L152.71 140.28C152.71 140.145 152.683 140.012 152.63 139.888C152.577 139.764 152.5 139.652 152.403 139.558C152.306 139.465 152.191 139.392 152.065 139.344C151.939 139.297 151.804 139.275 151.67 139.28Z" fill="#263238"/>
<path d="M250.75 138.78H243.92C243.706 138.78 243.495 138.823 243.298 138.906C243.101 138.988 242.923 139.11 242.774 139.263C242.625 139.416 242.508 139.597 242.43 139.795C242.352 139.994 242.314 140.207 242.32 140.42V141.92C242.333 142.358 242.515 142.773 242.829 143.079C243.142 143.385 243.562 143.558 244 143.56H250.83C251.043 143.56 251.255 143.517 251.452 143.435C251.648 143.352 251.826 143.23 251.976 143.077C252.125 142.925 252.242 142.743 252.32 142.545C252.398 142.346 252.435 142.133 252.43 141.92V140.42C252.414 139.983 252.231 139.569 251.918 139.263C251.606 138.958 251.187 138.785 250.75 138.78Z" fill="#263238"/>
<path d="M253.49 139.82H253.12C253.063 139.819 253.007 139.829 252.955 139.85C252.903 139.871 252.855 139.903 252.816 139.943C252.777 139.984 252.746 140.032 252.726 140.085C252.706 140.137 252.697 140.194 252.7 140.25V142.09C252.705 142.204 252.753 142.312 252.835 142.392C252.916 142.472 253.025 142.518 253.14 142.52H253.51C253.565 142.519 253.619 142.507 253.67 142.484C253.72 142.462 253.766 142.43 253.804 142.39C253.842 142.35 253.872 142.303 253.892 142.251C253.911 142.2 253.921 142.145 253.92 142.09V140.25C253.92 140.136 253.874 140.027 253.794 139.946C253.713 139.865 253.604 139.82 253.49 139.82Z" fill="#263238"/>
<path d="M229.471 143.56H170.301C168.733 143.615 167.193 143.137 165.932 142.203C164.671 141.27 163.765 139.936 163.361 138.42L162.641 135H236.751L236.191 138.42C235.857 139.932 235 141.277 233.77 142.218C232.54 143.159 231.017 143.634 229.471 143.56Z" fill="#263238"/>
<path opacity="0.1" d="M141.93 404.13C141.397 404.125 140.886 403.914 140.504 403.542C140.122 403.169 139.898 402.663 139.88 402.13L134.11 147C134.102 146.739 134.147 146.48 134.241 146.237C134.336 145.994 134.478 145.772 134.66 145.586C134.842 145.399 135.06 145.251 135.301 145.15C135.541 145.05 135.8 144.999 136.06 145C136.594 145.005 137.105 145.216 137.487 145.588C137.869 145.961 138.092 146.467 138.11 147L143.88 402.09C143.894 402.354 143.853 402.618 143.761 402.866C143.669 403.113 143.528 403.34 143.345 403.531C143.163 403.722 142.943 403.873 142.7 403.976C142.456 404.079 142.195 404.132 141.93 404.13Z" fill="#263238"/>
<path opacity="0.1" d="M269.65 404.13C269.125 404.113 268.627 403.896 268.255 403.525C267.884 403.154 267.668 402.655 267.65 402.13L261.83 147C261.822 146.739 261.867 146.48 261.961 146.237C262.056 145.994 262.198 145.772 262.38 145.586C262.562 145.399 262.78 145.251 263.02 145.15C263.261 145.05 263.519 144.999 263.78 145C264.314 145.005 264.825 145.216 265.207 145.588C265.589 145.961 265.812 146.467 265.83 147L271.6 402.09C271.614 402.354 271.573 402.618 271.481 402.866C271.389 403.113 271.248 403.34 271.065 403.531C270.882 403.722 270.663 403.873 270.419 403.976C270.176 404.079 269.914 404.132 269.65 404.13Z" fill="#263238"/>
<path d="M172 211.4H157.73C155.665 211.38 153.687 210.563 152.211 209.118C150.735 207.674 149.874 205.714 149.81 203.65L149.49 189.42C149.463 188.41 149.639 187.405 150.008 186.465C150.377 185.524 150.93 184.667 151.636 183.944C152.342 183.222 153.186 182.648 154.118 182.257C155.049 181.867 156.05 181.667 157.06 181.67H171.29C173.357 181.687 175.337 182.504 176.815 183.948C178.294 185.393 179.155 187.354 179.22 189.42L179.54 203.65C179.564 204.657 179.387 205.658 179.019 206.595C178.651 207.533 178.1 208.387 177.398 209.109C176.696 209.831 175.857 210.405 174.93 210.798C174.003 211.192 173.007 211.396 172 211.4Z" fill="url(#paint13_linear)"/>
<path d="M245.11 211.4H230.88C228.815 211.38 226.837 210.563 225.361 209.118C223.885 207.674 223.025 205.714 222.96 203.65L222.64 189.42C222.614 188.41 222.79 187.405 223.158 186.465C223.527 185.524 224.081 184.667 224.787 183.944C225.493 183.222 226.336 182.648 227.268 182.257C228.2 181.867 229.2 181.667 230.21 181.67H244.44C246.506 181.69 248.483 182.507 249.959 183.952C251.436 185.396 252.296 187.356 252.36 189.42L252.69 203.65C252.713 204.66 252.534 205.664 252.163 206.603C251.792 207.542 251.237 208.398 250.531 209.12C249.825 209.842 248.982 210.416 248.051 210.807C247.12 211.199 246.12 211.4 245.11 211.4Z" fill="url(#paint14_linear)"/>
<path d="M208.54 211.4H194.31C192.243 211.383 190.263 210.566 188.785 209.122C187.306 207.677 186.445 205.716 186.38 203.65L186.06 189.42C186.035 188.41 186.212 187.404 186.582 186.464C186.952 185.523 187.506 184.666 188.213 183.944C188.92 183.221 189.764 182.648 190.696 182.257C191.628 181.867 192.629 181.667 193.64 181.67H207.86C209.927 181.687 211.907 182.504 213.385 183.948C214.864 185.393 215.725 187.354 215.79 189.42L216.11 203.65C216.135 204.659 215.958 205.664 215.589 206.604C215.22 207.544 214.666 208.4 213.961 209.123C213.255 209.845 212.412 210.419 211.481 210.81C210.55 211.201 209.55 211.402 208.54 211.4Z" fill="url(#paint15_linear)"/>
<path d="M172.8 248.21H158.57C156.503 248.193 154.523 247.376 153.044 245.932C151.566 244.487 150.704 242.526 150.64 240.46L150.32 226.23C150.294 225.22 150.472 224.214 150.842 223.274C151.211 222.333 151.766 221.476 152.473 220.754C153.179 220.031 154.024 219.458 154.956 219.067C155.888 218.677 156.889 218.477 157.9 218.48H172.12C174.187 218.497 176.167 219.314 177.645 220.758C179.124 222.203 179.985 224.164 180.05 226.23L180.37 240.46C180.395 241.47 180.218 242.474 179.849 243.414C179.48 244.354 178.926 245.21 178.22 245.933C177.515 246.655 176.671 247.229 175.741 247.62C174.81 248.011 173.81 248.212 172.8 248.21Z" fill="url(#paint16_linear)"/>
<path d="M209.37 248.21H195.14C193.075 248.19 191.097 247.373 189.621 245.928C188.145 244.484 187.284 242.524 187.22 240.46L186.9 226.23C186.874 225.22 187.052 224.216 187.421 223.276C187.79 222.336 188.344 221.48 189.049 220.757C189.755 220.035 190.598 219.461 191.529 219.07C192.46 218.679 193.46 218.478 194.47 218.48H208.7C210.765 218.5 212.743 219.317 214.219 220.762C215.695 222.206 216.555 224.166 216.62 226.23L216.95 240.46C216.973 241.47 216.793 242.474 216.422 243.413C216.052 244.352 215.497 245.208 214.791 245.93C214.085 246.652 213.241 247.226 212.31 247.617C211.379 248.009 210.38 248.21 209.37 248.21Z" fill="url(#paint17_linear)"/>
<path d="M173.631 285H159.401C157.335 284.98 155.358 284.163 153.882 282.718C152.405 281.274 151.545 279.314 151.481 277.25L151.151 263.02C151.127 262.01 151.305 261.005 151.675 260.065C152.046 259.126 152.6 258.269 153.307 257.547C154.013 256.825 154.857 256.251 155.788 255.86C156.72 255.469 157.72 255.268 158.731 255.27H173.001C175.066 255.29 177.043 256.107 178.52 257.552C179.996 258.996 180.856 260.956 180.921 263.02L181.251 277.25C181.273 278.263 181.093 279.27 180.719 280.212C180.346 281.154 179.788 282.012 179.078 282.734C178.367 283.457 177.519 284.03 176.583 284.419C175.648 284.808 174.644 285.006 173.631 285Z" fill="url(#paint18_linear)"/>
<path d="M246.78 285H232.55C230.485 284.98 228.507 284.163 227.031 282.718C225.555 281.274 224.695 279.314 224.63 277.25L224.3 263.02C224.275 262.01 224.452 261.005 224.822 260.064C225.192 259.123 225.746 258.266 226.453 257.544C227.16 256.821 228.004 256.248 228.936 255.857C229.869 255.467 230.87 255.267 231.88 255.27H246.11C248.175 255.29 250.153 256.107 251.629 257.552C253.105 258.996 253.966 260.956 254.03 263.02L254.35 277.25C254.376 278.26 254.198 279.264 253.829 280.204C253.46 281.144 252.906 282 252.201 282.723C251.495 283.445 250.652 284.019 249.721 284.41C248.79 284.801 247.79 285.002 246.78 285Z" fill="url(#paint19_linear)"/>
<path d="M210.21 285H196C193.933 284.983 191.953 284.166 190.474 282.722C188.996 281.277 188.134 279.316 188.07 277.25L187.75 263.02C187.723 262.01 187.899 261.005 188.268 260.065C188.636 259.124 189.19 258.267 189.896 257.544C190.602 256.822 191.446 256.248 192.377 255.857C193.309 255.467 194.31 255.267 195.32 255.27H209.55C211.617 255.287 213.597 256.104 215.075 257.548C216.553 258.993 217.415 260.954 217.48 263.02L217.8 277.25C217.825 278.261 217.647 279.267 217.277 280.209C216.907 281.15 216.351 282.007 215.643 282.73C214.936 283.452 214.09 284.026 213.157 284.416C212.223 284.806 211.221 285.004 210.21 285Z" fill="url(#paint20_linear)"/>
<path d="M174.46 321.84H160.24C158.173 321.823 156.193 321.007 154.715 319.562C153.237 318.117 152.375 316.156 152.31 314.09L152 299.86C151.975 298.851 152.152 297.846 152.521 296.906C152.891 295.966 153.444 295.11 154.15 294.388C154.855 293.665 155.699 293.091 156.63 292.7C157.561 292.309 158.561 292.108 159.57 292.11H173.8C175.867 292.127 177.848 292.944 179.326 294.388C180.804 295.833 181.666 297.794 181.73 299.86L182.05 314.09C182.076 315.101 181.898 316.107 181.528 317.049C181.157 317.99 180.602 318.847 179.894 319.57C179.186 320.293 178.341 320.866 177.407 321.256C176.474 321.646 175.472 321.844 174.46 321.84Z" fill="url(#paint21_linear)"/>
<path d="M247.61 321.84H233.38C231.315 321.82 229.337 321.003 227.861 319.558C226.385 318.114 225.525 316.154 225.46 314.09L225.14 299.86C225.115 298.851 225.292 297.846 225.661 296.906C226.03 295.966 226.584 295.11 227.29 294.388C227.995 293.665 228.838 293.091 229.769 292.7C230.7 292.309 231.7 292.108 232.71 292.11H246.94C249.007 292.127 250.987 292.944 252.466 294.388C253.944 295.833 254.806 297.794 254.87 299.86L255.19 314.09C255.214 315.1 255.036 316.105 254.665 317.045C254.295 317.985 253.74 318.841 253.034 319.563C252.328 320.285 251.484 320.859 250.552 321.25C249.621 321.641 248.62 321.842 247.61 321.84Z" fill="url(#paint22_linear)"/>
<path d="M211.001 321.84H196.811C194.745 321.82 192.768 321.003 191.291 319.558C189.815 318.114 188.955 316.154 188.891 314.09L188.561 299.86C188.538 298.85 188.717 297.846 189.088 296.907C189.459 295.968 190.013 295.112 190.72 294.39C191.426 293.668 192.269 293.094 193.2 292.703C194.131 292.311 195.131 292.11 196.141 292.11H210.37C212.436 292.13 214.413 292.947 215.89 294.392C217.366 295.836 218.226 297.796 218.29 299.86L218.611 314.09C218.636 315.103 218.458 316.111 218.086 317.053C217.714 317.996 217.157 318.854 216.447 319.577C215.737 320.3 214.889 320.873 213.954 321.262C213.018 321.65 212.014 321.847 211.001 321.84Z" fill="url(#paint23_linear)"/>
<path d="M175.87 383.8H161.64C159.573 383.783 157.593 382.967 156.115 381.522C154.636 380.077 153.775 378.116 153.71 376.05L153.39 361.83C153.365 360.82 153.542 359.815 153.912 358.874C154.282 357.933 154.836 357.077 155.543 356.354C156.25 355.631 157.094 355.058 158.026 354.667C158.958 354.277 159.959 354.077 160.97 354.08H175.19C177.257 354.097 179.237 354.914 180.716 356.358C182.194 357.803 183.056 359.764 183.12 361.83L183.44 376.05C183.467 377.06 183.291 378.065 182.922 379.005C182.553 379.946 182 380.803 181.294 381.526C180.588 382.248 179.744 382.822 178.812 383.213C177.881 383.603 176.88 383.803 175.87 383.8Z" fill="url(#paint24_linear)"/>
<path d="M249 383.8H234.79C232.723 383.783 230.743 382.967 229.264 381.522C227.786 380.077 226.924 378.116 226.86 376.05L226.54 361.83C226.513 360.82 226.689 359.815 227.058 358.875C227.427 357.934 227.98 357.077 228.686 356.355C229.392 355.632 230.236 355.058 231.167 354.668C232.099 354.277 233.1 354.077 234.11 354.08H248.34C250.407 354.097 252.387 354.914 253.865 356.358C255.344 357.803 256.205 359.764 256.27 361.83L256.59 376.05C256.617 377.062 256.44 378.068 256.07 379.01C255.7 379.952 255.145 380.81 254.436 381.533C253.728 382.256 252.882 382.829 251.948 383.219C251.014 383.608 250.012 383.806 249 383.8Z" fill="url(#paint25_linear)"/>
<path d="M212.44 383.8H198.21C196.144 383.78 194.167 382.963 192.691 381.518C191.214 380.074 190.354 378.114 190.29 376.05L190 361.83C189.973 360.82 190.149 359.815 190.518 358.875C190.886 357.934 191.44 357.077 192.146 356.355C192.852 355.632 193.696 355.058 194.627 354.668C195.559 354.277 196.56 354.077 197.57 354.08H211.8C213.865 354.1 215.843 354.917 217.319 356.362C218.795 357.806 219.655 359.766 219.72 361.83L220.05 376.05C220.075 377.063 219.897 378.071 219.525 379.013C219.154 379.956 218.596 380.814 217.886 381.537C217.176 382.26 216.328 382.833 215.393 383.222C214.457 383.61 213.453 383.807 212.44 383.8Z" fill="url(#paint26_linear)"/>
<path d="M251.91 169.39H149.03L149.01 168.28H251.88L251.91 169.39Z" fill="url(#paint27_linear)"/>
<path d="M250.44 156.81C250.062 156.432 249.613 156.131 249.119 155.926C248.625 155.721 248.095 155.616 247.56 155.616C247.025 155.616 246.495 155.721 246.001 155.926C245.507 156.131 245.058 156.432 244.68 156.81C244.059 157.457 243.673 158.293 243.584 159.185C243.495 160.078 243.708 160.974 244.19 161.73L242.71 163.23C242.615 163.327 242.54 163.442 242.489 163.568C242.438 163.695 242.413 163.83 242.414 163.966C242.417 164.24 242.529 164.503 242.725 164.695C242.921 164.887 243.186 164.994 243.461 164.991C243.735 164.988 243.998 164.876 244.19 164.68L245.66 163.17C246.508 163.678 247.514 163.854 248.484 163.664C249.454 163.474 250.319 162.932 250.913 162.142C251.507 161.352 251.787 160.37 251.7 159.385C251.612 158.401 251.164 157.483 250.44 156.81ZM245.44 161.94C245.007 161.497 244.715 160.935 244.6 160.326C244.485 159.717 244.552 159.088 244.792 158.517C245.033 157.946 245.437 157.459 245.953 157.116C246.469 156.773 247.075 156.591 247.695 156.591C248.315 156.591 248.921 156.773 249.437 157.116C249.953 157.459 250.357 157.946 250.598 158.517C250.838 159.088 250.905 159.717 250.79 160.326C250.675 160.935 250.383 161.497 249.95 161.94C249.653 162.239 249.301 162.476 248.912 162.638C248.523 162.8 248.106 162.884 247.685 162.884C247.264 162.884 246.847 162.8 246.458 162.638C246.069 162.476 245.717 162.239 245.42 161.94H245.44Z" fill="url(#paint28_linear)"/>
<defs>
<linearGradient id="paint0_linear" x1="326.903" y1="167.159" x2="326.903" y2="189.25" gradientUnits="userSpaceOnUse">
<stop stop-color="#1DCDDB"/>
<stop offset="1" stop-color="#31B8FF"/>
</linearGradient>
<linearGradient id="paint1_linear" x1="366.034" y1="175.068" x2="384.716" y2="198.195" gradientUnits="userSpaceOnUse">
<stop stop-color="#1DCDDB"/>
<stop offset="1" stop-color="#31B8FF"/>
</linearGradient>
<linearGradient id="paint2_linear" x1="315.876" y1="218.18" x2="315.876" y2="395.12" gradientUnits="userSpaceOnUse">
<stop stop-color="#1DCDDB"/>
<stop offset="1" stop-color="#31B8FF"/>
</linearGradient>
<linearGradient id="paint3_linear" x1="315.55" y1="390.79" x2="315.55" y2="395.54" gradientUnits="userSpaceOnUse">
<stop stop-color="#1DCDDB"/>
<stop offset="1" stop-color="#31B8FF"/>
</linearGradient>
<linearGradient id="paint4_linear" x1="287.74" y1="218.2" x2="287.74" y2="375.67" gradientUnits="userSpaceOnUse">
<stop stop-color="#1DCDDB"/>
<stop offset="1" stop-color="#31B8FF"/>
</linearGradient>
<linearGradient id="paint5_linear" x1="265.809" y1="366.07" x2="265.809" y2="376.78" gradientUnits="userSpaceOnUse">
<stop stop-color="#1DCDDB"/>
<stop offset="1" stop-color="#31B8FF"/>
</linearGradient>
<linearGradient id="paint6_linear" x1="265.693" y1="384.635" x2="265.693" y2="386.871" gradientUnits="userSpaceOnUse">
<stop stop-color="#1DCDDB"/>
<stop offset="1" stop-color="#31B8FF"/>
</linearGradient>
<linearGradient id="paint7_linear" x1="265.418" y1="382.366" x2="265.418" y2="385.03" gradientUnits="userSpaceOnUse">
<stop stop-color="#1DCDDB"/>
<stop offset="1" stop-color="#31B8FF"/>
</linearGradient>
<linearGradient id="paint8_linear" x1="322.181" y1="404.797" x2="322.181" y2="406.95" gradientUnits="userSpaceOnUse">
<stop stop-color="#1DCDDB"/>
<stop offset="1" stop-color="#31B8FF"/>
</linearGradient>
<linearGradient id="paint9_linear" x1="321.17" y1="402.881" x2="321.17" y2="406.652" gradientUnits="userSpaceOnUse">
<stop stop-color="#1DCDDB"/>
<stop offset="1" stop-color="#31B8FF"/>
</linearGradient>
<linearGradient id="paint10_linear" x1="295.199" y1="215.63" x2="295.199" y2="220.05" gradientUnits="userSpaceOnUse">
<stop stop-color="#1DCDDB"/>
<stop offset="1" stop-color="#31B8FF"/>
</linearGradient>
<linearGradient id="paint11_linear" x1="322.63" y1="215.63" x2="322.63" y2="220.05" gradientUnits="userSpaceOnUse">
<stop stop-color="#1DCDDB"/>
<stop offset="1" stop-color="#31B8FF"/>
</linearGradient>
<linearGradient id="paint12_linear" x1="308.911" y1="215.63" x2="308.911" y2="220.05" gradientUnits="userSpaceOnUse">
<stop stop-color="#1DCDDB"/>
<stop offset="1" stop-color="#31B8FF"/>
</linearGradient>
<linearGradient id="paint13_linear" x1="164.515" y1="181.67" x2="164.515" y2="211.4" gradientUnits="userSpaceOnUse">
<stop stop-color="#1DCDDB"/>
<stop offset="1" stop-color="#31B8FF"/>
</linearGradient>
<linearGradient id="paint14_linear" x1="237.665" y1="181.67" x2="237.665" y2="211.4" gradientUnits="userSpaceOnUse">
<stop stop-color="#1DCDDB"/>
<stop offset="1" stop-color="#31B8FF"/>
</linearGradient>
<linearGradient id="paint15_linear" x1="201.085" y1="181.67" x2="201.085" y2="211.4" gradientUnits="userSpaceOnUse">
<stop stop-color="#1DCDDB"/>
<stop offset="1" stop-color="#31B8FF"/>
</linearGradient>
<linearGradient id="paint16_linear" x1="165.345" y1="218.48" x2="165.345" y2="248.21" gradientUnits="userSpaceOnUse">
<stop stop-color="#1DCDDB"/>
<stop offset="1" stop-color="#31B8FF"/>
</linearGradient>
<linearGradient id="paint17_linear" x1="201.925" y1="218.48" x2="201.925" y2="248.21" gradientUnits="userSpaceOnUse">
<stop stop-color="#1DCDDB"/>
<stop offset="1" stop-color="#31B8FF"/>
</linearGradient>
<linearGradient id="paint18_linear" x1="166.2" y1="255.27" x2="166.2" y2="285" gradientUnits="userSpaceOnUse">
<stop stop-color="#1DCDDB"/>
<stop offset="1" stop-color="#31B8FF"/>
</linearGradient>
<linearGradient id="paint19_linear" x1="239.325" y1="255.27" x2="239.325" y2="285" gradientUnits="userSpaceOnUse">
<stop stop-color="#1DCDDB"/>
<stop offset="1" stop-color="#31B8FF"/>
</linearGradient>
<linearGradient id="paint20_linear" x1="202.775" y1="255.27" x2="202.775" y2="285" gradientUnits="userSpaceOnUse">
<stop stop-color="#1DCDDB"/>
<stop offset="1" stop-color="#31B8FF"/>
</linearGradient>
<linearGradient id="paint21_linear" x1="167.025" y1="292.11" x2="167.025" y2="321.84" gradientUnits="userSpaceOnUse">
<stop stop-color="#1DCDDB"/>
<stop offset="1" stop-color="#31B8FF"/>
</linearGradient>
<linearGradient id="paint22_linear" x1="240.165" y1="292.11" x2="240.165" y2="321.84" gradientUnits="userSpaceOnUse">
<stop stop-color="#1DCDDB"/>
<stop offset="1" stop-color="#31B8FF"/>
</linearGradient>
<linearGradient id="paint23_linear" x1="203.586" y1="292.11" x2="203.586" y2="321.84" gradientUnits="userSpaceOnUse">
<stop stop-color="#1DCDDB"/>
<stop offset="1" stop-color="#31B8FF"/>
</linearGradient>
<linearGradient id="paint24_linear" x1="168.415" y1="354.08" x2="168.415" y2="383.8" gradientUnits="userSpaceOnUse">
<stop stop-color="#1DCDDB"/>
<stop offset="1" stop-color="#31B8FF"/>
</linearGradient>
<linearGradient id="paint25_linear" x1="241.565" y1="354.08" x2="241.565" y2="383.8" gradientUnits="userSpaceOnUse">
<stop stop-color="#1DCDDB"/>
<stop offset="1" stop-color="#31B8FF"/>
</linearGradient>
<linearGradient id="paint26_linear" x1="205.025" y1="354.08" x2="205.025" y2="383.8" gradientUnits="userSpaceOnUse">
<stop stop-color="#1DCDDB"/>
<stop offset="1" stop-color="#31B8FF"/>
</linearGradient>
<linearGradient id="paint27_linear" x1="200.46" y1="168.28" x2="200.46" y2="169.39" gradientUnits="userSpaceOnUse">
<stop stop-color="#1DCDDB"/>
<stop offset="1" stop-color="#31B8FF"/>
</linearGradient>
<linearGradient id="paint28_linear" x1="247.065" y1="155.616" x2="247.065" y2="164.991" gradientUnits="userSpaceOnUse">
<stop stop-color="#1DCDDB"/>
<stop offset="1" stop-color="#31B8FF"/>
</linearGradient>
</defs>
</svg>
