<svg width="200" height="200" viewBox="0 0 200 200" fill="none" xmlns="http://www.w3.org/2000/svg">
<path d="M100 171.024C142.833 171.024 177.556 168.997 177.556 166.496C177.556 163.996 142.833 161.968 100 161.968C57.167 161.968 22.444 163.996 22.444 166.496C22.444 168.997 57.167 171.024 100 171.024Z" fill="#F5F5F5"/>
<path d="M102.984 107.678C130.396 96.3235 151.195 83.6824 149.439 79.4433C147.683 75.2041 124.038 80.9724 96.6254 92.327C69.213 103.682 48.4143 116.323 50.1702 120.562C51.9261 124.801 75.5717 119.033 102.984 107.678Z" fill="url(#paint0_linear)"/>
<path opacity="0.2" d="M102.984 107.678C130.396 96.3235 151.195 83.6824 149.439 79.4433C147.683 75.2041 124.038 80.9724 96.6254 92.327C69.213 103.682 48.4143 116.323 50.1702 120.562C51.9261 124.801 75.5717 119.033 102.984 107.678Z" fill="black"/>
<path d="M117.492 61.7481C116.888 61.5681 116.272 61.4001 115.664 61.2481L115.76 60.8481C116.376 61.0001 116.996 61.1721 117.604 61.3521L117.492 61.7481Z" fill="url(#paint1_linear)"/>
<path d="M112.892 60.6321C109.83 60.0434 106.718 59.7474 103.6 59.7481V59.3481C106.742 59.3485 109.878 59.6458 112.964 60.2361L112.892 60.6321Z" fill="url(#paint2_linear)"/>
<path d="M103.64 157.864V157.464C110.049 157.464 116.395 156.196 122.312 153.732L122.464 154.104C116.499 156.587 110.101 157.865 103.64 157.864Z" fill="url(#paint3_linear)"/>
<path d="M137.451 142.438C156.135 123.754 156.135 93.4604 137.451 74.7761C118.766 56.0919 88.4733 56.0919 69.789 74.7761C51.1048 93.4604 51.1048 123.754 69.789 142.438C88.4733 161.122 118.766 161.122 137.451 142.438Z" fill="url(#paint4_linear)"/>
<g opacity="0.2">
<path opacity="0.2" d="M139.172 85.4398L146.704 87.8078C143.187 80.5144 137.875 74.2334 131.267 69.5536C124.659 64.8739 116.971 61.9485 108.924 61.0518L106.632 67.1678L100.272 69.2198C100.272 69.2198 93.172 75.7718 93.2 76.1958C93.228 76.6198 93.08 83.1718 93.08 83.1718L88.184 89.5278L84 92.2758L83.976 98.4918L86.476 104.528L90.232 103.84L93.5039 99.8878L92.9719 97.2198L100.696 92.8638L106.628 96.0358L115.056 92.6918L120.496 96.0678L113.444 102.736L102.368 105.6L94.464 108.876L86.724 115.6L88.608 124L94.7719 128.08L106.864 128.7L113.812 136.072L118.188 143.784L120.8 147.12L125.028 144.8L129.32 134.072L132.268 120.344L130.668 112.38L127.336 114.732L124.936 109.644L120.156 104.72L118.528 101.496L128.992 106.544L140 104.868L143.812 96.6478L139.848 90.2118L133.448 91.8438L128.84 91.8798L127.32 88.9038L132.92 88.1638L139.172 85.4398Z" fill="white"/>
<path opacity="0.2" d="M81.148 149.88L78.748 142.652L67.452 135.936L63.724 135C67.9405 141.371 73.6207 146.642 80.2899 150.37C86.959 154.098 94.4236 156.177 102.06 156.432L101.736 155.632C101.736 155.632 89.2 151.6 88.8 151.62C88.4 151.64 81.148 149.88 81.148 149.88Z" fill="white"/>
<path opacity="0.2" d="M60.892 105.164L61.352 91.9639L69.352 86.9159L74.764 73.8479L71.316 73.2759C64.4729 79.5376 59.5973 87.6532 57.2822 96.6352C54.9671 105.617 55.3123 115.078 58.276 123.868L66 118.916L60.892 105.164Z" fill="white"/>
</g>
<path opacity="0.2" d="M146.904 88.2319C139.784 94.1199 123.704 102.804 104.292 110.84C85.224 118.736 67.98 123.932 58.652 124.936C58.8867 125.6 59.1413 126.267 59.416 126.936C61.7497 132.592 65.1517 137.744 69.436 142.112C79.224 140.396 94.7 135.52 111.608 128.512C128.808 121.384 143.416 113.748 151.468 108.004C151.393 101.928 150.155 95.9221 147.82 90.3119C147.532 89.5999 147.228 88.9079 146.904 88.2319Z" fill="black"/>
<path d="M149.436 79.4482L156.748 97.1042C158.504 101.344 137.708 113.984 110.296 125.336C82.884 136.688 59.24 142.46 57.496 138.22L50.18 120.564C51.936 124.804 75.584 119.036 102.98 107.68C130.376 96.3242 151.2 83.6842 149.436 79.4482Z" fill="url(#paint5_linear)"/>
<path opacity="0.5" d="M149.436 79.4482L156.748 97.1042C158.504 101.344 137.708 113.984 110.296 125.336C82.884 136.688 59.24 142.46 57.496 138.22L50.18 120.564C51.936 124.804 75.584 119.036 102.98 107.68C130.376 96.3242 151.2 83.6842 149.436 79.4482Z" fill="white"/>
<path d="M73.636 122.584C74.9 122.184 76.1627 121.784 77.424 121.384C78.7787 123.187 80.132 124.991 81.484 126.796C81.2387 124.628 81 122.453 80.768 120.272C82.02 119.852 83.264 119.42 84.512 118.988C86.0533 120.716 87.588 122.449 89.116 124.188C88.684 122.055 88.2573 119.932 87.836 117.82C89.0733 117.377 90.308 116.925 91.54 116.464C92.148 120.328 92.7706 124.184 93.408 128.032C92.1493 128.488 90.884 128.939 89.612 129.384C87.8866 127.432 86.1533 125.483 84.412 123.536C84.6786 125.992 84.9453 128.444 85.212 130.892C83.9373 131.316 82.6587 131.735 81.376 132.148C78.8107 128.945 76.2307 125.757 73.636 122.584Z" fill="white"/>
<path d="M95.224 115.032C96.4587 114.56 97.6907 114.078 98.92 113.588C100.2 115.39 101.476 117.196 102.748 119.004C102.556 116.769 102.368 114.526 102.184 112.276C103.384 111.78 104.62 111.272 105.832 110.764C107.293 112.478 108.747 114.194 110.192 115.912C109.816 113.741 109.444 111.564 109.076 109.38C110.284 108.86 111.484 108.333 112.676 107.8C113.191 111.77 113.724 115.733 114.276 119.688C113.044 120.221 111.811 120.754 110.576 121.288C108.944 119.357 107.301 117.422 105.648 115.484C105.851 118.014 106.061 120.548 106.28 123.084C105.035 123.588 103.788 124.086 102.54 124.58C100.119 121.382 97.68 118.2 95.224 115.032Z" fill="white"/>
<path d="M116.28 106.18C117.48 105.632 118.68 105.072 119.88 104.512C121.083 106.317 122.283 108.123 123.48 109.928C123.336 107.624 123.203 105.315 123.08 103C124.28 102.424 125.452 101.848 126.636 101.26C128.012 102.964 129.381 104.668 130.744 106.372C130.424 104.14 130.107 101.909 129.792 99.6801C130.968 99.0854 132.141 98.4827 133.312 97.8721C133.731 101.949 134.163 106.015 134.608 110.068C133.411 110.679 132.211 111.285 131.008 111.888C129.467 109.968 127.919 108.048 126.364 106.128C126.508 108.741 126.661 111.345 126.824 113.94C125.613 114.524 124.4 115.1 123.184 115.668C120.896 112.503 118.595 109.34 116.28 106.18Z" fill="white"/>
<path d="M84.436 27.4563C84.036 25.9003 81.236 24.5803 78.644 25.0003C75.528 25.5083 74.38 28.1083 74.644 31.5843C74.964 35.9843 70.888 35.9243 72.364 40.4123C74.032 39.7963 76.456 38.7843 80.328 40.4363C83.748 41.8923 87.892 40.5123 89.128 39.1363C84.908 36.6483 91.62 26.9043 84.436 27.4563Z" fill="#263238"/>
<path d="M89.6 38.9201C86.98 38.0801 87.4 35.3561 87.8 32.7201C88.092 30.8281 88.364 29.0441 87.472 28.1281C86.912 27.5561 85.932 27.3721 84.468 27.5601C84.4416 27.5636 84.4148 27.5569 84.3932 27.5413C84.3716 27.5256 84.3569 27.5023 84.352 27.4761C84.3503 27.463 84.3513 27.4496 84.3548 27.4368C84.3583 27.4241 84.3644 27.4121 84.3726 27.4017C84.3807 27.3913 84.3909 27.3826 84.4025 27.3761C84.4141 27.3697 84.4268 27.3656 84.44 27.3641C85.968 27.1641 87.008 27.3641 87.616 27.9921C88.58 28.9721 88.296 30.7921 88.016 32.7521C87.616 35.3041 87.216 37.9521 89.68 38.7281C89.7035 38.7349 89.7237 38.7501 89.7368 38.7707C89.7499 38.7914 89.755 38.8162 89.751 38.8403C89.7471 38.8645 89.7344 38.8863 89.7154 38.9018C89.6964 38.9172 89.6725 38.9252 89.648 38.9241L89.6 38.9201Z" fill="#263238"/>
<path d="M70.54 45.1159C70.1 45.2999 69.74 45.4319 69.34 45.5599C68.94 45.6879 68.54 45.8079 68.14 45.9199C67.338 46.1392 66.5248 46.3155 65.704 46.4479C64.8665 46.5863 64.0205 46.6678 63.172 46.6919H62.52L61.86 46.6639C61.644 46.6639 61.416 46.6239 61.196 46.6039L60.86 46.5679L60.624 46.5319C60.54 46.5319 60.448 46.4959 60.36 46.4759C59.63 46.2969 58.975 45.8924 58.488 45.3199C58.0984 44.8493 57.8073 44.3052 57.632 43.7199C57.3679 42.8113 57.2571 41.865 57.304 40.9199C57.3746 39.2644 57.6775 37.6271 58.204 36.0559C58.2773 35.8266 58.4312 35.6317 58.6371 35.5071C58.8431 35.3825 59.0872 35.3367 59.3243 35.3782C59.5614 35.4196 59.7754 35.5456 59.9269 35.7327C60.0783 35.9198 60.1568 36.1554 60.148 36.3959V36.4519C60.0784 37.8974 60.1266 39.3462 60.292 40.7839C60.3587 41.3903 60.5151 41.9834 60.756 42.5439C60.8184 42.6995 60.9188 42.8371 61.048 42.9439C61.128 42.9839 61.104 42.9439 61.14 42.9439H61.452C61.616 42.9439 61.772 42.9439 61.94 42.9439C62.268 42.9239 62.6 42.9079 62.94 42.8679C63.616 42.7919 64.3 42.6799 64.988 42.5319C65.676 42.3839 66.368 42.2079 67.056 42.0079C67.4 41.9119 67.744 41.8119 68.084 41.6999L69.056 41.3759L69.144 41.3439C69.6328 41.1911 70.1616 41.2316 70.6214 41.4571C71.0812 41.6825 71.437 42.0758 71.6154 42.5558C71.7939 43.0358 71.7814 43.566 71.5806 44.0371C71.3798 44.5082 71.0059 44.8843 70.536 45.0879L70.54 45.1159Z" fill="#FF8B7B"/>
<path d="M58.364 37.3642L57.324 35.6002L60.028 34.2002C60.028 34.2002 60.684 36.2002 59.96 37.5122L58.364 37.3642Z" fill="#FF8B7B"/>
<path d="M64.664 129.348L61.86 129.132L62.064 121.816L65.232 121.92L64.664 129.348Z" fill="#FF8B7B"/>
<path d="M61.64 129.012L64.876 127.348C64.9303 127.319 64.9936 127.311 65.0535 127.326C65.1134 127.34 65.1656 127.377 65.2 127.428L66.8 129.8C66.8384 129.863 66.8633 129.933 66.8734 130.005C66.8835 130.078 66.8784 130.152 66.8585 130.223C66.8386 130.293 66.8043 130.359 66.7577 130.416C66.7112 130.472 66.6534 130.519 66.588 130.552C65.452 131.112 64.9 131.072 63.48 131.8C62.604 132.252 60.568 133.308 59.248 133.636C57.928 133.964 57.572 132.684 58.096 132.436C60.44 131.296 60.792 130.476 61.244 129.444C61.3217 129.258 61.4617 129.106 61.64 129.012Z" fill="#263238"/>
<path opacity="0.2" d="M65.232 121.924L62.064 121.816L61.952 125.804L64.924 125.972L65.232 121.924Z" fill="black"/>
<path d="M55.812 119.504L53.068 120.136L51.084 113.088L54.14 112.244L55.812 119.504Z" fill="#FF8B7B"/>
<path d="M52.272 118.484L55.904 118.296C55.9655 118.291 56.0266 118.309 56.0754 118.347C56.1242 118.385 56.1572 118.439 56.168 118.5L56.656 121.324C56.6648 121.397 56.6586 121.471 56.6377 121.542C56.6168 121.612 56.5816 121.677 56.5343 121.734C56.487 121.79 56.4287 121.836 56.3629 121.869C56.2972 121.901 56.2254 121.92 56.152 121.924C54.888 121.968 54.408 121.624 52.812 121.708C51.2961 121.754 49.7791 121.661 48.28 121.432C46.972 121.196 47.14 119.876 47.724 119.86C50.328 119.784 50.924 119.46 51.724 118.712C51.8754 118.576 52.0687 118.496 52.272 118.484Z" fill="#263238"/>
<path opacity="0.2" d="M54.14 112.248L51.084 113.092L52.164 116.928L55.052 116.208L54.14 112.248Z" fill="black"/>
<path d="M74.092 46.1844C71.744 47.2484 68.544 47.1764 68.544 47.1764C67.744 44.9604 66.82 42.6924 67.468 41.3124C67.468 41.3124 71.3 40.0364 74.5 40.6284C76.252 40.9484 75.964 45.3404 74.092 46.1844Z" fill="#263238"/>
<path d="M68.888 44.1321C68.284 46.8441 67.744 51.4121 67.924 58.9521L80.848 60.9761C81.996 54.8521 83.32 51.4481 86.008 46.9041C86.1982 46.5816 86.3159 46.2215 86.3532 45.849C86.3905 45.4764 86.3463 45.1002 86.2238 44.7464C86.1013 44.3926 85.9034 44.0696 85.6437 43.7999C85.3841 43.5301 85.0689 43.32 84.72 43.1841C81.2492 41.8799 77.6337 40.9989 73.952 40.5601C72.8162 40.4276 71.6715 40.7188 70.7371 41.3779C69.8027 42.037 69.1443 43.0177 68.888 44.1321Z" fill="url(#paint6_linear)"/>
<path d="M76.184 40.8643C76.184 40.8643 73.156 41.5123 73.852 45.1123C79.312 44.8283 81.96 42.2643 81.96 42.2643L76.184 40.8643Z" fill="#263238"/>
<path d="M82.132 38.12C81.628 39.648 81.356 41.296 81.96 42.264C81.96 42.264 80.328 43.648 74.904 43.78C74.104 41.256 76.184 40.864 76.184 40.864C78.388 40.864 78.8 39.524 78.86 37.112L80.676 36.884C80.8577 36.7876 81.0641 36.748 81.2686 36.7702C81.473 36.7924 81.6661 36.8754 81.8229 37.0085C81.9797 37.1416 82.093 37.3186 82.1481 37.5168C82.2032 37.7149 82.1976 37.9251 82.132 38.12Z" fill="#FF8B7B"/>
<path opacity="0.2" d="M80.68 36.884C80.8503 36.7949 81.0422 36.7555 81.2339 36.77C81.4256 36.7846 81.6093 36.8526 81.7642 36.9663C81.9192 37.08 82.0392 37.2349 82.1105 37.4134C82.1819 37.5918 82.2018 37.7867 82.168 37.976C81.1333 38.8962 79.8397 39.4745 78.464 39.632C78.7539 38.8244 78.8896 37.9696 78.864 37.112L80.68 36.884Z" fill="black"/>
<path d="M85.0479 32C84.3919 35.156 84.1799 36.504 82.3519 37.94C79.608 40.104 75.928 38.7 75.644 35.436C75.388 32.492 76.508 27.836 79.7679 26.936C80.4795 26.7344 81.2314 26.7224 81.949 26.9012C82.6666 27.08 83.325 27.4434 83.8587 27.9553C84.3925 28.4672 84.7831 29.1099 84.9917 29.8194C85.2003 30.5289 85.2197 31.2807 85.0479 32Z" fill="#FF8B7B"/>
<path d="M83.652 27.2202C80.82 27.3962 81.052 32.7122 84.684 34.5082C86.948 31.7162 85.232 27.7882 83.652 27.2202Z" fill="#263238"/>
<path d="M83.6 27.084C81.368 25.724 78.4 25.848 76.964 27.856C74.764 30.908 80.332 28.092 82.372 28.224C83.732 29.48 83.6 27.084 83.6 27.084Z" fill="#263238"/>
<path d="M76.052 30.4401C76.0377 30.4259 76.0264 30.4091 76.0187 30.3906C76.0109 30.372 76.007 30.3521 76.007 30.3321C76.007 30.312 76.0109 30.2921 76.0187 30.2736C76.0264 30.255 76.0377 30.2382 76.052 30.2241C76.227 30.0583 76.4397 29.9377 76.6719 29.8729C76.904 29.8081 77.1485 29.8009 77.384 29.8521C77.4233 29.8632 77.4565 29.8895 77.4764 29.9251C77.4962 29.9607 77.5011 30.0028 77.49 30.0421C77.4789 30.0813 77.4526 30.1145 77.417 30.1344C77.3813 30.1543 77.3393 30.1592 77.3 30.1481C77.1128 30.1122 76.9197 30.1214 76.7368 30.1749C76.5538 30.2285 76.3863 30.3249 76.248 30.4561C76.2187 30.477 76.183 30.487 76.1471 30.484C76.1112 30.4811 76.0775 30.4655 76.052 30.4401Z" fill="#263238"/>
<path d="M85.508 35.1044C85.1401 35.6727 84.5668 36.0769 83.908 36.2324C83.032 36.4324 82.664 35.6444 82.964 34.8484C83.236 34.1324 84.016 33.1684 84.864 33.3244C85.712 33.4804 85.952 34.4004 85.508 35.1044Z" fill="#FF8B7B"/>
<path d="M67.924 58.9521C66.996 60.5801 65.872 62.6001 65.124 64.1241C60.296 68.2041 49.704 78.5801 46.204 86.9641C45.212 95.1321 51.744 116.056 51.744 116.056L54.912 114.456C54.912 114.456 52.8 98.0001 52.828 89.1601C59.376 82.0681 78.932 70.7001 77.132 60.3961L67.924 58.9521Z" fill="#263238"/>
<path opacity="0.3" d="M70.636 67.1043C67.6307 71.2915 65.0436 75.7636 62.912 80.4563C68.068 76.2043 73.452 71.4643 75.896 66.7163L70.636 67.1043Z" fill="black"/>
<path d="M71.64 59.5322C71.64 59.5322 65.272 78.1122 62.7 91.2682C61.272 101.036 61.6 124.656 61.6 124.656L65.272 125.092C65.272 125.092 69.016 102.26 68.988 92.3242C74.64 79.8082 82.648 71.2842 80.848 60.9762L71.64 59.5322Z" fill="#263238"/>
<path opacity="0.2" d="M69.244 66.9921C69.2264 66.9925 69.209 66.9883 69.1935 66.9799C69.1781 66.9715 69.1651 66.9591 69.156 66.9441C69.124 66.8921 68.356 65.6321 68.48 64.4681C68.604 63.3041 69.68 59.7841 69.724 59.6361C69.7323 59.6103 69.7503 59.5888 69.7742 59.5761C69.7981 59.5634 69.826 59.5605 69.852 59.5681C69.8767 59.5763 69.8972 59.5939 69.9092 59.6171C69.9211 59.6402 69.9236 59.6672 69.916 59.6921C69.916 59.7281 68.796 63.3641 68.676 64.4921C68.6628 65.2458 68.8491 65.9896 69.216 66.6481L71.376 60.0121C71.3834 59.9866 71.4006 59.9652 71.4239 59.9524C71.4471 59.9397 71.4745 59.9367 71.5 59.9441C71.5127 59.9482 71.5244 59.9547 71.5346 59.9634C71.5447 59.9721 71.553 59.9827 71.5589 59.9946C71.5649 60.0065 71.5684 60.0195 71.5693 60.0328C71.5701 60.0461 71.5683 60.0595 71.564 60.0721L69.336 66.9281C69.33 66.9463 69.3188 66.9624 69.3039 66.9744C69.2891 66.9865 69.271 66.994 69.252 66.9961L69.244 66.9921Z" fill="white"/>
<path opacity="0.2" d="M80.196 64.4003C80.1843 64.404 80.1717 64.404 80.16 64.4003C76.652 63.0043 75.06 60.8003 75.044 60.7683C75.0364 60.7575 75.031 60.7454 75.0281 60.7325C75.0251 60.7196 75.0248 60.7063 75.027 60.6933C75.0292 60.6803 75.034 60.6679 75.041 60.6567C75.0481 60.6456 75.0572 60.6359 75.068 60.6283C75.0788 60.6207 75.0909 60.6153 75.1038 60.6124C75.1167 60.6094 75.13 60.6091 75.143 60.6113C75.156 60.6135 75.1684 60.6183 75.1796 60.6253C75.1907 60.6324 75.2004 60.6415 75.208 60.6523C75.208 60.6763 76.784 62.8403 80.232 64.2163C80.253 64.2252 80.2703 64.241 80.2811 64.2611C80.2918 64.2812 80.2954 64.3044 80.2912 64.3268C80.287 64.3492 80.2753 64.3695 80.258 64.3843C80.2407 64.3991 80.2188 64.4076 80.196 64.4083V64.4003Z" fill="white"/>
<path d="M61.248 123.1L61.504 125.124L65.568 125.336L65.812 123.156L61.248 123.1Z" fill="url(#paint7_linear)"/>
<path d="M50.748 114.636L51.604 116.488L55.544 115.456L55.116 113.304L50.748 114.636Z" fill="url(#paint8_linear)"/>
<path d="M80.292 32.34C80.256 32.6 80.088 32.792 79.92 32.772C79.752 32.752 79.648 32.524 79.688 32.264C79.728 32.004 79.892 31.812 80.06 31.832C80.228 31.852 80.332 32.08 80.292 32.34Z" fill="#263238"/>
<path d="M77.404 32C77.364 32.26 77.196 32.452 77.032 32.432C76.868 32.412 76.76 32.184 76.796 31.928C76.832 31.672 77 31.476 77.168 31.496C77.336 31.516 77.44 31.728 77.404 32Z" fill="#263238"/>
<path d="M77.24 31.504L76.652 31.248C76.652 31.248 76.896 31.772 77.24 31.504Z" fill="#263238"/>
<path d="M77.896 32.4644C77.5829 33.0259 77.1954 33.5426 76.744 34.0004C76.8602 34.1116 77.0001 34.1953 77.1531 34.2452C77.3061 34.295 77.4684 34.3098 77.628 34.2884L77.896 32.4644Z" fill="#FF5652"/>
<path d="M78.42 35.4359C78.4067 35.4298 78.3958 35.4193 78.3893 35.4062C78.3827 35.3931 78.3809 35.3782 78.384 35.3639C78.385 35.3539 78.388 35.3442 78.3927 35.3353C78.3975 35.3265 78.404 35.3187 78.4118 35.3123C78.4196 35.306 78.4286 35.3013 78.4382 35.2985C78.4479 35.2956 78.458 35.2948 78.468 35.2959C78.789 35.3399 79.1159 35.3086 79.4228 35.2045C79.7297 35.1003 80.0081 34.9262 80.236 34.6959C80.2431 34.6887 80.2515 34.6831 80.2607 34.6792C80.27 34.6753 80.28 34.6733 80.29 34.6733C80.3 34.6733 80.31 34.6753 80.3193 34.6792C80.3285 34.6831 80.3369 34.6887 80.344 34.6959C80.3511 34.7029 80.3568 34.7113 80.3607 34.7206C80.3645 34.7299 80.3665 34.7398 80.3665 34.7499C80.3665 34.7599 80.3645 34.7698 80.3607 34.7791C80.3568 34.7884 80.3511 34.7968 80.344 34.8039C80.1006 35.0551 79.8012 35.2452 79.4703 35.3585C79.1394 35.4718 78.7863 35.5052 78.44 35.4559C78.4355 35.4541 78.4314 35.4513 78.428 35.4479C78.4245 35.4445 78.4218 35.4404 78.42 35.4359Z" fill="#263238"/>
<path d="M81.004 31.4683C80.9829 31.453 80.9663 31.4322 80.956 31.4083C80.8909 31.2316 80.7843 31.0732 80.645 30.9464C80.5057 30.8197 80.338 30.7284 80.156 30.6803C80.1364 30.6769 80.1177 30.6697 80.1009 30.6589C80.0842 30.6482 80.0698 30.6342 80.0586 30.6177C80.0474 30.6013 80.0396 30.5828 80.0358 30.5633C80.0319 30.5438 80.0319 30.5237 80.036 30.5043C80.0438 30.4641 80.067 30.4287 80.1006 30.4055C80.1343 30.3823 80.1757 30.3732 80.216 30.3803C80.4489 30.4352 80.6646 30.5468 80.844 30.7052C81.0233 30.8636 81.1607 31.0639 81.244 31.2883C81.2587 31.326 81.2581 31.3679 81.2425 31.4052C81.2268 31.4426 81.1972 31.4723 81.16 31.4883C81.1347 31.4999 81.1067 31.5042 81.0791 31.5007C81.0515 31.4972 81.0255 31.4859 81.004 31.4683Z" fill="#263238"/>
<path d="M80.1319 31.8561L79.5439 31.6001C79.5439 31.6001 79.7879 32.1281 80.1319 31.8561Z" fill="#263238"/>
<path d="M87.164 46.64C87.428 47.62 87.632 48.576 87.852 49.552C88.072 50.528 88.252 51.5 88.412 52.488C88.572 53.476 88.728 54.468 88.836 55.484C88.9678 56.5453 89.0239 57.6147 89.004 58.684V58.788C89.006 58.8239 89.006 58.86 89.004 58.896C88.841 59.8451 88.6084 60.781 88.308 61.696C88.04 62.576 87.728 63.432 87.408 64.276C87.088 65.12 86.744 65.952 86.38 66.776C86.016 67.6 85.628 68.4 85.2 69.2C85.0864 69.4126 84.8999 69.577 84.6748 69.663C84.4496 69.749 84.201 69.7508 83.9746 69.668C83.7482 69.5853 83.5594 69.4235 83.4428 69.2126C83.3262 69.0016 83.2897 68.7557 83.34 68.52L84.504 63.384C84.7 62.536 84.872 61.688 85.036 60.852C85.1995 60.0591 85.3197 59.2579 85.396 58.452V58.664C85.3314 57.7718 85.2179 56.8838 85.056 56.004C84.896 55.084 84.712 54.152 84.52 53.204L83.912 50.404L83.28 47.604C83.1527 47.0889 83.2352 46.5444 83.5094 46.0902C83.7836 45.636 84.227 45.3093 84.742 45.182C85.2571 45.0547 85.8016 45.1372 86.2558 45.4114C86.71 45.6855 87.0367 46.1289 87.164 46.644V46.64Z" fill="#FF8B7B"/>
<path d="M81.696 45.568C80.992 48.052 83.748 53.512 83.748 53.512C85.26 53.432 86.84 50.992 88.668 49.432C88.668 49.432 87.148 45.212 85.676 43.832C84.376 42.624 82.252 43.6 81.696 45.568Z" fill="#263238"/>
<path d="M56.928 34.8882L57.328 35.5882L60.032 34.1882L59.56 33.4802C59.4382 33.2941 59.2555 33.156 59.0432 33.0897C58.8309 33.0233 58.6021 33.0327 58.396 33.1162L57.4 33.5162C57.2728 33.5682 57.1582 33.6467 57.0638 33.7465C56.9694 33.8464 56.8974 33.9652 56.8527 34.0952C56.808 34.2251 56.7916 34.3631 56.8046 34.4998C56.8176 34.6366 56.8597 34.769 56.928 34.8882Z" fill="#FF8B7B"/>
<path d="M83.672 67.644L81.672 69.56L83.716 72.24C83.716 72.24 86.068 70.84 85.532 68.336L83.672 67.644Z" fill="#FF8B7B"/>
<path d="M81.072 71.5081L81.656 69.5601L83.7 72.2401L82.8 73.3601C82.761 73.4049 82.7125 73.4405 82.6581 73.4642C82.6037 73.488 82.5446 73.4993 82.4852 73.4974C82.4259 73.4955 82.3677 73.4804 82.3149 73.4532C82.2621 73.4259 82.216 73.3873 82.18 73.3401L81.132 71.8401C81.0984 71.7924 81.0756 71.738 81.0653 71.6807C81.0549 71.6233 81.0572 71.5644 81.072 71.5081Z" fill="#FF8B7B"/>
<path d="M67.904 58.0003C67.524 57.9043 67.38 59.0483 67.684 59.3643C67.988 59.6803 73.684 61.1603 80.952 61.6483C81.752 61.4243 81.552 60.2123 81.008 60.1363C79.2 60.2603 72.252 59.1003 67.904 58.0003Z" fill="url(#paint9_linear)"/>
<path opacity="0.2" d="M67.904 58.0003C67.524 57.9043 67.38 59.0483 67.684 59.3643C67.988 59.6803 73.684 61.1603 80.952 61.6483C81.752 61.4243 81.552 60.2123 81.008 60.1363C79.2 60.2603 72.252 59.1003 67.904 58.0003Z" fill="white"/>
<path d="M63.864 21.7881L50.92 31.5201L56.46 32.0161L54.044 36.3961L56.728 37.8761L59.148 33.5001L62.516 37.9281L63.864 21.7881Z" fill="url(#paint10_linear)"/>
<g opacity="0.2">
<path opacity="0.2" d="M57.684 28.7403C57.4183 28.1293 57.2444 27.4823 57.168 26.8203L54.572 28.7723C54.6599 29.4006 54.8321 30.0141 55.084 30.5963C55.2719 31.0793 55.5205 31.5363 55.824 31.9563L56.46 32.0163L56.228 32.4403C57.1005 33.2437 57.7449 34.2635 58.096 35.3963L59.144 33.5003L60.996 35.9283C61.0375 34.9083 60.8616 33.8912 60.48 32.9443C59.496 30.5523 58.672 31.1323 57.684 28.7403Z" fill="white"/>
<path opacity="0.2" d="M63.228 29.3964C62.492 28.2804 61.812 28.2524 61.028 26.3564C60.7504 25.7068 60.5724 25.0191 60.5 24.3164L58.684 25.6844C58.7564 26.3651 58.9304 27.0312 59.2 27.6604C60.184 30.0604 61.008 29.4684 62 31.8604C62.736 33.6564 62.464 34.4324 62.692 35.7164L63.228 29.3964Z" fill="white"/>
</g>
<path d="M60.116 37.1441C60.992 36.0761 60.6 34.7081 60.624 33.4081C60.624 33.2481 60.304 33.0441 59.976 33.5481C59.7768 33.9274 59.7079 34.3617 59.78 34.7841C59.12 35.0761 58.672 35.9601 59.18 36.9681C59.4768 37.0899 59.7953 37.1497 60.116 37.1441Z" fill="#FF8B7B"/>
<path d="M82.492 28C82.04 28.72 79.6 29.416 78.512 29.6C80.756 28.744 81.532 28 81.532 28H82.492Z" fill="#263238"/>
<defs>
<linearGradient id="paint0_linear" x1="96.6254" y1="92.327" x2="102.984" y2="107.678" gradientUnits="userSpaceOnUse">
<stop stop-color="#31ADEE"/>
<stop offset="1" stop-color="#2F5061" stop-opacity="0.9"/>
</linearGradient>
<linearGradient id="paint1_linear" x1="116.634" y1="60.8481" x2="116.634" y2="61.7481" gradientUnits="userSpaceOnUse">
<stop stop-color="#31ADEE"/>
<stop offset="1" stop-color="#2F5061" stop-opacity="0.9"/>
</linearGradient>
<linearGradient id="paint2_linear" x1="108.282" y1="59.3481" x2="108.282" y2="60.6321" gradientUnits="userSpaceOnUse">
<stop stop-color="#31ADEE"/>
<stop offset="1" stop-color="#2F5061" stop-opacity="0.9"/>
</linearGradient>
<linearGradient id="paint3_linear" x1="113.052" y1="153.732" x2="113.052" y2="157.864" gradientUnits="userSpaceOnUse">
<stop stop-color="#31ADEE"/>
<stop offset="1" stop-color="#2F5061" stop-opacity="0.9"/>
</linearGradient>
<linearGradient id="paint4_linear" x1="69.789" y1="74.7761" x2="137.451" y2="142.438" gradientUnits="userSpaceOnUse">
<stop stop-color="#31ADEE"/>
<stop offset="1" stop-color="#2F5061" stop-opacity="0.9"/>
</linearGradient>
<linearGradient id="paint5_linear" x1="103.516" y1="79.4482" x2="103.516" y2="139.612" gradientUnits="userSpaceOnUse">
<stop stop-color="#31ADEE"/>
<stop offset="1" stop-color="#2F5061" stop-opacity="0.9"/>
</linearGradient>
<linearGradient id="paint6_linear" x1="77.1274" y1="40.5288" x2="77.1274" y2="60.9761" gradientUnits="userSpaceOnUse">
<stop stop-color="#31ADEE"/>
<stop offset="1" stop-color="#2F5061" stop-opacity="0.9"/>
</linearGradient>
<linearGradient id="paint7_linear" x1="63.53" y1="123.1" x2="63.53" y2="125.336" gradientUnits="userSpaceOnUse">
<stop stop-color="#31ADEE"/>
<stop offset="1" stop-color="#2F5061" stop-opacity="0.9"/>
</linearGradient>
<linearGradient id="paint8_linear" x1="53.146" y1="113.304" x2="53.146" y2="116.488" gradientUnits="userSpaceOnUse">
<stop stop-color="#31ADEE"/>
<stop offset="1" stop-color="#2F5061" stop-opacity="0.9"/>
</linearGradient>
<linearGradient id="paint9_linear" x1="74.5026" y1="57.9946" x2="74.5026" y2="61.6483" gradientUnits="userSpaceOnUse">
<stop stop-color="#31ADEE"/>
<stop offset="1" stop-color="#2F5061" stop-opacity="0.9"/>
</linearGradient>
<linearGradient id="paint10_linear" x1="57.392" y1="21.7881" x2="57.392" y2="37.9281" gradientUnits="userSpaceOnUse">
<stop stop-color="#31ADEE"/>
<stop offset="1" stop-color="#2F5061" stop-opacity="0.9"/>
</linearGradient>
</defs>
</svg>
