<svg width="70" height="70" viewBox="0 0 70 70" fill="none" xmlns="http://www.w3.org/2000/svg">
<path d="M61.6609 51.1328C59.4899 48.9453 54.2316 45.7529 51.6805 44.4664C48.3582 42.793 48.0848 42.6562 45.4734 44.5963C43.7316 45.891 42.5736 47.0476 40.5352 46.6129C38.4967 46.1781 34.067 43.7267 30.1883 39.8603C26.3096 35.9939 23.716 31.4357 23.2799 29.4041C22.8438 27.3725 24.0195 26.2281 25.302 24.4822C27.1094 22.0213 26.9727 21.6111 25.4277 18.2889C24.2232 15.7049 20.9379 10.4959 18.7422 8.33573C16.3934 6.01561 16.3934 6.42577 14.8799 7.05468C13.6477 7.5731 12.4657 8.20327 11.3484 8.93729C9.16094 10.3906 7.94688 11.5978 7.09785 13.4121C6.24883 15.2264 5.86738 19.4797 10.252 27.4449C14.6365 35.4101 17.7127 39.483 24.0797 45.8322C30.4467 52.1814 35.3426 55.5953 42.4998 59.6094C51.3537 64.5682 54.7498 63.6016 56.5695 62.7539C58.3893 61.9062 59.602 60.7031 61.058 58.5156C61.7939 57.4003 62.4255 56.2195 62.9447 54.9883C63.575 53.4803 63.9852 53.4803 61.6609 51.1328Z" stroke="url(#paint0_linear)" stroke-width="3" stroke-miterlimit="10"/>
<defs>
<linearGradient id="paint0_linear" x1="34.9993" y1="6.56409" x2="34.9993" y2="63.4415" gradientUnits="userSpaceOnUse">
<stop stop-color="#1DCDDB"/>
<stop offset="1" stop-color="#31B8FF"/>
</linearGradient>
</defs>
</svg>
