<svg width="70" height="70" viewBox="0 0 70 70" fill="none" xmlns="http://www.w3.org/2000/svg">
<path d="M43.75 13.125H12.0312C10.5808 13.125 9.18985 13.7012 8.16426 14.7268C7.13867 15.7523 6.5625 17.1433 6.5625 18.5938V51.4062C6.5625 52.8567 7.13867 54.2477 8.16426 55.2732C9.18985 56.2988 10.5808 56.875 12.0312 56.875H57.7951C59.2455 56.875 60.6365 56.2988 61.6621 55.2732C62.6877 54.2477 63.2639 52.8567 63.2639 51.4062V32.6758" stroke="url(#paint0_linear)" stroke-width="3" stroke-linecap="round" stroke-linejoin="round"/>
<path d="M15.3125 21.875L35 37.1875L46.8945 28.2092" stroke="url(#paint1_linear)" stroke-width="3" stroke-linecap="round" stroke-linejoin="round"/>
<path d="M59.0557 24.0625C62.6763 24.0625 65.6113 21.1274 65.6113 17.5068C65.6113 13.8862 62.6763 10.9512 59.0557 10.9512C55.4351 10.9512 52.5 13.8862 52.5 17.5068C52.5 21.1274 55.4351 24.0625 59.0557 24.0625Z" fill="url(#paint2_linear)"/>
<path d="M59.0625 26.25C57.3333 26.25 55.6429 25.7372 54.2051 24.7765C52.7673 23.8158 51.6466 22.4503 50.9849 20.8527C50.3231 19.2551 50.15 17.4971 50.4873 15.8011C50.8247 14.1051 51.6574 12.5472 52.8802 11.3245C54.1029 10.1017 55.6608 9.26903 57.3568 8.93167C59.0528 8.59432 60.8108 8.76746 62.4084 9.42921C64.006 10.091 65.3715 11.2116 66.3322 12.6494C67.2929 14.0872 67.8057 15.7776 67.8057 17.5068C67.8039 19.8251 66.8821 22.0479 65.2429 23.6872C63.6036 25.3265 61.3808 26.2482 59.0625 26.25ZM59.0625 13.1387C58.1969 13.1373 57.3504 13.3928 56.63 13.8727C55.9097 14.3526 55.3478 15.0354 55.0157 15.8347C54.6835 16.634 54.5959 17.5139 54.7639 18.363C54.9319 19.2121 55.3481 19.9923 55.9597 20.6048C56.5712 21.2174 57.3508 21.6347 58.1996 21.8041C59.0485 21.9735 59.9285 21.8872 60.7283 21.5563C61.5282 21.2254 62.2118 20.6646 62.6929 19.945C63.1739 19.2254 63.4307 18.3793 63.4307 17.5137C63.4307 16.3545 62.9707 15.2428 62.1517 14.4225C61.3327 13.6022 60.2216 13.1405 59.0625 13.1387Z" fill="url(#paint3_linear)"/>
<defs>
<linearGradient id="paint0_linear" x1="34.9132" y1="13.125" x2="34.9132" y2="56.875" gradientUnits="userSpaceOnUse">
<stop stop-color="#1DCDDB"/>
<stop offset="1" stop-color="#31B8FF"/>
</linearGradient>
<linearGradient id="paint1_linear" x1="31.1035" y1="21.875" x2="31.1035" y2="37.1875" gradientUnits="userSpaceOnUse">
<stop stop-color="#1DCDDB"/>
<stop offset="1" stop-color="#31B8FF"/>
</linearGradient>
<linearGradient id="paint2_linear" x1="59.0557" y1="10.9512" x2="59.0557" y2="24.0625" gradientUnits="userSpaceOnUse">
<stop stop-color="#1DCDDB"/>
<stop offset="1" stop-color="#31B8FF"/>
</linearGradient>
<linearGradient id="paint3_linear" x1="59.0625" y1="8.76367" x2="59.0625" y2="26.25" gradientUnits="userSpaceOnUse">
<stop stop-color="#1DCDDB"/>
<stop offset="1" stop-color="#31B8FF"/>
</linearGradient>
</defs>
</svg>
