<svg width="70" height="70" viewBox="0 0 70 70" fill="none" xmlns="http://www.w3.org/2000/svg">
<path d="M35 6.5625C24.1309 6.5625 15.3125 14.9557 15.3125 25.293C15.3125 37.1875 28.4375 56.0369 33.2568 62.5475C33.4569 62.8223 33.7191 63.0459 34.022 63.2001C34.325 63.3543 34.6601 63.4347 35 63.4347C35.3399 63.4347 35.675 63.3543 35.978 63.2001C36.2809 63.0459 36.5431 62.8223 36.7432 62.5475C41.5625 56.0396 54.6875 37.1971 54.6875 25.293C54.6875 14.9557 45.8691 6.5625 35 6.5625Z" stroke="url(#paint0_linear)" stroke-width="3" stroke-linecap="round" stroke-linejoin="round"/>
<path d="M35 32.8125C38.6244 32.8125 41.5625 29.8744 41.5625 26.25C41.5625 22.6256 38.6244 19.6875 35 19.6875C31.3756 19.6875 28.4375 22.6256 28.4375 26.25C28.4375 29.8744 31.3756 32.8125 35 32.8125Z" stroke="url(#paint1_linear)" stroke-width="3" stroke-linecap="round" stroke-linejoin="round"/>
<defs>
<linearGradient id="paint0_linear" x1="35" y1="6.5625" x2="35" y2="63.4347" gradientUnits="userSpaceOnUse">
<stop stop-color="#1DCDDB"/>
<stop offset="1" stop-color="#31B8FF"/>
</linearGradient>
<linearGradient id="paint1_linear" x1="35" y1="19.6875" x2="35" y2="32.8125" gradientUnits="userSpaceOnUse">
<stop stop-color="#1DCDDB"/>
<stop offset="1" stop-color="#31B8FF"/>
</linearGradient>
</defs>
</svg>
