<svg width="25" height="25" viewBox="0 0 25 25" fill="none" xmlns="http://www.w3.org/2000/svg">
<path d="M24.2188 5.34669C23.3396 5.7287 22.4094 5.98037 21.4575 6.09376C22.4578 5.50801 23.2101 4.57743 23.5732 3.47657C22.6275 4.02959 21.5945 4.41762 20.5186 4.62403C20.0655 4.14919 19.5206 3.77145 18.917 3.51375C18.3133 3.25606 17.6636 3.1238 17.0073 3.12501C14.3501 3.12501 12.1997 5.24415 12.1997 7.85645C12.1978 8.21982 12.2395 8.5821 12.3237 8.93556C10.4183 8.84623 8.5525 8.36016 6.84569 7.50843C5.13889 6.65671 3.62865 5.45809 2.41162 3.98927C1.98466 4.70905 1.75885 5.5303 1.75781 6.3672C1.75781 8.00782 2.61377 9.45802 3.90625 10.3076C3.14049 10.2895 2.39043 10.0868 1.71973 9.71681V9.7754C1.71973 12.0703 3.37988 13.9795 5.57715 14.4141C5.16396 14.5242 4.73817 14.58 4.31055 14.5801C4.00712 14.5806 3.70438 14.5512 3.40674 14.4922C4.01758 16.3721 5.79541 17.7393 7.90137 17.7783C6.19013 19.0971 4.08917 19.8099 1.92871 19.8047C1.54522 19.8041 1.16209 19.7813 0.78125 19.7363C2.97909 21.1398 5.53391 21.8821 8.1416 21.875C16.9971 21.875 21.835 14.6631 21.835 8.40821C21.835 8.20313 21.8296 7.99806 21.8198 7.79786C22.7588 7.12992 23.5712 6.29987 24.2188 5.34669Z" fill="url(#paint0_linear)"/>
<defs>
<linearGradient id="paint0_linear" x1="12.5" y1="3.125" x2="12.5" y2="21.8751" gradientUnits="userSpaceOnUse">
<stop stop-color="#6EDEE9"/>
<stop offset="1" stop-color="#2E5365" stop-opacity="0.9"/>
</linearGradient>
</defs>
</svg>
